<?xml version="1.0" encoding="UTF-8" standalone="no"?>
<svg
   xmlns:dc="http://purl.org/dc/elements/1.1/"
   xmlns:cc="http://creativecommons.org/ns#"
   xmlns:rdf="http://www.w3.org/1999/02/22-rdf-syntax-ns#"
   xmlns:svg="http://www.w3.org/2000/svg"
   xmlns="http://www.w3.org/2000/svg"
   height="312.79669"
   width="224.1967"
   xml:space="preserve"
   enable-background="new 74 -106.5 744.1 1052.4"
   viewBox="74 -106.5 224.19671 312.79668"
   y="0px"
   x="0px"
   id="svg4423"
   version="1.1"><defs
     id="defs27" /><g
     transform="translate(-259.94895,-369.77722)"
     id="layer1"><g
       transform="translate(-1760.0774,-113.66123)"
       id="g8970"><g
         id="g8891"><g
           transform="translate(-4683.8753,2918.9368)"
           id="g8795"><path
             style="fill:#ffffff;stroke:#000000;stroke-width:0.99669999"
             d="m 6789,-2541.5 202,0 c 5.9,0 10.6,4.8 10.6,10.6 l 0,290.6 c 0,5.9 -4.8,10.6 -10.6,10.6 l -202,0 c -5.9,0 -10.6,-4.8 -10.6,-10.6 l 0,-290.6 c 0,-5.8 4.7,-10.6 10.6,-10.6 z"
             id="rect6365" /><g
             transform="matrix(0.30106207,0,0,0.30106207,5267.5599,-1982.7028)"
             id="g8612"><path
               style="fill:#d40000"
               d="m 5043.7,-1705.4 0,-104.6 10.3,0 0,104.7 -10.3,0 z"
               id="path7216" /><path
               style="fill:#d40000"
               d="m 5084.6,-1810 c -9.9,0 -17.9,8.9 -17.9,20 l 0,64.6 c 0,11.1 8,20 17.9,20 l 5.8,0 c 9.9,0 18,-8.9 18,-20 l 0,-64.6 c 0,-11.1 -8,-20 -18,-20 l -5.8,0 z m 3,9.9 c 5.9,0 10.6,4.4 10.6,10 l 0,65.5 c 0,5.5 -4.7,10 -10.6,10 -5.9,0 -10.6,-4.5 -10.6,-10 l 0,-65.5 c 0,-5.6 4.7,-10 10.6,-10 z"
               id="rect7235" /><g
               transform="matrix(-0.50404239,0,0,-0.50404239,7403.6384,312.07817)"
               id="g7984"><path
                 style="fill:#d40000"
                 d="m 3311.6,2545.4 0,-207.6 20.5,0 0,207.6 -20.5,0 z"
                 id="path7986" /><path
                 style="fill:#d40000"
                 d="m 3392.8,2337.8 c -19.7,0 -35.6,17.7 -35.6,39.7 l 0,128.3 c 0,22 15.9,39.7 35.6,39.7 l 11.5,0 c 19.7,0 35.6,-17.7 35.6,-39.7 l 0,-128.3 c 0,-22 -15.9,-39.7 -35.6,-39.7 l -11.5,0 z m 6,19.6 c 11.7,0 21,8.8 21,19.8 l 0,130 c 0,11 -9.4,19.8 -21,19.8 -11.7,0 -21,-8.8 -21,-19.8 l 0,-130 c 0,-11 9.3,-19.8 21,-19.8 z"
                 id="path7988" /></g></g></g></g><path
         style="fill:#d40000"
         d="m 2103,437.6 c -1.6,-3.5 -1.8,-9.4 3,-10.2 3.6,-0.5 5,1.2 5.3,3.7 0.1,0.7 0.6,0.8 0.7,-0.1 0.2,-2.6 2.8,-4.1 4.8,-3.8 5.5,0.9 5.2,7 3.4,11.2 -2.7,5.5 -5.6,8.9 -8.2,14.5 -3.1,-5.7 -6.5,-10.4 -9,-15.3 l 0,0 z"
         id="path8644" /><path
         style="fill:#d40000"
         d="m 2137.5,405.8 c 7.1,-0.5 10.9,5.6 11.6,10.4 0.4,0.8 0.7,0.5 0.8,0 0.3,-6.2 5.9,-11.2 11,-10.5 8.3,0.1 13.4,9.4 12,17.2 -1.7,9.6 -6.9,15.4 -10.8,21.3 -4.4,6.2 -10.4,15 -12.3,19.3 0,0 -6,-9.2 -13.9,-20 -5.3,-7.2 -9.5,-15.1 -9.9,-21.8 -0.4,-7.8 2.8,-14.7 11.5,-15.9 l 0,0 z"
         id="path8568" /><path
         style="fill:#d40000"
         d="m 2193.7,438.5 c 7.1,-0.5 10.9,5.6 11.6,10.4 0.4,0.8 0.7,0.5 0.8,0 0.3,-6.2 5.9,-11.2 11,-10.5 8.3,0.1 13.4,9.4 12,17.2 -1.7,9.6 -6.9,15.4 -10.8,21.3 -4.4,6.2 -10.4,15 -12.3,19.3 0,0 -6,-9.2 -13.9,-20 -5.3,-7.2 -9.5,-15.1 -9.9,-21.8 -0.4,-7.8 2.8,-14.8 11.5,-15.9 l 0,0 z"
         id="path8570" /><path
         style="fill:#d40000"
         d="m 2249.1,405.8 c 7.1,-0.5 10.9,5.6 11.6,10.4 0.4,0.8 0.7,0.5 0.8,0 0.3,-6.2 5.9,-11.2 11,-10.5 8.3,0.1 13.4,9.4 12,17.2 -1.7,9.6 -6.9,15.4 -10.8,21.3 -4.4,6.2 -10.4,15 -12.3,19.3 0,0 -6,-9.2 -13.9,-20 -5.3,-7.2 -9.5,-15.1 -9.9,-21.8 -0.5,-7.8 2.7,-14.7 11.5,-15.9 l 0,0 z"
         id="path8572" /><path
         style="fill:#d40000"
         d="m 2249.1,471.1 c 7.1,-0.5 10.9,5.6 11.6,10.4 0.4,0.8 0.7,0.5 0.8,0 0.3,-6.2 5.9,-11.2 11,-10.5 8.3,0.1 13.4,9.4 12,17.2 -1.7,9.6 -6.9,15.4 -10.8,21.3 -4.4,6.2 -10.4,15 -12.3,19.3 0,0 -6,-9.2 -13.9,-20 -5.3,-7.2 -9.5,-15.1 -9.9,-21.8 -0.5,-7.8 2.7,-14.7 11.5,-15.9 l 0,0 z"
         id="path8574" /><path
         style="fill:#d40000"
         d="m 2137.5,471.1 c 7.1,-0.5 10.9,5.6 11.6,10.4 0.4,0.8 0.7,0.5 0.8,0 0.3,-6.2 5.9,-11.2 11,-10.5 8.3,0.1 13.4,9.4 12,17.2 -1.7,9.6 -6.9,15.4 -10.8,21.3 -4.4,6.2 -10.4,15 -12.3,19.3 0,0 -6,-9.2 -13.9,-20 -5.3,-7.2 -9.5,-15.1 -9.9,-21.8 -0.4,-7.8 2.8,-14.7 11.5,-15.9 l 0,0 z"
         id="path8576" /><path
         style="fill:#d40000"
         d="m 2249.1,595.5 c 7.1,0.5 10.9,-5.6 11.6,-10.4 0.4,-0.8 0.7,-0.5 0.8,0 0.3,6.2 5.9,11.2 11,10.5 8.3,-0.1 13.4,-9.4 12,-17.2 -1.7,-9.6 -6.9,-15.4 -10.8,-21.3 -4.4,-6.2 -10.4,-15 -12.3,-19.3 0,0 -6,9.2 -13.9,20 -5.3,7.2 -9.5,15.1 -9.9,21.8 -0.5,7.8 2.7,14.7 11.5,15.9 l 0,0 z"
         id="path8596" /><path
         style="fill:#d40000"
         d="m 2249.1,660.6 c 7.1,0.5 10.9,-5.6 11.6,-10.4 0.4,-0.8 0.7,-0.5 0.8,0 0.3,6.2 5.9,11.2 11,10.5 8.3,-0.1 13.4,-9.4 12,-17.2 -1.7,-9.6 -6.9,-15.4 -10.8,-21.3 -4.4,-6.2 -10.4,-15 -12.3,-19.3 0,0 -6,9.2 -13.9,20 -5.3,7.2 -9.5,15.1 -9.9,21.8 -0.5,7.8 2.7,14.7 11.5,15.9 l 0,0 z"
         id="path8598" /><path
         style="fill:#d40000"
         d="m 2193.3,628.1 c 7.1,0.5 10.9,-5.6 11.6,-10.4 0.4,-0.8 0.7,-0.5 0.8,0 0.3,6.2 5.9,11.2 11,10.5 8.3,-0.1 13.4,-9.4 12,-17.2 -1.7,-9.6 -6.9,-15.4 -10.8,-21.3 -4.4,-6.2 -10.4,-15 -12.3,-19.3 0,0 -6,9.2 -13.9,20 -5.3,7.2 -9.5,15.1 -9.9,21.8 -0.5,7.7 2.7,14.7 11.5,15.9 l 0,0 z"
         id="path8600" /><path
         style="fill:#d40000"
         d="m 2137.5,595.5 c 7.1,0.5 10.9,-5.6 11.6,-10.4 0.4,-0.8 0.7,-0.5 0.8,0 0.3,6.2 5.9,11.2 11,10.5 8.3,-0.1 13.4,-9.4 12,-17.2 -1.7,-9.6 -6.9,-15.4 -10.8,-21.3 -4.4,-6.2 -10.4,-15 -12.3,-19.3 0,0 -6,9.2 -13.9,20 -5.3,7.2 -9.5,15.1 -9.9,21.8 -0.4,7.8 2.8,14.7 11.5,15.9 l 0,0 z"
         id="path8602" /><path
         style="fill:#d40000"
         d="m 2137.5,660.6 c 7.1,0.5 10.9,-5.6 11.6,-10.4 0.4,-0.8 0.7,-0.5 0.8,0 0.3,6.2 5.9,11.2 11,10.5 8.3,-0.1 13.4,-9.4 12,-17.2 -1.7,-9.6 -6.9,-15.4 -10.8,-21.3 -4.4,-6.2 -10.4,-15 -12.3,-19.3 0,0 -6,9.2 -13.9,20 -5.3,7.2 -9.5,15.1 -9.9,21.8 -0.4,7.8 2.8,14.7 11.5,15.9 l 0,0 z"
         id="path8604" /><path
         style="fill:#d40000"
         d="m 2291.8,628.5 c -1.6,3.5 -1.8,9.4 3,10.2 3.6,0.5 5,-1.2 5.3,-3.7 0.1,-0.7 0.6,-0.8 0.7,0.1 0.2,2.6 2.8,4.1 4.8,3.8 5.5,-0.9 5.2,-7 3.4,-11.2 -2.7,-5.5 -5.6,-8.9 -8.2,-14.5 -3.1,5.7 -6.5,10.3 -9,15.3 l 0,0 z"
         id="path8660" /></g></g></svg>