<?xml version="1.0" encoding="UTF-8" standalone="no"?>
<svg
   xmlns:dc="http://purl.org/dc/elements/1.1/"
   xmlns:cc="http://creativecommons.org/ns#"
   xmlns:rdf="http://www.w3.org/1999/02/22-rdf-syntax-ns#"
   xmlns:svg="http://www.w3.org/2000/svg"
   xmlns="http://www.w3.org/2000/svg"
   height="312.79001"
   width="224.19"
   xml:space="preserve"
   enable-background="new 74 -106.5 744.1 1052.4"
   viewBox="74 -106.5 224.19001 312.79"
   y="0px"
   x="0px"
   id="svg4423"
   version="1.1"><defs
     id="defs21" /><g
     transform="translate(-259.9374,-369.78057)"
     id="layer1"><g
       transform="translate(-1090.3923,-113.66123)"
       id="g9031"><g
         id="g8838"><g
           transform="translate(-4683.8753,2918.9368)"
           id="g8853"><path
             style="fill:#ffffff;stroke:#000000;stroke-width:0.99000001;stroke-miterlimit:3.79999995"
             d="m 6119.3,-2541.5 202,0 c 5.9,0 10.6,4.8 10.6,10.6 l 0,290.6 c 0,5.9 -4.8,10.6 -10.6,10.6 l -202,0 c -5.9,0 -10.6,-4.8 -10.6,-10.6 l 0,-290.6 c 0,-5.8 4.8,-10.6 10.6,-10.6 z"
             stroke-miterlimit="3.8"
             id="rect6359" /><g
             transform="matrix(0.30106207,0,0,0.30106207,5449.5822,-1980.8821)"
             id="g8660"><path
               style="fill:#d40000"
               d="m 2230.3,-1707.6 c 7.1,-36.8 14.6,-64.5 34.5,-94.5 l -40.3,0 0,12.9 -10.7,0 0,-24.4 59,0 7.3,11.4 c -21.1,22.6 -40.4,95.6 -36.9,94.5 l -12.9,0 z"
               id="path7110" /><path
               style="fill:#d40000"
               d="m 2889.8,-980.8 c -7.1,36.8 -14.6,64.5 -34.5,94.5 l 40.3,0 0,-12.9 10.7,0 0,24.4 -59,0 -7.3,-11.4 c 21.1,-22.6 40.4,-95.6 36.9,-94.5 l 12.9,-0.1 z"
               id="path7126" /></g></g></g><path
         style="fill:#d40000"
         d="m 1433.7,439.4 c -1.6,-3.5 -1.8,-9.4 3,-10.2 3.6,-0.5 5,1.2 5.3,3.7 0.1,0.7 0.6,0.8 0.7,-0.1 0.2,-2.6 2.8,-4.1 4.8,-3.8 5.5,0.9 5.2,7 3.4,11.2 -2.7,5.5 -5.6,8.9 -8.2,14.5 -3.2,-5.7 -6.6,-10.3 -9,-15.3 l 0,0 z"
         id="path8632" /><path
         style="fill:#d40000"
         d="m 1468,407.3 c 7.1,-0.5 10.9,5.6 11.6,10.4 0.4,0.8 0.7,0.5 0.8,0 0.3,-6.2 5.9,-11.2 11,-10.5 8.3,0.1 13.4,9.4 12,17.2 -1.7,9.6 -6.9,15.4 -10.8,21.3 -4.4,6.2 -10.4,15 -12.3,19.3 0,0 -6,-9.2 -13.9,-20 -5.3,-7.2 -9.5,-15.1 -9.9,-21.8 -0.4,-7.8 2.7,-14.7 11.5,-15.9 l 0,0 z"
         id="path8538" /><path
         style="fill:#d40000"
         d="m 1579.5,407.3 c 7.1,-0.5 10.9,5.6 11.6,10.4 0.4,0.8 0.7,0.5 0.8,0 0.3,-6.2 5.9,-11.2 11,-10.5 8.3,0.1 13.4,9.4 12,17.2 -1.7,9.6 -6.9,15.4 -10.8,21.3 -4.4,6.2 -10.4,15 -12.3,19.3 0,0 -6,-9.2 -13.9,-20 -5.3,-7.2 -9.5,-15.1 -9.9,-21.8 -0.4,-7.8 2.8,-14.7 11.5,-15.9 l 0,0 z"
         id="path8540" /><path
         style="fill:#d40000"
         d="m 1524.4,457.4 c 7.1,-0.5 10.9,5.6 11.6,10.4 0.4,0.8 0.7,0.5 0.8,0 0.3,-6.2 5.9,-11.2 11,-10.5 8.3,0.1 13.4,9.4 12,17.2 -1.7,9.6 -6.9,15.4 -10.8,21.3 -4.4,6.2 -10.4,15 -12.3,19.3 0,0 -6,-9.2 -13.9,-20 -5.3,-7.2 -9.5,-15.1 -9.9,-21.8 -0.4,-7.8 2.8,-14.7 11.5,-15.9 l 0,0 z"
         id="path8542" /><path
         style="fill:#d40000"
         d="m 1468,507.5 c 7.1,-0.5 10.9,5.6 11.6,10.4 0.4,0.8 0.7,0.5 0.8,0 0.3,-6.2 5.9,-11.2 11,-10.5 8.3,0.1 13.4,9.4 12,17.2 -1.7,9.6 -6.9,15.4 -10.8,21.3 -4.4,6.2 -10.4,15 -12.3,19.3 0,0 -6,-9.2 -13.9,-20 -5.3,-7.2 -9.5,-15.1 -9.9,-21.8 -0.4,-7.8 2.7,-14.7 11.5,-15.9 l 0,0 z"
         id="path8544" /><path
         style="fill:#d40000"
         d="m 1579.5,507.5 c 7.1,-0.5 10.9,5.6 11.6,10.4 0.4,0.8 0.7,0.5 0.8,0 0.3,-6.2 5.9,-11.2 11,-10.5 8.3,0.1 13.4,9.4 12,17.2 -1.7,9.6 -6.9,15.4 -10.8,21.3 -4.4,6.2 -10.4,15 -12.3,19.3 0,0 -6,-9.2 -13.9,-20 -5.3,-7.2 -9.5,-15.1 -9.9,-21.8 -0.4,-7.8 2.8,-14.7 11.5,-15.9 l 0,0 z"
         id="path8546" /><path
         style="fill:#d40000"
         d="m 1622.5,630.3 c -1.6,3.5 -1.8,9.4 3,10.2 3.6,0.5 5,-1.2 5.3,-3.7 0.1,-0.7 0.6,-0.8 0.7,0.1 0.2,2.6 2.8,4.1 4.8,3.8 5.5,-0.9 5.2,-7 3.4,-11.2 -2.7,-5.5 -5.6,-8.9 -8.2,-14.5 -3.1,5.7 -6.6,10.4 -9,15.3 l 0,0 z"
         id="path8666" /><path
         style="fill:#d40000"
         d="m 1579.5,663.6 c 7.1,0.5 10.9,-5.6 11.6,-10.4 0.4,-0.8 0.7,-0.5 0.8,0 0.3,6.2 5.9,11.2 11,10.5 8.3,-0.1 13.4,-9.4 12,-17.2 -1.7,-9.6 -6.9,-15.4 -10.8,-21.3 -4.4,-6.2 -10.4,-15 -12.3,-19.3 0,0 -6,9.2 -13.9,20 -5.3,7.2 -9.5,15.1 -9.9,21.8 -0.4,7.8 2.8,14.7 11.5,15.9 l 0,0 z"
         id="path8620" /><path
         style="fill:#d40000"
         d="m 1468,663.6 c 7.1,0.5 10.9,-5.6 11.6,-10.4 0.4,-0.8 0.7,-0.5 0.8,0 0.3,6.2 5.9,11.2 11,10.5 8.3,-0.1 13.4,-9.4 12,-17.2 -1.7,-9.6 -6.9,-15.4 -10.8,-21.3 -4.4,-6.2 -10.4,-15 -12.3,-19.3 0,0 -6,9.2 -13.9,20 -5.3,7.2 -9.5,15.1 -9.9,21.8 -0.4,7.8 2.7,14.7 11.5,15.9 l 0,0 z"
         id="path8622" /></g></g></svg>