<?xml version="1.0" encoding="UTF-8" standalone="no"?>
<svg
   xmlns:dc="http://purl.org/dc/elements/1.1/"
   xmlns:cc="http://creativecommons.org/ns#"
   xmlns:rdf="http://www.w3.org/1999/02/22-rdf-syntax-ns#"
   xmlns:svg="http://www.w3.org/2000/svg"
   xmlns="http://www.w3.org/2000/svg"
   height="312.79669"
   width="224.19823"
   xml:space="preserve"
   enable-background="new 74 -106.5 744.1 1052.4"
   viewBox="74 -106.5 224.19823 312.79668"
   y="0px"
   x="0px"
   id="svg4423"
   version="1.1"><defs
     id="defs22" /><g
     transform="translate(-260.00402,-369.77722)"
     id="layer1"><g
       transform="translate(-1313.6208,-113.66123)"
       id="g9013"><g
         id="g8854"><g
           transform="translate(-4683.8753,2918.9368)"
           id="g8836"><path
             style="fill:#ffffff;stroke:#000000;stroke-width:0.99669999"
             d="m 6342.6,-2541.5 202,0 c 5.9,0 10.6,4.8 10.6,10.6 l 0,290.6 c 0,5.9 -4.8,10.6 -10.6,10.6 l -202,0 c -5.9,0 -10.6,-4.8 -10.6,-10.6 l 0,-290.6 c -0.1,-5.8 4.7,-10.6 10.6,-10.6 z"
             id="rect6361" /><g
             transform="matrix(0.30106207,0,0,0.30106207,5370.0941,-1979.9322)"
             id="g8646"><path
               style="fill:#d40000"
               d="m 3217.5,-1740.5 c 0.5,-14.5 5.9,-20 16.4,-27.6 -8.4,-6 -11.9,-14.7 -11.2,-22.2 1.7,-18.1 16,-27.1 31.5,-26.7 15.5,0.4 28.9,12.5 30,25.6 0.9,11.4 -2.6,16.9 -10.8,23 9.8,8.1 16.1,13.5 15.8,27.8 -0.2,14.3 -12.6,31.4 -34.3,31.9 -21.6,0.5 -37.9,-17.2 -37.4,-31.8 l 0,0 z m 60.4,0.1 c 0.9,-13.2 -10.9,-22 -24.3,-22.2 -13,-0.1 -24.7,10.8 -24.7,22.6 0,12.7 15.2,19.6 24.9,19.6 12,0.1 23.3,-8.7 24.1,-20 l 0,0 z m -4.3,-47.1 c 0.3,-11.1 -10.2,-19 -20.9,-18.7 -9.6,0.3 -19.7,7.4 -19.7,16.7 0,11.6 11.5,17.4 21.3,17.6 9,0.2 19.1,-7.2 19.3,-15.6 z"
               id="path7112" /><path
               style="fill:#d40000"
               d="m 3913.5,-954.2 c -0.5,14.5 -5.9,20 -16.4,27.6 8.4,6 11.9,14.7 11.2,22.2 -1.7,18.1 -16,27.1 -31.5,26.7 -15.5,-0.4 -28.9,-12.5 -30,-25.6 -0.9,-11.4 2.6,-16.9 10.8,-23 -9.8,-8.1 -16.1,-13.5 -15.8,-27.8 0.2,-14.3 12.6,-31.4 34.3,-31.9 21.7,-0.4 38,17.2 37.4,31.8 l 0,0 z m -60.3,-0.1 c -0.9,13.2 10.9,22 24.3,22.2 13,0.1 24.7,-10.8 24.7,-22.6 0,-12.7 -15.2,-19.6 -24.9,-19.6 -12,-0.1 -23.3,8.7 -24.1,20 l 0,0 z m 4.3,47.1 c -0.3,11.1 10.2,19 20.9,18.7 9.6,-0.3 19.7,-7.4 19.7,-16.7 0,-11.6 -11.5,-17.4 -21.3,-17.6 -9,-0.2 -19.1,7.2 -19.3,15.6 z"
               id="path7128" /></g></g></g><path
         style="fill:#d40000"
         d="m 1657.6,440.4 c -1.6,-3.5 -1.8,-9.4 3,-10.2 3.6,-0.5 5,1.2 5.3,3.7 0.1,0.7 0.6,0.8 0.7,-0.1 0.2,-2.6 2.8,-4.1 4.8,-3.8 5.5,0.9 5.2,7 3.4,11.2 -2.7,5.5 -5.6,8.9 -8.2,14.5 -3.1,-5.7 -6.5,-10.4 -9,-15.3 l 0,0 z"
         id="path8634" /><path
         style="fill:#d40000"
         d="m 1692.6,405.1 c 7.1,-0.5 10.9,5.6 11.6,10.4 0.4,0.8 0.7,0.5 0.8,0 0.3,-6.2 5.9,-11.2 11,-10.5 8.3,0.1 13.4,9.4 12,17.2 -1.7,9.6 -6.9,15.4 -10.8,21.3 -4.4,6.2 -10.4,15 -12.3,19.3 0,0 -6,-9.2 -13.9,-20 -5.3,-7.2 -9.5,-15.1 -9.9,-21.8 -0.4,-7.8 2.7,-14.7 11.5,-15.9 l 0,0 z"
         id="path8548" /><path
         style="fill:#d40000"
         d="m 1802.1,405.1 c 7.1,-0.5 10.9,5.6 11.6,10.4 0.4,0.8 0.7,0.5 0.8,0 0.3,-6.2 5.9,-11.2 11,-10.5 8.3,0.1 13.4,9.4 12,17.2 -1.7,9.6 -6.9,15.4 -10.8,21.3 -4.4,6.2 -10.4,15 -12.3,19.3 0,0 -6,-9.2 -13.9,-20 -5.3,-7.2 -9.5,-15.1 -9.9,-21.8 -0.4,-7.8 2.8,-14.7 11.5,-15.9 l 0,0 z"
         id="path8550" /><path
         style="fill:#d40000"
         d="m 1746.8,455.2 c 7.1,-0.5 10.9,5.6 11.6,10.4 0.4,0.8 0.7,0.5 0.8,0 0.3,-6.2 5.9,-11.2 11,-10.5 8.3,0.1 13.4,9.4 12,17.2 -1.7,9.6 -6.9,15.4 -10.8,21.3 -4.4,6.2 -10.4,15 -12.3,19.3 0,0 -6,-9.2 -13.9,-20 -5.3,-7.2 -9.5,-15.1 -9.9,-21.8 -0.4,-7.8 2.7,-14.7 11.5,-15.9 l 0,0 z"
         id="path8552" /><path
         style="fill:#d40000"
         d="m 1692.6,505.4 c 7.1,-0.5 10.9,5.6 11.6,10.4 0.4,0.8 0.7,0.5 0.8,0 0.3,-6.2 5.9,-11.2 11,-10.5 8.3,0.1 13.4,9.4 12,17.2 -1.7,9.6 -6.9,15.4 -10.8,21.3 -4.4,6.2 -10.4,15 -12.3,19.3 0,0 -6,-9.2 -13.9,-20 -5.3,-7.2 -9.5,-15.1 -9.9,-21.8 -0.4,-7.8 2.7,-14.8 11.5,-15.9 l 0,0 z"
         id="path8554" /><path
         style="fill:#d40000"
         d="m 1802.1,505.4 c 7.1,-0.5 10.9,5.6 11.6,10.4 0.4,0.8 0.7,0.5 0.8,0 0.3,-6.2 5.9,-11.2 11,-10.5 8.3,0.1 13.4,9.4 12,17.2 -1.7,9.6 -6.9,15.4 -10.8,21.3 -4.4,6.2 -10.4,15 -12.3,19.3 0,0 -6,-9.2 -13.9,-20 -5.3,-7.2 -9.5,-15.1 -9.9,-21.8 -0.4,-7.8 2.8,-14.8 11.5,-15.9 l 0,0 z"
         id="path8556" /><path
         style="fill:#d40000"
         d="m 1802.1,661.4 c 7.1,0.5 10.9,-5.6 11.6,-10.4 0.4,-0.8 0.7,-0.5 0.8,0 0.3,6.2 5.9,11.2 11,10.5 8.3,-0.1 13.4,-9.4 12,-17.2 -1.7,-9.6 -6.9,-15.4 -10.8,-21.3 -4.4,-6.2 -10.4,-15 -12.3,-19.3 0,0 -6,9.2 -13.9,20 -5.3,7.2 -9.5,15.1 -9.9,21.8 -0.4,7.8 2.8,14.7 11.5,15.9 l 0,0 z"
         id="path8614" /><path
         style="fill:#d40000"
         d="m 1746.8,612.1 c 7.1,0.5 10.9,-5.6 11.6,-10.4 0.4,-0.8 0.7,-0.5 0.8,0 0.3,6.2 5.9,11.2 11,10.5 8.3,-0.1 13.4,-9.4 12,-17.2 -1.7,-9.6 -6.9,-15.4 -10.8,-21.3 -4.4,-6.2 -10.4,-15 -12.3,-19.3 0,0 -6,9.2 -13.9,20 -5.3,7.2 -9.5,15.1 -9.9,21.8 -0.4,7.8 2.7,14.7 11.5,15.9 l 0,0 z"
         id="path8616" /><path
         style="fill:#d40000"
         d="m 1692.6,661.4 c 7.1,0.5 10.9,-5.6 11.6,-10.4 0.4,-0.8 0.7,-0.5 0.8,0 0.3,6.2 5.9,11.2 11,10.5 8.3,-0.1 13.4,-9.4 12,-17.2 -1.7,-9.6 -6.9,-15.4 -10.8,-21.3 -4.4,-6.2 -10.4,-15 -12.3,-19.3 0,0 -6,9.2 -13.9,20 -5.3,7.2 -9.5,15.1 -9.9,21.8 -0.4,7.8 2.7,14.7 11.5,15.9 l 0,0 z"
         id="path8618" /><path
         style="fill:#d40000"
         d="m 1846.5,631.2 c -1.6,3.5 -1.8,9.4 3,10.2 3.6,0.5 5,-1.2 5.3,-3.7 0.1,-0.7 0.6,-0.8 0.7,0.1 0.2,2.6 2.8,4.1 4.8,3.8 5.5,-0.9 5.2,-7 3.4,-11.2 -2.7,-5.5 -5.6,-8.9 -8.2,-14.5 -3.2,5.7 -6.6,10.4 -9,15.3 l 0,0 z"
         id="path8664" /></g></g></svg>