<?xml version="1.0" encoding="UTF-8" standalone="no"?>
<svg
   xmlns:dc="http://purl.org/dc/elements/1.1/"
   xmlns:cc="http://creativecommons.org/ns#"
   xmlns:rdf="http://www.w3.org/1999/02/22-rdf-syntax-ns#"
   xmlns:svg="http://www.w3.org/2000/svg"
   xmlns="http://www.w3.org/2000/svg"
   height="312.79669"
   width="224.1967"
   xml:space="preserve"
   enable-background="new 74 -106.5 744.1 1052.4"
   viewBox="74 -106.5 224.19671 312.79668"
   y="0px"
   x="0px"
   id="svg4423"
   version="1.1"><defs
     id="defs24" /><g
     transform="translate(-259.97705,-369.77722)"
     id="layer1"><g
       transform="translate(-1536.8493,-113.66123)"
       id="g8993"><g
         id="g8871"><g
           transform="translate(-4683.8753,2918.9368)"
           id="g8817"><path
             style="fill:#ffffff;stroke:#000000;stroke-width:0.99669999"
             d="m 6565.8,-2541.5 202,0 c 5.9,0 10.6,4.8 10.6,10.6 l 0,290.6 c 0,5.9 -4.8,10.6 -10.6,10.6 l -202,0 c -5.9,0 -10.6,-4.8 -10.6,-10.6 l 0,-290.6 c 0,-5.8 4.7,-10.6 10.6,-10.6 z"
             id="rect6363" /><g
             transform="matrix(0.30106207,0,0,0.30106207,5727.1309,-1950.5247)"
             id="g8631"><g
               transform="translate(-1267.7708,-112.90889)"
               id="g8685"><path
                 style="fill:#d40000"
                 d="m 4045.6,-1719.3 10.1,-3.1 c 3.8,9.9 11.5,12.9 19.6,12.3 14.6,-1.1 19.4,-17.1 20.5,-31.2 -5.7,5.9 -14.2,8.9 -21.5,8.6 -23.2,-1.2 -29.1,-19.4 -29.3,-38.5 -0.6,-16.1 6.1,-27.8 17.8,-33.1 6.2,-2.7 20.2,-2.7 26.4,0.5 14.2,7.4 19.5,20.1 18.5,50.5 0,25 -5.4,54.1 -32.7,54.7 -15.8,2 -27.8,-10 -29.4,-20.7 l 0,0 z m 39.5,-27.3 c 4.7,-2.9 7.4,-5.7 9.5,-9.8 1.7,-3.4 2.3,-5.2 1.8,-12.2 -1.3,-18.1 -11,-28.4 -25,-26.4 -7.8,1.1 -12.1,5.4 -14.6,13.4 -4.5,14.8 1.2,32.1 12,36.1 5,1.8 12.4,1.3 16.3,-1.1 z"
                 id="path7114" /><path
                 style="fill:#d40000"
                 d="m 4730,-945 -10.1,3.1 c -3.8,-9.9 -11.5,-12.9 -19.6,-12.3 -14.6,1.1 -19.4,17.1 -20.5,31.2 5.7,-5.9 14.2,-8.9 21.5,-8.6 23.2,1.2 29.1,19.4 29.3,38.5 0.6,16.1 -6.1,27.8 -17.8,33.1 -6.2,2.7 -20.2,2.7 -26.4,-0.5 -14.2,-7.4 -19.5,-20.1 -18.5,-50.5 0,-25 5.4,-54.1 32.7,-54.7 15.8,-2 27.8,10.1 29.4,20.7 l 0,0 z m -39.5,27.4 c -4.7,2.9 -7.4,5.7 -9.5,9.8 -1.7,3.4 -2.3,5.2 -1.8,12.2 1.3,18.1 11,28.4 25,26.4 7.8,-1.1 12.1,-5.4 14.6,-13.4 4.5,-14.8 -1.2,-32.1 -12,-36.1 -5,-1.8 -12.4,-1.3 -16.3,1.1 l 0,0 z"
                 id="path7130" /></g></g></g></g><path
         style="fill:#d40000"
         d="m 1879.9,435.8 c -1.6,-3.5 -1.8,-9.4 3,-10.2 3.6,-0.5 5,1.2 5.3,3.7 0.1,0.7 0.6,0.8 0.7,-0.1 0.2,-2.6 2.8,-4.1 4.8,-3.8 5.5,0.9 5.2,7 3.4,11.2 -2.7,5.5 -5.6,8.9 -8.2,14.5 -3.1,-5.7 -6.6,-10.4 -9,-15.3 l 0,0 z"
         id="path8636" /><path
         style="fill:#d40000"
         d="m 1916.1,406.1 c 7.1,-0.5 10.9,5.6 11.6,10.4 0.4,0.8 0.7,0.5 0.8,0 0.3,-6.2 5.9,-11.2 11,-10.5 8.3,0.1 13.4,9.4 12,17.2 -1.7,9.6 -6.9,15.4 -10.8,21.3 -4.4,6.2 -10.4,15 -12.3,19.3 0,0 -6,-9.2 -13.9,-20 -5.3,-7.2 -9.5,-15.1 -9.9,-21.8 -0.4,-7.7 2.8,-14.7 11.5,-15.9 l 0,0 z"
         id="path8558" /><path
         style="fill:#d40000"
         d="m 2025.7,406.1 c 7.1,-0.5 10.9,5.6 11.6,10.4 0.4,0.8 0.7,0.5 0.8,0 0.3,-6.2 5.9,-11.2 11,-10.5 8.3,0.1 13.4,9.4 12,17.2 -1.7,9.6 -6.9,15.4 -10.8,21.3 -4.4,6.2 -10.4,15 -12.3,19.3 0,0 -6,-9.2 -13.9,-20 -5.3,-7.2 -9.5,-15.1 -9.9,-21.8 -0.5,-7.7 2.7,-14.7 11.5,-15.9 l 0,0 z"
         id="path8560" /><path
         style="fill:#d40000"
         d="m 2025.7,471.5 c 7.1,-0.5 10.9,5.6 11.6,10.4 0.4,0.8 0.7,0.5 0.8,0 0.3,-6.2 5.9,-11.2 11,-10.5 8.3,0.1 13.4,9.4 12,17.2 -1.7,9.6 -6.9,15.4 -10.8,21.3 -4.4,6.2 -10.4,15 -12.3,19.3 0,0 -6,-9.2 -13.9,-20 -5.3,-7.2 -9.5,-15.1 -9.9,-21.8 -0.5,-7.8 2.7,-14.7 11.5,-15.9 l 0,0 z"
         id="path8562" /><path
         style="fill:#d40000"
         d="m 1970.8,504.6 c 7.1,-0.5 10.9,5.6 11.6,10.4 0.4,0.8 0.7,0.5 0.8,0 0.3,-6.2 5.9,-11.2 11,-10.5 8.3,0.1 13.4,9.4 12,17.2 -1.7,9.6 -6.9,15.4 -10.8,21.3 -4.4,6.2 -10.4,15 -12.3,19.3 0,0 -6,-9.2 -13.9,-20 -5.3,-7.2 -9.5,-15.1 -9.9,-21.8 -0.4,-7.8 2.8,-14.7 11.5,-15.9 l 0,0 z"
         id="path8564" /><path
         style="fill:#d40000"
         d="m 1916.1,471.5 c 7.1,-0.5 10.9,5.6 11.6,10.4 0.4,0.8 0.7,0.5 0.8,0 0.3,-6.2 5.9,-11.2 11,-10.5 8.3,0.1 13.4,9.4 12,17.2 -1.7,9.6 -6.9,15.4 -10.8,21.3 -4.4,6.2 -10.4,15 -12.3,19.3 0,0 -6,-9.2 -13.9,-20 -5.3,-7.2 -9.5,-15.1 -9.9,-21.8 -0.4,-7.8 2.8,-14.7 11.5,-15.9 l 0,0 z"
         id="path8566" /><path
         style="fill:#d40000"
         d="m 2025.7,595.9 c 7.1,0.5 10.9,-5.6 11.6,-10.4 0.4,-0.8 0.7,-0.5 0.8,0 0.3,6.2 5.9,11.2 11,10.5 8.3,-0.1 13.4,-9.4 12,-17.2 -1.7,-9.6 -6.9,-15.4 -10.8,-21.3 -4.4,-6.2 -10.4,-15 -12.3,-19.3 0,0 -6,9.2 -13.9,20 -5.3,7.2 -9.5,15.1 -9.9,21.8 -0.5,7.7 2.7,14.7 11.5,15.9 l 0,0 z"
         id="path8606" /><path
         style="fill:#d40000"
         d="m 2025.7,661 c 7.1,0.5 10.9,-5.6 11.6,-10.4 0.4,-0.8 0.7,-0.5 0.8,0 0.3,6.2 5.9,11.2 11,10.5 8.3,-0.1 13.4,-9.4 12,-17.2 -1.7,-9.6 -6.9,-15.4 -10.8,-21.3 -4.4,-6.2 -10.4,-15 -12.3,-19.3 0,0 -6,9.2 -13.9,20 -5.3,7.2 -9.5,15.1 -9.9,21.8 -0.5,7.8 2.7,14.7 11.5,15.9 l 0,0 z"
         id="path8608" /><path
         style="fill:#d40000"
         d="m 1916.1,661 c 7.1,0.5 10.9,-5.6 11.6,-10.4 0.4,-0.8 0.7,-0.5 0.8,0 0.3,6.2 5.9,11.2 11,10.5 8.3,-0.1 13.4,-9.4 12,-17.2 -1.7,-9.6 -6.9,-15.4 -10.8,-21.3 -4.4,-6.2 -10.4,-15 -12.3,-19.3 0,0 -6,9.2 -13.9,20 -5.3,7.2 -9.5,15.1 -9.9,21.8 -0.4,7.8 2.8,14.7 11.5,15.9 l 0,0 z"
         id="path8610" /><path
         style="fill:#d40000"
         d="m 1916.1,595.9 c 7.1,0.5 10.9,-5.6 11.6,-10.4 0.4,-0.8 0.7,-0.5 0.8,0 0.3,6.2 5.9,11.2 11,10.5 8.3,-0.1 13.4,-9.4 12,-17.2 -1.7,-9.6 -6.9,-15.4 -10.8,-21.3 -4.4,-6.2 -10.4,-15 -12.3,-19.3 0,0 -6,9.2 -13.9,20 -5.3,7.2 -9.5,15.1 -9.9,21.8 -0.4,7.7 2.8,14.7 11.5,15.9 l 0,0 z"
         id="path8612" /><path
         style="fill:#d40000"
         d="m 2068.7,626.6 c -1.6,3.5 -1.8,9.4 3,10.2 3.6,0.5 5,-1.2 5.3,-3.7 0.1,-0.7 0.6,-0.8 0.7,0.1 0.2,2.6 2.8,4.1 4.8,3.8 5.5,-0.9 5.2,-7 3.4,-11.2 -2.7,-5.5 -5.6,-8.9 -8.2,-14.5 -3.1,5.8 -6.6,10.4 -9,15.3 l 0,0 z"
         id="path8662" /></g></g></svg>