<?xml version="1.0" encoding="UTF-8" standalone="no"?>
<svg
   xmlns:dc="http://purl.org/dc/elements/1.1/"
   xmlns:cc="http://creativecommons.org/ns#"
   xmlns:rdf="http://www.w3.org/1999/02/22-rdf-syntax-ns#"
   xmlns:svg="http://www.w3.org/2000/svg"
   xmlns="http://www.w3.org/2000/svg"
   height="312.79669"
   width="224.1967"
   xml:space="preserve"
   enable-background="new 74 -106.5 744.1 1052.4"
   viewBox="74 -106.5 224.19671 312.79668"
   y="0px"
   x="0px"
   id="svg4423"
   version="1.1"><defs
     id="defs15" /><g
     transform="translate(-259.93405,-369.78826)"
     id="layer1"><g
       transform="translate(-1090.3923,198.14981)"
       id="g8889"><g
         id="g8763"><g
           transform="translate(-4683.8753,2918.9368)"
           id="g8869"><path
             style="fill:#ffffff;stroke:#000000;stroke-width:0.99669999"
             d="m 6119.3,-2853.3 202,0 c 5.9,0 10.6,4.8 10.6,10.6 l 0,290.6 c 0,5.9 -4.8,10.6 -10.6,10.6 l -202,0 c -5.9,0 -10.6,-4.8 -10.6,-10.6 l 0,-290.6 c 0,-5.8 4.8,-10.6 10.6,-10.6 z"
             id="rect3232" /><g
             transform="matrix(0.30106207,0,0,0.30106207,5730.6419,-1948.1116)"
             id="g8567"><path
               style="fill:#d40000"
               d="m 1279.8,-2853.6 0,-9.1 8.8,0 18.8,-97.2 10.7,0 20.7,97.2 7.1,0 0,9.1 -24.3,0 0,-9.1 6.6,0 -2.6,-14.9 -24.5,0 -1.9,14.9 6.6,0 0,9.1 -26,0 z m 43.8,-34.6 -10.7,-52.1 -10,52.1 20.7,0 z"
               id="path7183" /><path
               style="fill:#d40000"
               d="m 1973.2,-2123.9 0,9.1 -8.8,0 -18.8,97.2 -10.7,0 -20.7,-97.2 -7.1,0 0,-9.1 24.3,0 0,9.1 -6.6,0 2.6,14.9 24.5,0 1.9,-14.9 -6.6,0 0,-9.1 26,0 z m -43.8,34.6 10.7,52.1 10,-52.1 -20.7,0 z"
               id="path7186" /></g></g></g><path
         style="fill:#d40000"
         d="m 1433.1,126.4 c -1.6,-3.5 -1.8,-9.4 3,-10.2 3.6,-0.5 5,1.2 5.3,3.7 0.1,0.7 0.6,0.8 0.7,-0.1 0.2,-2.6 2.8,-4.1 4.8,-3.7 5.5,0.9 5.2,7 3.4,11.2 -2.7,5.5 -5.6,8.9 -8.2,14.5 -3.1,-5.8 -6.6,-10.5 -9,-15.4 l 0,0 z"
         id="path8626" /><path
         style="fill:#d40000"
         d="m 1524.4,192.8 c 7.1,-0.5 10.9,5.6 11.6,10.4 0.4,0.8 0.7,0.5 0.8,0 0.3,-6.2 5.9,-11.2 11,-10.5 8.3,0.1 13.4,9.4 12,17.2 -1.7,9.6 -6.9,15.4 -10.8,21.3 -4.4,6.2 -10.4,15 -12.3,19.3 0,0 -6,-9.2 -13.9,-20 -5.3,-7.2 -9.5,-15.1 -9.9,-21.8 -0.4,-7.8 2.7,-14.7 11.5,-15.9 l 0,0 z"
         id="path8512" /><path
         style="fill:#d40000"
         d="m 1621.5,317.1 c -1.6,3.5 -1.8,9.4 3,10.2 3.6,0.5 5,-1.2 5.3,-3.7 0.1,-0.7 0.6,-0.8 0.7,0.1 0.2,2.6 2.8,4.1 4.8,3.7 5.5,-0.9 5.2,-7 3.4,-11.2 -2.7,-5.5 -5.6,-8.9 -8.2,-14.5 -3.1,5.8 -6.6,10.5 -9,15.4 l 0,0 z"
         id="path8648" /></g></g></svg>