<?xml version="1.0" encoding="UTF-8" standalone="no"?>
<!-- Generator: Adobe Illustrator 18.1.1, SVG Export Plug-In . SVG Version: 6.00 Build 0)  -->

<svg
   xmlns:dc="http://purl.org/dc/elements/1.1/"
   xmlns:cc="http://creativecommons.org/ns#"
   xmlns:rdf="http://www.w3.org/1999/02/22-rdf-syntax-ns#"
   xmlns:svg="http://www.w3.org/2000/svg"
   xmlns="http://www.w3.org/2000/svg"
   xmlns:sodipodi="http://sodipodi.sourceforge.net/DTD/sodipodi-0.dtd"
   xmlns:inkscape="http://www.inkscape.org/namespaces/inkscape"
   version="1.1"
   id="cw-thin"
   x="0px"
   y="0px"
   viewBox="-1227 674.6 223.20155 311.79998"
   enable-background="new -1227 674.6 744.1 1052.4"
   xml:space="preserve"
   inkscape:version="0.91 r13725"
   sodipodi:docname="back_blue.svg"
   width="223.20154"
   height="311.79999"><metadata
     id="metadata588"><rdf:RDF><cc:Work
         rdf:about=""><dc:format>image/svg+xml</dc:format><dc:type
           rdf:resource="http://purl.org/dc/dcmitype/StillImage" /><dc:title></dc:title></cc:Work></rdf:RDF></metadata><defs
     id="defs586" /><sodipodi:namedview
     inkscape:cy="159.54002"
     borderopacity="1.0"
     bordercolor="#666666"
     pagecolor="#ffffff"
     showgrid="false"
     id="base"
     inkscape:zoom="0.7"
     inkscape:cx="-178.73749"
     inkscape:window-maximized="1"
     inkscape:current-layer="cw-thin"
     inkscape:pageshadow="2"
     inkscape:pageopacity="0.0"
     inkscape:window-y="-8"
     inkscape:window-x="1352"
     inkscape:document-units="px"
     inkscape:window-height="972"
     inkscape:window-width="1280"
     fit-margin-top="0"
     fit-margin-left="0"
     fit-margin-right="0"
     fit-margin-bottom="0" /><path
     id="rect13537"
     d="m -1215.8985,675.09998 201,0 c 5.9,0 10.6,4.8 10.6,10.6 l 0,289.6 c 0,5.9 -4.8,10.6 -10.6,10.6 l -201,0 c -5.9,0 -10.6,-4.8 -10.6,-10.6 l 0,-289.6 c -0.1,-5.8 4.7,-10.6 10.6,-10.6 z"
     inkscape:connector-curvature="0"
     style="fill:#ffffff;stroke:#000000" /><path
     id="rect13537_1_"
     d="m -1211.3985,680.09998 191.9,0 c 5.6,0 10.2,4.6 10.2,10.3 l 0,280.2 c 0,5.7 -4.5,10.3 -10.2,10.3 l -191.9,0 c -5.6,0 -10.2,-4.6 -10.2,-10.3 l 0,-280.2 c 0,-5.7 4.6,-10.3 10.2,-10.3 z"
     inkscape:connector-curvature="0"
     style="fill:#202f73" /><polygon
     points="-961.1,1324.6 -961.1,1332.1 -950.1,1351.2 -945.7,1351.2 "
     id="polygon6"
     style="fill:#ffffff"
     transform="translate(-260.49847,-370.30002)" /><polygon
     points="-961.1,1302.1 -961.1,1309.6 -937.1,1351.2 -932.7,1351.2 "
     id="polygon8"
     style="fill:#ffffff"
     transform="translate(-260.49847,-370.30002)" /><polygon
     points="-924.1,1351.2 -919.7,1351.2 -961.1,1279.6 -961.1,1287.1 "
     id="polygon10"
     style="fill:#ffffff"
     transform="translate(-260.49847,-370.30002)" /><polygon
     points="-911.1,1351.2 -906.8,1351.2 -961.1,1257.1 -961.1,1264.6 "
     id="polygon12"
     style="fill:#ffffff"
     transform="translate(-260.49847,-370.30002)" /><polygon
     points="-898.1,1351.2 -893.8,1351.2 -961.1,1234.6 -961.1,1242.1 "
     id="polygon14"
     style="fill:#ffffff"
     transform="translate(-260.49847,-370.30002)" /><polygon
     points="-885.1,1351.2 -880.8,1351.2 -961.1,1212.1 -961.1,1219.6 "
     id="polygon16"
     style="fill:#ffffff"
     transform="translate(-260.49847,-370.30002)" /><polygon
     points="-872.1,1351.2 -867.8,1351.2 -961.1,1189.6 -961.1,1197.1 "
     id="polygon18"
     style="fill:#ffffff"
     transform="translate(-260.49847,-370.30002)" /><polygon
     points="-859.1,1351.2 -854.8,1351.2 -961.1,1167.1 -961.1,1174.6 "
     id="polygon20"
     style="fill:#ffffff"
     transform="translate(-260.49847,-370.30002)" /><polygon
     points="-846.1,1351.2 -841.8,1351.2 -961.1,1144.6 -961.1,1152.1 "
     id="polygon22"
     style="fill:#ffffff"
     transform="translate(-260.49847,-370.30002)" /><polygon
     points="-833.1,1351.2 -828.8,1351.2 -961.1,1122.1 -961.1,1129.6 "
     id="polygon24"
     style="fill:#ffffff"
     transform="translate(-260.49847,-370.30002)" /><polygon
     points="-820.1,1351.2 -815.8,1351.2 -961.1,1099.6 -961.1,1107.1 "
     id="polygon26"
     style="fill:#ffffff"
     transform="translate(-260.49847,-370.30002)" /><polygon
     points="-807.2,1351.2 -802.8,1351.2 -961.1,1077.1 -961.1,1084.6 "
     id="polygon28"
     style="fill:#ffffff"
     transform="translate(-260.49847,-370.30002)" /><path
     d="m -1050.2985,980.89998 -170.3,-294.9 c -0.6,1.3 -1,2.8 -1,4.4 l 0,1.4 166.9,289.1 4.4,0 z"
     id="path30"
     inkscape:connector-curvature="0"
     style="fill:#ffffff" /><path
     d="m -1037.2985,980.89998 -173.7,-300.8 -0.4,0 c -1.3,0 -2.4,0.2 -3.6,0.7 l 173.3,300.1 4.4,0 z"
     id="path32"
     inkscape:connector-curvature="0"
     style="fill:#ffffff" /><polygon
     points="-768.2,1351.2 -763.9,1351.2 -937.5,1050.4 -941.9,1050.4 "
     id="polygon34"
     style="fill:#ffffff"
     transform="translate(-260.49847,-370.30002)" /><path
     d="m -1012.7985,978.39998 -172.2,-298.3 -4.3,0 173.3,300.2 c 1.1,-0.4 2.2,-1.1 3.2,-1.9 z"
     id="path36"
     inkscape:connector-curvature="0"
     style="fill:#ffffff" /><polygon
     points="-748.8,1339.7 -748.8,1332.2 -911.5,1050.4 -915.9,1050.4 "
     id="polygon38"
     style="fill:#ffffff"
     transform="translate(-260.49847,-370.30002)" /><polygon
     points="-748.8,1317.2 -748.8,1309.7 -898.6,1050.4 -902.9,1050.4 "
     id="polygon40"
     style="fill:#ffffff"
     transform="translate(-260.49847,-370.30002)" /><polygon
     points="-748.8,1294.7 -748.8,1287.2 -885.6,1050.4 -889.9,1050.4 "
     id="polygon42"
     style="fill:#ffffff"
     transform="translate(-260.49847,-370.30002)" /><polygon
     points="-748.8,1272.2 -748.8,1264.7 -872.6,1050.4 -876.9,1050.4 "
     id="polygon44"
     style="fill:#ffffff"
     transform="translate(-260.49847,-370.30002)" /><polygon
     points="-748.8,1249.7 -748.8,1242.2 -859.6,1050.4 -863.9,1050.4 "
     id="polygon46"
     style="fill:#ffffff"
     transform="translate(-260.49847,-370.30002)" /><polygon
     points="-748.8,1227.2 -748.8,1219.7 -846.6,1050.4 -850.9,1050.4 "
     id="polygon48"
     style="fill:#ffffff"
     transform="translate(-260.49847,-370.30002)" /><polygon
     points="-748.8,1204.7 -748.8,1197.2 -833.6,1050.4 -837.9,1050.4 "
     id="polygon50"
     style="fill:#ffffff"
     transform="translate(-260.49847,-370.30002)" /><polygon
     points="-748.8,1182.2 -748.8,1174.7 -820.6,1050.4 -824.9,1050.4 "
     id="polygon52"
     style="fill:#ffffff"
     transform="translate(-260.49847,-370.30002)" /><polygon
     points="-748.8,1159.7 -748.8,1152.2 -807.6,1050.4 -812,1050.4 "
     id="polygon54"
     style="fill:#ffffff"
     transform="translate(-260.49847,-370.30002)" /><polygon
     points="-748.8,1137.2 -748.8,1129.7 -794.6,1050.4 -799,1050.4 "
     id="polygon56"
     style="fill:#ffffff"
     transform="translate(-260.49847,-370.30002)" /><polygon
     points="-748.8,1114.7 -748.8,1107.2 -781.6,1050.4 -786,1050.4 "
     id="polygon58"
     style="fill:#ffffff"
     transform="translate(-260.49847,-370.30002)" /><polygon
     points="-748.8,1092.2 -748.8,1084.7 -768.7,1050.4 -773,1050.4 "
     id="polygon60"
     style="fill:#ffffff"
     transform="translate(-260.49847,-370.30002)" /><path
     d="m -1009.2985,691.89998 -6.4,-11.1 c -1.2,-0.5 -2.4,-0.7 -3.8,-0.7 l -1,0 11.2,19.3 0,-7.5 z"
     id="path62"
     inkscape:connector-curvature="0"
     style="fill:#ffffff" /><path
     d="m -1216.7985,681.69998 -4.8,8.2 c 0,0.2 0,0.3 0,0.5 l 0,7.1 10,-17.3 c -1.9,0 -3.7,0.5 -5.2,1.5 z"
     id="path64"
     inkscape:connector-curvature="0"
     style="fill:#ffffff" /><polygon
     points="-938.1,1050.4 -942.4,1050.4 -961.1,1082.8 -961.1,1090.3 "
     id="polygon66"
     style="fill:#ffffff"
     transform="translate(-260.49847,-370.30002)" /><polygon
     points="-925.1,1050.4 -929.4,1050.4 -961.1,1105.3 -961.1,1112.8 "
     id="polygon68"
     style="fill:#ffffff"
     transform="translate(-260.49847,-370.30002)" /><polygon
     points="-912.1,1050.4 -916.4,1050.4 -961.1,1127.8 -961.1,1135.3 "
     id="polygon70"
     style="fill:#ffffff"
     transform="translate(-260.49847,-370.30002)" /><polygon
     points="-899.1,1050.4 -903.4,1050.4 -961.1,1150.3 -961.1,1157.8 "
     id="polygon72"
     style="fill:#ffffff"
     transform="translate(-260.49847,-370.30002)" /><polygon
     points="-886.1,1050.4 -890.4,1050.4 -961.1,1172.8 -961.1,1180.3 "
     id="polygon74"
     style="fill:#ffffff"
     transform="translate(-260.49847,-370.30002)" /><polygon
     points="-873.1,1050.4 -877.4,1050.4 -961.1,1195.3 -961.1,1202.8 "
     id="polygon76"
     style="fill:#ffffff"
     transform="translate(-260.49847,-370.30002)" /><polygon
     points="-860.1,1050.4 -864.4,1050.4 -961.1,1217.8 -961.1,1225.3 "
     id="polygon78"
     style="fill:#ffffff"
     transform="translate(-260.49847,-370.30002)" /><polygon
     points="-847.1,1050.4 -851.5,1050.4 -961.1,1240.3 -961.1,1247.8 "
     id="polygon80"
     style="fill:#ffffff"
     transform="translate(-260.49847,-370.30002)" /><polygon
     points="-834.1,1050.4 -838.5,1050.4 -961.1,1262.8 -961.1,1270.3 "
     id="polygon82"
     style="fill:#ffffff"
     transform="translate(-260.49847,-370.30002)" /><polygon
     points="-821.1,1050.4 -825.5,1050.4 -961.1,1285.3 -961.1,1292.8 "
     id="polygon84"
     style="fill:#ffffff"
     transform="translate(-260.49847,-370.30002)" /><polygon
     points="-808.2,1050.4 -812.5,1050.4 -961.1,1307.8 -961.1,1315.3 "
     id="polygon86"
     style="fill:#ffffff"
     transform="translate(-260.49847,-370.30002)" /><polygon
     points="-795.2,1050.4 -799.5,1050.4 -961.1,1330.3 -961.1,1337.8 "
     id="polygon88"
     style="fill:#ffffff"
     transform="translate(-260.49847,-370.30002)" /><path
     d="m -1046.9985,680.09998 -171.8,297.6 c 0.9,0.9 1.9,1.7 3,2.2 l 173.1,-299.8 -4.3,0 z"
     id="path90"
     inkscape:connector-curvature="0"
     style="fill:#ffffff" /><polygon
     points="-769.2,1050.4 -773.5,1050.4 -947.2,1351.2 -942.9,1351.2 "
     id="polygon92"
     style="fill:#ffffff"
     transform="translate(-260.49847,-370.30002)" /><path
     d="m -1019.4985,680.09998 -1.5,0 -173.7,300.8 4.3,0 173.5,-300.5 c -0.8,-0.2 -1.7,-0.3 -2.6,-0.3 z"
     id="path94"
     inkscape:connector-curvature="0"
     style="fill:#ffffff" /><path
     d="m -1010.8985,684.99998 -170.8,295.9 4.3,0 168,-291 c 0,-1.8 -0.6,-3.4 -1.5,-4.9 z"
     id="path96"
     inkscape:connector-curvature="0"
     style="fill:#ffffff" /><polygon
     points="-748.8,1082.7 -748.8,1075.2 -908.2,1351.2 -903.9,1351.2 "
     id="polygon98"
     style="fill:#ffffff"
     transform="translate(-260.49847,-370.30002)" /><polygon
     points="-748.8,1105.2 -748.8,1097.7 -895.2,1351.2 -890.9,1351.2 "
     id="polygon100"
     style="fill:#ffffff"
     transform="translate(-260.49847,-370.30002)" /><polygon
     points="-748.8,1127.7 -748.8,1120.2 -882.2,1351.2 -877.9,1351.2 "
     id="polygon102"
     style="fill:#ffffff"
     transform="translate(-260.49847,-370.30002)" /><polygon
     points="-748.8,1150.2 -748.8,1142.7 -869.2,1351.2 -864.9,1351.2 "
     id="polygon104"
     style="fill:#ffffff"
     transform="translate(-260.49847,-370.30002)" /><polygon
     points="-748.8,1172.7 -748.8,1165.2 -856.3,1351.2 -851.9,1351.2 "
     id="polygon106"
     style="fill:#ffffff"
     transform="translate(-260.49847,-370.30002)" /><polygon
     points="-748.8,1195.2 -748.8,1187.7 -843.3,1351.2 -838.9,1351.2 "
     id="polygon108"
     style="fill:#ffffff"
     transform="translate(-260.49847,-370.30002)" /><polygon
     points="-748.8,1217.7 -748.8,1210.2 -830.3,1351.2 -825.9,1351.2 "
     id="polygon110"
     style="fill:#ffffff"
     transform="translate(-260.49847,-370.30002)" /><polygon
     points="-748.8,1240.2 -748.8,1232.7 -817.3,1351.2 -812.9,1351.2 "
     id="polygon112"
     style="fill:#ffffff"
     transform="translate(-260.49847,-370.30002)" /><polygon
     points="-748.8,1262.7 -748.8,1255.2 -804.3,1351.2 -800,1351.2 "
     id="polygon114"
     style="fill:#ffffff"
     transform="translate(-260.49847,-370.30002)" /><polygon
     points="-748.8,1285.2 -748.8,1277.7 -791.3,1351.2 -787,1351.2 "
     id="polygon116"
     style="fill:#ffffff"
     transform="translate(-260.49847,-370.30002)" /><polygon
     points="-748.8,1307.7 -748.8,1300.2 -778.3,1351.2 -774,1351.2 "
     id="polygon118"
     style="fill:#ffffff"
     transform="translate(-260.49847,-370.30002)" /><polygon
     points="-748.8,1330.2 -748.8,1322.7 -765.3,1351.2 -761,1351.2 "
     id="polygon120"
     style="fill:#ffffff"
     transform="translate(-260.49847,-370.30002)" /><path
     d="m -1221.3985,972.29998 3.7,6.4 c 0.2,0.2 0.4,0.3 0.6,0.5 l -4.4,-7.6 c 0,0.2 0,0.4 0.1,0.7 z"
     id="path122"
     inkscape:connector-curvature="0"
     style="fill:#202f73" /><path
     d="m -1221.5985,967.19998 7.7,13.4 c 0.1,0 0.3,0.1 0.4,0.1 l -8.1,-14.1 0,0.6 z"
     id="path124"
     inkscape:connector-curvature="0"
     style="fill:#202f73" /><polygon
     points="-961.1,1332.1 -961.1,1332.7 -950.4,1351.2 -950.1,1351.2 "
     id="polygon126"
     style="fill:#202f73"
     transform="translate(-260.49847,-370.30002)" /><polygon
     points="-961.1,1324 -961.1,1324.6 -945.7,1351.2 -945.4,1351.2 "
     id="polygon128"
     style="fill:#202f73"
     transform="translate(-260.49847,-370.30002)" /><polygon
     points="-961.1,1319.2 -961.1,1319.8 -943,1351.2 -942.6,1351.2 "
     id="polygon130"
     style="fill:#202f73"
     transform="translate(-260.49847,-370.30002)" /><polygon
     points="-961.1,1314.4 -961.1,1315 -940.2,1351.2 -939.8,1351.2 "
     id="polygon132"
     style="fill:#202f73"
     transform="translate(-260.49847,-370.30002)" /><polygon
     points="-961.1,1309.6 -961.1,1310.2 -937.4,1351.2 -937.1,1351.2 "
     id="polygon134"
     style="fill:#202f73"
     transform="translate(-260.49847,-370.30002)" /><polygon
     points="-961.1,1301.5 -961.1,1302.1 -932.7,1351.2 -932.4,1351.2 "
     id="polygon136"
     style="fill:#202f73"
     transform="translate(-260.49847,-370.30002)" /><polygon
     points="-930,1351.2 -929.6,1351.2 -961.1,1296.7 -961.1,1297.3 "
     id="polygon138"
     style="fill:#202f73"
     transform="translate(-260.49847,-370.30002)" /><polygon
     points="-927.2,1351.2 -926.8,1351.2 -961.1,1291.9 -961.1,1292.5 "
     id="polygon140"
     style="fill:#202f73"
     transform="translate(-260.49847,-370.30002)" /><polygon
     points="-924.4,1351.2 -924.1,1351.2 -961.1,1287.1 -961.1,1287.7 "
     id="polygon142"
     style="fill:#202f73"
     transform="translate(-260.49847,-370.30002)" /><polygon
     points="-919.7,1351.2 -919.4,1351.2 -961.1,1279 -961.1,1279.6 "
     id="polygon144"
     style="fill:#202f73"
     transform="translate(-260.49847,-370.30002)" /><polygon
     points="-917,1351.2 -916.6,1351.2 -961.1,1274.2 -961.1,1274.8 "
     id="polygon146"
     style="fill:#202f73"
     transform="translate(-260.49847,-370.30002)" /><polygon
     points="-914.2,1351.2 -913.9,1351.2 -961.1,1269.4 -961.1,1270 "
     id="polygon148"
     style="fill:#202f73"
     transform="translate(-260.49847,-370.30002)" /><polygon
     points="-911.4,1351.2 -911.1,1351.2 -961.1,1264.6 -961.1,1265.2 "
     id="polygon150"
     style="fill:#202f73"
     transform="translate(-260.49847,-370.30002)" /><polygon
     points="-906.8,1351.2 -906.4,1351.2 -961.1,1256.5 -961.1,1257.1 "
     id="polygon152"
     style="fill:#202f73"
     transform="translate(-260.49847,-370.30002)" /><polygon
     points="-904,1351.2 -903.6,1351.2 -961.1,1251.7 -961.1,1252.3 "
     id="polygon154"
     style="fill:#202f73"
     transform="translate(-260.49847,-370.30002)" /><polygon
     points="-901.2,1351.2 -900.9,1351.2 -961.1,1246.9 -961.1,1247.5 "
     id="polygon156"
     style="fill:#202f73"
     transform="translate(-260.49847,-370.30002)" /><polygon
     points="-898.4,1351.2 -898.1,1351.2 -961.1,1242.1 -961.1,1242.7 "
     id="polygon158"
     style="fill:#202f73"
     transform="translate(-260.49847,-370.30002)" /><polygon
     points="-893.8,1351.2 -893.4,1351.2 -961.1,1234 -961.1,1234.6 "
     id="polygon160"
     style="fill:#202f73"
     transform="translate(-260.49847,-370.30002)" /><polygon
     points="-891,1351.2 -890.6,1351.2 -961.1,1229.2 -961.1,1229.8 "
     id="polygon162"
     style="fill:#202f73"
     transform="translate(-260.49847,-370.30002)" /><polygon
     points="-888.2,1351.2 -887.9,1351.2 -961.1,1224.4 -961.1,1225 "
     id="polygon164"
     style="fill:#202f73"
     transform="translate(-260.49847,-370.30002)" /><polygon
     points="-885.4,1351.2 -885.1,1351.2 -961.1,1219.6 -961.1,1220.2 "
     id="polygon166"
     style="fill:#202f73"
     transform="translate(-260.49847,-370.30002)" /><polygon
     points="-880.8,1351.2 -880.4,1351.2 -961.1,1211.5 -961.1,1212.1 "
     id="polygon168"
     style="fill:#202f73"
     transform="translate(-260.49847,-370.30002)" /><polygon
     points="-878,1351.2 -877.7,1351.2 -961.1,1206.7 -961.1,1207.3 "
     id="polygon170"
     style="fill:#202f73"
     transform="translate(-260.49847,-370.30002)" /><polygon
     points="-875.2,1351.2 -874.9,1351.2 -961.1,1201.9 -961.1,1202.5 "
     id="polygon172"
     style="fill:#202f73"
     transform="translate(-260.49847,-370.30002)" /><polygon
     points="-872.5,1351.2 -872.1,1351.2 -961.1,1197.1 -961.1,1197.7 "
     id="polygon174"
     style="fill:#202f73"
     transform="translate(-260.49847,-370.30002)" /><polygon
     points="-867.8,1351.2 -867.4,1351.2 -961.1,1189 -961.1,1189.6 "
     id="polygon176"
     style="fill:#202f73"
     transform="translate(-260.49847,-370.30002)" /><polygon
     points="-865,1351.2 -864.7,1351.2 -961.1,1184.2 -961.1,1184.8 "
     id="polygon178"
     style="fill:#202f73"
     transform="translate(-260.49847,-370.30002)" /><polygon
     points="-862.2,1351.2 -861.9,1351.2 -961.1,1179.4 -961.1,1180 "
     id="polygon180"
     style="fill:#202f73"
     transform="translate(-260.49847,-370.30002)" /><polygon
     points="-859.5,1351.2 -859.1,1351.2 -961.1,1174.6 -961.1,1175.2 "
     id="polygon182"
     style="fill:#202f73"
     transform="translate(-260.49847,-370.30002)" /><polygon
     points="-854.8,1351.2 -854.4,1351.2 -961.1,1166.5 -961.1,1167.1 "
     id="polygon184"
     style="fill:#202f73"
     transform="translate(-260.49847,-370.30002)" /><polygon
     points="-852,1351.2 -851.7,1351.2 -961.1,1161.7 -961.1,1162.3 "
     id="polygon186"
     style="fill:#202f73"
     transform="translate(-260.49847,-370.30002)" /><polygon
     points="-849.2,1351.2 -848.9,1351.2 -961.1,1156.9 -961.1,1157.5 "
     id="polygon188"
     style="fill:#202f73"
     transform="translate(-260.49847,-370.30002)" /><polygon
     points="-846.5,1351.2 -846.1,1351.2 -961.1,1152.1 -961.1,1152.7 "
     id="polygon190"
     style="fill:#202f73"
     transform="translate(-260.49847,-370.30002)" /><polygon
     points="-841.8,1351.2 -841.5,1351.2 -961.1,1144 -961.1,1144.6 "
     id="polygon192"
     style="fill:#202f73"
     transform="translate(-260.49847,-370.30002)" /><polygon
     points="-839,1351.2 -838.7,1351.2 -961.1,1139.2 -961.1,1139.8 "
     id="polygon194"
     style="fill:#202f73"
     transform="translate(-260.49847,-370.30002)" /><polygon
     points="-836.3,1351.2 -835.9,1351.2 -961.1,1134.4 -961.1,1135 "
     id="polygon196"
     style="fill:#202f73"
     transform="translate(-260.49847,-370.30002)" /><polygon
     points="-833.5,1351.2 -833.1,1351.2 -961.1,1129.6 -961.1,1130.2 "
     id="polygon198"
     style="fill:#202f73"
     transform="translate(-260.49847,-370.30002)" /><polygon
     points="-828.8,1351.2 -828.5,1351.2 -961.1,1121.5 -961.1,1122.1 "
     id="polygon200"
     style="fill:#202f73"
     transform="translate(-260.49847,-370.30002)" /><polygon
     points="-826,1351.2 -825.7,1351.2 -961.1,1116.7 -961.1,1117.3 "
     id="polygon202"
     style="fill:#202f73"
     transform="translate(-260.49847,-370.30002)" /><polygon
     points="-823.3,1351.2 -822.9,1351.2 -961.1,1111.9 -961.1,1112.5 "
     id="polygon204"
     style="fill:#202f73"
     transform="translate(-260.49847,-370.30002)" /><polygon
     points="-820.5,1351.2 -820.1,1351.2 -961.1,1107.1 -961.1,1107.7 "
     id="polygon206"
     style="fill:#202f73"
     transform="translate(-260.49847,-370.30002)" /><polygon
     points="-815.8,1351.2 -815.5,1351.2 -961.1,1099 -961.1,1099.6 "
     id="polygon208"
     style="fill:#202f73"
     transform="translate(-260.49847,-370.30002)" /><polygon
     points="-813,1351.2 -812.7,1351.2 -961.1,1094.2 -961.1,1094.8 "
     id="polygon210"
     style="fill:#202f73"
     transform="translate(-260.49847,-370.30002)" /><polygon
     points="-810.3,1351.2 -809.9,1351.2 -961.1,1089.4 -961.1,1090 "
     id="polygon212"
     style="fill:#202f73"
     transform="translate(-260.49847,-370.30002)" /><polygon
     points="-807.5,1351.2 -807.2,1351.2 -961.1,1084.6 -961.1,1085.2 "
     id="polygon214"
     style="fill:#202f73"
     transform="translate(-260.49847,-370.30002)" /><polygon
     points="-802.8,1351.2 -802.5,1351.2 -961.1,1076.5 -961.1,1077.1 "
     id="polygon216"
     style="fill:#202f73"
     transform="translate(-260.49847,-370.30002)" /><polygon
     points="-800.1,1351.2 -799.7,1351.2 -961.1,1071.7 -961.1,1072.3 "
     id="polygon218"
     style="fill:#202f73"
     transform="translate(-260.49847,-370.30002)" /><polygon
     points="-797.3,1351.2 -796.9,1351.2 -961.1,1066.9 -961.1,1067.5 "
     id="polygon220"
     style="fill:#202f73"
     transform="translate(-260.49847,-370.30002)" /><polygon
     points="-794.5,1351.2 -794.2,1351.2 -961.1,1062.1 -961.1,1062.7 "
     id="polygon222"
     style="fill:#202f73"
     transform="translate(-260.49847,-370.30002)" /><path
     d="m -1049.9985,980.89998 -170.4,-295.2 c -0.1,0.1 -0.1,0.2 -0.2,0.3 l 170.3,294.9 0.3,0 z"
     id="path224"
     inkscape:connector-curvature="0"
     style="fill:#202f73" /><path
     d="m -1047.1985,980.89998 -171.7,-297.4 c -0.1,0.1 -0.1,0.2 -0.2,0.2 l 171.6,297.2 0.3,0 z"
     id="path226"
     inkscape:connector-curvature="0"
     style="fill:#202f73" /><path
     d="m -1044.3985,980.89998 -172.7,-299 c -0.1,0.1 -0.2,0.1 -0.2,0.2 l 172.5,298.9 0.4,0 z"
     id="path228"
     inkscape:connector-curvature="0"
     style="fill:#202f73" /><path
     d="m -1041.6985,980.89998 -173.3,-300.1 c -0.1,0 -0.2,0.1 -0.3,0.1 l 173.2,300 0.4,0 z"
     id="path230"
     inkscape:connector-curvature="0"
     style="fill:#202f73" /><polygon
     points="-776.8,1351.2 -776.5,1351.2 -950.2,1050.4 -950.5,1050.4 "
     id="polygon232"
     style="fill:#202f73"
     transform="translate(-260.49847,-370.30002)" /><polygon
     points="-774.1,1351.2 -773.7,1351.2 -947.4,1050.4 -947.7,1050.4 "
     id="polygon234"
     style="fill:#202f73"
     transform="translate(-260.49847,-370.30002)" /><polygon
     points="-771.3,1351.2 -771,1351.2 -944.6,1050.4 -945,1050.4 "
     id="polygon236"
     style="fill:#202f73"
     transform="translate(-260.49847,-370.30002)" /><polygon
     points="-768.5,1351.2 -768.2,1351.2 -941.9,1050.4 -942.2,1050.4 "
     id="polygon238"
     style="fill:#202f73"
     transform="translate(-260.49847,-370.30002)" /><polygon
     points="-763.9,1351.2 -763.5,1351.2 -937.2,1050.4 -937.5,1050.4 "
     id="polygon240"
     style="fill:#202f73"
     transform="translate(-260.49847,-370.30002)" /><polygon
     points="-761.1,1351.2 -760.7,1351.2 -934.4,1050.4 -934.8,1050.4 "
     id="polygon242"
     style="fill:#202f73"
     transform="translate(-260.49847,-370.30002)" /><path
     d="m -1018.4985,980.89998 -173.6,-300.8 -0.3,0 173.6,300.8 c 0.1,0 0.2,0 0.3,0 z"
     id="path244"
     inkscape:connector-curvature="0"
     style="fill:#202f73" /><path
     d="m -1016.0985,980.29998 -173.3,-300.2 -0.3,0 173.4,300.3 c 0.1,0 0.2,-0.1 0.2,-0.1 z"
     id="path246"
     inkscape:connector-curvature="0"
     style="fill:#202f73" /><path
     d="m -1012.5985,978.19998 -172.1,-298.1 -0.3,0 172.2,298.3 c 0,-0.1 0.1,-0.2 0.2,-0.2 z"
     id="path248"
     inkscape:connector-curvature="0"
     style="fill:#202f73" /><path
     d="m -1010.9985,976.19998 -170.9,-296.1 -0.3,0 171.1,296.4 c 0,-0.1 0.1,-0.2 0.1,-0.3 z"
     id="path250"
     inkscape:connector-curvature="0"
     style="fill:#202f73" /><path
     d="m -1009.7985,973.49998 -169.4,-293.4 -0.3,0 169.6,293.8 c 0.1,-0.1 0.1,-0.2 0.1,-0.4 z"
     id="path252"
     inkscape:connector-curvature="0"
     style="fill:#202f73" /><polygon
     points="-748.8,1340.3 -748.8,1339.7 -915.9,1050.4 -916.2,1050.4 "
     id="polygon254"
     style="fill:#202f73"
     transform="translate(-260.49847,-370.30002)" /><polygon
     points="-748.8,1332.2 -748.8,1331.6 -911.2,1050.4 -911.5,1050.4 "
     id="polygon256"
     style="fill:#202f73"
     transform="translate(-260.49847,-370.30002)" /><polygon
     points="-748.8,1327.4 -748.8,1326.8 -908.4,1050.4 -908.8,1050.4 "
     id="polygon258"
     style="fill:#202f73"
     transform="translate(-260.49847,-370.30002)" /><polygon
     points="-748.8,1322.6 -748.8,1322 -905.7,1050.4 -906,1050.4 "
     id="polygon260"
     style="fill:#202f73"
     transform="translate(-260.49847,-370.30002)" /><polygon
     points="-748.8,1317.8 -748.8,1317.2 -902.9,1050.4 -903.2,1050.4 "
     id="polygon262"
     style="fill:#202f73"
     transform="translate(-260.49847,-370.30002)" /><polygon
     points="-748.8,1309.7 -748.8,1309.1 -898.2,1050.4 -898.6,1050.4 "
     id="polygon264"
     style="fill:#202f73"
     transform="translate(-260.49847,-370.30002)" /><polygon
     points="-748.8,1304.9 -748.8,1304.3 -895.4,1050.4 -895.8,1050.4 "
     id="polygon266"
     style="fill:#202f73"
     transform="translate(-260.49847,-370.30002)" /><polygon
     points="-748.8,1300.1 -748.8,1299.5 -892.7,1050.4 -893,1050.4 "
     id="polygon268"
     style="fill:#202f73"
     transform="translate(-260.49847,-370.30002)" /><polygon
     points="-748.8,1295.3 -748.8,1294.7 -889.9,1050.4 -890.2,1050.4 "
     id="polygon270"
     style="fill:#202f73"
     transform="translate(-260.49847,-370.30002)" /><polygon
     points="-748.8,1287.2 -748.8,1286.6 -885.2,1050.4 -885.6,1050.4 "
     id="polygon272"
     style="fill:#202f73"
     transform="translate(-260.49847,-370.30002)" /><polygon
     points="-748.8,1282.4 -748.8,1281.8 -882.4,1050.4 -882.8,1050.4 "
     id="polygon274"
     style="fill:#202f73"
     transform="translate(-260.49847,-370.30002)" /><polygon
     points="-748.8,1277.6 -748.8,1277 -879.7,1050.4 -880,1050.4 "
     id="polygon276"
     style="fill:#202f73"
     transform="translate(-260.49847,-370.30002)" /><polygon
     points="-748.8,1272.8 -748.8,1272.2 -876.9,1050.4 -877.3,1050.4 "
     id="polygon278"
     style="fill:#202f73"
     transform="translate(-260.49847,-370.30002)" /><polygon
     points="-748.8,1264.7 -748.8,1264.1 -872.2,1050.4 -872.6,1050.4 "
     id="polygon280"
     style="fill:#202f73"
     transform="translate(-260.49847,-370.30002)" /><polygon
     points="-748.8,1259.9 -748.8,1259.3 -869.5,1050.4 -869.8,1050.4 "
     id="polygon282"
     style="fill:#202f73"
     transform="translate(-260.49847,-370.30002)" /><polygon
     points="-748.8,1255.1 -748.8,1254.5 -866.7,1050.4 -867,1050.4 "
     id="polygon284"
     style="fill:#202f73"
     transform="translate(-260.49847,-370.30002)" /><polygon
     points="-748.8,1250.3 -748.8,1249.7 -863.9,1050.4 -864.3,1050.4 "
     id="polygon286"
     style="fill:#202f73"
     transform="translate(-260.49847,-370.30002)" /><polygon
     points="-748.8,1242.2 -748.8,1241.6 -859.2,1050.4 -859.6,1050.4 "
     id="polygon288"
     style="fill:#202f73"
     transform="translate(-260.49847,-370.30002)" /><polygon
     points="-748.8,1237.4 -748.8,1236.8 -856.5,1050.4 -856.8,1050.4 "
     id="polygon290"
     style="fill:#202f73"
     transform="translate(-260.49847,-370.30002)" /><polygon
     points="-748.8,1232.6 -748.8,1232 -853.7,1050.4 -854,1050.4 "
     id="polygon292"
     style="fill:#202f73"
     transform="translate(-260.49847,-370.30002)" /><polygon
     points="-748.8,1227.8 -748.8,1227.2 -850.9,1050.4 -851.3,1050.4 "
     id="polygon294"
     style="fill:#202f73"
     transform="translate(-260.49847,-370.30002)" /><polygon
     points="-748.8,1219.7 -748.8,1219.1 -846.2,1050.4 -846.6,1050.4 "
     id="polygon296"
     style="fill:#202f73"
     transform="translate(-260.49847,-370.30002)" /><polygon
     points="-748.8,1214.9 -748.8,1214.3 -843.5,1050.4 -843.8,1050.4 "
     id="polygon298"
     style="fill:#202f73"
     transform="translate(-260.49847,-370.30002)" /><polygon
     points="-748.8,1210.1 -748.8,1209.5 -840.7,1050.4 -841.1,1050.4 "
     id="polygon300"
     style="fill:#202f73"
     transform="translate(-260.49847,-370.30002)" /><polygon
     points="-748.8,1205.3 -748.8,1204.7 -837.9,1050.4 -838.3,1050.4 "
     id="polygon302"
     style="fill:#202f73"
     transform="translate(-260.49847,-370.30002)" /><polygon
     points="-748.8,1197.2 -748.8,1196.6 -833.3,1050.4 -833.6,1050.4 "
     id="polygon304"
     style="fill:#202f73"
     transform="translate(-260.49847,-370.30002)" /><polygon
     points="-748.8,1192.4 -748.8,1191.8 -830.5,1050.4 -830.8,1050.4 "
     id="polygon306"
     style="fill:#202f73"
     transform="translate(-260.49847,-370.30002)" /><polygon
     points="-748.8,1187.6 -748.8,1187 -827.7,1050.4 -828.1,1050.4 "
     id="polygon308"
     style="fill:#202f73"
     transform="translate(-260.49847,-370.30002)" /><polygon
     points="-748.8,1182.8 -748.8,1182.2 -824.9,1050.4 -825.3,1050.4 "
     id="polygon310"
     style="fill:#202f73"
     transform="translate(-260.49847,-370.30002)" /><polygon
     points="-748.8,1174.7 -748.8,1174.1 -820.3,1050.4 -820.6,1050.4 "
     id="polygon312"
     style="fill:#202f73"
     transform="translate(-260.49847,-370.30002)" /><polygon
     points="-748.8,1169.9 -748.8,1169.3 -817.5,1050.4 -817.8,1050.4 "
     id="polygon314"
     style="fill:#202f73"
     transform="translate(-260.49847,-370.30002)" /><polygon
     points="-748.8,1165.1 -748.8,1164.5 -814.7,1050.4 -815.1,1050.4 "
     id="polygon316"
     style="fill:#202f73"
     transform="translate(-260.49847,-370.30002)" /><polygon
     points="-748.8,1160.3 -748.8,1159.7 -812,1050.4 -812.3,1050.4 "
     id="polygon318"
     style="fill:#202f73"
     transform="translate(-260.49847,-370.30002)" /><polygon
     points="-748.8,1152.2 -748.8,1151.6 -807.3,1050.4 -807.6,1050.4 "
     id="polygon320"
     style="fill:#202f73"
     transform="translate(-260.49847,-370.30002)" /><polygon
     points="-748.8,1147.4 -748.8,1146.8 -804.5,1050.4 -804.9,1050.4 "
     id="polygon322"
     style="fill:#202f73"
     transform="translate(-260.49847,-370.30002)" /><polygon
     points="-748.8,1142.6 -748.8,1142 -801.7,1050.4 -802.1,1050.4 "
     id="polygon324"
     style="fill:#202f73"
     transform="translate(-260.49847,-370.30002)" /><polygon
     points="-748.8,1137.8 -748.8,1137.2 -799,1050.4 -799.3,1050.4 "
     id="polygon326"
     style="fill:#202f73"
     transform="translate(-260.49847,-370.30002)" /><polygon
     points="-748.8,1129.7 -748.8,1129.1 -794.3,1050.4 -794.6,1050.4 "
     id="polygon328"
     style="fill:#202f73"
     transform="translate(-260.49847,-370.30002)" /><polygon
     points="-748.8,1124.9 -748.8,1124.3 -791.5,1050.4 -791.9,1050.4 "
     id="polygon330"
     style="fill:#202f73"
     transform="translate(-260.49847,-370.30002)" /><polygon
     points="-748.8,1120.1 -748.8,1119.5 -788.7,1050.4 -789.1,1050.4 "
     id="polygon332"
     style="fill:#202f73"
     transform="translate(-260.49847,-370.30002)" /><polygon
     points="-748.8,1115.3 -748.8,1114.7 -786,1050.4 -786.3,1050.4 "
     id="polygon334"
     style="fill:#202f73"
     transform="translate(-260.49847,-370.30002)" /><polygon
     points="-748.8,1107.2 -748.8,1106.6 -781.3,1050.4 -781.6,1050.4 "
     id="polygon336"
     style="fill:#202f73"
     transform="translate(-260.49847,-370.30002)" /><polygon
     points="-748.8,1102.4 -748.8,1101.8 -778.5,1050.4 -778.9,1050.4 "
     id="polygon338"
     style="fill:#202f73"
     transform="translate(-260.49847,-370.30002)" /><polygon
     points="-748.8,1097.6 -748.8,1097 -775.8,1050.4 -776.1,1050.4 "
     id="polygon340"
     style="fill:#202f73"
     transform="translate(-260.49847,-370.30002)" /><polygon
     points="-748.8,1092.8 -748.8,1092.2 -773,1050.4 -773.3,1050.4 "
     id="polygon342"
     style="fill:#202f73"
     transform="translate(-260.49847,-370.30002)" /><polygon
     points="-748.8,1084.7 -748.8,1084.1 -768.3,1050.4 -768.7,1050.4 "
     id="polygon344"
     style="fill:#202f73"
     transform="translate(-260.49847,-370.30002)" /><polygon
     points="-748.8,1079.9 -748.8,1079.3 -765.5,1050.4 -765.9,1050.4 "
     id="polygon346"
     style="fill:#202f73"
     transform="translate(-260.49847,-370.30002)" /><polygon
     points="-748.8,1075.1 -748.8,1074.5 -762.8,1050.4 -763.1,1050.4 "
     id="polygon348"
     style="fill:#202f73"
     transform="translate(-260.49847,-370.30002)" /><polygon
     points="-748.8,1070.3 -748.8,1069.7 -760,1050.4 -760.3,1050.4 "
     id="polygon350"
     style="fill:#202f73"
     transform="translate(-260.49847,-370.30002)" /><path
     d="m -1009.2985,691.29998 -5.9,-10.3 c -0.2,-0.1 -0.3,-0.1 -0.5,-0.2 l 6.4,11.1 0,-0.6 z"
     id="path352"
     inkscape:connector-curvature="0"
     style="fill:#202f73" /><path
     d="m -1217.3985,682.09998 -4.1,7.2 c 0,0.2 0,0.4 0,0.7 l 4.8,-8.2 c -0.3,0 -0.5,0.1 -0.7,0.3 z"
     id="path354"
     inkscape:connector-curvature="0"
     style="fill:#202f73" /><path
     d="m -1211.3985,680.09998 c 0,0 -0.1,0 -0.1,0 l -10,17.3 0,0.6 10.4,-18 -0.3,0 z"
     id="path356"
     inkscape:connector-curvature="0"
     style="fill:#202f73" /><polygon
     points="-947.9,1050.4 -948.3,1050.4 -961.1,1072.6 -961.1,1073.2 "
     id="polygon358"
     style="fill:#202f73"
     transform="translate(-260.49847,-370.30002)" /><polygon
     points="-945.2,1050.4 -945.5,1050.4 -961.1,1077.4 -961.1,1078 "
     id="polygon360"
     style="fill:#202f73"
     transform="translate(-260.49847,-370.30002)" /><polygon
     points="-942.4,1050.4 -942.7,1050.4 -961.1,1082.2 -961.1,1082.8 "
     id="polygon362"
     style="fill:#202f73"
     transform="translate(-260.49847,-370.30002)" /><polygon
     points="-937.7,1050.4 -938.1,1050.4 -961.1,1090.3 -961.1,1090.9 "
     id="polygon364"
     style="fill:#202f73"
     transform="translate(-260.49847,-370.30002)" /><polygon
     points="-934.9,1050.4 -935.3,1050.4 -961.1,1095.1 -961.1,1095.7 "
     id="polygon366"
     style="fill:#202f73"
     transform="translate(-260.49847,-370.30002)" /><polygon
     points="-932.2,1050.4 -932.5,1050.4 -961.1,1099.9 -961.1,1100.5 "
     id="polygon368"
     style="fill:#202f73"
     transform="translate(-260.49847,-370.30002)" /><polygon
     points="-929.4,1050.4 -929.7,1050.4 -961.1,1104.7 -961.1,1105.3 "
     id="polygon370"
     style="fill:#202f73"
     transform="translate(-260.49847,-370.30002)" /><polygon
     points="-924.7,1050.4 -925.1,1050.4 -961.1,1112.8 -961.1,1113.4 "
     id="polygon372"
     style="fill:#202f73"
     transform="translate(-260.49847,-370.30002)" /><polygon
     points="-922,1050.4 -922.3,1050.4 -961.1,1117.6 -961.1,1118.2 "
     id="polygon374"
     style="fill:#202f73"
     transform="translate(-260.49847,-370.30002)" /><polygon
     points="-919.2,1050.4 -919.5,1050.4 -961.1,1122.4 -961.1,1123 "
     id="polygon376"
     style="fill:#202f73"
     transform="translate(-260.49847,-370.30002)" /><polygon
     points="-916.4,1050.4 -916.8,1050.4 -961.1,1127.2 -961.1,1127.8 "
     id="polygon378"
     style="fill:#202f73"
     transform="translate(-260.49847,-370.30002)" /><polygon
     points="-911.7,1050.4 -912.1,1050.4 -961.1,1135.3 -961.1,1135.9 "
     id="polygon380"
     style="fill:#202f73"
     transform="translate(-260.49847,-370.30002)" /><polygon
     points="-909,1050.4 -909.3,1050.4 -961.1,1140.1 -961.1,1140.7 "
     id="polygon382"
     style="fill:#202f73"
     transform="translate(-260.49847,-370.30002)" /><polygon
     points="-906.2,1050.4 -906.5,1050.4 -961.1,1144.9 -961.1,1145.5 "
     id="polygon384"
     style="fill:#202f73"
     transform="translate(-260.49847,-370.30002)" /><polygon
     points="-903.4,1050.4 -903.8,1050.4 -961.1,1149.7 -961.1,1150.3 "
     id="polygon386"
     style="fill:#202f73"
     transform="translate(-260.49847,-370.30002)" /><polygon
     points="-898.7,1050.4 -899.1,1050.4 -961.1,1157.8 -961.1,1158.4 "
     id="polygon388"
     style="fill:#202f73"
     transform="translate(-260.49847,-370.30002)" /><polygon
     points="-896,1050.4 -896.3,1050.4 -961.1,1162.6 -961.1,1163.2 "
     id="polygon390"
     style="fill:#202f73"
     transform="translate(-260.49847,-370.30002)" /><polygon
     points="-893.2,1050.4 -893.5,1050.4 -961.1,1167.4 -961.1,1168 "
     id="polygon392"
     style="fill:#202f73"
     transform="translate(-260.49847,-370.30002)" /><polygon
     points="-890.4,1050.4 -890.8,1050.4 -961.1,1172.2 -961.1,1172.8 "
     id="polygon394"
     style="fill:#202f73"
     transform="translate(-260.49847,-370.30002)" /><polygon
     points="-885.8,1050.4 -886.1,1050.4 -961.1,1180.3 -961.1,1180.9 "
     id="polygon396"
     style="fill:#202f73"
     transform="translate(-260.49847,-370.30002)" /><polygon
     points="-883,1050.4 -883.3,1050.4 -961.1,1185.1 -961.1,1185.7 "
     id="polygon398"
     style="fill:#202f73"
     transform="translate(-260.49847,-370.30002)" /><polygon
     points="-880.2,1050.4 -880.6,1050.4 -961.1,1189.9 -961.1,1190.5 "
     id="polygon400"
     style="fill:#202f73"
     transform="translate(-260.49847,-370.30002)" /><polygon
     points="-877.4,1050.4 -877.8,1050.4 -961.1,1194.7 -961.1,1195.3 "
     id="polygon402"
     style="fill:#202f73"
     transform="translate(-260.49847,-370.30002)" /><polygon
     points="-872.8,1050.4 -873.1,1050.4 -961.1,1202.8 -961.1,1203.4 "
     id="polygon404"
     style="fill:#202f73"
     transform="translate(-260.49847,-370.30002)" /><polygon
     points="-870,1050.4 -870.3,1050.4 -961.1,1207.6 -961.1,1208.2 "
     id="polygon406"
     style="fill:#202f73"
     transform="translate(-260.49847,-370.30002)" /><polygon
     points="-867.2,1050.4 -867.6,1050.4 -961.1,1212.4 -961.1,1213 "
     id="polygon408"
     style="fill:#202f73"
     transform="translate(-260.49847,-370.30002)" /><polygon
     points="-864.4,1050.4 -864.8,1050.4 -961.1,1217.2 -961.1,1217.8 "
     id="polygon410"
     style="fill:#202f73"
     transform="translate(-260.49847,-370.30002)" /><polygon
     points="-859.8,1050.4 -860.1,1050.4 -961.1,1225.3 -961.1,1225.9 "
     id="polygon412"
     style="fill:#202f73"
     transform="translate(-260.49847,-370.30002)" /><polygon
     points="-857,1050.4 -857.3,1050.4 -961.1,1230.1 -961.1,1230.7 "
     id="polygon414"
     style="fill:#202f73"
     transform="translate(-260.49847,-370.30002)" /><polygon
     points="-854.2,1050.4 -854.6,1050.4 -961.1,1234.9 -961.1,1235.5 "
     id="polygon416"
     style="fill:#202f73"
     transform="translate(-260.49847,-370.30002)" /><polygon
     points="-851.5,1050.4 -851.8,1050.4 -961.1,1239.7 -961.1,1240.3 "
     id="polygon418"
     style="fill:#202f73"
     transform="translate(-260.49847,-370.30002)" /><polygon
     points="-846.8,1050.4 -847.1,1050.4 -961.1,1247.8 -961.1,1248.4 "
     id="polygon420"
     style="fill:#202f73"
     transform="translate(-260.49847,-370.30002)" /><polygon
     points="-844,1050.4 -844.4,1050.4 -961.1,1252.6 -961.1,1253.2 "
     id="polygon422"
     style="fill:#202f73"
     transform="translate(-260.49847,-370.30002)" /><polygon
     points="-841.2,1050.4 -841.6,1050.4 -961.1,1257.4 -961.1,1258 "
     id="polygon424"
     style="fill:#202f73"
     transform="translate(-260.49847,-370.30002)" /><polygon
     points="-838.5,1050.4 -838.8,1050.4 -961.1,1262.2 -961.1,1262.8 "
     id="polygon426"
     style="fill:#202f73"
     transform="translate(-260.49847,-370.30002)" /><polygon
     points="-833.8,1050.4 -834.1,1050.4 -961.1,1270.3 -961.1,1270.9 "
     id="polygon428"
     style="fill:#202f73"
     transform="translate(-260.49847,-370.30002)" /><polygon
     points="-831,1050.4 -831.4,1050.4 -961.1,1275.1 -961.1,1275.7 "
     id="polygon430"
     style="fill:#202f73"
     transform="translate(-260.49847,-370.30002)" /><polygon
     points="-828.2,1050.4 -828.6,1050.4 -961.1,1279.9 -961.1,1280.5 "
     id="polygon432"
     style="fill:#202f73"
     transform="translate(-260.49847,-370.30002)" /><polygon
     points="-825.5,1050.4 -825.8,1050.4 -961.1,1284.7 -961.1,1285.3 "
     id="polygon434"
     style="fill:#202f73"
     transform="translate(-260.49847,-370.30002)" /><polygon
     points="-820.8,1050.4 -821.1,1050.4 -961.1,1292.8 -961.1,1293.4 "
     id="polygon436"
     style="fill:#202f73"
     transform="translate(-260.49847,-370.30002)" /><polygon
     points="-818,1050.4 -818.4,1050.4 -961.1,1297.6 -961.1,1298.2 "
     id="polygon438"
     style="fill:#202f73"
     transform="translate(-260.49847,-370.30002)" /><polygon
     points="-815.3,1050.4 -815.6,1050.4 -961.1,1302.4 -961.1,1303 "
     id="polygon440"
     style="fill:#202f73"
     transform="translate(-260.49847,-370.30002)" /><polygon
     points="-812.5,1050.4 -812.8,1050.4 -961.1,1307.2 -961.1,1307.8 "
     id="polygon442"
     style="fill:#202f73"
     transform="translate(-260.49847,-370.30002)" /><polygon
     points="-807.8,1050.4 -808.2,1050.4 -961.1,1315.3 -961.1,1315.9 "
     id="polygon444"
     style="fill:#202f73"
     transform="translate(-260.49847,-370.30002)" /><polygon
     points="-805,1050.4 -805.4,1050.4 -961.1,1320.1 -961.1,1320.7 "
     id="polygon446"
     style="fill:#202f73"
     transform="translate(-260.49847,-370.30002)" /><polygon
     points="-802.3,1050.4 -802.6,1050.4 -961.1,1324.9 -961.1,1325.5 "
     id="polygon448"
     style="fill:#202f73"
     transform="translate(-260.49847,-370.30002)" /><polygon
     points="-799.5,1050.4 -799.8,1050.4 -961.1,1329.7 -961.1,1330.3 "
     id="polygon450"
     style="fill:#202f73"
     transform="translate(-260.49847,-370.30002)" /><polygon
     points="-794.8,1050.4 -795.2,1050.4 -961.1,1337.8 -961.1,1338.4 "
     id="polygon452"
     style="fill:#202f73"
     transform="translate(-260.49847,-370.30002)" /><path
     d="m -1052.8985,680.09998 -168.6,292 c 0,0.2 0,0.3 0.1,0.5 l 168.8,-292.4 -0.3,0 z"
     id="path454"
     inkscape:connector-curvature="0"
     style="fill:#202f73" /><path
     d="m -1050.0985,680.09998 -170.4,295.1 c 0.1,0.1 0.1,0.2 0.2,0.3 l 170.6,-295.4 -0.4,0 z"
     id="path456"
     inkscape:connector-curvature="0"
     style="fill:#202f73" /><path
     d="m -1047.3985,680.09998 -171.7,297.3 c 0.1,0.1 0.1,0.2 0.2,0.2 l 171.8,-297.6 -0.3,0 z"
     id="path458"
     inkscape:connector-curvature="0"
     style="fill:#202f73" /><path
     d="m -1042.6985,680.09998 -173.1,299.8 c 0.1,0 0.2,0.1 0.3,0.1 l 173.2,-299.9 -0.4,0 z"
     id="path460"
     inkscape:connector-curvature="0"
     style="fill:#202f73" /><path
     d="m -1039.8985,680.09998 -173.6,300.6 c 0.1,0 0.2,0 0.3,0 l 173.6,-300.6 -0.3,0 z"
     id="path462"
     inkscape:connector-curvature="0"
     style="fill:#202f73" /><polygon
     points="-776.3,1050.4 -776.6,1050.4 -950.3,1351.2 -950,1351.2 "
     id="polygon464"
     style="fill:#202f73"
     transform="translate(-260.49847,-370.30002)" /><polygon
     points="-773.5,1050.4 -773.9,1050.4 -947.5,1351.2 -947.2,1351.2 "
     id="polygon466"
     style="fill:#202f73"
     transform="translate(-260.49847,-370.30002)" /><polygon
     points="-768.8,1050.4 -769.2,1050.4 -942.9,1351.2 -942.5,1351.2 "
     id="polygon468"
     style="fill:#202f73"
     transform="translate(-260.49847,-370.30002)" /><polygon
     points="-766.1,1050.4 -766.4,1050.4 -940.1,1351.2 -939.7,1351.2 "
     id="polygon470"
     style="fill:#202f73"
     transform="translate(-260.49847,-370.30002)" /><polygon
     points="-763.3,1050.4 -763.6,1050.4 -937.3,1351.2 -937,1351.2 "
     id="polygon472"
     style="fill:#202f73"
     transform="translate(-260.49847,-370.30002)" /><polygon
     points="-760.5,1050.4 -760.9,1050.4 -934.5,1351.2 -934.2,1351.2 "
     id="polygon474"
     style="fill:#202f73"
     transform="translate(-260.49847,-370.30002)" /><path
     d="m -1016.8985,680.49998 -173.5,300.5 0.3,0 173.4,-300.4 c 0,-0.1 -0.1,-0.1 -0.2,-0.1 z"
     id="path476"
     inkscape:connector-curvature="0"
     style="fill:#202f73" /><path
     d="m -1014.5985,681.39998 -172.9,299.6 0.3,0 172.9,-299.4 c -0.2,-0.1 -0.3,-0.2 -0.3,-0.2 z"
     id="path478"
     inkscape:connector-curvature="0"
     style="fill:#202f73" /><path
     d="m -1012.6985,682.79998 -172.1,298.1 0.3,0 172,-297.9 c 0,-0.1 -0.1,-0.1 -0.2,-0.2 z"
     id="path480"
     inkscape:connector-curvature="0"
     style="fill:#202f73" /><path
     d="m -1010.9985,684.69998 -171,296.2 0.3,0 170.8,-295.9 c 0,-0.1 -0.1,-0.2 -0.1,-0.3 z"
     id="path482"
     inkscape:connector-curvature="0"
     style="fill:#202f73" /><path
     d="m -1009.2985,690.39998 c 0,-0.2 0,-0.3 0,-0.5 l -168,291 0.3,0 167.7,-290.5 0,0 z"
     id="path484"
     inkscape:connector-curvature="0"
     style="fill:#202f73" /><polygon
     points="-748.8,1065.6 -748.8,1065 -914.1,1351.2 -913.8,1351.2 "
     id="polygon486"
     style="fill:#202f73"
     transform="translate(-260.49847,-370.30002)" /><polygon
     points="-748.8,1070.4 -748.8,1069.8 -911.3,1351.2 -911,1351.2 "
     id="polygon488"
     style="fill:#202f73"
     transform="translate(-260.49847,-370.30002)" /><polygon
     points="-748.8,1075.2 -748.8,1074.6 -908.6,1351.2 -908.2,1351.2 "
     id="polygon490"
     style="fill:#202f73"
     transform="translate(-260.49847,-370.30002)" /><polygon
     points="-748.8,1083.3 -748.8,1082.7 -903.9,1351.2 -903.5,1351.2 "
     id="polygon492"
     style="fill:#202f73"
     transform="translate(-260.49847,-370.30002)" /><polygon
     points="-748.8,1088.1 -748.8,1087.5 -901.1,1351.2 -900.8,1351.2 "
     id="polygon494"
     style="fill:#202f73"
     transform="translate(-260.49847,-370.30002)" /><polygon
     points="-748.8,1092.9 -748.8,1092.3 -898.3,1351.2 -898,1351.2 "
     id="polygon496"
     style="fill:#202f73"
     transform="translate(-260.49847,-370.30002)" /><polygon
     points="-748.8,1097.7 -748.8,1097.1 -895.6,1351.2 -895.2,1351.2 "
     id="polygon498"
     style="fill:#202f73"
     transform="translate(-260.49847,-370.30002)" /><polygon
     points="-748.8,1105.8 -748.8,1105.2 -890.9,1351.2 -890.5,1351.2 "
     id="polygon500"
     style="fill:#202f73"
     transform="translate(-260.49847,-370.30002)" /><polygon
     points="-748.8,1110.6 -748.8,1110 -888.1,1351.2 -887.8,1351.2 "
     id="polygon502"
     style="fill:#202f73"
     transform="translate(-260.49847,-370.30002)" /><polygon
     points="-748.8,1115.4 -748.8,1114.8 -885.3,1351.2 -885,1351.2 "
     id="polygon504"
     style="fill:#202f73"
     transform="translate(-260.49847,-370.30002)" /><polygon
     points="-748.8,1120.2 -748.8,1119.6 -882.6,1351.2 -882.2,1351.2 "
     id="polygon506"
     style="fill:#202f73"
     transform="translate(-260.49847,-370.30002)" /><polygon
     points="-748.8,1128.3 -748.8,1127.7 -877.9,1351.2 -877.6,1351.2 "
     id="polygon508"
     style="fill:#202f73"
     transform="translate(-260.49847,-370.30002)" /><polygon
     points="-748.8,1133.1 -748.8,1132.5 -875.1,1351.2 -874.8,1351.2 "
     id="polygon510"
     style="fill:#202f73"
     transform="translate(-260.49847,-370.30002)" /><polygon
     points="-748.8,1137.9 -748.8,1137.3 -872.4,1351.2 -872,1351.2 "
     id="polygon512"
     style="fill:#202f73"
     transform="translate(-260.49847,-370.30002)" /><polygon
     points="-748.8,1142.7 -748.8,1142.1 -869.6,1351.2 -869.2,1351.2 "
     id="polygon514"
     style="fill:#202f73"
     transform="translate(-260.49847,-370.30002)" /><polygon
     points="-748.8,1150.8 -748.8,1150.2 -864.9,1351.2 -864.6,1351.2 "
     id="polygon516"
     style="fill:#202f73"
     transform="translate(-260.49847,-370.30002)" /><polygon
     points="-748.8,1155.6 -748.8,1155 -862.1,1351.2 -861.8,1351.2 "
     id="polygon518"
     style="fill:#202f73"
     transform="translate(-260.49847,-370.30002)" /><polygon
     points="-748.8,1160.4 -748.8,1159.8 -859.4,1351.2 -859,1351.2 "
     id="polygon520"
     style="fill:#202f73"
     transform="translate(-260.49847,-370.30002)" /><polygon
     points="-748.8,1165.2 -748.8,1164.6 -856.6,1351.2 -856.2,1351.2 "
     id="polygon522"
     style="fill:#202f73"
     transform="translate(-260.49847,-370.30002)" /><polygon
     points="-748.8,1173.3 -748.8,1172.7 -851.9,1351.2 -851.6,1351.2 "
     id="polygon524"
     style="fill:#202f73"
     transform="translate(-260.49847,-370.30002)" /><polygon
     points="-748.8,1178.1 -748.8,1177.5 -849.1,1351.2 -848.8,1351.2 "
     id="polygon526"
     style="fill:#202f73"
     transform="translate(-260.49847,-370.30002)" /><polygon
     points="-748.8,1182.9 -748.8,1182.3 -846.4,1351.2 -846,1351.2 "
     id="polygon528"
     style="fill:#202f73"
     transform="translate(-260.49847,-370.30002)" /><polygon
     points="-748.8,1187.7 -748.8,1187.1 -843.6,1351.2 -843.3,1351.2 "
     id="polygon530"
     style="fill:#202f73"
     transform="translate(-260.49847,-370.30002)" /><polygon
     points="-748.8,1195.8 -748.8,1195.2 -838.9,1351.2 -838.6,1351.2 "
     id="polygon532"
     style="fill:#202f73"
     transform="translate(-260.49847,-370.30002)" /><polygon
     points="-748.8,1200.6 -748.8,1200 -836.2,1351.2 -835.8,1351.2 "
     id="polygon534"
     style="fill:#202f73"
     transform="translate(-260.49847,-370.30002)" /><polygon
     points="-748.8,1205.4 -748.8,1204.8 -833.4,1351.2 -833,1351.2 "
     id="polygon536"
     style="fill:#202f73"
     transform="translate(-260.49847,-370.30002)" /><polygon
     points="-748.8,1210.2 -748.8,1209.6 -830.6,1351.2 -830.3,1351.2 "
     id="polygon538"
     style="fill:#202f73"
     transform="translate(-260.49847,-370.30002)" /><polygon
     points="-748.8,1218.3 -748.8,1217.7 -825.9,1351.2 -825.6,1351.2 "
     id="polygon540"
     style="fill:#202f73"
     transform="translate(-260.49847,-370.30002)" /><polygon
     points="-748.8,1223.1 -748.8,1222.5 -823.2,1351.2 -822.8,1351.2 "
     id="polygon542"
     style="fill:#202f73"
     transform="translate(-260.49847,-370.30002)" /><polygon
     points="-748.8,1227.9 -748.8,1227.3 -820.4,1351.2 -820.1,1351.2 "
     id="polygon544"
     style="fill:#202f73"
     transform="translate(-260.49847,-370.30002)" /><polygon
     points="-748.8,1232.7 -748.8,1232.1 -817.6,1351.2 -817.3,1351.2 "
     id="polygon546"
     style="fill:#202f73"
     transform="translate(-260.49847,-370.30002)" /><polygon
     points="-748.8,1240.8 -748.8,1240.2 -812.9,1351.2 -812.6,1351.2 "
     id="polygon548"
     style="fill:#202f73"
     transform="translate(-260.49847,-370.30002)" /><polygon
     points="-748.8,1245.6 -748.8,1245 -810.2,1351.2 -809.8,1351.2 "
     id="polygon550"
     style="fill:#202f73"
     transform="translate(-260.49847,-370.30002)" /><polygon
     points="-748.8,1250.4 -748.8,1249.8 -807.4,1351.2 -807.1,1351.2 "
     id="polygon552"
     style="fill:#202f73"
     transform="translate(-260.49847,-370.30002)" /><polygon
     points="-748.8,1255.2 -748.8,1254.6 -804.6,1351.2 -804.3,1351.2 "
     id="polygon554"
     style="fill:#202f73"
     transform="translate(-260.49847,-370.30002)" /><polygon
     points="-748.8,1263.3 -748.8,1262.7 -800,1351.2 -799.6,1351.2 "
     id="polygon556"
     style="fill:#202f73"
     transform="translate(-260.49847,-370.30002)" /><polygon
     points="-748.8,1268.1 -748.8,1267.5 -797.2,1351.2 -796.8,1351.2 "
     id="polygon558"
     style="fill:#202f73"
     transform="translate(-260.49847,-370.30002)" /><polygon
     points="-748.8,1272.9 -748.8,1272.3 -794.4,1351.2 -794.1,1351.2 "
     id="polygon560"
     style="fill:#202f73"
     transform="translate(-260.49847,-370.30002)" /><polygon
     points="-748.8,1277.7 -748.8,1277.1 -791.6,1351.2 -791.3,1351.2 "
     id="polygon562"
     style="fill:#202f73"
     transform="translate(-260.49847,-370.30002)" /><polygon
     points="-748.8,1285.8 -748.8,1285.2 -787,1351.2 -786.6,1351.2 "
     id="polygon564"
     style="fill:#202f73"
     transform="translate(-260.49847,-370.30002)" /><polygon
     points="-748.8,1290.6 -748.8,1290 -784.2,1351.2 -783.8,1351.2 "
     id="polygon566"
     style="fill:#202f73"
     transform="translate(-260.49847,-370.30002)" /><polygon
     points="-748.8,1295.4 -748.8,1294.8 -781.4,1351.2 -781.1,1351.2 "
     id="polygon568"
     style="fill:#202f73"
     transform="translate(-260.49847,-370.30002)" /><polygon
     points="-748.8,1300.2 -748.8,1299.6 -778.7,1351.2 -778.3,1351.2 "
     id="polygon570"
     style="fill:#202f73"
     transform="translate(-260.49847,-370.30002)" /><polygon
     points="-748.8,1308.3 -748.8,1307.7 -774,1351.2 -773.6,1351.2 "
     id="polygon572"
     style="fill:#202f73"
     transform="translate(-260.49847,-370.30002)" /><polygon
     points="-748.8,1313.1 -748.8,1312.5 -771.2,1351.2 -770.9,1351.2 "
     id="polygon574"
     style="fill:#202f73"
     transform="translate(-260.49847,-370.30002)" /><polygon
     points="-748.8,1317.9 -748.8,1317.3 -768.4,1351.2 -768.1,1351.2 "
     id="polygon576"
     style="fill:#202f73"
     transform="translate(-260.49847,-370.30002)" /><polygon
     points="-748.8,1322.7 -748.8,1322.1 -765.7,1351.2 -765.3,1351.2 "
     id="polygon578"
     style="fill:#202f73"
     transform="translate(-260.49847,-370.30002)" /><polygon
     points="-748.8,1330.8 -748.8,1330.2 -761,1351.2 -760.6,1351.2 "
     id="polygon580"
     style="fill:#202f73"
     transform="translate(-260.49847,-370.30002)" /><path
     d="m -1009.2985,964.69998 -9.4,16.2 c 0.1,0 0.2,0 0.4,0 l 9,-15.6 0,-0.6 z"
     id="path582"
     inkscape:connector-curvature="0"
     style="fill:#202f73" /><path
     d="m -1009.2985,969.49998 -6.1,10.6 c 0.2,-0.1 0.3,-0.2 0.5,-0.2 l 5.6,-9.8 0,-0.6 z"
     id="path584"
     inkscape:connector-curvature="0"
     style="fill:#202f73" /></svg>