<?xml version="1.0" encoding="UTF-8" standalone="no"?>
<!-- Generator: Adobe Illustrator 18.1.1, SVG Export Plug-In . SVG Version: 6.00 Build 0)  -->

<svg
   xmlns:dc="http://purl.org/dc/elements/1.1/"
   xmlns:cc="http://creativecommons.org/ns#"
   xmlns:rdf="http://www.w3.org/1999/02/22-rdf-syntax-ns#"
   xmlns:svg="http://www.w3.org/2000/svg"
   xmlns="http://www.w3.org/2000/svg"
   xmlns:sodipodi="http://sodipodi.sourceforge.net/DTD/sodipodi-0.dtd"
   xmlns:inkscape="http://www.inkscape.org/namespaces/inkscape"
   version="1.1"
   id="svg4423"
   x="0px"
   y="0px"
   viewBox="-1487 1044.2 224.1967 312.7967"
   enable-background="new -1487 1044.2 224.2 312.8"
   xml:space="preserve"
   inkscape:version="0.91 r13725"
   sodipodi:docname="diamond.svg"
   width="224.1967"
   height="312.79669"><metadata
     id="metadata11"><rdf:RDF><cc:Work
         rdf:about=""><dc:format>image/svg+xml</dc:format><dc:type
           rdf:resource="http://purl.org/dc/dcmitype/StillImage" /><dc:title></dc:title></cc:Work></rdf:RDF></metadata><defs
     id="defs9" /><sodipodi:namedview
     pagecolor="#ffffff"
     bordercolor="#666666"
     borderopacity="1"
     objecttolerance="10"
     gridtolerance="10"
     guidetolerance="10"
     inkscape:pageopacity="0"
     inkscape:pageshadow="2"
     inkscape:window-width="640"
     inkscape:window-height="480"
     id="namedview7"
     showgrid="false"
     fit-margin-top="0"
     fit-margin-left="0"
     fit-margin-right="0"
     fit-margin-bottom="0"
     inkscape:zoom="0.75447573"
     inkscape:cx="38.098348"
     inkscape:cy="49.898405"
     inkscape:window-x="1360"
     inkscape:window-y="0"
     inkscape:window-maximized="0"
     inkscape:current-layer="svg4423" /><path
     id="rect3232-3"
     d="m -1475.9017,1044.6983 202,0 c 5.9,0 10.6,4.8 10.6,10.6 l 0,290.6 c 0,5.9 -4.8,10.6 -10.6,10.6 l -202,0 c -5.9,0 -10.6,-4.8 -10.6,-10.6 l 0,-290.6 c 0,-5.8 4.8,-10.6 10.6,-10.6 z"
     inkscape:connector-curvature="0"
     style="fill:#ffffff;stroke:#000000;stroke-width:0.99669999" /><path
     id="path3692"
     d="m -1419.5017,1200.9983 c 19.9,-19.4 32.9,-40.5 45.3,-60.8 11,22.3 26.6,41.9 43.6,60.8 -18.1,18.7 -32.2,38.8 -43.5,59.9 -12.6,-21.7 -25.8,-41.3 -45.4,-59.9 z"
     inkscape:connector-curvature="0"
     style="fill:#d40000" /><path
     id="path3726"
     d="m -1290.3017,1293.7983 c 4.1,-4 6.7,-8.3 9.3,-12.4 2.2,4.6 5.4,8.6 8.9,12.4 -3.7,3.8 -6.6,7.9 -8.9,12.3 -2.5,-4.5 -5.2,-8.5 -9.3,-12.3 l 0,0 z"
     inkscape:connector-curvature="0"
     style="fill:#d40000" /><path
     id="path3728"
     d="m -1478.7017,1108.0983 c 4.1,-4 6.7,-8.3 9.3,-12.4 2.2,4.6 5.4,8.6 8.9,12.4 -3.7,3.8 -6.6,7.9 -8.9,12.3 -2.5,-4.5 -5.2,-8.5 -9.3,-12.3 l 0,0 z"
     inkscape:connector-curvature="0"
     style="fill:#d40000" /></svg>