<?xml version="1.0" encoding="UTF-8" standalone="no"?>
<!-- Generator: Adobe Illustrator 18.1.1, SVG Export Plug-In . SVG Version: 6.00 Build 0)  -->

<svg
   xmlns:dc="http://purl.org/dc/elements/1.1/"
   xmlns:cc="http://creativecommons.org/ns#"
   xmlns:rdf="http://www.w3.org/1999/02/22-rdf-syntax-ns#"
   xmlns:svg="http://www.w3.org/2000/svg"
   xmlns="http://www.w3.org/2000/svg"
   xmlns:sodipodi="http://sodipodi.sourceforge.net/DTD/sodipodi-0.dtd"
   xmlns:inkscape="http://www.inkscape.org/namespaces/inkscape"
   version="1.1"
   id="svg4423"
   x="0px"
   y="0px"
   viewBox="-1487 1044.2 224.1967 312.7967"
   enable-background="new -1487 1044.2 224.2 312.8"
   xml:space="preserve"
   inkscape:version="0.91 r13725"
   sodipodi:docname="heart.svg"
   width="224.1967"
   height="312.79669"><metadata
     id="metadata11"><rdf:RDF><cc:Work
         rdf:about=""><dc:format>image/svg+xml</dc:format><dc:type
           rdf:resource="http://purl.org/dc/dcmitype/StillImage" /><dc:title></dc:title></cc:Work></rdf:RDF></metadata><defs
     id="defs9" /><sodipodi:namedview
     pagecolor="#ffffff"
     bordercolor="#666666"
     borderopacity="1"
     objecttolerance="10"
     gridtolerance="10"
     guidetolerance="10"
     inkscape:pageopacity="0"
     inkscape:pageshadow="2"
     inkscape:window-width="640"
     inkscape:window-height="480"
     id="namedview7"
     showgrid="false"
     fit-margin-top="0"
     fit-margin-left="0"
     fit-margin-right="0"
     fit-margin-bottom="0"
     inkscape:zoom="0.75447573"
     inkscape:cx="38.098348"
     inkscape:cy="49.898405"
     inkscape:window-x="1360"
     inkscape:window-y="0"
     inkscape:window-maximized="0"
     inkscape:current-layer="svg4423" /><path
     id="rect3232"
     d="m -1475.9017,1044.6983 202,0 c 5.9,0 10.6,4.8 10.6,10.6 l 0,290.6 c 0,5.9 -4.8,10.6 -10.6,10.6 l -202,0 c -5.9,0 -10.6,-4.8 -10.6,-10.6 l 0,-290.6 c 0,-5.8 4.8,-10.6 10.6,-10.6 z"
     inkscape:connector-curvature="0"
     style="fill:#ffffff;stroke:#000000;stroke-width:0.99669999" /><path
     id="path8626"
     d="m -1478.2017,1105.4983 c -1.6,-3.5 -1.8,-9.4 3,-10.2 3.6,-0.5 5,1.2 5.3,3.7 0.1,0.7 0.6,0.8 0.7,-0.1 0.2,-2.6 2.8,-4.1 4.8,-3.7 5.5,0.9 5.2,7 3.4,11.2 -2.7,5.5 -5.6,8.9 -8.2,14.5 -3.1,-5.8 -6.6,-10.5 -9,-15.4 l 0,0 0,0 z"
     inkscape:connector-curvature="0"
     style="fill:#d40000" /><path
     id="path8512"
     d="m -1399.0017,1143.0983 c 14.2,-1 21.8,11.2 23.2,20.8 0.8,1.6 1.4,1 1.6,0 0.6,-12.4 11.8,-22.4 22,-21 16.6,0.2 26.8,18.8 24,34.4 -3.4,19.2 -13.8,30.8 -21.6,42.6 -8.8,12.4 -20.8,30 -24.6,38.6 0,0 -12,-18.4 -27.8,-40 -10.6,-14.4 -19,-30.2 -19.8,-43.6 -0.8,-15.6 5.4,-29.4 23,-31.8 l 0,0 0,0 z"
     inkscape:connector-curvature="0"
     style="fill:#d40000" /><path
     id="path8648"
     d="m -1289.8017,1296.1983 c -1.6,3.5 -1.8,9.4 3,10.2 3.6,0.5 5,-1.2 5.3,-3.7 0.1,-0.7 0.6,-0.8 0.7,0.1 0.2,2.6 2.8,4.1 4.8,3.7 5.5,-0.9 5.2,-7 3.4,-11.2 -2.7,-5.5 -5.6,-8.9 -8.2,-14.5 -3.1,5.8 -6.6,10.5 -9,15.4 l 0,0 0,0 z"
     inkscape:connector-curvature="0"
     style="fill:#d40000" /></svg>