<?xml version="1.0" encoding="UTF-8" standalone="no"?>
<svg
   xmlns:dc="http://purl.org/dc/elements/1.1/"
   xmlns:cc="http://creativecommons.org/ns#"
   xmlns:rdf="http://www.w3.org/1999/02/22-rdf-syntax-ns#"
   xmlns:svg="http://www.w3.org/2000/svg"
   xmlns="http://www.w3.org/2000/svg"
   height="312.79669"
   width="224.1967"
   xml:space="preserve"
   enable-background="new 74 -106.5 744.1 1052.4"
   viewBox="74 -106.5 224.19671 312.79668"
   y="0px"
   x="0px"
   id="svg4423"
   version="1.1"><defs
     id="defs17" /><g
     transform="translate(-259.92046,-369.77722)"
     id="layer1"><g
       transform="translate(-289.24359,486.83327)"
       id="g3829"><g
         transform="translate(-6377.9376,2318.4423)"
         id="g3190"><path
           style="fill:#ffffff;stroke:#000000;stroke-width:0.99669999"
           d="m 7012.2,-2541.5 202,0 c 5.9,0 10.6,4.8 10.6,10.6 l 0,290.6 c 0,5.9 -4.8,10.6 -10.6,10.6 l -202,0 c -5.9,0 -10.6,-4.8 -10.6,-10.6 l 0,-290.6 c 0,-5.8 4.8,-10.6 10.6,-10.6 z"
           id="rect6367-1" /></g><g
         transform="matrix(0.1546714,0,0,0.1546714,1008.4746,-41.178868)"
         id="g3951"><g
           id="g3006"><path
             style="fill:#131f67"
             d="m -2287.7,686.4 -3.3,-1700.4 1054.7,2 1.3,1697.8 -1052.7,0.6 z m 378.1,-1416.9 c -37.7,-10.3 -36.8,27.2 -9.2,28.6 30.9,2.7 44.2,-50.1 29.4,-70.9 0.1,0 -12.8,39.7 -20.2,42.3 z m -244.7,211.8 -45.3,20.2 -0.2,33.8 c 18.9,-15 33.7,-33.3 45.5,-54 l 0,0 z m 309.2,1016.1 c -8.9,-4.5 -19.7,-14.2 -18,-15.9 0.8,-0.8 5.6,0.7 10,2.7 35.4,14.9 62.9,14 105.1,-1.4 3.2,-1.2 8,4.9 6.2,8.3 -18.7,27.6 -79.2,17.8 -103.3,6.3 z m -18.7,-41.5 c -8.1,-12.2 2.7,-3 6.3,0.5 26.2,24.4 61.7,32.6 92.1,9.7 1.4,-1.6 1.6,-3 1.2,-4.1 -0.9,-2.2 -0.9,0.2 -13.9,4.7 -29.2,10.9 -53.9,2 -77.9,-16.4 -9.9,-7.6 -14.5,-11.4 -14.5,-13.4 0,-1.8 1.8,-3 5.2,-2.4 2.1,0.4 7.8,1.6 12,1.9 7.3,0.6 6.8,0.3 14.3,-3.2 16,-7.4 30.8,-10.1 47.5,-7.1 3.9,0.7 8.8,2 9.4,1.8 3.8,-1.3 -1.8,-6.2 -16,-17.4 -2.8,-2.2 -6.3,-4.1 -7.4,-6 -1.8,-3 0.2,-3.8 2.2,-3.7 5.8,0.1 32,22 41,35 2.7,4 4.6,4.4 4.6,8.5 -0.5,4.3 -1.2,8.4 3.4,14.3 3.3,4.3 6.5,11.2 6.6,11.5 0,0.4 -0.7,2.5 -3.7,0.5 -1.4,-0.3 -2.1,-1.7 -4.6,-1.4 -2.2,0.3 -5.8,2.1 -9.7,3.9 -36.7,23.5 -70.5,12 -98.1,-17.2 l 0,0 z m 80.5,-1.7 c 0.7,0.1 -2.5,-13.5 -6.2,-17.5 -7.3,-7.9 -18.4,-9.3 -25.1,-1.3 -3.8,4.5 -7.9,17.2 -7.9,17.2 0,0 5.9,1.7 7.5,1.7 0.2,-2.8 0.3,-10.8 6.1,-15.4 2.9,-2.3 9.1,-2.2 11.5,-0.3 4.8,2.4 6.8,11.9 6.9,15.6 2.5,0.9 8.5,0.1 7.2,0 l 0,0 z m -44.4,-19.5 c -5.2,2.3 -11.9,3.9 -13.5,7.3 -2,4.6 5.2,6 8.9,7.5 5.2,2.5 5.3,1.6 7,-2.4 1,-2.5 2.4,-5.7 3.7,-8.7 3.9,-7.5 0,-6.5 -6.1,-3.7 z m 56,13 c 3,-3 3.5,-4.9 0.9,-8.3 -1.2,-1.5 -4.6,-3.1 -8.4,-4.3 -4.8,-1.6 -6.9,-3.6 -3.9,2.9 l 4.3,9.3 c 2.2,4.3 4.2,3.2 7.1,0.4 z m -490,-317.2 c 1.8,0 19.9,-5.9 26.3,-8.8 6.4,-2.4 7.1,-2.4 4.6,-5.9 -0.9,-1.3 -1.7,-5.1 -1.3,-9.1 l 0.5,-5.7 c -11.1,-2.3 -27.8,3.9 -33.5,11.7 -4.1,5 -3.6,16 3.4,17.8 z m -2.3,27.8 c 3.4,3.4 4.3,3.5 14.5,-0.3 3.6,-2.4 11,-5.4 16.2,-5.7 12.2,-3.3 12.2,-2 8.8,-9.8 -1.6,-3.6 -2.1,-6.6 -1.6,-9.9 0.6,-3.9 1.1,-4.5 -1.2,-5.2 -5.9,-1.8 -33.1,8.4 -38,16.3 -3.4,5.6 -3,10.4 1.3,14.6 l 0,0 z m 639.5,240.6 c -1.8,2.7 -4.9,7.4 -6.2,10.6 -2.2,5.5 -0.9,6.6 0,17.4 0.5,6.3 0.7,16 0.7,21.2 0,10 -0.1,13.1 2.9,13.7 2.7,0.5 3.9,-1.5 5.2,-6.7 0.6,-2.6 2.2,-5.3 2.7,-7 1.9,-11.2 5.5,-30 13.6,-37.9 1.1,-0.9 4.4,-1.5 10.4,-1.6 7.3,-0.1 9.7,-0.3 11.9,-2 12.8,-11.2 2.7,-25.7 -8.7,-26.7 -13.2,-1.3 -31.4,17 -32.5,19 z m 50.9,-4.7 c 0.8,12.9 -12,21.7 -25.1,18.7 -5.3,-1.3 -6.9,-0.1 -10.4,7.4 -7.7,20.7 -10.8,41.6 -12.8,55.2 -0.9,12.2 -5.4,44.1 -2.1,54.3 37.3,46 76.5,93.6 119.4,141 l 255.5,0.4 1.5,-300.7 -74.2,-70.2 0.1,-111.2 c -79.4,37.4 -158.6,75.4 -237.9,113.1 17.3,55.4 -41.3,67 -54.1,29.9 -11.1,10.2 -20.2,65.2 -16.1,67.9 0,0 1.5,2 3.9,-2.4 4.1,-7.2 9.4,-12.5 15,-16 16.5,-10.4 36.2,-5.3 37.3,12.6 l 0,0 z m -203.3,-5.6 c -12.5,-10 -5.8,-25.2 4.6,-29.7 5.5,-2.4 14.4,-2.1 24.1,1.4 8.6,3.9 13.7,3.4 22.5,2.3 5.8,-0.6 4.7,11.5 -1.3,14.7 -4.3,2.2 -14.1,1.2 -26.1,-5.6 -20.6,-11.7 -29.7,3.5 -16.9,17.2 7,7.5 -5.1,1.4 -6.9,-0.3 l 0,0 z m -424.6,-182.2 c 11,-7.1 6.4,-19.6 -3.8,-21.7 -13.8,0.3 -17.3,16.2 -7.5,21.7 0,1.9 -4.9,0.4 -7.6,-1.6 -4.1,-3.1 -0.4,-15.2 -4.2,-15.6 -2.9,0 -31.5,10.2 -34.6,12.2 -12.8,7.3 -0.8,23.7 6.7,21.8 15.5,-4 36.5,-7.5 51,-16.8 l 0,0 z m -63.9,-23.5 c 0.3,7.3 2.3,10.6 7.1,10.6 10.1,-1.7 19.4,-6.5 28.8,-9.6 7.3,-2.4 10.3,-5.1 4.7,-9.7 -1.7,-1.9 -3.2,-4.7 -2.4,-10 1.9,-6 0.5,-6.3 -2.1,-6.6 -2.6,-0.3 -8.4,2.2 -23.3,7.9 -7.9,3 -9.4,4.3 -11.4,8.7 -0.9,3.4 -1.5,5.4 -1.4,8.7 z m 83.3,94.5 c 1.7,-2 5.6,-14.8 5.6,-17.9 -0.8,-5.3 -4.7,-6.4 -8.1,-3.1 -4.2,3.8 -3.1,9.4 -5.6,13.8 -0.9,1.5 -1.8,3.6 -1.5,4.5 1.3,4.6 6.9,5.4 9.6,2.7 z m 32.8,-69.4 c 128,-136.3 207.3,-325 68.6,-585.2 -15.6,-6.6 -20.4,18.7 -21.9,19.7 l -17.7,15.4 c 93.9,161.9 77.6,348.2 -37.2,480.7 l 0.1,8.4 c 0.3,18.5 5.6,17.7 13.4,9 8.2,-8.7 2.7,-1.6 -0.6,2 -2.9,3.1 -7.5,9.2 -8.8,10.8 1.5,11.1 8.5,31.8 4.1,39.2 l 0,0 z m -8.5,-41 c -1.3,-3.7 -2.7,-12.1 -3.4,-18.6 -0.4,-4.2 -0.6,-8.2 -0.8,-12.3 -1.4,-8.2 -4.7,-27 -7.4,-31.1 -2.9,-4.5 -10.1,-7.7 -18.1,-8.2 -6.8,-0.4 -7.4,-0.3 -8.8,1.9 -2.5,3.8 -0.8,23.1 1.8,30.1 2.9,8.3 1.2,12.8 -1.1,21 -0.8,3 -1.1,3.2 0.4,3.4 6.4,-0.4 8.5,-8.3 11,-5.9 0.9,0.9 -1.4,7.3 -4.3,13.8 -3.1,6.9 -4.1,16.3 -0.3,27.9 2.1,6.5 1.2,8.6 -0.1,12.5 -0.8,2.6 -2.3,10.7 -2.4,18.7 3,10 1.5,14.5 -0.3,17.8 -3.8,8.5 -6.8,20 -4.7,26.5 0.9,2.8 3.2,0.4 5,-4.5 2.7,-9.6 5.8,-11.7 13.7,-11.7 5.7,0 6.3,2 8.2,-0.6 4.3,-5.8 14.8,-26.5 15,-32.3 3.9,-14.8 4.1,-27.4 -3.4,-48.4 l 0,0 z m 61.2,96.5 c 3.5,-1.3 8.8,-8.7 8.8,-11.2 0,-2.8 -21.5,-23.7 -30.4,-29.4 -4,-2.6 -6,-0.8 -13.1,8.9 -6.4,8.6 -7.2,8.6 -6,10.3 1.4,2 23.3,16.2 30.6,20.2 2.4,1.4 6.7,2.5 10.1,1.2 z m 40.2,-37.1 c -3.2,-2.5 -28.9,-30.9 -36.5,-32.4 -2.9,-0.5 -12.2,10 -12.2,12.4 0,1.6 16,18 27.4,27.9 3.2,2.8 6.8,5.2 8,5.2 3.6,-1.9 12.9,-9.3 13.3,-13.1 l 0,0 z m 27.3,-26.9 c 0,-1.7 -2.8,-5.2 -9.8,-12 -17.6,-17.3 -27.4,-25.2 -30.5,-25.2 -3.4,1.1 -9.5,11.4 -9.8,15 1.1,2.1 30.6,28.9 34.4,31.5 4.8,4.5 15.1,-6.1 15.7,-9.3 z m 27.7,-27.6 c 0.8,-2.5 -0.7,-4.7 -4.5,-8.3 -2.6,-2.5 -12,-11.7 -20.9,-20.4 -18.5,-18.3 -18.6,-18.3 -24.5,-9.7 -6.1,8.8 -6.1,8.9 12,26.5 19.3,18.8 23.8,22.6 26.8,22.6 4.5,-2.2 9.5,-5.7 11.1,-10.7 z M -2208,155.4 c -3.2,-1 -6.2,-0.4 -8.7,1.6 -13.7,11.6 5.7,26.5 13.7,17.2 5.3,-5.2 5,-16.4 -5,-18.8 l 0,0 z m 234.9,-12.1 c 0,-1.9 -4,-6.3 -17.8,-19.5 -34.1,-32.5 -32.5,-31.3 -36.3,-29.3 -2.4,1.3 -6.9,10 -6.9,13.3 0,2.4 3.3,5.8 28.5,29.4 14.8,13.8 19.2,17.3 21.7,17.3 4.1,-2 10.6,-6.3 10.8,-11.2 z m -234,1.2 c 6.7,-2.9 7.9,-10.2 4.1,-15.9 -7.3,-6.4 -17.4,-1.1 -17.6,7.2 1.3,7.7 7.9,11 13.5,8.7 z m 262,-28.6 c 0,-3.9 -58.3,-58.4 -62.5,-58.4 -2.8,0 -4.8,2.3 -7.5,8.5 -2.3,5.4 -2.1,8.5 0.8,11.3 4.2,4.1 15.5,14.4 26.2,24.1 6.3,5.7 13.6,12.6 16.2,15.2 6,6.2 12.6,10.9 15.1,10.9 3.6,-2.1 8.6,-5 11.7,-11.6 z m -265.1,-7 c 0.1,-2.2 -0.5,-4.4 -2.1,-6.1 -4,-4.3 -11.5,-2 -13.3,3.6 -1.7,13.3 14.9,13.9 15.4,2.5 z m 43.2,-424.6 11.4,-34.9 34.9,-0.9 4.9,-34.7 35.9,-5.2 0.6,-35.8 34.3,-4.7 -2.1,-38.4 31.8,-7.5 -1.6,-35.5 28.9,-8.9 -1.2,-30.9 5,-3.9 -12.5,-12.7 -10.8,3.5 -0.2,31.8 -28.9,9.3 3,35.2 -29.2,6.7 -0.4,38.2 -33.5,3.8 -2.4,33.7 -32.7,6.4 -4.9,33 -31.8,2.2 -9.7,29 -21,0.2 0,19.4 32.2,1.6 z m 379.4,624.2 c -1.1,-2.6 1.8,-2.2 6.8,0.9 5.2,3.3 12.8,6 18.2,6.1 2.3,0 10.3,-1.4 17.9,-3.2 9.1,-3.3 17.1,-3.5 26.5,-1.5 7,0.9 14,1.7 15.6,1.7 4.7,0.7 12.6,-5.1 14.7,-8.7 5.8,-9.8 4.4,8 4.4,10.1 0.1,9.2 1.2,19.7 -5.3,14.8 -3.9,-2 -10.7,-3.8 -16.1,-0.2 -5.4,3.6 -10,4.4 -16.3,0.6 -5.2,-2.1 -8,-2.5 -11.9,1.1 -4.4,4.1 -15,2.6 -20.6,0.7 -9.8,-1.6 -15.2,-3 -21.7,2.1 -3.5,2 -4.4,0.5 -7,-7.2 -2.8,-7.8 -4.8,-16.4 -5.2,-17.3 l 0,0 z m 24.8,-6.5 c -0.6,-1 4.6,-6.1 8.1,-8 10.4,-5.4 31,-5.1 45.7,0.3 7.7,2.8 8.9,7.7 1.4,6.7 -15.6,-3.3 -35.1,-5.9 -50.1,1.2 -1.1,0.7 -4.8,0.3 -5.1,-0.2 z m 13.1,-24.3 c -10.6,-3.9 -15.9,-8.1 -15.9,-9.5 0,-1.4 2.3,-1.2 10.6,1.1 11.4,4.2 24.9,6.5 36.1,2.5 8.1,-3 12.1,-4.9 12.1,-3.1 0,1.9 -3.3,6.9 -8.9,9.7 -10.9,4.6 -25.5,2.4 -34,-0.7 z m 230.9,-29.5 7.9,-1.1 -2.7,-32.9 29.1,-8.6 -2,-32.8 31,-10.7 -1.8,-36.9 32.2,-6.3 4.2,-32.3 30.4,-2.2 6.3,-35.1 32.7,-1.1 6.7,-29.2 21.7,-0.1 -0.1,-16.4 -33.8,0.1 -7.2,31.6 -31.9,0.9 -6.8,34.7 -33.5,-0.2 -4.3,37.4 -31.5,5.2 0,40.3 -30.4,7.9 2.4,34.4 -30.3,11.1 3.4,32.9 8.3,9.4 z m 203,-772.9 c -4.3,3.1 -6,9.2 -4.6,14.2 4.3,11.3 19.3,7.8 21.1,-0.4 0.9,-3.6 -1.5,-8.9 -5.6,-10.1 -0.7,-0.2 -3.3,0 -4.6,-1.3 -1,-1 5,-4.1 8.6,-2.9 4.4,1.5 8,7.3 8,12.3 0,2 -0.6,4.9 0.2,5.8 7.3,-0.2 15.6,-4.2 23.4,-6.3 13.2,-3.7 18,-11.2 15,-20.1 -2.4,-7.4 -10,-10.3 -19.9,-6.6 -13.7,5.1 -29.7,7.5 -41.6,15.4 l 0,0 z m -563.3,808.6 c 44.7,-31.4 71,-49.3 128.3,-52.4 -20.5,-8.4 -23.8,-19.5 -29.5,-30.1 -71,6.7 -108.8,29.4 -142.5,50.6 13.9,6.6 28.5,14.2 43.7,31.9 z m 249,-43.5 c -21.7,-15.3 -47.5,-24.6 -74.2,-31.7 l -20.5,21.2 c -1.2,-0.7 59.4,0.6 94.7,10.5 l 0,0 z M -1422,38.9 c -139.7,-214.7 -45.9,-403.7 51.3,-524.1 3.1,-4 3.9,-4.1 3.2,-7.3 -0.9,-4.1 -2.1,-25 -1.4,-37.1 -179.6,178 -184.2,409.9 -71.6,594 8.1,-7.2 24.3,-16.8 18.5,-25.5 l 0,0 z m 20.9,-18.4 c -22.9,-38.2 -145.1,-245 41.5,-475.8 0,0 -0.6,-11.8 -2,-16.2 -2.5,-7.9 -6.4,-11.1 -6.4,-11.1 -78.4,117.7 -192.3,264.9 -50,520.6 l 16.9,-17.5 z m -106.8,-389.3 c 2.8,-2.3 6.8,-10.6 6.8,-14 0,-3 -2.2,-5.6 -23.3,-27 -28.1,-28.5 -32.9,-32.8 -36.5,-32.8 -3.4,0 -12.3,8.4 -12.3,11.6 0,1.5 8.3,10.4 27.8,29.9 36.2,36.2 34.5,34.7 37.5,32.3 z m 25.8,-52.4 c 0,-1.7 -2.6,-5.1 -8.8,-11.4 -16.2,-16.7 -39.4,-37.9 -41.4,-37.9 -2.6,0 -9.7,5.7 -11.5,9.3 -1.3,2.5 -1.3,3.1 0.3,5.5 2.9,4.5 39.1,38.8 49.4,47.5 6.1,5.7 11.7,-8.7 12,-13 l 0,0 z m 14,-21.3 c 2.9,-1.5 8.3,-11.7 7.6,-14.3 -0.3,-1.2 -9.5,-11.1 -20.4,-22 -21.6,-21.5 -22.8,-22.3 -28.2,-17.5 -4.9,4.4 -7.9,8.7 -7.3,10.5 0.7,2.1 33.1,35 39.7,40.3 5.2,4.3 5.8,4.5 8.6,3 z m 164.8,-1.6 c 10.1,-9.7 -1.4,-20.4 -9.7,-15.5 -3.6,2.2 -5.7,7 -4.6,10.2 1.8,5.3 9,8.2 14.3,5.3 z m 20.1,-2.5 c 17.2,-4.5 25.4,-7.5 29,-12.9 2.5,-3.7 2.8,-6 0,-12 -2.6,-5.6 -5.6,-7.3 -16.4,-1.4 -7.4,4 -23.8,6 -29.6,9.4 -2.3,2 -1.2,2 0.7,3.1 4.1,2.6 6.2,4.4 5.7,7.9 -1,7.6 -0.2,8.8 10.6,5.9 l 0,0 z m -18.2,-26.9 c 8.3,-4.3 6.7,-14.6 -2.7,-18.7 -12.3,-3.2 -20.2,11.6 -10.2,18.8 2.8,1.9 9.6,1.6 12.9,-0.1 l 0,0 z m 27.7,-4.2 c 12.1,-4.1 16.7,-7.4 20.2,-14 2.8,-5.3 1.6,-7.6 1.2,-12.7 -0.6,-7.7 -4.4,-6.9 -15.7,-2.8 -5.5,2.1 -31.7,9.5 -32.1,12.2 12.7,7.2 9.4,11.1 9.5,20.3 0.7,2 6.7,0.5 16.9,-3 z m -164.4,-12.3 c 0,-3.5 -33.7,-36.5 -37.3,-36.5 -5.6,0 -13.5,8.7 -12.3,13.4 0.5,2.2 32.1,34 36.1,36.3 5.5,3.2 13.2,-7.9 13.5,-13.2 l 0,0 z m 19.4,-20.6 c 1.5,-1.1 4,-4.1 5.7,-6.6 3.6,-5.3 3.4,-8.2 -1,-11 -1.6,-1 -8.7,-7.4 -15.7,-14.2 -7,-6.8 -13.7,-12.7 -14.8,-13.1 -5.8,-0.8 -16.3,8.5 -15.2,13.3 0.6,2.5 26.5,27.9 32.2,31.7 3.7,2.5 5.5,2.5 8.8,-0.1 z m 45.6,-49.1 c 0,-0.9 -5.9,-4.7 -15.3,-9.8 -28.7,-15.6 -29.2,-15.7 -38.2,-8.4 -3.1,2.5 -5.6,5.4 -5.6,6.3 0,1 6.2,7.7 14.1,15.2 16.5,15.6 20.5,18.9 22.8,18.9 4.9,-3.5 21.5,-17.9 22.2,-22.2 z m 40.2,-14.7 c 3.5,-4.2 7.5,-18.9 5.6,-21.9 -1.7,-1.7 -6.2,-1.5 -8.4,0.5 -2.2,2 -7.7,20.5 -6.8,22.7 0.9,2.2 6.5,1.1 9.6,-1.3 z m -313.5,625.9 c 2.7,-0.4 8,-3.7 15.8,-10.3 8.3,-7.1 34.5,-22.9 37.3,-29.3 1.3,-3.6 0.3,-8.8 -2.4,-9.2 -2.1,-0.3 -2.5,1.3 -19.9,13.8 -11.7,8.5 -32.4,23.6 -35.5,26.8 -1.4,3.5 1.7,7.8 4.7,8.2 l 0,0 z m -2.5,101.1 c 17.9,-12.4 32.4,-25.3 55.8,-39.7 1.8,-2.4 2.1,-5.9 1,-8.8 -1.4,-3.6 -3.2,-2.2 -10.3,2.7 -17.2,11.6 -34.9,25.3 -49.8,35.4 -4.8,3.2 -8.8,5 -7.8,6.8 1.4,2.4 8.8,3.2 11.1,3.6 z m 17.5,7.6 c 11.8,-9.6 25.9,-18.8 38.5,-28.2 1.8,-1.8 2.2,-7.7 0.4,-10.1 -1.4,-1.9 -0.2,-1.6 -3.7,0.4 -5.1,2.9 -35.6,23.7 -41.3,28.4 -3.3,2.7 -6.1,4.1 -5.2,5.1 3.7,2.4 7.8,4 11.3,4.4 l 0,0 z m 14.8,7.5 c 2.4,-1.6 23.4,-15 25.1,-16.8 1.9,-2 1.4,-11.2 -0.5,-11.9 -5.3,4.2 -33.2,21.2 -33.3,24 2.8,2.6 6.6,4.9 8.7,4.7 z m 22.4,1.9 c 3.2,-2.9 3.9,-3.5 3.9,-6.8 0.1,-6 -1.4,-5.7 -9.9,0.4 -6,3.9 -9.6,6.6 -8.5,8.9 4.3,6.6 10.3,1.4 14.5,-2.5 z m 2.3,12.2 c 1.7,-0.6 1.7,-1.5 1.4,-3.6 -0.3,-2.3 -0.6,-2.2 -3.1,-2.2 -6.8,0.2 -0.7,6.4 1.7,5.8 l 0,0 z m -81.6,-33.5 c 3.1,-10.2 7.4,-18.2 14.4,-25.8 28.2,-25 19.6,-55.7 1.8,-80.8 23,-32.2 46,-66.4 65.8,-97.7 l -0.1,-50.9 2.7,0.3 c -0.9,111 4.1,293.1 4.1,293.1 l 22.9,17.5 -3.1,1.5 c 3.9,-0.6 -66.6,-44.7 -108.5,-57.2 l 0,0 z m 20.7,-12.7 c 19.5,-14.7 38.5,-26.3 57.8,-42 2.1,-1.7 3.3,-1.8 3.3,-5.6 0.1,-7.3 -1.4,-7.4 -8.6,-2.2 -3.2,2.3 -14.9,10.5 -26.1,18 -11.6,7.8 -22.4,14.8 -24.5,17.3 -10.9,12.6 -14.9,18.6 -13.8,20.4 1.3,1.8 3.5,-0.2 11.9,-5.9 z m 21.3,-35.6 c 10,-6.6 34,-23.2 36.2,-25.3 3.8,-3.6 4.5,-9.3 1,-9.9 -1.7,-0.3 -20.2,12.1 -35.9,23.9 -7.6,5.8 -9.3,7.1 -9.3,12.6 -0.1,3.3 1.9,2.6 8,-1.3 l 0,0 z m 10,-26 c 30.7,-21.8 29.9,-20 29.3,-28.1 -0.2,-2.7 -0.8,-4 -2.1,-4.2 -1,-0.2 -6.4,3.7 -12.5,8 -6.1,4.3 -13.4,10.1 -17.1,12.6 -10.7,7.4 -14.2,9.4 -14.2,13.6 0,4.2 1.1,6.8 3,6.8 0.7,0.1 6.8,-3.8 13.6,-8.7 z m -4.4,-16.9 c 14.1,-10 29.7,-21.3 31.9,-23.9 2.6,-3.3 2.1,-10.3 -1.2,-10.3 -14.2,9.5 -31.3,22 -43.3,31.8 -1.6,1.4 -3.5,2.7 -4.1,4.5 -0.1,2.3 2.8,5.4 3.9,5.5 2.3,-0.1 5.9,-2.7 12.8,-7.6 z m -9.2,-33.8 c 10.8,-7.3 20.6,-16 31.4,-23.4 8.1,-5.5 10.3,-7.2 9.9,-14.2 -0.3,-4 -3.8,-1.7 -17.4,7.4 -10,6.7 -14.6,9.3 -18.2,13.9 -2.5,5.8 -10.7,11.2 -11.1,17.7 -0.2,2.5 1.4,1.3 5.4,-1.4 l 0,0 z m 33.1,-44 c 8.3,-5.5 9.1,-5.6 8.2,-12.9 -1.1,-9.1 -2.1,-8.6 -10,3.5 -5.2,8 -7,10.3 -6.2,11.8 1.4,2.5 2.8,1 8,-2.4 z m -30.2,-67.2 c -0.9,-4.1 -2.1,-3.2 -6.3,0.5 -7.7,6.7 -8.9,11.6 -4.1,14.2 2.5,1.4 4.5,1.2 6,-2.1 3.3,-7.3 4.2,-9.8 4.4,-12.6 l 0,0 z m -43.1,63.9 c -1,-3.7 -5.5,-8.8 -9,-10.6 -3.4,-1.8 -5.5,-1.4 -8.8,2.7 -3,3.8 -1.6,6.1 2.9,11.8 3.3,4.2 4.7,5.5 7.3,5.5 3.3,-1.1 8.3,-5.4 7.6,-9.4 z m -166.6,160.1 c -2.2,-4.2 -6.9,-8.7 -9,-8 -2.3,0.8 -4.5,4 -4.5,6.1 0.9,4.2 4.4,7 7.2,7.1 5.1,-0.7 8.2,-1.6 6.3,-5.2 z m 20.3,-6.4 c -4.4,-4.6 -13.1,-14.8 -14.5,-14.8 -2.2,0 -7.5,5.6 -7.5,7.8 0,2.7 7.9,13.8 10.5,14.6 6.7,-0.6 18.9,0.2 11.5,-7.6 l 0,0 z m 25.1,1.3 c -0.5,-2.2 -25.2,-28.5 -27,-28.5 -2.4,0 -7,5.2 -7,7.6 0,1.9 8,12.3 15.3,20 3.7,3.8 4,4.4 8.5,3.7 5,-0.8 11.4,0.2 10.2,-2.8 l 0,0 z m 43.7,-5.9 c 0,-5.3 -2.8,-8.2 -13.9,-20.3 -4,-4.4 -10.9,-12 -15.2,-16.9 -8.3,-9.5 -11.9,-12.4 -15.2,-12.4 -2.6,0 -6.6,4.2 -6.6,7 0,1.7 20.5,25.3 39.1,45.3 4.1,4.4 6,5.7 9.9,3.6 2.2,-1.6 1.9,-4.2 1.9,-6.3 z m -32.2,-63 c -4.2,3.4 -5.7,4.8 -5.7,7.1 0,3.5 35.4,42.4 38.6,42.4 1.9,0 1.6,-0.3 2.7,-4.4 2.2,-12.7 -1.3,-16.4 -10.4,-24.8 -6.3,-5.7 -18.7,-25 -25.2,-20.3 z m 62.5,-26.1 c -9.9,-11.8 -15.4,-17.3 -17.4,-17.3 -1.4,0 -3.4,1.3 -5.7,3.8 -3.7,3.5 -3.3,3.4 -1,7.5 1.2,2.2 4.6,6.4 7.6,9.5 5.4,5.6 8.2,7.4 10.9,4.7 2.3,-2.3 8.1,-5.2 5.6,-8.2 z m -5.1,-29.5 c -2.4,0 -6.5,4.3 -6.5,6.7 0,2 8,12.1 13.6,17.1 4.5,4.1 6.7,5.1 9.8,2.5 2.4,-3.4 1.8,-6.5 0.4,-9.2 -4,-4.6 -12.8,-16.9 -17.3,-17.1 z m 27.7,2.9 c -0.1,-3.4 -10.2,-16.6 -13.4,-17.9 -2.7,0 -8.3,6.2 -8.3,9.1 0,1.5 2.2,5 5.8,9.2 7.2,8.4 9.1,10.2 10.6,8.9 2.7,-2.1 5.4,-5.9 5.3,-9.3 z m 11.5,-14.8 c 0.7,-2.9 -1.1,-5.9 -5.2,-10.9 -5.1,-6.3 -7.5,-6.8 -12.3,-1.9 -1.8,1.8 -2.6,3.4 -2.6,4.3 0,2.4 10.6,15.9 12.6,15.9 4.6,-0.6 5.9,-3.9 7.5,-7.4 l 0,0 z m -18.7,33.4 c -0.9,4.3 -2.8,7.2 -7,9.2 -32.4,23.3 -31.3,61.3 -38.2,96.4 -52.4,-0.5 -135.3,21 -134.8,22.1 l 278.5,-281 c 0,0 3.5,0.9 1.3,3.3 -22.5,16.2 -21.1,47.7 -36,63.5 -24.6,29.9 -47.6,55.9 -63.8,86.5 z m -151.2,114.7 c 0.5,-3.2 -2.5,-4 -5,-1.5 -2.5,2.5 -1.5,4.5 2,4 1.9,-0.1 2.8,-0.9 3,-2.5 z m 85.9,-11.8 c 1,-2.7 -1.4,-5.2 -16.3,-21.7 -15.1,-16.8 -18.5,-20.7 -21.2,-20.7 -2.2,0 -7.6,5.5 -7.6,7.7 0,1 2.4,4.4 5.3,7.6 2.9,3.1 8.4,9.3 12.3,13.6 6.6,7.5 9.7,11.2 12.3,12.9 2.5,1.7 4.3,1.6 8.3,1.6 5.2,0.1 6.4,0.2 6.9,-1 z m 25.8,-52.7 c 1,-3.3 2.5,-6.2 2.5,-7.5 0,-2.3 -19.1,-21.8 -22.3,-23.8 -3.9,-2.5 -11.1,5.7 -9.3,10.4 0.5,1.3 6.2,8 12.6,14.8 8.2,8.7 12.3,12.8 13.6,12.6 1.4,-0.2 1.6,-2.2 2.9,-6.5 z m 8,-20.4 c 1.4,-2.1 2.5,-4.8 2.5,-6 0,-1.4 -3.2,-5.3 -7.8,-10.4 -8.5,-9.6 -10.7,-10.7 -15.4,-6.2 -4.6,4.4 -3.1,6.5 5.1,15.7 10.3,11.5 11.5,12.9 15.6,6.9 z m 72.9,-91.4 c 3.2,-3.8 3.2,-5.6 0.3,-9.1 -1.2,-1.5 -3,-3.6 -4,-4.8 -2.6,-3.1 -6.1,-2.6 -9.7,1.5 -1.7,1.9 -2.8,3.9 -2.8,4.6 0,0.7 1.8,3.4 4.1,6 5.1,5.8 8.2,6.5 12.1,1.8 z m 11.2,-14.4 c 2.2,-3.3 1.2,-6.9 -2.9,-10.6 -3.8,-3.5 -5.7,-3.6 -8.4,-0.7 -3.6,4 -3,5.3 0.8,9.6 4.4,4.9 8,5.6 10.5,1.7 z m 9,-12 c 3,-3 2.9,-5.5 0.3,-8.9 -2.5,-3.2 -5.1,-4.1 -7.7,-2.6 -4.6,2.5 -4.1,6.7 0.4,11.4 2.6,2.9 3.9,3.2 7,0.1 l 0,0 z m -213.2,599.4 c 57,6.4 118.3,10.9 226.4,-5.9 l 0.5,-36.7 c -33.7,26.3 -77.9,8.3 -80.5,-22 -0.3,-27 6.9,-58.1 13,-80.2 4.5,-16.5 5.8,-22.8 1.6,-26 -9.3,-5.3 -25.9,-5.9 -30.1,-16.9 -2,-5.8 -2.2,-12 0.7,-7.6 1.4,2 12.1,7 20.5,8.9 14.6,3.3 17,4.4 18.6,10.4 1,3.8 -1.4,16.9 -5.2,28.7 -2.8,8.5 -6,22 -6,24.7 0,2.9 2.2,3.3 4.8,2.5 1.1,-0.3 6.2,-5.5 9.5,-8.4 14.1,-12.5 18.1,-12.2 6.1,0.1 -4.8,4.9 -11.4,11.6 -11.4,12.1 0,2.6 2.4,2.3 7.8,0.4 8.3,-3 27.8,-2.6 36.5,1.7 10.8,5.4 11.2,5.2 11,-11.2 -1.9,-30.7 -6.9,-67 -16.9,-95.3 -15.2,-43.2 -46.9,-83.3 -93.7,-81.5 -57,3 -91.4,25.7 -130.2,52.9 23.4,52 -10.4,91.8 -22.7,97 -1.2,0.5 15.4,52.8 22.4,79.4 6.5,24.2 17.3,72.9 17.3,72.9 l 0,0 z M -1616,-714 c -1.3,-3.4 -33,-106.8 -41.9,-150 -85.7,-5 -149.1,-12.1 -224.6,9.3 0,0 -1.6,29.1 -0.8,30.5 0.8,3.6 3.4,3.5 5.5,2.3 34.9,-19.2 72.7,-10.5 75.3,36.7 1,18 -5.1,30.8 -6.2,47.9 -1,14.9 -12.7,34.9 -5.6,46.2 0.9,1.4 5.9,4.1 12.8,7.1 12.8,5.5 17.8,10.5 18.8,18.9 1.4,5.8 -2.1,9.7 -3.2,3.7 -0.7,-3.8 -1.3,-7.1 -17.1,-12.5 -15.4,-5.3 -19.6,-11.4 -21.1,-14.6 -2.1,-4.4 -1.7,-7.6 0.3,-14.7 4.2,-15.1 8.4,-30.4 8,-37.7 -0.1,-2.6 -3,-1.3 -6.7,1.8 -4.7,4 -24.8,17.2 -25.3,16.7 -0.3,-0.3 3.3,-5.6 8.9,-11 6.8,-6.5 15.3,-14.4 15.3,-15.9 0,-2.6 -1,-0.8 -7.6,1.2 -11.5,3.2 -24.8,2.7 -33.7,-1.2 -7.6,-3.3 -12.9,-5.3 -14,-3.4 -2.8,46 4,93.5 23.3,130.5 17.3,33.6 53.3,75.7 107.3,66.3 55.9,-9.8 110.2,-54.7 108.3,-54.7 -21.1,-47.2 2.6,-82.4 24,-103.4 l 0,0 z m -442.8,1256.5 c -24.8,-24.8 -87.1,-51.8 -130,-64.1 -3.4,-0.7 -6.8,-2.4 -6.8,1.7 l -0.5,85.1 -76.6,71.8 1.3,35 162.6,-0.8 107.9,-158.2 c 0,0 5.2,-0.9 5.8,-1.9 -19.8,-84 -49.6,-151.1 -68.6,-184.8 0.3,0.4 -27.3,22.3 -51.5,-4.9 -13.6,-15.2 -5.3,-42 7.7,-51.8 -10.9,-8 -33.5,-22.5 -48.2,-26.7 -3.1,-0.8 -7.7,5.5 -9.2,11.1 -2.7,9.2 -7.2,17.3 -10.2,26.6 -3.3,7.7 -6.5,8.9 -11.5,6.7 -7.7,-2.3 -9.8,-3.1 -9.8,-3.1 l 0.3,100 c 59.1,20.4 119.9,73 137.3,158.3 l 0,0 z m 245.9,-1068.8 17.5,-19 c -27.7,-3.4 -56.8,-8.4 -90.8,-19 23.6,17.4 48.3,28.3 73.3,38 z m -96.3,-53.6 c 30.9,10.3 70,34.3 118.8,25.3 -44.5,-17.7 -78.3,-58.9 -92.7,-142.9 -3.1,16.3 -9.7,50.2 -19.9,53.9 -14.4,-55.7 -72.3,-23.3 -49.1,22.1 -58.7,40.3 -129.3,63.1 -193.3,94.2 0,0 -9.6,29.6 -57.6,70.1 -9.1,-47.5 1.7,-118 -3.9,-165.7 l -75.2,-71 c 1.2,13.5 0.6,21.9 0,37.7 2.1,2.8 4.9,4.2 7.8,5.9 4.9,273.6 -1.7,544 -1.6,792.5 -0.7,152.3 3.3,311 1.1,454.7 l -2.8,5.2 0.1,34.4 76.8,-73.1 c 0,0 -3.6,-51.9 0.5,-91.5 48.4,9.8 93.6,32.5 134.1,57.5 5.1,1.4 -24.9,-99.6 -133.8,-144.4 0,0 -0.1,-31.5 -0.1,-100.1 0,-66.1 -1,-73.1 -2.5,-74.2 -4.4,4.8 -60.2,23.6 -63,20.4 1.5,0.5 -15.7,-117.1 -0.8,-134.9 l 53.3,1.1 c 15.3,12.3 9.1,-2.7 18,-5.2 5.3,-1.4 30,8.2 30,8.2 101.6,-120 91.5,-317.3 18.5,-428.3 -18.7,15.2 -38.6,35.7 -57.3,44.6 -0.2,-0.6 -0.3,-61.2 -0.3,-61.2 97.1,-62.3 202.7,-242.9 196,-243.5 0,0 30.1,29.3 41.7,45.8 l -95.9,138.8 c 22,44.2 44.2,84.3 58.6,123.2 2,5.3 8,5.1 9.5,10.6 1.3,4.7 -4.5,11.3 -3.7,16.5 20.2,77.4 24.8,159.5 4.9,233.9 -4.2,16.7 3.5,30.3 13.8,42.9 0.9,1.1 -9.6,-9 -10.5,-9.6 -3.6,-2.2 -9.6,5.4 -10.8,14.9 0.8,5.8 4,6.9 8.2,11.6 7.4,6.1 36.8,35.1 49.7,48.3 11.5,11.7 14.5,12.3 22.2,3.9 2.2,-2 4.5,-4.8 6.6,-6.5 0.4,0.6 3.3,-2.3 4.2,-3.3 l 173.1,-169 c 20.1,-19.6 -172.9,177.3 -172.9,177.3 0,0 -93.6,91.9 -116.5,114.5 -23.7,23.4 -26.9,28.5 -27.9,30.3 -1.7,3.1 7.6,3 11.9,2.4 0.3,-0.1 -3.6,0.9 -7.5,0.9 -24.4,-5.4 -32.7,21.5 -48,26.9 -40.6,28.9 -13.3,75.2 25.5,59.9 l 9.5,-4.5 c 23.5,43.7 57.5,123.4 73.4,192.6 l -6.4,3 -102.4,153.6 580.7,0 c -41.7,-41.5 -77.2,-92.5 -113.3,-130.7 -57.9,17.3 -233,13.8 -230.3,6.3 0,0 -26.5,-107.3 -41.5,-160.1 47.6,-40.8 42.7,-105.1 -26.4,-134 50.3,-39.7 101,-53.2 150.3,-56.4 16,40.7 53.7,43.3 71.5,6 0.1,-0.4 66.8,20.5 91.3,43.1 -36.4,-3.8 -72.4,-11 -108.9,-12.8 32.1,12.7 64.8,45.8 75.2,83.6 5.1,13.5 13,58.1 15,58.3 0,0 12.2,-51.5 21.6,-48.7 24.1,50.2 65.5,12.4 48.1,-27.5 61.3,-29.2 130.2,-61.9 186.5,-89 16.4,-24.8 56.9,-71.9 59.5,-72.1 0,0 74.4,-426.1 74.4,-568.6 -2.5,-171.3 3.4,-361.9 -3.9,-522.1 l -0.1,-46 -157.1,0.1 -112.2,164.9 c 0,0 -0.8,2.6 -0.8,3.8 15.3,66.5 34.9,123.2 65.8,184.6 42.5,-32.1 78.4,20.8 46.5,51.5 -6,5.8 -4.4,7.2 1.6,11.2 5.9,4 46.3,24.3 48.1,24.3 7.3,-10.8 9.4,-26.9 14.3,-39.1 1.2,-4.7 4.8,-5.2 11.8,-4.4 9,1.1 9,4.8 8.7,-52.7 l -0.3,-49.4 c -54.5,-25.1 -126.7,-89 -130.1,-155.4 31.5,22.9 104,56.3 123.3,59.3 8.5,2.4 7.2,-12.4 7.5,-18.4 2.3,1.5 3.1,24.4 3.1,24.4 -32,-9.7 -48.8,-7.7 -128.6,-54 13.7,65.3 79.1,116.8 126.5,140.3 0,0 2,31 1.9,65.8 -0.3,106 0.8,110.6 0.8,110.6 0,-0.1 26.1,-6.7 33.3,-10.2 12.9,-10.4 33.7,-2.4 36.5,5.2 4.2,40 0.2,77.1 -0.7,115.3 -22.1,1.6 -34.2,6.2 -45.1,6.7 -7.1,-0.9 -11.4,-1 -15,-5 -10.6,-22.8 -9.9,-8.3 -11.2,8.8 -1,5.1 -27.4,-3.8 -30,-5.3 -114.1,131.4 -104.4,282.6 -26.9,422.7 12.8,-8.6 34.8,-25.1 56.9,-36 0.5,17.8 0.8,54.5 0.8,54.5 -89.3,65.5 -196.3,239.2 -192.7,239.7 l -36.3,-43.3 c 0,0 22.8,-36.3 30.9,-45.9 0.9,-1.1 1.5,-12.4 1.5,-12.4 l 55.5,-80.2 c -25.1,-44.4 -42.2,-82.4 -60,-126.1 -1,-3.7 -5.4,-19.4 -4.4,-20.8 -37,-167.2 3.1,-250.3 0.1,-256.7 0,0 -0.5,-3.3 -1.3,-4 -1.2,-1 0.3,-2 1.7,-4.4 2.6,-4.6 6.8,-14.1 5.4,-16.9 -1.1,-2.1 -31.1,-32.1 -56.8,-56.8 -13.5,-13 -13,-14.5 -20,-7.4 -2.6,2.6 -9,10.1 -9,10.1 -93,86 -166.7,164.3 -260,255.8 l -4.5,-4.1 c 135.7,-134.9 272.6,-268.4 407,-404.6 l -23.6,0.4 c 0.7,-1.7 1.6,-3.3 3,-3.8 12.7,0 25.7,-3.8 35.1,-9.2 19.2,-14.2 46.7,-33.3 48.8,-52.1 -1.4,-36.1 -31.9,-41.4 -53.9,-23.7 -30.6,-55 -54.8,-121.1 -67.8,-182.8 -0.6,-3.1 -4.9,-8.3 -5.6,-11.8 6.6,-20.5 110.5,-162.1 110.5,-162.1 l -583.6,0 111.1,132.3 c 0,-5.3 158.3,-24 230.8,-1.9 l 44.1,156.8 c -40.1,38.8 -52,102.5 21.8,135.7 1.4,3.1 -7,8.2 -7,8.2 1.2,-1.9 3.2,-3.9 2.4,-5.6 -19.9,-8.7 -41.2,-30.7 -41.2,-30.7 -44.4,34.7 -85.9,54 -126.5,55.7 0,0 21.5,14.5 25.6,30.5 0,0 -2,-0.2 -2.5,-0.9 -4.4,-5.4 -14.5,-22.8 -23.1,-27.9 -14.5,-3.5 -23,-0.9 -34.4,6.9 l -15.5,14.9 c -35.1,-10.6 -74.5,-28.2 -96.1,-55 l 0,0 z m -6,383.8 16.2,-16 c 1.9,-11.9 5.1,-26.9 18.7,-43.3 15.2,-18.2 31.9,-35.3 44.3,-51.5 14.8,-19.5 22.9,-37.1 19,-45.3 22.1,-4 42.4,-23.5 43,-58.9 0.3,-18.6 9.2,-45.7 9.9,-45.3 0,0 154.3,-5.2 260.4,-106.4 0,0 7.4,1.6 5.7,3 -40.2,40.3 -83,70 -133.5,88.9 l -278.7,278.4 -5,-3.6 z m 30.9,-31.9 c 4.2,-4.2 5.1,-5.5 2.7,-7.5 -3.6,-3 -10.5,3.2 -10.5,9.4 0,3.9 3.1,2.7 7.8,-1.9 z m 14.4,-14.2 c 3.3,-3.2 3.2,-5.5 0.5,-8.2 -3.8,-3.8 -9.2,-1.5 -11.1,4.6 -1.9,6.1 5.4,8.6 10.6,3.6 z m 12.7,-12.8 c 1.7,-1.9 3.1,-3.9 3.1,-4.4 0,-2.2 -5.3,-7 -7.7,-7 -3,0 -8.3,5 -8.3,7.8 0,2.3 5.4,7.2 8,7.2 1,-0.1 3.2,-1.7 4.9,-3.6 z m 12,-24 c -3.8,-3.2 -6.3,-3.2 -9.4,-0.1 -3.6,3.6 -3.3,7.6 1.1,11.4 3.3,3.4 4.7,3.1 9.2,0.4 3.7,-3.8 4.3,-7.3 -0.9,-11.7 z m 14,-2.1 c 4.1,-3.5 3.5,-6.3 -1,-10.8 -4.7,-4.7 -8.3,-4.7 -11.7,0.2 -1.3,1.9 -1.5,3.7 -1.5,4.3 0,1.8 7.8,8.7 9.8,8.7 1.2,0.1 2.7,-1 4.4,-2.4 l 0,0 z m 13.6,-13.3 c 3.5,-3.6 3,-6.2 -2,-11.4 -4.2,-4.3 -7.1,-4.7 -10.8,-1.2 -3.8,3.6 -3,7.3 1.3,11.6 4.3,4.3 7.6,5 11.5,1 z m 15.3,-15.5 c 2.6,-2.7 1.9,-2.5 0.1,-5.4 -2.8,-4.5 -11,-12.1 -13.3,-12.1 -2.9,0 -5.5,4.7 -5.5,9.3 0,4.6 2.3,6.5 8.1,11 3.9,3 2.7,3.3 5.7,1.6 1.5,-1 3.8,-3 4.9,-4.4 z m 12.1,-11.1 c 5.5,-6.2 4.4,-7.4 -8.8,-21.4 -4.5,-4.7 -5.4,-5.3 -8.6,-5 -3,0.3 -3.3,1 -4.8,4.2 -2.9,5.9 -0.7,8.9 7.6,17.8 8.5,9.1 9.8,9.9 14.6,4.4 l 0,0 z m 13.6,-14.6 c 2.1,-1.9 3.5,-4 3.5,-5.4 0,-2.4 -10.7,-14.3 -14.5,-16.5 -2.7,-1.6 -5.5,-0.7 -9.1,2.3 -2.1,1.8 -2.1,2.3 -1.6,4.3 0.8,3.3 14.6,17.8 16.9,17.8 1,0 2.8,-0.8 4.8,-2.5 z m 13.4,-13.1 c 2.3,-2.3 4.1,-5.1 4.1,-6.4 0,-2.6 -11.6,-16 -15.1,-17.9 -3,-1.6 -4.8,-0.9 -7.8,3.3 -3.5,4.9 -2.1,7.1 4.7,15 6.5,7.5 8.6,9.8 9.8,9.8 0.4,0 2.1,-1.5 4.3,-3.8 l 0,0 z m 12.7,-13.6 c 2.9,-1.8 6.7,-5.5 5.2,-8.6 -1.6,-3.1 -21.9,-24.6 -24,-25.7 -4.3,-2.3 -4.1,1 -4.1,11.6 l 0,5.5 9.3,9.1 c 13.5,13.3 10.5,10.1 13.6,8.1 z m 16.5,-15.1 c 1.6,-1.6 3.1,-4.3 3.1,-5.3 -8.4,-10.2 -32.8,-42.6 -37.2,-41.4 -0.5,0.1 -0.6,0.1 -1,1.1 -1.1,3.2 -1.5,9.9 -0.8,15.4 7.7,7.4 25.9,31.5 30,33 2.5,0.9 3.6,-0.5 5.9,-2.8 l 0,0 z m 13.1,-13.8 c 1.5,-1.5 2.8,-3.5 2.8,-4.4 0,-0.9 -2.7,-4.4 -5.6,-7.8 -2.9,-3.4 -8.5,-10.3 -12.6,-15.3 -23,-28.7 -24.7,-30.8 -28.2,-27.9 -2.3,1.9 -2.9,8.7 -1.7,11.2 2,4.4 27.1,34.7 35.2,42.5 5.2,4.9 6.2,5.4 10.1,1.7 z m 13.2,-12.7 c 2,-1.9 3.6,-4.3 3.6,-5.5 0,-1.2 -3.7,-5.8 -7.6,-10.4 -3.9,-4.6 -10.4,-12.3 -14.4,-17.3 -10.3,-12.7 -10.4,-13.2 -18.1,-13.9 -11.7,-1.2 -10.1,1.4 3.1,16.8 3.2,3.7 9.2,11.1 13.4,16.4 9.8,12.4 14.1,16.9 16.1,16.9 0.9,0 2,-1.1 3.9,-3 z m 13.5,-13.2 c 6,-5 4.8,-6.7 -14.7,-26.8 -6.4,-6.6 -6.8,-7.6 -11.8,-7.6 -5,0 -6.6,1 -6.6,3.4 0,1.5 25.3,31.6 27.2,32.3 2.6,1.1 2.9,1.3 5.9,-1.3 l 0,0 z m 14.2,-14.5 c 1.6,-1.7 2.9,-3.9 2.9,-4.9 0,-2.2 -5.5,-9.2 -10.7,-13.7 -2.4,-2.1 -5.5,-4.3 -7.4,-4.3 -3.3,0 -9,1.9 -10,3.5 -0.6,1 6.9,10.3 14.3,18.1 5,5.1 6.9,5.6 10.9,1.3 z m 12.5,-12.4 c 3.1,-3.1 3.1,-6 -0.1,-10.2 -2.3,-3 -3,-3.3 -7.8,-3.3 -9,0 -9.3,2.3 -2.3,9.8 5.2,5.6 6.6,7.3 10.2,3.7 l 0,0 z m 13.3,-13.1 c 3.5,-4.5 0.5,-6.9 -5.3,-4.3 -1.4,0.6 -2.1,2.2 -2.4,3 -1.8,4.7 4.3,5.6 7.7,1.3 l 0,0 z m -222.5,37.9 c -12.9,8.1 -34.5,23.5 -49.2,33.8 -0.4,2.2 -0.7,7.8 0,12.2 8.3,-5.7 35.1,-22.8 47.3,-32.4 0.6,-3.6 1.5,-10 1.9,-13.6 z m 23.6,-37.4 c -0.4,-2.2 -1.9,-0.8 -5.7,2.4 -5,4.2 -47.3,35.6 -58.5,43.5 -4.3,3 -8.3,5.5 -8.8,6.6 -0.4,1 -0.8,9.5 0.8,11.7 9.2,-7 52.7,-36.2 53.3,-37.2 4.5,-7.2 14.5,-19.7 18.9,-27 z m -4.9,94.5 c 0,0 -51.9,62.4 -68.6,93.5 0,0 -0.1,35.5 -0.6,56 l -2.8,0.8 c 0,0 -0.2,-54.9 -0.9,-114.4 -1.8,-148.8 -3.2,-184.9 -3.2,-184.9 l -16.9,-12.3 -0.7,-5.9 c 0,0 74.8,52.4 111.3,60.7 -26.7,41.7 -51.3,57.8 -17.6,106.5 z m -61.6,74.6 c 1,-2.5 0.3,-2.4 -1.8,-2.3 -1.6,0.1 -2.5,1.5 -2.5,3.1 -0.1,1.8 0.1,2.2 1.5,2 1,-0.2 2.3,-1.6 2.8,-2.8 z m 12.5,-18.5 c 7.5,-9.2 13.6,-15.2 14.8,-21.9 -4.8,0.8 -32.3,20.1 -32.8,22.1 0.3,10.2 -2.1,11.4 6.3,6.9 3.7,-1.9 6.7,-4.4 11.7,-7.1 z m 2.4,-22.8 c 8,-6.7 37.3,-22.4 40.6,-30.2 1.3,-3.6 -2.9,-6.9 -3.5,-6.6 0.5,0.5 -41.9,25.9 -57.4,39.2 -1.4,1.7 -1,4.6 -0.1,7.1 1.7,4.6 5.1,0.9 20.4,-9.5 z m -9.8,-12.2 c 8.7,-5.8 29.4,-20.1 34.5,-23.7 8.7,-6.1 10.5,-8.1 7.3,-12.6 -1.3,-1.8 -3,-2.9 -5.8,-1.6 -25.3,17.6 -27.5,20.6 -46.6,32.9 -1.3,3.5 -1,8.6 1,10.5 1.5,0.1 3.9,-1.7 9.6,-5.5 l 0,0 z m -0.1,-19 c 23,-16.7 35.4,-25.1 36.3,-26.9 0.9,-2 1.2,-9.9 -0.3,-10.8 -8.6,6.5 -31.5,20.5 -47.1,33.2 -0.4,2.6 -0.9,8.5 0.4,9.7 3.1,1.3 4,-0.4 10.7,-5.2 l 0,0 z m -2.7,-60.1 c 16.8,-12.4 32.2,-23.2 49.7,-34.9 14.8,-9.8 17.3,-12 11.6,-14.9 -2,-1 -5.9,-2.6 -8.4,-1.8 -19.6,15.9 -41.5,31 -62.3,46.4 -0.5,2.3 0,6.8 -0.1,8.9 -0.3,3.1 3.9,0.4 9.5,-3.7 z m -2.3,-17.8 c 1.4,-1.2 10.1,-7 19.5,-13.8 25.1,-18.1 28,-19.9 28,-21.8 0,-5.3 -7.2,-6.4 -13.8,-1 -12.1,9.8 -40.9,27.8 -41,30.3 -0.1,3.7 -0.7,7.4 0.4,9.1 1.3,2.1 3.4,0.3 6.9,-2.8 z m 7.2,-24.6 c 25.5,-17.8 24.5,-17 24.5,-20.2 0,-2.8 -2.5,-1.5 -6.4,-1.8 -3.7,-0.3 -3.8,0.8 -10.7,6.1 -14.9,11.2 -20.3,14.3 -21.9,17.6 -0.5,1 -0.8,5.2 0.1,6.1 1.8,1.8 3.8,-0.4 14.4,-7.8 z m 1.7,-17.7 c 5,-4.2 9,-7.2 9.3,-8.1 0.7,-1.9 -3,-5.3 -5.9,-5.3 -3.1,0 -5.5,1.6 -13.1,8.2 -6.7,5.8 -8.1,4.6 -7.6,7.9 0.3,1.9 0.3,6.1 1,6.8 1.7,2 5.2,-0.2 16.3,-9.5 z m -10.3,-11.4 c 5.4,-4.5 6.5,-5.5 2.6,-9.4 -3.6,-3.6 -7.7,-4.4 -9.9,-2.3 -1.2,1.6 0,11 -0.2,12.9 -0.2,3 3.8,1.9 7.5,-1.2 z m 115.5,-98 c 0,-1.9 9.4,-8.8 16.4,-10.4 9,-2 20.2,-1 28.1,3 6.8,3.4 14.2,11.5 3.3,6.6 -10,-4.5 -31.5,-4.5 -39.3,-0.9 -5.8,2.9 -8.5,3.7 -8.5,1.7 z m -7,-34.3 c 0.7,-0.7 10.1,1.7 15.3,3.1 13.9,3.7 25.2,1.5 39.8,-2.7 3.4,-1 5.1,1.4 3,3.1 -7.4,5.1 -16.9,8.1 -25.2,8.9 -18.2,1.6 -37.7,-7.7 -32.9,-12.4 z m -89,-26.8 c 7.7,-3.8 17.2,-56.9 14.2,-66.1 -9.5,14.5 -20.1,21 -35.2,18.5 -24.8,-4.1 -25.7,-34.6 -6.6,-37.7 7.7,-1.2 17,3.8 18.5,2.6 8.2,-3.8 14.6,-31.3 16.6,-40.1 1.5,-8.7 3.6,-32.8 3.9,-40.5 0.7,-16.3 0,-40.4 0,-40.4 l -120.6,-144.3 -264.2,-1.1 c 0,0 -0.8,202.2 -0.2,305.6 l 74.8,71.8 0.9,116.1 c 83.6,-36.5 164.5,-74.8 243.7,-116.2 -9.2,-11 -8.9,-38.6 7.8,-49.1 24.8,-15.6 45.2,4.8 46.4,20.9 l 0,0 z m 66.3,24.6 c 0.6,-6.5 5.4,-11.9 5.8,-18.6 0,-1.5 1.2,-3.2 5.1,-1.1 5.1,2.7 6.7,0.8 12.5,-1.9 10.3,-4.7 13.2,-4.6 21.2,-1.5 5.1,2.7 6.7,2.7 11.5,0.2 6.6,-4.3 13.6,-5.8 19.3,-3.7 8.6,3 11.6,4.7 16.5,2.3 2.5,-1.2 5.6,-5.7 6.1,-5.4 3.5,5.3 2.8,13.5 5.1,18.2 4,7.9 2.4,13.6 -2.3,9.7 -9.9,-8.2 -17.6,-8.4 -31.9,-4.9 -8.3,2.1 -12.5,3.7 -21.7,2.6 -28.6,-3.4 -30.5,-2.5 -36.3,1.4 -5.6,3.8 -10,4.2 -10.9,2.7 z m 76.7,-51.8 c -8.3,-2.1 -17.7,-9.6 -24.5,-7.6 -8.4,0.6 -13.2,-9.4 -8.9,-14.8 7.4,-7.2 18.9,0.1 23.3,3.4 9.7,7.4 11.1,7.9 15,7.9 16.1,-0.3 13,-15.3 5.2,-20.8 -4.6,-4.8 -5.1,-8 -4.1,-9.1 1.6,-1.9 6.2,-0.3 11.2,5 9.6,9 9.9,27.1 -2,32.5 -5.8,3.3 -9.6,4.8 -15.2,3.5 z m 33.6,-52.1 c -7.5,-5.4 -20.8,-17.6 -24.3,-21.9 -5.9,-7.3 -8.2,-12 -7.5,-17.9 0.6,-4.6 1.3,-7.3 -1.7,-8.8 -3.1,-1.6 -6.1,-8.5 -5.5,-12.2 0.2,-1 3.7,-0.4 5.8,2.3 2.7,0.4 2.1,-1.2 5.1,-3.1 30.6,-20.5 55.1,-16.6 84.1,-2.5 8.4,4 30.4,20.7 18.6,15.3 -0.7,-0.3 -8.4,-3.7 -16.2,-7.6 -25.2,-12 -53.2,-19.3 -76,-3.9 -3.9,2.7 -6.3,4.9 -3.2,4.9 12.8,-2.5 25.5,-7.8 38.7,-7 19.6,0.3 31.5,10 46.3,16.6 16,7.1 19.1,9.6 13.2,15.5 -1.6,1.8 -3,1.8 -10.7,1.2 -8.3,-0.6 -9,-0.4 -13.7,2.6 -12.2,7.8 -28.2,12.1 -42.3,10.9 -16.6,-1.4 -18.4,-2.7 -18.8,-0.3 -0.2,1.5 3.4,4.2 8.3,8.7 3.7,3.4 8.8,8.5 9.2,9.2 1.5,2.5 -4.8,1.3 -9.4,-2 z m -4.7,-26.7 c 0,-2 -3.7,-10.5 -5.9,-12.7 -2.1,-2.1 -3.8,-1.3 -8.2,1.9 -3.4,2.4 -3.7,4.2 -0.6,7 6.5,5.8 14.8,7.2 14.7,3.8 l 0,0 z m 25.1,1.2 c 6.7,-3.3 13.6,-14.8 10.4,-18.5 -1.8,-2.2 -3.5,-0.1 -7,6.1 -1.7,3 -4.6,6.8 -5.8,7.7 -5.5,3.8 -12.7,0.3 -15.8,-8.2 -1.8,-5.1 -3.8,-8.4 -5.9,-6.4 -3.9,3.5 0.5,16.2 8.2,19.4 4.6,1.9 11.2,2.2 15.9,-0.1 z m 20.9,-1.9 c 6.8,-2.1 10.1,-5.2 9.5,-8.1 -0.5,-2.5 -5.4,-5.4 -8.7,-5.4 -1.5,0 -4.4,-0.1 -5.5,1.3 -2.3,3.1 -6,12.5 -6.2,13.5 0.8,2.1 3.1,1.1 10.9,-1.3 l 0,0 z m 23.5,-50.7 c -34,-13 -60.8,-18.2 -93.1,-4.4 -10.4,4.5 -16.3,5 -16.8,1.3 -0.4,-3.1 7,-12.2 15.1,-16.5 22.6,-10.3 49.6,-11.3 72.3,-0.4 8.5,4.2 32.3,21.1 32.3,22.6 0,1.6 -2.2,0.3 -9.8,-2.6 z m 397.7,380.7 c 8.1,-4.3 11.8,-12.7 6.9,-17.6 -1.5,-1.5 -3.5,-1.4 -5.2,-1.4 -2.8,0 -24.1,5.7 -28.2,7.9 -2.7,1.4 -1.7,4 0.9,6.3 1.2,1.1 2.1,3.4 2.3,5.9 0.2,3.2 -0.4,6.1 1.7,5.6 4.3,-1.1 11.1,-2 21.6,-6.7 z m -30.2,7.7 c 2.3,-4.2 1.3,-9.9 -4.7,-13.5 -3.2,-1.6 -5.7,-0.8 -8.2,2.9 -6.1,11 8.9,15.7 12.9,10.6 z m -30.3,5.2 c 1.3,-14 0.7,-55.5 0.7,-55.5 0,0 -7.5,6.4 -12.3,6.6 1.7,-6.1 3.6,-8.3 6.3,-14.2 1.6,-6.3 2.4,-17.4 2,-23.8 -0.5,-7 -5.4,-7.2 -0.3,-19.7 2.6,-6.4 3.1,-13.1 -0.3,-21 -1.4,-3.9 -1.9,-6.2 1.9,-11.1 3.5,-4.6 2.1,-6.9 2.1,-16.5 -0.1,-13.3 0,-15.5 -4,-4.7 -6,8.9 -8.8,7.2 -18,6.1 -8.9,19.9 -19.2,40.7 -19.6,57.8 -0.3,10.7 -0.4,12.4 6.3,35 2.5,8.4 3.4,11.2 3.5,21.4 0.1,9.7 0.9,13.1 2.3,18.5 2.5,9.5 13.1,25.3 29.4,21.1 l 0,0 z m -308.5,893.9 0,-20 c 0,0 -32,9.9 -48.2,3.8 -16.7,-4.5 -16.7,-5.3 -16.3,-3.5 0.6,3.2 13,9.8 24.5,12.5 8.1,1.9 24.2,0 32.2,-2.4 4.5,-1.3 5,-0.1 3.2,1.3 -19.6,15.3 -44.5,8.3 -60.1,-4.4 -8.3,-8.2 -13.9,-8.2 -9.4,2.8 21.3,43.3 74.6,17.7 74.1,9.9 l 0,0 z m -21.6,-29.7 7.3,0.1 c 0,0 -2.2,-12.7 -6,-16.4 -7.7,-7.6 -18.6,-6.4 -25.5,1 -3.2,3.4 -5.6,15.4 -5.6,15.4 l 5.8,0.1 c 2.2,-5.5 11.4,-31.8 24,-0.2 l 0,0 z m -29.1,-19.2 c -4.1,-1.1 -13.2,3 -17.6,5.9 -1.6,1.8 -1.6,2.1 0.3,4.6 4.2,5.6 10.7,8.2 11.2,6.2 1.8,-3 6.5,-15.5 6.1,-16.7 z m 48,14.1 c 1,-3.9 -2.7,-10.6 -8.4,-12.9 -2.5,-0.6 -4.9,-1.1 -4.2,1.6 0.8,3.1 2.5,8.1 4.1,11.4 1.2,2.5 1.9,3.8 4.3,2.8 2,-0.6 3.6,-1.2 4.2,-2.9 l 0,0 z m 312,-264.9 0.1,-33.8 c -17.1,17.3 -39.4,46.4 -46.2,57.3 l 46.1,-23.5 z m -522.1,-932.8 c 7.2,-3.1 12.6,-12.6 10.7,-17.3 -1.1,-3 -4.1,-0.6 -7.2,3.8 -4.9,7.1 -6.1,7.8 -10.4,7.8 -4.6,0 -6.4,-1.2 -9.5,-7.3 -2.2,-5.8 -3.7,-6.7 -5.7,-4.2 -0.9,1.1 -0.9,2.8 0.4,7 3.2,11.1 11.5,14.6 21.7,10.2 z m 19.7,-3.5 c 8,-2.8 9.7,-3.6 9.3,-6.3 -0.4,-2.8 -6.8,-6.5 -10.4,-5.8 -2.6,1.6 -9.4,12.3 -9,14.2 0.9,1.5 3.6,0.2 10.1,-2.1 l 0,0 z m -46.3,-4.7 c -0.3,-2.5 -0.6,-4.9 -1.3,-5.7 -2.6,-3.1 -8,-0.9 -8,3 0,3 4.3,6.4 7.7,6.4 2.5,0 2.1,0.6 1.6,-3.7 l 0,0 z m 45.4,-20.2 c 11.4,4.3 17.2,4.8 11,-1.1 -8.5,-9.5 -47.7,-20.3 -68.7,-4.8 -1.5,2.1 -1.2,10.3 0.4,9.9 17.1,-11.6 39,-11 57.3,-4 l 0,0 z m -39.1,-32.7 c -9.6,3.2 -18.6,8.2 -19.8,12.9 -1.9,7.5 1.5,7.6 14.1,3.7 16.2,-5.3 34.3,-2.9 48,5.1 10.5,7.6 13.6,5.1 11.8,-1.3 -5.8,-21.2 -38.5,-25.1 -54.1,-20.4 l 0,0 z"
             id="path3018" /><path
             style="fill:#e2cf00"
             d="m -1248.2,-950.1 -70.6,70 1,82.8 c 7.1,13 -109,-37.1 -127.3,-52.3 2.1,55.3 77.6,118.3 126.7,141.4 l 1.3,175.6 c 0,0 19.8,-7.7 30.6,-11.4 8.1,-2.8 26.5,-2.5 32.5,-5.4 9.7,-120.5 17.9,-277.1 5.8,-400.7 z m -392.8,86.7 c -6.9,0.1 -11,2 -10.9,6.4 -2.1,-0.3 26.1,103.4 38.9,146.7 -24.9,25.2 -51,69 -13.7,109.5 8,8.7 22.5,16 36.4,24.3 6.2,6 -75.8,58.8 -148.7,58.8 -23.4,-51.3 -56,-22.9 -74.1,-5 -14.1,-1.2 -66.6,-32.5 -93.5,-50.4 -0.4,-0.3 -0.1,-7.7 -0.1,-9.1 1.9,12.2 105.3,38.6 109.9,26.3 -3,0 -46.4,-29.4 -58.8,-58.3 -15.9,-32.7 -28.7,-77.5 -28.7,-77.5 -5.8,16.6 -3.8,39.6 -19.8,47.8 -4.8,-54 -81.9,-26.5 -43.5,26.3 -21.6,6.3 -40,17.5 -60.9,26.8 43.8,59.6 104.1,99.2 167.8,122.6 -8.4,17.9 -58,58.2 -17.3,105.6 1.8,1.5 -38.9,45.9 -59,80.7 -15.1,26.2 -10.5,46.3 -8.8,46.9 55.2,-63.3 86.3,-116.8 86.3,-116.8 -0.5,7.4 65.5,3.4 64.4,-56.1 1.5,-16 4.4,-33.4 10.5,-48.3 100.7,4.7 187.3,-31.1 260.5,-106.5 0,0 14.9,4.3 24.3,5.7 4.7,0.7 11.4,-2.3 12.5,-2.7 4.2,-0.2 10.4,-1 16.1,-4.3 7.8,-4.4 15.7,-12 24.1,-18.7 11,-8.9 21.9,-17.4 25.8,-26.6 4.4,-10.2 1,-22.4 -2.8,-33.3 -23.5,-27.7 -39.1,2.1 -49.5,-1.8 -36.1,-49.1 -66.3,-188.2 -71.2,-189.3 -20.1,-3.8 -89.2,-30.2 -116.2,-29.7 l 0,0 z m -248.1,94.8 c -2.7,0.2 -12.4,43.4 -21,43.1 -36.4,-23.4 -37.1,25 -5.9,22.8 26.4,-1.9 41.2,-44.5 27,-65.9 0,0 -0.1,0 -0.1,0 z m -388.6,82.2 c 1.2,262.8 5.9,525.5 12.1,788.2 23.8,-5.9 41,-10.3 64.3,-0.2 2.2,-74.7 -4.4,-263.1 -2.8,-445.6 88.8,-69 151.1,-145.2 194.9,-244.7 l -135.5,63.5 c 0,0 -44.3,63.5 -58.4,67.6 -2,-9 -4.3,-116.5 -2.4,-162.6 l -72.2,-66.2 z m 301.2,162.6 -26.6,38.5 c 0,0 0.6,132.3 2.2,196.1 1.1,12.7 12.6,24.3 3.4,35.7 5.6,0 30.2,171.7 6.8,241.3 -4.2,12.5 -0.3,21.3 6.3,24.1 l 50.8,51.5 c 16,5.3 31.6,3.2 45,0 48,-43.9 116.3,-120.9 116.3,-120.9 L -1952.8,-228 c -15.5,-41.4 -23.7,-295.8 -23.7,-295.8 z m 657.4,551.9 c -130.6,97.6 -186.8,236.6 -187.6,235.7 0.5,1.6 -0.7,7.3 7.5,2.8 33.8,-18.3 120.7,-57.8 120.7,-57.8 20.6,-24.8 36.5,-48.7 60.2,-72.3 0,0 2.6,107.7 0.5,161.7 21.3,15.9 71.9,65.4 71.9,65.4 0,0 14,-765 -16.2,-784.4 -29.3,5.7 -44,16.4 -54.9,-17.6 -7.7,155.6 -0.1,311.9 -2.1,466.5 z m -283.6,-430.6 c -31.5,25.7 -139.8,132 -139.6,133.1 28.7,48.2 142.2,144.7 196.6,198.6 l 7.9,274.8 c 8,-10.8 13.8,-20.9 22.5,-31.7 0,0 -1.4,-139.2 -4.8,-204.4 -1,-19.3 -5.4,-34.5 -4,-36.3 -15.3,-79.2 -21.7,-166.7 0,-251.6 -51.4,-44 -67.8,-73.5 -78.6,-82.5 z m 8.4,313.9 c -0.1,0 -0.2,0.1 -0.3,0.2 -26.6,37.9 -77.4,120.1 -81.1,119.9 -1.1,-2.5 -52.5,-0.2 -62.3,32.2 -8.2,24.1 -8.8,46.3 -14.8,71.2 -103.3,-3.4 -178.9,29.3 -258.5,102.7 -22.6,0.9 -42.5,2.7 -56.4,7.9 -11.7,4.3 -17.9,12.1 -25.1,17.3 -20.2,14.6 -25.7,27.1 -24.7,42.4 1.8,27.7 50.8,31.7 53.3,12.1 2.5,0 47.9,103.8 52.3,121.5 10.7,28.6 22.2,82.1 23.6,82.2 18.3,1.2 121,30 121.4,19.5 9.7,-4.2 -35.7,-152.7 -35.7,-152.7 79.3,-66.6 -8.1,-137.7 -28.7,-135.1 45.2,-32.2 97,-53.8 154.2,-56.7 8.9,31.8 49.9,48.1 70.5,5.9 0,0 88.9,31.8 88.5,42.3 -36.6,-5.5 -66.7,-8.4 -103.3,-11.9 70.2,38.1 72.4,88.3 86.7,138.3 2,-8.9 20.5,-47.5 20.5,-47.5 23.8,52.8 69.1,16.2 50.4,-26.5 l 56.3,-26.1 c 6.5,-3.3 -84.2,-105.3 -166.7,-119.8 4.2,-7.6 5.8,-14.7 10.1,-20.9 20.7,-20.3 36.7,-50 5.1,-85.6 20.9,-29.2 69.3,-99.6 66.2,-100.8 0.1,0.1 1,-32.9 -1.5,-32 z M -2272.6,236 c -0.8,0 -2.3,244.2 -0.5,365.4 -2,5 -3.3,31.8 -3.3,31.8 l 75.1,-70.6 2.3,-91.2 c 19.6,-4.7 141.9,57.4 132.1,57 9.3,-3.9 -56.4,-128.1 -133.2,-141.9 -1.4,-70.4 -2.1,-150 -4.2,-171.4 -26.7,5.1 -68.3,21 -68.3,20.9 l 0,0 z m 667,146.9 c -21,6.3 -29.8,50.5 -23,71.9 1.3,4 0.5,4.8 3.8,0.9 8.2,-12 5.6,-36 20.1,-48.7 38.2,11.6 34.4,-38.1 -0.9,-24.1 z"
             id="path3027" /><path
             style="fill:#d40000"
             d="m -1208.4,776.3 0,-22.5 20.3,0 0,-121.4 c 0,0 0.1,-29.2 1.4,-32.9 15.6,-53.2 102.1,-49.5 106.4,-2 1.8,8.1 1.3,34.9 1.3,34.9 l -22.9,0 c 0,0 -0.2,-8.6 -0.5,-14.9 3,-50.4 -58.2,-39.9 -61.3,-6.1 -1.3,6.1 -1.4,21 -1.4,21 l 0,121.4 23.6,0 0,22.5 -66.9,0 z m -883.9,-105.4 99.4,-150.2 c 118.7,39.7 239.9,40.4 362.4,20.8 l 109.5,129.4 -44.8,0 -68.9,-98.4 c -25,5.8 -50.9,8.3 -76.8,11.8 l 32.2,86.6 -35.1,0 -25.3,-85.6 c -59.4,2.3 -99.9,-3 -141.2,-7.8 l -14.9,93.4 -35.7,0 24.1,-96.5 c -28.1,-5.3 -56.4,-9.8 -79.9,-17.3 l -73,113.8 -32,0 z m 113.9,-88.4 41.3,11.2 -20.2,77.2 -75.5,0 54.4,-88.4 z m 106.6,88.4 11.7,-68.2 c 27.7,5.5 63.9,6.6 102.1,6.2 l 17.9,62 -131.7,0 z m 195.4,-63.3 32.6,-8.6 48.8,71.9 -59.3,0 -22.1,-63.3 z m 257.8,51.3 c -34.4,-69.2 -81.4,-129.4 -132.5,-186.7 49.9,-52.5 92,-113.1 132.4,-182 40.1,69.6 86.3,134 137.3,184.7 -56.1,55.7 -99,116.4 -137.2,184 l 0,0 z m 277.4,-124.6 c -16.6,-27.1 -36.4,-54.2 -60.8,-81.3 22.2,-25 41.6,-51.8 59.1,-79.8 20.1,30.9 40.9,57.7 62.2,80.8 -22.6,25.1 -41.5,52.8 -60.5,80.3 z M -2151.5,173.4 c 158.9,-184.8 137.7,-378.7 50,-535.2 l 18.7,-19.2 c 101.5,166.8 123.1,403.9 -63.9,587.6 -2.1,-10.9 -4.8,-33.2 -4.8,-33.2 z M -1518,-33.8 c 22.8,38.8 36.8,78.2 60.9,117.2 l -57.2,77.3 -3.7,-194.5 z m -683.5,122.4 c -1.5,-121.9 0.4,-368.9 0.4,-368.9 l 53.6,-41 c 64.1,77.8 99.1,283 -16,419.6 -8.4,-6.1 -31.3,-3.6 -38,-9.7 z m 761,-24.6 c -147,-248 -72.2,-428.8 69.4,-589.3 0.4,12.4 1.3,24.7 2.5,37 -121.6,139.3 -170.3,345.3 -51,531.6 l -20.9,20.7 z m -266.2,-36 66.9,-91.2 c 0,0 12.7,-36.3 23.4,-47 l 12.3,-10.9 c 4.1,3.9 11.9,8.9 11.6,13.5 -0.3,4.3 -6.6,26.9 -6.6,26.9 l -78.3,114.5 c 0.1,0 -23.7,-4.2 -29.3,-5.8 z m 356.1,-442.8 c 2.1,-2.4 28.7,8.7 28.7,8.7 l 1.7,374.9 -53.2,34.2 c -15.4,7.8 -136.1,-238.2 22.8,-417.8 l 0,0 z m -560.5,157.9 c 24.2,-33 49.7,-61.6 73.2,-91.9 6.1,2.1 22,2.4 22,2.4 1.7,0.9 -5.4,25.1 -22.7,41.9 -17.5,17.8 -59,66.5 -60.2,91.1 -0.4,7.6 -17.4,16.3 -17.4,16.3 l -12.1,-12.7 c 3.7,-18.7 9.5,-33.1 17.2,-47.1 l 0,0 z m -151.1,-143.8 53.3,-69.2 5.3,183.8 -58.6,-114.6 z m -182.2,-407.5 c 50.8,-54 95.6,-116 138,-180.1 38.7,63.6 81.6,128.7 135.2,181.4 -48.9,53.6 -95.2,117.9 -135.6,181.6 -38.7,-62.1 -82.1,-126.3 -137.6,-182.9 l 0,0 z m -202.5,16.2 c 24.2,-23.4 44.2,-49.3 60.6,-77.5 18.8,28.5 36.5,57.8 61.6,81.1 -23.1,24.8 -30.6,32.7 -62.1,79 -17.9,-28.8 -36.4,-57.3 -60.1,-82.6 z m 559.2,-74.8 -105.6,-131.9 51.1,0 62.9,93.4 75.3,-8.6 -26.5,-84.8 31.2,0 22,83.4 c 46.2,1.1 91.3,4.7 135.1,9.1 l 22.5,-92.5 31.8,0 -28.8,96.8 85,22.3 75.8,-119.1 37.6,0 -107.3,153.7 c -140.4,-42.1 -253.1,-37.3 -362.1,-21.8 z m -564.4,-67.4 c -1.6,-11.7 -2,-23.2 0.1,-34.3 l 22.8,0 c 0,0 -0.1,8.4 0.2,15.6 0,45.2 54.1,39.4 62.1,10.9 2.8,-10.1 2.4,-26.1 2.4,-26.1 l 0.1,-120.2 -23.2,0 0,-23.3 68.6,0 0,23.3 -21.4,0 0,119.9 c 0,0 -0.2,0.5 -0.1,2.6 0.4,7.2 0.6,24.6 -3.2,32.7 -21.7,53.8 -101,41.6 -108.4,-1.1 l 0,0 z m 868.7,12.2 24,-76.8 71.9,0.1 -55.1,87.7 -40.8,-11 z m -174.1,-18.7 -15.2,-58 126.8,0 -16.4,64.9 c -33.4,-5.7 -64,-6.8 -95.2,-6.9 l 0,0 z m -152,-58 50.6,0 19.7,60.1 -29.2,3.3 -41.1,-63.4 z"
             id="path3020" /><path
             d="m -2009.8,-1007.2 122.2,146.2 c 25.5,-9.1 153.8,-23.8 230.8,-6.2 13.4,52.6 27.6,105.6 42.6,153.5 0,0 -4.8,5.6 -8.3,9.2 -49.2,56.7 -14.4,111.4 30.6,129.3 -8.1,16.9 -94.3,58.8 -146.9,53.8 0.1,-0.5 -16.1,-38.5 -49,-25.7 -11.2,4.4 -15.9,12.8 -24.6,21.1 -31.4,-9.5 -72.8,-30.1 -94.3,-52.8 40.3,20.1 80,30.9 119.8,25.5 0,0 -4.9,-4.1 -10.5,-6.7 -3.4,-1.5 -11.5,-6.4 -18,-10.8 -18.5,-12.5 -30.8,-27.5 -43.5,-53.3 -14.6,-26.1 -17,-54.1 -25,-78.9 -4.2,12.7 -6.1,46.2 -17.1,53.1 -2.9,1.9 -3.4,1.3 -5.5,-5.8 -8.4,-25.7 -39.3,-22.5 -49.5,-4.2 -5.2,15.8 -4.4,22.7 2.1,37.3 l -18.7,10.4 0,3.1 -11.5,5.5 -2.4,-1.6 c -53.6,25.9 -106.1,52.8 -160.8,77.6 0,0 -29,48.2 -55.6,67.4 l -1,-163.7 -78.7,-71.1 -0.4,38.9 c 0,0 3.8,4 5.7,5.9 1.1,274 0.2,543.5 0.3,792.2 l 0.4,229 -4.8,0.3 -0.2,26.7 5.4,1.2 -0.8,37.7 -2.8,0.2 -0.4,23.9 4.3,0.7 -0.1,134.8 -4.3,5.5 0.1,38.5 82.2,-78.1 1.8,-88.8 c 64.8,12.2 132.6,58.8 132.6,58.8 -11.4,-74.4 -90.3,-135.7 -135.6,-147.9 l 0.1,-176.3 c 0,0 -33.7,14 -50.3,16.2 -8.2,1.2 -11.4,-0.1 -15.3,-6 -2.9,-4.3 -2.9,-8.3 -0.3,-17.3 1.2,-4.2 1.2,-5.3 -0.3,-9.5 -2.1,-5.9 -2.1,-8.6 -0.1,-19 2.2,-6.1 1.2,-9.4 -1.1,-15.1 -2.4,-6.1 -2.6,-7.2 -1.6,-10.7 2.8,-9.2 2.9,-10.7 1.5,-14.8 -2.8,-8.1 -2.9,-13.9 -0.3,-19.1 12.1,-20.3 39.3,-15.3 54,-14.6 7.5,8.3 11.9,13 12.6,0.9 5.2,-14.4 25.5,0.3 35,6.5 80.6,-108.1 120.4,-254.4 19.3,-437.5 l -56.3,45 0.1,-56.4 c 74.6,-48 158.6,-157 194.9,-243 12.1,14.2 26,28.1 39.1,42.4 l -8.6,14.3 -2.5,-1.4 c -23.2,44.2 -86,127.7 -87,126.9 23.3,43.1 44,86.7 61.6,130.7 l 4.6,-2.1 4.1,13.3 -8.1,2.4 c 27.5,90.3 28.4,174 7.7,251.1 l 4.9,20.5 c 0,0 29.1,28.2 37,36.5 20.5,19.9 43.4,42.1 43.4,42.1 l 26.6,-26 -1.5,-2.2 233.1,-231.4 14.5,13.9 c -142.8,143.8 -390.8,392 -390.8,392 l -8.6,1.3 c -4.9,0.7 -12.1,1 -16.7,0.7 -7.6,-0.5 -8.5,-0.4 -14.6,2.5 -6.9,3.3 -12.5,8.1 -20.1,17.2 -3.5,4.1 -5.8,5.9 -9.7,7.3 -48.6,29 -4.7,87.3 36.7,56.6 30.3,57.9 56,125.3 70.1,192 0,0.5 -5.4,2.3 -5.4,2.3 l -108.9,161.5 41.9,0 4.4,-7.4 -31.4,0 100.2,-144.8 c 127.5,34.7 244.5,39.7 363.3,19 l 103.4,125.8 -41,0 5.8,7.4 53.1,0.8 -121.5,-143.4 c -43.5,11.6 -158.3,21 -230.2,8.8 -11,-53.5 -29.2,-111.6 -42.6,-157.8 68.7,-53.8 17.1,-124.8 -25.3,-134.7 -2.1,-3.9 86,-57.4 148.7,-53.7 18,43.1 57.3,36.7 71.4,4.7 26,9.5 59.8,19.1 86.6,40.4 -35.7,-7.8 -77.1,-12.1 -111.2,-12.6 64.8,25.1 83,78.1 91,128 1.4,8.3 5.8,19 5.8,19 5.5,-18 10,-36.7 20.9,-52.1 5,17.7 23.4,31.4 41.9,20.9 10.8,-7.8 14.5,-21.2 11.1,-39.7 -0.9,-5.1 -1.4,-8 -1.4,-8 l 14.4,-7.8 1.9,1.6 c 0,0 15.8,-6.7 23.6,-10.5 1.2,-0.6 -1.4,-3 -1.4,-3 l 145.6,-68.7 c -0.6,-0.3 36.7,-51.2 58.1,-70.8 0.6,60.9 0.5,86 0.5,158.4 l 8.2,8 c 7.3,7.1 23.2,21.9 59,54.8 8.1,7.4 13.7,11.1 13.7,11.1 l -1.1,-1065.9 -1.2,0 0,-20.5 1.7,-0.1 0,-53.3 -1.5,-0.9 0,-16.8 2,-1.5 0.1,-144 -2.3,-0.4 -0.1,-34.5 -81.2,85.8 0.6,80.9 c -36.2,-4.7 -81,-27.9 -111.9,-46.6 -10,-6.1 -15.5,-7.7 -15.2,-4.2 4.3,48.2 74.1,121.9 127.7,141.2 l 0.1,181.3 c 0,0.1 12.7,-6.3 20.4,-9.6 l 1.2,3.2 17.3,-7.2 1.4,-3.7 15,-1.9 c 0.2,3.1 0.7,2.6 0.7,2.6 13.4,3.7 19.3,12.8 13.9,23.1 -1.9,3.4 -2.2,8.3 -0.7,9.6 5.8,9.1 7.3,17.2 0.3,25.8 -2.7,4.4 -2.7,6.9 0.1,11.6 7.2,14.6 3.1,13.6 -2.3,22.3 -1.2,6.6 6,10.8 3.6,17 -1.1,4.1 -5.4,8.8 -8.3,11 -3.4,2.5 -6.2,-2.1 -6.2,-2.1 0,0 -10.8,4.6 -18.6,6.1 -7.6,2.5 -20.8,6.9 -25.4,-3.4 -2.6,-5.9 -0.5,-11.3 -0.7,-17.9 l -11.2,-1.2 -0.4,29.9 c -6.4,3.4 -31.9,-9.6 -31.9,-9.6 -109.5,141.9 -106.4,299.3 -25.2,431.2 0.8,2.1 57.2,-38.6 57.2,-38.6 0,0 -0.1,33.4 0.4,51.5 -71.7,59.3 -141,139.2 -190.6,237.6 l -30.7,-36.4 c 5.3,-4.7 5.5,-12.1 5.4,-17.7 l 22.3,-33.2 0.2,-8.6 57.9,-80.9 c 0.9,4.8 -59.8,-108.6 -67.9,-145.6 l 4,-1.1 c -27.2,-103 -21.6,-175.2 -2,-259.2 l -5.6,-5.4 -76.4,-76.3 c -6.2,5.7 -12.4,11.5 -18.6,17.3 -0.9,0.9 -5.6,0.4 -6.6,1.2 -40.2,37.7 -78.9,75.6 -117.2,114.9 -1,1 0.7,5.2 -0.3,6.2 -38.3,39.5 -78.1,77 -116.9,116.4 l -14.2,-13.5 c 137.4,-137.3 396.2,-392.5 396.2,-392.5 0,0 1.1,-2 2.9,-2.1 7.2,-0.3 13.6,-1.9 20.8,-4 8.5,-2 9.9,-2.6 13.5,-6.3 2.2,-2.3 5.8,-5.4 8,-7.1 3.7,-2.8 12.3,-10 25.7,-21.6 8.2,-7.1 13.2,-17.5 13.1,-26.8 -0.3,-16.5 -11.2,-30.6 -25.3,-32.6 -5.8,-0.8 -17.3,2.2 -23.1,6.1 -4.4,3 -6.5,4.4 -8.4,3 -28,-56.9 -55.3,-128.4 -66.9,-187.4 -0.6,-3.7 -0.3,-4.8 2.8,-9.5 1.9,-2.9 6,-9.3 9.2,-14.3 25.1,-36.2 54.1,-80.3 81.4,-120 4.5,-6.6 13.3,-19.3 13.3,-19.3 l 6.7,-10.9 -43.2,0 -5.3,8.5 35.6,0 -105.9,152.4 c -195.1,-63.8 -354.9,-23.3 -358.8,-22.5 L -1990,-999 l 48.2,0 -5.8,-8.5 -62.2,0.3 z m 95,0 5.4,8.5 50.6,0 -2.9,-8.5 -53.1,0 z m 84.3,8.5 31.2,0 -1.8,-8.5 -32,0 2.6,8.5 z m 55.9,-8.5 2,8.5 126.8,0 2.3,-8.5 -131.1,0 z m 155,8.5 31.8,0 2.4,-8.5 -32,0 -2.2,8.5 z m 62.9,-8.5 -2.7,8.5 72,0 5.4,-8.5 -74.7,0 z m 308.1,58.7 1.1,23.6 -51.9,54.7 0.1,76.4 -15.1,-3.5 -0.6,-79 66.4,-72.2 z m -14.6,50.4 c 0.4,23.4 -3.4,45.8 2.8,69.7 3,11.7 9.2,25.5 10,39.4 l -17.1,-0.4 c -2.2,-7 -3,-14.7 -5.6,-23.4 -6.3,-21.3 -11.5,-43.7 -6.8,-66.3 l 16.7,-19 z m -373.9,38.2 c 0.6,1.2 2.7,11.1 4.6,20.2 9,50.4 21,87.7 33.3,125.8 15.6,47.9 38.8,108.2 61.3,136.2 3,3.5 4.4,7.5 3.4,9.2 -1.8,2.9 -11,-1.2 -17.2,-7.7 -2.5,-2.7 -7.4,-10.1 -10.9,-16.8 -7.9,-14.7 -18.4,-36.1 -19.5,-39.5 -0.4,-1.4 -4.6,-12 -9.2,-23.5 -8.1,-20.2 -13,-34 -19.8,-56.5 -5.4,-17.8 -10.4,-36.5 -16.4,-55.3 -9.8,-30.7 -15.5,-55.1 -21,-83.4 -0.8,-4.1 -2.2,-9 -1.7,-10 3.2,-2.2 11.6,-1.3 13.1,1.3 l 0,0 z m 5.5,1.9 c -1,-0.8 8.9,-1 12.1,1.7 0.9,0.9 2.6,6.8 4.1,14.4 9,46.3 22.4,94.2 38.1,139.6 12.5,36.2 26.2,71.1 43.2,99.4 5.3,9.4 12.6,19.5 21.8,30.3 5.2,6.1 5.6,6.9 4.2,8.6 -1.7,2.1 -4.7,1.8 -10.4,-0.9 -5.4,-2.5 -11.2,-8.1 -16.6,-16 -1.9,-2.7 -4.7,-6.7 -6.3,-9 -25.1,-43.4 -40.4,-84.7 -54.2,-126.6 -14.2,-43 -26.9,-86.4 -35.6,-136.5 -0.2,-1.7 -0.3,-3.3 -0.4,-5 z m 31.6,6.5 c 2.2,2.2 3.5,6.5 5.4,15.5 10.5,43 19,81.3 31.4,116.6 6.6,19 12.4,37.9 19.5,55.8 11.4,28.5 25.3,54.5 42.4,76.2 5.6,7.1 15.9,15.9 24.5,21 6,3.5 6.9,4.4 6.5,6.5 -0.5,1.8 -6.3,2.6 -8.3,2.5 -9.4,-1.6 -23.3,-8.9 -27.3,-14.3 -28.8,-31.1 -49.4,-82 -64.4,-123.8 -25.8,-71.9 -46.6,-161.8 -42.6,-159 -0.3,-2.2 10.3,0.2 12.9,3 z m 12.3,2.6 c 0.9,0 2,0.2 3.2,0.5 5.4,1.5 6.1,2.2 7.4,8.2 9.2,41.1 19,77.3 29.8,111.8 11.1,35.1 22.5,68.1 40.2,102.8 13,25.3 29.5,42.8 47.2,51.7 5.1,2.5 9.6,5 10.1,5.4 0.5,0.5 0.3,1.8 -0.3,2.9 -0.9,1.8 -2,2.1 -6.3,2 -8,-0.1 -13.7,-2.6 -22.3,-8.4 -22.6,-15.6 -42.4,-51 -51.2,-71 -10.7,-24.5 -20.4,-49.9 -29.3,-77.6 -15.9,-49.7 -25.7,-82.6 -33,-124.6 0.1,-2.4 1.7,-3.7 4.5,-3.7 z m 339.2,67.1 -0.2,14.6 c -57,3.8 -115.4,-20.3 -162.4,-42 35.4,46.9 73.1,88.6 162.4,97.2 l 0.2,15 c -116.2,-1.6 -198.1,-119.4 -193.8,-148.7 47.8,30.9 134.2,66.6 193.8,63.9 l 0,0 z m -320.7,-61.6 c 2.8,0.1 6.6,1.3 8,2.8 9.5,35.5 16.4,74.8 32.1,114.3 19.3,48.6 30,91.4 65.8,131.4 11.1,11.4 32.9,11.1 32.9,11.1 0,0 -2.8,6.2 -6.5,7.2 -7.7,1.2 -13.2,1.5 -18.8,-0.3 -20.7,-8.8 -36.6,-30.9 -44.7,-45.9 -7.7,-11.2 -26.4,-57.6 -41.8,-104.8 -16.8,-51.4 -30.6,-104.9 -29,-115.6 0.6,-0.2 1,-0.3 2,-0.2 z m 19.1,6 c 1.4,0 3.2,0.5 5.4,1.6 2.3,1.1 3.3,1.8 4.6,6.2 0.8,2.9 0.7,7.3 2.1,14.5 8.1,37 19.2,67.1 30.3,96.4 10.5,27.8 21.8,55.1 35.7,79.8 7,12.4 14,24.1 18.4,28.5 12,12 32.3,12.6 38.3,0.7 3.3,-6.8 2.6,-17.5 -3.9,-23 -5.1,-4.9 -16.6,-2.8 -16.9,3.1 0,1.6 2.9,0.9 7,0.4 11.6,-1.3 15.3,19.2 0.3,22.7 -18.9,4.3 -32,-21.2 -15.3,-36.9 28.3,-19.2 49.9,7 43.2,32.3 -6.5,14.9 -17.3,22.5 -31.6,23 -18.5,0.6 -26.1,-5.1 -45,-32.6 -21.7,-34.8 -31.1,-68.8 -46.4,-106.9 -14.5,-36 -24.1,-74.4 -28.6,-108 0.1,-1.3 1,-1.9 2.4,-1.8 z m 18,5.9 c 1.7,0.1 5.2,0.9 6.7,1.9 0.9,0.6 2.3,1.9 2.3,1.9 25.4,92.9 46.7,148.5 68.3,187.8 0,0 -0.4,7.2 -1.8,9.3 -2.6,3.7 -3.8,2.8 -7.2,-3 -13.6,-26.3 -26.5,-55.4 -38.6,-85.3 -14.2,-35.2 -26.8,-71.7 -32.1,-106.4 0.2,-4.7 -0.8,-5.9 2.4,-6.2 z m 171.6,53.1 c 3.6,0 6.5,2.9 6.5,6.5 0,3.6 -2.9,6.5 -6.5,6.5 -3.6,0 -6.5,-2.9 -6.5,-6.5 0,-3.6 2.9,-6.5 6.5,-6.5 z m -528.8,-1.2 c -7.5,10.3 -13.7,47.1 -21.6,47.5 -8.6,-0.1 -19.1,-5.1 -25.9,2.7 -8.2,9.5 -3.2,20 7,25.8 4.7,2.3 14.6,2.9 20.6,1.1 24.7,-8.3 34.1,-48.3 19.9,-77.1 z m 553.5,9.7 c 5.2,0 9.4,4.2 9.4,9.4 0,5.2 -4.2,9.4 -9.4,9.4 -5.2,0 -9.4,-4.2 -9.4,-9.4 0,-5.2 4.2,-9.4 9.4,-9.4 z m -553,4.4 c 8.4,21.2 -0.9,46.6 -11.2,55.2 -9.5,7.9 -24.3,8.9 -32.8,1.2 -7.1,-6.6 -3.9,-22.6 9.3,-21.4 4.4,0.1 9.7,4.2 12.7,8.4 8.5,0.9 18.4,-42.6 22,-43.4 z m 585.8,5.2 c 5.9,0 10.6,4.8 10.6,10.6 0,5.8 -4.8,10.6 -10.6,10.6 -5.8,0 -10.6,-4.8 -10.6,-10.6 0,-5.8 4.8,-10.6 10.6,-10.6 z m 37.7,7.5 c 6,0 10.8,4.9 10.8,10.8 0,6 -4.9,10.8 -10.8,10.8 -6,0 -10.8,-4.9 -10.8,-10.8 -0.1,-5.9 4.8,-10.8 10.8,-10.8 z m -350.2,49.3 c 1.6,0 2.8,1.5 3.8,4.7 2.2,6.5 2.2,7.2 -1.3,11.6 -33.4,46.2 -2.9,93.4 45.4,98.5 4.1,0.3 6.1,4.9 8.3,10.2 -0.3,2.5 -0.3,2.5 -11.3,2.7 -7.2,0.1 -12.9,-0.3 -16.5,-1.3 -16.9,-4.6 -37.7,-19.9 -46.2,-34 -9.8,-16.3 -11.4,-33.2 -5.4,-55.8 3.9,-14.5 8.8,-24 16.4,-31.9 3.1,-3.1 5.2,-4.7 6.8,-4.7 z m 316.2,5.1 0.6,158.4 -16.9,6.2 0.7,-168.5 15.6,3.9 z m 31.9,6.2 c 21,52.2 22,100 3,143.5 l -19.2,2.8 c 26.3,-61.3 15.1,-105.2 0.3,-147.6 l 15.9,1.3 z m -1008.2,8.7 68.3,64.4 2.4,717.5 -10.9,-3.8 -4.3,-705.8 -55.4,-50.8 0,-21.5 z m 666.5,2 c 0.1,0 0.2,0 0.3,0 1.8,0.2 3.5,2.5 5,6.9 1.8,5.1 1.8,5.3 -0.3,10.4 -9.4,23 -1.7,44.8 21.4,51.7 5.5,1.7 6.4,2.6 9.6,9.4 2.1,4.4 3,6 2.2,7 -1.2,0.9 -4.1,1.3 -12.8,-0.6 -34.4,-11.7 -46.9,-49.4 -31.3,-79.3 2,-3.4 3.7,-5.3 5.4,-5.5 0.2,0 0.4,0 0.5,0 z m -274,-2.8 c 0,0 7.2,25.4 6.5,31.2 -1.8,11.1 -17.6,28.9 -31.5,35.4 -12.8,4.9 -32.2,2.4 -40.3,-6.1 -29.5,-34.5 25.5,-69.1 39.3,-33.2 8.3,23.5 -25.5,29.1 -27,11 0,-4.7 1.5,-6.1 5.8,-9.2 3.9,-2.7 3.4,-5.1 0.1,-5.1 -12.8,4.6 -13,16.4 -7.3,23.8 11.5,12 25.7,5 35.5,-3.8 13.3,-11.8 15.9,-28.9 18.9,-44 l 0,0 z m 284.9,26.2 c 0.7,0 14.2,32.3 15.9,36.9 -0.4,3.2 -4,3 -10,-1.2 -6.1,-4.3 -7.9,-7.3 -10.5,-17.2 -0.7,-3.6 -2,-16.4 4.6,-18.5 l 0,0 z m -274,13.6 c 3,0 6.1,10.9 4.7,16.5 -2.4,9.7 -27.8,26 -45.6,29.4 -3.6,0.7 -7.4,1.4 -8.5,1.6 -3.7,0.7 -8,-1.4 -12.5,-6 -3.2,-3.2 -4.7,-6.4 -3.9,-7.2 0.6,-0.6 8.8,0.8 15.7,0.7 19.4,0.2 34.4,-13.7 45.9,-30.3 1.8,-2.6 3.7,-4.7 4.2,-4.7 z m -385.7,8.1 c 0,0 13.1,11.9 20.1,18.7 -0.7,31.6 -12.4,65.9 -12.4,94.2 0.3,24.6 16.2,45.1 17.8,66.5 1,13.8 -3.1,34.4 -9.9,50 -6.4,14.5 -9.7,30 -9.7,45 0.8,35 25.9,73.2 17.1,107.8 -8.3,32.5 -17.7,51.2 -15.2,68.5 4.8,33.3 22.5,62.8 17.8,90.5 -4.4,25.8 -16,51.5 -14.8,74.8 1.4,26.8 11.5,49.3 14.3,73.8 1.8,15.9 -2.7,40.8 -2.7,40.8 l -18.4,1.5 c 10.1,-37.7 -5,-71.8 -10.7,-108.1 -4.9,-30.9 8.9,-55.4 13,-81.8 2.6,-16.3 -0.3,-31.9 -8.4,-52.8 -16,-38.5 -10.3,-63.5 1.3,-97 14.3,-35.7 -5.4,-63.9 -10.3,-98.1 -2.5,-29.4 -0.6,-50.3 10.5,-76.4 8.2,-25.2 10.6,-39.8 -1.7,-64 -7.8,-15.3 -9.8,-24.3 -9.8,-44.4 3.9,-40 14.7,-62.4 12.1,-109.5 l 0,0 z m 394.5,15.9 c 2.9,0 4.3,2 4.3,6.1 0,7.5 -11.1,16.9 -30.8,26.1 -10.2,4.8 -16.1,5.5 -22.1,2.7 -5.6,-2.6 -5.3,-4.9 0.8,-6.7 15.4,-4.5 26.3,-10.6 38.7,-21.8 4,-3.5 8.1,-6.4 9.1,-6.4 l 0,0 z m -88.9,5.1 c 50.7,54.2 100.4,82.1 138.3,95.2 l -6,14.2 c -49.9,-19.3 -100.8,-46.2 -144,-104 l 11.7,-5.4 z m 97.7,8.9 c 1.4,0 6.5,6.5 6.5,8.3 0,1 -1.9,4.3 -4.2,7.3 -3.4,4.3 -6.3,6.5 -14.7,11.1 -11.3,6.2 -18.2,7.7 -23.1,5.1 -4.9,-2.6 -3.2,-4.8 9,-11.9 6.3,-3.7 14.7,-9.7 18.7,-13.3 3.9,-3.7 7.4,-6.6 7.8,-6.6 l 0,0 z m -134.2,8 c 41.5,56.8 95,94.5 157.8,114.7 l -9.9,13.4 c -57.4,-19.8 -113.6,-55.6 -164.9,-118.6 l 17,-9.5 z m 144.9,7 c 2.1,0 6.8,5.3 6.8,7.7 0,1.1 -0.9,3.2 -2,4.6 -2.2,2.8 -13.8,11.5 -18.8,14.1 -3.9,2 -6.8,2 -11,-0.1 -5,-2.5 -4.1,-4.6 4,-9.8 4,-2.6 10,-7.3 13.4,-10.6 3.5,-3.3 6.9,-5.9 7.6,-5.9 z m -167,4.1 c -1.2,1.5 -61.1,138.8 -188.1,236.1 l -0.6,-22.8 c 70.3,-55.8 121.5,-132.2 160,-198.8 l 28.7,-14.5 z m 179.1,9.9 c 1.9,-0.1 3.3,1.3 4.6,3.8 1.6,3.1 -0.1,5.8 -7.3,11.2 -4.4,3.4 -6.1,4 -9.8,3.9 -9.4,-0.2 -9.2,-2.4 1.2,-11.7 5.4,-4.8 8.8,-7.1 11.3,-7.2 z m 245.2,6.8 26.5,2 c 7.1,5 -103.5,77.3 -180.1,70.8 l 2,-17.3 c 67.3,1.9 153.4,-52.4 151.6,-55.5 z m -227,6.7 c 6.1,3.4 13.7,7.4 11.8,8.8 -2.8,1.8 -20.8,0.6 -24.9,-1.6 -3.1,-1.7 -2.9,-2.5 1.3,-7.3 5.2,-5.9 6.1,-3 11.8,0.1 l 0,0 z m -236,-4.3 c -41.9,74 -91.9,141.5 -149.7,185.5 l -0.8,-39.1 c 55,-42.4 96.7,-119.8 96.8,-120 l 53.7,-26.4 z m 525.4,4.8 12.8,7.5 c -80,74 -166.4,105.9 -249.4,97.9 l 6.7,-15 c 134.7,10.6 224.1,-89 229.9,-90.4 l 0,0 z m 19.4,2.6 c 0,0 4.3,-0.5 3.8,0.3 -26.6,26 -63,53.8 -86.9,69.3 -113.1,116.1 -209.9,207.8 -308.4,311.2 l -15.7,-16.5 14.3,-15.1 c 0,-29.8 36.5,-63.2 58.2,-89 9,-10.2 26,-36.3 24.1,-47.3 -0.7,-2.5 -0.8,-3.5 -0.8,-3.5 34.2,-6.8 42.4,-34.6 43.2,-59.1 1.6,-16.4 3.8,-31.3 9.3,-44.8 154.8,12.5 254.6,-101.5 258.9,-105.5 l 0,0 z m -269.9,17.1 c 17.6,-0.1 30.9,13.8 30.8,33.6 -0.1,8.2 -3,14.5 -14.2,36.3 -10.8,18.6 -12.2,30 -16.5,51.5 l -11,-9.9 -20,18 0.3,-26.3 c 0,0 6.9,-8.8 18.1,-21.3 14.2,-15.7 27,-36 26.4,-47.3 -0.4,-11.4 -12.4,-20.6 -24.7,-13.2 -10.7,7.5 -15.6,21 -21.9,61.3 -1.1,7.1 -2.2,15.6 -2.7,17.4 -1.6,5 -17,19.6 -17,19.6 -1.3,0 -7.4,-29.6 -7.4,-29.6 l -15.6,2.6 c 18.1,-19.6 32.1,-43.3 41.2,-68.1 8.2,-15.3 18.9,-24.4 34.2,-24.6 z m -339.5,6.3 c 0,0 -31.1,64.5 -85.6,106.5 l -0.4,-25.3 c 31.7,-24.6 55.8,-66.9 55.8,-66.8 l 30.2,-14.4 z m 747.6,1.6 c -107.8,111.6 -248.5,317.2 -73.9,606 l 23.1,-26.6 c -140.6,-261.2 -41,-396.5 51.6,-532.4 l -0.8,-47 z m -583,9.2 c 31.6,22.4 64.5,44.7 107.1,58.9 -2.3,7.6 -60.8,56.9 -18.8,102.4 1.8,2.4 -2.7,8.2 -9.6,16.4 -20.1,27.4 -40.1,47 -56.9,77.9 l -0.7,58 -16.8,-14.8 -4.3,-298.8 z m 578.8,5.4 0.7,33.1 c -160.2,194.7 -142.1,370 -51.6,531.4 l -17.3,17.6 c -148.4,-255.4 -55.8,-448 68.2,-582.1 l 0,0 z m -395.2,19.6 c -7.1,18.7 -38,50.6 -38,50.6 0,0 4.1,-31.1 6.7,-40.9 2,-7.5 6.4,-17.6 10.8,-22.5 12.5,-13.8 24.9,1.8 20.5,12.8 z m -212.5,-17.5 3,260.8 -22.5,-22.7 -3.3,-199.5 22.8,-38.6 z m -30.4,51 4.5,177.1 c -22.5,-53.1 -54.1,-111.1 -54.7,-110.6 0,0 25.8,-34.3 50.2,-66.5 l 0,0 z m 177.8,55.4 c 0,0 3.4,-2.9 8.8,-9.1 11.7,-11.8 12.7,-11.9 11.7,4 -0.4,6.1 -0.1,14 -0.1,14 6.8,-4 23,-23 27.5,-19.6 3.5,3.3 6.4,10.2 6.4,20.9 -0.4,21 -12.3,40.2 -31.1,46.5 -51.9,16.1 -86.7,-43.8 -50.7,-81.7 3.6,-3.8 13.8,-10.8 18.7,-9.4 6.2,11.2 6,23.5 8.8,34.4 z m 515,-18.8 c 3,8.3 6.9,16.4 17.4,20.1 -1.6,253.6 -0.4,702.6 -0.4,702.6 l 51,47.9 -0.3,20.9 -67.6,-61.9 c 0,0 -3.6,-529.5 -0.1,-729.6 l 0,0 z m 50.7,11.7 c 1.8,24.5 -2.3,50.4 1.9,75.6 4.2,17.4 10.5,33.1 11,50.3 0.5,15.7 -0.5,24.6 -7.3,46.5 -4.7,15.3 -5.1,17.7 -6.2,33 -2.5,21.3 4.4,40.6 9.6,57.5 7,22.5 5.1,49.7 -6.2,85.5 -4,12.9 -4.8,18.3 -4.2,30 1.5,24.5 10.3,47.9 14.8,72 2.4,13.8 -0.1,31.9 -8.6,62.5 -3.2,11.4 -6.5,31.2 -6.5,38.8 0,8 2.6,23.2 5.1,29.8 11.8,31 12.4,36.5 13,55.2 0.1,14 -4,28.1 -8.9,40.4 -8.3,19.7 -2.8,39.9 0,62 l -20.3,-17.4 c -6,-18.9 -3.9,-36.6 1.7,-50.7 7.9,-22.1 9.9,-24.1 9.8,-36.9 -0.1,-16.9 -9.8,-36.8 -13.8,-48.6 -7.1,-21 -7.1,-41.7 -0.1,-63.9 3.5,-10.9 8.5,-32.4 9.6,-41.1 2.2,-16.7 0.5,-29.9 -7.9,-63.5 -4.1,-16.4 -5,-22.7 -5.3,-39 -0.3,-15.1 1.9,-30.8 6.8,-49 7,-28.9 6.9,-46.3 -2.2,-73.1 -7.3,-22.2 -9.4,-37.2 -7.5,-54.9 1.1,-10.2 3.9,-19.9 8.6,-29.4 8.7,-21.7 10,-42.6 3.6,-63.3 -11.1,-42.5 -11,-64.1 -9.9,-102.4 l 19.4,-5.9 z m -57.2,14 c -1.8,173.8 0,372.8 0,372.8 0,0 -51.5,36 -51.3,34.2 -66.3,-109.4 -91.6,-270.5 24.3,-415.9 0,-0.1 18.7,7.9 27,8.9 l 0,0 z m -783,41.4 c 93.9,175.3 106.1,352.4 -49.1,534.1 5,16.1 4.2,31 1.7,45.7 30.3,-23.6 273,-266 68.6,-603.5 l -21.2,23.7 z m 478.5,-14.3 46.1,2.7 3.1,39.7 -14.9,14.8 c 0,0 -0.3,-8.2 -0.5,-15.5 -0.2,-9 -1.5,-16.8 -2.3,-16.5 -0.8,0.3 -1.6,10.7 -2.3,22.1 l -0.7,17 -5.2,5.2 c -6.9,6.9 -8.3,6.3 -8.5,-3.3 -0.6,-21 -0.5,-22.5 -2.1,-20.9 -0.9,0.9 -1.4,8.1 -1.6,18.9 -0.2,8.6 -0.8,16.9 -1.3,18.4 -1.2,3 -9.9,10.8 -12.2,10.8 -2.1,0 -2,-3 -2,-16.1 0,-11 -1.2,-17.1 -2.9,-13 -0.4,1 -1.2,11.9 -1.3,20.8 -0.2,8.9 -0.7,17.1 -1.3,18.1 -1.9,3.6 -11,11.2 -12.6,10.6 -2.3,-0.9 -2.9,-7.4 -2.8,-18.4 0,-5.4 0.9,-9.9 -1.2,-11.3 -2.1,-1.5 -2.4,4.7 -1.9,20.5 l -0.2,17.1 -5.8,6.3 c -9.2,9.4 -9.8,9 -9.8,-7.3 0.4,-12.9 -0.1,-18.6 -2.6,-17.5 -2.5,1 -1.5,7.3 -1,20 0.4,11.4 0.3,17.1 -0.5,18.5 -0.6,1.2 -3.6,4.5 -6.6,7.4 -3,2.9 -6.7,7 -7.2,7 -0.7,-13.7 -1.9,-43.2 -1.9,-43.2 l -48.1,-2.1 c 0,0 9.8,-11.7 14,-13.9 2.2,-1.2 5.6,-1.3 17.6,-0.8 8.2,0.4 19.3,-0.3 20.3,-0.7 3.6,-1.4 -3.9,-2.6 -14.5,-3.3 -7.1,-0.5 -8.9,-0.3 -16.8,-1.5 l 7,-7.2 5.3,-5.2 15.3,0.5 c 9.3,0.3 16.2,0.3 17.3,-0.3 9.1,-1.8 0.6,-3.9 -9.8,-3.9 -10.1,0 -15.8,0 -15.8,-2.3 0,-2.3 11.3,-12.5 14.5,-13.2 1.7,-0.3 9.9,-0.7 18.3,-0.8 14.4,-0.1 19.7,-0.3 18.8,-2.7 -0.8,-2.4 -10.4,-1.7 -16.7,-2 -17.7,0 -18.5,-0.7 -6.4,-11.3 l 5.8,-5.1 11.1,0.3 c 16.7,0.5 24.8,-0.2 24.8,-1.8 0,-1.4 -10.9,-2.8 -20.1,-2.8 -5.5,0 -10,0.1 -10,0.1 4.1,-5.4 8.5,-9.7 13.4,-14.5 l 14.9,-0.3 c 10.9,0.2 17.6,0.6 17.8,-1.4 0.2,-2 -3.9,-2 -8.9,-2 -6.8,0 -14.8,-0.6 -15.9,-1.7 -1.1,-1.1 1,-4.3 5.7,-8.6 l 5.1,-4.4 0,0 z m -456.6,0.5 c 129,210.7 82.4,438.4 -61.4,580.2 l -4.2,-27.7 c 135.8,-165.1 159.5,-335.6 49.6,-536.2 l 16,-16.3 z m 239.9,28.3 c -23.2,34.8 -58.6,69.2 -71.9,97.6 -2.7,3.2 -3.6,10.4 -7.9,11.9 -2.1,0 -2.8,-4 -2.3,-13.3 0.4,-7 1.1,-9.4 4.4,-16.2 18.3,-33.4 39.5,-57.3 62.8,-89 l 14.9,9 z m 5.4,3.4 21.4,1.4 c -4.8,15.1 -11.2,25.9 -18.8,35.8 -9.7,12.6 -21.4,25.3 -35,40.8 -19.7,22.5 -29.6,45.3 -28.7,55.4 -4.9,5.2 -8.4,8.8 -14.6,14.1 l -12.5,-11.5 c 9.4,-47.6 54.2,-91.2 88.2,-136 l 0,0 z m 262,19.3 6.9,0.4 c 23.7,1.4 38.6,2.8 39.4,3.9 0.5,0.6 1.2,4.3 1.6,8.1 0.5,5.8 0,9.6 -3,23.4 -2,9.1 -4.3,17.1 -5,17.9 -2.7,2.8 -3.8,0 -5.1,-12.9 -0.8,-7.8 -1.1,-13.4 -2.1,-12.8 -0.5,0.3 -1.6,8.7 -1.3,14.9 0.8,16.2 0.7,20.2 -4.3,25.1 -8.8,8.6 -9.3,7.7 -10,-7.5 -0.3,-6.3 -1.8,-15.5 -2.2,-15.9 -1.9,-1.9 -2.5,6.8 -2.6,21.6 l 0,15.8 -4.2,4.6 c -5.5,5.9 -7.2,6.8 -9.3,4.8 -1.2,-1.2 -0.8,-3.9 -0.8,-12.9 0,-10.5 -1.8,-16.6 -3.8,-14.6 -0.4,0.4 -0.5,10.6 -0.5,19.5 0,8.9 -0.1,16.7 -0.3,17.5 -0.3,2.1 -10.3,12.2 -12.1,12.2 -2.1,0 -3.8,-11.6 -3.8,-21.1 0,-6.3 -1.4,-7.5 -2.7,-4 -0.3,0.9 -0.6,9.8 -0.6,17.8 l 0,14.5 -5.9,6.1 c -7.9,8.1 -9.1,7.7 -9.2,-3.5 0,-9.6 -0.7,-14.7 -2.6,-14.7 -1.1,0 -1.4,4.5 -1.4,15.3 0,7.4 -0.5,14.7 -1.1,16.3 -0.6,1.5 -3.2,4.9 -5.7,7.6 -2.6,2.6 -5.2,4.8 -5.8,4.8 -1.1,0 -2.6,-9.1 -2.2,-13 0.1,-0.8 0.1,-6.5 0,-12.7 -0.2,-14.7 0.8,-14.1 -22.7,-14.8 -27.6,-0.9 -28,-1 -19.7,-9.1 7.9,-7.6 6.8,-7.3 25.1,-6.1 14.7,1 16.5,0.9 17.9,-0.6 0.9,-0.9 1.4,-1.9 1.1,-2.2 -0.3,-0.3 -5.9,-0.8 -12.4,-1.2 -18.2,-1 -19.7,-2.3 -12.1,-10 l 4.3,-4.4 18.6,0 c 12.5,0 21.1,-0.6 21.5,-1.3 1.2,-1.9 -3.8,-2.4 -15.7,-3.1 -6.4,-0.4 -12.4,-0.9 -13.4,-1.2 -3,-0.9 -1.9,-4 3.2,-8.8 l 4.9,-4.6 16.4,0 c 15.2,0 22.7,-1 22.7,-3 0,-1.4 -3,-2 -10.8,-2.1 -11.1,-0.1 -18.4,-1.2 -18.9,-2.7 2.7,-5.2 6.4,-8.1 10.8,-12.5 l 16.7,0.6 c 16.8,0.6 22.1,0 22.1,-2.9 0,-1.5 -7.2,-2.6 -16.5,-2.1 -6,0.4 -13.3,-1.1 -13.3,-3.2 0,-0.9 2.4,-4.1 5.4,-7 l 5.4,-5.3 16.3,0.7 c 9.1,0.4 18.8,0.3 19.6,-0.2 2.7,-1.9 -3.6,-3.3 -13.8,-3.9 -15.8,-0.9 -16.9,-2.2 -8.5,-10.1 l 5.5,-5.4 z m -569.9,8.7 c 84.7,151.6 72,294.5 -18.2,416 -10.4,-6 -21.4,-9.3 -33.2,-10.6 l -2.3,-366.1 53.7,-39.3 z m 605.6,59.3 c 1.7,-0.3 1.7,2.5 1.2,8.4 -0.4,4.7 -1.1,9.7 -1.6,11 -1,2.6 -1.7,2.7 -10,1.5 -9.4,-1.3 -9.2,-3 1.1,-13.2 5,-4.9 7.8,-7.5 9.3,-7.7 z m -454.6,6.8 c 0,0 11.2,-0.1 16.7,0.1 0,0 0.9,28.4 3.1,44.7 l 36.3,1.7 -14.1,14.7 -27.5,-0.9 c 0,0.1 -8.3,-40.2 -14.5,-60.3 l 0,0 z m 432.5,17.1 c 5.1,-0.1 18.5,2.2 20.1,3.8 1.2,1.2 1.3,4.3 0.2,22.6 -0.4,6.6 -0.8,20.8 -0.9,31.5 -0.2,19.4 -0.2,19.5 -2.4,19.8 -3,0.4 -3.3,-0.6 -4.1,-13.4 -0.4,-7.2 -1.4,-13.5 -2.3,-13.8 -1,-0.3 -0.9,6 -0.9,19.2 l 0,17 c -2.9,2.4 -5.6,5.6 -8.9,7.3 -2,0 -3.1,-3.2 -4.1,-12.1 -1,-8.8 -2,-15 -3.2,-13.1 -0.3,0.5 -0.2,10.1 0.4,17.9 l 1,14.3 -6.4,6.4 c -6.5,6.6 -7.4,7.1 -8.4,5.4 -2.4,-6.5 1,-36.5 -4.9,-40.3 -0.9,-0.5 -8.8,-0.7 -17.8,-1.1 -15.3,-0.6 -24,-0.9 -26.2,-2.8 -1.3,-1.1 5.9,-9.5 9.7,-11.2 2.7,-1.2 5.7,-1.3 18.3,-0.4 14.6,1 22,0.9 20.1,-1 -0.5,-0.5 -8,-1.6 -13.8,-2.2 -11.8,-1.2 -15.9,-2.4 -15.9,-4.5 2.7,-4.9 6.1,-7.7 10.1,-11.9 l 5.7,0.6 c 3.1,0.3 10.5,1.1 16.4,1.8 5.9,0.7 17.8,0.8 13,0.4 1.6,-1.6 -4.5,-3.2 -13,-4.2 -16,-2 -17.4,-3.8 -9.4,-11.7 l 4.9,-4.8 c 8.4,0.6 16.8,0.8 25.2,2.1 6.1,1 9.4,0.6 9.4,-1.4 0,-1.4 -3,-1.4 -10.4,-2.8 -2.7,-0.5 -16.4,-0.3 -16.6,-4.4 3.4,-4.4 9.2,-12.6 15.1,-13 l 0,0 z m -371.9,34.5 c 2.4,-0.1 2.6,5.8 2.8,21.5 0.3,17.2 0.6,20.1 2,21.6 1.4,1.4 4.9,1.9 20,2.7 23.1,1.2 23.7,1.5 15.5,9.3 -5.7,5.5 -5.9,4.8 -10.6,4.2 -12.2,-1.4 -30,-1.1 -30.7,0 -1.2,1.9 0.1,2.3 11.3,3.2 13.6,1 17.3,1.5 17.3,3.8 0,1 -2.3,4 -5.1,6.6 l -5.1,4.8 -14.3,-0.6 c -15,-0.6 -22.8,-0.8 -22.8,1.2 0,1.2 8.6,2.6 22.2,3.9 3.5,0.3 7.1,0.4 7.3,1 0.5,1.5 -6.4,10 -10.6,13.2 -3.5,2.6 -4.6,1.1 -19.7,0.8 -15.4,-0.3 -16.7,0.3 -13.8,3.1 0.7,0.7 3.2,0.8 9,1.2 9.4,0.7 13.9,2.1 13.9,4.4 0,2.2 -8.5,11 -12.5,12.9 -3.5,1.7 -5,1.7 -12.8,0.7 -6.1,-0.9 -7.3,-2.1 -7.1,-7.9 0.1,-2.6 0.5,-19.4 1,-37.3 0.9,-34.6 1.2,-36.4 5.8,-35.7 2,0.3 2.4,2.6 2.9,14.4 0.6,12.5 1.1,15 3.2,15 0.8,0 0.9,-5 0.4,-17 -0.8,-18.7 -0.8,-21.5 4.9,-26.9 2.5,-2.4 4.6,-4.3 5.8,-2.6 2.4,7.4 1.7,15.4 2.4,22.8 -0.1,7.4 2.8,9 3.5,1.9 -0.3,-11.2 -0.4,-21.3 -0.5,-33.3 l 6.9,-6.9 c 3.7,-3.7 6,-6 7.5,-6 z m -45,14 c 2.8,-0.5 18.2,-0.2 20.4,0.3 -3.9,6.1 -12.2,14.1 -17.8,17.7 -1.4,0 -2.9,-15 -2.6,-18 l 0,0 z m 437.4,33.9 3.3,23.1 -25.2,-1.7 21.9,-21.4 z m -339.8,3.8 c 0.2,0 0.3,0 0.4,0.1 1.8,0.7 2.3,5.2 3.1,26.6 0.3,10.1 1,18 1.7,18.8 0.7,0.9 3.9,1.3 9.7,1.3 4.7,0 13.7,0.3 19.9,0.7 13.5,0.8 13.8,1.3 5.8,9.3 l -5.4,5.4 -16.9,-0.7 c -17.3,-0.7 -20.2,-0.4 -20.2,2 0,1.6 3,2.4 8.5,2.3 2.2,-0.1 7.7,0.2 12.3,0.7 10.1,0.9 10.3,1.7 2.8,9.8 l -5.4,5.8 -5.3,-0.7 c -8.5,-1.2 -30.8,-0.9 -32.1,0.4 -2.1,2.1 0.6,3 10.8,3.6 15.8,1 18.5,1.4 18.5,3.2 0,0.9 -2.2,3.8 -4.9,6.5 l -4.9,4.9 -20,-1 c -14,-0.2 -18.8,0 -19.1,0.9 -0.5,1.6 1.8,2.1 16.2,3.6 13.9,1.4 15.9,2.9 10.6,9.4 -5.8,7.2 -8,8 -18.9,7 -12,-1.2 -24.3,-1.2 -26.1,-0.1 -2.8,1.8 0.1,2.9 8.6,3.6 12.9,1 20.5,2.4 20.5,4.3 0,2.1 -4.3,7.6 -8.4,10.8 l -3.4,2.6 -14.8,-1.6 c -14.7,-1.6 -22.3,-0.8 -20.2,1.3 0.6,0.6 6.1,1.5 12.2,1.9 11.1,0.8 16.6,2.2 16.6,4.5 0,0.7 -2.8,4 -6.3,7.5 -3.5,3.5 -7.4,5.8 -7.4,5.8 l -45.5,-4.1 c 0,0 -2.3,-8.1 2.2,-30.2 4.1,-19.9 5.8,-24.4 7.8,-20.7 0.5,1 1.1,5.9 1.4,9.2 0.9,8 2.9,13 4.1,13 1.3,0 1.3,-4.7 -0.4,-15.9 -2.4,-15.6 -2.7,-16.2 3.3,-22.4 5.1,-5.4 7.9,-6.6 9.5,-4.2 0.4,0.7 1.1,7.7 1.7,13.7 1.1,10.4 1.7,12.8 3,11.4 0.9,-0.9 1.5,-3.9 0.6,-19.3 l -1.2,-15 6.7,-6.8 c 6.1,-6.2 6.8,-6.6 8,-5 0.8,1.1 1.8,7.5 2.2,15.2 0.7,11.4 1.6,15.1 3.2,13.4 0.8,-0.8 0.4,-26.6 -0.4,-32.5 -0.5,-3.9 -0.3,-4.5 4.7,-10 5.9,-6.6 9,-9.3 10.6,-9.3 2.1,0 3.3,6.4 3.3,15 0,9.2 0.7,12.8 1.6,14 2.2,3 2.5,-7.4 1.9,-17.7 l -0.6,-18.7 6.1,-6.1 c 5.7,-5.7 6.2,-6 7.8,-4.4 1.3,1.3 1.2,4.5 1.8,13.9 0.8,13 3.4,19.4 4.1,10.3 0.4,-2 0.3,-6 -0.1,-8.9 -0.5,-2.8 -0.8,-9.3 -0.8,-14.3 0,-7.6 0.4,-9.7 2.3,-12.7 2.2,-4.4 10.1,-11.2 12.6,-11.4 l 0,0 z m 262.9,14.2 c 0,0 10.2,8.7 10.2,11.2 0,1.1 -4,5.9 -9.5,11.2 -10,9.9 -11,11.5 -12.2,22.1 -0.4,3.9 -2.4,9.2 -7.1,18.5 -3.6,7.1 -8.7,15.5 -8.7,15.5 -16,19.2 -31.2,36.7 -59.3,77.1 -1.6,3.7 -1.7,7.4 -3.3,10.5 -1.3,2.3 -4.1,4.2 -5.4,4.7 -1.9,0.8 -5.6,3.1 -8.3,5.1 -10.5,8 -17.3,18.6 -20.3,31.7 -1.7,7.1 -2.6,13.5 -5.5,35.3 -1.2,9 -5.1,24.7 -5.1,24.7 -60.4,-0.9 -116.9,9.6 -167.3,38 l 301.8,-305.6 z m 80.6,9.3 13.4,61 -13.8,-0.3 -1.4,-44.3 -43.2,-4.1 15.4,-14.9 29.6,2.6 z m -65.5,5.6 c 3.7,3.8 8.3,7.9 11.7,12 -11.5,38.6 -48.1,88.7 -84.4,138.4 l -26.6,-2.9 c -0.5,-1.1 36.9,-53.2 54.8,-72.9 6.8,-8.2 11.4,-16.1 17.5,-28.2 2.2,-4.4 6,-15.8 9,-27.6 6.1,-7.7 18,-18.7 18,-18.8 l 0,0 z m 14.4,13.5 20.1,20.4 4.9,289 c -31,-24.4 -67.6,-42.4 -106.6,-56.1 l 6.8,-15.5 7.5,-8.1 c 26.5,-28.7 20.6,-59.6 0.4,-81.5 24.6,-35.9 46.9,-62.6 65.6,-97.6 l -0.3,-24 c -0.2,-22.1 1.6,-26.6 1.6,-26.6 l 0,0 z m -240.8,12.1 c 2.1,-0.2 2.4,5.1 2.9,20.3 0.5,14.2 1.1,20.9 2,22.3 1.3,2 2.5,2.1 19.2,2.7 17.6,0.5 21.3,1 21.3,2.9 0,0.5 -2.3,3.3 -5,6 l -5,5 -15.7,-0.3 c -8.4,0.3 -18.3,0.1 -18.5,0.3 -1.4,1.3 3.8,3 11.5,3.1 4.8,0 12.3,0.9 13.2,1.2 3,1.1 1.6,4.1 -4.9,10.3 l -6.5,6.3 -14.3,-0.3 c -7.8,-0.1 -17.4,0.1 -18.6,0.5 -4.3,1.4 -2.2,2.6 5,2.7 12,0.2 20.3,1.2 20.7,3 0.2,0.9 -2.1,4.2 -5,7.4 l -5.3,5.7 -21,-0.9 c -19.9,0.1 -22.5,1.6 -6,3.3 6.3,0.6 16.3,2.2 16.7,2.3 0.4,0.1 0.9,0.8 1.3,1.7 0.7,1.8 -7.3,10.8 -11.6,13 -2.2,1.1 -3.7,1.2 -7.5,0.3 -4.5,-1 -23.7,-0.8 -25.8,0.4 -1.7,1 2,2.2 7.4,2.3 8,0.2 17.6,2.5 17.6,4.4 0,1.6 -4.1,6.6 -8.4,10.4 -2,1.8 -6.8,0.2 -20.1,0.6 -9.1,0.3 -15.2,1.1 -15.2,1.8 0,0.6 4.5,2.3 10.3,2.8 5.7,0.4 13.6,1.8 14.2,2.3 1.4,1.4 -8.9,13.4 -8.9,13.4 l -43.7,-0.6 -4,-46.2 3.7,-4.3 c 8.4,-9.7 10.2,-8.3 11.8,9.1 1.2,12.7 2.1,16.6 4,14.7 0.7,-0.7 0.4,-7.9 -0.3,-18.6 -0.6,-8.8 -1,-16.8 -1,-17.8 0,-2.4 9.9,-12.8 11.9,-12.5 1.9,0.4 3,4.7 4,16.5 0.8,9.7 1.3,12.4 3.2,10.5 0.9,-0.9 1,-6 0.1,-18.3 l -1.2,-16.1 4.2,-5 c 8.5,-10 10.1,-8.9 11.2,7.4 0.7,11 1.8,16.8 3.8,16.8 0.7,0 0.7,-8.2 0.3,-20.6 l -0.6,-18.6 5.3,-5.4 c 2.9,-2.9 5.9,-5.3 6.6,-5.3 2.1,0 3.2,4.7 4.5,15.7 1.5,12.4 1.9,14.5 3.1,13.3 0.5,-0.5 0.4,-8 -0.3,-17.6 l -1.5,-18.4 6.4,-6.5 c 3.5,-3.6 7.1,-6.4 7.9,-6.2 1.9,0.4 3.2,6 3.3,13.8 0.1,7.4 1.4,13.7 3,15.3 0.8,0.8 1,-3.7 0.8,-16.9 -0.3,-20.2 -0.8,-21.8 8.3,-31.3 2.5,-2.4 4.1,-4 5.2,-4.1 l 0,0 z m 235.7,8.2 0.2,28.3 c -11.3,24.2 -37.5,59.8 -64,97.9 l -13.8,-7.5 c 33.1,-43.5 60.9,-84.1 77.6,-118.7 z m -379,8.9 c 0.6,0 1.3,0 2.1,0.1 7.2,0.4 7.4,2.9 0.7,9.1 -2.8,2.6 -6,4.7 -7.2,4.7 -2.1,0 -2.2,-0.3 -1.5,-5.7 0.8,-6.6 1.6,-8.2 5.9,-8.2 l 0,0 z m 432.6,20.4 19.6,19.3 4.9,206.9 -20.6,33.6 -3.9,-259.8 z m 24.5,27.3 c 17.6,41.5 36,80.4 56.2,112 l -52.3,73.8 -3.9,-185.8 z m -176,64.5 c 24,-0.3 46.2,18.7 49,38 5.3,22.2 -6.2,46.1 -24.9,53.5 -6.5,2.3 -10.4,2.5 -10.4,2.5 -2.3,-13.4 -1.3,-26.3 -4.3,-39.9 0,0 -11.3,14.8 -17.6,20 -3.3,1.8 -4.8,2.3 -4.3,-2 0.2,-7.5 0.8,-24.2 0.8,-24.2 l -27.8,28.8 c 0,0 -2.3,-3.1 -4.9,-10.3 -8.7,-23.4 2.6,-47.8 20.5,-59 7.7,-5.1 15.9,-7.3 23.9,-7.4 l 0,0 z m 369.6,-1.8 0.5,25.3 c -43.6,33.8 -105.8,105 -159.1,197.9 l -23.5,9.9 c 36.3,-86.4 112.6,-174.4 182.1,-233.1 z m 0.5,33.3 0.5,37.7 c -38.5,37 -71.9,75.2 -101,124.4 -17,8.2 -48.4,23.7 -48.4,23.7 -4,-1 85.6,-140.6 148.9,-185.8 l 0,0 z m -388.1,32.3 c 1.8,0 1.7,3.4 1.1,8.3 -1.2,11.1 -2.6,15.2 -6.6,20.6 -14.1,16.6 -36.5,39.3 -39.5,60.3 -1.5,11.2 7.2,21.8 15.9,20.7 26.8,-3.3 29.7,-50.9 31.9,-74.4 0.9,-5.8 1.4,-10.7 2.3,-12.5 5.6,-7.2 11.7,-14.2 19.3,-19.9 l 3.3,36.4 15.1,-5 c -42.6,57.8 -30.3,61.5 -52.8,85.2 -20.9,22 -61.3,-3.1 -51,-36.5 9,-22.5 22.9,-45.1 26.7,-69.3 1,-7.2 1.6,-12.1 1.6,-12.1 l 9.7,20.2 c 5,-5.1 19.3,-21.2 23,-22 z m 389.7,12.5 -0.1,26 c -19.8,22.3 -37,39.5 -57.2,70.4 l -32.2,14.7 c 21,-40.1 55.5,-77.6 89.5,-111.1 l 0,0 z m -393.5,22.9 c 0,0 2.1,12.1 -2.6,34.1 -2.2,10.4 -12.3,40.9 -28.2,33.7 -13.5,-11.9 2.9,-34 11.2,-44.5 6.5,-7.4 13.5,-15.5 19.6,-23.3 l 0,0 z m -42.3,3.1 -8.8,18.8 c -78.9,0.3 -155.5,28.5 -223.7,86.1 l -17.3,-5.7 c 72.3,-68.3 161.8,-101.5 249.8,-99.2 z m 82.9,14.4 c 88.9,29.8 130,73.2 163.6,118.8 l -14.1,7.2 c -35.2,-45.6 -78.7,-87.3 -159.7,-111.5 l 10.2,-14.5 z m -101.9,28.1 -3.8,16.1 c -49.8,1.5 -102.3,19.2 -153.5,54.7 l -18.4,-2.9 c 51.5,-40.4 110.3,-63.5 175.7,-67.9 z m 227.6,108.7 -15.8,7.5 c -47.1,-61.1 -89.7,-78.5 -138.1,-94.1 l 5.2,-13.6 c 65,17.3 112.8,50.3 148.7,100.2 z m -657.1,-72.1 1.4,163.1 -11.4,-2.3 -1.6,-157.8 11.6,-3 z m -26.3,8.9 c -21.7,81.2 -4.9,102.2 3,149.5 l -17.9,-2.9 c -17.5,-48 -19.3,-91.6 -4.5,-142.6 l 19.4,-4 z m 544.9,12.5 c 1.4,1.3 -1.1,5.3 -4.4,7.3 -3.2,1.9 -2.5,1.6 -7.7,-0.3 -5,-1.8 -11.4,-6.6 -11.4,-8.4 3.6,0 20.3,-0.1 23.5,1.4 z m 15.3,1.1 c 3,0.4 11.5,0.2 12.1,2.9 0.2,1.6 -3.2,4.2 -10.1,8.9 -10.5,7.1 -14,8.6 -17.1,5.2 -2.9,-3.2 -2.1,-6.5 2.8,-11.1 4.9,-4.4 7.6,-5.9 12.3,-5.9 z m -357.1,1.8 c 6,0 16.7,7.4 23.2,16 6.6,10.3 14.1,20.8 20.2,31.2 13.8,23.6 24.5,47.5 33.5,72.1 23.4,58.3 37.2,114.8 48.6,171 -0.2,4.7 -4.3,4.6 -7.7,3.5 -1.8,-0.6 -3.5,-1.7 -3.8,-2.6 -4.8,-13.8 -6.5,-27.8 -10.2,-41.6 -9.2,-34.5 -12.6,-54.3 -30.4,-103 -9.2,-25.3 -22.6,-60.4 -37.3,-87.5 -9.4,-17.3 -20.2,-33.3 -34.3,-47.5 -3.7,-3.7 -8.3,-7.1 -8.3,-7.8 -0.1,-2.5 2.2,-3.8 6.5,-3.8 z m 379.9,1.9 c 5.6,1.4 19,2.9 13.9,7.4 -18.8,7.2 -25,15.1 -34.9,23.1 -1.5,0 -7.5,-7.4 -7.5,-9.2 8.1,-10 18.3,-14.3 28.5,-21.3 z m -352.7,0 c 7.9,-0.3 15.6,9.9 19.2,16.3 24.2,35.6 45,86.5 62,136.3 18.4,53.6 30,105.2 35.1,141.8 -0.4,1.1 -2.7,1.6 -5.3,1.5 -5,0 -5.7,-1.2 -6.9,-5.1 -12.6,-60.5 -29.6,-123 -50.1,-176 -11,-28.3 -23.5,-56.6 -41.1,-85.1 -12,-17.6 -18.8,-26.8 -18.3,-28.2 0.4,-0.9 2.3,-1.4 4.7,-1.4 0.2,0 0.5,-0.1 0.7,-0.1 l 0,0 z m -54.1,1.1 c 10.6,0 28.2,12.6 40.2,28.8 25.3,34.7 39.8,75.3 54.8,114.6 17.3,45.1 29.7,95.2 37.2,134.6 1.3,5.7 3.3,8.1 -2,9.9 -8.1,-2.3 -7.9,-2.1 -10.2,-11.9 -3.1,-10.6 -4.1,-21.2 -7.1,-32 -17.1,-61.4 -36.2,-129.6 -67.9,-185 -38.1,-61.1 -49.2,-44.1 -55.4,-54.8 0.4,-2.5 4.6,-4.2 10.4,-4.2 l 0,0 z m 91.7,14.9 c 32.8,57 47.2,92.1 57.2,126.5 15.1,52.2 33,93.9 40.9,154.8 0,0 -8.6,0.2 -12.1,-1.3 -1.4,-1.4 -2.9,-7.5 -3.8,-12.5 -7.9,-43 -20.7,-94 -34.3,-134.1 -14.7,-44.7 -32.1,-87.1 -58,-128.2 -6.8,-11.1 -8.1,-15.4 -3.9,-15.6 7.4,0.6 10.7,6.3 14,10.4 l 0,0 z m 341.5,-6.1 c 1.5,0 2.1,-0.2 4.9,0.8 4.3,1.5 5.7,2.4 6,4.2 0.4,2.5 -2.3,3.3 -10.7,5.3 -6.6,1.5 -19.5,8.4 -28.4,15.8 -4.2,3.5 -7.7,7.2 -8.7,7.2 -2.1,0 -7,-5.4 -7,-7.7 6.9,-10.5 28.7,-24.9 43.9,-25.6 z m -451.6,1.4 c 27.7,0.8 49.5,33.1 60.8,54.8 4.4,8.5 10.2,17.8 14.5,27.5 22.5,50.3 41.6,113.5 51,153.8 4.5,19.4 9.7,33.6 7.8,37.4 -2.3,1.4 -7.1,0.3 -9.3,-1.5 -1.4,-1.2 -2.2,-5.6 -4.7,-13.8 -6.5,-20.8 -17.2,-80.2 -45.1,-142.7 -0.6,-1.4 -14.1,-40.9 -37.5,-78.4 -9.5,-15.3 -24.9,-24.8 -38.9,-28 -7.1,-1.2 -9.2,-0.3 -8.7,-4.1 0.3,-2.4 1,-3.1 4.8,-4.3 1.7,-0.3 3.4,-0.6 5.3,-0.7 l 0,0 z m 173.4,128.8 c -1.9,0 -3.6,-3.6 -4.8,-9.6 -0.6,-2.9 -1.5,-5 4,-8.4 34.4,-36.6 4.8,-90.4 -38.4,-95 -4,-0.6 -9.2,-0.6 -10.7,-1.2 -2.2,-1.2 -6.2,-9 -8,-12.2 59.8,-14.5 123.2,71.1 57.9,126.4 l 0,0 z m 297.9,-119.6 c 3.6,0.9 11.3,8.1 10.3,9.7 -1.2,1.9 -7.9,1.9 -17.5,3.7 -20.6,3.6 -29.4,17 -38.9,27 -2.1,0.6 -4,-0.8 -5.9,-4.1 -1.4,-2.4 -2.5,-5.2 -2.5,-6.4 10.6,-15.6 39.2,-31.3 54.5,-29.9 z m -485.4,4.6 c 17.5,0 34.9,8.5 44.8,22.3 35.9,53.7 76.2,173.1 85.8,232 -1,1.9 -3.5,2.1 -8.5,0.7 -2.8,-0.8 -2.4,-1.7 -4.2,-7.2 -11.3,-42.9 -23.6,-84.5 -38.2,-122.8 -7.5,-19.7 -16.3,-38.9 -24.6,-56.2 -5.3,-10.9 -15.8,-30.4 -19.8,-36.3 -9.4,-17.7 -28.5,-22.9 -40.5,-17.2 -12.4,6.7 -14,22.8 -4.5,29.9 7.9,5.5 20.3,4.6 24.8,-3.9 1.6,-3 1.1,-6.7 0.1,-7.7 -1,-0.9 -2.7,-0.7 -3.1,0.3 0.6,10.4 -12.7,11.1 -18.5,7 -9.3,-6.9 -3.1,-28.9 22.2,-20.1 9.8,5.1 13,14.8 8.4,25.2 -4.7,10.6 -12.1,15.3 -23.4,15.3 -13.8,-0.2 -29.4,-9.9 -29.5,-27.3 0,-13 6,-23.7 17.3,-30.9 4.2,-2.7 5.8,-3.1 11.4,-3.1 l 0,0 z m 148.1,8.1 c 42.4,2 61.9,51.9 39.6,82 -5.7,7.2 -9.3,5.9 -11.7,-3.4 -1.2,-3.8 -2.5,-4.4 0.9,-7.3 19.9,-19 3.5,-56 -29.2,-57.5 0,0 -6.1,-8.9 -6.7,-13.6 2.1,-0.9 5.1,-0.3 7.1,-0.2 l 0,0 z m 353.7,3.4 c 3.2,0.8 10,7.3 10,9.6 0,2.7 -1.3,2.2 -8.9,0.9 -17.8,-3.2 -35.7,7.1 -50.6,29.7 -7.2,13.5 -8.1,12.2 -11.9,0.6 -2,-6 -2,-5.8 5.6,-16.9 14.1,-18.2 35,-26.5 55.8,-23.9 z m 16.6,22.9 c 14.9,13.6 8,43.4 -12.2,46.5 -17.8,2.1 -33.6,-17.2 -22.4,-30.3 7.3,-7.9 16.4,-8.7 22,-1.9 5.8,7 3.3,16.6 -4.9,17.6 -1,0.3 -1.8,1.1 -1.8,1.7 0,1.8 7.3,1.3 9.8,-0.8 5,-5.5 5.1,-14 0.6,-20 -4,-5.3 -12.4,-9.6 -19.2,-6.8 -12,4.3 -24.2,20.5 -31.1,40.9 -2,5.7 -3.1,11.1 -3.9,12.4 -1.7,2.6 -1.6,2.5 -3.2,1.5 -1.4,-0.9 -3.9,-13.4 -3.9,-18.2 0,-3.6 3.1,-13.2 7.3,-21.4 12.9,-24 42,-40.1 62.9,-21.2 z m -363.8,-6.1 c 17.4,1 31.1,25.6 23.6,42.8 -2.3,3.2 -5.7,5.3 -7.3,3.3 -0.6,-0.7 -3.2,-8.8 -6.9,-17.3 -3.7,-8.5 -7.1,-16.9 -8.2,-18.9 -2.7,-5.9 -4.7,-9.9 -1.2,-9.9 l 0,0 z m -118,14.3 c 19.8,35 36.3,75.2 50.1,114.5 10.7,30.6 19.5,60.6 24.5,87.1 0.5,2.7 1.1,4.1 0,5.3 -1.9,1.9 -11.4,-2.9 -11.4,-2.9 -16.5,-57 -29.9,-114.2 -69.3,-186.8 0,0 -1.7,-2.9 -2.2,-4.8 -0.5,-4.5 0.8,-10.3 3.6,-13.5 1.1,-1.3 2.6,-1.3 4.7,1.1 l 0,0 z m -222,66.2 c 93.6,6.3 166,45.7 204.6,149.9 -13.7,-7.7 -83.4,-61.2 -203.6,-68.3 l -0.2,-14.4 c 86.1,-0.7 170.1,44.1 168.4,43.5 -32,-66.1 -112.5,-92.8 -169.5,-94.6 l 0.3,-16.1 z m 649.2,21.1 c -5.9,9.2 -5.6,8.9 -8.5,16.8 0.3,2.6 0.8,18.7 1.2,28.2 0.5,12 0.8,17.2 1.8,18.4 1.6,1.9 4.9,2.2 6.3,0.5 0.6,-0.7 1.5,-3.3 2.2,-5.8 7.7,-29.2 11.4,-40.1 14.5,-43.7 2.1,-2.6 2.7,-2.4 11.2,-1.4 19.1,1.7 25.6,-21 13.1,-30.2 -16.7,-9.3 -34.4,6.2 -41.8,17.2 z m 20.1,6.2 c -13.6,11.2 -14,27.4 -18.2,42.2 -2.2,10 -5.3,15.3 -6.6,0.2 -2.3,-20.9 0.6,-36.6 9.7,-48.9 5.6,-9 14.8,-15.1 23.1,-15.7 17.9,-1.3 19.7,12.9 14.7,20.5 -3.5,5.5 -13.5,7.9 -22.7,1.7 l 0,0 z m -644.6,6.7 c 6.7,0 12.2,5.5 12.2,12.2 0,6.7 -5.5,12.2 -12.2,12.2 -6.7,0 -12.2,-5.5 -12.2,-12.2 0,-6.7 5.5,-12.2 12.2,-12.2 z m 38.9,8.3 c 6,0 10.9,4.9 10.9,10.9 0,6 -4.9,10.9 -10.9,10.9 -6,0 -10.9,-4.9 -10.9,-10.9 0,-6 4.9,-10.9 10.9,-10.9 z m 35.4,12 c 4.9,0 8.8,4 8.8,8.9 0,4.9 -3.9,8.9 -8.8,8.9 -4.9,0 -8.9,-4 -8.9,-8.9 0,-4.9 4,-8.9 8.9,-8.9 z m 25.1,15.9 c 3.8,0 6.8,3.1 6.8,6.9 0,3.8 -3.1,6.8 -6.8,6.8 -3.8,0 -6.9,-3.1 -6.9,-6.8 0,-3.8 3.1,-6.9 6.9,-6.9 z m -88,21.9 c -2.6,13.2 -0.6,26.8 2.5,36.2 6.9,20.2 3.8,56.3 3.8,56.3 l -20.3,20.3 c 1.5,-19 3.7,-38.9 2.7,-54.8 -0.7,-10.6 -5.5,-20.4 -6.7,-31 -1.1,-9.8 0.6,-29.5 0.6,-29.5 l 17.4,2.5 z m 32.9,6 0.7,86.1 -69.5,67.4 -0.1,-17.8 59.3,-58.8 -1.3,-79.8 10.9,2.9 z m 171.5,196.5 -4.6,7.4 78.4,0 1.7,-7.4 -75.5,0 z m 101.5,0 -1.8,7.4 36.3,0 1.2,-7.4 c 0,0 -19.1,0 -35.7,0 z m 59.5,0 -1.2,7.4 134.8,0 -2,-7.4 -131.6,0 z m 157.6,0 2.2,7.4 35.9,0 -3,-7.4 -35.1,0 z m 60,0 2.6,7.4 61.7,0 -5.1,-7.4 -59.2,0 z"
             id="path3016" /></g></g></g></g><g
     transform="translate(-259.92046,-369.77722)"
     id="printing-marks"><g
       id="CropMarks" /></g></svg>