<?xml version="1.0" encoding="UTF-8" standalone="no"?>
<svg
   xmlns:dc="http://purl.org/dc/elements/1.1/"
   xmlns:cc="http://creativecommons.org/ns#"
   xmlns:rdf="http://www.w3.org/1999/02/22-rdf-syntax-ns#"
   xmlns:svg="http://www.w3.org/2000/svg"
   xmlns="http://www.w3.org/2000/svg"
   height="312.79669"
   width="224.19823"
   xml:space="preserve"
   enable-background="new 74 -106.5 744.1 1052.4"
   viewBox="74 -106.5 224.19823 312.79668"
   y="0px"
   x="0px"
   id="svg4423"
   version="1.1"><defs
     id="defs20" /><g
     transform="translate(-259.99417,-369.84043)"
     id="layer1"><g
       transform="translate(-289.24355,-136.72448)"
       id="g4673"><g
         transform="translate(-1694.0624,23.063255)"
         id="g9405"><g
           id="g3861"><path
             style="fill:#ffffff;stroke:#000000;stroke-width:0.99669999"
             d="m 2328.4,377.5 202,0 c 5.9,0 10.6,4.8 10.6,10.6 l 0,290.6 c 0,5.9 -4.8,10.6 -10.6,10.6 l -202,0 c -5.9,0 -10.6,-4.8 -10.6,-10.6 l 0,-290.6 c -0.1,-5.9 4.7,-10.6 10.6,-10.6 z"
             id="rect6367" /></g></g><g
         transform="matrix(0.15515913,0,0,0.15515913,604.9465,621.11516)"
         id="g3498"><g
           id="g2997"><g
             transform="matrix(0.99998259,0.0059011,-0.0059011,0.99998259,1.5988528,-2.1391077)"
             id="g3884"><g
               id="g3000"><path
                 style="fill:#e2cf00"
                 d="m 1350.1,-1194.4 -74,48.9 -0.7,56.5 c -44.2,-20.9 -63.5,-55.4 -70.7,-95.9 -12.4,15.8 -9.4,95.1 -9.4,95.1 -11.3,5.9 -15.4,13.6 -22.6,20.6 7.2,11.7 27.4,31.5 27.4,31.5 -0.1,-0.4 -8.7,82.7 2.3,85.9 9.8,-35.4 23,-66.3 72,-99 0,0 1.5,131.7 -0.9,259 -20.9,-14.2 -65.1,-39.7 -93.7,-65.9 36.6,-47.8 -1.4,-109.5 -56.2,-68 -35.8,-19.1 -41.8,-110.2 -50.9,-158 -1.8,-9.6 -10.2,-37.6 -10.2,-37.6 0,0 -117.7,-31.8 -168.2,-28.9 43.1,110.2 35.7,244.9 -151.7,271.2 -89.6,41.6 -193.2,88.1 -293.6,174.3 -17.8,127.6 -83.2,190.7 -129.4,225.7 0.6,51.6 0.3,102.8 2.7,154.9 0,0.3 42.2,-28.1 48.9,-22.9 36.7,230 166.7,274.9 153.8,281.4 -2.1,1 -42.3,42.8 -42.3,42.8 l -159,-103.4 c -4.5,159.3 -0.4,321.7 2.8,481.2 27.9,-16 79.1,-54.1 79.1,-54.1 l 0.5,-54.2 c -0.3,-5.1 72.3,44.7 72.8,104.6 5.6,3.8 17.4,-86.3 6.2,-96 l 29.4,-30.7 -32.1,-30.5 c 0,0 7.8,-51 -8.9,-80.3 -10.3,67.3 -66,88.6 -66,88.6 0,0 -2.5,-245.7 -4,-245.9 l 99.9,62.4 c -7.4,1.6 -26.2,36.9 -6.2,65.4 12.2,17.3 55.4,15.9 58.7,-4.1 61.6,56.7 38.4,125 65.7,205.8 l 173.9,30.8 C 723.1,184.4 799.9,32.5 940.6,42.5 c 26.3,-11.1 50,-27.1 50,-27.1 0,0 -17.6,-28.5 -39.9,-54.8 l -301,-3.2 138.7,-263.9 -92.3,-2.4 c 0,0 74.1,-159.5 57.8,-172.2 -5.7,-4.5 -3.6,-55.8 -3.6,-55.8 l 82.4,2.6 c 3,-36.7 -40.9,-176.3 -102.3,-267.5 l 338.3,1 -188.8,266.8 102.3,2.3 -60.3,125.7 10.4,97.7 -90.7,3.5 c 16.4,135.5 117.9,277.7 153.6,321.6 58.4,-14.2 167.2,-98.5 234.7,-150.9 8.3,-91 39.1,-168.6 120.7,-226.9 l -0.6,-149.8 c 0,0 -46.6,30.4 -46.6,28.4 0,-32.4 -17.3,-99.8 -48.8,-159.7 -33.8,-64.3 -89.1,-122.5 -101.7,-126.1 28.8,-44.1 41.1,-48.1 40.7,-48.8 l 158.8,100.5 -2.3,-477.9 z m -795.4,324 c 0,0 -30.7,11.9 -57.4,11.7 -47.9,2.8 -84.4,6.8 -103.6,46.2 -3.9,12 4.8,16.3 11.2,19.4 35.8,-45 132.1,13.7 149.8,-77.3 z m -211.4,207 c 0,6.3 7.2,16.6 10.7,5.9 3,-7.7 3.6,-20.1 0.1,-27.8 -9.7,-5.3 -10.8,15.7 -10.8,21.9 z m 520,213.9 -46.8,0.5 0,54.9 47.7,2 -0.9,-57.4 z m 461.1,270.6 c -1,5.5 -5.9,30 5.5,25.7 13.5,-10.5 1.7,-58.1 -5.5,-25.7 z m -43.2,138.1 c -5.6,-8 -22.5,12.1 -36.6,12.9 -62.3,3.7 -108.3,-4.4 -115.7,60.9 35.8,-23.2 86.2,-13 118.6,-20.6 23.5,-7.9 50.3,-29.3 33.7,-53.2 z"
                 id="path2993" /><path
                 style="fill:#131f67"
                 d="M 318.7,429.6 C 308.3,-142 308.3,-706.3 307,-1271.6 l 1055.2,-0.3 c -0.4,564.2 2.2,1130.1 13,1699.8 l -1056.5,1.7 z m 38.6,-1100 c 0.8,-16.4 -6,-23.1 -11.7,-11.8 -1.4,2.7 -5.7,31.1 5,32 7.1,0.5 6.4,-13.2 6.7,-20.2 z m -17,19.2 c -0.1,-3.9 -2.5,-5.5 2.6,-39.2 -10.1,-3.8 -18.9,-20.1 -11.6,-30.4 2.8,-4 2,-4.9 0.8,-8.3 -2.9,-8.3 -1.4,-15.2 6.3,-20.5 4.9,-3.4 5.1,-4.3 3.5,-8.8 -4.2,-11.5 -0.4,-22.8 10.6,-26.7 7.6,-2.7 6.2,-3.1 6.9,-7.9 1.7,-10.9 7.7,-17.5 18.6,-16.4 10.1,1 10.8,1 11.6,-4 2.3,-13.7 18.8,-28.8 40.4,-39 10.7,-5.1 28.5,-8.8 62.7,-8.9 19.6,-0.5 44,-3.2 57.6,-15.3 2.2,-2.1 5.4,-7.7 6.5,-6.9 2.6,1.7 2,15.4 -2.9,27.8 -14.4,36.3 -34,46.4 -89.8,46.4 -16.6,-0.7 -41.1,1.7 -51.4,12.3 -3.1,3.3 -5.1,6.4 -3.9,8.1 23.1,3.1 46.9,13.4 61,58.9 41.7,-29.9 108.2,-75.8 190.8,-117.4 -10.3,-54.4 36.9,-63.1 63.5,-52.4 0,0 0.7,-3.6 -0.4,-7.7 -1,-4 -2.5,-9.2 -7.4,-16 -1.2,-2.5 -8.7,-7.1 -7.3,-10.8 2.4,-6.1 1.3,-7.7 -3.8,-13.3 -3.3,-3.6 -1.2,-11.4 -0.4,-14.5 1,-5.8 4.8,-14.2 1.4,-17.3 -5.3,-4.8 -23.2,-12.9 -32.4,-19.4 -10.2,-7.3 -10.5,-14 4.3,-38.4 6.7,-14.2 13,-29.4 18.4,-39.6 8.1,-15.4 8.9,-25.6 3.9,-34.3 -6.6,-11.5 -5.6,-25.1 -5.4,-24.8 0,0 -61.7,-86.7 -87.1,-120.8 l -286.3,0.8 1,654.5 50.8,-47.4 -13.5,-15.8 c -1.8,9.2 -0.1,18.2 -11.4,18.8 -3.9,0 -7.5,-1.6 -8.2,-5.4 z m 175.3,871.7 c 1.5,-25.9 -11.2,-68.2 -30,-97.4 0.9,22.3 2.7,49.5 -1.6,71.3 l 31.6,26.1 z m 452.2,64.9 c -2.3,-0.7 -21.1,-1.8 -32.9,-2.3 -39.1,-1.8 -64.7,-20.5 -81.8,-46.3 -4.2,-6.4 -2.5,-6.1 6.8,1.1 26.1,20.1 50.5,32.1 71.8,29 30.2,-4.5 46.6,6.5 42.5,19.5 -0.6,2.1 -0.9,0.7 -6.4,-1 z M 864.9,228.3 c -6.1,-5.2 -6.6,-7.6 0.7,-2.8 22.1,14.5 48.7,38.2 81.4,24 6.8,-4.4 0.5,-3.8 -10.8,-2.5 -17.4,2 -38.6,-6.8 -64.8,-24.6 -12.8,-8.7 -7.2,-16.2 7.2,-9.4 4.4,2.1 8.9,3.6 11.8,3.8 14.1,-9.4 43.7,-9.5 43,-9.5 3.4,-2.9 -7.7,-7.5 -24.3,-13.6 -10.7,-4 -13.3,-5.6 -5.4,-6 7,-0.3 17.9,3.1 25.9,8.2 13.2,8.4 19.9,13.1 23.8,13.6 6.5,0.5 13.1,1.4 2,6.6 -5,2.4 -4.6,3 -4,8.6 1,8.8 1.5,8.7 5.6,13.7 6.9,7.5 10,21.7 0.1,12.9 -2.1,-1 -2.3,0.9 -8.1,3.3 -33.8,9.8 -59.2,-5.1 -84.1,-26.3 l 0,0 z m 62.7,2.1 c 1.9,-2.5 4.7,-8.9 5.1,-10.7 -0.7,-4.1 -4.3,-2.8 -6.2,-0.5 -3.1,3.9 -7.5,9.7 -3.9,11.6 1.8,1 3.4,1.7 5,-0.4 z m -11.6,-2.6 7.5,-13.5 c -1.9,-0.9 -27.4,4.6 -23.4,8.2 3.6,3.2 15.9,5.3 15.9,5.3 z m 28.6,-45.3 c -11.7,-6.2 -15.2,-19.6 -6.5,-28.5 7.3,-7.5 19.7,-7 34.6,2.1 5.2,3.2 8.5,4.8 12,3.5 6,-2.2 8.3,1.1 7.8,5.8 -1,10.3 -17.1,13 -27.3,1.2 -13.5,-15.5 -28,-4.5 -23.7,6.7 2.2,5.7 6.4,6.6 11.3,8.7 0,1 -4.8,2.3 -8.2,0.5 z M 891,113.4 c 19.3,-5.3 48.1,14.9 63.6,12.1 6.7,-1.5 5.8,8.2 -1.1,11.8 -8.2,4.2 -19.8,1.5 -44.6,-11.3 -20.4,-10.9 -36.7,7.4 -23.1,20.9 2.9,2.7 7.2,4.4 12.4,4.1 6.9,-0.4 8.9,1.5 0.1,3.8 -5.1,1.3 -14.6,-0.7 -19.2,-5.3 -11,-11 -8.4,-32.3 11.9,-36.1 z M 482.2,56.2 C 481.5,33.3 493.7,20.4 494,20.4 l -87.1,-58.4 2.7,235 c 42.8,-27.5 56.7,-62 58.9,-106.4 85.4,94.5 59.6,210.4 7,276.6 -2.4,-40.3 -14.7,-87.9 -63.9,-112 l 0.2,48.1 -81,58.1 0.8,53.1 L 523,414 614.7,278.4 C 597.6,217.2 599.8,166.2 588.3,138.3 579.7,115.3 563.4,85.6 553,90.3 517.9,118.4 483.1,86 482.2,56.2 Z m 73.2,26.7 c 30.2,21.5 38.4,56.8 44.7,88.2 0.2,0.3 16.4,106.4 16.9,107.9 2,5.8 1.4,11.6 -3.7,16.1 C 585.8,333.3 532,415.3 532,415.3 l 531.6,0 c -28.6,-41.1 -51,-81.8 -78.1,-115.5 1.1,-1.8 -2.3,-25 -6.8,-32.4 -4.7,-7.7 -5.8,-11.7 -2.7,-18.8 7.7,-17.4 15.5,-36.3 22.6,-52.3 13.6,-30.6 15.1,-30.9 -3.7,-40.7 -22.3,-12.8 -26.3,-17 -21.7,-31.8 1.7,-5.4 1.9,-7.5 -5,-8.9 -3.2,-0.6 -11,-2.4 -16.2,-3.9 -15.1,-4.6 -10.7,-1.7 -16.2,2.2 -4.2,2.1 -7.8,-5.8 -12.8,-15.2 -5.7,-10.7 -7.1,-11 2.2,-5.5 17.3,10.2 48,6 37.1,-5.8 -5.3,-5.8 -10.2,-8.7 -9.7,-21.9 0.5,-13 0.7,-16.9 -8.2,-18.6 -17.7,-3.5 -37,-1.9 -53.5,2.3 -49.9,12.5 -89.9,56.3 -105,88.7 -3.4,5.7 4.5,5.3 7.9,5.3 16.4,-1.6 28.3,24.6 17.6,36.4 -4.9,5.3 -9.9,2.1 -4.7,-4.8 6,-11.3 -3.1,-26.1 -16.3,-22.3 -16.6,4.9 -17,26.4 -19,41.4 -5.4,43.3 16.9,101 22.3,112.8 0,0 1.2,1.8 0.8,1.8 -0.4,0 -3,2.5 -4.2,1.2 -3.9,-4.4 -13.8,-39.7 -19.3,-64.9 -10.6,-69.9 7.1,-134.3 65,-171.1 51.3,-37.5 77.3,-29.6 106.6,-31.5 10,-3.7 23.8,-9.2 34.3,-14.4 51.4,-28.5 93,-52.7 136.6,-76.8 42.4,-23.4 70.7,-56.6 109.4,-77.5 1.8,-0.9 3.6,-3.1 5.4,-4 48.1,-42.3 95.6,-83.8 124.3,-112.7 3.5,-3.5 6.3,-8.3 6.3,-8.3 l -6.3,-242.3 c 0,0 -4.9,-4 -4.9,-7.9 0,-8.4 -3.1,-6.8 -20.3,5.5 -21.6,15.4 -23.1,14.7 -23.1,14.7 -12.2,-111.1 -72.9,-220.1 -146.2,-283.6 l 3,-4.1 c 0,0 24.5,16 36.7,23.5 l -0.1,-15.5 -29.5,-18.2 c 0,0 -2.6,-2.1 0.2,-6 1.6,-2.1 5.6,-0.6 5.6,-0.6 l 23.6,17.2 -0.1,-14.2 -19.1,-12 6,-7.7 10.2,6.5 c -4.4,-11.2 1.7,-10.8 8,-3.4 2.6,3.4 6,7.7 7.5,11.8 0.6,1.6 2.2,5.4 2.2,5.4 l 16.7,12.3 c 0,0 -0.7,-6 -0.1,-7.9 2.8,-8.8 23.1,19.4 20.5,20.1 l 17.1,12.2 c 4,-6.2 19.3,6 20,12 1.4,2.6 59.1,39.3 59.1,39.3 l 0.5,-20.4 6.2,-8.1 0,-472 -76.1,49.3 -0.5,57.1 c -36.1,-11.5 -67.7,-63.5 -72.5,-96.1 -2.4,-1.3 -12.4,64.4 -6.7,93 -9.5,7.2 -25.5,23.8 -25.3,23.9 l 29.1,31.5 c 0,0 -5.5,48.5 -4,72.6 1.2,11.4 1.5,12.6 4.9,12.6 2.8,0 5.2,-3 5.2,-5.6 6.6,-28.9 28.7,-74 67.2,-89.5 2.6,-0.1 1.3,257.2 1.3,257.2 l -96.2,-64.8 c -4.8,-4.1 6.2,-3.9 12.8,-25.7 17,-56.3 -43.3,-75.7 -66.4,-43.1 -3.8,0 -19.9,-19.7 -22.4,-27.9 -17.9,-35.6 -21.6,-76.1 -25.2,-108.5 -2.2,-14.7 -7.7,-38.9 -12.3,-53.5 -2.4,-7.8 -2.7,-13.4 2.4,-20.7 23.5,-32.2 46.3,-66 66.1,-99 18.1,-24.1 14.5,-25.3 14.5,-25.3 l -533,1.4 85.9,111.7 8.6,3.3 c -14.7,2 -9.6,14.8 -3.8,28.7 7.1,17 6.4,20.5 -11.3,55.7 -25.9,51.6 -27.3,47.1 -1.1,62.9 16.2,10.2 19.1,12.5 16.8,26.5 -2.3,14 -3,9.7 10.3,10.8 7.1,0.6 12.8,1.8 16,3.3 3.7,1.6 6.4,3.9 11,2.3 7.9,-2.6 8.1,-0.7 8.4,5.1 0.1,2.5 3.9,7.5 5.1,9.4 3.1,5 1.7,5.8 -3.9,2.3 -17.2,-10.7 -45.8,-5.9 -35.2,5.8 4.4,4.8 8.8,20.9 9.3,28.8 0.8,14.3 10.1,19.3 29.6,16.2 37.4,-3 121.6,-50 141,-102.3 -43.2,15 -34.6,-38.2 -19.2,-36.6 0,0 -4.1,9.4 -4.2,14.8 -0.4,19 15.6,20.4 26.4,6.9 4.7,-7.1 10.4,-33.4 7.3,-63 -3.7,-35.9 -18.4,-75.9 -21.1,-85.8 62.7,147.3 6.3,212.6 -80.4,255.5 -33.2,14.1 -37.8,14 -57.4,15.1 -13.4,1.2 -25.5,7.9 -38.4,12.2 -74.2,35.9 -165.3,80.7 -246.7,147.3 C 410.4,-676 364,-636.6 318,-586.2 l 1.3,260.5 c 13.9,-2.2 36.5,-15.9 49.8,-23.8 15.9,97.3 66.6,209.7 149.9,276.6 0,0 -1.9,3.7 -2,3.7 -11.9,-7.8 -23.7,-15.5 -35.2,-21.4 l -0.5,12.4 28,19 c 0.8,3 -4.7,7.2 -4.7,7.2 l -23.1,-15.8 -0.1,12.6 17.9,11.2 c 4.8,4.8 -5.8,7.4 -5.8,7.4 l -10.6,-7.6 c 0,0 0.8,6.1 0.5,7.2 -2.7,9.3 -18.1,-11.2 -20.9,-21.4 l -15.1,-8.8 c 2.2,6.1 -3.2,6.9 -7.5,5.4 -11.3,-5.7 -10.7,-15.3 -13.1,-20.9 l -20,-12.5 c -3.3,19 -23.8,-7.6 -20.6,-14.1 l -25.7,-17.3 c 1.4,0.5 -9.7,2.9 -13.5,0.5 -4.4,-2.8 -6,-14.4 -6,-14.4 l -15.4,-9.4 0.1,16.6 158.5,109.3 -2.3,4.3 -165.3,-111.8 9.6,489.1 80,-56 c -1.6,-18.3 1.6,-34.7 0,-55.5 41.4,25.4 55.4,42.8 73.9,96.7 11.6,-30.8 9.4,-60.2 3.9,-87.4 10.5,-8.7 20.7,-17.1 25.9,-30.2 -10,-13.6 -19.7,-17.4 -30.3,-30 -0.9,-15.4 7.9,-61.5 -4.4,-76.6 0,0 -21.8,67 -69.5,87.4 -1.9,-70.6 -1.3,-248.1 -1.3,-248.1 0,0 49.4,33.5 74.6,47.1 11.8,6.2 20,10.1 20.2,14.6 0.1,2.3 -4.6,5.2 -6.7,8.4 -1.3,2 -6.6,21.1 -4.4,36 1,11 6.3,17.9 11.3,23.2 15.8,16.7 44.6,8.6 56,-4.3 z M 649.7,-42.6 837.1,-308 c 23,97.1 61.5,186 111.5,266.4 l -298.9,-1 z M 741.5,-321 c 0,0 13,-26.2 19,-40.1 l -23.1,0.1 13.8,-15.6 34.5,-0.2 -18.2,39.4 14.6,-0.1 20,-39.4 53.7,-0.3 -18.5,39.4 12.4,-0.1 19.9,-39.4 49.9,-0.3 -17.3,39.4 11.7,-0.1 10.1,-19.9 2.7,36.1 -49.6,0.3 19.4,-40.1 -16,0.1 -21.9,40.1 -46.5,0.3 19.9,-40.1 -17.7,0.1 -21.9,40.1 -50.9,0.3 z m 152.2,-141.6 19.8,-42.4 -15.8,0.1 -21.9,41.6 -49.5,0.3 19.2,-41.1 -12.3,0.1 c -8.3,13 -21.5,39.3 -21.5,39.3 l -52.5,0.3 c 0,0 14.7,-27.9 20.5,-41.6 l -13,0.1 -10.4,16.9 c -3.8,-6.3 -1.4,-22.9 -2.1,-30 l 49.5,-0.3 -19.7,40.7 15.8,-0.1 21.4,-40.7 52.3,-0.3 -21,40.7 12.4,-0.1 20.9,-38.5 53.2,-0.3 -18.4,38.5 16.4,-0.1 -7.1,16.7 -36.2,0.2 z m -49.4,-73.5 -10,1.9 c -13.5,-109.6 -74.8,-221 -100.8,-267 l 302,2.5 -191.2,262.6 z m 350.8,-635.2 c 0,0 -28.6,37.2 -30.1,99.3 l 27.3,-22.1 c -2.1,-62.9 2.8,-77.2 2.8,-77.2 z m -29.8,104 c -0.2,46.2 12.1,75.6 27.6,98.6 0.1,-29.8 2.9,-59.9 4.6,-67.8 l -32.2,-30.8 z m -742.3,888.7 -98,-66.7 0.1,14.7 116.5,78.1 -18.6,-26.1 z m -17.8,-36 c -26.2,-13 -80.4,-53.3 -80.4,-53.3 l 0.1,13.4 86.1,59.8 c 1.7,1.6 4,1.2 4.7,-0.6 -3.3,-5.7 -7.4,-13.4 -10.5,-19.3 l 0,0 z m -24.3,-58.2 -56.3,-38.8 0.1,12.2 c 14.5,12.8 62,43.2 62,43.2 l -5.8,-16.6 z m -56.4,-47.7 53,33.8 -3.4,-15.1 -37.6,-25.2 -12,6.5 z m 945.4,-478.4 1.4,-243 c -54.8,26.3 -65.3,102.2 -63.4,104.6 -55.1,-56.1 -76.4,-177.6 -0.1,-259.8 5.9,26.2 8.1,64.2 62.6,98.7 l 1.1,-51.5 75.8,-49 -1,-58.5 -182.5,-0.3 c -28.1,36 -56.1,77 -83.9,115.2 -10.4,14.3 -13,21.1 -11,28.5 18.8,66.1 15.6,147.5 54.5,185.8 51.5,-49 100.5,24 60.5,69.5 l 86,59.8 z M 487.7,256.6 c 7.1,22.1 2.6,66.8 2.1,66.8 8.3,-4.6 30.7,-69.4 24.9,-93.6 M 771.8,-958.7 c -12.9,-3.6 -22.7,-9.1 -36.3,-7.7 -10.7,1.2 -14.4,-2.4 -7.9,-8.2 8.5,-7.3 16.8,-10.3 32.7,-2.1 47.9,24.7 49.1,-11.8 27.6,-14.2 -6.1,-0.7 -5.8,-4.6 0.2,-3.6 33.4,1 23.5,45.3 -16.3,35.8 z m -56,-36 c -6.3,-2.3 -14,-6.1 -16.8,-5.3 -7.1,1.9 -7.3,-1.9 -6.5,-6.6 2,-11.1 13.4,-9.2 28.5,0.3 21.6,13.6 29.8,-6.2 10.1,-16.7 -6.6,-3.5 -4.6,-4.5 -0.7,-4.7 10.2,-0.5 19.9,13.4 17.3,24.8 -6.8,18.2 -23.6,11.1 -31.9,8.2 z m 63,-34.1 c -14,-2.3 -34.3,-21 -43.6,-22.2 -5.3,-0.6 -11.5,0.1 -13.2,-2 -5.2,-6.4 9.4,-6.5 10.4,-8.9 0,-5.5 0.3,-8.9 0.1,-10.7 -2.6,-3.5 -12.8,-17.4 -12.5,-24.1 0.2,-0.4 5.3,3.7 8,3.7 24.8,-13.3 41.9,-7.5 62.9,1.6 8.7,3.8 31.2,21 31.5,23.8 0.5,4.7 -9.5,-4 -17.4,-9.2 -19.3,-13.2 -36.6,-22.6 -60.7,-14.6 -3.7,1.3 -3.1,2 9.3,1.2 12.1,-0.8 22,2.8 37.5,12.8 3.8,2.5 8.5,6.7 11.3,8 19.5,9.1 23.7,18.2 11.4,15.8 -2.6,-0.5 -7.8,-3.2 -12.8,-5 -8.9,-3.1 -5.7,-2.2 -14.3,1.9 -3,1.4 -10.2,4.4 -16.1,5.1 -4.5,0.8 -19.3,0.7 -12.7,6.9 7,6.9 18.4,11.9 26.3,15 5.6,2.5 1.2,2 -5.4,0.9 z m 1.4,-30.1 c 9.1,-3.4 1.9,-11 -9.7,-12.6 -2.7,-0.4 -8.2,12.2 -8.4,14.8 0,1.9 13.2,-0.4 18.1,-2.2 z m -25,1.5 c 2.1,-1.3 9,-11.5 9,-13.1 0,-6.5 -8.3,-4.6 -10.2,2.1 -2.3,8.2 -2.5,13.3 1.2,11 z m -29.4,-52.1 c -7.5,-3.3 -17.7,-17.7 -6.1,-15.3 2.5,0.6 15.5,1.2 24,1.1 28.7,0 57.3,12.8 75.6,31.5 10.2,10.4 10.9,18.2 0.6,11 -36.6,-32.2 -58.9,-26 -94.1,-28.3 z m 289.6,1122.4 -10.1,5.5 c 0.1,5.6 2.1,4.7 6.6,8.7 0,0 -6.2,1 -10.8,0.8 -7.4,-0.4 -9.1,-0.3 -5.8,4.9 1.5,2.4 3.6,5.9 3.6,5.9 0,0 -4,0.9 -10.1,-0.7 -9.2,-2.5 -13.9,-1.2 -10.4,3.9 1,1.4 2.8,4 2.8,4 -6.7,-1.5 -19,-7.4 -19,-7.4 l -8.6,2.7 c 17.6,33.6 78.9,12 61.8,-28.3 l 0,0 z M 1314.9,-37 c 9.5,-8 4.8,-17.8 -9.1,-24.9 -5.8,-2.9 -5.2,-3 -14.6,2.6 -11.5,6.8 -12.3,7.2 -4,15.9 10,10.4 20.8,12.3 27.7,6.4 z m -35.4,-22.3 c 8.7,-3.9 5.5,-3.3 4.8,-12.4 -2.6,-10.5 3.3,-11.3 6.2,-21.1 1.2,-5.4 -3.3,-3.4 -12.1,4.9 -7.2,6.2 -9.4,7.7 -9.4,4.7 0.8,-2.5 -5.1,-8.8 -10.3,-9.7 -4.4,-0.7 -4,-1.7 0.3,-7.3 7.4,-9.7 10.4,-21.9 5.3,-32.7 -6.4,-13.6 -8.5,-15.5 -22.5,-3.6 -7.1,6.6 -17.3,11.8 -22.1,20 -3.5,6 -1.4,11.8 4.2,23.6 14.2,29.4 35.6,42.6 55.6,33.6 l 0,0 z m 49.1,-0.1 c 15.4,-6.1 9.1,-22.7 -15.1,-39.3 -14.6,-10 -18.7,-9.9 -6.3,1 7.9,7 9.2,9.4 5.8,14.5 -2.8,4.2 -5.7,9.2 -2.9,13 4.5,6 12.1,13.4 18.5,10.8 z M 461,-81.9 l -16.9,-10.5 0.1,14.5 16.9,9.9 -0.1,-13.9 z m 839.4,8.1 c 3.3,-2.4 6.1,-9 6.1,-11.9 0.7,-6.8 -10.3,-5.1 -15.5,2.4 -5.8,8.5 1.3,15.4 9.4,9.5 z m 37.5,-23 c 7.6,-8.1 3.8,-16.6 -11.9,-26.7 -6.1,-3.9 -9.2,-6.5 -8.4,1.4 0.2,2.4 -2.4,5.6 -4.1,7.5 -5.4,6.1 -3,7.2 12.6,17 7.9,4.9 7.5,5.3 11.8,0.8 z m -877,-10.2 -16.9,-10 0.1,13.2 16.9,11.2 -0.1,-14.4 z m -36.7,13.3 0.1,-13.2 -21.8,-14.3 -0.2,14.7 21.9,12.8 z m 855.6,-10.4 c -2.8,7.6 8.5,4.1 9.1,3.3 1.9,-3.8 0.2,-4.2 -0.8,-4.6 -1.9,-0.8 -9.5,0.6 -8.3,1.3 z m 4.9,-9.5 c 3.9,-1.3 4.3,-0.8 3.7,-7.8 -0.9,-10.5 0.7,-11.4 7.7,-16 5.6,-3.7 5.6,-3.2 5.5,-9.6 -0.2,-7.8 0.4,-11.1 10.6,-12.8 4.2,-0.7 6.6,-1.7 6.9,-5 0.6,-5.6 -8.4,-14.9 -19.6,-20.3 -1.6,0 -26.4,21.8 -33.3,29.3 l -4.2,4.6 5.1,9.5 c 8,14.8 6.7,20.2 2.2,39.9 -0.9,5.3 3.1,4.5 4.2,-1.9 1.4,-6 2.2,-8.1 11.2,-9.9 z m 37.6,-52.7 c -1.8,11.9 4.4,19.2 10.2,13.3 3.2,-3.2 5.7,-29.6 3.4,-33.8 -12.1,-12.7 -13.2,17.6 -13.6,20.5 z m -192,198.8 c 44.4,-26.4 101.8,-5.4 134,-27 15,-16.7 30,-27.3 21.4,-38.7 -6.7,-8.9 -11,-10.2 -11,-10.2 0.5,0.6 -23.4,21 -58.2,16.5 -58.1,-1.7 -85.4,16.7 -86.2,59.4 z m 75.8,-62.6 c 28.4,0.8 51.4,-4.2 61.9,-12.5 6.5,-5.1 7.5,-6.1 -2.8,-6.8 -22.1,-1.6 -44.5,-27.1 -51.7,-51.8 -1.5,-5.1 -3.2,-10.6 -3.2,-10.6 -58.3,47.1 -187.1,121.7 -187.1,121.7 8.8,39.9 -20,63.8 -59.2,49.9 -6.8,-0.6 -5.9,8.2 -4.6,11.8 2.2,5.9 6.9,10.8 7.9,11.6 5.9,5 7,8.3 6.1,13 -0.8,4.7 -0.8,4.6 2.6,6.3 5.9,3.1 5.6,7.6 2.5,16.9 -3.4,13 -3.6,16.3 5.8,22.5 12.1,7.7 35.8,16 32.4,27.7 -7.8,26.4 -20.6,49.2 -31.9,74 -4.2,6.9 -3.2,18.1 0.1,23.4 4.2,8 3.8,17.7 9.2,25.1 30,43.9 55.7,82.5 83,122.2 l 283,1 -10.9,-652.6 c 0,0 -43.4,43.2 -43.2,46.2 0.2,3.6 10.3,9.2 14.6,9.9 0.2,-2 -0.1,-9.7 0.5,-12.4 0.4,-3.9 13,-3 17.2,0.4 2.9,2.4 2.1,18 -0.7,30.7 -2.4,10.4 -2,10.6 2.5,16.5 5.5,7.3 7.4,13.5 6.7,21.8 -0.4,4.5 -0.3,8.1 1,11.1 3.1,7 2.2,17 -1.1,21.6 -4.8,6.7 -4.9,7.8 -3.8,11.3 4,12.4 2.6,23 -11.2,28.5 -1.8,0.7 -3.7,3.8 -4.8,6.4 -5.9,19.9 -17.3,20 -32.8,14.3 -10.7,42.8 -55.3,53.8 -87.4,52.8 -33.5,-1.1 -67.6,1.6 -82.6,23.6 3.1,-52 26.2,-77.1 82,-75.5 l 0,0 z m 100.6,-86.8 c 5.7,-2.2 6.4,-8.1 1.5,-11.9 -7.4,-5.8 -15.8,0.2 -12.3,8.6 2,4.8 5.3,5.4 10.8,3.3 z m -881.8,-13.6 -22.4,-15.3 0.2,13.8 22.3,14.1 -0.1,-12.6 z m 42.2,11.1 -15.9,-18.8 C 404.5,-166.4 364,-198 325.1,-223.4 l -0.2,17.5 11.1,5.5 c 0,0 0.9,-3.9 1.7,-6.1 1.4,-4.2 14.3,7.5 18.4,16.9 1,2.3 3.3,7.6 3.3,7.6 l 15,8.1 c 0,0 0.2,-4.2 0.2,-5.4 0,-9 16,3.3 23.4,17.9 1.8,3.5 4.1,7.3 4.1,7.3 l 14.1,8.4 c 5.5,-7.6 19.7,2.7 23.3,11.8 4.6,11.6 12.7,12.6 13,12.6 l 14.6,1.9 z m -84,-2 0,-13.4 -23.4,-15.2 -0.2,13.6 23.6,15 z m 957.4,-4.6 c 0.6,-3.5 -3,-17.2 -8.2,-18 -3.3,-0.5 -8.3,4.5 -8.3,8 -0.1,4.5 15.9,13.8 16.5,10 z m -19,-16.2 c 5,-5.6 -1.4,-12.8 -9.2,-10.2 -9.2,3 -6,11.4 4.4,11.5 2.3,0 3.7,-0.1 4.8,-1.3 z m -939.8,-4.3 0,-12.8 -21.6,-14.1 -0.4,12.5 22,14.4 z m -42.3,-4.3 0.1,-12.3 -14.2,-9.8 0.1,14.8 14,7.3 z m 0.3,-37 -14.5,-9.3 0.1,13.4 15.1,8.5 -0.7,-12.6 z m 58.4,-41 c -1.5,-3.9 -7.7,-16.4 -7.7,-16.4 l -65.7,-45.3 0.1,14 73.4,48.8 -0.1,-1.1 z m -31.3,-108.3 -0.8,-5.7 -5.8,3.1 6.6,2.6 z m -13.8,1.6 -9.1,5 27.7,17.8 -2.3,-12.8 -16.3,-10 z m 958.4,-157.1 7.1,-5.2 -12.6,-8.4 -0.9,8.7 6.4,4.9 z m 12.7,-8.3 9.3,-7.8 -31.4,-21.9 2.3,13.7 19.8,16 z m 22.1,-11.6 -0.1,-9.4 -51,-34 3.6,17.2 c 9,5.1 20,12.6 31.4,20.6 7.4,5 7.4,7 16.1,5.6 z m -0.1,-17.5 -0.1,-15 -59,-38.6 4.9,17.5 54.2,36.1 z m -0.1,-22.5 -0.1,-15.7 -71.4,-46.6 7.9,20.7 63.6,41.6 z m -0.3,-39.4 -90,-59.4 11.6,22.9 78.5,51.8 -0.1,-15.3 z m -0.1,-22.9 -112.9,-74.2 12.8,20.9 100.2,66.9 -0.1,-13.6 z m -0.2,-24.3 -4.2,0 c -0.3,10.7 -11.9,3 -16.4,-8.7 -3.3,-7.9 -4.1,-9.9 -4.1,-9.9 l -22.7,-15.2 c 0.5,3.1 1.9,12 1.9,12 l -15.3,-9.2 c 0,0 -4.5,-14.7 -4.6,-14.8 l -26.2,-17.6 c 0.6,3 1,8 -0.7,8.3 0,0 -7.9,-3.3 -11.6,-8.6 -3.8,-5.5 -4.4,-11 -4.4,-11 l -21.4,-13.6 -5.3,0.6 c 0,0 -2.9,-1.9 -5.6,-4.1 -5.1,-9 -11,-10.3 -18.1,-13.9 0,0 15.1,17.4 23.1,27.7 7.4,9.5 16.4,16.2 16.4,16.2 l 119.3,78.6 -0.1,-16.8 z m -0.1,-24.5 -9.2,-5.5 0.8,14.5 8.5,5.7 -0.1,-14.7 z M 418.8,-690 c 0.6,-0.9 -1.8,-1.9 -4.4,-7.6 -6.5,-14 -7.1,-18.9 -3.8,-33.7 1.6,-7.1 -4.8,-10 -7.7,-2.5 -2.3,5.9 -5.8,9.2 -9.2,8.8 -3.2,-0.4 -3.9,1 -2.5,5.4 1.7,6.1 -1.9,14.2 -7.1,16.4 -5.2,1.4 -6.1,4.7 -4.6,9.4 2.5,7.9 -6,14.7 -12.8,14.3 -10.4,-0.5 -6.3,8.9 6.3,17.8 4.7,3.3 6.7,5.1 10.4,3.4 9.4,-9 26.9,-21.9 35.4,-31.7 z m 901,23.7 -0.6,-13.8 -26.2,-17.5 3.3,18.4 23.5,12.9 z m 25.4,-5.9 -0.1,-13.9 -10.8,-6.8 0.6,14.8 10.3,5.9 z m -983,-15.7 c 2.5,2.5 5,2.7 9,0.3 4.6,-2.4 2.8,-6 -2,-8.4 -4.6,-2.3 -10.8,4.9 -7,8.1 z m -7.8,-6.1 c -0.4,-2.9 3.2,-6.8 5.6,-7 5.4,-0.4 4.4,-3.2 -1.8,-6.9 -2.9,-1.7 -8,-5.8 -9.9,-7.1 -9.2,-6.6 -18,3.7 -11.1,12.4 5.7,7.2 14.2,11.5 17.2,8.6 z m 962.7,3 -2.1,-15.3 -23.7,-15.5 2,16.9 23.8,13.9 z m -857.6,-32.4 c 1.3,-2.1 1.7,-4.2 1.5,-6.7 -0.5,-9.7 -5.6,-21 -12.6,-30.5 -5.2,-7 -11.6,-13 -18,-16.6 -18.1,-9.2 -42.1,-5 -38.6,6.9 2.5,8.1 2,14.8 -4.9,18.9 -4.7,2.8 -5.3,6.5 -0.3,6.5 3.6,0 13.2,-3.4 17.2,-9.7 5.6,-8.9 8.8,-14.1 7.6,0.4 -0.5,6.1 0.3,5.6 9.7,5.1 12.7,-0.7 10.4,1.7 3,7.5 -10.8,8.4 -12.9,22.6 -7.3,34.6 3.4,7.4 5.8,11.4 10.2,10.3 9.4,-6.3 24.9,-19 32.5,-26.7 z m 815.8,13.1 -23.3,-15.1 1,16.3 25.2,14.6 -2.9,-15.8 z m -891,-9.7 c -8.6,-10.7 -18.5,3.1 -12,9 4.7,4.1 16.5,-0.2 12,-9 z m -20.1,1.6 c -1.1,-3.3 5,-8.8 6,-10.9 2.8,-6.2 -22.5,-23.4 -30.3,-13.1 -5.4,7.1 -1.6,14.1 13,23.7 8.9,5.8 13.1,5.8 11.3,0.3 z m 908.7,-15.7 -21.5,-13.2 0.5,14.1 22.9,13.6 -1.9,-14.5 z m -37.8,12.8 -0.1,-14.4 -21.7,-14.9 -0.3,14.9 22.1,14.4 z m -840.5,-12 c 3.9,-3.9 2.6,-5.2 -5,-4.7 -4.8,0.3 -6.3,-0.5 -6.6,1.7 -0.7,4.8 7.6,7 11.6,3 z m -18,-5.4 c 0.4,-1 -2.3,-3 -6.8,-6.6 -8.5,-7 -9.5,-11.4 -1.4,-17 11.5,-7.9 -0.7,-19.1 -14.1,-14.4 -10.8,3.7 -10.8,14.7 -4.3,21.7 8.9,5.7 25,22.6 26.6,16.3 z m 858.3,-19.5 -21.3,-14.4 0.1,14.2 21.3,12.3 -0.1,-12.1 z m -854.4,6 c 9.4,-4.9 9.9,-17 0.4,-12.5 -3.9,1.9 -9,6.8 -9,9.1 0,4.3 3.8,5.9 8.6,3.4 z m 6.8,-27.8 c 12.2,-6.7 10.3,-12.8 -2,-20.4 -15,-8.5 -25.3,8 -13,19.1 6.6,5.8 8,5.1 15,1.3 z m 15.9,-12 c 19.8,-21.6 33.1,-20.5 59.4,-20.1 67.9,0.2 88.6,-32.4 86.3,-55.1 -32.9,16.6 -62.4,8 -93.8,12.9 -54.2,12.4 -60.4,38 -64.1,52.6 l 12.2,9.7 z m 271.9,-74.6 c 17.5,0.1 16.7,0.6 9.4,-13.8 17.1,2.2 24,10.4 18.3,-6.6 9.1,3.2 14.5,5.6 23.8,8.6 l 5.9,-3.5 c -36.3,-34.9 -76.1,-4.9 -65.3,30.4 l 13.4,-6.5 -5.5,-8.6 z"
                 id="path3504" /><path
                 style="fill:#d40000"
                 d="m 1394.1,522.1 -0.1,-23.1 20.8,-0.1 c 0,0 -0.1,8.1 -0.4,-75.1 -0.3,-72.5 0.3,-73 2.3,-80.1 14.2,-48.6 100.6,-49.1 106.4,4.8 0.5,26.2 0.6,31.7 0.8,31.7 l -23.1,0.1 c 0,0 -0.1,-6.6 -0.1,-10.3 0,-27 -8.5,-38.9 -29.8,-38.9 -16.3,0 -25.3,5.9 -30.3,19.2 -2.8,6.5 -3.1,12.5 -3,18.4 0.2,29.9 0.8,130 0.8,130 l 23.2,-0.1 0.4,23 -67.9,0.5 z m -623.4,-106.4 8.1,-40.7 74.9,3.2 c 0,0 8.8,25.5 12.4,36.9 l -95.4,0.6 z m -172.9,0 39.3,-65.8 56.5,15 -12.6,51.3 -83.2,-0.5 z m 109.7,0.4 16.7,-70.1 c -32.3,-6.9 -62.8,-11.4 -98.4,-20.8 l -57.3,91.7 -34.8,-0.7 c 29.7,-40.1 84,-121 84,-121 125.8,42.4 252.3,49 379.6,25.4 0,0 47.3,61.6 64.3,95.1 l -33.1,-1.4 -41.5,-68.7 c -28.6,3.3 -56.8,7.3 -86.6,8.7 l 20.8,60.6 -32.9,0.2 -19,-60.4 c -35.8,-1.2 -66,1.8 -108.9,-4.7 l -14.8,65.9 -38.1,0.2 z m 236.9,-1.4 -11.6,-43 40.4,-5 c 0,0 18.9,32.7 29.3,47.6 l -58.1,0.4 z M 1061.9,285 c 1.8,-30 7.6,-53.5 35.2,-93.5 35.3,-51 99.4,-150.4 100.9,-155.1 0,0 66.9,99.1 96.8,143.9 25.5,38.4 41.2,81.2 42.2,107 1.9,49.4 -29.1,80.6 -70.8,86 -28.7,3.7 -58.6,-22.1 -61,-52.7 -1,-12.5 -7.8,-16.3 -9.6,-5.3 -2.2,38.1 -32.2,60.9 -66.9,57.7 -51.4,-4.7 -68.7,-55.2 -66.8,-88 z m 360.2,-6.7 c -13.2,-4.1 -22.8,-17.6 -24.5,-34.6 -2,-19.5 4.9,-39.4 28.5,-75.9 11.2,-17.7 22.9,-36.5 32,-55.3 14.1,20.4 21.4,36.2 35.7,57.3 32.7,51.7 39,79.6 22.6,99.5 -11.5,14.1 -36.1,14.6 -46.3,1 -3.1,-4.1 -3.8,-6 -6,-15 -1,-4 -3.9,-4.5 -4.7,-0.8 -4.1,19.2 -19.9,29.3 -37.3,23.8 z M 579.5,16.8 c 49.8,-76.7 225.8,-323.9 225.8,-323.9 l 25.8,2.3 c 0,0 -156.3,220.7 -232.2,332.6 l -19.4,-11 z m -256.9,-117.2 62.1,44.2 2.5,346.8 -62.6,44.6 -2,-435.6 z m 253.5,-569 37.9,73.1 c -158.2,151.7 -126,328.4 -40,454.1 0,0 -10.9,28.3 -34.7,58.4 -115.8,-75.4 -152,-272.9 -151.2,-275 126.5,-114.1 143.4,-150.3 188,-310.6 z m 653.5,536.5 c 7.6,-111.7 61.7,-184.9 122.6,-229.9 l 3.8,113.5 c -39.8,38.7 -81.9,78.6 -126.4,116.4 z m -166.8,-111.5 c 138.6,-131 142.3,-315.8 39.9,-450.9 l 41.2,-58.3 c 59.3,62.7 117.4,128.4 142.9,281.7 -87.8,70.1 -165.2,185.5 -185.2,301.6 l -38.8,-74.1 z m -193,-150.3 -0.6,-53.2 52.1,-0.6 -1.2,53.1 -50.3,0.7 z m -110.2,0.3 -1.1,-53 51.5,0.1 -0.5,53.7 -49.9,-0.8 z M 848,-536.9 c 0,0 171.3,-242.8 238.6,-330.5 l 14.5,10.5 -227.8,321.2 -25.3,-1.2 z M 443.6,-703.6 c 0.4,95.4 -60.3,171.3 -122.5,221 l 0.2,-108.6 122.3,-112.4 z m 35.3,-173.8 c 0,0 -125.3,-165.6 -139,-237.9 -4.7,-44 20.1,-90.4 63.2,-96.5 33.6,-4.3 66.1,19.6 70.4,53.9 0.8,6.7 2.3,8.6 5.9,7 2.6,-1.2 3,-2.5 4,-14.2 3,-33.2 33.9,-51.8 66,-49.1 57.6,7 78.1,78.8 62.3,115.2 -33.5,76.8 -139.8,224.5 -132.8,221.6 z m -330.4,-190.1 c -4.9,-19.4 2.3,-44.6 16.2,-51 20.7,-9.5 40.7,2.2 44.2,20.7 1.3,6.9 4.2,6.5 5.3,-0.8 2.7,-17.8 23.3,-27.9 41.2,-18.8 22.2,11.3 26.8,40.8 10.5,73.7 -18.3,31.4 -55.6,91.4 -55.6,91.4 -1.1,-3.4 -53.2,-80.8 -61.8,-115.2 z m 1199.9,-101.8 2.9,423.4 -58.6,-34.8 2.9,-355.1 52.8,-33.5 z m -278.1,26.8 c -132,-33.5 -252.1,-43 -378.1,-15.2 -16.6,-19.5 -72.3,-100.9 -72.3,-100.9 l 31.9,0.3 45.6,72 86,-11.7 -22.5,-58.7 35.5,-0.1 18,57.6 c -0.2,-0.5 70,0.3 109,4.7 6.1,-21.4 17.4,-64.1 17.4,-64.1 l 39.1,-0.3 c -4.9,20.5 -18.1,69.2 -18.1,69.2 32,4.3 91.5,19 92,19.6 20.6,-29.6 39.8,-59.1 58.5,-88.6 l 38.1,-0.4 c -11.3,19 -78,117.5 -80.1,116.6 z m -921.7,-76.5 23.7,-0.1 c -0.7,17.3 -0.3,37.9 15.7,45.2 28.3,9.5 47,-7.8 48.7,-32.6 1.1,-28.5 -0.2,-131.4 -0.2,-131.4 l -22.5,0.1 -0.1,-23.3 69.1,-0.4 0.1,23.3 -22.7,0.1 c 0,0 2.1,88.2 0.6,132.2 -0.8,43.4 -33.9,58.3 -61.3,56.8 -56.6,-1.8 -52.2,-42.4 -51.1,-69.9 z m 897.1,25.8 -58.3,-13.2 14.9,-51.4 81.4,-0.5 -38,65.1 z m -334.4,-16.5 -27.3,-47.5 52.1,-0.3 17.5,41.8 -42.3,6 z m 118.2,-10.4 -8.1,-37.9 94.6,-0.6 -9.4,40.4 -77.1,-1.9 z"
                 id="path3502" /><path
                 d="m 613,-1260 84.8,120.9 c 0.4,-0.4 47.1,-9.6 93,-12.1 45.7,-2.5 100.2,0 100.6,1.4 0,0 14.6,43.3 19.6,64.6 6.6,28.4 6.1,61.2 -0.5,83 -9.8,31.9 -15,41.5 -37.1,63.5 -16.4,16.1 -39.6,33.6 -63.6,43 -33.2,14.1 -36.6,14 -56.2,15.1 -13,0.7 -14.3,1.2 -21.4,4.9 -2.2,0.8 -3.6,3.1 -5.5,3.7 -1.6,0.6 -4.8,0 -4.8,0 -107.9,48.1 -192.3,101.4 -256,149 -0.7,0.6 -1.2,3 -1.9,3.6 -5.2,4.3 -10,7.6 -15.1,11.5 -0.7,0.5 -2.3,-0.4 -3,0.1 -74.9,58.4 -117.3,105.7 -132.9,119.4 l 3.1,270 c 0,0 34.2,-17.8 51.7,-28.6 13,104.5 65.7,205.8 148.5,275.8 l -35.3,49.7 -165.3,-112.4 5.2,498.3 87.2,-61.3 -0.3,-52.6 c 26.2,17.4 51.7,24.1 70.7,104 14.6,-28.2 13.1,-70 6.3,-97.9 0.1,0 22.1,-18.4 28.8,-32.5 l -32.7,-28.7 c 0,0 8,-69.9 -7.4,-83.9 -11.9,31.8 -21.4,65.4 -66.6,90.2 l -2,-242.7 c 22.7,14.2 44.2,30.2 66.6,44.7 l 3.1,-0.6 23.2,15.7 c 0,0 -2.4,5 -4.6,8.4 -27.8,42.8 19.3,94.7 57.2,63.1 14.8,-12.4 43.1,38.6 48.7,87.8 5.6,31.8 8.7,71.2 17.5,98.8 2.7,8 1.7,12.6 -4,17.5 -28.9,41.2 -87.1,124.3 -87.1,124.3 l 42.2,-0.2 3,-4.9 -31.1,0.2 c 26.6,-35.9 52,-77.6 79.6,-112.6 103.9,38.4 273.8,46.4 376.3,22.2 21.4,29.6 42.1,60.6 62.7,90.8 l -29.5,0.2 4.1,6.3 39.9,-0.2 -85,-123.5 c -57.8,17.6 -199.1,11.7 -196.6,10.3 0,0 -0.4,-1 -5.4,-15 C 761,214.2 758.3,144.7 818.8,88.2 850.9,59.3 886.9,40.1 927.3,43.5 c 18,-0.5 18.4,-1.4 25.8,-4.9 4.1,-1.9 12.7,-3.9 12.7,-3.9 l 40.7,-22.9 5.4,-1.1 11.7,-6.3 2.4,-2.9 18.9,-9.8 2.1,0.2 25.6,-14.9 0.3,-2.1 10.1,-6.3 2.4,2.5 c 2.8,0.2 100.2,-64.5 140.8,-100.5 l 2.5,0.9 c 47.4,-38.8 111.8,-99.9 130.8,-123.1 l -1.7,-115.6 -1.6,-1.4 -1.4,-128 -3.7,0 -0.2,-15.8 c -21,7.9 -44.1,27.6 -45.6,26.8 -14,-108.3 -64.5,-207.8 -146.5,-280.6 l 34.4,-48.1 161.9,107.5 0.3,-31.7 2,0 c 1.3,-121.5 0.5,-436.5 0.5,-436.5 l -1.6,-0.1 -0.2,-25.1 -82.1,53.1 -0.8,53.2 c -36.6,-11.7 -60,-55.5 -67.9,-94.5 -10.6,4.3 -15.3,45.5 -11.1,97.7 -11.3,6.8 -18.4,14.2 -25.3,23.2 9,11.2 19,20.4 30,29.8 -2.3,4.9 -6.7,74.6 -1.8,83.2 2.2,6.4 9.8,5.4 9.8,-1.3 10.8,-54.4 62.1,-90.3 65,-87 l 0.2,250.3 -91.9,-63.6 c 19.1,-21.8 22.9,-58.4 -1.4,-76.2 -24.4,-17.8 -48,-2.4 -53.6,9 -29.8,-19.2 -40.2,-90.8 -44.7,-118.9 -1.2,-13.7 -4.8,-32.2 -8.9,-48.9 -2.6,-10.5 -5.7,-20.5 -6.1,-29.9 -0.2,-4.4 0.3,-6.3 4.3,-11.9 l 88.2,-126.7 -45.4,0.1 -0.4,0.8 35.7,-0.1 -79.5,114.4 c -120.9,-37.2 -246.1,-45.6 -379.8,-20.8 l -66.7,-92.6 30.1,-0.3 -1.2,-2 -37.8,0.1 z m 69.7,0.7 1.3,2.3 52,-0.5 -0.8,-1.9 c 0,0 -52.3,0.1 -52.5,0.1 z m 77.1,-0.2 1,2.7 35.5,-0.1 -1.1,-2.7 -35.4,0.1 z m 181.1,-0.1 -0.4,1.3 39.1,-0.2 0.3,-1.3 -39,0.2 z m -119.8,0.7 0.4,1.6 94.3,-0.6 0.3,-1.5 -95,0.5 z m 181.6,-0.2 -0.4,1.3 81.4,-0.5 0.7,-1.3 -81.7,0.5 z m 343.7,67.4 0.4,17.1 -54.5,35.1 c -0.9,73.3 -1.4,355 -1.4,355 l -13.1,-8.5 0.5,-352.9 c 0,0.1 48.1,-31.3 68.1,-45.8 z m -143.3,14.6 1.8,0 0.6,4 -3.2,0 0.8,-4 z m 3.9,10.3 1.5,5.4 -8,0 1.3,-5.2 5.2,-0.2 z m 138,2 0.1,11.2 -47,29.7 -0.1,-11.1 47,-29.8 z m -145.5,10.2 12.3,0.1 2.1,6.2 -15.5,0.1 1.1,-6.4 z m -302.9,5.1 8.3,1.2 c 19.2,45 24.3,83.7 27.8,123.9 7.8,52.3 23.4,104.6 34.1,126.8 l -12.1,-0.1 c -1.4,-0.2 -27.4,-75.7 -33,-120.4 -1.5,-8.8 -1,-17.1 -1.5,-25.3 -2.9,-34.5 -7.8,-60.4 -23.6,-106.1 z m 15.5,1.7 10.5,1 c 7.5,32 18.4,62.1 23,94.3 7.3,51.4 11.3,103.9 36.4,154.5 l -9.8,0 c -15.3,-34.2 -24.8,-69.9 -31,-108.5 -4.8,-22.1 -5,-38.8 -7.6,-58.8 -3.1,-24.1 -12.6,-54.7 -21.5,-82.5 z m 16,1.4 10.5,1.5 c 7.1,31.8 19.2,66.7 22.5,95.4 6.8,58.5 16.3,113 35,151.6 l -7.4,-0.2 c -28.8,-55.1 -29.6,-104.3 -37.9,-156 -4.8,-30.5 -14.9,-60.9 -22.7,-92.3 l 0,0 z m 16.8,2.4 9.3,1.4 c 6.7,31.6 18.5,67.3 21.4,99.4 5.1,56.8 15.4,99.7 36.9,145.4 l -8.7,0.2 c -25.8,-44.5 -29.5,-99.3 -37.8,-154.8 -4.6,-30.6 -14.7,-61.4 -21.1,-91.6 z m 400.2,-2.3 0.1,13.8 -47,30.6 -0.1,-13.7 47,-30.7 z m -384.9,4.9 9.7,1.4 c 6.4,30.5 18.3,63 21.2,92.7 5,50.7 14.6,102 35.8,149.1 l -9,0.6 c -22.4,-47.6 -32.3,-90.9 -36.8,-145.7 -2.5,-30.7 -14.5,-68.1 -20.9,-98.1 z m 256.8,-1.3 3.4,8.2 -22.6,1.2 0.2,-9.2 19,-0.2 z m -240.8,4.3 11.6,2.2 c 12.5,48.6 16,94.7 24.6,140.9 10.8,57.4 21.9,86.2 31,96.9 l -9.6,0.4 c -23.6,-49.6 -32.2,-99.1 -37.9,-150.3 -3.4,-30.3 -13.5,-60 -19.7,-90.1 l 0,0 z m 17.6,3.2 8.8,1.7 c 10.7,39.7 15.7,76.9 20.5,112.9 8.8,68.3 31.9,120.2 36.8,122.6 l -9.7,-0.4 c -21.3,-29 -29.4,-78.6 -40.1,-148.5 -4.7,-30.8 -9.4,-59.7 -16.3,-88.3 l 0,0 z m 14.2,2.7 9.9,2.4 c 0,0 9.1,34.9 16.1,81.3 5.8,38.7 9.2,114.8 51.6,158.4 21.1,21.7 58.2,40.5 83.4,19.7 10.7,-9.3 17.6,-24 11,-39.8 -11.1,-26.3 -47.9,-21.6 -35.5,6 1.4,6.6 -7.3,7 -13.3,0.5 -6.4,-6.9 -4.9,-14.8 -0.4,-22.1 9.4,-15.4 34.8,-17.1 49.8,-3.5 24,23.2 13.9,63.3 -16.2,76.2 -34.7,15 -79.7,-15.2 -97.6,-44.2 -29.7,-50.5 -34.5,-98.6 -41.7,-149.7 -3.7,-27.6 -10.6,-56.5 -17.1,-85.2 z m 14.9,4 10,2.4 c 0,0.1 11.3,49.3 15.1,78.4 4.7,36 9.9,78.4 25.5,111.1 9.7,20.3 23.8,37.4 37.9,47.3 12.2,8.5 23.1,13.9 39.2,10.3 18.6,-4.2 19.2,-33 1.5,-33 -9.1,0 -3.2,-8.8 4.3,-9.1 26.8,-1 27.8,41.2 2.6,50.8 -28.8,11 -60.2,-9.2 -79.7,-34.6 -34.2,-52.4 -33.1,-100.3 -40.8,-142.6 -1.9,-22.4 -14.8,-79.9 -15.6,-81 z m 202.8,0.3 6.2,8.2 -34,0 0.1,-7.8 27.7,-0.4 z m -187.8,3.8 9.6,3.3 c 0.3,0 9.9,38.1 15.9,83.2 7.2,43.5 9.6,79.7 32.3,111 9.5,13 27.3,30.4 38.4,32.4 6.9,1.5 14.1,-0.1 15.8,-5.4 2.8,-8.6 10.2,-4.7 10.4,3.1 0,5.5 -4,11.1 -10.7,13.2 -33.1,5.9 -63.6,-35.5 -73,-56.5 -12.6,-30.6 -18.2,-64.8 -23.8,-107.5 -2.3,-18.1 -13.6,-75.6 -14.9,-76.8 l 0,0 z m 307.3,-0.3 -0.1,13.8 -46.8,29.9 -0.1,-13.4 47,-30.3 z m -292.8,4.5 10.8,2.9 c 0,0 9.2,33.5 14.8,75 5.7,42 17.6,90.8 39.5,116 2,2.4 3.4,4.1 4.2,5.5 1.6,3.4 -0.2,9.2 -1.9,9.3 -38.9,-20 -48.5,-101 -52,-128.4 -5.2,-42.5 -15.4,-80.3 -15.4,-80.3 l 0,0 z m 150.8,5.6 34.2,0.8 8.2,8 -45.3,-0.1 c -4.8,-5 -1.8,-4.5 2.9,-8.7 z m 142.1,10.3 0.1,11.4 -47,30.2 -0.1,-11.7 47,-29.9 z m -140.8,4.5 50.1,0.6 17.6,10.3 -76.5,-0.2 8.8,-10.7 z m 140.9,13.6 0.1,13.7 -47,29.8 -0.1,-12.9 47,-30.6 z m -159.4,3.6 85.1,0.4 0.3,9.2 -92.3,-1.8 6.9,-7.8 z m -11,15.8 96.2,-0.3 0.3,10.2 -87.5,-0.3 -9,-9.6 z m 170.6,0.6 0.1,14.3 -47,29.5 -0.1,-13.6 47,-30.2 z m -152.4,15.9 73.8,-0.1 -7.9,8.6 -55.6,-0.2 -10.3,-8.3 z m 152.5,4.1 0.1,13.5 -47,29.9 -0.1,-13.3 47,-30.1 z m -96.9,10.9 -8.9,8.7 -38.2,-0.3 1.3,-7.9 45.8,-0.5 z m 97,8.9 0.1,14.5 -47,29.1 -0.1,-12.5 47,-31.1 z m -144.6,6.1 31.5,0.5 -4.8,6.7 -27.6,0.3 0.9,-7.5 z m -283.5,13.2 c 5,36.4 31.8,109.6 31.8,109.6 l -10.4,0.2 c 0.5,0.7 -19.2,-46.1 -26.4,-90.3 -0.8,-4.3 2,-18.5 5,-19.5 z m 281.5,0.5 24.3,0.3 -5.2,9.4 -19.8,0.1 0.7,-9.8 z m 146.7,1.3 0.1,12.7 -47,29.3 -0.1,-11.5 47,-30.5 z m -147.3,13.7 16.1,0.4 -3.8,8.7 -12.5,-0.3 0.2,-8.8 z m 147.4,5.9 0.1,13.5 -47,29.5 -0.1,-13 47,-30 z m -438,5.5 c 4.9,26.5 25.3,79.6 26.9,83.1 l -8.9,0.2 c -0.4,1.2 -21.2,-47.6 -23.5,-68.6 -1.2,-4.4 1.1,-13.1 5.5,-14.7 z m 290.5,3.9 9.5,0.4 -1.6,5 -7.7,0.2 -0.2,-5.6 z m 0.9,11.9 5,0.1 -1.2,4.7 -3.1,0 -0.7,-4.8 z m 146.8,-0.6 0.1,10.9 -47,30.1 -0.1,-10.3 47,-30.7 z m -449.9,3.9 c 7.3,21.2 14.6,42.8 23.2,63.5 l -10.6,-0.2 c -7.1,-14.9 -12.1,-31.7 -17.7,-48.1 -1.6,-6.9 1.6,-12.8 5.1,-15.2 l 0,0 z m -10.5,14.2 17.9,49 -10,0.1 c -4.2,-9.8 -8.8,-20.8 -12.1,-31 -3.4,-10.6 -3.1,-10.9 4.2,-18.1 l 0,0 z m 460.5,0.4 0.1,12.9 -47,29.5 -0.1,-11.2 47,-31.2 z m -467.7,21.7 9.8,27.1 -12.3,-0.2 c -3.7,-8.5 -5.9,-16 -6.9,-24.3 -0.4,-4 -1.1,-8.1 1.7,-9.8 5.5,-3.2 4.9,-0.6 7.7,7.2 z m -13,11.2 5.2,15.9 -11.5,-0.2 c -3.4,-7.5 -4.8,-12.9 -3.8,-20.8 6.9,-8 7.4,-3.9 10.1,5.1 l 0,0 z m 480.8,-12.2 0.1,13.5 -47,28.6 -0.1,-12.6 47,-29.5 z m -497.1,12.7 4.9,15.7 -10.4,-0.2 c -1.7,-3.7 -0.7,-8.2 -0.8,-12.3 l 6.3,-3.2 z m -13.6,8.1 c 0.2,0 0.3,0 0.3,0.1 1.5,6.9 0.1,7.4 0.2,7.3 l -14.5,0 c 0,0 11.7,-7.5 14,-7.4 z m 510.8,1 0.1,10.8 -47,29.7 -0.1,-11 47,-29.5 z m -560.6,20.5 283.4,-0.9 9.5,13.3 c 0,0 -27.6,0.9 -117.9,0.9 -76,1.4 -228.8,-0.3 -228.8,-0.3 l 14.8,-7.1 c 20.6,-0.6 39.3,-6.1 39,-5.9 z m 560.7,-1.8 0.1,11.9 -47,28.8 -0.1,-11.5 47,-29.2 z m -797.3,16.2 c -22.7,10.2 -44,12.8 -59.9,11.6 -34.2,-2.6 -86.5,12 -96.8,45 -3.2,11.6 -3.3,12 3,17.8 3.1,2.9 6.2,5.1 6.7,4.9 5.5,-4.9 12.7,-14 20.5,-16.7 10.3,-3.2 15.8,-3.6 32.7,-4.5 36.3,-1.8 44.5,-3.4 53.5,-5.8 19.9,-5.4 39.8,-25.1 40.9,-46.9 0.2,-2.5 -0.6,-5.4 -0.6,-5.4 l 0,0 z m -1,3 c -3.6,45.5 -52.8,51.7 -74.4,50.5 -43.9,-2.4 -61.1,10.8 -68,19 -2.3,2.2 -3.6,1.7 -3.3,-0.3 4.9,-25.2 45.6,-26.4 66.1,-26.2 50.2,2 62.8,-22.3 61.3,-22.5 -3.8,1.7 -6.6,3.3 -10.5,5.1 -1.7,0.7 -1.3,-0.3 -5.7,-2.8 -0.1,0.3 -5,11.6 -11.4,1 0.2,0.5 -4.5,9.5 -13.3,1.2 0.1,0.9 -5.2,8.6 -13.8,0.8 -8,6.9 -11.9,3.2 -15.3,-1.7 -2.5,1.5 -9.9,11.6 -16.2,0.8 -6.6,4.3 -9.3,8.8 -15.1,6.1 -13.3,2.5 -24.7,16.2 -29.3,28.7 -1.4,4.3 -4.4,5 -4.8,0.3 -1.7,-13 19.7,-35.7 41.2,-42.1 16.7,-5 28.1,-8.5 65,-7.3 21,0.6 47.5,-10.6 47.5,-10.6 z m 537.6,0.2 13.3,8.9 -229.2,320.1 -20.4,-0.4 236.3,-328.6 z m -370.8,2.4 26.3,-0.2 0.3,43.4 -22.7,0.1 -8.2,-12 c 2.1,1.2 4.5,1.9 7.1,1.9 7.8,0 14.1,-6.4 14,-14.2 0,-7.8 -6.4,-14 -14.2,-14 -7.8,0 -14.1,6.4 -14,14.1 0,0.7 0.1,1.4 0.2,2 l -8.5,-12.5 c 0,0 3.6,-2.2 12.2,-6 2.2,-0.7 7.5,-2.6 7.5,-2.6 z m 81,-0.4 44.5,-0.3 0.3,43.4 -44.5,0.3 -0.3,-43.4 z m 97.6,-0.6 46.1,-0.3 0.3,43.7 -46.1,0 -0.3,-43.4 z m 99.5,-0.6 46.1,-0.3 0.3,43.4 -46.1,0.3 -0.3,-43.4 z m 352.8,-1.1 0.8,13.6 -47,28.9 -0.1,-13.4 46.3,-29.1 z m -331.4,6.5 c -8.2,0 -14.9,6.7 -14.8,15 0,8.2 6.8,14.9 15,14.8 8.2,0 14.9,-6.8 14.8,-15 -0.1,-8.2 -6.8,-14.9 -15,-14.8 z m -196,1.9 c -8.2,0 -14.9,6.7 -14.8,15 0,8.2 6.8,14.9 15,14.8 8.2,0 14.9,-6.8 14.8,-15 -0.1,-8.2 -6.8,-14.8 -15,-14.8 z m 97.1,-0.3 c -8.2,0 -14.9,6.7 -14.8,15 0.1,8.3 6.8,14.9 15,14.8 8.2,0 14.9,-6.8 14.8,-15 -0.1,-8.2 -6.8,-14.8 -15,-14.8 z m 50.2,1.5 c 6.9,0 12.5,5.5 12.6,12.4 0,6.9 -5.5,12.5 -12.4,12.6 -6.9,0.1 -12.5,-5.5 -12.6,-12.4 -0.1,-6.9 5.5,-12.5 12.4,-12.6 z m -197.6,1.4 c 6.9,0 12.5,5.5 12.6,12.4 0,6.9 -5.5,12.5 -12.4,12.6 -6.9,0 -12.5,-5.5 -12.6,-12.4 -0.1,-7 5.5,-12.6 12.4,-12.6 z m 296.2,-1.3 c 3,0 5.7,1.1 7.7,2.9 l -13.5,18.6 c -3.4,-2 -5.7,-5.7 -5.7,-9.9 0,-6.4 5.1,-11.6 11.5,-11.6 z m -195.7,1.2 c 6.9,0 12.5,5.5 12.6,12.4 0,6.9 -5.5,12.5 -12.4,12.6 -6.9,0 -12.5,-5.5 -12.6,-12.4 -0.1,-6.9 5.5,-12.6 12.4,-12.6 z m -150.9,1.8 c 5.1,0 9.3,4.1 9.4,9.3 0,5.1 -4.1,9.4 -9.3,9.4 -5.1,0 -9.4,-4.1 -9.4,-9.3 -0.1,-5.2 4.1,-9.4 9.3,-9.4 z m -28.6,0.7 c 80,100.7 122.8,202.9 142,314.6 L 818,-538.7 C 795.2,-660.1 744.9,-764 677,-847.7 l 12.3,-5.1 z m 325.3,-1.9 c 5.4,0 9.9,4.3 9.9,9.8 0,5.4 -4.4,9.9 -9.8,9.9 -5.4,0 -9.9,-4.4 -9.9,-9.8 0,-5.4 4.4,-9.8 9.8,-9.9 z m -196,2 c 5.4,0 9.9,4.3 9.9,9.8 0,5.5 -4.4,9.9 -9.8,9.9 -5.4,0 -9.9,-4.4 -9.9,-9.8 -0.1,-5.5 4.3,-9.9 9.8,-9.9 z m 97.1,-0.3 c 5.4,0 9.9,4.3 9.9,9.8 0,5.4 -4.4,9.9 -9.8,9.9 -5.4,0 -9.9,-4.4 -9.9,-9.8 0,-5.5 4.4,-9.9 9.8,-9.9 z m 247.2,5.6 c 5.5,40 -4.7,65.9 -35.2,70.3 -38.9,5.6 -43.9,8.5 -43.9,45.4 0,43.7 -6.4,56.3 -37.3,60 -34.8,4.1 -42.9,8.3 -39.5,51.5 2.5,31.6 -9.9,45.1 -36.7,51.1 -20.9,4.7 -39,11.8 -46.7,33 l -19.2,0.4 c 4.8,-33.3 38.1,-49.4 59.5,-50.6 23.1,-5.6 27.9,-13.4 23.9,-53.9 -3,-30.5 8.1,-39.8 43.9,-47 28.6,-5.8 35.6,-14.1 33.9,-37.5 -3.6,-50.2 -0.4,-57.8 28.1,-64 14.5,-3.5 38.2,-5.2 47.2,-16.4 10.2,-12.7 7.5,-23.4 6.5,-38.9 l 15.5,-3.4 z m 183.9,0.2 0.1,13.1 -47,29.4 -0.1,-12.8 47,-29.7 z m -693,11.9 c -9.8,43.6 24.9,52.9 46,60.1 24.6,8.4 30.6,20.8 28.1,64 -1.9,32.7 1.7,39.9 23,51.1 32.5,16.5 41.4,40.2 27.2,75.1 -8.7,21.5 -4.1,27.5 1.7,46.2 l -15.7,-0.1 c -1.1,0.4 -14.6,-23.3 -3.4,-48.9 13.2,-30.3 12.8,-45.5 -17.2,-58.9 -23.2,-10.4 -30.4,-20.3 -31.9,-41.9 -0.7,-9.1 -0.6,-13.7 1.4,-33.5 2.5,-25 -6.4,-35.7 -43.5,-49.2 -16.5,-6 -27.8,-20.2 -31.3,-42.8 -1,-6.3 -0.2,-13.6 -0.2,-13.6 l 15.8,-7.6 z m 552.9,1.5 141.1,92.7 -0.8,20.8 -149.7,-98.8 9.4,-14.7 z m -90.6,2.6 c 6.8,0 12.3,5.4 12.4,12.2 0,6.8 -5.4,12.3 -12.2,12.4 -6.8,0 -12.3,-5.4 -12.4,-12.2 -0.1,-6.9 5.4,-12.4 12.2,-12.4 z m -442.3,7.9 c 6.2,0 11.2,4.9 11.2,11.1 0,6.2 -4.9,11.2 -11.1,11.3 -6.2,0 -11.2,-4.9 -11.3,-11.1 0.1,-6.2 5.1,-11.2 11.2,-11.3 z m 672.8,-2.6 -0.4,12.5 -46.1,28.9 -0.1,-12.5 46.6,-28.9 z m -733.7,13.1 c 42.8,55.2 85,112 117.8,219.4 L 717,-588 c -27.1,-86.4 -68.5,-158.1 -117.1,-217.3 l 13,-7.5 z m 111.1,-1.2 320.3,-1.9 -8.2,11.1 -306,-1.3 -6.1,-7.9 z m 623.1,6.7 0.1,13.7 -35.3,21.8 -10.5,-6.8 45.7,-28.7 z m -752.9,5.9 6.3,8.2 c 0,0 -6.8,5.4 -14.4,10.9 -20.9,15.1 -23.6,16.8 -24.9,26.6 -3.2,23.2 20.7,34.5 44.6,21 8.6,-4 27.3,-16 27.3,-16 l 5.5,7.9 c 0,0 -26.9,20.3 -42.7,25 -34.7,10.3 -60.9,-33.6 -35.4,-59.9 3.9,-4 12.2,-9.4 18.7,-13.7 6.8,-4.3 15,-10 15,-10 z m 143,4.6 295.1,0 -186.9,258.8 -8.4,-0.4 c -15.2,-96.3 -51.9,-180.3 -99.8,-258.4 z m -128.6,11.7 17.4,24 c 0,0 -11.2,10.8 -29.7,21.1 -14.8,8.2 -31,-6.5 -21.7,-19.9 9.5,-13.3 34,-25.2 34,-25.2 z m 738.6,-1.9 0.1,12.6 -20.4,12.7 -9.4,-5.9 29.7,-19.4 z m -740.7,14 c -8.2,0.5 -21.7,9.8 -26.3,17.9 -2,3.5 -1.2,6.3 0.6,8.7 2.8,3.6 6.1,3.4 15.9,-1.9 20,-10.8 23.7,-17.2 14.8,-23.4 -1.2,-0.9 -2.7,-1.2 -4.3,-1.3 -0.2,0 -0.4,0 -0.7,0 z m -0.6,5.2 c 1.3,-0.1 2.8,0.3 4,0.1 3.5,1.4 2.4,5.7 -1.2,6.8 -0.8,-1.3 -6.8,-1.4 -6.4,4.7 -1.4,3.5 -1.4,3.2 -5.8,3.7 -2.9,-0.7 -4.9,1.3 -5.4,2.6 -3,1.6 -6.8,1.2 -7.5,-0.7 -0.7,-1.8 1.8,-6.9 3.9,-6.9 1,0.1 2.8,-1.5 4.7,-2.7 -0.1,-3.3 3.8,-3.8 5,-3.8 1.1,0.2 4.9,0.3 6.7,-2.8 0.5,-0.7 1.2,-0.9 2,-1 l 0,0 z m 741.4,-1.4 0.1,19.4 -14.9,-9.4 14.8,-10 z m -818.8,7.3 c 54.1,63.1 93.2,130.5 118.4,223.8 l -10.7,7.5 C 619.5,-596 594,-665.2 519.3,-754.8 l 9.2,-7.1 z m 628.8,-2.6 c 24.5,20.5 124.7,113.7 144.7,280.2 l -13.3,8.3 c -11.2,-87.9 -46.4,-188.5 -140,-277.3 l 8.6,-11.2 z m -48.1,6 c 6.8,0 12.3,5.4 12.4,12.2 0,6.8 -5.4,12.3 -12.2,12.4 -6.8,0 -12.3,-5.4 -12.4,-12.2 -0.1,-6.8 5.4,-12.3 12.2,-12.4 z m -595.6,8.3 c 0,0 11.4,11.5 11.4,14.3 0,5.5 -4.3,8.6 -30.2,18.2 -4.4,1.6 -23.5,6.2 -23.5,6.2 l -0.8,-9.3 c 9.8,-3.6 36,-10 37.9,-15.6 0.9,-2.2 -3.8,-7.7 -2.8,-7.7 l 8,-6.1 z m 179,1.4 c 6.2,0 11.2,4.9 11.2,11.1 0,6.2 -4.9,11.2 -11.1,11.3 -6.2,0 -11.2,-4.9 -11.3,-11.1 0.1,-6.3 5.1,-11.3 11.2,-11.3 z m 452.5,0.5 c 81.7,78.9 127,176.7 138,277.9 -94.2,77.5 -157.9,174.6 -182.7,295.8 -12.7,-21 -23.6,-45.1 -35.4,-68.7 125.6,-111.7 151,-311.6 41,-451.1 l 39.1,-53.9 z m -496.8,18 5.7,8.8 c 0,0 -1.2,1.1 -18.8,12.2 -25.8,16.2 -30,26.7 -21.2,43.1 8.9,16.8 18.8,17.6 46.5,4 9.8,-4.8 18.1,-9.9 18.1,-9.9 l 4.5,9.2 c 0,0 -12.4,10.2 -36.3,19.1 -22.5,8.4 -43.9,-5.6 -48,-31.6 -3,-18.9 5.2,-29.1 37.9,-47.9 3.6,-2 11.6,-7 11.6,-7 z m 387.1,1.9 c 6.8,0 12.3,5.4 12.4,12.2 0,6.8 -5.4,12.3 -12.2,12.4 -6.8,0 -12.3,-5.4 -12.4,-12.2 -0.1,-6.8 5.4,-12.3 12.2,-12.4 z m -502,3.5 7.5,7 c 0,0 -3.2,4.7 -21.4,15.9 -16.4,10 -18.1,8.4 -9.9,15.3 15.4,12.8 36.7,41.3 36.7,48.7 -0.1,7.1 -6.4,13.7 -18.6,19.3 -6.7,3.1 -33.1,12.7 -37,13.4 -7.7,0.9 -9.9,4 -2.1,11 13.2,15 24.6,47.2 20.2,57.1 -5,11.1 -11.1,13 -59.7,15.5 -5.5,0.3 -8.2,-1.3 -5.2,5.8 2.2,5.1 4.5,12.2 9,34.1 4,19.5 3.4,28.3 -4.2,32.3 -4.3,2.3 -38.2,1.7 -52.2,-0.9 -16,-3.1 -17.8,-3.3 -15.1,7.2 3.4,14.4 5.8,52.9 -5.1,60.4 -4.5,3 -9.4,2.3 -29.3,-4.3 -12.7,-4.2 -23.7,-9 -23.7,-9 l 0.1,-12 c 10.4,4.2 38.8,16.3 46.8,12.3 9.5,-13.7 -4.1,-61.7 -9.2,-71.9 -6.2,-12.2 0.2,-15 14.3,-7.4 7.4,5.2 71.3,29.9 67.6,7.5 -4,-21.3 -11.1,-45.6 -24.6,-60.7 -12.5,-14 -6.4,-19.8 7.5,-13.7 24.6,10.8 75.1,7.8 72.5,-3.5 -3.4,-18.4 -20.3,-43.3 -43.4,-62.6 -6.4,-5.4 -6.7,-7.7 0.9,-9 21.4,-1.8 82.7,-8.5 74,-22.8 -7.4,-11.7 -17.3,-24.7 -25.7,-31.7 -13.8,-11.4 -27.7,-16.3 -33.8,-18.7 l 0.3,-8.8 c 27.8,-2.8 42.3,-11.3 62.8,-25.8 l 0,0 z m -67.6,9.1 c -9.4,105 -52.8,191.7 -143,252.6 l -0.6,-11.7 c 79.3,-60.3 117.1,-145.6 126.9,-227.9 l 16.7,-13 z m 193.1,5.4 c 0.1,0 0.1,0 0,0 0.1,0 14.8,26.2 14.8,28.5 -8.6,8.1 -31.2,19.9 -40.6,17.2 -14.4,-4.5 -16.7,-19.8 -3,-28.9 11.8,-8.7 26.6,-16.3 28.6,-16.9 0.1,0.1 0.2,0.1 0.2,0.1 l 0,0 z m -116.1,-0.9 7.5,6.6 c 0,0 -1.9,2.9 -12.6,11.6 -8.3,6.5 -5.4,3.9 0.3,11.5 5.1,6 14.2,18.2 14.2,18.2 l -2.6,16.2 c -9.5,-13.4 -17.4,-23.1 -31.5,-37.4 -7.2,-7.3 -6.8,-7.5 3.4,-12.8 7.6,-4.3 13.7,-9.4 21.3,-13.9 z m 203.5,9.2 c 6.2,0 11.2,4.9 11.2,11.1 0,6.2 -4.9,11.2 -11.1,11.3 -6.2,0 -11.2,-4.9 -11.3,-11.1 -0.1,-6.2 5,-11.2 11.2,-11.3 z m -90.4,1.5 c -10.6,2.9 -21,12.4 -26.8,16.7 -2.1,1.5 -0.4,9.2 1.7,11.8 2.6,3.4 7.5,2.8 13.3,-0.5 2.4,-1.4 6.8,-3.6 9.7,-5 8.2,-3.8 11.6,-6.7 11.3,-9.8 -1.4,-4.3 -4.8,-13.6 -9.2,-13.2 z m 0.6,4.8 c 3,0.1 5.2,3.9 4.2,6.2 -5.1,2.8 -8,0.5 -7.3,4.4 0,0 0.5,6 -7,6.2 -1.8,-0.8 -5,-0.6 -6.6,0.9 -5.2,2.2 -9.8,-2.4 -4.2,-5 1.5,-0.7 5.3,-1.9 6.4,-4.3 0.5,-2.9 2.9,-5.3 5.6,-3.7 1.4,0.1 4.5,0.3 5.6,-1.9 -0.4,-2.5 1.4,-2.7 2.6,-2.8 0.4,0 0.5,0 0.7,0 z m -214.8,0.5 c 2.4,11.8 -4.6,32.5 -8.6,44.2 -23.6,31.3 -58.1,47.5 -90.9,58.5 -7.3,2.5 -17.1,1.3 -17.1,1.3 45.3,-47 84,-81.5 116.6,-104 z m -82.9,11.1 c 0.3,-2.6 -11.7,-5.7 -12.8,-4.1 -2.2,2.1 -5.5,34.6 -3.2,36.9 3.2,3.2 12,4.1 12.8,0.2 2.6,-12.7 1.9,-22.3 3.2,-33 z m 203.7,-2.2 7.8,9.6 C 554.8,-520.1 443.8,-384 324.7,-329.6 l -0.4,-10.4 c 136.1,-72.5 217.6,-192.4 238.2,-346.4 l 0,0 z m 540.5,-2.5 14.9,20.3 -21.2,0.8 6.3,-21.1 z m -748.2,8.2 c -0.1,5.4 -0.6,16.5 -2.7,22.7 -1.3,4.8 -5,3.8 -6.4,-0.7 -1.5,-4.6 -0.3,-17.8 2.4,-23.2 2.9,-5.1 5.3,-4.2 6.7,1.2 l 0,0 z m 113.1,2.2 c 7.3,0 46.4,23.7 41.2,35.6 -4.1,9.5 -36.6,10.5 -51.6,9.2 l 2.2,-9.2 c 0,0 4.6,1.6 21.9,-0.4 18.2,-1.3 16.8,-7.6 -4.1,-20.7 -9,-5.6 -11.1,-6.9 -11.1,-6.9 l 1.5,-7.6 z m 107.9,12.2 c 12.2,20.2 23.7,43.1 34.6,68.7 C 464.1,-458 476.6,-269 570.1,-145.5 l -39.6,54.2 C 450.1,-167.1 406,-260.6 390.7,-360.2 506.9,-444.8 561,-570.3 575.8,-666.3 l 0,0 z m 546.3,2.9 8.9,16.7 -21.1,-0.2 12.2,-16.5 z m -91.1,8.9 c 6.8,0 12.3,5.4 12.4,12.2 0.1,6.8 -5.4,12.3 -12.2,12.4 -6.8,0 -12.3,-5.4 -12.4,-12.2 0,-6.8 5.4,-12.3 12.2,-12.4 z m -342.2,5.4 4.2,9.5 c 0.2,1.2 -29.7,10.8 -39.3,23 -8.8,11.3 -7.9,23 -2.9,31 8.6,11.5 14.7,13 29.1,8.5 11.7,-3.7 20.3,-8.6 31.9,-14.6 l 1.9,4.8 c 0,-0.3 -16.7,9.9 -29.4,17.2 -4.8,2.7 -10.5,3.9 -15.5,3.8 -29.1,-0.5 -44.7,-37.9 -20.9,-60.2 3.5,-3.3 15.3,-9.8 25.3,-15.1 6.7,-3.3 15.6,-7.9 15.6,-7.9 z m 384.7,3.6 c 96.8,137.8 32,289.9 -29.7,343.9 l -1.8,-16.3 c 103.6,-119.4 66.5,-258 22.7,-319.4 l 8.8,-8.2 z m 61.8,5.9 7.6,17 -22.3,-2.2 14.7,-14.8 z m -386.7,7.8 c 6.2,0 11.2,4.9 11.3,11.1 0,6.2 -4.9,11.2 -11.1,11.2 -6.2,0 -11.2,-4.9 -11.2,-11.1 -0.1,-6.1 4.9,-11.1 11,-11.2 z m 313.6,0.4 c 84.8,121.7 39.1,316.7 -121,377 l -0.9,-13.7 c 163.1,-69.3 178.1,-251.5 111.8,-353.8 l 10.1,-9.5 z m -364.5,2.9 10.8,28.6 c -13.3,9 -18.6,10.6 -33.5,14.3 -11.8,2.8 -21.1,-17.6 -12.1,-25.5 10.2,-8.9 21.4,-12.8 34.8,-17.4 l 0,0 z m -272.8,1.7 c 2,-0.1 -0.1,4.8 -5.1,17.1 -11,27.1 -11.8,27.7 -39.9,32.4 -14.6,2.4 -25.6,3.1 -36,2.1 -15.7,-1.4 -22.5,-5.8 -12.3,-8 29.5,-6.7 62,-22.2 83.2,-37.1 5.5,-4 8.8,-6.4 10.1,-6.5 z m 534.5,0.2 c 7.6,0 13.9,6.1 13.9,13.8 0,7.6 -6.1,13.8 -13.8,13.9 -7.6,0 -13.8,-6.1 -13.9,-13.7 0.1,-7.7 6.2,-14 13.8,-14 z m -418,6.3 -1.1,10.7 c 0,0 -17,9.1 -25.1,12.6 -6.2,2.5 -6.6,3.1 -4.6,8.8 4.1,11.4 11.8,25.5 11.8,25.5 l -7,16.2 c -4.4,-14.5 -9.1,-29.8 -17.2,-43.3 -7.6,-10.5 -9.1,-11.8 2.7,-14.1 15.3,-5.4 27.2,-9.1 40.5,-16.4 z m 152.4,2.5 c -8.3,0.4 -25.7,7.5 -27.4,14.3 -1,3.8 0.2,9.1 3.4,10.3 8.7,3.2 26.1,-4.1 30.6,-10.6 1.4,-2 -0.8,-6.2 -2.3,-8.8 -1.3,-2 -1,-5.3 -4.3,-5.2 z m 0.5,5.7 c 0.1,0 0.3,0 0.4,0 1.4,-0.1 6.6,6.4 0.8,5.8 -2,-0.2 -3.8,0.6 -5.4,2.3 -0.2,3.1 -4.7,4.3 -6.8,3.3 -1.6,-0.8 -3.9,0.9 -4.1,1.8 -3.2,2.4 -7.3,2.3 -7.9,0.6 -1.1,-1.2 2.1,-6 5,-5.8 0.6,0 2.6,-1.3 4.5,-3 0.9,-3.3 4.3,-2.7 6.5,-2.6 2.5,1.1 4.7,-2.1 7,-2.4 l 0,0 z m 451.7,-2.1 6.3,17.1 -22,-1.8 15.7,-15.3 z m -94.5,20.3 c -4.5,5.8 -8.7,5.9 -15.4,5.7 5.5,6.4 7.9,15.3 2.7,21.2 -8,8.3 -23.6,-4.2 -22.5,-5.4 l 27.7,-37.4 c 7.4,2 11.5,8.9 7.5,15.9 l 0,0 z m -606.3,-6.2 c 0,0 34.1,29 34.4,42.1 0.1,5 -1.5,6.6 -5.5,8 -13.3,4.5 -50.5,-6.6 -50.5,-6.6 l 4.7,-9.1 c 5.8,1.6 34.6,8.8 37.1,5.2 2.5,-3.8 -24.2,-29.6 -24.2,-29.6 l 4,-10 z m 168.5,11.3 4.1,14.1 -13.9,-3.4 9.8,-10.7 z m 541.9,-0.7 3.7,19.5 -22.3,-5 18.6,-14.5 z m -423.6,2.8 3.4,11.4 c -147,69.2 -189.1,226.4 -111.5,355.5 l -8.6,12 C 511.4,-373.9 614.6,-543.7 732,-586.7 Z m -132.7,12.8 2.1,17.4 -17.1,-0.9 15,-16.5 z m -202.8,0.7 c 2.9,0 3.5,1.6 3.5,3.3 0,2.3 -14.8,21.4 -19.6,25.7 -10.4,4.3 -50.9,-12.3 -57,-25.3 -1.2,-3.8 2.8,-2.2 11.7,-0.4 22.7,6.4 45.6,-2.6 61.4,-3.3 l 0,0 z m 392.6,-2.1 c 6.2,0 11.2,4.9 11.3,11.1 0.1,6.2 -4.9,11.2 -11.1,11.3 -6.2,0 -11.2,-4.9 -11.2,-11.1 -0.1,-6.2 4.8,-11.2 11,-11.3 z m -464.2,16.5 c 11.3,10 27.8,18.3 42.4,21.1 9.1,2 6.5,2.9 -1.9,11.7 -7.8,8.3 -7.2,9.3 -15.3,5.3 -13.5,-6.7 -28.1,-22.1 -27.6,-30.5 0.4,-3.5 0.9,-7.6 2.4,-7.6 z m 837.2,-3 2.9,18.5 -21,-7.2 18.1,-11.3 z m -583.6,10.1 6.9,16.6 -18.6,-0.4 11.7,-16.2 z m 473.4,13.1 c 0,2.3 -0.5,6.3 -0.5,6.3 10.9,-7 25.5,-1.4 25.1,9.9 -0.5,15.9 -8.3,16.1 -21,14 7,11.5 -1.2,22.6 -14.2,18.5 -11.9,-3.8 -9.7,-16.4 -4.2,-23.8 -28.1,4.7 -35.3,44.7 -2.8,56.4 -6.6,-10.1 -8.3,-22.1 5.9,-24.2 13.1,-2 18.8,8 13.1,20 12.3,-4.4 24,2.6 20.3,14.7 -4.4,14.5 -17.3,13.6 -25,4.8 5.5,13.1 -7.1,22.7 -16.6,17.6 -15.1,-8 -7.7,-22.3 2.3,-26.2 -38.8,-3.8 -47.5,49.9 -18.8,57.4 -7.4,-4.6 -8.3,-25.7 8.4,-22.9 16.5,3.2 12.6,18.5 2.1,25.5 12.7,-2.8 24.7,8.3 17,19.6 -9.1,13.3 -21.7,3.9 -26.4,-5.1 1.5,12.1 -6.1,19.8 -16,15.4 -17,-7.7 -4.6,-27.3 8.7,-26.1 -27.1,-15.8 -63.5,17.9 -41.8,45.4 -0.9,-12.6 5.3,-22.9 13.9,-21.5 7.6,0.8 14.3,9.4 12.2,16.3 -2,5.8 -8.5,10.3 -15.5,11.8 20.6,2.2 22.5,16.7 14,24 -14.4,12.3 -21.3,-1.8 -24.7,-10 -2.8,20.5 -27,13.7 -27.9,-1.1 -0.9,-16.2 17.8,-16 21.3,-15.1 0.4,-0.6 -14.6,-15.2 -30.5,-17.2 l 0,-9.4 c 62.5,-39.7 83.7,-108.6 63.4,-173.6 l 3.8,-4.4 c 10.3,7.8 20.6,24.5 39.5,18.2 0,0 -4.4,-3.1 -6.6,-5.2 -9.8,-9.5 -4.4,-20.9 9.2,-21.6 8.8,-0.7 12.3,6.1 12.3,11.6 l 0,0 z m -425.7,2.5 6.6,9.5 c -94.5,112 -76.4,239.5 -21.2,323.6 l -7.9,9.7 c -48.8,-61.9 -89.2,-212.2 22.5,-342.8 l 0,0 z m 81.2,14.9 c -0.1,2.5 0.1,4.5 0.1,4.5 0,0 2,-2.6 3.7,-5.6 8,-13.6 25.6,-5.9 22.8,9.7 -1.3,7.3 -13.6,10.3 -17,8.2 3.2,8.7 11.9,10.7 22.5,14.4 3.7,0.7 10,2.4 10,2.4 l 0.3,5.9 c -56.9,36.3 -88.8,97.5 -67.4,180.7 l -6.3,8.6 c -11.7,-27.6 -22.2,-27 -41.1,-27.9 0,0 4.7,3.3 7.5,6.5 5.8,6.7 3.3,18.6 -4.6,19.9 -18.4,3 -18.6,-10.1 -16.3,-18.9 0,0 -3.3,2.8 -4.9,3.8 -7.3,4.8 -16.4,-0.1 -17.3,-9.5 -0.9,-8.9 2.1,-14.6 11.3,-15.8 3.1,-0.4 7.8,0.4 7.8,0.4 0,0 -1.8,-3.5 -2.8,-5.4 -4.4,-8.5 5.1,-15.9 13.9,-14.1 13.9,3.3 12.9,15.2 4.9,24.7 21.5,1.5 32.7,-12.6 31.1,-26.6 -2,-17 -9.9,-26.2 -26.9,-29.1 0,0 2.8,4.3 3.9,6.3 4.4,7.7 -1.8,17.1 -10.9,17.1 -9.3,0 -15.4,-8.5 -11.8,-17 0.9,-2.1 4.3,-4.7 3.8,-4.9 -0.4,-0.2 -5.2,1.4 -6.5,1.6 -11.2,1.8 -18.5,-8 -13.8,-17.9 3.3,-7 13.3,-8.9 20.6,-5.6 1.2,0.4 2.6,2 2.8,1.7 0.2,-0.3 -0.8,-2.6 -1.1,-4.2 -2.4,-9 1.9,-13.9 11.7,-13.3 13.7,0.8 18.9,11.9 9.7,22 -2.4,2.6 -6,6.5 -6,6.5 0.5,2 19.6,3.3 29.2,-7 11.2,-11.9 12.8,-36.5 1.5,-44.5 -1.9,-1.3 -5.7,-3.9 -5.7,-3.9 5.5,10.8 -4.4,23.3 -13.2,21 -17.6,-4.1 -16.1,-18.5 -4.6,-23.1 0,0 -11.7,-4.3 -15.1,-9 -4.8,-6.6 -3.2,-12.8 2.5,-17.5 7.2,-5.8 17.4,-2.1 22.4,5 2.9,-9.1 7.1,-15.3 19.5,-10.4 8.7,4.1 8.7,15.7 -0.8,22 -3.1,2 -8.5,4 -8.5,4 0,0 8.2,4.6 18.2,4.7 19.3,0.1 34.4,-22.7 26.5,-40.1 -1.6,-3.5 -5.6,-8 -5.6,-8 0,0 -0.4,6.1 -1.6,8.4 -4.4,8.7 -14.7,8.9 -20.7,3.5 -5.5,-4.9 -4,-11.6 0.3,-16.1 3.2,-3.5 6.1,-4.1 10.7,-6.3 -5.2,-1.7 -10.9,-2.9 -13.4,-8.2 -2.4,-5.1 -0.8,-11.3 5.4,-15.2 11,-5.8 19.8,3.9 19.3,11.6 z M 324.7,-533 c 7.9,4.5 13.2,11.3 20.5,17.2 5.7,4.6 5.6,5.4 1,9.8 -10.5,10.2 -16.5,-4.5 -19.9,-10.4 -4.3,-8 -4.8,-16.2 -1.6,-16.6 z m 842.5,-2.1 1.4,19.6 -22,-8.3 20.6,-11.3 z m -603.7,4.7 8,17.8 -20.3,0 12.3,-17.8 z m 425.1,-2.5 c 19.5,70.6 -7.1,121.4 -57.8,161.5 l -5.7,-7.4 c 39.7,-34.1 69.3,-74.2 55.7,-145.3 l 7.8,-8.8 z m -234.4,1.7 224.3,2.8 -6.6,11.9 -17.5,0.2 -34.3,61.5 -161.2,0.8 -4.7,-77.2 z m -327.8,53.1 c -7.8,12.4 -54.5,-13.9 -53.9,-15.3 l 5.8,-5.7 c 7.4,3 30.5,15.5 35.6,13.5 1.7,-11.6 -12,-26.5 -17.1,-36.4 l 5.7,-7.2 c -0.1,0 29.7,38.1 23.9,51.1 l 0,0 z m 76.2,-45.5 -7.7,14.1 c -7.2,2.3 -29.2,2.8 -30.9,4.3 2.7,7.2 5.7,28.3 5.7,28.3 l -8.6,11.1 c -2.4,-13.6 -6.3,-30.7 -9.8,-43.3 -3,-10.7 -2.1,-8.3 20.6,-10.2 10.2,-0.7 20.7,-2.1 30.7,-4.3 z m 46.1,16.7 9.3,16.3 -18.7,0.3 9.4,-16.6 z m -224.6,2.4 c 1,-0.4 6.8,6 7.8,7.9 -0.4,4.3 -7,6.6 -8,5.1 -0.4,-0.6 -0.6,-10.2 0,-12.8 0.1,-0.1 0.1,-0.2 0.2,-0.2 z m 846,-4.8 -0.1,20.5 -22.3,-9.7 22.4,-10.8 z m 176.4,3.6 -0.2,13.3 c -80.3,39.8 -199.9,146.2 -233.1,335.9 l -7.1,-7.7 c 33.2,-181.2 150.9,-288.8 240.4,-341.5 z m -810.3,23.1 10.1,15 -18.1,2.1 8,-17.1 z m 634.5,2 -1.7,18.2 -21.9,-12 23.6,-6.2 z m -420.9,6.3 c 0.1,4.3 0.5,7.4 0.8,11.7 -49.5,32.4 -65.9,83.1 -57.3,146.7 l -6.8,10.2 c -16.5,-57.6 -0.6,-128.8 63.3,-168.6 z m 575.7,0.3 c 5.1,2.9 21.5,7.7 21.5,7.7 l -0.1,12.1 -33.9,-11.9 12.5,-7.9 z m -970.3,57.1 c -7.2,6 -24.1,-3.8 -31.7,-7.8 l -0.3,-10.2 c 0,0 5.8,2.9 11.7,5.2 12,5.3 12,-1.1 5.4,-18.8 -2.4,-6.2 -4.7,-13.5 -4.7,-13.5 l 7.9,-7.5 c -0.1,0.1 19.1,42.5 11.7,52.6 l 0,0 z m 169.3,-39.2 13,13.5 -18,4.2 5,-17.7 z m 788.6,-3 c 11.4,-0.1 33.6,9.1 33.6,9.1 l -0.1,13.4 c -11.2,-3.2 -24.3,-9.3 -36.2,-11 -9.4,-1.2 -8.8,4 -8.8,17.2 0,17.9 4.6,34.1 13.3,52 7.2,14.8 3.5,18.8 -8.1,12.2 -20.9,-14.2 -65.5,-24.7 -72.3,-16.4 -7,8.6 7.1,51.2 23.3,71.4 6.6,8.2 7,9.5 4,12.8 -2.4,2.6 -6.4,2.8 -13.5,0.6 -23.2,-7.2 -56.6,-8.7 -66.2,-2.4 -9.5,6.2 15.6,48.8 36.6,62.5 13.6,9.6 11,14.4 -10.9,15 -35.8,0.4 -63.2,8.5 -61.6,18.3 2.7,16.6 26,39.2 52.6,51.1 16.3,6.6 9.5,9.2 -1.3,13.1 -18.1,6.2 -35.4,16.1 -52.3,25.3 l -8.2,-10.4 c 0,0 17.1,-11 35.6,-21.6 4.4,-2.5 4.1,-3.4 -2,-8.5 -19.9,-16.5 -34.6,-35 -37.7,-47.5 -3,-12.1 3,-19.8 21,-26.8 11.1,-4.3 15.2,-5.6 25,-7.8 14.1,-3.3 14.4,-3.7 8.3,-14.5 -2.7,-4.9 -7.2,-12.9 -10,-17.8 -21.3,-36 -10.3,-49 38.7,-50.1 12,-0.7 14.3,-0.8 13.6,-4.9 -2.7,-17 -10.3,-36.5 -9.4,-50.9 2.1,-21.7 24.4,-27.1 63.7,-17.5 9.1,2.2 9.7,1.8 8.1,-5.6 -7.7,-32.8 0.1,-62.7 21.2,-60.3 l 0,0 z m -144,3.1 -3.3,21.1 -21,-13.8 24.3,-7.3 z m -781.8,9.6 57.7,3.4 -9.1,10.8 -34.8,-0.5 -1.1,29.8 -11.1,9.6 -1.6,-53.1 z m 373.7,0.1 47.5,-0.3 -0.1,50.2 -47.3,0.3 -0.1,-50.2 z m 56.5,-0.3 44.2,-0.3 0.3,50.2 -43.8,0.7 -0.7,-50.6 z m 52.9,-0.3 47.4,-0.3 -0.1,50.2 -46.9,0.3 -0.4,-50.2 z m 413.8,1.5 c -1,12.9 1.8,36.2 2.9,46.2 -0.7,3 -2.8,2.6 -15.2,-0.2 -8.6,-2.8 -32.5,-3.5 -32.5,-3.5 l 9.9,-10.6 c 8.2,0.9 14.6,0.8 23.1,1.8 -0.2,-8.4 0.1,-24.6 0.1,-24.6 l 11.7,-9.1 z m -767,14.5 13.3,13.3 -16.9,4.4 3.6,-17.7 z m 647.4,0.5 -5.2,21.5 -19.3,-17.1 24.5,-4.4 z m 181.8,10.3 0.1,11 -18.9,-8.4 c -0.1,12.5 11.1,35 11.1,35 l -8.9,4.3 c -7.8,-12.6 -13.3,-24 -13.8,-38.3 0.1,-5.2 -0.7,-13.9 4,-14.2 9.5,-0.3 17.5,2.9 26.4,10.6 l 0,0 z m -835.6,15.8 15.8,9.3 -17.4,7.2 1.6,-16.5 z m 648,1 -7.6,22.1 -17,-19 24.6,-3.1 z m -835.2,12 42.6,14.2 -7.5,8.1 -35.4,-10.9 0.3,-11.4 z m 596.3,2.3 4,78.3 -224.6,-0.5 7.7,-11.1 14.6,-0.2 38.1,-65 160.2,-1.5 z m -411.9,8.5 16.8,11.7 -17.3,7.8 0.5,-19.5 z m 839.7,2 0.1,12.8 c -54,40.4 -112.2,109.8 -121.4,231.9 l -14.6,12.6 c 6.4,-119.3 55.6,-201.8 135.9,-257.3 l 0,0 z m -197.8,1.6 -7.8,19.9 -15.7,-18.4 23.5,-1.5 z m 152.9,26.1 -5.2,5.9 c -1.5,0.5 -22.2,-10.5 -38.5,-13 5.4,10.5 8,18.3 19.8,34.9 l -7.5,7.5 c -2.3,-0.5 -32,-43.8 -24.3,-53.7 12.7,-8.5 43.5,9.2 55.7,18.4 z m -88.3,-22.8 c -0.3,11.8 9.5,48.4 9.5,48.4 -14.8,0.8 -29.1,-0.8 -45.1,3.8 l 7.4,-13.5 c 0,0 6.9,-0.8 13,-2 12.6,-2.6 11.3,-1.1 8.3,-12 -2.8,-10.3 -3,-12.4 -3,-12.4 0,0 9,-12.4 9.9,-12.3 z M 385.9,-356 c 20.1,117.4 66.9,197.8 140.5,270 l -7.4,9.8 c -86.4,-78.2 -134,-178 -146.8,-272.1 l 13.7,-7.7 z m 121,4.2 15.9,8.5 -16.2,9.6 0.3,-18.1 z m 840.7,-4.6 0,17.2 -10,-9.9 c 2.7,-2.5 5.9,-4.9 10,-7.3 l 0,0 z m -208.4,4.7 -10.7,19.8 -14.2,-18.7 24.9,-1.1 z m 207.5,43.5 c -2.2,-3.5 -22.1,-15.6 -31,-20.7 -0.6,-1.5 13.8,-14.5 16.6,-15.4 14.4,1.9 19.2,30.5 14.4,36.1 z m -839.4,-16.5 17.9,8.6 -16.2,11.5 -1.7,-20.1 z m 594.6,-3.5 23,2 -12.1,19 -10.9,-21 z m 212.4,7.1 c 3,0 6.3,1.2 10.5,3.5 16.2,8.9 24.8,18.7 23.9,27.5 -0.4,4 -2.6,4.8 -5.3,1.9 -4.7,-5.2 -20.7,-12 -34.4,-14.6 -10.4,-2 -11.4,-2.9 -8.3,-7.7 4.8,-7.2 8.7,-10.6 13.6,-10.6 z m -276.3,10 c 25.4,93.9 69.5,166.1 124.7,225.4 l -11.3,9.8 c -41.9,-47.5 -88.1,-103.2 -126.2,-223.8 l 12.8,-11.4 z m 49.6,4.7 23,3.3 -13.3,17.2 -9.7,-20.5 z m -323.7,2.9 c 2.7,0.1 -7.7,40.2 -44.1,43.2 -23.1,4 -25.6,7.9 -25.8,43.8 -0.2,48.7 -8,60.2 -47.8,63.4 -26.4,2.1 -29.8,7.5 -25.1,45.4 4.5,36 -9.1,54.5 -42.6,54.6 -29.1,2.6 -41,16.2 -40.8,43.2 C 537.8,1 538,3.7 538,3.7 l -19,1.5 c 0,0 -0.1,-17.7 1.3,-26.4 5.5,-34.9 20.4,-49 51.9,-49 24.3,-2 28.1,-6 27,-42.8 -1.2,-37.5 -1.7,-37.3 8.1,-47.1 6.3,-6.4 13.4,-9.3 26.2,-10.5 39.8,-4 42.9,-6.7 42.6,-47.5 -3.9,-33.9 5.4,-54.7 26.9,-56.5 43.6,-3.7 42.4,-27.4 40.5,-28.3 l 20.3,-0.4 c 0,-0.2 0,-0.2 0.1,-0.2 z M 853,-304 c 26.4,137.7 108,266.3 152.6,313.7 L 997,14.3 C 931.8,-65.7 872.5,-157.6 842.6,-303.8 L 853,-304 Z m -46.2,0.3 20.2,0.1 -231,329.2 -12.3,-9.2 223.1,-320.1 z m 28.3,0.1 c 22.3,79.3 40,156.9 109.4,260.5 l -291.9,-0.2 182.5,-260.3 z m 80.6,-0.2 c 1.7,-0.8 8.8,40.2 -1.3,59.1 -9,25.7 -4.5,40.1 15.6,49.3 34.4,15.8 43.2,31.8 39,71.1 -2.9,27.6 5.5,40.8 31.4,49.5 30.9,10.4 44.5,26.9 44.5,54.1 0,4.2 -1.5,8.9 -1.5,8.9 l -17.2,10.2 c 0,0 0.2,-3.7 0.8,-8.1 4.3,-30.2 -1.5,-38.3 -37.1,-52.3 -33.7,-13.2 -42.1,-28.7 -36.6,-67.4 1.8,-12.6 -0.9,-25.4 -6.1,-35 -8.9,-15.6 -28.3,-15.3 -42.4,-29.6 -11.6,-12.2 -13,-29.3 -3.3,-58.6 6,-18.2 6.9,-25.1 2,-40.2 -3.2,-9.9 -4.4,-10.8 -4.4,-10.8 l 16.6,-0.2 z m -405.4,6.8 19.8,5.4 -14.8,15.6 -5,-21 z m 786.4,-0.5 c 6.8,-0.2 20,2.1 30.7,7.4 24.8,12.2 29.3,22.2 7.6,16.9 -12.2,-3 -29.8,-2.2 -46.6,2.1 -17.9,4.5 -17.5,4.7 -11.4,-6.1 7.8,-13.8 9.8,-20 19.7,-20.3 z m -44.7,14.7 -4.4,7.7 c -9.8,-1.6 -20.2,-6.3 -35.1,-5 6.2,11.7 13.5,17.7 23.3,28 l -3.6,7.8 c -0.9,1.1 -28.6,-21.8 -34.2,-37.2 -2.5,-7 -0.3,-10 9.8,-10.3 14.9,-0.4 30,3.8 44.2,9 z m -368.7,-5.4 c 7.4,0 13.4,5.9 13.5,13.3 0,7.4 -5.9,13.4 -13.3,13.5 -7.4,0 -13.4,-5.9 -13.5,-13.3 -0.1,-7.4 5.9,-13.4 13.3,-13.5 z m 188.5,2.5 22.6,3.9 -15,17 -7.6,-20.9 z m -422.6,2.7 c 5.3,-0.5 13.7,9.9 13.6,9.9 l -27.2,38 c -13,-2.5 -10.4,-22.3 1.6,-23 2.8,0 7.8,0.4 7.8,0.4 0,0 -3.7,-2 -5.8,-4.8 -8.1,-9.5 -0.5,-19.6 10,-20.5 l 0,0 z m 511.1,-6.4 c 0,0 22.1,43 20.7,44.7 -13.5,6 -28.2,9.2 -43,14.7 l 2.8,-12.6 c 0,0 4.9,-0.4 21.5,-6.8 7.9,-3.1 -8.8,-25.1 -8.8,-25.1 l 6.8,-14.9 z m -150.7,13.6 c 31.8,0.1 32.4,39.1 26.4,52.1 -4.4,8.9 -11.1,13.8 -31.4,23.2 -17.6,8 -19.6,7.5 -19.6,7.5 l -4.3,-9.4 c 0,0 10.3,-4.6 21.3,-9.1 22.8,-9.4 28.3,-16.5 25.7,-33 -3.7,-23.4 -21.8,-26.9 -56.7,-11 -4.1,1.8 -9.2,3.7 -9.2,3.7 l -2.4,-4.7 c 0.6,-0.5 28,-15 43.3,-18.7 2.5,-0.4 4.8,-0.6 6.9,-0.6 z m -492,7.2 18,5.8 -13,13 -5,-18.8 z m 801.8,0.3 c 15.9,-0.1 29,2.5 29,8.1 0,2.7 -0.6,2.9 -14.9,5 -21.7,3.1 -57.9,21.9 -78.2,39.2 -12,10.3 -8.9,7.9 -3.9,-6.9 5,-14.7 12.4,-32.3 16.5,-35 10.3,-6.7 33.5,-10.3 51.5,-10.4 l 0,0 z m -260.1,3.6 15.3,3.3 -9.9,9.7 -5.4,-13 z m -51.2,8.6 c 5.5,-0.1 8.2,2.5 10.4,7.7 4.7,11.3 0.2,18 -17.5,25.7 -8,3.6 -15.2,8.8 -24,10.4 l -11.3,-29.9 c 0,0 3.5,-1.3 15.1,-6.2 13.1,-5.5 21.8,-7.6 27.3,-7.7 z m -51.8,3.9 c 36,100 79.7,164.8 125.9,218.4 l -11.1,7 C 1022,-84.1 976.8,-151.4 943.9,-250.6 l 12.4,-1.6 z m 49.2,3.3 c -4.3,0.1 -10.7,2.8 -19.3,6.1 -12.5,4.9 -13.5,10.7 -7.9,17.9 2.5,3.1 5,2.4 17,-2.4 12.2,-4.9 17.5,-7.1 18.2,-11.5 1.1,-6.4 -2.5,-10.3 -8,-10.1 l 0,0 z m 344.3,-0.7 c 0,4.2 -63.3,64.9 -99.6,95.9 -16.5,14.1 -15.9,14 -17.4,12.3 -1,-10.4 5.9,-47.6 10.1,-54.1 24.2,-25.9 61.6,-47.1 98.1,-55.2 5.8,-1.2 9.3,-1.1 8.8,1.1 z m -343.2,4 c 2.3,0.1 4.3,2 4.3,4.6 0,1.9 -2.8,3.8 -5.7,3.8 -1,0 -3.6,0.6 -5.1,2.2 -1.6,2.3 -2.6,4.5 -5.4,4 -1.7,-0.3 -4.7,-0.4 -5.9,0.7 -5.6,4.9 -11.1,0.9 -8.6,-4 0.6,-1.2 2.9,-1.9 4.7,-1.9 1.6,0 5.2,-0.4 5.7,-2.3 0.6,-2.3 4.2,-3 6.7,-2.9 2.7,0.3 4.9,-1 5.6,-2.2 1,-0.9 2.2,-1.8 3.3,-1.9 0.1,0 0.3,-0.1 0.4,-0.1 z m -481.6,4 20.3,2.6 -12.7,16.5 -7.6,-19.1 z m 193.6,-1.5 c 7.4,0 13.4,5.9 13.5,13.3 0,7.4 -5.9,13.4 -13.3,13.5 -7.4,0 -13.4,-5.9 -13.5,-13.3 0,-7.4 5.9,-13.4 13.3,-13.5 z m 211.3,9.4 c 7.4,0 13.4,5.9 13.5,13.3 0,7.4 -5.9,13.4 -13.3,13.5 -7.4,0.1 -13.4,-5.9 -13.5,-13.3 0,-7.5 5.9,-13.5 13.3,-13.5 z m -395.7,17.4 22,1.3 -12.5,16.9 -9.5,-18.2 z m 116.2,2.6 c 7.4,0 13.4,5.9 13.5,13.3 0,7.4 -5.9,13.4 -13.3,13.5 -7.4,0 -13.4,-5.9 -13.5,-13.3 -0.1,-7.5 5.9,-13.5 13.3,-13.5 z m 549.6,5.1 c 9.2,-0.2 19.8,0.7 19.8,0.7 l -2.5,10.3 c -11.2,1.1 -25.6,-1.9 -37.5,3.2 4.5,7.3 30.7,17.4 33.6,20 0.3,1.1 -2.1,10.9 -2.1,10.9 0.7,2.5 -44.3,-18 -45.9,-35.4 0,-6.1 19.4,-9.4 34.6,-9.7 z m -154.3,11.6 c 25.5,0.1 38.3,35.6 28.5,51.5 -3.9,7.2 -12.7,15.7 -24.3,23.2 -5.6,3.6 -20.4,11 -20.4,11 l -6.7,-10.3 c 0,0 5.9,-2.4 11.5,-5.5 14,-8 42.4,-25.1 28.5,-48 -7.8,-12.4 -19.4,-14.8 -43.4,-2.4 -17.9,9.2 -22,10.1 -22,10.1 l -4.6,-8.2 c 1.1,0.5 35.6,-20.6 52.9,-21.4 l 0,0 z m -498,6.6 20,-0.1 -8.5,18.1 -11.5,-18 z m 580.2,-5.8 c 12.3,23.5 33.3,41.2 39,45.4 0,0 -20.7,13.5 -33,22 l -7.3,-8.5 17.7,-15.4 -20.2,-27.9 3.8,-15.6 z m 195.5,4.5 c -2.2,11.7 -2.5,24 -3.3,37.6 4.4,4 8.4,6 11.8,5.7 3.8,-12.3 6.5,-26.2 4.6,-40.4 -3.7,-2.8 -8.6,-2.5 -13.1,-2.9 l 0,0 z m 10.1,8.8 c 0,7.7 1.1,17.3 -2.1,24.7 -1.8,4.2 -6.1,2.7 -6.3,-3.1 -0.2,-7.7 1.3,-14.3 1.7,-21.3 0.2,-4 2,-6.4 4.4,-5.5 2.4,1.2 2.2,3 2.3,5.2 l 0,0 z m -289.2,7 c 13.2,0.9 18.3,11.9 13.5,19.8 -11.8,15.3 -23.9,18.1 -39.5,27 l -15.7,-29 c 0,0 30.2,-17.3 41.7,-17.8 z m -0.3,6.5 c -8.7,1.1 -14.2,5.3 -21.5,9 -8.9,4.4 -11.8,11.2 -5.7,17.4 6.7,7.4 30,-10.5 33.9,-14.8 2.4,-3.7 1.9,-7.1 -1.4,-9.7 -1.5,-1.2 -3.3,-1.9 -5.3,-1.9 l 0,0 z m -479.7,4.1 19.6,0.1 -10.5,15 -9.1,-15.1 z m 481.5,0.2 c 3.3,2.3 3.1,6.6 -1.6,7.8 -2.4,0.6 -6.5,0.7 -6.5,3.8 -0.1,2.4 -3.7,3.3 -5.7,2.9 -2.1,-0.3 -5.7,-0.5 -6.3,2.2 -1.8,3.6 -3.1,3.7 -5.7,1.2 -2.7,-2.7 -1.5,-6.2 3.8,-6.8 2.3,-0.3 4.2,-1.9 5,-3.7 -0.1,-2.2 1.4,-3.6 3.9,-3.1 3.5,-0.1 5.8,-1.4 8.3,-4.7 1.7,-0.7 3.6,-0.4 4.8,0.4 l 0,0 z m -114.6,1.1 c 7.4,0 13.4,5.9 13.5,13.3 0,7.4 -5.9,13.4 -13.3,13.5 -7.4,0.1 -13.4,-5.9 -13.5,-13.3 -0.1,-7.5 5.9,-13.5 13.3,-13.5 z m -285.6,26.3 c 7.4,0 13.4,5.9 13.5,13.3 0,7.4 -5.9,13.4 -13.3,13.5 -7.4,0 -13.4,-5.9 -13.5,-13.3 0,-7.4 6,-13.5 13.3,-13.5 z m -320,13.7 153.9,103.9 -10.4,15.3 -142.9,-95.9 -0.6,-23.3 z m 769.3,-1.1 c 10,-0.1 17.7,5.6 25.2,17.2 14.9,22.9 7.6,41 -22.9,59.7 -14.2,8.7 -14.3,8.8 -14.3,8.8 l -7.3,-8.9 c 0,0 10.3,-6.1 14.6,-8.9 25,-16 32,-30.1 20.9,-45.9 -10.7,-15.2 -21.9,-13.9 -52.8,6 -6.3,4 -13.7,7.2 -13.7,7.2 l -6.9,-9.2 c 0,0 17.5,-9.1 23.5,-13 13.7,-8.8 24.9,-13 33.7,-13 l 0,0 z m 114.2,-4.6 0.2,10.1 c 0.3,0.5 -20.8,9.9 -33.1,15.6 -4,2.2 -2.4,6.5 -2.1,10.9 l -5.9,4.1 c 0,0 -8.3,-6 -9.4,-9.8 -3.2,-12.3 35.5,-27.2 50.3,-30.9 l 0,0 z M 988,-117.6 c 7.4,0 13.4,5.9 13.5,13.3 0,7.4 -5.9,13.4 -13.3,13.5 -7.4,0 -13.4,-5.9 -13.5,-13.3 -0.1,-7.4 5.9,-13.5 13.3,-13.5 z m -415.1,6.2 c 7.4,0 13.4,5.9 13.5,13.3 0,7.4 -5.9,13.4 -13.3,13.5 -7.4,0 -13.4,-5.9 -13.5,-13.3 0,-7.4 5.9,-13.4 13.3,-13.5 z m 521.6,7.6 c 5.1,-0.2 8.9,3.1 11,8.1 5.4,12.9 -1.8,22.5 -27.9,37.4 -2.2,1.2 -6.8,3.8 -6.8,3.8 L 1051.4,-81 c 0,0 6.8,-4.7 13.1,-8.6 14.3,-9.5 23.4,-13.9 30,-14.2 z m -2.5,6.4 c -1.2,0 -2.7,0.5 -4.3,1.5 -6.7,3.9 -17.9,8.2 -23.2,15.2 -3.1,4.3 -1.6,8.6 4.3,14 5,3.3 30.6,-15.8 31.2,-21.3 -2.3,-5.8 -4.3,-9.5 -8,-9.4 z m -765.1,6 4.3,2.8 -4.3,3.4 0,-6.2 z m 769.2,0.1 c 1.9,2.3 0.8,6.2 -3.2,7 -2,0.4 -5,0.9 -6,3.9 -0.8,2 -3.6,3.7 -6.3,3.6 -3.2,-0.7 -4.8,1.2 -5,2.6 -1.5,2.7 -5.4,3.1 -7.7,0.6 -1.8,-1.9 1.4,-7.5 3.6,-7.5 0.4,0.2 2.8,0.7 5.6,-3.1 0.6,-2.8 3.8,-4.5 6.1,-4.4 2.4,0.8 3.8,-1.9 4.7,-3.3 2.2,-1.2 6.6,-1.2 8.2,0.6 z m -759,6.5 6.2,4.1 -16.3,11.7 -0.1,-9.3 10.2,-6.5 z m 12,7.7 8.4,5.5 -30.4,22 -0.1,-11.8 22.1,-15.7 z m 15.7,9.9 8.9,5.8 -46.4,31.7 -0.1,-12.1 37.6,-25.4 z m 16.8,8.4 0.1,10.1 -54.3,38.4 -0.1,-10.2 54.3,-38.3 z m 6.2,7.2 11.8,8 5,343.1 -73.2,50.9 0,-15 61.4,-45 -5,-342 z m 886.4,4.1 c -16.4,18.9 -38.5,20.3 -57.7,19.9 -51.9,1 -84.2,4 -90.5,66 21.1,-15.9 43.5,-18.1 69.5,-17.5 32.9,-0.2 47.7,-2.5 61,-9.2 21.4,-10.8 34.9,-30.1 32.2,-43.6 -2.6,-3 -9.4,-14.9 -14.5,-15.6 z m -892.4,8.3 0.1,11.9 -54.4,36.8 -0.1,-12.1 54.4,-36.6 z m 622.6,-2.6 c 7.4,0 13.4,5.9 13.5,13.3 0,7.4 -5.9,13.4 -13.3,13.5 -7.4,0 -13.4,-5.9 -13.5,-13.3 0,-7.5 5.9,-13.5 13.3,-13.5 z m -356,3.5 c 96.4,2.4 301,0.1 301,0.1 l 11,15.7 -321.7,-1.5 9.7,-14.3 z m 625.3,6.6 c -11.5,11.4 -23.4,17 -61.3,16.5 -40,-0.5 -55.6,5.9 -65.9,23.8 -3,5.2 -2.9,7.2 1.4,3.3 3.6,-4.4 11.9,-12.8 15.4,-4.9 6.8,-4.5 12.6,-11.3 16.2,-2.8 2,-0.4 13.4,-12.1 16.2,-1.9 5.5,-6.2 10.2,-8.2 12.8,0.6 7.8,-3.8 11.9,-10.8 16.4,-1.1 6.3,-4.6 11,-10.2 14.8,-1.6 5.4,-1.6 10.8,-11.5 14,-3.7 0.6,0.2 20,-11.6 25.4,-23.2 4.5,-10.2 8.6,-3.5 3.6,7 -13,25.6 -35.6,35.1 -87.4,35.5 -31.4,0.2 -44.4,3.4 -54.3,9.2 -15.8,9.3 -7.4,-14 3.6,-28.2 13.9,-17.9 29.8,-23.2 73.6,-21.9 23.9,0 39.2,-3.4 45.6,-8.6 5.5,-4.5 9.4,-7.5 12.4,-7.7 3.2,-0.3 3.6,3.7 -2.5,9.7 z m -707.9,-0.2 c 7.4,0 13.4,5.9 13.5,13.3 0,7.4 -5.9,13.4 -13.3,13.5 -7.4,0 -13.4,-5.9 -13.5,-13.3 -0.1,-7.4 5.9,-13.4 13.3,-13.5 z m -183.9,11 0.1,12.1 -54.3,37.5 -0.1,-12.3 54.3,-37.3 z m 263.6,4.3 42.3,-0.2 0.3,44.7 -42.3,0.1 -0.3,-44.6 z m 94.9,-0.6 45.5,-0.3 0.3,44.7 -45.5,0.3 -0.3,-44.7 z m 101.3,0.8 43.9,-0.3 0.3,43.2 -43.9,0.4 -0.3,-43.3 z m 95.2,0.4 29.3,0.8 c 0,0 16.4,20.6 23.3,30.1 l -21.6,11.2 -30.7,0.2 -0.3,-42.3 z m -271,4.6 c -8.2,0 -14.9,6.7 -14.8,15 0,8.2 6.8,14.9 15,14.8 8.2,0 14.9,-6.8 14.8,-15 -0.1,-8.2 -6.7,-14.9 -15,-14.8 z m 97.3,0.9 c -8.2,0 -14.9,6.7 -14.8,15 0,8.2 6.8,14.9 15,14.8 8.2,0 14.9,-6.8 14.8,-15 -0.1,-8.2 -6.7,-14.9 -15,-14.8 z m 99.5,-0.2 c -8.2,0 -14.9,6.7 -14.8,15 0.1,8.3 6.8,14.9 15,14.8 8.2,0 14.9,-6.8 14.8,-15 0,-8.3 -6.7,-14.9 -15,-14.8 z m -237.4,4.4 c 3,2.1 4.9,5.5 4.9,9.3 0,6.4 -5.1,11.6 -11.5,11.6 -2.2,0 -4.4,-0.6 -6.1,-1.7 L 625.3,-6.3 Z M 666,-6.4 c 5.4,0 9.9,4.3 9.9,9.8 0,5.4 -4.4,9.9 -9.8,9.9 -5.4,0 -9.9,-4.4 -9.9,-9.8 -0.1,-5.4 4.3,-9.9 9.8,-9.9 z m 295.8,-1.3 c -8.2,0 -14.9,6.7 -14.8,15 0,8.2 6.8,14.9 15,14.8 8.2,0 14.9,-6.8 14.8,-15 -0.1,-8.3 -6.8,-14.9 -15,-14.8 z m -247.6,1.9 c 6.6,0 12,5.3 12,11.9 0,6.6 -5.3,12 -11.9,12 -6.6,0 -12,-5.3 -12,-11.9 0,-6.6 5.3,-12 11.9,-12 z m 197.2,-1.7 c 6.6,0 12,5.3 12,11.9 0,6.6 -5.3,12 -11.9,12 -6.6,0 -12,-5.3 -12,-11.9 0,-6.6 5.3,-11.9 11.9,-12 z M 382,-3.1 382.1,8.9 327.8,47.3 327.7,35.5 382,-3.1 Z m 381.2,-2.4 c 5.4,0 9.9,4.3 9.9,9.8 0,5.4 -4.4,9.9 -9.8,9.9 -5.4,0 -9.9,-4.4 -9.9,-9.8 0,-5.4 4.4,-9.9 9.8,-9.9 z m 99.6,-0.2 c 5.4,0 9.9,4.3 9.9,9.8 0,5.4 -4.4,9.9 -9.8,9.9 -5.4,0 -9.9,-4.4 -9.9,-9.8 -0.1,-5.4 4.3,-9.9 9.8,-9.9 z m -49.9,1.5 c 6.6,0 12,5.3 12,11.9 0,6.6 -5.3,12 -11.9,12 -6.6,0 -12,-5.3 -12,-11.9 0,-6.6 5.3,-11.9 11.9,-12 z m 148.9,1.5 c 5.4,0 9.9,4.3 9.9,9.8 0,5.4 -4.4,9.9 -9.8,9.9 -5.4,0 -9.9,-4.4 -9.9,-9.8 0,-5.4 4.4,-9.9 9.8,-9.9 z m -424,12.9 c 25.4,-0.4 53,12.3 68.6,33.6 23.6,31.2 39.6,71.1 47,123.6 3.7,26 16.3,104 23.3,122.4 l -9.5,-1.8 c -1.3,0.6 -13.7,-49 -21.8,-114.6 -3,-24.3 -8.3,-55.6 -22.6,-84.2 C 606.5,56.6 578.9,22.1 542.4,19.5 521,18 501.1,31.4 499,50.2 c -3,14.9 5.8,28.6 17.3,33.2 11.2,4.5 24.6,1 26,-14.3 0.2,-2.5 0,-5 -1,-7.4 5.2,-0.9 9.2,1.4 11.3,5.8 1.1,0.1 0.2,22.2 -17.1,26.6 -20.9,7 -45.1,-13.6 -47.1,-34.7 -1.5,-17.8 11.9,-39.8 28.9,-45.8 6.4,-2.2 13.4,-3.3 20.5,-3.4 z M 382.1,17.9 382.2,30.1 327.9,68 327.8,55.7 382.1,17.9 Z M 539,24.8 c 30.5,-1 60.4,32.8 73.1,55.1 13.3,23.3 23.9,60.4 27.7,95.3 6.4,59.4 18.1,107.9 20.5,110.1 l -8.3,-1.8 c -1.7,1.2 -13.5,-52.4 -20.8,-112.1 -4.1,-33.5 -16.7,-66.6 -31.7,-92.1 -13.8,-23.5 -32.3,-41.1 -54.1,-43.5 -13.7,-1.3 -27.7,2.7 -30.3,17.1 -1.4,8.4 3.1,16.7 13.1,17.4 2.4,0.2 4.6,0.3 5,0.4 5.3,0.9 -3,9.6 -8.4,8.8 -19.6,-2.6 -28.7,-28.7 -13.4,-42.7 8.9,-8.1 18.3,-11.7 27.6,-12 z m 65.4,8.3 342.5,1.4 c 0,0 0.3,6.1 -21,5.2 -18.1,-0.8 -29.8,1.9 -41.8,5.8 L 615,46.5 604.4,33.1 Z m -222.2,5.3 0.1,11.4 -54.3,38.4 -0.1,-12.6 54.3,-37.2 z m 159.2,3.9 c 6.6,-0.1 13.3,1.5 18.4,4.4 42.6,24.3 59.1,85.2 64.9,123.6 8,56.8 17.1,109.6 19.5,110.9 l -9.3,-2 C 633.7,279.3 623.3,230 616.6,174.8 611.2,130.2 595.7,85.4 565.3,66.7 545.8,53.6 542,52.3 533,60 c -7.7,6.7 -15.7,-3.3 -9.2,-11.5 4.6,-4.2 11,-6.1 17.6,-6.2 z m -159.1,16.3 0.1,9.3 -54.3,38.3 -0.1,-11 54.3,-36.6 z m 249.3,-1.2 c 0.7,-0.7 29.8,48 39.3,125 5,40.5 19.1,109.5 21.3,110.1 l -10,-1 c -10.4,-40.7 -16.3,-79.3 -22,-114 -6.4,-39.3 -11.5,-74.2 -36.3,-119.7 l 7.7,-0.4 c 0,0 0,0 0,0 l 0,0 z m 6.6,0.4 8.9,0.1 c 15.4,28.9 31.9,73.9 37.7,119 5.1,39 10.2,78.6 24.4,119.9 l -9.6,-2.6 c -12.2,-33.5 -16.7,-74 -23.4,-115.9 -7.3,-46.5 -18.8,-86.9 -38,-120.5 l 0,0 z m 54.9,-0.3 c 15.8,40.3 26.1,59.5 33.5,109.1 5.8,38.5 13.8,86.7 31.9,137.7 l -9,-0.3 C 736.1,268.8 725.8,221.7 720.9,176.3 714.3,114.7 686.3,57.4 686,57.8 l 7.1,-0.3 z m -15.3,0.2 c 0.8,-1.3 30.1,56.3 37.1,119.8 4.7,42.2 14.8,84 28.6,124.2 l -9.2,-0.2 C 723.6,289.3 715.3,231 706.2,176.6 696.9,121.1 684.1,87 669.9,57.8 l 7.9,-0.1 c 0,0.1 0,0.1 0,0 l 0,0 z m -23.3,0.2 8.2,0 c 21.7,46.7 30.7,74.5 37.6,119.7 8.7,57.2 17,108.8 25.9,122.2 l -10,-0.6 C 702.2,258 695.7,216.9 690.6,175.6 685.1,131 672,92.8 654.5,57.9 Z m 45.2,0.1 9.7,0.1 c 17,33.8 31.1,75 36.3,122.2 2.8,25.6 7.8,64.8 27.4,125.3 l -7.8,-0.4 c -16,-40.5 -25.7,-88.3 -31.6,-130 -5.9,-42.1 -16.2,-76.7 -34,-117.2 z m 59.9,0 c 9.3,23.5 17,46.8 22.1,70.8 l -5.4,10.8 C 767.5,107.9 757.6,83.2 747.9,58.2 L 759.6,58 Z m -44.4,0.3 11.8,0.2 c 20.6,47.1 31.4,97 34.3,113.7 0,0 2.9,14.8 3.1,19.7 -0.4,41.3 6.9,70.7 22.5,114.9 l -7,-0.5 c -18.1,-51.5 -23.1,-88.1 -27.9,-123 -4,-44 -18.5,-89.2 -36.8,-125 l 0,0 z m 27.4,0.2 c 12.3,30.2 21.7,59.3 30.3,88.5 -0.3,6.6 -0.9,13.9 -5.2,19.3 C 757.6,130.6 749,93.6 733.6,58.7 l 9,-0.2 z m 22.4,0.1 9.4,0.1 19,53.4 -7.3,8.1 C 780.5,102.6 774.7,83.1 765,58.6 Z m 54.7,0 6.9,16.1 -7.3,6.3 c 0,0 -7.6,-15 -9.6,-22.1 l 10,-0.3 z m 13.9,0 3.5,9.3 -6.2,4.8 -4.9,-13.9 7.6,-0.2 z m -53.7,0.5 9.7,0 c 4,11.2 14.5,38.7 14.5,38.7 l -6.9,7.3 c 0,0 -13.3,-34.7 -17.3,-46 z m 15,-0.1 8.6,0 c 2.6,7.3 10.8,27.5 10.8,27.5 L 808.4,92.2 794.9,59 Z m 44.8,0.1 8.5,0.4 -1,2.1 -5.3,2.7 -2.2,-5.2 z M 562,72.6 c 35.6,18.5 45.7,74.4 49.7,105.2 7,53.7 14.8,97.4 16.4,98.5 l -7.9,-1.2 c 0,0 -6,-27.6 -10.2,-53.8 -3.5,-21.8 -6.2,-40.1 -7.1,-48.5 -0.6,-5.2 -1.5,-11.3 -2,-13.5 -5.1,-22 -6.7,-27.1 -13.2,-40.5 -6.2,-12.9 -8.4,-16.1 -18.7,-27.5 -3.9,-4.4 -7.8,-7.6 -9.1,-10.4 -1.9,-4 2.1,-8.3 2.1,-8.3 z m -179.6,4 0.1,10.6 -54.3,38.8 -0.1,-12.1 54.3,-37.3 z m 0.1,18.5 0.1,12.2 -54.3,36.3 -0.1,-10.8 54.3,-37.7 z m 0.2,20.7 0.1,11.3 -54.3,38.3 -0.1,-11.7 54.3,-37.9 z m 91.1,10.9 4.8,0 0.4,7.9 -7.4,-0.4 2.2,-7.5 z m -91,10.3 0.1,12.1 -54.3,36.3 -0.1,-11.2 54.3,-37.2 z m 85.5,4.1 11.5,0.1 -0.1,8.3 -14.8,-0.4 3.4,-8 z m -6.7,13.3 18.9,0.2 0,7.9 -23.5,-0.2 4.6,-7.9 z m -78.7,2.2 0.1,12.7 -54.3,36.6 -0.1,-12.7 54.3,-36.6 z m 69.2,12.7 27.7,0.1 -0.1,6.6 -33.1,0 5.5,-6.7 z m -69.1,7.8 0.1,12.4 -54.3,35.2 -0.1,-11.1 54.3,-36.5 z m 57.6,5.5 38.1,0.3 -0.9,6.4 -43.4,0.1 6.2,-6.8 z m -57.5,13.8 0.1,11.9 -54.3,35.8 -0.1,-11.4 54.3,-36.3 z m 43.3,-0.2 50.1,0.9 10.6,9.5 -78,0.9 17.3,-11.3 z m -15.1,17.6 86.1,0.6 6,5.5 -92.4,0.9 0.3,-7 z m -28,2.9 0.1,12.6 -54.3,36 -0.1,-11.5 54.3,-37.1 z m 28.2,10.9 95.4,-0.1 -6.9,7.7 -88.7,0.8 0.2,-8.4 z m -28.1,9.8 0.1,11.6 -54.3,37.3 -0.1,-13.3 54.3,-35.6 z m 25.8,5.8 82.5,-0.2 -9.6,7.7 -57,1.6 -15.9,-9.1 z m -25.7,14.5 0.1,11 -54.3,39.4 -0.1,-12.4 54.3,-38 z m 49.9,1.1 48.4,-0.1 0.9,6.5 -41.7,0.2 -7.6,-6.6 z m 13.5,13.3 37.2,0.2 1.8,8.4 -33.1,-0.2 -5.9,-8.4 z m -63.3,6.3 0.1,10.2 -54.3,38.4 -0.1,-11.3 54.3,-37.3 z m 103.2,7.7 0.5,8 -22.2,1 -6.3,-8.3 28,-0.7 z m -0.1,14.2 -0.1,8.4 -15.5,0.3 -3.5,-8.1 19.1,-0.6 z m -13.7,15.1 12.2,0 -1,6.5 -9.4,0.2 -1.8,-6.7 z m 3.8,15.5 5.9,0 -1,5.1 -3,0 -1.9,-5.1 z m 121.1,84.8 -2.8,3.7 85.2,-0.5 0.9,-3.7 -83.3,0.5 z m 109.9,-0.6 -1.5,4.9 38.5,-0.2 1,-4.9 -38,0.2 z m 62.8,0.6 -1.2,4.7 98.3,-0.6 -1.7,-4.6 -95.4,0.5 z m 117.7,-0.7 2,5.6 33.1,-0.2 -2.2,-5.6 -32.9,0.2 z m 114.2,-0.7 -58.1,0.4 2.1,6.3 60.1,-0.4 -4.1,-6.3 z"
                 id="path3500" /></g></g></g></g></g></g><g
     transform="translate(-259.99417,-369.84043)"
     id="printing-marks"><g
       id="CropMarks" /></g></svg>