<?xml version="1.0" encoding="UTF-8" standalone="no"?>
<svg
   xmlns:dc="http://purl.org/dc/elements/1.1/"
   xmlns:cc="http://creativecommons.org/ns#"
   xmlns:rdf="http://www.w3.org/1999/02/22-rdf-syntax-ns#"
   xmlns:svg="http://www.w3.org/2000/svg"
   xmlns="http://www.w3.org/2000/svg"
   height="312.79669"
   width="224.19823"
   xml:space="preserve"
   enable-background="new 74 -106.5 744.1 1052.4"
   viewBox="74 -106.5 224.19823 312.79668"
   y="0px"
   x="0px"
   id="svg4423"
   version="1.1"><defs
     id="defs17" /><g
     transform="translate(-260.00262,-369.82556)"
     id="layer1"><g
       transform="translate(-735.6996,-760.44497)"
       id="g3931"><g
         transform="translate(-1318.1979,540.76888)"
         id="g4858"><path
           style="fill:#ffffff;stroke:#000000;stroke-width:0.99669999"
           d="m 2399,483.5 202,0 c 5.9,0 10.6,4.8 10.6,10.6 l 0,290.6 c 0,5.9 -4.8,10.6 -10.6,10.6 l -202,0 c -5.9,0 -10.6,-4.8 -10.6,-10.6 l 0,-290.6 c -0.1,-5.9 4.7,-10.6 10.6,-10.6 z"
           id="rect6969-7" /></g><g
         transform="matrix(0.15086704,-0.00311503,0.00311532,0.15083482,965.0168,1197.8387)"
         id="g3440"><g
           transform="translate(346.10401,401.33141)"
           id="g3454"><path
             style="fill:#e2cf00"
             d="m 1435.1,-1316.5 -533.6,-8.4 65.1,129.8 c 138.9,-9.6 260.2,4 386.7,10.7 l 81.8,-132.1 z m -373.7,443.9 c -0.6,0.7 -22.3,5.9 -20.2,10.8 54,122.1 77.2,221.1 98.2,345.9 12.1,-9.4 31.4,-8.6 31.4,-8.6 -8.6,-46.4 49.8,-50.9 49.1,-2.6 11.1,2.8 22.6,3.1 32.5,14.6 7.3,-135.8 59,-275.3 124,-371.4 -72.3,26.9 -179.1,95.5 -179.1,95.5 0,0 -86.8,-38.1 -135.9,-84.2 l 0,0 z m 435.8,23.4 c -97.4,88.7 -139.9,339.5 -133.1,343.1 -123,-6.6 -163.1,128.3 -57.9,203.6 -4.5,14.1 -15.2,25.4 -23.5,37.8 10.9,6.5 22.9,8.1 34.8,9.7 8.9,11 17.6,23.6 27.5,24.9 10.9,-6.5 18.7,-16.3 27.8,-24.6 11.2,-2.6 22.3,-5.5 33,-10.1 -9.1,-13.3 -19.9,-26.7 -20,-39 94.1,-63.5 83.2,-152.7 0.5,-199.9 28,-149.2 66.3,-244.1 109.9,-311.3 l 1,-34.2 z m -660,102.2 c -12.3,5.7 -19.1,18 -28.1,27.6 -12.1,0.3 -23.8,4.2 -35.4,9.1 0,0 26.9,38.8 25.1,40.8 -90.9,56.9 -92,142.8 -7,201.1 12.1,122.5 -95.8,313.8 -100.9,308.1 l -1,40 c 73.9,-78.5 117.8,-222.9 127.5,-342 147.8,-6.8 156,-149.3 55.5,-205 -7.7,-7.3 26.4,-39.8 26.4,-39.8 -8.3,-8.5 -22.4,-9.8 -34.8,-11 -7.8,-9.6 -14.5,-19 -27.3,-28.9 z m 622.3,111.6 c 19.9,46.9 97.3,-8.1 110.1,16.8 10.4,14.2 33.8,16.1 33,-7.5 -3.9,-23.5 -19.2,-29 -80.5,-20 -23.2,3.4 -32.8,5.5 -32.4,-5.1 -15.6,-19.7 -29.9,6.4 -30.2,15.8 z m 69.4,69.2 c -17.1,-0.4 -21.4,66.5 -21.6,86.6 -51.2,77.2 100.2,71.5 36.6,-15.1 2.5,-11.1 -7.7,-29.5 -7.3,-37.5 -5.3,-0.9 -7,-31.1 -7.7,-34 z M 656.2,-544 c -26.8,0.1 -56.8,24.1 -14.6,60.4 2.8,1 -1.6,8.4 -0.4,19.9 11.6,26.4 7.5,65.1 16.7,59.3 10.6,-6.7 19.9,-35.4 18.5,-75.8 -0.1,-2.6 -3.5,-5.5 -2.8,-8.4 24.9,-39.2 4.9,-55.5 -17.4,-55.4 l 0,0 z m 272.9,80.6 c -9.6,130.6 -44.2,258.2 -119.1,367.9 63.1,-27.8 124.5,-64.1 183.8,-95.1 l 135.4,87.7 c 8,-3.3 13.5,-4.9 18.9,-10 -61.3,-93.7 -78.1,-227.1 -103.1,-348 -10.6,7.2 -30.4,10.5 -30.4,10.5 -2.3,41.7 -46.3,54.3 -54.1,-0.3 l -31.4,-12.7 z m -333,95.2 c -14.6,0.6 -26.4,36.6 14.9,42.8 29.2,4.7 66.9,-8.9 85.3,-1.8 20.9,34.9 41.3,-15.4 12.6,-24.3 -30.8,-9.5 -94.4,12.3 -101,-7.5 -3.4,-6.8 -7.7,-9.4 -11.8,-9.2 z m 237,571.3 -85.7,144.4 528.9,7.7 -66.3,-140.7 c 1.2,-1.6 -231.5,22.8 -376.9,-11.4 z"
             id="path3450" /><path
             style="fill:#d40000"
             d="m 976.5,-1182.4 8.2,20.7 c 113.9,-11.4 233,-23.2 351.4,9.6 0,0 9.1,-18.8 9,-20.1 -110.3,-30.6 -358.4,-28.4 -368.6,-10.2 z m 109,290.2 106.7,72.2 c 0,0 52.5,-35.5 74.9,-50.5 l -13,-20 c -47.8,99.8 -126.5,18.5 -155.7,-29.6 0,0 -8.5,18.2 -12.9,27.9 z m 289.6,39.8 c 7.5,0 11.6,3 15.2,10.7 4.1,8.7 5.7,6.6 3.2,-4.2 -4,-17 14.2,-27.7 31,-16 12.1,8.4 11.1,28.2 -2.3,31.5 -10.9,2.7 -11.2,5.6 -1.7,5.3 17,-0.5 21.1,22.3 8.7,33.2 -14.2,12.5 -31.7,3.1 -33,-13 -0.6,-4.5 -1.6,-4.5 -3.2,-2 -4.4,7.3 -5,16.9 -4.4,25.6 l -24.8,-16.1 c 9,-4.2 14.6,-6.8 21.2,-13.4 0.9,-0.9 1.5,-1.5 1.5,-1.9 0,-0.7 -2.8,0.2 -7.9,0.6 -15.2,1.3 -26.7,-8.8 -23.3,-23 2.9,-12.1 9.3,-17.3 19.8,-17.3 l 0,0 z m -118.9,392.2 c 28,-30.7 62.4,-50.1 109.5,-46.3 8.7,-130.9 56.6,-246.6 131.5,-350.1 l -79.1,-49.8 -32.5,18.7 c -79.6,108.1 -129.9,246.1 -129.4,427.5 z M 662.3,-778.8 c 0,0 -55,39.5 -80.6,58.6 l -6.2,361.4 7,2.5 c 0.5,0.8 -0.5,-5.4 2.8,-8.1 2.7,-2.2 6.9,-4.8 9.4,-5.6 7,-2.4 7.4,-7 1,-11.2 -5,-3.2 -6.8,-8.1 -6.1,-16.1 0.5,-5.6 0.3,-6.9 -2,-10.8 -2.8,-4.8 -3,-10.9 -0.3,-17.1 1.2,-2.9 1.1,-3.7 -0.9,-7.6 -2.5,-5 -2.7,-10.4 -0.7,-16.2 0.8,-2.2 1.4,-7 1.4,-10.8 0,-14.4 12.1,-23.7 34.1,-26.3 8.6,-1 8.9,-1.3 5.1,-8.6 -21.4,-41.1 29,-61.2 32.6,-54.6 l 3.4,-229.5 z m 683.5,34.2 c 20.3,0.1 36.6,16.7 36.5,36.9 -0.1,20.3 -16.7,36.6 -37,36.5 -20.3,-0.1 -36.6,-16.7 -36.5,-37 0.1,-20.2 16.7,-36.5 37,-36.4 z m 0.2,6.6 c -16.2,-0.1 -29.5,13 -29.6,29.2 -0.1,16.2 13,29.5 29.2,29.6 16.2,0.1 29.5,-13 29.6,-29.3 0.1,-16.2 -13,-29.4 -29.2,-29.5 z m 0.5,9.3 c 11,0.1 19.9,9 19.8,20.1 -0.1,11 -9.1,19.9 -20.1,19.8 -11,-0.1 -19.9,-9.1 -19.8,-20.1 0.1,-11 9.1,-19.8 20.1,-19.8 z m -729.4,0.1 c 1.5,0 3.1,0.3 4.7,0.8 9.1,3.1 12.1,11.2 7,18.8 -4,5.9 -3.6,6.4 3.3,4.1 5.4,-1.9 8.1,-1.2 12.3,3.1 12.4,12.8 -6.9,33.5 -19,20.5 -6,-6.5 -6.6,-4.6 -2.6,6.4 1.3,3.5 3.5,9.1 3.5,9.1 l -18.2,-0.6 c 0,0 3,-7.2 4.4,-10.6 3.3,-8.2 3.4,-9.4 -3.2,-4.3 -15,11.4 -31.4,-9 -17.5,-21.8 2.8,-2.6 7.3,-2.6 13.4,-0.1 4.5,1.9 5,0.6 1.7,-3.7 -7.3,-9.6 -0.2,-21.7 10.2,-21.7 z m 376.3,40.2 c -8.4,48.3 -3.3,116.4 -4.3,152.7 19.6,4.2 19.6,17.6 22.3,34.4 9.7,-3.1 30.3,11.5 33.2,10.3 3.2,-49.2 -19.4,-192.4 -51.2,-197.4 z m 326.2,55.3 c 27.9,2.8 22.1,24.3 13.6,33 -4,4.5 -3.4,6.5 1,4 12,-6.9 21.2,-1.5 24.8,10.8 6.1,21.2 -21.9,38.7 -33.9,19.6 -4,-6.5 -6.6,-5.1 -5.7,1.6 0.5,6.5 6.5,19.9 6.5,19.9 l -27.4,-3 c 0,0 8.7,-13.8 10.2,-17.5 3.2,-7.7 1.6,-9.9 -4.4,-3.7 -17.5,15.4 -40.9,-5.3 -29.4,-25.9 5.7,-10.2 15.8,-13.3 26.6,-4.9 7.2,4.9 8.9,2.9 2.4,-3 -11.9,-11 -0.7,-32.6 15.7,-30.9 l 0,0 z m -703.2,2.6 c 0.3,0 0.6,0 0.9,0 2.4,0.1 4.8,0.8 7.2,2.2 6.7,4 8.5,11.6 4,18.1 -2.5,3.7 -1.9,6.1 1,3.7 3.9,-3.2 12.3,-0.9 15.5,4.4 8.2,13.4 -8.7,30.5 -19.1,19.2 -4.6,-5 -6.3,-5.2 -5.9,-2 1.4,6 5.1,16.4 5.1,16.4 l -19,-0.1 c 0,0 4.3,-10.7 5.4,-16.2 0.8,-4.3 -0.9,-3.7 -5.6,1.3 -4.5,4.9 -8.5,5.3 -14.1,1.5 -13.7,-9.5 -2.1,-32.8 12.2,-24.6 4.9,2.8 5.7,1.3 1.9,-4 -6.5,-9.2 0.8,-19.6 10.5,-19.9 l 0,0 z m 987.8,12 c -31.4,31.2 -21.4,12.6 -7.6,37.1 -0.3,16 8.8,28.7 0.9,53.8 -2.5,4.9 -2.7,7.2 -1.5,12.2 -2.8,27.8 -25.2,27 -47,30.9 3.6,-0.2 33.2,57.4 -24.3,60.7 l -4.1,231.4 91.4,-64.6 7.1,-361.2 -14.9,-0.3 z m -678.8,108.2 c -25.9,15.9 -62.6,56.4 -107.6,46.5 -8.4,144.3 -58.1,255.1 -127.7,349.7 23,14.3 48.4,31.4 72,42.5 20.4,-10 31.8,-14.1 51.9,-30 84,-123.8 112.6,-260.5 111.4,-408.7 z m 211.6,30.8 c 3,74.2 13.6,144.7 51,201.9 l 5.9,-157.5 c -13.7,-3.6 -24.8,-12.7 -28.2,-38 l -28.7,-6.4 z m -279.6,38 25.8,1.1 c 0,0 -6.1,11.5 -8.8,18 -3.2,7.9 -1.8,9.5 4.2,4.1 7.8,-7 20,-7.5 26.3,-0.9 16.7,17.4 -1.7,44.9 -21.6,32.2 -8.5,-5.4 -10,-3.7 -3.3,3.9 13.1,12.6 -1.2,30.1 -16.8,29.9 -11.2,-0.3 -18.4,-9.4 -19,-19.4 -0.3,-6.2 3,-12.4 8.4,-15.4 5.7,-3.1 1.7,-5.2 -4.5,-2 -20.2,10.4 -33,-17.6 -17.6,-33 8.9,-8.9 18.1,-7.9 26.8,1 6.1,6.2 8.3,5.7 6.7,-1.5 -1.7,-8 -6.6,-18 -6.6,-18 l 0,0 z m 695.2,36 18.5,0.4 c -1.9,4.5 -4.4,9.1 -5.9,13.6 -1.7,4.9 -0.5,5.5 4.4,0.9 12.9,-8.3 26.3,0.5 23.3,14 -2.1,9.3 -10,13.7 -19,9.5 -7.9,-3.7 -5.4,-2.2 -1,3.4 5.3,6.6 3.7,14.1 -3.5,19 -12.8,8.6 -29.1,-6.5 -20.5,-19.1 5.1,-7.5 2.8,-6.8 -1.7,-3.2 -6.8,4.8 -16.8,-2.4 -16.8,-12 -0.5,-13.9 13.7,-21.4 23.3,-11.4 4.6,4.1 5.8,3.6 3.8,-2.2 -1.9,-4.2 -2.4,-8.7 -4.9,-12.9 z m -1.1,101 19.4,0.2 c 0,0 -0.3,1.5 -3.4,7 -3.6,6.5 -3.2,13.3 0.5,8.8 6.3,-7.7 19.4,-5.2 23.5,4.4 4.8,11.2 -5.2,23.3 -15.3,18.4 -6.5,-3.2 -7,-2.5 -2.7,3.9 4.1,6.2 2.1,13.8 -4.9,18 -13.8,8.4 -29.7,-9.3 -18.2,-20.1 3.1,-2.9 2.2,-4.4 -1.5,-2.4 -15.2,7.8 -25.8,-12.7 -12.6,-24.3 5.6,-4.9 9.8,-4.5 18.8,2 2.8,2 3.4,0 1.4,-5 -3.3,-8.6 -5,-10.9 -5,-10.9 z m -718.6,-2.7 c 21.5,0.1 38.9,17.7 38.8,39.2 -0.1,21.5 -17.7,38.9 -39.2,38.8 -21.5,-0.1 -38.9,-17.7 -38.8,-39.3 0.1,-21.6 17.7,-38.9 39.2,-38.7 z m 0.3,6.9 c -17.7,-0.1 -32.1,14.1 -32.3,31.8 -0.1,17.7 14.2,32.1 31.9,32.3 17.7,0.1 32.1,-14.2 32.3,-31.9 0.1,-17.6 -14.2,-32 -31.9,-32.2 z m 0.1,12.4 c 10.9,0.1 19.7,8.9 19.6,19.8 -0.1,10.9 -8.9,19.7 -19.8,19.6 -10.9,-0.1 -19.7,-9 -19.6,-19.9 0,-10.8 8.9,-19.6 19.8,-19.5 z m -51,93.5 22.3,11.5 c 0,0 -10.8,8.4 -15.2,12.8 -5.5,5.6 -5.2,8.3 2.2,5.7 14.1,-5 27.9,3.2 27.8,17.7 0,19.3 -23.1,28.2 -33.8,13.3 -3.2,-4.4 -7,-6.3 -5.6,-2.7 3.5,8.7 1,19.6 -5.5,23.9 -5.3,3.5 -14.7,4.3 -19.5,1.8 -16.3,-8.9 -16.7,-27.8 -0.8,-35 8,-3.6 8.3,-7.1 0.5,-5.3 -16.3,3.7 -25.3,-16.1 -13.3,-29.3 12.7,-14 32.8,-10.7 34.6,10.5 0.3,3.8 2.9,1.1 4.2,-4.6 1.5,-4.4 2.1,-20.3 2.1,-20.3 z m 209.2,36.1 c 0,0 -83.4,45.2 -80.9,47.2 0.5,0.3 17.7,25.7 17.7,25.7 42.8,-91.8 139.2,-13.1 153.9,34.6 3.4,2.2 4,1.6 7.6,3.3 0.4,-3.3 7.9,-36.1 7.9,-36.1 l -106.2,-74.7 z m -139.2,338 c -4.2,5.1 -18.4,19.5 -16.6,20.1 120.6,28.5 245.6,29.1 373.1,17.9 l -9.1,-30.8 c -126.3,29.4 -347.4,-7.2 -347.4,-7.2 l 0,0 z"
             id="path3446" /><path
             style="fill:#131f67"
             d="M 577.8,-1346.3 550,357.5 l 1063.3,18.2 28.8,-1702.1 -1064.3,-19.9 z m 323.1,18.8 530.3,8.8 c -26.2,64.1 -99.9,164.6 -96.6,164.9 -109.9,-20.5 -223.5,-32.1 -351.2,-7.5 l -82.5,-166.2 z m -311.2,-2.3 297.6,5.8 94.5,178 c 0,0 5.5,11.1 1.9,22.5 -4,12.5 -7.4,18 -10.9,24.3 0.4,-3.6 -28.1,-7.9 -26.2,16.7 1.3,16.6 22.1,26.4 38,13.9 2.5,-0.2 2.4,2.2 1.8,6.2 -1.6,9.5 -12.4,39.4 -19.3,41.3 -34.6,-29.6 -48.3,22.9 -24.8,33.9 13.6,6.4 34.9,1.8 45.1,-14.6 7.8,-12.5 6.9,-10.4 9,5 0.8,5.7 1.9,12.4 2.5,15.4 1.8,9.3 -0.2,11.1 -16,15 -12.7,4.6 -25.5,7.1 -38.6,9.6 -23.8,3.4 -36.3,21.1 -37.4,42.9 -0.2,4.7 -0.1,6.9 -1.1,8.3 -101.3,36.1 -209.1,87.2 -323,176.1 l 6.9,-600.3 z m 666.1,431.8 c -3.7,-6.2 -15.2,-38.8 -18.2,-52.4 -7.4,-65.6 -7.4,-143.2 -15.5,-204.3 l 12.2,1.6 c 0,0 4.3,17.7 8.2,65.4 2,23.7 3.5,72.8 5.1,95.4 2.4,33.6 16.4,87.5 25.5,101.2 14.8,22.4 45.9,8.7 36.1,-17.7 -5.1,-13.7 -25.8,-11.9 -23.2,2.2 0,2.5 2,-1.8 5.1,-4.3 9,-3.2 18.9,6.3 13.4,17.4 -6.8,14.2 -25.9,7.2 -31.9,-10.9 -7.2,-21.7 18.9,-37.3 37.8,-23.7 21.1,15.1 20.4,52.1 2.9,63.4 -29.2,10.1 -48.5,-11.5 -57.5,-33.3 l 0,0 z m 71.2,28.7 c -1.2,-0.7 0.1,-2.9 1.6,-8.3 5.8,-19.9 2.7,-35.6 -9.9,-50.5 -7,-8.3 -9.7,-9.8 -5.9,-11.2 8.1,-3 25.5,10.2 30.1,22.9 4.5,12.5 5.5,25.3 -1.6,39.2 -4.7,2.9 -12.1,8.8 -14.3,7.9 z m 22.2,-12.8 c 0,-2.3 1.8,-9.7 2.2,-13.3 1.7,-13.9 -4.5,-28.2 -15.9,-39.5 -9.5,-9.5 -10.4,-10.5 -1.2,-10.4 23.6,0.1 37.9,38.6 26.6,57.2 -2.8,2.9 -11.5,8.8 -11.7,6 z m 20.3,-12.6 c 7.6,-32.4 -23.4,-54.8 -24.1,-53.8 1.7,-7.3 14.2,-2.8 18.4,0.1 15.7,11 24.3,39.2 14.2,54.9 -1.1,1.9 -2.4,3 -4.2,4 -3.3,2 -5.3,3.6 -5.9,2.2 -0.6,-1.1 1.3,-5.8 1.6,-7.4 l 0,0 z m -275.1,-111.4 c 3.4,-3.2 4.3,-3.2 10.6,-0.7 19.7,7.9 35.8,-6 31.4,-21.1 -1.6,-5.5 -8.9,-11.5 -13.5,-12.1 -7.5,-0.9 -7.7,3 0.3,6.2 9.8,3.9 10.6,14.4 1.8,19 -10.4,6.7 -26.8,-11.2 -39.1,-10 -5.9,1.6 -9.8,7.1 -6.6,13.8 2.6,4.8 11.4,7.9 15.1,4.9 z m -22,-2.6 c -6.8,-3.3 -9.4,-3.3 -8,-10.8 1,-4.9 8.7,-38 12.3,-50.8 10.8,-38.3 1.8,-59.8 -26.4,-69 -19.1,-6.2 -35.8,-3.6 -55.6,6.4 l -3.3,-11 c 82.6,-19.8 222.8,-12.1 222.3,-11.3 2.5,11.1 3.4,22.2 4.2,33.3 0,0 -26,-13.4 -39.6,-18 -21,-6.9 -54.5,-0.5 -60.7,11.5 -3.5,6.8 -1.8,11.4 12.5,4.1 23.5,-12 70.7,-1.5 87.2,12.1 3.8,3.1 3.6,3.8 3.6,7.4 0,5.5 0.3,5.8 -7.2,1.6 -39.4,-21.2 -73.6,-19.5 -85.9,7 -2.7,-0.9 -13,-2.9 -13,-2.9 l 10.8,16.6 1.8,17.2 c 0,0 17.9,10.4 27.8,14.9 9.8,4.4 4.2,-0.2 -7.7,-8.8 -8.7,-6.4 -1.6,-8.2 4.2,-5.7 12,3 29.5,6.9 50.1,-5.6 6.4,-3.9 20.8,-0.1 21,1.7 0,0 1.6,15.1 2.9,46.5 0.6,14.8 2,34.3 2.9,42.2 2.6,24.1 3.5,25.5 -8.9,13.7 -4.2,-4 -11.1,-10.5 -11.2,-10.1 -1.8,7.4 16.6,20.9 20.9,25.5 6.4,7 11.4,24.5 8.7,25.5 -1.7,0.6 -19.1,-14.8 -32.8,-28.6 -5.1,-5.2 -12.8,-12.1 -13,-11.9 -2.9,1.9 8.5,15.3 19.3,25.4 12.6,11.8 14,12.9 9.7,14.5 -8,3 -15.1,-1.1 -34,-17.4 -1.8,-1.6 -9,-6.9 -9.4,-6.6 -1.8,2.3 15.6,19.5 19.6,21.1 7.4,2.8 9.5,10.1 3.5,12.9 -4,1.8 -18.5,-6.6 -30.1,-17 -2.1,-1.9 -7.9,-5.1 -8.3,-4.7 -2.4,1.5 10.6,13.1 23,21 12.2,7.7 14.1,9.6 10.8,15.7 -3.1,6.3 -29.8,-9 -43,-24.4 -2.8,-3.3 -5.1,-4.7 -4.5,-3.6 5.6,16.5 24.7,28.6 39,33.5 2.6,0.9 6.3,2 7.9,3.4 4,3.3 3.1,6.7 -1.4,8.6 -15.5,4 -39.4,-15.1 -56.3,-35 -2,-0.9 -0.8,1.7 -0.3,2.6 14,23.4 41.4,41.6 58.1,38.6 9.8,-1.7 17.6,1.4 17.6,4.7 0,2.7 -5.5,6.9 -16,7.4 -23.8,1.2 -60.4,-25.6 -81.4,-59.1 -0.7,-1 -1.4,-1.4 -1.5,-0.8 -0.7,7 12.4,24.5 22.6,34.5 30.2,29.9 59,40.4 82,24.4 13,-9.6 25.8,-31.1 6.9,-38.7 -10,-4 -16.7,9.7 -8,5.9 11.4,-1.1 13.8,4.9 12.2,10.6 -3.1,9.6 -12.7,11 -20.5,6.7 -13.5,-7.7 -10,-32.9 7.7,-36.9 16,-3.5 29.5,10.2 31.1,23 2.4,19.9 -20.4,40.9 -38.4,45.9 -61.6,16.9 -107.6,-69.1 -107.8,-71 -2.9,-6 -6.6,-9.2 -9,-2.3 -2.7,9.9 -17.1,38.9 -24.5,38.6 2.5,-10.3 12.6,-27.4 10.5,-42.7 -4.3,12.4 -13.5,38.8 -30.3,52.7 -4.3,3.8 -17,8.1 -8.1,-1.7 10.7,-14.4 24.8,-34.2 22.3,-53 -2.9,4.2 -4.6,14.8 -7.9,21.8 -8.3,17.5 -26,38.1 -37.5,41.3 -8.5,2.3 -7.6,-0.5 1.2,-9.4 9.4,-9.5 26.4,-37.8 25.6,-50.2 -0.4,-5.5 -18,46.7 -49.3,60.5 -8.4,2.9 -13.1,-1.1 -13.1,-1.1 12.3,-6.8 46.7,-39.3 44.3,-77.1 0,0 -1.9,5.6 -4.7,13.9 -12.2,35.8 -37.2,59 -56.4,60.6 -15.3,1.3 -25.9,-5.1 -22,-7.8 19.8,0.6 36.2,-6 49.3,-25 13.3,-19.4 18.8,-50.8 11.7,-84.3 -6.4,-30.2 -7.4,-57.3 -9.3,-86.3 21.6,7.9 43.3,13.2 64.6,5.4 -2.3,8.6 -5.8,9.6 -11.6,16 -4.1,4.7 -2.8,5.8 13.2,-5 4.7,-3.2 6.4,-5.7 7.2,-4.8 1.3,1.4 -1,10.3 -5.9,27.9 -7.4,26.3 -5.7,28.3 19.5,38.7 4.7,2 6.4,3.8 8.1,5.8 0.8,0.9 4.8,8.5 5.2,8.8 0.9,0.6 0.8,-7.6 0.4,-9.7 -1.2,-5.6 -4.2,-9.8 -6.8,-11.5 -4.9,-5.3 -12.1,-5.8 -16.7,-8 l 0,0 z m 472.7,355 0.8,-27.5 26.3,19.5 -0.5,9.1 -26.6,-1.1 z m -45.7,5 9.5,-508.2 c 0,0 20.8,-13.2 31.1,-19.7 6,20.3 5,63.5 2.2,82.7 -4.3,12.4 -7.2,68.2 -3.2,96.6 3.2,22.7 1.7,60.1 -2.1,77.9 -1.5,7 -1.1,39.8 0.8,70.2 1.4,23.2 0.5,44.3 -2.6,56.3 -2.4,9.5 -2.3,43.5 -0.1,56.6 3.3,19.3 2.7,81.1 0.9,84.4 -4.4,4.9 -38.9,4.9 -36.5,3.2 z m 51.5,-530.9 c 0,0 20.3,14.1 30.2,21.1 l -0.3,21.9 -29.4,-20.1 -0.5,-22.9 z m -308.6,29 12.7,1.1 c 4.5,26.6 6.1,56.7 7.5,86.9 -0.3,46.5 4.4,95.7 14.7,128 l -9.6,9.6 c -15.2,-37.2 -15.3,-95.3 -18,-134.7 -0.6,-44.2 -6.9,-90.6 -7.3,-90.9 l 0,0 z m 310.5,1.8 27.4,19.4 -0.2,23.8 -27.6,-19.1 0.4,-24.1 z m -292.1,0.3 11.2,1.4 c 2.8,31.5 7.5,52.9 8.8,87.6 1.6,44.8 8.6,81.7 12.7,116.8 l -8.4,2.6 c -5.7,2.5 -14.1,-39 -16.5,-122.9 -0.8,-25.3 -4.5,-53.9 -7.8,-85.5 l 0,0 z m 16.9,1.6 13.3,2.7 c 4.3,79.6 12.1,154.5 21,197.5 l -11.7,0.5 c -13.1,-61.5 -12.6,-132.3 -22.6,-200.7 l 0,0 z m 19.3,3.2 12.3,2.4 c 11,182.2 20.2,180 22.9,187.2 l -13.4,5.1 c -13.4,-52.5 -14.8,-126.3 -21.8,-194.7 l 0,0 z m 52.1,179.8 c -2.2,6.1 -7.2,5.4 -12.7,5.9 -5.7,-16.8 -8.9,-36.8 -11,-56.4 -4.7,-43 -5.9,-83.2 -10.9,-125.6 l 14.6,1.8 c -0.4,0.3 7.4,149.4 20,174.3 l 0,0 z m -312.3,-166.4 c 19.3,1.3 35.2,10.3 36.5,23.1 0.3,2.9 -1.9,1.4 -4.5,-0.6 -16.4,-13.1 -35.2,-17.5 -58.2,-9.7 -5,1.7 -9.1,4.4 -11.4,4 -2,-1.3 -2.5,-4.4 -0.9,-7 5.4,-8.8 29,-10.5 38.5,-9.8 z m -45.3,24.6 c 0,20 -5.1,31 -15.7,35.4 -12.8,5.3 -28.8,-7 -20.6,-20.2 6.2,-10 16.4,-6.7 18.1,3.9 l 16.9,-35.6 c -0.1,0.1 1.3,11.5 1.3,16.5 l 0,0 z m 588.6,8.9 -0.6,20.6 -29.3,-20.5 2.4,-19.8 27.5,19.7 z m -527.4,-13.6 c 14.5,6.1 19.8,13.3 20.2,16.5 -0.9,2.3 -2.3,0.7 -12.9,-5.3 -16.3,-10.4 -37.7,-12.5 -56.8,-0.1 -4.7,0.8 -5.1,-1.8 -0.3,-6.8 14.5,-11 34.4,-10.7 49.8,-4.3 z m 111.3,-1.5 c 12.9,-0.1 28.2,3.5 41.1,10.3 5.7,3 10.8,4.9 14.5,8.3 3,1.6 3.1,8.4 0.9,8.9 -2,0.2 -5.1,-1.4 -9.9,-4.8 -30.5,-20.7 -52.8,-18.7 -70.9,-6.7 -1,0.7 -4.1,1.3 -5.3,1.2 -3.4,-0.3 -3.6,-1.7 -2.1,-3.5 8.4,-9.3 20.9,-13.6 31.7,-13.7 l 0,0 z m 386.1,22.4 29.4,21.4 -0.4,20.5 -31.2,-22.7 2.2,-19.2 z m -538.1,-2.8 4.3,0.2 c 9.6,24.8 22.6,12.4 28.1,2.6 l 5.3,1 c -8.9,32.8 -42.3,14.9 -37.7,-3.8 l 0,0 z m -7.4,3.1 c 4.9,0.7 4.6,6.3 6.1,10.4 3.3,9.1 -9.7,1.2 -11.8,-1.1 -3.8,-4 1.7,-8.9 5.7,-9.3 z m 147.5,2.1 c 12.4,19.8 20.1,8.4 27.6,0 l 3.5,1.2 c -1.2,14 -25.1,28.5 -35.8,-1 l 4.7,-0.2 z m 39.4,3.1 c 1.4,0.1 4.1,1.1 6.6,2.2 7,3 6.6,5.1 -1.3,8.4 -12.6,5.3 -16.9,5.9 -13,-1.8 2.3,-3.7 3.8,-8.4 7.7,-8.8 l 0,0 z m -48.8,1.9 c 3.1,2.4 5.1,5 5.4,9.1 0.2,2.9 -9.5,-0.6 -9.3,-5.3 0.3,-2.9 1.9,-5.3 3.9,-3.8 z m -86.2,-0.6 c 6.3,2.5 5.5,5.5 1,8.2 -8.1,4.3 -11.5,3.3 -6.2,-3.6 2.5,-3.2 3.1,-4.6 5.2,-4.6 z m 491,20.4 31.8,23.4 -0.7,20.8 -31.8,-22.6 c -1.3,-9 0.3,-15 0.7,-21.6 l 0,0 z m -558.3,20.7 c 1.5,0.1 2,5.1 2.2,12.5 0.3,12.3 -12.5,29.2 -25.3,34.8 -15.4,6.8 -31.5,-3.5 -28.5,-18.2 2.8,-13.6 22.1,-13.7 22.6,-1.1 -1.9,3.3 0.6,6.1 1.7,5.8 5,-1.2 16.9,-11.5 22,-23.2 2,-4.6 3.2,-9.3 4.5,-10.3 0.3,-0.2 0.6,-0.3 0.8,-0.3 z m 556.9,7.7 31.8,24.2 -0.3,20.7 -31.5,-22.7 c -1.1,-9.2 -0.4,-15.8 0,-22.2 l 0,0 z m -392,24.7 c -2.5,4 -0.7,11.4 4.5,5.3 13.2,-14.7 31.4,4.4 21.2,16.1 -9.3,10.6 -20.3,6.9 -43.6,-2.5 -17,-6.9 -19.7,-4.7 -24,-0.1 -3.6,3.8 -1.9,11.7 2.6,11.7 13.8,3.4 25.7,6.7 40,10 30.2,6.8 49.5,-31.8 22.1,-46.8 -6.7,-3.6 -20.5,0.6 -22.8,6.3 z m -133.9,1.7 c -12,10.4 -2.9,38.4 14.4,41.3 3.6,0.6 9.1,0.6 15.3,-1.1 12.3,-3.3 25.8,-10.2 26.5,-14.4 2.9,-19 -25.9,-2.5 -29.7,-0.3 -9.1,5.3 -18.5,4.4 -23.2,-2.2 -10.5,-14.8 9.2,-31.1 20.5,-13 2.9,4.6 2,-3.1 -1.1,-8.3 -4.4,-7.4 -16.1,-7.2 -22.7,-2 z m 527.4,4.9 29.9,22.1 -0.6,19.9 -29,-21.8 -0.3,-20.2 z m 1.6,29.2 28.3,21.2 0.1,20.7 -29.7,-20.5 c 0.7,-7.3 1,-14.3 1.3,-21.4 l 0,0 z m -161.1,8.6 c 25.2,0.9 38.7,38.5 25.1,53.8 -4.1,4.5 -7.2,5.7 -9,3.9 -0.4,-0.4 0.3,-4.5 0.7,-9.2 1.1,-15 -1.9,-25.4 -12.6,-37 -8.1,-8.8 -11.2,-11.5 -4.2,-11.5 z m -310.9,-0.5 c -4.8,1.6 -9.9,4.9 -13.8,4 -3.8,-0.9 -5.7,1 -7.3,3.9 -6,11.5 -4.3,15.2 7.3,8.9 5.5,-3 7.4,-1.8 21.9,1.2 10.4,2.2 17.4,2.1 26.6,-0.1 11.4,-2.7 18.2,-2.8 23.9,0.5 5.7,3.3 9.5,7.7 9.8,4.2 -0.6,-4.1 -3.9,-14.8 -4.7,-18.3 -0.4,-1.7 -3.2,-0.3 -5.9,-0.1 -9.4,0.5 -20.5,-8.2 -27.9,-3.9 -5.9,3.5 -6.7,4.4 -14.6,-0.5 -6,-3.6 -10.1,-1.5 -15.3,0.2 z m 303.9,8.9 c 16.8,14.6 20.9,27.4 19,37.7 -1,7.5 -1.7,15.9 -9.2,20.3 -1.4,0.6 -3.4,1 -5.3,1.2 6.2,-21.4 -0.2,-40.7 -23.9,-61.7 7.1,-3.3 14.2,-2 19.4,2.5 z m -385.5,-8 c 0.8,0 1.6,0.2 2.4,0.5 2.9,1 3.3,8.8 0.9,11.2 -2.4,2.4 -4.2,0.3 -6.8,-5.9 -1.9,-3.4 0.3,-5.9 3.5,-5.8 z m -15.9,5.7 c 6.2,0 8.5,5.8 9.5,10.3 0.8,3.9 -0.6,15.5 -3.8,11.4 -0.7,-2.5 -4,-10.5 -6.6,-12.6 -6,-4.7 -5.3,-9.1 0.9,-9.1 z m -17.6,5.4 c 0.9,0 2.1,0.1 3.5,0.4 9.7,1.8 16.8,17.5 14.4,26.2 -5.4,9.4 -7.1,2.9 -8.7,-5.7 -1.3,-3.6 -5.1,-9.2 -7.5,-12.2 -5,-6 -5.7,-8.7 -1.7,-8.7 z m 585.7,7.6 29.2,21.9 -0.4,22.8 -30.6,-21.5 c 0.9,-8 1.4,-15.6 1.8,-23.2 l 0,0 z M 942.6,-949 c 14.5,0.3 26.6,17.5 21.7,33.7 -6,16.9 -34.2,12.7 -29.2,-4.2 1.5,-4.8 6.7,-8.3 11.6,-5.1 7.1,4.6 6.4,-2.6 1.9,-5.3 -6.9,-4.1 -16.7,-1.9 -19,6 -8.1,27.6 27.3,37.7 47.3,9.5 7.3,-10.3 15.2,-21.4 19.6,-26 3.9,-4.2 4.7,-3.7 4,1.8 -3,25.7 -21.6,57.5 -55.2,55 -32.6,-3.8 -42.2,-38.7 -17,-59.9 4.2,-3.6 8.6,-5.3 12.9,-5.5 0.5,0 0.9,0 1.4,0 z m 173.3,5 c -12.1,5.6 -23,7.5 -34.7,2.1 -8.6,-4 -8.6,0.1 -4.9,3.6 10.8,9.5 30.7,5.7 39.4,0.7 2.8,-1.6 3.8,-6.5 0.2,-6.4 l 0,0 z m 460.5,50.7 -0.3,20.7 -32.7,-22.9 c -0.4,-5 0.3,-12.5 1.5,-20.2 l 31.5,22.4 z m -32,6.2 31.1,21.4 0.4,20.5 -30.2,-19.6 -1.3,-22.3 z m 1.6,28.9 29.7,21.5 0,22.4 -29.4,-20.3 -0.3,-23.6 z m -735,8.3 -19.6,55.3 12.1,1 7.8,14.9 8.7,-14.9 12.7,-0.7 -21.7,-55.6 z m 735.6,22.7 28.6,20.5 0,20.7 -29.7,-21.5 1.1,-19.7 z m -1.7,25.3 29.3,22.1 0.1,22 -33.3,-23.2 3.9,-20.9 z m -666.1,-1.4 -19.5,59.3 10.3,-1.2 9.3,16.2 10,-14.1 9.2,0.7 -19.3,-60.9 z m -137.5,1.6 -18.6,58.9 11.7,0.2 9.5,15.2 8.9,-14.3 13.2,-0.1 -24.7,-59.9 z m 799.1,27.5 34.4,25.2 -0.2,23.3 -33.4,-23.4 -0.8,-25.1 z m 33.4,56.1 0,20.4 -29,-21.5 -2.7,-22.8 31.7,23.9 z m -623.5,-9.4 -22.6,59.8 14.3,0.4 8.4,14.6 7.2,-14.4 11.5,0.4 -18.8,-60.8 z m 596.3,18.3 26.9,19.2 -0.6,21 -26.5,-18.5 0.2,-21.7 z m -521.8,233.1 -15.2,-15.3 c -0.2,-1.2 12.9,-7.2 20.7,-3.1 10.4,5.5 15.4,24.4 3.4,34.1 -9.5,7.7 -23.6,0.8 -23.9,-0.1 l 15,-15.6 z m -13.3,-24.9 c 0.8,-23.1 -11.3,-29.2 -21.2,-34.1 0,0 1.3,-146.2 1.6,-150.6 0,0.6 -2.2,-15.9 -2.5,-16.9 l 0,0 c 0,0 -2.4,-0.7 -2.4,-0.7 0.1,14.8 -2.1,166.7 -2.3,167.7 -18.8,1.8 -24.4,14.4 -26.4,31.4 -14.6,-1.4 -24.4,7.2 -24.7,8.7 -5.3,-7.5 -1,-18.4 -5.1,-26.3 -13.9,45.2 10.8,72.9 32.9,70.8 2.6,43.7 50.5,52.6 50,-0.4 58.2,-2 39.6,-55.8 0.1,-49.6 z m -269.3,-189.1 -22.3,58.6 14.8,-1.4 5.2,11 c 24.1,-20.3 35.3,12.1 23.9,-15.8 l -21.6,-52.4 z m 797.8,121.5 c 2.7,-0.1 6.2,2.4 6.9,5.7 0.3,10 -13,7.5 -13.3,1.2 -0.2,-4.5 3.9,-6.7 6.4,-6.9 z m 7.4,65 c 5.9,-4.6 15,-1.8 15,5.4 0,6.3 -7.3,8.3 -12.9,4.6 -4.3,-2.8 -4.5,-7.8 -2.1,-10 l 0,0 z m 0.5,17.6 c 31.6,3.1 55.6,-17.9 45.8,-33.6 8.7,-10.5 1.9,-16.8 4.4,-22.9 6.9,-6.8 1.5,-21.7 -0.1,-21.8 -1,-19.9 -6.7,-22.6 -15.1,-33.3 -2.5,-3.1 6.1,-5.9 9.6,-11.2 -8.8,3.2 -17.3,-3.5 -17.2,-5 l -3.6,-4.7 c -58.7,1.5 -111.4,4.5 -111,84 -9.1,33.6 4.5,63.9 45.6,55.5 9.1,-7.8 3.5,-19.5 2.5,-25.1 -3.2,-15.4 1.1,-25.3 2.3,-32.4 3.9,-22.1 20.6,-42.4 21.7,-7.6 2.9,-4.3 1.6,-5 6.4,-6.7 11.3,-3.8 11.1,7.5 8.7,12.1 -1.5,2.3 -3.8,2.1 -6,1.8 -3.3,-0.5 -7.5,-1.8 -7.5,-3 -1,3.6 5.7,10.5 4.9,13.8 -1,3.2 -1.5,2.9 1.5,0.9 14.3,-9.8 22.7,12.9 2.3,9.9 9.8,5.6 -5.4,21 4.8,29.3 z m -18.4,-121.7 c 11.1,-0.3 13.8,-0.4 13.2,5.4 1.9,10.8 4.5,15.9 18.5,15 14.2,-1.5 18.7,-2.3 4.3,5.9 -7.3,3 -9.6,3.6 -18.1,2.6 -8.6,-1 -7.9,-1.8 -12.9,1 -2.8,1.6 -5.8,3.5 -8,3.9 -3.3,0.5 -9.2,1.7 -9.2,1.7 -3.7,16.6 -8.9,25 -15.9,32.8 -10,10.9 -15,12.8 -3,12.2 4.4,0.4 2.2,-1.9 3.8,16.2 0.5,6.3 1.6,13.7 2.5,16.1 3,8.3 3.3,12.4 -8.6,12.7 -29.7,1.6 -36,-27.4 -31.8,-42 0.4,-2.3 1.9,-10 2.3,-16 0.2,-3.3 -0.4,-6.2 -0.2,-9.6 1.2,-27.5 7.9,-34.6 32.7,-51.9 7.4,-5.3 20.6,-6.1 30.4,-6 z m 26,2 c 13.7,0 26.8,6.8 20.1,11 -4.3,2.7 -19.7,1.2 -23.9,-1.9 -5.4,-4.1 -3.2,-9.1 3.8,-9.1 z M 945,-595 l -5.6,9.5 -6.6,44.6 0.8,9.1 10.9,14.9 9.2,-15 13.9,0.5 L 945,-595 Z m 639.7,8.8 c 8.8,2 9,10.1 6.7,15 -5.2,10.8 -38.4,15.5 -38.4,15.5 -0.2,-4.7 0.6,-9.2 -2.8,-14.6 0,0 22.2,-5.3 26.9,-9.5 3.2,-2.8 5.2,-6.4 7.6,-6.4 l 0,0 z m 6.1,25 c 3.2,0.1 4.9,2.5 5.6,7.2 0.4,2.5 -0.6,4.7 -2.8,7.4 -8.6,9 -32.4,14.8 -40.9,12.3 -0.6,-0.8 1.1,-10.4 1.8,-14.7 11.4,0.7 30.8,-9 36.3,-12.2 z m -338.3,49.4 c -11,-16.5 -36.1,-14.7 -33.4,-13.5 0.5,-14 -1.5,-33.2 -22.7,-35.7 -21.3,-2.1 -32.9,25.9 -25,38 -13.1,-5.7 -33.1,7.6 -33.2,8.9 -1.7,0 -17.6,39.7 28.1,42.7 3.8,18.9 10.7,28.2 25.2,36.3 l -2.8,154 5,7.1 3.8,-161.3 c 23.4,-0.6 26.9,-27.3 25.3,-33.5 10.4,0.7 19.9,-1.2 28,-7.1 l 2.2,26.4 c 0,0 5.7,-9.2 4.6,-14.1 -7.1,-151.4 51,-313.8 125,-418.4 3.9,-4.4 5.2,-9.7 7.1,-9.7 17.7,-9.1 28.9,-15.2 28.9,-15.2 28.6,14.5 79.4,49 79.4,49 l -3.6,215.5 c -0.8,-2.1 96.3,-8.8 94.8,-6.2 0,0 -8.4,-3.5 -8.4,-9.2 l 7.9,-504.2 -41.8,-28.6 c 0,0 -35.3,22 -45.2,29.6 l -5.1,296.8 -74.1,-45.5 c 0,0 1.4,-10.5 1.6,-13.9 -0.4,-40.5 -20,-54.5 -58.1,-43.3 -5.1,1.5 -8.7,2.8 -11.1,0.7 -15,-46.9 -19.6,-169.5 -19.6,-169.5 l 110.6,-178.8 181.2,2.7 -11.1,691.6 -0.9,362.6 -93.9,65.5 3.4,-232.2 c 0,0 -13.1,-6.6 -16.6,-7.1 -1.3,-0.1 -3,2.8 -0.7,4.3 3.4,2.2 11.7,5.4 11.7,5.4 l -2.8,230.2 c 0,0 -36.5,23.5 -52.7,33.2 -12.1,7.2 -50.4,25.5 -73.1,36 -8.8,4.1 -17.7,7.3 -18.5,8 -30.9,12.5 -58.6,21.1 -84.4,34.2 -17.7,6.8 -16.8,-0.2 -20.4,-6 -36,-37.1 -83.3,-40.2 -122,-24.2 -6,2.1 -13.4,3.9 -18.4,7.2 -1.5,1 -4,2.2 -5.6,2.5 -3.4,0.7 -7.1,2.1 -10.2,4.5 -5.6,4.3 -9.4,11.3 -12.7,18.3 -2,4.3 -8.3,24.6 -9.2,30.7 -0.2,1 1.9,0.8 2,0.9 0.3,0.4 6.4,-24.6 8.7,-29.3 5,-10 11.1,-16 14.3,-16.9 1.5,-0.2 2.7,2.1 0.6,5.6 -4.1,7 -7.6,22 -8.7,28.8 -1,6.3 -1.3,11.3 -0.1,11.5 0.2,0.2 6.1,-18.9 8.8,-25.6 6.9,-17.5 11.1,-24.8 17.5,-28.4 6.5,-3.7 8,-3.2 6.7,0.9 -10,18.5 -14.2,32.5 -16.5,52.3 -0.4,4 1.6,4.1 3.4,-2.4 5.7,-20.8 13.4,-48.8 30.6,-56.9 7.3,-3.1 10.5,-2.9 9.7,-0.6 -20.8,25.1 -26.4,53.4 -26.4,62.6 0,3.1 1.3,2.5 4,-4.1 7.4,-25.1 18,-46.3 30.3,-56.5 4.8,-4 10.4,-5 15.2,-5.5 14.3,-1.5 14.7,3.8 2.1,10.8 -14.3,8 -31.3,37.6 -33.6,60.1 -0.8,7.8 2,8.7 4.1,-1.7 9.3,-44.6 48.3,-73.5 78.8,-59.1 13.7,6.5 16.1,15.1 4.1,11 -24.2,-8.2 -51.7,8.5 -63.4,32.4 -10.6,21.6 -10.6,33.1 -4.1,62.4 4.3,27.1 13,61.8 9.4,88.1 -3.5,5.1 -13.9,-2.4 -26.4,-4.2 -7.5,-1.6 -16.7,-2.1 -24.7,0.7 -6.9,2.5 -10.8,3.1 -12,-0.7 -0.4,-1.2 5.4,-6.9 8.1,-10.1 4.2,-5.1 1.9,-5.9 -4,-0.5 -2.9,2.7 -9,8.9 -10.7,9.2 -3.6,0.7 -3.7,-3.4 -0.6,-13.8 11.1,-40.1 8.4,-40.9 -9.1,-49.4 -17.3,-7 -11.7,-10.2 -19.3,-17 -5.5,4.1 6.6,23.9 20.7,28.4 11.5,3.7 10,9.6 4.6,25.5 -5.6,22.2 -15,51.6 -10.3,71.6 9.8,41.9 52.2,41.9 84.9,25.8 l 3.7,10.7 c -27.6,10.5 -172.3,17 -220.8,10.4 -3.5,-13.2 -3.8,-16.6 -5,-32.1 0,0 29.8,14.2 44.7,16.9 18.7,3.3 47.5,4.1 55.3,-13 2.4,-5 0.1,-9.3 -6.4,-6.5 -12,5.1 -32.4,8.7 -48.8,7.4 -13.8,-1.1 -33.3,-7.1 -41.7,-12.4 -4,-2.5 -7.3,-7.3 -4,-13.2 2.8,-0.6 6.4,2.6 8.6,3.8 24.6,13.1 38.2,15.8 54.5,11.3 12.4,-3.4 29.2,-16.3 25.2,-20.2 -4.2,1.4 -18.2,12.6 -27.8,15 -19.7,4.8 -40.4,-3.6 -60.4,-17.2 -6.2,-5.6 -3.2,-9.5 4.4,-5 30.1,15.9 42.6,26.4 72.2,5.5 6.6,-4.7 10.2,-4 14,-1 14.8,13.9 15,6.3 4.2,-8 -2.5,-3.2 -4.6,-7.8 -6,-12.6 -1,-3.5 -1.2,-7.1 -3.2,-9.4 -3.4,-4 -9.5,-6.1 -16.5,-9.3 -10.1,-4.7 -13.6,-2.6 -6.1,1.2 13.1,6.7 19.3,13.7 3,9.7 -14.7,-7 -39.6,-3.7 -53.9,5.7 -11.1,5.2 -16.1,10.8 -18.5,-1.4 -4.9,-25.5 1.1,-59.8 -5.3,-104.3 -1.2,-8.5 -2.8,-13.9 -1,-15 2.3,-1.4 7.8,4.1 14.7,14.2 3.1,4.6 9.3,13.3 9.3,11.5 0.4,-9.4 -13.8,-27.3 -25.7,-34.5 -6.5,-3.9 -10.7,-21.7 -3.2,-17.6 5.8,3 35.6,30.3 41.2,40 2.6,4.5 4.9,1.7 2.2,-3.6 -1.6,-3.2 -8.6,-12.5 -15.4,-19.4 -12.1,-12.3 -13.5,-11.8 -11.1,-14.2 4.8,-4.8 14.7,1.7 32.2,18.2 4.5,5.9 10.4,11.2 9.7,8.3 1.9,-4.5 -15.6,-24.1 -26.1,-29.4 -2,-1.3 -2.2,-2.6 -2,-5 1.2,-9.1 21.4,4.7 38.2,20.6 6.3,6 1.2,-5.1 -6,-12.7 -5.7,-6 -14.9,-13.5 -21.2,-16.1 -6.3,-2.7 -6.5,-8.2 -1.5,-10.4 17.1,-0.4 34.3,17.4 44.6,31.4 2.8,3.8 5.4,6.8 2.6,-0.4 -9.3,-21.7 -29.3,-34.2 -43.2,-36.9 -11.3,-2.2 -10.9,-12.5 -0.2,-11.1 11.7,1.5 30.8,12.5 46.8,29.3 4.7,4.9 12.4,15.9 10.9,9.5 0,-1.7 -4.9,-8.6 -10.5,-15.3 -13.1,-13.6 -28.4,-25.6 -44.8,-29.4 -7.7,-2.3 -30.6,1.6 -30.7,-2.4 0,-2.9 2.5,-4.6 9.8,-6.9 28.5,-8.8 69.3,16.3 91.2,54.1 1.6,2.7 4.6,3.9 4.8,3.3 -10.3,-30.7 -43.7,-59.1 -70.6,-64.4 -18.3,-3.3 -36.9,1 -46,13.2 -10.2,13.7 -6.7,32.4 8.2,31.2 7.8,-0.6 7.3,-5 7.1,-5.1 -0.5,-0.5 -5.1,1.5 -7.9,0.9 -10.1,-2.2 -8.7,-20.6 6.2,-18.5 17.1,2.4 18.9,29.5 -0.3,34.8 -17.8,4.9 -24.1,-3.3 -28.7,-13 -6.8,-14.2 1.3,-36.6 13.9,-45 35.4,-23.5 79.1,-2.3 103.6,22.3 12.1,12.2 20.8,26.5 26.2,41.8 1.4,3.6 4,3.4 3.1,-0.4 -33.2,-90.3 -137.8,-102.1 -154.7,-33.7 0,0 -0.6,2.1 -10.4,-12.4 -15.8,-23.5 -40.1,-29.2 -70.5,-14 -30.6,10.8 -41,17.8 -62.2,28.3 -3.1,1 -22.8,14 -25.9,11.2 -29.4,-20.4 -55.2,-27.6 -69.1,-42.4 0.5,-2.6 -1.1,-42.9 -1.1,-42.9 l 4.3,-173.1 c 0.2,-1.7 -15.8,0.8 -42.5,4.4 -71,12.7 -64.1,-24.4 -73.4,-27.2 -4.9,-1.1 -4.6,1 -3.2,-132.5 0.4,-38.8 1,-106.9 1.4,-151.5 0.3,-44.5 1,-81.7 1.4,-82.4 0.4,-0.8 4.5,-4.1 9.1,-7.3 17.5,-11.9 27.3,-19.1 65.7,-47.1 8.7,-6.3 10.9,-7.4 10.9,-7.4 2.7,80.3 -2.9,164.4 -2.2,233.4 l 3.2,0.1 3.5,-231.5 c -6.5,-1.8 150.7,-89.5 236.4,-117.2 1.6,-0.5 5.6,1.3 5.6,1.3 47.6,60.9 176.5,45.4 188.3,-27.3 20.4,44.9 112.1,133.1 157,30 0,0 14.9,30.2 28.1,32.5 29.8,4.6 33.2,-0.1 99.6,-30.6 -78.1,112.7 -122,232.6 -130.3,378.8 l 0,0 z m -39.4,-29.3 c 1.5,5.1 2,11.6 0.4,16.7 -2,4 -4.9,3.9 -4.9,3.9 l -14.3,-12.7 -14.5,12.9 c 0,0 -8.5,-9 -3.5,-21 9.5,-16.9 30.3,-13.4 36.8,0.2 z m 376.2,5.8 c 9.3,-0.4 4.3,10.2 -9.6,17.2 -8.7,4.4 -15.9,5.5 -19,3.8 -1.6,-5.1 -0.1,-9.6 1,-11.7 5.9,-2.9 22.2,-7.8 27.6,-9.3 l 0,0 z m -602.1,7.7 c 10.4,0 19.2,7.5 19.2,20.6 0,5.3 -2.8,10.5 -2.8,10.5 l -17,-13.1 -13.5,13.8 c -2.3,0.7 -10.2,-9.5 -4.4,-20.4 4.3,-7.8 11.4,-11.3 18.5,-11.4 z m 249.9,11.2 c 14.4,6.9 16.5,27.3 2.2,34.8 -6.8,3.6 -17.4,5.4 -22.2,-2.2 l 14.6,-15.3 -16.1,-14.1 c -0.7,-0.7 12.7,-7.4 21.5,-3.2 l 0,0 z m 349.2,1.9 c 2.5,0 3.1,1 3.8,3.4 1.9,6.7 -3.4,13.3 -12.4,15.2 -8.3,1.8 -7.5,2.8 -11.3,-4.7 -3,-5.9 -3.8,-5.6 1.1,-7.4 5.8,-1.8 12,-3.9 18.8,-6.5 z m -413.9,1.4 c 0,0 -10.5,10.3 -15.1,14.6 l 15.2,16.5 c 0.7,2 -18.1,10 -27.7,-2.9 -6.2,-8.4 -2.3,-24.1 6.9,-29.3 9.3,-5.3 22.5,-0.5 20.7,1.1 z m 22.3,-1.4 c 9.2,0.1 16.5,7.5 16.5,16.7 0,9.2 -7.5,16.6 -16.7,16.5 -9.2,-0.1 -16.6,-7.6 -16.5,-16.7 0.1,-9.1 7.5,-16.5 16.7,-16.5 z m -227.5,23.3 -15.2,15.3 15.7,17.9 c 0,0 -12.8,1.8 -17.3,0.9 -21.8,-4.6 -19.2,-30.2 -2.1,-36.7 7.3,-2.4 12.6,-1.5 18.9,2.6 z M 674.8,-492 c 0,0 2.2,33.1 4.7,44.4 -2,12.8 -10.5,21.4 -14.6,34.6 -2.1,5.8 -9.8,13.6 -11.1,5.3 -5.2,-10.3 0.2,-22.9 -4.1,-30.3 -2.1,-6.8 -1.4,-10.8 -2.7,-17.9 -3.2,-5.9 -5.8,-8.7 -5.2,-13.9 -0.4,-23.4 -6.3,-18.9 -16.7,-17.2 -8.6,2.6 -20.2,3.5 -27,8.4 -14.9,10 -7,16.1 -12.9,31.6 0.7,6.9 2.4,9.4 1,15.2 -6.2,27.8 4.3,25.7 3.9,26.1 -4.5,6.3 0.6,20.8 2.7,20.1 12.7,3.4 7.9,12.6 11.9,17.6 4.1,4.9 3.8,7.3 21.3,8.1 31.5,3.1 81.8,-0.5 93.4,-38.8 7.9,-54 18.8,-101.6 -44.6,-93.3 z m 313.9,1.2 c 8.9,0.1 16,7.3 15.9,16.1 -0.1,8.9 -7.3,16 -16.1,15.9 -8.9,-0.1 -16,-7.3 -15.9,-16.1 0,-8.8 7.3,-16 16.1,-15.9 z m -300.1,2.2 c 6,0.1 13,1.5 18.6,7.1 12.1,12.1 12.5,22.9 6,68.5 -1.8,12.8 -6.6,23.5 -12.7,28.1 -12.3,9.2 -27.2,15.6 -39.4,18.3 -6.5,1.4 -12,1.4 -16.4,1.2 -4.7,-0.1 -7.4,-2.4 -7.6,-6.3 1.3,-10.6 -9.6,-11.9 -15.9,-11.4 -11.2,0.2 -12.4,1.4 -5.3,-3.9 8.1,-6 26.5,-5.7 29.9,-2 7.3,-7 14.8,-7.7 24,-8.6 -1.3,-2 -4.4,-10.1 -2.2,-15.1 4.9,-8.2 13.2,-22.8 21.7,-28.1 8.5,-10.7 1.4,-5.9 -3.8,-5.8 -2.9,0 -2.7,-0.9 -3.1,-2.9 -1.9,-8.5 -4.5,-24.3 -4.3,-33.7 0.2,-4.7 4.5,-5.4 10.5,-5.4 z m -53.1,10.6 c 3.2,2.9 3.1,7 -0.4,9.9 -4,3.3 -11.7,1.3 -11.7,-5.2 0.6,-6.4 8.3,-8.1 12.1,-4.7 z m 558.9,34.5 c -13.5,0.4 -24.2,-14.2 -18.9,-28.5 2.9,-3.8 4,-3.2 4,-3.2 l 15,14 15,-15.1 c 11.9,14.8 1.1,32 -15.1,32.8 z m -575.3,-34.2 c -1.2,4.2 0.2,8.4 0.3,10.4 -2.7,1.8 -14.1,4.9 -20.3,7.8 -4.3,1.4 -7.2,-2.7 -6.6,-6.3 1.7,-6.7 11.8,-10.9 19,-12.9 2.4,-0.4 6,-0.6 7.6,1 z m 2.1,19.4 c 4.1,-0.4 2.7,8.5 1.1,13 -1.6,3.2 -6.1,3 -10.2,3.2 -7.2,0.3 -16.4,8.3 -20.2,6.9 -1.3,-0.6 -2.1,-4 -2.2,-6.2 1.1,-11.9 21,-15.9 31.5,-16.9 l 0,0 z m 21.4,12.8 c -1.4,2 -5.8,2.8 -9.5,1.8 -6,-1.8 -6.7,-10.4 -1.4,-13.3 9.4,-2.9 14.8,6 10.9,11.5 z m 594.8,-7.3 -8.4,12.3 -12.4,-0.5 18.8,61.9 9.8,-23.8 c 1.5,-11 3.2,-22 4.5,-33.1 l -12.3,-16.8 z m -264,-0.3 15.6,13.3 13.9,-13.6 c 9.7,22.8 -2.2,32.9 -14.6,32.3 -13.7,-0.6 -28,-13.9 -14.9,-32 z M 624.8,-437 c 5,-0.9 2.6,12.7 1.9,13.1 -3.2,1.1 -17.1,2.6 -23,7.4 -12.6,9.5 -17.8,3.4 -11.8,-8.1 5.5,-6.6 25.7,-12.4 32.9,-12.4 z m 15.7,1 c 5.5,-0.4 9.3,5.8 5.8,11.6 -4.7,4.2 -12.6,0.9 -12.5,-5.2 0.1,-3.8 3.3,-6.3 6.7,-6.4 z m -8.8,34.3 c 0.7,3.2 -0.4,2.2 -6.2,3.8 -3.2,0.9 -8.3,2.9 -13.6,5.4 -7.8,3.7 -10,5.8 -12.7,5.3 -2.2,-0.5 -4.6,-1.5 -5.3,-3.7 -2.5,-8.8 4.8,-17.6 21.6,-23.4 3.5,-1.2 9.7,-2.1 11.8,-2.3 5.7,0.1 -0.5,8.6 4.4,14.9 z m 10.1,-13 c 8.1,0 9.3,10.8 3.3,12.5 -14.2,3.4 -12.7,-12.7 -3.3,-12.5 z m -10.8,39.1 c 2.2,2.2 2.5,5.8 -0.1,7.6 -4.7,2.2 -22.5,-0.1 -22.5,-5.1 0,-3.3 6,-4.3 11.5,-4.3 5.6,0 9.4,0.1 11.1,1.8 z m 806,22.2 -15.1,19.4 18.7,49.8 19.3,-59.5 -14.3,5.3 -8.6,-15 z m -833.4,33.6 c 0.3,152.3 -7.5,501.1 -7.5,501.1 l 42.7,30.3 46.3,-31.8 C 686.9,70 688,-5.8 689.7,-107.4 l 66.1,38.1 c 0,0 2,3 1.4,16.7 -5.4,37.8 30.8,63.2 55.4,48.7 9.5,-3.8 10.2,-4.4 12.2,-1.4 5.2,8.3 10.7,43.3 11.2,65.7 0.9,33.6 8.3,102.3 10.4,102.8 l -112.5,182 -169.6,-2.7 12.2,-685.5 c 8.6,10.6 12.5,17.5 27.1,23.2 l 0,0 z m 631.4,-1.7 -8.4,12.3 -9.8,-0.2 15.9,64.1 22.2,-61.9 -11.5,-1.7 -8.4,-12.6 z M 679.9,175.3 c 0,0 -21.5,14.8 -28.3,19 -3.6,1.3 -5.3,1.5 -6.1,-1.9 -1,-4.2 0.9,-12.1 2.6,-25.1 1.6,-12.1 1.6,-12.7 0,-30 -1.7,-18 -2,-18.8 0.2,-42.5 2.4,-26.4 3.3,-52.2 1.6,-68.1 -1.7,-15.2 -0.9,-49.7 1,-68.9 2.4,-23.6 2.2,-44.3 -0.6,-61.4 -4.9,-30.6 -5.6,-41.2 0.6,-64 2.3,-8.5 3.5,-13.1 3.3,-27.5 -0.2,-16 -0.4,-21.2 -5.4,-56.8 -2.9,-20.5 -3.1,-23.3 0.7,-55.5 0.8,-6.5 1.1,-10.8 3.6,-12.9 2.9,-2.4 33.2,-3.5 33.2,-3.5 l -6.4,499.1 z m -69.2,-494.4 32.9,0.3 c -2.8,10.2 -3.5,18.1 -3.9,25.5 l -28.8,-19.8 -0.2,-6 z m 0.2,13.2 28.5,19.5 c -0.1,8 -0.9,15.6 0.1,23.5 l -28.8,-20.1 0.2,-22.9 z m -0.5,29.9 30.5,21.8 c 1,8.3 3.4,16.6 4.2,24.1 l -34.6,-24.5 -0.1,-21.4 z m 1000.4,29 -10.9,607.8 -308,-5 -93.8,-189.6 c 0,0 1.3,-17.2 3.9,-26 3.1,-10.6 4,-12.9 8.1,-13.3 10.8,5.9 23.2,-1.4 27.1,-9.6 4.8,-10.1 -4.2,-25.8 -18.4,-29.5 -6.3,-1.6 -13.2,1.1 -20.3,6.2 -4.1,3.3 -5,3.7 -5.8,0.7 -1.7,-6.7 4.6,-24.5 15.4,-39.8 6,-8.5 7.7,-10.9 9.5,-7.6 7.4,13.4 23.8,11 30.2,3.6 7.7,-8.9 6.6,-29.5 -10.4,-35.3 -33.2,-11.4 -49.2,21.8 -48.8,21.7 L 1182.3,-3 c 40.4,-9 63.7,-12 76.7,-23.9 10.2,-9.4 15.4,-25.9 14.4,-40.6 0,0 112.6,-43.1 165.4,-70.1 91.1,-46.6 172,-109.4 172,-109.4 l 0,0 z m -170.1,0.9 -8.6,14.4 -11.7,-0.2 22.4,61.8 19.4,-63.7 -11.2,0.8 -10.3,-13.1 z m -829.5,0.5 34.9,25.2 c 0.6,8 1.5,15 0.2,24 l -36.8,-25.5 1.7,-23.7 z m 691.9,6.8 -9.1,11.5 -10.1,-1.3 18.7,61.1 c 6.4,-17.4 12.4,-41.2 18.8,-58.6 l -9.4,0.3 -8.9,-13 z m -693.2,24.4 36.2,25.1 c 0,7.5 0.2,14.6 -2.5,19.8 l -34.2,-22.9 0.5,-22 z m 761,19.2 -9.3,16.9 -11.8,-1.9 20,58.7 24.4,-57.2 -14.4,0.5 -8.9,-17 z m -761.5,9.1 31.3,24 c 0.4,0.3 -2,10.6 -1.6,16.5 l -29.9,-19.3 0.2,-21.2 z m 0.3,28.9 29.2,21 c -0.1,7.7 0.3,15 1.4,21.6 l -31.8,-21.6 1.2,-21 z m -1.1,29.4 33.8,25.1 1.4,19.7 -35.9,-23.6 0.7,-21.2 z m 282.1,14.1 c 32.7,12.9 62.2,76.2 59.6,157.2 -1.8,56.2 13.5,136.9 13.2,136 0,0 -9.6,1.1 -12.2,-1.1 -11.5,-41.6 -14.8,-85.3 -16,-121.3 -1,-30.1 -2.1,-59.5 -3.9,-66.5 -4.9,-24.3 -10.2,-52.7 -25.3,-71.4 -11.8,-14.1 -25.5,-16.8 -34,-1.4 -7,12.6 6.7,34 18.6,27.3 2.9,-1.5 4.6,-4.2 0.9,-4.2 -12.2,1.6 -20.1,-15.5 -12.2,-23.4 13.9,-13.9 37,18.2 25.6,35.3 -5,7.4 -17.8,8.5 -27.9,5.5 -22.4,-11.4 -27.5,-38.3 -19.6,-55.8 6.2,-13.5 19,-21.3 33.2,-16.2 l 0,0 z m -40,7.2 c 2.7,0.2 0.7,5.1 -1.9,12.7 -6.2,18.3 4.1,47.2 19.1,53.2 4.5,3.2 4.2,4.3 1.1,6 -10,5.3 -27.6,-11.7 -31.9,-30.3 -3.1,-13.5 -2,-29.3 4.6,-35.9 3.6,-3.6 6.4,-5.5 8.3,-5.7 0.3,0 0.5,0 0.7,0 l 0,0 z m -243.1,5.8 36.2,24.7 c 1.5,7.5 0.6,15.4 -0.7,23.5 l -36.1,-26.3 0.6,-21.9 z m 221,4.3 c 2.7,0 1.6,4.5 0.7,12.8 -2.1,19.2 3.5,33.3 16.9,45.2 5.6,5 7.2,6.6 4.6,9.1 -3.6,3.6 -13.5,-1.5 -21.2,-9.9 -14.1,-15.3 -18.3,-43.8 -6.9,-53.8 2.6,-2.2 4.5,-3.4 5.9,-3.4 l 0,0 z m 407.2,11.7 c 15.7,-0.3 28.7,6.1 29.8,25.2 1.5,28 -24.9,42.8 -42.7,26.4 -16,-16.5 1.1,-41.4 19.7,-29.2 9.4,6.2 -2.2,19.6 -9.8,12.4 -3.4,-3.3 -5,-1.3 -2.6,2.4 7.2,11.3 22.1,2.3 21.2,-7.5 -1.7,-19.3 -25.3,-19.5 -34.4,-12.2 -12.4,10.1 -23.4,25 -31.7,35.9 -6.8,9.5 -8.2,9.2 -6.9,-2.7 3.3,-31.1 33,-50.2 57.4,-50.7 l 0,0 z m -426.2,-2.6 c 2.5,0 1.4,3.5 1.4,12.7 0.5,23.7 10.2,38.6 22.7,47.1 4.1,4.8 -1.4,8 -9.3,5.5 -18.1,-6 -35.8,-45.4 -20,-61.9 2.2,-2.2 3.9,-3.4 5.2,-3.4 z m -17.8,7.4 c 2.5,-0.1 1,5.1 1,15 0.1,20.8 6.3,30.9 21.5,43.9 4.9,4.2 5.6,3.8 3.5,6 -5.4,6 -23.2,-3 -30.5,-15.6 -8.8,-15 -9.7,-37.3 -1,-45.6 2.4,-2.4 4.1,-3.7 5.5,-3.7 l 0,0 z m -17.8,9.6 c 2.1,0.1 0.8,3.8 1,12.8 0.3,21.8 5.1,32.6 18.7,43 8.5,6.5 10.7,4.6 8,7.1 -4.7,4.3 -17.4,0.3 -26.7,-8 -14,-12.4 -17.4,-42.2 -5.6,-52.1 2,-1.9 3.5,-2.8 4.6,-2.8 z m -166.4,-0.4 34.7,25.1 -1.4,20.6 -34.5,-24.4 1.2,-21.3 z m 614.5,51.4 c -14.3,-3.2 -19.5,-13.7 -17.5,-25.4 0.7,-3.9 3,-6.1 5.3,-0.9 1.9,8.2 7.1,19.5 14.5,21.9 3,0.9 0.4,5 -2.3,4.4 l 0,0 z M 914.5,-50 c 15.3,41 14.1,85.4 15.9,127.5 2.4,55.9 11.5,93.7 14.6,100.1 0,0 -15.8,-0.1 -16.5,-2.4 0,0 -13.4,-74.3 -10.4,-110.9 1,-41 -6.2,-77.1 -10.8,-93.4 -4.8,-14.5 -5.2,-5.1 7.2,-20.9 l 0,0 z m -307.7,9.5 33.4,22.8 c -0.6,7.6 -0.9,15.1 -0.9,22.7 l -32.7,-24.2 0.2,-21.3 z M 1062,-33 c 0,1.2 4.8,2.4 12.5,0.7 8.5,-1.9 17,-1.3 23.4,0.6 6.9,2 7.7,-0.2 1.5,-3 -3,-1.4 -7.8,-4.5 -15.1,-4.5 -7.2,-0.1 -22.3,3.5 -22.3,6.2 z m 137.2,2 c 0.8,1.5 3.3,5 5.5,7.7 4.3,5.1 5.5,5.2 3.5,7.2 -4.7,4.7 -14.1,-2.4 -15,-11.2 -0.7,-6.4 2.5,-10.4 6,-3.7 z M 896,-35.5 c 15.3,22.9 16.6,75.8 16.1,113.3 -0.4,33.8 9.8,96.1 10.7,95.8 -3.3,1.9 -7.7,1.1 -11.7,-0.6 -4,-5.4 -6.1,-20.3 -10,-60.6 -1,-10.4 -2.7,-43.4 -2.7,-70 0,-23.4 -12,-74.4 -12,-74.4 0,0 5.1,-3.5 9.6,-3.5 l 0,0 z m -17.7,5.2 c 13.7,32.5 15.4,64.4 15.3,103.2 -0.1,36.7 7.1,79.8 9.8,98.8 -4.9,0.4 -10,0.7 -12,-1.5 -1.3,-1.8 -2.2,-4.6 -2.8,-8.2 -5.9,-31.8 -6.8,-66.3 -8,-95.5 -1.9,-45.2 -2.4,-56.4 -8.3,-79.1 -3.4,-12.8 -4.6,-12.6 -1.9,-15 2.1,-1.9 6.1,-2.7 7.9,-2.7 l 0,0 z m 161.9,10.8 c 0.1,15 2.1,8.9 7.5,6.6 4,-0.3 7.2,2 14.5,4.9 9.3,3.7 8.5,4.8 15.2,1.7 4.1,-1.9 7.4,-2.5 9.3,-0.9 7.6,6.4 17.7,3.1 23.4,-1.9 4.4,-2.2 9.2,-0.9 12.9,-0.4 5.3,0.6 4,-2.8 4.8,-9.6 0.7,-6 -1.6,-6.6 -7.8,-4.7 -6.4,1.9 -12.7,2.1 -18.2,0.3 -14,-4.6 -24.4,-2 -31.4,-1.1 -16.6,2.3 -17.4,0.6 -21.1,-1.9 -2.8,-1.8 -7.3,-5.2 -8.9,-5.1 -1.7,0.1 -1.3,5.5 -0.2,12.1 l 0,0 z m 146.7,-3.9 c 1.6,-0.8 2.3,1.4 4.4,4.3 3.6,4.8 4.6,7.1 1.5,7.5 -8.1,1 -10.1,0.1 -9.8,-4.9 0.4,-4 1.3,-5.6 3.9,-6.9 l 0,0 z M 861.2,-23 c 11.7,12.3 13.3,79.7 14.4,94.2 2.7,78.6 9.9,90.1 5.9,95.9 -4.5,-0.2 -6.1,1.5 -9,-2.5 -9.6,-29 -8.4,-58.5 -9.4,-88.6 -1.5,-39.8 -5,-61.4 -10.2,-81.2 -3.4,-13.2 -3.4,-13.4 3.4,-16.9 1.2,-0.7 3.8,-0.9 4.9,-0.9 l 0,0 z m -16.2,9.2 c 4,9.6 11.5,53.2 11.9,90.6 0.3,29.7 6.2,88 7.5,88.4 -4.3,0.3 -9.5,-0.7 -11.6,-4 -11.8,-57.6 -6.5,-113 -20.4,-171 1,-2.8 5.8,-7.3 12.6,-4 l 0,0 z m -238.3,2.1 34.6,25.9 0.3,21.5 -35.3,-26.2 0.4,-21.2 z m 521.8,8.1 c -20,7.3 -25.2,13.5 -22.2,19.1 2.5,4.7 10.4,3.2 31.7,-5.1 15.9,-6.3 20.8,-3.3 23.8,6.7 -0.5,14.7 -14.7,16.1 -22.7,13.9 -3.5,-0.2 -2.9,0.1 0.6,4.8 16.1,13.2 36.6,-11.5 27,-27.6 -7.5,-14.7 -20.9,-19.1 -38.2,-11.8 z M 1004,-0.2 c -16.6,12.5 -11.3,35.7 2.3,39.5 3.7,2 9.4,1.2 11.7,-0.2 2.1,-1.3 2.1,-3.5 -2.1,-4.3 -12.6,-2.4 -19.6,-11.8 -13.3,-21.1 6.1,-9 17.1,-7 38,2.5 18.1,8.2 26.1,6 28.5,-3.4 1,-4.1 0,-8.1 -8.8,-8.6 -24.3,-1.4 -40.2,-16.6 -56.3,-4.4 z m 218.2,39.9 c -0.9,-6.7 -11.9,-0.1 -19.3,11.6 -7.3,11.5 -8.1,13.1 -9.2,1 -1.8,-18 17.2,-31.7 28.8,-31.9 14,-1.3 23.1,6.7 23.2,15.7 0.3,17.8 -20.9,17.5 -23.5,3.6 l 0,0 z M 605.4,16.3 642,42.6 c 0,0 1,13.7 0,21.1 L 605.2,39 605.4,16.3 Z m 446.2,17.8 c -16.4,10.6 -7.3,30.8 4,33.3 11.9,2.6 12.9,-5.7 1.1,-8.4 -6.3,-2.6 -7.8,-8.7 -5.2,-13.3 5.8,-9.1 16.2,-2.9 22.2,0.1 13.4,6.7 20.3,9.2 24.7,4.8 7.7,-7.7 1.3,-21.9 -8.8,-17.2 -2.7,1.3 -4.8,2.5 -10.5,1 -8.9,-1.9 -19.3,-4.1 -27.5,-0.3 l 0,0 z m -446.5,12.6 36.1,25.8 -1.6,22.1 -33.8,-25.9 -0.7,-22 z m 0.1,30.4 33.9,25.2 c -0.7,9.3 -0.5,13.1 -0.3,19 l -34.3,-23.2 0.7,-21 z m 608.1,17.3 c 27.5,3.3 17.7,34.8 -1.3,25.8 -5.1,-4 -6.6,-3.7 -12.6,10.1 -7.7,17.6 -9.4,16.1 -8,-4.4 1.1,-20.1 10.6,-31.6 21.9,-31.5 z m -217.4,0.4 c 0.7,0 1.2,0.1 1.5,0.4 1.8,2.1 -3.9,10.3 -8.8,15 -3.5,2.2 -11.9,-4.1 -9.8,-7.1 2.5,-2.9 12.7,-8 17.1,-8.3 l 0,0 z m 36.5,17 -4.9,0.6 c -7.1,-16.7 -22.6,-13.3 -27.7,2 l -6.8,-0.9 c 7.2,-18.7 31.9,-29.8 39.4,-1.7 l 0,0 z m 138.8,6.7 -8.4,0.3 c -7.1,-18.2 -17.7,-21.1 -27,-3.5 l -6.4,-2 c 11.6,-22.4 30.2,-23.9 41.8,5.2 l 0,0 z m -41.3,-21.4 c 4.3,-0.2 3.7,1.8 -0.9,7.8 -4,5.2 -4.9,6 -8.7,3 -6.3,-4.8 4.4,-10.6 9.6,-10.8 z m 39.5,1.3 c 0.8,0.1 1.8,0.2 2.8,0.5 8.6,2.3 12.4,6.5 8.1,11.6 -2.7,3.2 -5.3,4.4 -7,2.2 -5.5,-9.7 -8.6,-14.6 -3.9,-14.3 l 0,0 z m -130,3 c 0.8,3.6 -2,6.1 -5.1,3 -1.3,-1.2 -2.3,-3.3 -2.1,-4.8 1.9,-1.8 6.6,-0.2 7.2,1.8 l 0,0 z m -435.1,3.3 34.8,26.1 c 1,9 1.1,15.8 0.9,21.9 l -35.9,-24.9 0.2,-23.1 z m 515.3,18.3 c 20.1,14.4 44,14.7 59.2,2.7 3.4,-2.7 6.3,-2.7 6.3,-0.1 -2.3,9.7 -28.6,21.8 -48.7,14.2 -11.1,-4.1 -20.1,-8.2 -27.2,-18.8 -4.3,-6.7 4.6,-2.2 10.4,2 z m -8.8,6.6 c 29.2,26.3 53.1,19.7 71.3,7.1 2.7,-0.6 2.7,1.8 3.2,6.2 0.6,5.7 -4.1,8.4 -17.1,12 -25.1,7 -54.2,-1.8 -59.1,-18.7 -0.6,-3.2 -1.8,-7.5 1.7,-6.6 l 0,0 z m -507.3,5 35.3,25.3 -1.5,18.8 -34.4,-24.3 0.6,-19.8 z m 0,28.8 33.4,23.6 -0.4,15.6 -32.5,-24.2 -0.5,-15 z m 245.7,12.4 c 143.7,35.7 246.4,22.3 347.2,6.6 l 85.4,176.4 -536.2,-10.4 c 36.1,-56 66.5,-117.4 103.6,-172.6 z"
             id="path3444" /><path
             d="m 420.7,-1445.4 -0.4,19 19.5,0.4 -3.4,165.5 -19.5,-0.4 -0.4,20.5 56.5,1.2 0.4,-20.5 -15,-0.3 1,-47 23.4,-31 32.4,79.1 -21.7,-0.4 -0.4,20.5 61.7,1.3 0.4,-20.5 -14.7,-0.3 -43.1,-101.8 44.2,-64.1 15.9,0.6 0.4,-19 -61.2,-1.3 -0.4,19 17.6,0.4 -53.7,78.8 1.6,-79.8 15.4,0.3 0.4,-19 -56.9,-1.2 z m 473.1,112 25.7,50.5 0,2.4 14.2,29.2 2.2,1.5 3.2,6.4 0.3,3.1 8,13.4 -0.1,2.8 33.6,65.8 c 29.1,-10.2 266.5,-24.7 353.6,8.9 l 13.2,-21.4 3.1,0 23.4,-39.1 -0.3,-3.3 7.8,-8.5 1.2,-3.9 25.7,-38.4 0.2,-6.3 32.2,-51.2 -547.2,-11.9 z m 536.5,18.5 c 0,0 -16.9,30.9 -25.5,43.3 -6.7,-5.5 -26.3,-2.3 -25.6,18.4 -31.7,-12.8 -40.2,25.2 -15.7,34.3 -12.9,10.8 -24.8,-2 -34.2,-10.7 -9.5,2.1 -29.1,8.6 -39.8,-11.9 0,0 4.6,2.6 9.1,5.4 26,8.5 28.8,-26.8 9.5,-32.9 -2.4,-0.7 -7,-1.1 -7,-1.1 7.1,-27 -34.7,-37.3 -36.2,-4.7 0,0 -5,-0.9 -8.8,-0.3 -22.3,3.6 -17.9,36.5 4.9,35.4 3.1,-0.2 5.9,0.5 5.9,0.5 -0.5,5.2 -28.2,14.7 -47.7,-3.8 -9.6,7 -24.6,15.6 -43.7,-2.6 12.8,-0.3 25.1,-3.6 25.2,-18.1 0.1,-9.4 -8.2,-18 -20.4,-18.7 -0.5,-10.5 -8.1,-20.7 -18.3,-21.7 -12.4,0.5 -19,10.4 -19.3,20.9 -10.6,0.9 -20.7,10 -18.6,20.7 2.8,14.6 14,16.7 26.9,14.2 -16.1,24.7 -41.2,11.1 -48.9,3 -9.5,8.5 -26,19.9 -45.7,3.4 10.7,-1.6 22.7,-7.6 21,-22.5 -1.3,-11.8 -14.4,-15.5 -20.2,-15 0.1,-7.7 -5.4,-20.7 -19.3,-19.6 -15.1,1.1 -14.6,20.2 -14.4,20.4 -12.4,-1.3 -21.8,13.2 -18.4,22.6 4.1,11.5 13.1,15.2 29.7,12.5 -19.8,17.8 -31.9,10.5 -42.4,6.4 -9.6,9.6 -22.1,12.5 -34.8,3.6 28.7,2 25.1,-48.9 -9.3,-31.2 -2.7,-9.6 -6.9,-21.4 -24.8,-19 l -19.5,-39.6 526.3,8.4 z m -657.6,18.9 c -1.5,0 -3,0 -4.5,0.1 -55,2.4 -76.1,40.2 -74.2,74 1.3,22.9 13.3,42.6 31.2,53.6 7.6,6.1 9.2,8.3 7.8,11.1 -1.7,3.2 -3.8,2.9 -8.2,-1.3 -61.6,-61.5 -151.6,7.4 -114.1,86.2 29.9,62.7 117.5,50.1 137.7,-19.3 1.6,-5.5 4.1,-7.9 6.6,-6.3 1.8,1.1 0.2,8.3 -1.5,19.2 -0.7,39.5 -43.1,100.8 -45.5,102.9 l 107.8,2.1 c -24,-34.3 -37.9,-67.7 -39.9,-116 0,-14.6 5.4,-11.4 9.7,5.3 19.5,75.9 115.5,77.2 138.8,4.1 21.7,-68.2 -53.5,-127.1 -105,-81.9 -7.4,6.5 -12.4,7.6 -12.4,2.8 0,-2.1 7,-9.6 13.3,-14.3 12.8,-9.6 23.7,-27.8 24.2,-46.5 1.2,-37.7 -26.1,-75.4 -71.8,-75.8 z m -64.5,320.2 -0.1,0 c -0.1,0.1 0,0.1 0.1,0 z m 453.7,-294.6 c 1.4,0 2.9,0.3 4.3,1.1 4.4,2.4 5.2,6.4 2.3,12.2 -1,2 -2.4,4.4 -2.3,6.6 30.4,58.9 100.6,34.3 107.7,7.4 0.5,-1.7 -0.3,-3.6 -1.2,-5.5 -2.6,-4.5 -2.2,-8.1 1.4,-11.1 7.5,-6.4 18,1.5 13.5,10.2 -1.2,2.3 -2.4,4.8 -1.6,7.9 17,41 52.6,44.8 82.8,29.3 -14.3,24.4 -67.9,38.4 -89.1,-21.4 -36.8,47.6 -93.5,45.5 -118.1,-9.6 -24.3,55.4 -94.2,55.2 -118.7,8.3 -24.2,52.6 -77.7,39.4 -92.2,5.9 49.1,37.1 82.8,0.1 89,-15.8 0,0 -1.1,-1.9 -2.7,-3.5 -6.3,-6.4 -5.9,-13.8 0.7,-16.6 8.5,-3.6 16.3,4.7 11.8,12.6 -1.3,2.2 -2.4,2.7 -1.6,4.6 14.8,36.5 91,48.6 107.5,-1.8 0.6,-2.9 0.3,-5.6 -0.9,-7.8 -3.4,-6.1 1.4,-12.9 7.4,-13 z m -223.6,15.9 c 12,0.9 8.5,11.2 6,12 l -6,-12 z m 447.7,15.7 c 0.1,0.2 -7.7,13.3 -7.7,13.3 -3.9,-6.5 -2.7,-14.4 7.7,-13.3 z m -42.2,66 c 0,0 -8.1,16.9 -10.6,18.3 -142.1,-39.5 -342,-11.8 -347,-8.4 l -8.4,-16.7 c 125.7,-22.5 250.5,-14.5 366,6.8 z m -864.1,-23.6 c -4.4,0 -9.1,0.9 -14,3 -25.1,10.8 -27.8,39.2 -5.9,62.2 3.5,3.7 6.3,7.1 6.3,7.7 0,2.5 -2.5,2 -8.5,-1.8 -33.7,-21.3 -67.5,2.7 -54.4,38.6 10.6,29 55,25.6 62.4,-4.9 1,-4.1 4,-6.5 5.2,-4.3 1.1,1.9 -2.5,17.4 -6,26 -4.6,11.3 -7.2,17.2 -9.9,21.7 -3.3,5.6 -3.5,7.4 -1.1,8.1 3.5,0.9 42.2,0.7 42.2,-0.3 0,-0.5 -1.5,-4.3 -3.4,-8.5 -7.4,-16.3 -12.8,-44.4 -9,-47.5 2.1,-1.7 2.8,-0.8 5.4,7.5 13,41.2 64.7,32.4 64.6,-11 -0.1,-29.5 -26.8,-43.1 -51.5,-26.1 -5.6,3.9 -7.3,4.1 -7.7,1 -0.2,-1.2 0.8,-2.6 2.8,-3.9 31.3,-20.2 13.5,-67.2 -17.5,-67.5 z m 617.6,271.8 c -14.9,52.9 -48.4,57.6 -88.8,63.3 -50.1,7 -82.3,-11.9 -96.9,-40 0,0 -72,25.5 -98.4,40.7 53.7,26 124.1,82.4 163.6,145.7 14.1,19.3 13.5,15 12.6,56.8 -1.9,90.6 -2.4,124.2 -2.4,124.2 22.3,3.8 23.2,19.2 21.6,36.5 18.1,-7.6 35.2,2.5 34.8,19.4 -0.8,31.1 -31.2,22 -37.5,18.5 9.4,27.6 -2.5,38.8 -14.5,39.9 -14.7,1.4 -31.4,-6.1 -25.9,-37.4 -16.1,5.9 -36.2,-5.8 -38.6,-24.8 l -0.1,-32 c 41.2,-73.7 -7.3,-135.4 -53.6,-156.3 0,0 13.8,-27 31,-34.4 1.7,-0.5 -10,-18.5 -30.4,-15 -9.4,0 -7.2,0 -15.8,-11.6 -16.9,-23 -25.1,-24.7 -42.6,-0.8 -7.7,10.5 -9.5,10.7 -18.3,10.7 -9.7,0 -24.8,6.7 -28.1,12.9 -0.8,1.4 3,3 8,9 7.1,8.7 18.1,20.6 16.1,32.5 -38.8,14.9 -104,82.2 -38.7,171.5 l -48.5,-0.4 4.2,-313 -34.1,18.1 -3.6,245.2 -9.6,-3.4 c 2.4,-78.2 2.8,-156.4 1.9,-234.6 l -90.3,63 -3.7,367.4 9.4,2.2 c 6,50.2 105.9,17.3 111.6,21.7 l -3,204.3 -4.6,10 78,44.8 73.2,-36.1 c 0,0 9.8,-1.6 13.5,-3.4 30.4,-15.2 52.7,-11.2 68.5,12.4 9.8,14.5 11.4,16.7 11.4,16.7 7,-41.2 43.9,-55.7 79.2,-44.1 26,8.5 61.1,35.3 71.4,67.3 0,0 1.9,4.8 3.8,7 l 1.5,0.7 c -0.1,-0.8 -1.6,-4.8 -2.2,-6.8 -34.9,-84.9 -137.9,-100 -155.2,-31.5 l -14.2,-20.8 77.8,-45.6 103.6,71.3 c 0,0 -5.4,24.2 -6.2,34.7 l 1.8,0.9 c 0.5,-1.3 1.4,-6.3 1.9,-9.5 1.9,-11.4 5.1,-21 9.4,-28.3 2.6,-4.4 5.5,-7.9 8.8,-10.6 6.3,-3.5 12.2,-3 18.7,-8.9 l -15.1,-11.8 0.4,-36.8 29.9,43.8 c 9.7,-2 47.7,-12.5 69.9,0.4 2.5,0.8 35.5,-7.9 55.1,38.4 l 99.3,-38.9 c 0,0 6.4,-3.4 6.4,-4.3 -97.4,-38.3 -193.9,-168.6 -184.3,-170.5 0,0 0,-13.2 1.4,-45.4 1.5,-36 1.9,-72.7 3.2,-108.8 -33.2,-11.4 -24.3,-38.1 -24.3,-38.1 -20.2,4 -23.3,0 -28.3,-3.6 l -2.8,-34.2 c 12.3,-10 19.5,-10.8 34.3,-7.2 0,0 -6.9,-15 -0.1,-27 5.7,-9.5 20.6,-15.3 32.2,-8.3 15,10.7 9.7,32.3 7.5,35.3 15.9,-6.8 35.1,1.5 39.5,17.3 3.3,-46.2 8.4,-97.8 18.5,-137.9 18.6,-72.4 48.1,-148 84.4,-207.1 5.9,-9.9 13.5,-19.8 19.6,-29 5.7,-8.2 8.4,-13.6 8.4,-13.6 0,0 -7.6,4 -15.6,6 -11.5,2.9 -20.1,5.6 -21.5,6.9 -8.5,6.9 -19.5,11.8 -28.6,15.5 -31.8,11.6 -52.6,-7.1 -65.1,-35.3 -8,35.4 -41.2,64.7 -88.8,45.1 -26.8,-14.9 -35.1,-24.3 -59.7,-62.4 -1.9,-4 -7.3,-8.5 -7.3,-8.5 l 0,0 z m 0.9,5.8 c 17.2,35.8 43.5,61.5 69.4,72.1 46.3,16.2 77.7,-13 86.9,-40.2 l 8.7,15.4 -71.6,48.7 -105.1,-69.9 c 1.9,-1.6 11.9,-25.3 11.7,-26.1 l 0,0 z m 320.4,9.1 -32,18 c 0,0 -21.7,33.5 -29,46.1 -38.2,64.4 -67.4,134.7 -83.3,204.7 -6.4,25.6 -13.5,72.5 -16.1,95.1 -4,36 -4.2,50.8 -3.9,83.9 l 2.4,2.7 c 0,0 -4,6.7 -6.9,12.4 -7.9,15.4 -9.9,24.2 -9.8,42.2 0.2,41.6 24.6,81.8 60,98.8 2,1 4.6,2.2 4.6,2.2 0,0 -6.5,16.4 -17.8,27.8 -7.6,7.6 -9.2,8 -6.6,11.8 3.5,5.4 15.2,10.2 29.8,10.3 5.2,0 5.1,0 14.5,10.6 18.2,20.7 23.8,20.4 41.3,-2.3 5.2,-6.7 8.1,-8.3 15.5,-8.3 10.8,0 30.8,-8.4 30.8,-12.5 -13.2,-6.2 -28,-37 -25.6,-37.2 73.7,-37.1 90.8,-116.8 38.8,-176.7 l 50.9,0.2 -4.7,319.2 c 10.1,-6.4 32.9,-20.2 32.9,-20.2 l 4.4,-248.4 c 3.5,0.7 7,3.3 13.8,4.6 l -2.8,234.9 c 0,0 6.7,-2.5 12.5,-6.2 28.8,-18.1 85.4,-60.3 85.4,-60.3 l 5.6,-361.9 -7.4,-0.2 -6.3,361.7 -87.7,61.3 4.1,-224.8 c 0,0 6.8,-0.9 9.4,-1.2 25.4,-3 37.7,-35 21.4,-56.4 -5.8,-7.6 -1.6,-7 11.1,-9.1 22.5,-1.5 35.3,-18.2 29,-30.5 -2.7,-5.2 0.9,-4.6 3.4,-9.5 1.6,-3.8 1.4,-8.7 0.9,-12.5 -0.8,-5 1.3,-7.2 2.7,-10.4 2.1,-5 0.3,-10.6 -2.9,-15.4 -3.4,-5 -2.3,-10.3 -2.3,-13.6 0,-7.4 -2.6,-8.5 -10.3,-15.7 -5.8,-5.5 -1,-6.6 7.7,-10.8 13.8,-6.7 15.2,-31.5 -2.7,-42.5 -9.6,-5.8 -27.2,-5.8 -65.5,-0.5 -14.5,2 -31.6,3.2 -31.6,3.2 0,0 2.8,-141.5 3.3,-214.4 l -81,-50.2 z m -0.1,5 c 0,0 76.6,47 76,48.2 -26.8,35.1 -126.9,175.3 -131.1,347.2 -71,-10.4 -101.4,44.7 -104.8,44.4 -5,-210.6 83.5,-359.4 128.5,-422.4 l 31.4,-17.4 z m -49.5,26.6 -0.4,5.1 -15.8,22.6 0.1,-23 16.1,-4.7 z m -23.9,7.6 -0.2,37 -32,23.4 -1,-38.6 33.2,-21.8 z m -292,2.4 15.9,11.5 -1.3,36.7 -23.4,-44.8 8.8,-3.4 z m 442.7,21.5 -0.4,26.6 c -63.9,86.3 -98.5,185.7 -111.1,312.1 l -15.1,-0.8 c 6.6,-125.9 51.3,-240 126.6,-337.9 z m -420.5,-6 37.8,25.8 -2.5,41.8 -34.3,-23 -3.1,-8.6 2.1,-36 z m 231.8,6.6 -1,38.9 -30,21.4 -0.6,-38.7 31.6,-21.6 z m -358.8,2.8 c 4.4,0.1 7.8,3.4 8.5,9.5 2.7,25.9 22.6,18.9 27.1,26.8 1.7,2.7 -2.5,4.9 -16,3.5 -24.7,-2.4 -42.3,-22.7 -29.4,-35.6 3.4,-2.9 6.8,-4.3 9.8,-4.2 z m 170.4,20.2 32.3,21.5 -1,43 -31.6,-20.2 0.3,-44.3 z m 149.2,3.2 1.7,38.1 -36.3,23.1 -0.5,-37.8 35.1,-23.4 z m 68.1,1.6 -21.5,43.3 -121.7,83.8 -98.2,-66.5 -17.6,-42.6 114.5,78.2 144.5,-96.2 z m -323.7,10.7 c 31.9,0.3 55.6,34.6 63.4,64.4 5.7,19.7 6.5,26.8 6.5,57.9 0,31.7 0.9,37.2 6.7,41.8 3.6,2.8 4.7,2.1 5.3,-3.5 1.3,-12.4 16,-4.5 16,8.7 0,14.6 -16.2,18.9 -27.8,7.5 -6.2,-6.1 -6.3,-6 -8.5,5.6 -1.5,7.8 -11.6,56.8 11.5,69.5 4.4,0.5 5.5,-3 2.3,-7.2 -6.4,-8.4 6.9,-17.6 17.5,-12.1 12.8,6.6 11,27.4 -2.9,34.5 -15.9,8.1 -36.1,-1.9 -45.2,-22.5 -6.7,-15.1 -6.2,-35.8 1.5,-66.5 3.6,-14.1 5.2,-23.1 6.1,-34 0.3,-3.6 0.8,-7.5 1.1,-8.6 0.8,-3.3 -0.8,-3.5 -6.5,-0.8 -15.6,7.5 -32.3,1.6 -36.1,-12.7 -4.6,-17.1 14.7,-34.3 26.2,-23.3 4.4,4.2 3.7,8.2 -1.6,10.7 -9.3,4.3 -6.4,16.3 3.4,14.2 32.4,-9 4.8,-100 -31.3,-107 -23.9,-4.6 -43.3,22.3 -26.2,37.3 6.7,5.9 13.6,2.9 12.3,-5.2 -1.8,-11.3 13.1,-9.8 18.4,1.9 8.6,19 -15,33.8 -36.5,23 -38.7,-24 -11,-73.6 24.4,-73.6 z m 144.3,10.1 31.7,22.3 -0.6,42 -31.5,-19.6 0.4,-44.7 z m 70.8,5.1 -0.6,38.5 -31.5,21.9 0.8,-41 31.3,-19.4 z m 83,27 -16.8,43.9 -101.5,66.4 -81.5,-53.5 -13.4,-41.2 96,65.1 117.2,-80.7 z m -649.8,-10.2 -4.7,223.8 c -32.5,0.7 -51.8,32.4 -28.1,63.2 0,0 -4.2,0.5 -9.2,1.1 -22,2.6 -36.9,13.9 -34.3,28 0.8,4.3 -0.2,8.7 -1.5,10.8 -2.1,5.8 -1.6,10.2 0.9,15.2 2,4 1.6,5.5 0.4,8.4 -2.6,6.2 -2.1,11 0.7,15.9 3.5,3.6 2.5,6.4 1.9,12.1 -0.7,8 0.6,11.2 5.6,14.5 6.4,4.2 8.7,10.8 1.3,10.1 -3.7,-0.3 -16.8,11.8 -16.8,11.8 l 6.2,-359.2 77.6,-55.7 z m 175.3,32.3 c 5.8,0.1 11.6,7.5 20,20 5,8.9 5.1,7.7 17,7.5 12.1,1.1 19.4,4.5 22.5,8.2 1.2,1.4 -2,1.7 -9.8,9.3 -8.1,7.9 -9.3,11.1 -14.8,20 -2,3.2 -6.1,3.4 -8,0.4 -1.5,-2.4 2.7,-10.2 10.4,-19.2 10.9,-10.1 8.6,-11.1 -6.9,-9.8 -10.9,0.9 -12,0.3 -16,-6.3 -11.8,-24.7 -18.3,-24 -30.6,0.1 -3.4,6.8 -2.1,6.3 -16,5 -11,-1.1 -13.7,1.6 -7.7,7.5 9.5,8.1 12.9,26.9 12.4,26.7 l -7.5,0.5 c 0,0 -2.2,-4.3 -3.1,-6.9 -1.9,-5.4 -7.2,-13.6 -13,-20.1 -8.2,-9.2 -3.5,-14.1 15.2,-15.7 10.4,-0.9 10.7,-1 15.6,-8 8.7,-12.1 14.5,-19.3 20.3,-19.2 z m 453.6,31.7 -11.6,38 -86.6,58.1 -68.5,-47.8 -8.5,-36.1 78.8,52.2 96.4,-64.4 z m -295,24.2 c 0,0 23.7,48.6 32,80 7.2,27.3 16.4,106 13.5,110.8 -5.9,-8.5 -26,-7 -26.3,-6.9 1.9,-9.2 -5.2,-27.8 -22.2,-31.9 l 3,-152 z m 280.6,23.4 -9.3,37.4 -73.8,51.1 -59.2,-42.2 -7.1,-36.5 65.5,45.7 83.9,-55.5 z m -422.8,-6.7 9.4,3.5 0.4,67.9 72.5,13.6 1.4,11.7 -84,-15.3 c -0.3,-29 0.3,-81.4 0.3,-81.4 z m -37,1.3 0.4,79 c -0.8,-0.3 -60.8,7 -83.9,12.6 l 1.6,-10.8 c 0,0 41.8,-8.2 72,-11 0.5,-22.1 0.8,-45.3 1.2,-67.8 l 8.7,-2 z m 676.6,28.5 c 0,0 9.9,1.1 31.1,-2.2 54.8,-8.4 69.5,-4.3 76.1,12.7 7.1,26.3 -21.5,26.3 -26.3,9.6 -3,-10.8 -14.8,-8.7 -54.1,-0.2 -33.7,7.2 -54.7,0.5 -53.9,-18.5 0.8,-19.5 23,-20.7 27.1,-1.4 z m -448.5,-23.6 c 6.8,0 12.2,5.6 12.2,12.3 0,6.7 -5.6,12.2 -12.3,12.2 -6.8,0 -12.2,-5.5 -12.2,-12.3 0.1,-6.7 5.5,-12.2 12.3,-12.2 z m -177.4,-1.5 8.6,2.8 c 0,0 0.2,51.5 0.5,51.6 18.5,4.5 57.3,12.6 57.3,12.6 l 1.9,10.2 c -16.2,-4.2 -68,-13.8 -68,-13.8 -1.4,-22.3 -0.3,-63.4 -0.3,-63.4 z m -63,-0.3 c 0,0 -0.8,41.1 -2,63.2 0.3,-0.2 -44.3,6.2 -66.9,10.4 l 1.9,-8.2 c 17.9,-3.7 37.4,-7.3 57.1,-11 -0.1,-16.2 0.7,-51.6 0.7,-51.6 l 9.2,-2.8 z m 31.5,9.5 c 5.4,0 9.8,4.5 9.8,9.9 0,5.4 -4.5,9.8 -9.9,9.7 -5.4,0 -9.8,-4.4 -9.7,-9.9 0,-5.3 4.4,-9.7 9.8,-9.7 z m 738.3,40.9 c 5.9,9.1 10.9,8.9 16.9,8.2 -1.5,0.4 -8.6,4.4 -8.2,5.8 0.2,0.7 -3.2,11.9 1.6,12.5 18.1,2.1 8.5,20.8 10.6,23.7 4.8,5.7 8.3,9.3 4.8,16.2 -3.1,6.1 -7.4,5.8 -4.2,11.2 7,11 -3,13 -2.3,20.5 0.5,4.5 2,10.6 0.2,14 -5.2,10.4 -22.8,16 -42.3,16.4 -2.8,0.1 -0.6,-4.4 -1.8,-7.3 -4.8,-3.1 -2,-8.2 -0.3,-11.5 1.7,-4.4 1.7,-4.4 -1.2,-6.7 -8.2,-5.3 -7.7,-7.7 -7,-11.4 2,-11 0.4,-12.1 -2.9,-13.8 -4.2,-2.2 -3.5,-6.8 -1.5,-12.8 1.4,-4.1 0.5,-5.2 -1.4,-8.9 -1.1,-2.2 -1.5,-3.4 -1.5,-4.8 0.7,-5.7 -4.4,-5.8 -11.6,-0.3 -6.3,10.3 -8.6,24 -12.6,32.6 -3.1,6.6 -3.7,13.5 -0.5,28.9 6.2,23.6 1.2,27.4 -25.1,21.8 -19.7,-5.3 -25.2,-26.6 -19.1,-52.4 1,-4.2 0.8,-8.2 0.5,-11.5 -1.8,-17.9 3.2,-34.9 15.9,-46.4 21.2,-19.1 31.5,-21.9 74.4,-18.2 16.8,1.5 18,2.6 18,2.6 0,0 0.1,-8.3 0.6,-8.4 l 0,0 z m -309.4,-1 -5.7,36.2 -40.9,27.6 c -18.7,-15.4 -33.4,-10.7 -47.1,5.1 -10.5,-5.6 -31.3,-20.7 -31.3,-20.7 l -4.6,-41.3 57.8,41.9 71.8,-48.8 z M 834.6,-617 c 5.4,0 9.8,4.5 9.7,9.9 0,5.4 -4.4,9.8 -9.9,9.8 -5.4,0 -9.8,-4.4 -9.8,-9.9 0.1,-5.5 4.6,-9.9 10,-9.8 z m 421.1,45.9 -2.9,34.9 -14.6,10.5 -14.4,-1.8 -3,-21.8 34.9,-21.8 z m -422.1,-8.4 c 5.4,0 9.8,4.5 9.8,9.9 0,5.4 -4.5,9.8 -9.9,9.7 -5.4,0 -9.8,-4.4 -9.7,-9.9 -0.1,-5.4 4.3,-9.8 9.8,-9.7 z m 39.5,1.9 c 5.4,0 9.8,4.4 9.7,9.9 0,5.4 -4.4,9.8 -9.9,9.8 -5.4,0 -9.8,-4.5 -9.8,-9.9 0.1,-5.5 4.6,-9.9 10,-9.8 z m -78.7,0.2 c 5.4,0 9.8,4.5 9.8,9.9 0,5.4 -4.4,9.8 -9.9,9.8 -5.4,0 -9.8,-4.5 -9.8,-9.9 0.1,-5.4 4.5,-9.8 9.9,-9.8 z m 730.3,16.7 c 2.8,-0.2 6.8,4 4.7,10.1 -2.8,7 -1,9.4 3.3,15.2 3.7,4.9 3,5.5 2.4,8.6 -1.3,20.2 11.9,11.7 6,26.3 -1.3,3.2 0.2,7.8 0.7,11.5 -1.2,-3.5 -25.1,-3.7 -27.2,-0.2 -3.4,-0.6 -7.2,-23.2 -3.7,-26.1 0.4,0 2.9,3.9 4.1,6.1 3.1,5.5 3.8,5.3 2.9,-1 -3.6,-25 -0.7,-50.5 6.8,-50.5 z m -612.1,-10.9 c 5.4,0 9.8,4.5 9.8,9.9 0,5.4 -4.5,9.8 -9.9,9.7 -5.4,-0.1 -9.8,-4.4 -9.7,-9.9 0,-5.4 4.4,-9.7 9.8,-9.7 z m -159.1,-1.5 c 5.4,0 9.8,4.5 9.7,9.9 0,5.4 -4.4,9.8 -9.9,9.7 -5.4,0 -9.8,-4.4 -9.8,-9.9 0.1,-5.3 4.6,-9.7 10,-9.7 z m 385,10.8 29,19.7 c 0.4,6 -0.6,14.6 1.3,17.6 -19.2,-2.2 -29.1,8.6 -29.1,8.6 l -1.2,-45.9 z m -302.3,9.6 c 32.2,0.9 63.3,6.7 92.1,16.7 l -2.5,10.3 c -57.7,-16.1 -122.5,-18.2 -184.7,-3.1 l -4.6,-11 c 31.4,-9.1 62.8,-13.2 93.3,-13 2.1,0 4.3,0 6.4,0.1 z m -182.4,10.3 c 8.4,0 17,3.4 22.9,10.3 11.2,13 5.2,36.6 -11.1,43.8 -24.4,10.8 -49,-13.9 -38.3,-38.5 4.5,-10.2 15.7,-15.6 26.5,-15.6 z m 597.5,15.4 -0.6,10.4 -7.2,-6.3 7.8,-4.1 z m -153.6,-2.7 c 10.6,0.1 19.2,8.8 19.2,19.4 -0.1,10.7 -8.7,19.2 -19.4,19.2 -10.6,-0.1 -19.2,-8.7 -19.2,-19.4 0.1,-10.7 8.7,-19.3 19.4,-19.2 z m -443.4,-8.6 c -2.6,0 -6.9,1 -8.9,2.7 -5.2,4.6 -0.1,4.9 6.7,6.3 12,2.5 15.1,12.9 13.8,24.1 -1.2,10.2 2.2,10.1 5.1,6.4 11.4,-15.2 2.3,-37.8 -16.7,-39.5 z m 559.2,16.7 c -0.2,0.1 -0.5,0.3 -0.5,0.3 0.1,0.1 0.3,0 0.5,-0.3 z m -381,-1.8 c 14.4,0 15.5,23.8 2.2,50 -4,7.9 -5.9,6.9 -9.9,-5.3 -9.8,-29.9 -7.2,-44.7 7.7,-44.7 z m 33.3,1.4 c 2.8,-0.1 5.5,1 7.6,3.6 7.6,9 1.3,23.2 -19.8,44.8 -5.1,5.3 -7.8,7.2 -9.6,7.2 -5.2,0 -5.1,-0.9 1.1,-19.9 2.8,-8.4 5.5,-17.6 6.1,-20.4 2,-9.1 8.5,-15.1 14.6,-15.3 z m -52.6,20.1 c 1.3,6.6 3.6,15.8 5,20.4 1.5,4.6 2.4,9 2.2,9.8 -1.3,3.5 -10.5,-1.5 -16.9,-9.3 -12.9,-15.6 -17.9,-29.1 -15,-36.2 4.1,-5.7 14.5,-8 19.1,-2.9 4.8,5.3 5.3,16.4 5.6,18.2 z m 91.6,-13.4 c 13.8,8.5 -2.7,27 -34.3,41.9 -13.5,6.4 -12.5,3.4 -2.1,-9.5 4,-5 9.4,-13 12,-18 5.8,-11 11.7,-22 24.4,-14.4 z m -139.4,-2.8 c 4.4,0.1 8.9,4.9 17,17.2 3.6,5.5 9.6,13.3 13.2,17.4 3.6,4.1 6.4,8.2 6.3,9 -1.6,8.5 -44.6,-19.4 -47.5,-30.9 -0.9,-6.9 4.7,-13 11,-12.7 z m 622.6,37.6 c 7.5,16.3 8,26.4 1.4,29.9 -9.3,5 -21,-3.2 -21,-14.7 0,-3.9 -3.7,-17.4 -7.1,-26.2 -2.8,-7.3 -3.2,-11.7 -0.7,-12 9.5,1.7 23.5,15.3 27.4,23 z m -51.9,-13.3 c -3.2,9.2 -6.7,23.5 -6.8,27.7 0,1.7 -1.1,5 -2.3,7.5 -8.3,16.3 -26.9,2.5 -19.6,-14.5 6.6,-15.3 22.8,-31.1 29.1,-31.5 4.3,-0.4 0.1,9.4 -0.4,10.8 z m 12.9,-8.6 c 3.2,-0.2 5.6,6.7 9.5,18.3 5.2,15.8 4.7,27.9 -1.3,33 -12.9,10.9 -25.9,-5.6 -20.3,-25.8 4.3,-16.1 8.5,-25.3 12.1,-25.5 z m -425.6,-6 c 11,232.8 -111.8,409.1 -120.4,413.8 l -41,21.3 -70.3,-40.2 c 75.8,-99.5 122.2,-214.4 128.3,-348.8 68.1,8 104.3,-45.8 103.4,-46.1 z m 390.6,8.8 c 5,-1.3 1.4,3 -3.6,10 -5.4,7.5 -12.7,28 -18.2,31.2 -12.3,5.6 -25.8,-5.8 -18.2,-15.4 7,-8.7 27.2,-22.5 40,-25.8 z m 72.3,3.1 c 1.9,0 5.4,1.4 10.6,4 25.1,12.9 37.2,29.4 26.2,37 -7.7,5.3 -15.8,0.9 -23.1,-13.7 -2.5,-4.9 -7,-12.3 -10.1,-16.4 -5.5,-7.3 -6.8,-10.9 -3.6,-10.9 z m 142.1,11.2 c 16.3,0.1 29.4,13.3 29.3,29.6 -0.1,16.3 -13.4,29.4 -29.6,29.3 -16.3,-0.1 -29.4,-13.4 -29.3,-29.7 0.1,-16.2 13.3,-29.3 29.6,-29.2 z m -9.1,7.5 c -19.3,8.1 -14.2,38.3 2.2,42.9 6.9,2.1 15.5,-0.6 12,-4.1 -21.6,-7.3 -21.5,-23.4 -12.4,-34.9 1.5,-1.8 -0.4,-4.5 -1.8,-3.9 z m -798.1,24.9 c -1.1,17 2.2,36.7 -6.3,55 -12.9,28.1 -52.6,40.2 -73.7,37.3 -4.4,-1.9 -9.4,-3.7 -13.8,-2 -2.6,1.1 -5.9,0.8 -8.6,-0.5 -2.7,-1.3 -5.3,0.3 -7.9,-0.7 -3,-2.1 -7.9,-6.9 -7.3,-10.4 1.1,-4.9 0.8,-8.6 -5,-10.3 -7.9,-2.4 -9.5,-6.7 -6.9,-19.3 0.6,-2.7 1.2,-3.9 -0.5,-5.2 -5.8,-4.1 -7.9,-11.4 -3.9,-19 2.6,-4.4 4.6,-7.5 0.2,-11.1 -1.7,-4.1 -1.4,-5.6 2.6,-10.7 4.2,-4.8 4.9,-5.4 2.4,-9.6 -5.7,-9.5 1.1,-16.3 9.2,-20.1 10.8,-4.2 20.1,-6.2 31.4,-7.3 4.2,0.3 3.9,4 6.4,7.6 3.6,5.8 -1.8,14.1 1.1,17.1 4.3,2.1 6.2,6.2 5.8,9.6 -0.3,8 0.1,10.7 2.2,14.1 2.3,3.8 3.1,10.6 0.7,15.2 -2.1,4.1 -1.9,3.8 0.7,6.3 2.5,2.5 3.6,14.6 2.7,14.3 l 11,-0.8 c -1.2,1.2 4.6,-22.5 17.4,-40.6 -0.4,-14.4 -5.6,-27.8 -4.7,-46.8 27.3,-9 46.4,14.4 44.8,37.9 l 0,0 z m 420.7,-23.7 c 3.8,3.1 23.1,8.9 23.8,8.3 -0.8,9.3 4.5,27.4 24.6,33.9 -0.3,25.9 -3,145.3 -3,145.3 -27.1,-47.8 -43.3,-109 -45.4,-187.5 l 0,0 z m -470.7,-5.5 c 0,0 1,3.5 1.9,10.1 1.4,13.6 -0.5,15.4 -3.9,6.1 -4,-11 -4.4,-2.5 -0.2,22.5 1,6.1 1,7.5 -0.6,11.5 -1,2.5 -2.8,8.4 -4.1,13 -4.1,13.6 -6.4,17.5 -10.1,6.5 -1.9,-5.6 -3.5,-6.5 -2,-10.8 1.9,-5.4 1.5,-9.5 -1.9,-14.8 -0.6,-0.9 -1.8,-2.9 -1.9,-8.5 1.4,-12.6 -4.3,-12.8 -5.3,-16.1 0.3,-4.9 -1.8,-16.9 1.6,-16.6 2.8,0.3 12.9,0.8 17.7,-0.9 2.1,-0.7 8.8,-2 8.8,-2 l 0,0 z m 419.4,10.2 c 10.5,0.1 18.9,8.6 18.8,19 -0.1,10.5 -8.6,18.9 -19,18.8 -10.5,-0.1 -18.9,-8.6 -18.8,-19 -0.1,-10.4 8.5,-18.9 19,-18.8 z m -292.4,5.5 14.3,3 c 3.2,1.1 -3.2,198.8 -120.9,339.1 l -0.3,-33.1 c 56.2,-77.9 97.5,-174 106.9,-309 z m 243,9.2 1.6,47.3 c -7.9,-7 -28.2,-20.3 -28,-20.6 l 0.5,-17.5 c 0,0.1 17.6,1.7 25.9,-9.2 l 0,0 z m -110.5,-1.7 c 3.4,1.5 6.4,4.9 9.3,7.4 l -9.5,6.1 0.2,-13.5 z m 328.4,9.2 c 61.5,19.6 122.5,20.4 183,8.2 l 3.9,11.6 c -65.8,16.4 -130.7,14 -194.9,-7.9 l 8,-11.9 z m -300,2.6 2.9,20.4 -35.4,21.9 2.3,-30.9 18.5,-11.4 11.7,0 z m 309,23.4 c 5.6,0 10.2,4.7 10.2,10.3 0,5.6 -4.7,10.2 -10.3,10.2 -5.6,0 -10.2,-4.7 -10.1,-10.3 -0.1,-5.7 4.5,-10.2 10.2,-10.2 z m 159,4.1 c 5.6,0 10.2,4.7 10.2,10.3 0,5.6 -4.7,10.2 -10.3,10.2 -5.6,0 -10.2,-4.7 -10.1,-10.3 0,-5.7 4.6,-10.2 10.2,-10.2 z m -298.6,25.7 c 4.2,16.2 2.5,52.7 -3.9,77.3 -1.9,7.4 -3.5,33.7 -3.5,33.7 -1.1,1.4 35.7,-29.2 46.5,12.1 3.7,14.2 -12.8,27.2 -23.6,23.1 -2.1,-0.8 -1.3,-7.8 0.8,-11.9 6.3,-12.2 -10.8,-18.9 -20.8,-8.2 -23.2,24.7 -1.2,88.8 34.2,95.7 29.4,5.7 53.6,-23.1 34.3,-41 -8.4,-7.8 -22.4,2.4 -16.3,12.3 6.5,10.5 -6,14.4 -15.1,4.6 -16,-17.1 2.9,-42.1 27.4,-35.7 39.3,9.8 29.9,71.3 -11.6,73.9 -31.7,2 -52.7,-12.2 -65.6,-36.9 -12.1,-23.7 -12.6,-42.5 -6,-83.5 3.9,-24.4 1.5,-45 -5.3,-45 -3.7,0 -6.7,1.7 -7.3,6.1 -1.4,8.9 -2.5,10.6 -8,7.2 -7,-4.3 -10.7,-17.7 1.1,-26.4 12.1,-9 27.3,5.7 26.6,8.2 0.3,-0.5 1.5,-2.8 3.4,-13.2 5.9,-34 -4.9,-70.3 -19.3,-64.8 -3.2,1.2 -2.8,2.6 1.2,5 9.4,5.6 0.7,19.1 -11.2,17.5 -16.9,-2.3 -20.3,-26.1 -5.1,-36.2 23.7,-12.2 42.4,8.1 47.1,26.1 l 0,0 z m -115.1,-30.8 c 0,0 29.7,19 31.2,23.7 1,3 1.6,29.4 1.6,29.4 l -51.5,-33.8 -75.8,44.7 c 1.4,-10.1 7.4,-36.2 7.4,-36.2 l 40.3,-24.4 c 0.2,1.6 27.1,20.2 46.8,-3.4 z m 373.6,9.4 c 5.6,0 10.2,4.7 10.2,10.3 0,5.6 -4.6,10.2 -10.3,10.2 -5.6,0 -10.2,-4.6 -10.2,-10.3 0.1,-5.6 4.7,-10.2 10.3,-10.2 z m -79.6,-1.5 c 5.6,0 10.2,4.6 10.2,10.3 0,5.6 -4.7,10.2 -10.3,10.2 -5.6,0 -10.2,-4.7 -10.1,-10.3 -0.1,-5.6 4.5,-10.2 10.2,-10.2 z m 40,3.2 c 5.6,0 10.2,4.7 10.2,10.3 0,5.6 -4.7,10.2 -10.3,10.2 -5.6,0 -10.2,-4.7 -10.2,-10.3 0,-5.7 4.6,-10.3 10.3,-10.2 z m -100.6,12.4 c 27,6.2 54,12.6 80,15.9 l -0.6,79.8 -7.6,-0.6 0.4,-71.3 c -25.1,-2.3 -48.6,-8.2 -70.7,-14.4 l -1.5,-9.4 z m 201.5,6.8 -1.6,9.3 c 0,0 -47.1,7.1 -71.6,9.8 -0.7,16 -1.8,69.7 -1.8,69.7 l -9.4,1.5 1.6,-81.2 c 27.9,-2.4 55.7,-5 82.8,-9.1 l 0,0 z m -453.8,-4.9 54.4,37.6 5.7,38.8 -63.4,-44.1 c 0,0 -59.1,38.1 -81.3,52.2 l 7.4,-36.3 77.2,-48.2 z m 254.6,12.5 c 22.1,5.2 44.2,10.5 66.4,12.9 l -0.4,64.2 -10.2,-2.9 0.3,-52.1 c -17.3,-1.9 -35.1,-5.6 -52.9,-9.8 l -3.2,-12.3 z m 196.6,5.9 -2.1,8.7 c 0,0 -35.7,4.6 -54.1,7.5 -1.6,0.3 -2.2,56.5 -2.2,56.5 l -8.8,1.2 0.3,-65.5 66.9,-8.4 z m -99.8,5.2 c 5.6,0 10.2,4.7 10.1,10.3 0,5.6 -4.6,10.2 -10.3,10.2 -5.6,0 -10.2,-4.6 -10.2,-10.3 0.1,-5.7 4.8,-10.3 10.4,-10.2 z m -353.1,15.8 64.3,45.4 c 0,0 7.1,23.1 8.4,35.8 l -74.1,-50 -95.2,60.4 11.7,-38.3 84.9,-53.3 z m -395.5,-6.8 c 3.9,0.1 7.7,2.8 9.6,8.8 2.7,8.4 7.9,11 21.8,11 27.3,-0.9 56.2,-13.1 81.8,-3 12.4,4.9 16.5,23.4 5.9,28 -11.5,5 -16.3,1.6 -20,-7.4 -3.6,-3.9 -8.1,-3.4 -32.7,0.3 -10.8,1.5 -23.5,2.8 -34.2,3.5 -27.3,1.6 -42.2,-7.3 -45.3,-23.6 -2,-10.3 6.6,-17.8 13.1,-17.6 z m 747.2,30.3 c 5.6,0 10.2,4.6 10.2,10.3 0,5.6 -4.7,10.2 -10.3,10.2 -5.6,0 -10.2,-4.7 -10.2,-10.3 0.1,-5.6 4.7,-10.2 10.3,-10.2 z m -200.1,8.4 c 7.3,0 13.3,6.1 13.2,13.4 0,7.3 -6.1,13.3 -13.4,13.2 -7.3,0 -13.2,-6.1 -13.2,-13.4 0,-7.3 6,-13.3 13.4,-13.2 z m -152.3,6.2 c 0,0 53,37 77.5,54.1 l 12.9,39.8 -90.2,-61.4 -113.4,70.5 14.3,-40.3 98.9,-62.7 z m 387.5,20.3 c 4.6,13.2 13.2,23.4 22.4,33.8 0,0 -5.4,9.8 -24,8.8 -10.1,-0.5 -10.7,1.1 -14.3,7.9 -5.9,8.6 -10.6,14.2 -14.4,17 -6.6,4.9 -18.6,-2.9 -28.4,-18.3 -3.5,-5.6 -5,-7 -16.1,-7 -17,0 -23,-4.8 -14,-12.3 7.9,-9.2 13.6,-19.4 20.7,-29 l 7.6,1 c 0.3,1.1 -6.3,19.9 -15.3,27.4 -4.6,4.9 1.6,6.9 12.6,4.8 7,-1.9 8.7,-1.1 13.6,9.6 10.3,20.4 15.8,19.5 28.9,-0.7 4.6,-9 4.5,-9.9 16.6,-7.1 13,1.6 17,0 11.7,-4.6 -10.6,-9.4 -16.2,-31.2 -16.2,-31.2 l 8.6,-0.1 z m -387.8,19 c 0,0 95.8,65.6 95.6,64.2 l 18.5,46.3 -112.4,-78.2 -141.1,87.7 21.8,-45 117.6,-75 z m 2.9,41.9 33.4,23 -0.9,40.1 -34.1,-24 1.6,-39.1 z m -8.7,1 -0.2,39.6 -30.8,17.4 -0.9,-37.2 31.9,-19.8 z m -39.1,24.7 -0.3,1.5 0.7,0.4 0.2,0 0.4,35.7 -35.4,23.5 1,-40.3 33.4,-20.8 z m 89.5,2.2 31.4,21.9 0.4,42.5 -34.1,-23.3 2.3,-41.1 z m 38.7,26.8 31.5,22.8 0.2,42.4 -32.2,-22.6 0.5,-42.6 z m -168.9,-3.4 -1,39.1 -32.2,21.6 -0.7,-40 33.9,-20.7 z m 334.9,57.5 c -6.4,6.4 -8.8,5.6 -13.9,-5.4 -5.4,-11.4 -13.7,-16.8 -25.8,-16.8 -15.4,0 -5.1,-9.9 11.2,-10.8 28.1,-0.7 42,18.5 28.5,33 z m -376.1,-30.8 0,39.3 -32,15.8 -0.6,-18.6 16.9,-28.1 15.7,-8.4 z m -41.8,51.7 0.9,7.2 -5.9,2.1 5,-9.3 z m 543,109.6 c -0.1,0 -0.1,0 -0.1,0.1 l 0.4,0 c -0.1,0 -0.2,-0.1 -0.3,-0.1 z m 0.3,0.1 c 4,2.8 39.3,56.3 40.7,113.3 1.1,15.1 -5.5,17.9 -8.4,3.5 -4.8,-23.5 -19.1,-44.2 -37.9,-55.2 -95.5,-37.7 -139.1,82.3 -76.7,132.4 22.2,16.8 65.8,15.9 81.6,-6.4 4.9,-6.9 9.7,-6.1 10.2,-1.7 0.3,2.2 -0.9,3.7 -6.9,8.9 -24.2,20.9 -39.1,50.8 -32,73 9.4,29.6 36.4,50.4 67.9,55.7 33.8,5.7 69.5,-17.5 80.6,-48.3 10.1,-28.2 2.2,-52.4 -23.7,-76.9 -12.2,-11.5 -12.8,-12.4 -10.2,-15.1 2.6,-2.6 4.2,-1.9 10.2,4.2 18.6,18.7 53.7,29.3 77.2,19 37.6,-16.5 54.9,-74.2 30.1,-112.7 -14.8,-31.2 -56.6,-43.6 -92.2,-27.3 -18.9,8.7 -35.9,29.6 -41.2,50.8 -2.4,9.5 -7.9,11.2 -8.6,2.5 3.3,-34.6 8.6,-57.2 48,-117.5 l -108.7,-2.2 z m 319,66.2 c 0,0 13.3,28.9 15,44 1.3,11.1 1.4,15.6 -1.6,15.6 -1,0 -3.3,-5.4 -4.1,-9.6 -6.7,-34.5 -56.6,-35 -64.5,-0.8 -8.1,34.7 23,60.1 51,39 11.5,-7.6 12,-4 0.5,7.2 -22,21.2 -13.2,51.6 13.8,60.2 36.7,11.7 60.4,-32.8 29.6,-62.1 -3.9,-4.2 -7.5,-8.4 -7.5,-9.2 0,-2.2 2.7,-2.3 4.8,0 17.6,19.2 53.9,14.2 60,-9.9 11.4,-45.2 -46.8,-65.8 -63.8,-25.5 -4.2,10 -3.6,11.4 -5.6,9.4 -1.1,-1.1 -0.7,-5.3 0.7,-11 2.8,-11.4 19.9,-45.9 19.9,-45.9 L 1685.5,65 Z m -487.8,115 c -133.6,25.7 -261,13 -352.1,-5.8 l -43.3,70.6 -2.9,-0.2 -11.2,18.3 1.1,2.1 c 0,0 -36.1,66 -51.2,86.7 171,1.9 546.3,8.8 546.3,8.8 l -21.9,-46.5 1.3,-1.2 -21.6,-48.5 -7.2,-8.5 c 0,0 -4.3,-8.8 -7.5,-18.2 -2.9,-8.6 -15.7,-32.4 -15.7,-32.4 l -1.9,0.1 -12.2,-25.3 z m -347.4,2.9 c 1.7,1.4 169.7,36.7 345.2,7.7 l 9.2,16.2 C 1051,238.9 830.3,200.6 839.1,197.6 l 11.2,-14.7 z m 2.2,31.5 c 15.4,-0.2 30.9,8.4 41.1,22.4 3.3,4.5 8.5,17.6 8.5,17.6 0,0 7.6,-12.1 15,-18 11.1,-9 25.5,-16.5 46,-15.3 18.9,1.1 39.5,11.7 57.7,41.7 5.1,-17 68.5,-73.7 118.2,-0.3 6.3,-19.1 34.4,-57 78.3,-29.2 2.9,6.5 5.9,13.7 5.9,13.7 -25.8,-18.9 -69.2,-7.5 -80,20.9 -1,3.5 0.1,5.3 1.4,8.7 13.1,19.6 -22,18.4 -11.3,3 2,-3.5 2.2,-6.4 -0.8,-11.1 -8,-12.5 -32.4,-28.4 -50.6,-28.4 -21,0 -44.6,13.5 -52.6,26 -3,4.6 -3.7,9.3 -1.3,13.4 1.7,4.2 1,7.6 -2.1,10.1 -7.4,5.8 -16.3,-1.2 -12.6,-10 2.4,-3.8 2.1,-8.6 -2.4,-15.2 -9.1,-13.4 -30.8,-27.8 -49.9,-27.8 -27.4,0.1 -55.4,19.2 -54,35.5 0.6,7.1 -1.4,9.8 -7.2,8.8 -7.1,-1.1 -7.7,-7.8 -2.6,-13.2 0.8,-1.7 2.1,-5.9 -0.2,-9.1 -28.1,-39.7 -71.5,-29.2 -81.6,-20.6 9.9,-16.3 23.5,-23.4 37.1,-23.6 l 0,0 z M 826.2,241 c 10.8,0.3 22.3,8.7 25.9,15.2 2.7,-2.7 27.5,-13.9 39.1,3.1 -31.2,-3 -32.2,30.1 -9.2,33.8 -11.2,31.7 35.9,34.6 33.6,4.6 35.1,5.9 31.7,-38.8 -1.6,-34.8 17.6,-12.3 29.4,-8 49.9,7 7.2,-9 36,-16.9 42.7,-0.8 -32.8,-2.7 -28,35.4 -3.5,36.2 -7.8,26.2 40.2,36.9 33.6,-2.6 30.5,2.8 27,-38.7 -2.4,-35.8 2.3,-7.5 32.1,-10.1 45,4.5 12.3,-10.8 25.8,-18.1 49.6,-1.8 -32.7,-6.2 -34,36.5 -3.5,34.6 -3.4,28.2 39.7,29.6 33.2,-3.2 33,-8.2 15.7,-43.7 -8.6,-34.5 11,-12.5 29.1,-6.1 36.3,-3.4 22.9,-25.1 41.9,-3.3 41.9,-3.3 -38.8,-4.9 -31.5,50.8 6.8,31.4 -0.3,11.4 4.4,21.4 19.9,23.3 l 17.6,38.5 -521.5,-7.5 29.8,-50 c 2.9,1 19.5,2.8 23.5,-16.6 34,11.6 37.2,-28.3 11.7,-35.1 3.1,-2.1 6.6,-2.9 10.2,-2.8 l 0,0 z m 807.1,21.4 -0.4,19.3 15.3,0.3 41.5,98.6 -43.1,67.3 -16.1,-0.3 -0.4,17.3 60.8,1.3 0.4,-17.3 -20.2,-0.4 57.4,-79.3 -1.7,80.4 -16.7,-0.3 -0.4,17.3 55.5,1.1 0.3,-16.9 -18.2,-0.4 3.4,-166.3 18.2,0.4 0.4,-19.3 -55.5,-1.1 -0.4,19.3 16.7,0.3 -1,49.1 -24.3,30 -33.8,-80.3 23.7,0.5 0.4,-19.3 -61.8,-1.3 z M 805.6,255 c 3.3,5.5 0.4,9.1 -5.5,9.1 0,0 3.9,-5.5 5.5,-9.1 z m 428.8,15.9 3.2,7.2 c -3.6,-1.6 -4,-3.1 -3.2,-7.2 z"
             id="path3442" /></g></g></g></g><g
     transform="translate(-260.00262,-369.82556)"
     id="printing-marks"><g
       id="CropMarks" /></g></svg>