<?xml version="1.0" encoding="UTF-8" standalone="no"?>
<svg
   xmlns:dc="http://purl.org/dc/elements/1.1/"
   xmlns:cc="http://creativecommons.org/ns#"
   xmlns:rdf="http://www.w3.org/1999/02/22-rdf-syntax-ns#"
   xmlns:svg="http://www.w3.org/2000/svg"
   xmlns="http://www.w3.org/2000/svg"
   height="312.79669"
   width="224.1967"
   xml:space="preserve"
   enable-background="new 74 -106.5 744.1 1052.4"
   viewBox="74 -106.5 224.19671 312.79668"
   y="0px"
   x="0px"
   id="svg4423"
   version="1.1"><defs
     id="defs18" /><g
     transform="translate(-259.96392,-369.77722)"
     id="layer1"><g
       transform="translate(-735.69963,486.83327)"
       id="g3850"><g
         transform="translate(-6377.9381,2318.4423)"
         id="g3731"><path
           style="fill:#ffffff;stroke:#000000;stroke-width:0.99669999"
           d="m 7458.7,-2541.5 202,0 c 5.9,0 10.6,4.8 10.6,10.6 l 0,290.6 c 0,5.9 -4.8,10.6 -10.6,10.6 l -202,0 c -5.9,0 -10.6,-4.8 -10.6,-10.6 l 0,-290.6 c 0,-5.8 4.7,-10.6 10.6,-10.6 z"
           id="rect6969-0" /></g><g
         transform="matrix(0.15444884,0.00171476,-0.00171476,0.15444884,1083.6295,-88.786797)"
         id="g4012"><g
           id="g3023"><g
             transform="matrix(0.99997859,0.0065437,-0.0065437,0.99997859,-2088.7261,-72.360276)"
             id="g2993"><path
               style="fill:#131f67"
               d="m 2177.7,-651.3 c 9.6,512.2 26.1,1141.5 36.4,1699.4 l 1059.8,-19 -37,-1696.7 -1059.2,16.3 z m 313.4,5.3 c 182.9,1.7 366.8,-6.9 551,-8.7 0,0 -64.9,117.7 -84.5,154.8 -4.3,8.1 -4.6,13.9 -2.2,17.2 3.8,5.1 3.6,13.9 -0.4,19 -1.7,2.2 -2.5,3.6 -2.6,4.9 -0.1,1.3 1.1,2.7 2.1,5 3.5,11.1 -4.8,19 -13.6,22.7 -5.9,2.5 -19.1,4.3 -28.8,4 -61.2,-1.8 -182,-51.4 -231.4,-54.5 -34.4,-9 -78.7,-4.8 -115.1,-2.1 -6.9,0.5 -6,-15.6 -6,-15.6 -6.8,-52.8 -45.2,-98.3 -68.5,-146.7 l 0,0 z m 561.1,-5 172.8,-2.9 1.3,27.9 -71.4,75.8 c -6.7,7.1 -12,13 -12,13 l 0.7,67.2 c -50,-25.8 -60.5,-57.4 -70.1,-92.2 -81.8,62.6 -83.3,196.4 8.4,263.7 0.2,-29.9 22,-89.1 62.3,-94.2 l 4.7,233 -50.5,-47.6 -108,3.3 c 17.3,-29.2 17.3,-52.2 5.3,-79 -20.2,-43.9 -51.9,-144.4 -49.6,-144.1 0,0 0.8,-2.2 3.3,-2.8 8.9,-2.2 14.5,-10.9 11.7,-21.2 -0.5,-3.3 -0.5,-2.6 1.7,-6.9 8.5,-15.2 -2.2,-31.2 -2.2,-31.2 l 91.6,-161.8 z m -573.1,11.5 66.9,116.1 c 0,0 -0.8,5.4 -0.3,8.5 0.6,4.5 2.2,8.5 4.9,12.7 1.8,2.8 3.1,6.6 3.6,10.1 0.7,5.8 0.7,5.8 9.4,13.3 1.8,1.6 2.2,2.6 1.5,4.3 -2.7,7.2 -0.8,21.7 5.1,39 7.4,21.8 9.2,21.5 -3.3,51.1 -2.6,6.2 -5.8,14.4 -9.2,22 -15.6,33.5 -17.9,42.6 10.2,59.8 7.9,4.8 10.3,9.1 8.5,19.1 -1.4,7.8 -1.6,12.8 2.2,17.2 2.5,2.8 4.7,3.2 4.1,5.5 -0.4,1.5 -2.1,8 -1.4,13.5 1.9,14.7 -14.7,36.7 -30.1,44.6 -3.1,2.3 -4,-0.4 -5.8,-3.5 -16.6,-27.9 -56.4,-15.8 -58.5,17.9 -0.5,8.9 -0.2,12.7 -2.5,14.7 -0.8,0.7 -3.1,2 -3.1,2 0,0 -59.2,40 -97,60.7 -2.5,1.3 -4.7,3.5 -6.4,3.9 -2,0.4 -3.5,0.1 -4.8,-1.1 -14.5,-26.5 -7.3,-58.2 -6.3,-69.5 -0.4,-4 -3.8,-4.6 -8.9,-4.6 -8.7,0.1 -21,9.1 -23.5,17.3 -2.2,7 -3.6,11.5 -5.7,11.5 -2.1,0 -3.2,-2.8 -8.6,-12.7 -11.2,-20.7 -12.9,-23.3 -23.3,-35.3 -8.3,-9.5 -15.2,-10.7 -23,-3.3 -5.4,5.1 -5.3,0.8 -10.1,-1.7 -8.2,-5.4 -20.3,-0.2 -20.5,7.5 -0.1,6.5 -0.1,11.4 -6.7,12 -7.3,0.6 -10.4,10.2 -8.1,23.6 1.2,7.1 1.4,8.2 -0.7,10.9 -7,8.6 -7.8,14.5 -3.7,26.3 11.7,33.7 28.3,56.2 44,86.7 0,0 -38.2,22.6 -60.8,35.7 l -11.7,-630.3 283.6,-5.5 z m 749.7,20.3 10.6,547.5 -84.2,-79.9 c 0,0 -3.5,-104.9 -4.1,-147.8 -0.7,-42.9 -0.8,-85.8 -1.1,-93.8 -0.3,-8 -0.3,-41.9 -0.7,-76.8 -0.7,-73 -7.3,-63.9 6.1,-78.1 l 73.4,-71.1 z m -160.5,68.5 4.8,13.1 c -34.3,20.5 -74.8,131.9 4.5,211.8 l -1.3,16.8 c -82.9,-72.6 -69.7,-179 -8,-241.7 l 0,0 z m 6.2,15.5 c 12.3,24.3 26.3,45.9 45,58.8 -9.5,23.9 -13.3,50.2 4.1,85.2 -11.7,6.7 -27.8,24.2 -44.2,59.7 -62.6,-61 -50.5,-151.2 -4.9,-203.7 z m -456.3,54.5 c 34.1,-0.5 69.7,4.4 102.5,13.6 22.4,103.5 59.7,172.7 60.3,213.4 0,0 -2.9,-0.4 -9,-4.7 -15,-10.5 -34.4,-4.1 -44.6,9.7 -9.7,13.1 0.6,30.9 -4.3,38.6 -9.3,14.2 -33.6,40.7 -37.7,39.9 -3,-0.6 -2.6,-1.9 7.7,-18.3 10.7,-17.1 18.9,-32.6 15.2,-36.3 -1.6,-1.6 -2.3,1.8 -10.3,16.2 -18.7,33.9 -35.3,54.9 -42.1,52.3 -3.2,-1.2 -1.6,-4 12.4,-23.2 15.8,-21.6 20,-35 18.3,-40.9 -1.3,-4.5 -3.7,2.9 -10.2,16.1 -6.9,14 -19.5,29.7 -29.7,44.7 -3.2,5.4 -7.4,8.6 -12.8,11.2 -4,1.8 -10.4,4.8 -14.1,4.4 -1.9,-0.2 -0.6,-1.4 2,-4 20.2,-21.6 37.5,-45.6 47.2,-68.4 1.5,-3 -0.8,-7.2 -3.3,-4 -14.9,27.4 -35.8,61.6 -58.8,77 -4.9,3.3 -12.4,6.1 -19.2,5.7 -11.5,-0.1 -7.5,-2.8 2.9,-9.6 22.1,-14.8 52.8,-56.6 57.6,-71.3 1.1,-3.5 -0.2,-5.4 -2.4,-5.1 -17.9,29.8 -41.6,62.6 -69.6,76.6 -15.1,7.6 -34.3,9.3 -43.8,4.9 -7,-3.3 -5.3,-4.5 7,-5.5 29.5,-3.4 63.6,-31.8 80.2,-61.4 9.7,-16.4 2.8,-12.6 -8.4,3.3 -19.1,27.1 -57.5,53.4 -81.6,51.8 -24.4,-1 -38.7,-19.6 -35.9,-35.9 1.7,-9.8 8.5,-19.9 22.1,-23 23.2,-5.3 39.2,31.4 17.9,38.7 -7.2,2.5 -10,0.8 -7.4,-2.2 15.7,-7.2 8.3,-26.1 -5.1,-27.8 -8.4,-1.1 -18.1,4.8 -18.3,17.8 0.4,9.7 8.6,19.1 24.6,19 19,-0.1 48,-14.3 65.2,-39.8 12.2,-19.5 0.8,-12.8 -8.4,0.2 -8.1,11.5 -34.5,27.8 -36.5,27.3 l 0.7,-13.1 c 0.4,2.2 40.6,-26.3 37.9,-47 -1.8,-15 0.3,-19.7 16,-19.8 11.7,-0.1 26.7,3.8 31.1,9.1 4.6,5.2 9.6,6.8 7.2,-2.1 -3.8,-14.5 0.4,-17 -8,-14 -5.8,2 -11,-2.6 -16.9,-6.6 -6.5,-4.4 -14.6,-6.2 -24.3,-5.7 -7.2,0.4 -10.5,0 -9.5,-6.8 0.7,-4.8 1.6,-9.2 0.1,-12.3 -2.4,-5.1 -11.5,-10.2 -21.9,-17.6 -12.2,-8.7 -10,-9.3 14.7,-69.1 10.4,-25.1 10.3,-30.2 3.5,-48.5 -10.8,-28.9 -12.6,-40.5 6.6,-44.9 10.6,-1.6 21.8,-2.5 33.2,-2.6 z m 109.3,14.9 10,2.7 c 0.1,0 33,105.7 51.7,157.3 5.7,15.7 10.2,37 11.6,57.1 0,27.7 -15.2,47.8 -34.2,50.3 -13.4,1.8 -28.1,-4.9 -35.1,-19.8 -5.9,-14.1 -1.9,-31 14.2,-37.1 27.9,-10.5 49.1,25 21.8,36.5 -14.1,6 -27.9,-4.1 -21.7,-16.2 4.4,-8.5 17,-7.8 20.2,0.8 2.6,9.2 6.6,4.8 4.7,-1.5 -5.6,-19.8 -31.1,-14.7 -32.8,3.7 0.4,22.7 25.4,27.6 40,14.6 11.3,-10.4 12.2,-28.9 9.1,-44.8 -4.5,-33.2 -24.1,-75.9 -38.3,-124.9 -7.2,-24.4 -17.3,-53.5 -21.2,-78.7 l 0,0 z m 396.6,-5.8 18.8,7.1 0.7,61.7 -15.8,5.7 c -21.3,-31.4 -4.8,-74.5 -3.7,-74.5 z m -379.3,10.7 13.8,5 c 8.3,43.4 45.2,126 58.8,187.9 4.1,37.3 4.9,48.2 -20,68.6 l 0,-0.3 -13.7,0.2 c 0,0 -0.1,-0.8 5.8,-5.4 32.7,-25.4 12,-79.6 -1.3,-121.3 -23,-66.6 -43.7,-134.8 -43.4,-134.7 l 0,0 z m -128.1,6.6 c -1.7,0.1 -3.5,0.2 -5.3,0.3 -20.7,1.5 -24,2.9 -24,7.4 0,8.5 3.6,12.2 22.8,9.8 16.6,-2.1 40.8,0.1 57.5,6.9 19.1,7.8 23.6,9.7 30.5,13.1 17.3,8.5 14.1,-0.2 -1.5,-10.1 -32,-20.4 -54,-28.2 -80,-27.4 z m 149.3,0.3 13,4.7 c 0,0 3.6,10 4.9,15.7 13.5,55.4 48.7,117.3 53.8,182.2 1.3,21.3 -2,41.2 -17.5,51.1 l -11.8,0.2 c 12.4,-12.7 20.7,-16.5 16.4,-60 -6.5,-55.8 -44.6,-125 -58.8,-193.9 z m 23,8.7 12,4.2 c 15,74.8 84.8,185.8 42.6,240.6 l -10.8,0.2 c 9.4,-15.2 13.1,-28.4 11.3,-48.7 -5.5,-68.2 -41.4,-133.7 -55.1,-196.3 z m 20,6.5 12.8,3.7 c 18.7,75.7 87.6,199.2 40.6,234.5 l -9.4,-0.1 c 34.8,-67.6 -20.7,-135.9 -44,-238.1 z m 22.4,6.7 c 4,2.1 9.6,3.1 13.9,4.2 14.5,57.3 40,113.4 52.2,166.7 4.3,29.3 -1.8,51.3 -20,60 l -3.9,0.1 c 16.1,-25.2 12.4,-56.7 3,-90.5 -12.8,-45.6 -36.7,-95.5 -45.2,-140.5 z m -201.3,4.6 c -5.9,0 -12.1,1.1 -18.7,3.3 -6.7,2.7 -5.8,7.9 0.5,6.7 2.1,-0.4 5.8,-1.1 8.3,-1.6 15.3,-2.9 34.3,2.2 57.4,15.7 5.6,3.3 11.7,6.4 13.2,7.5 4.3,3.1 8.7,3 7.1,-1 -0.6,-1.6 -9.6,-8.3 -17.5,-12.5 -16.8,-9.9 -32.5,-18.3 -50.3,-18.1 z m 223.1,1 12.9,1.7 c 26.2,110.9 80.5,179.1 35.8,221.2 l -11.4,0.2 c 12.2,-12.9 17.5,-32.9 12.9,-56.4 -4.6,-23.9 -17.7,-61.8 -28.6,-95.1 -12.5,-38.6 -22.6,-71.3 -21.6,-71.6 l 0,0 z m 18.6,2.8 10.9,1.8 c 13.6,45 36.3,100.7 50.1,147.2 8.5,28.6 5.9,64 -11.9,70.8 l -9.2,0.3 c 14.9,-20.6 16.7,-41.8 9.2,-69.1 -15.2,-55.8 -37.7,-104.5 -49.1,-151 z m 67.3,-1.1 c 11.8,46.7 39.5,117.8 49.5,142.3 13.1,25 10,62.4 -8.8,77.5 l -9,0.3 c 10.7,-10.4 14.1,-27.5 12.1,-45.3 -5.8,-50.1 -42.5,-119 -56.3,-172.2 l 12.5,-2.6 z m -47.8,3.1 11.3,0.8 c 12.1,48.9 34.9,96.1 50,145 2.8,11 5.4,24.5 4.6,34.5 -1.6,20.9 -9.9,37.5 -17.5,37.7 l -7.7,0.1 c 15.5,-19.1 14.3,-44.8 7,-72.4 -12.1,-45.5 -40.2,-100.1 -47.7,-145.7 l 0,0 z m -292.9,5.4 c -4.7,0.1 -4.7,4.4 2.9,10.8 4.7,3.9 4.3,2.6 4.1,5.1 -0.9,10.9 1,20.8 5.2,9.5 1.1,-3 2.8,-6.4 4.6,-6 3.3,1 1.7,7.1 3.4,10.1 2.8,5.4 -0.1,6.7 -6.6,5.2 -4.7,-1.1 -5,1.4 -7.8,4.7 -5,5.8 -4.1,9.2 3.7,7.2 1.3,-0.3 2.4,0 3.4,0.3 2.5,0.5 4.7,2 10.7,6.4 7.6,5.6 18.4,13.1 25.3,14.1 11.1,1.7 8.5,-3.6 -0.6,-6.9 -7.8,-2.8 -17.6,-10.9 -17.6,-13.2 0,-1.8 2.5,-0.8 16.4,-4.9 6,-1.8 14.5,-5.7 18.1,-7.4 5.9,-2.8 6.2,-2.8 15.5,-2.7 15.9,0.2 18.3,-0.4 7,-8.4 -22.7,-16.3 -52.9,-26.6 -68.7,-19.4 -4.8,2.2 -4.7,0.9 -8.2,-1 -4.6,-2.5 -8.3,-3.6 -10.8,-3.5 z m 321.4,-4.2 c 16.6,59.7 47.7,112.9 56,169.6 1.9,16.2 -0.5,32.2 -13.8,46.2 l -9.1,0.3 c -1.3,0 12.4,-22 10.8,-40.6 0.2,-9.9 -1.1,-20.6 -4.1,-31.1 -18.6,-50.2 -36.8,-95.8 -51.2,-143.7 l 11.4,-0.7 z m -280.7,24.7 c 0.1,0 0.2,0 0.3,0 4.3,0.6 4.4,2.3 3.2,4.5 -1.8,3.3 -4.9,9.7 -4.9,9.7 0,0 -4.3,0.9 -5.2,-0.2 -1.6,-2.3 3.9,-13.7 6.6,-14 z m 10.8,1.7 c 0.5,0 1.1,0.2 2,0.6 4.1,1.5 11.2,4.7 8.2,7.3 -3.6,3.1 -17.6,4.7 -16.9,3.4 l 4.5,-8.7 c 1,-1.9 1.4,-2.6 2.2,-2.6 z m -42,53.2 c -0.4,0 -0.7,0.1 -0.9,0.3 -0.8,0.5 1.1,3.7 3.8,7.4 12.7,16.5 -4.4,21.8 -16.7,13 -11.7,-8.8 -29.5,-7.6 -26.8,1.8 1,3.3 0.1,4.9 6.6,4.9 5.7,0 7.2,0.3 12.4,3.7 20,13.2 45.2,-5.4 32.4,-24.5 -2.4,-3.7 -8.3,-6.8 -10.8,-6.6 l 0,0 z m 49.2,25.2 c -7.2,0.1 -11.6,5.6 -2.6,7 32.2,5.2 11.3,38.8 -11.7,22.1 -20.7,-18 -48,-17.4 -48.1,-4.4 0,3.3 0.2,3.4 5,4.2 11.4,1.9 28.5,6.8 35,10 3.9,1.9 7.9,3.6 9,3.8 13.7,4.7 31,-2 34.2,-13.5 3.1,-10.4 0.2,-29.5 -20.8,-29.2 l 0,0 z m -400.6,114.2 c 4.3,0 8.9,3.7 12.3,9.1 7.8,12.6 17.3,33.8 23.3,45.5 1.5,2.9 1.6,5.6 1.6,7 0.6,6.9 2.9,9.5 7,6.3 4,-3.1 9.5,-8.3 2.9,-9.1 -6.7,-4.9 -10.5,-12.1 -6.5,-16.6 2.9,-3.3 1.7,-5.4 -0.7,-5.5 -9.2,0 -23.5,-27.2 -17.1,-33.3 8.6,-8.1 18.5,1.6 39.8,42.1 9.4,17.9 10.2,37.7 2.2,28 -2.7,-2.4 -2.1,-1.2 -5.1,6.7 -2.2,5.9 -4.1,8.7 -12.9,17.4 -10.7,10.6 -17.1,19 -17.3,20.8 -0.4,3.5 5.9,0.1 10.4,-6 10.1,-10.2 10.5,-12.9 10.6,0.4 0.1,12.1 -0.5,14.3 1.7,14.2 3.4,-0.2 5,-9.8 6.4,-21.3 1.7,-10.4 7,-15.7 15.9,-21.7 2.4,-1.6 2.5,-2.7 1.9,-7.3 -1.9,-14.6 5.9,-42.1 9.8,-35.4 0.6,1.5 2.3,5 3.2,7.5 0.8,3.8 3.3,8.2 7,8.4 4.7,3.4 4.7,5.2 6.5,17.8 0.6,4.1 2.5,10.3 3.9,13.5 2.5,6.1 4.7,9.6 3.4,11.5 -0.8,0.9 -2.6,2.6 -2.6,2.6 l -74.3,45.8 c 0,0 -5.8,3.4 -8,4.3 -5.9,2.8 -9.6,0.9 -12.6,-3.5 -16.3,-23.4 -27.7,-49.9 -39.3,-74.2 -7,-14.5 -0.6,-24.2 8.3,-12.6 3.5,4.5 1.8,7.5 0.3,16.3 -0.3,1.6 1.2,1 4,1.4 4.4,-0.5 6.6,3.3 6.5,10 -2.6,9.6 1.1,4.4 2.9,3.9 3.5,0 4.3,2.1 6.3,6 1.3,5.6 3.7,3.9 7.3,0.2 2.9,-3.1 2.9,-3 -3.2,-10 -10.5,-11 -25.2,-36 -29.2,-51.2 -1.1,-4.2 -0.8,-7.6 0,-9.9 4.5,-10.6 11,-10.7 18.3,3.8 1.2,2.5 3.7,6.4 5.4,8.8 2.8,3.9 4.5,7.2 4.6,13.5 -2,5.3 -2.3,5.4 -0.5,6.1 4.5,1.7 12.6,9.7 13.1,16.9 0.5,7.4 1.8,11.2 7.5,6.8 6.5,-5.1 3.7,-7.1 -3,-13.3 -7,-8 -7.5,-15 -3.6,-21 0.6,-2 0.3,-2.5 -2.2,-2.2 -7.9,0.9 -15.8,-9 -10.4,-16.7 2.5,-4.5 2.1,-5.7 -1.4,-5.7 -1.9,0 -4.9,0.4 -6.5,-0.4 -2.4,-4.4 -7.4,-10.4 -7.5,-15.4 2.3,-7.4 5.8,-10.3 9.6,-10.3 l 0,0 z m 470.8,-7.9 c 13.2,7.8 26.2,15.8 40.9,19.4 -32.8,61.7 -86.8,95.4 -132.2,108.9 1.7,7.8 2.9,15.6 10.6,20.2 -0.3,-1.2 -3.9,-15 -3.2,-17.9 62.6,-17.2 116.8,-79.7 130.4,-111.7 l 276.2,-7.9 C 2848.7,1.7 2845.4,278.3 3016.6,507.1 l -19,11.6 C 2865.4,328.1 2863.5,142.3 2899.9,17.1 c 25.8,-88.7 73.8,-157 110.4,-196.2 0,0 -149.8,0.6 -224.3,4.6 -10.5,16.8 -20.4,30.5 -34.7,46.4 0,0 37.2,-37.2 36.1,-43.6 69.1,-1.3 140.3,-6.5 209.4,-2.9 -79,98.1 -117.1,198.5 -122.3,292.5 0,12.2 -0.9,5.4 -4.9,10 l -12.4,20 -10.6,-20.4 c -7,-2.1 -20.6,1.7 -26.4,-0.3 -26.2,127.2 5.2,279.7 44.4,378.8 0,0 -9.3,5.4 -20.9,4.7 -12.7,-2.6 -15.7,1 -26.6,3.4 -12.6,2.6 -16.9,2.7 -19.7,5.9 -1.5,1.8 -4.3,4.3 -7.4,6.1 -30.5,11.7 -65.7,54.1 -65.8,53.5 l -34,-14.6 c 30,-61.7 66.2,-84.3 129.9,-112.6 l -6.4,-27.2 c -67.9,26.7 -110.9,57.9 -144.2,117.8 -41.7,0.1 -210.4,1.9 -210.5,2.5 67.4,-79.5 119.6,-198.4 123.9,-290.5 1.1,-17.9 -1.2,-9.3 6.6,-14.8 l 12.2,-15.1 10,14.5 c 0,0 7.2,8.9 11.6,1.3 10.3,-128.5 -5.6,-274.6 -69.2,-375.5 11,-0.9 21.9,-1.4 32.5,4.6 25.1,54.3 40.6,121.7 47.7,172.3 9,64 9.1,136.5 2.2,198.1 l 4.1,0.5 c 10.6,-80.1 5.1,-165 -7.3,-239.1 -6.4,-38.6 -25.7,-98.9 -38.8,-126.7 -3.6,-7.7 -6.3,-9.6 -3.1,-10.8 75.4,-7.4 109.5,-33.1 135.9,-73.7 l 0,0 z m -208.8,10.4 c 5.8,-0.1 10.5,4.5 10.6,10.3 0.1,5.8 -4.5,10.5 -10.3,10.6 -5.8,0.1 -10.5,-4.5 -10.6,-10.3 0,-5.7 4.6,-10.5 10.3,-10.6 z m 566.4,-4.7 c -21.7,20.4 -39.1,41.4 -57.3,63.7 56.4,74.8 119.1,155.9 171.8,220.6 0,0 17.6,-10.9 17.5,-12.2 -0.1,-0.7 -1.5,-4.2 -1.8,-3.4 -0.7,1.8 -14.3,9.7 -14.3,9.7 l -166.7,-211 c 0,0 8.6,-10.7 11.3,-14.1 12.6,-4.4 47,-48.6 48.8,-47.8 28,20.7 112.8,108.8 145.4,135.7 l 4.8,248.8 c -3.1,10 -91.2,49.9 -151.4,194.2 -31.2,18.2 -66,28.3 -98.2,44.3 0,0 8.5,12.9 12.6,16.3 -5.2,-10.6 -6.1,-12.7 5.1,-17.4 l 232.9,-99.7 -0.1,19.3 -3.2,33.4 c -63.1,40.5 -116.7,57.9 -203.5,118.9 -6.2,1.6 -11.2,7.7 -17.8,8.1 -230.3,-326.6 -91.2,-578.1 37.4,-705.5 l 26.7,-1.9 z m -730.6,29.8 c 6.1,0 4.8,14.2 2.7,19.2 -4.5,3.6 -9,0.6 -9,-6.1 0,-2.2 -0.5,-4.2 -1,-4.5 -3.5,-2.1 2.1,-8.6 7.3,-8.6 z m 137.3,6.5 c 5.2,3.8 7.2,9 9.2,14.2 -7,-1 -25.7,-6 -17,-10.3 l 7.8,-3.9 z m -33.6,19 c 166.2,241.9 163.5,502.1 -13.6,702.3 l 228.6,-4.4 c 28.1,-57.9 75.9,-93.8 137.6,-116.4 l 5.7,17.9 c -70.9,24.1 -106.3,62.7 -134,115.8 l -272.6,4.8 C 2512.4,457.1 2558.7,361 2564,232.1 2569,109.3 2535.9,-2.1 2438.7,-135.2 l 19.3,-13.2 z m 45.7,2 38.5,17.4 -5,39.3 -40.3,-17.7 6.8,-39 z m -68.7,12.3 c 209.6,305.2 125.9,524 -33.9,707.6 l -30,1 -71.1,-63.8 8.3,395.1 c 0,0 -67.1,68.1 -74.8,76.2 -7.6,7.6 -13.6,-3.8 -13.6,-3.8 l -9.1,-523.8 2.7,-20.6 -1.1,-112.9 43.1,-23.7 166.9,210.9 c 0,0 -6.4,9.8 -9.4,11.5 -2,1.2 -0.5,3 1.2,2.8 4.6,-0.7 17.4,-15.5 14.6,-17.8 -60.5,-72.3 -173,-213.8 -173,-213.8 l -45.4,24.7 c 0,0 -0.3,-93.7 -1.8,-129.7 1.6,-8.5 8,-6.4 12.2,-10.2 52.1,-34.8 88.6,-76.9 110.8,-117.4 1.6,-3 11.5,-21.2 12.4,-22.9 3.5,-5.9 12,-24.3 17,-36 2.8,-6.6 5.7,-14.5 6.9,-15.5 31.6,-10.9 64.6,-26.2 96.2,-39.9 l -47.1,-67.9 18,-10.1 z m -125,6.1 c -1.7,0 -6.1,2.1 -11.9,7.6 -10.8,10.1 -24.9,26.7 -24.9,29.8 3,1 5.5,-0.7 7.8,-3.1 8.9,-13.7 23,-19.2 31,-31.2 1.3,-2.3 -0.1,-3.2 -2,-3.1 z m 103.1,12.5 c 0,0 32.5,45.6 40.8,57.7 -82.9,34.5 -169.4,79.7 -246.3,109.3 l -0.3,-18.5 11.6,-33.4 194.2,-115.1 z m 124.7,28.3 31.5,15.6 -8.2,35.4 -31.8,-17.1 8.5,-33.9 z m 26.8,58.2 26,18.2 -11.2,30.1 -26.2,-17.3 11.4,-31 z m -209,25.6 c 0,0 -3.7,13.9 -10.1,26.4 -30.8,55.7 -61,105.3 -124.4,149 -2.5,-2.1 -9.7,-14.2 -9.7,-14.2 l -0.9,-16.3 C 2244,113.6 2273.1,93 2316.7,12 l 13,-5.5 11.2,4.6 7.3,-13.6 7.4,-0.9 z m 133.5,-2.3 c -28.5,63.3 -56.4,128.5 -102.7,178.2 l 132.1,177.7 c 40.3,-127.8 22.4,-246.6 -29.4,-355.9 l 0,0 z m -162,16.6 -6,10.8 10.8,6 6,-10.8 -10.8,-6 z m -17.5,1.4 c -22.4,52.6 -56.8,93.5 -102.3,123.2 l -3.1,-76.6 105.4,-46.6 z m 8.5,15.5 -6,10.8 10.8,6 6,-10.8 -10.8,-6 z m 263.6,-2.4 23.6,21.6 -13.3,24.6 -24.2,-19.3 13.9,-26.9 z m 356.4,4.5 c -0.1,0.1 -0.1,0.1 0,0 -38.7,127.8 -24.3,248.8 33.6,353.4 26.3,-68.9 48.1,-115.1 100.5,-188.9 C 3038.3,151.7 2941.4,28.5 2938.1,29.9 Z m -628.8,13.2 -6.3,10.6 10.6,6.3 6.3,-10.6 -10.6,-6.3 z m 178.5,11.6 c 38.4,87.4 36.5,166.8 18.2,236 l -94,-114.6 c 32.9,-42.4 54.6,-82.4 75.8,-121.4 z m -187.7,3.7 -6.8,10.3 10.3,6.8 6.8,-10.4 -10.3,-6.7 z m -10.1,14.8 -7.5,9.9 9.9,7.5 7.5,-9.9 -9.9,-7.5 z m 303.3,5 21.2,19.4 -12.7,25.9 -21.5,-19 13,-26.3 z m -315,10.4 -7.8,9.5 9.5,7.8 7.8,-9.5 -9.5,-7.8 z m 671.9,-9.1 94.9,118.1 c -30.4,37.5 -55.4,81.5 -77.6,128.8 -27.3,-80.6 -40.4,-159.9 -17.3,-246.9 l 0,0 z m -684.7,24.2 -8.4,9.1 9.1,8.4 8.4,-9.1 -9.1,-8.4 z m 217,8.2 -41.4,62.1 49.8,61.3 c 4.6,-33.7 5.1,-72.8 -8.4,-123.4 l 0,0 z m -230.6,6 -9,8.5 8.5,9 9,-8.5 -8.5,-9 z m -13.2,12.2 -9.5,8 8,9.5 9.5,-8 -8,-9.5 z m 362.8,0 17.8,20.1 -17.3,21.3 -16.9,-18.3 16.4,-23.1 z m 221.7,-0.3 11.8,0.2 c -16,191.9 23.8,288.2 59.1,371.9 0,0 0,3.4 -1.1,4.4 -5.5,2 -16.6,4.2 -25.6,-3.5 -47.5,-115.9 -60,-259.6 -44.2,-373 z m -599.9,13.1 -9.9,7.4 7.4,9.9 9.9,-7.4 -7.4,-9.9 z m 742.4,-6.3 c -3,0.1 -4.2,78.9 7.8,117.2 l 41.7,-58.6 -49.5,-58.6 z m -110.2,14.9 14.6,18.9 -14.8,20.9 -15.8,-19.3 16,-20.5 z m -643.3,16.6 c 0.7,-0.1 1.9,1.8 4.2,3.4 2.2,2.2 1.9,2 -0.5,4 -3.7,3 -4.8,2.6 -4.8,-2.1 0.3,-3.8 0.5,-5.2 1.1,-5.3 z m 390.9,7.5 16.2,22.3 -17.1,22.8 -15.4,-23.4 16.3,-21.7 z m 252,24.2 17,20 -13.9,22.5 -18.5,-20.9 15.4,-21.6 z m 384.9,-2.5 1.9,23.3 -5.9,-8.4 -10.4,8.3 7.5,9.6 9.1,-7.3 0.7,9.4 c -57.8,43.3 -82.2,92.4 -105.3,129.3 l -10.5,4.7 -12.1,-3.6 -5.7,10.5 -10.2,2.6 c -0.3,-0.1 19.7,-45 54.6,-91.1 31.1,-41.1 86.2,-87.7 86.3,-87.3 l 0,0 z m 7.4,36.4 2,83 -104,42.3 c 26.3,-46.8 57.6,-90.4 102,-125.3 z m -26.2,-9.6 -9.4,8 8.4,9.3 9.4,-8 -8.4,-9.3 z m -14.5,12.7 -9.1,8.4 8.8,9 9.1,-8.4 -8.8,-9 z m -349.7,10.8 20.1,20.7 -14,25.1 -20.9,-19.4 14.8,-26.4 z m 335.1,2.9 -8.5,9 9.6,8.9 8.5,-9 -9.6,-8.9 z m -13.4,14.2 -8.1,9.3 10.2,8.5 8.1,-9.3 -10.2,-8.5 z m -13.4,15.9 -7.5,9.8 10.6,7.9 7.5,-9.9 -10.6,-7.8 z m -300.6,20.2 25,15.6 -11.5,29.6 -25,-18.3 11.5,-26.9 z m 289,-5 -7.1,10.2 11.3,7.4 7.2,-10.5 -11.4,-7.1 z m -10.9,16.1 -6.5,10.5 11.4,7 6.5,-10.9 -11.4,-6.6 z m -9.7,15.9 -6,10.8 11.8,6.4 6,-11 -11.8,-6.2 z m -8.7,16.4 -6,10.8 13,5.4 4.9,-10.3 -11.9,-5.9 z m -245.4,11 25.6,16.7 -10.6,31 -27,-18.4 12,-29.3 z m 367.1,23.8 12.4,633.3 -278.3,5.9 c 0,0 -13.4,-22.7 -41.6,-75.1 -11.9,-22.2 -21.8,-31.5 -23.2,-49.3 0.9,-10.4 -4.2,-22.2 -12.8,-26.8 -2.9,-1.5 -7.7,0.5 -6.1,-4 1.7,-4.9 -3.9,-12.4 -5.4,-14 -1.7,-2.8 -0.7,-3.5 -1.1,-14.1 -0.4,-10.2 -1,-14.5 -3.3,-22.1 -5.9,-19.4 -7.3,-29.1 -4.3,-39.2 7.8,-25.8 16,-45.6 26.7,-69.6 6.2,-14.1 5.1,-19.5 -14.8,-29.3 -14.9,-7.3 -16.9,-7.2 -15.2,-18.4 0.8,-5.2 1.5,-8.5 0.4,-11 -0.7,-1.5 -3.2,-3.6 -4.6,-4.8 -2,-1.6 -1.4,-5 0.5,-7.6 1.9,-2.5 1.8,-6.1 -0.2,-12 -4.3,-12.4 4.6,-29.1 21.7,-40.8 7.6,-5.2 7.4,-4.1 15.5,4.1 23.7,24.1 58.1,8.1 57.5,-26.4 -0.2,-10.8 -3.8,-10 6.3,-15.3 34.1,-22.5 104.1,-63.7 103.7,-62.6 4.8,9.3 6.5,17.3 9.5,27.4 2.7,8.6 2.4,9.3 1.7,26.2 -0.6,15.3 -1,18.8 2.6,19.7 20.5,1.9 25,-5.4 28.7,-18.7 1.6,-5.9 4.9,-4.7 6.9,-2.3 8,14 18.1,28.5 24.7,38.5 8.3,12.7 22,18.8 29,12.6 1.4,-5 2.6,-5.2 11.7,-3.3 11,2.3 17.1,-3.9 18,-12 0.4,-3.2 -2,-3 3.8,-6.3 14.3,-11 8.5,-25.6 6.2,-34.4 0.2,0.5 6.1,-3.8 6.1,-12 -0.1,-43 -38.4,-104.2 -37.5,-102.6 l 54.8,-33.7 z m -350.9,30.9 29.8,13.8 -6.3,35.4 -30.7,-13.1 7.2,-36.1 z M 3183,418 c 17.4,19.4 30.3,52.1 37,73.5 3.3,10.6 3.9,22.8 1.2,24.5 -2.7,1.7 -4.1,0 -3.6,-6.4 0.3,-5.3 0.4,-9.4 -1.9,-9.3 -6.6,1.8 -7,-8.2 -6.4,-10.5 0.4,-1.6 1.2,-2.7 1.6,-3.6 1.6,-3.9 -2.7,-3.3 -7.1,-3.3 -3.9,0.2 -4.9,-2.2 -4.8,-5.9 -0.2,-4.1 -5.6,-3.2 -8.6,0 -2.8,2.9 -2.1,6.2 1.7,8.5 5.5,3.3 10.9,11.4 24.2,39.7 7.7,16.4 5.7,28.2 -3.1,28.2 -6.1,-0.1 -13.6,-16.8 -19.6,-29 -1.5,-3.2 2.1,-6.8 3.4,-8.6 3.3,-4.5 2.8,-5.9 -2.3,-5.9 -4.7,0 -6.7,0.5 -9.7,-5.3 -1.1,-2.2 -1.9,-5.5 -1.6,-7.6 2.3,-6.5 -2.7,-7.9 -7.5,-5.4 -6.1,2.7 -5.9,8.1 3.5,16.8 6.2,9.7 4.6,9.1 -1,15.8 -1.1,2.4 -0.4,3.8 2.1,3.8 7.2,-2.3 15.2,10.5 13.2,15 -2.2,1.9 -8.1,9 -2.3,7.5 11.8,-3.4 19.3,13.8 12.4,19.8 -10.3,5.4 -12.8,3.8 -29.4,-28 -5.2,-9.9 -11.3,-20.5 -12.1,-21.5 -0.8,-1.1 -1.1,-4 -1.1,-6.4 0.6,-5.8 -1.9,-7.1 -6.9,-4.7 -3.8,1 -7.1,4.1 -2.3,7 5.8,9.6 7.8,11.1 4.7,13.6 -6.9,5.7 -3.9,5.4 4,6.8 3.9,1.1 5.8,3 6.9,5.4 4.2,9 11.6,21.7 12.4,24.3 2.5,6.6 -1.7,9.7 -7.6,9.5 -6.1,0.3 -9,-4.5 -12.1,-8.6 -11.4,-15.3 -19.7,-30.5 -31.4,-48 l 1.2,-16.5 c 0,0 3,0.6 4.7,-0.2 3.3,-1.6 5.1,-6.8 6.9,-13.7 2.9,-6 20.3,-19.8 27,-27.2 1.2,-0.8 2.3,-2.2 2.3,-3 -0.1,-2.7 -7.7,-0.7 -12.6,5.1 -7.3,6.7 -10.4,4.5 -10.4,-3.9 -0.9,-10.3 -7.1,-5 -7.3,5.1 -0.7,8 -3.4,12.9 -8.8,17.4 -10.4,8.6 -8.7,6.4 -8,18.1 1.2,20.4 -6.4,37.3 -11.7,26.2 -1.9,-3.9 -4.1,-8.4 -8.7,-8.5 -3.3,-0.1 -4.9,-3.2 -6.9,-11.1 -2.9,-12.7 -6.8,-20.9 -10.4,-32.5 l 96.8,-57 z m -261.2,48.5 34.3,13 -5.7,35.7 -34,-12.3 5.4,-36.4 z m 259.7,-1.3 c -0.2,0 -0.5,0.1 -0.8,0.2 -9.5,7.4 -18.2,15.7 -28.5,22.1 -3.9,2.4 -8.4,8.5 -8.4,10.1 0,1.6 4.7,1.4 9.2,-0.6 4.3,-2 28.6,-25.6 28.6,-27.7 1.7,-2 1.5,-4.2 -0.1,-4.1 l 0,0 z m -311.9,48.7 c 8.1,-0.2 3.4,2.3 -14,14.8 -16.9,12.2 -44.6,50.3 -47.6,64.3 -1.4,6.4 2.7,6.8 7,-2 20.1,-40.4 58.9,-77.7 95,-76.7 17.7,0.5 27.3,5.1 12.7,7.4 -40,5.6 -69.6,29 -95,75.1 0,1 2.4,0.9 5.1,-0.9 23.5,-29.8 49.9,-69.1 97.4,-66.8 34.3,1.5 44.8,42 16.6,56.5 -24.6,12.6 -48,-16.6 -27.7,-34.5 6.6,-5.8 10.8,-3.4 4.5,2.5 -13.5,12.7 3.7,34.7 20.3,25.9 10.1,-4.5 14,-19.1 4.8,-30 -20.4,-24.2 -63.2,-4.8 -92.5,35.4 -3.1,4.2 -5.6,13.3 -3,12.3 4.6,-2 7.4,-5.7 10,-9.9 10.5,-15 18.6,-22.7 32.9,-30.9 11.1,-6.4 11.8,-5.2 7.8,5.6 -1.7,4.5 -3.1,6.1 -7.4,8.9 -18.1,12.8 -29.1,29.7 -29.4,40.4 -0.2,7.8 5.7,17.8 -0.5,20 -10.4,5.1 -39,1.6 -46.9,-8.1 -5.7,-7 -7.7,-2.8 -3.4,8.6 2.9,7.6 2.8,11.9 7,11 5.2,-2.9 8.8,-2.3 19.1,3.1 5,2.6 13.7,4.9 19,6.1 9.7,2.1 11.7,1.1 11.6,5.3 0,1.3 0.5,4.9 0.2,7.2 -1.3,12.6 9.2,16.7 23.7,24.7 8.5,4.7 5.2,9.7 -4,33.9 -4.8,10.9 -8.9,25.6 -14.9,36.7 -5.6,12.5 -5.8,26 -1.8,41.4 7.5,28.5 12.7,43 0.4,45.8 -31.8,5.4 -102.3,6.4 -141,-7.7 -11.1,-73.6 -65.2,-182.2 -59,-210.7 13.7,19.9 69.5,13.6 51.7,-42.4 0,0 4.5,-6.9 13.4,-16.3 23.1,-24.2 28.8,-28.3 18,-7.1 -8.3,16.3 -18.8,37.5 -19,41.6 -0.1,3.3 2.4,4 4.3,1.3 1.4,-2 3.1,-6.7 4.5,-10.2 13.4,-33 36.8,-63 53.2,-70.4 4.2,-1.9 4,0 1.2,3.7 -19,24.5 -33.4,47.1 -43.4,76.4 -0.4,3 3.9,4.2 5.2,1.3 17.5,-38.5 22.8,-47.2 44.7,-74.5 8.6,-10.7 16.7,-16.2 23.2,-15.7 5.7,0.4 4,1.4 -1.1,7 -3.9,4.3 -9.7,10.3 -19,22.5 -16.5,21.5 -32.8,56.2 -26.6,54.3 1.1,2.9 6.3,-6.4 10.6,-15.2 11.9,-20.9 24.5,-48.4 53.4,-66.8 6.1,-2.4 12.8,-4 18.7,-4.2 l 0,0 z m -564.9,16.7 52.9,51.1 104.6,-3.2 c -16.8,27.1 -6.8,68.5 3.1,92.6 19.5,47.3 48.2,125.4 46.2,126.6 0,0 -15.1,4.2 -16.4,13.9 -1.8,14.3 4.4,13.2 -4.3,26.2 -2,2.9 -0.6,8.4 1.7,12.7 1.5,3.2 2.9,8 0.3,11.7 l -89.4,166.3 -175.1,3.9 -0.6,-32.9 86.1,-90.3 -2.2,-65.3 c 48.1,13.4 65.4,62.4 70.1,98.9 85,-80.4 80.8,-199.1 -2.2,-272.1 -14.5,79 -71.2,96.4 -70,94.8 l -4.8,-234.9 z m 650.9,-2.2 c 5.6,0.3 13.2,1.1 18.4,3.7 -3.4,2.1 -5.9,4.7 -8.1,7.2 -3,-4.8 -6.8,-7.5 -10.3,-10.9 l 0,0 z m 145.1,-2 c 4.7,-0.1 10.6,13.4 7.4,16.7 -1.8,1.8 -7.8,2.6 -10,1.3 -2.8,-2 -1.7,-17.9 2.6,-18 z M 2936,553 c 6,-0.1 11,4.7 11.1,10.7 0.1,6 -4.7,11 -10.7,11.1 -6,0.1 -11,-4.7 -11.1,-10.7 -0.1,-6 4.7,-11 10.7,-11.1 z m -459.9,23.6 7.8,0 c -13.9,19.3 -15.6,35.8 -10.1,59.4 6.2,26.7 51.3,126.4 54.6,154.1 0.1,1.2 0.3,4.8 0.3,4.8 l -10.6,0.9 c 0,0 -0.8,-2.8 -1.2,-3.9 -15.8,-49.9 -31.3,-87.9 -42.2,-116.9 -10.8,-31.3 -27.5,-77.8 1.4,-98.4 z m 57.3,-0.8 c 0.1,0 0.1,0 0.2,0 l 7.5,-0.1 c -0.3,0.2 -10.8,23.9 -11.4,38.1 -0.6,16.2 3.6,33.7 9.3,51 13.3,37.4 32.6,78.9 43.7,126.2 0.1,0.6 1.3,5.1 1.3,5.1 l -11.2,-1.3 c 0,0 -1.2,-4.8 -1.3,-5.5 -8.4,-41.6 -30.7,-84.6 -44.2,-125.4 -6.9,-18.6 -11.9,-41.4 -9.8,-59 1.5,-12.4 13.6,-28.8 15.9,-29.1 l 0,0 z m 91.1,-1.5 c -7.8,12.5 -14.7,28.1 -15,40.2 -0.1,22.6 6.9,41.5 13.8,61.4 21.3,61.1 31.7,93.3 42.7,142.4 l -10.8,-4.4 c 0,0 -0.5,-2.8 -0.7,-3.6 -6.3,-30.7 -6.6,-28 -42.2,-131.2 -8.3,-24.8 -16.3,-46.5 -15.2,-67.2 0.1,-11.8 10,-35.4 20.8,-37.4 l 6.6,-0.2 z m 12.9,-0.2 10,-0.2 c 0,0 -5.4,5.9 -7,8.2 -17.1,24.6 -11.6,50.6 -2.3,81.5 12.7,42.6 35.7,90 48.4,155 0.2,1.2 0.1,7.5 0.1,7.5 l -12,-4.6 c -11.9,-59.6 -39.7,-121.1 -53.6,-174.6 -8.1,-31.4 -6.3,-51.4 10.9,-68.9 4.4,-3.6 5.5,-3.9 5.5,-3.9 z m -122.4,2.5 7.5,-0.1 c 0,0 -12.2,20.8 -12,32.9 -1.7,21.7 6.6,45.6 16,70.5 14.5,38.4 33.7,84.7 39.7,109.2 0.2,1 1.1,5.4 1.1,5.4 l -13.1,-0.5 c 0,0 -0.8,-5.9 -1.6,-8.7 -16,-52.6 -31.4,-86.5 -49.6,-134.5 -2.8,-7.3 -7.5,-36.1 -2.8,-54.9 3.7,-14.6 14.8,-19.3 14.8,-19.3 l 0,0 z m -20.1,0.3 8.1,0.1 c 0,0 -1.2,2.2 -4.2,7.6 -14.3,27 -7.2,51.3 2.4,78.3 12.8,36.1 32.8,80 45.5,121.7 0.7,2.4 1.8,9.5 1.8,9.5 l -11.7,0.1 c 0,0 -2.5,-8.5 -2.7,-9.4 -7.3,-38.7 -43.9,-102.9 -54,-152 -5.6,-26.4 -1.5,-42.9 14.8,-55.9 z m 108.4,-1.9 c 0,0 -12.4,22.4 -13.3,34.7 -1.9,24.2 6.2,44.1 15.4,71.2 16,46.8 38.3,101.6 40.7,126.8 0.1,0.8 0.4,3.9 0.4,3.9 l -13.2,-4.5 c 0,0 -0.6,-2.6 -0.9,-3.5 -12.3,-45.5 -26.6,-90.7 -45.8,-141.6 -4.8,-17.2 -11,-34.5 -10.7,-49.4 2.3,-19.9 5.6,-25.3 17.2,-37.3 l 10.2,-0.3 z m 57.9,-1 10.6,0 c 0,0 -3.1,1.8 -10.5,9.9 -41.1,38.9 28.6,145.5 46,243.4 0.2,1 0.7,4.7 0.7,4.7 l -11.7,-4 c -1.2,-4.9 -2.1,-10.8 -3.6,-16.1 -13.6,-50 -31.4,-101.2 -47.7,-147.8 -9.3,-33.9 -13,-63.9 2.3,-81 4.7,-5.7 13.9,-9.1 13.9,-9.1 l 0,0 z m -109,2 11.3,0.1 c -8,10.4 -12.5,26.4 -12.7,40.5 -0.1,16.8 4.6,33 10.4,50.1 11.9,35.1 28.8,73.3 40.7,120.8 0.7,3.1 1.2,5.2 1.6,6.5 0.5,2.2 1.8,5.6 1.8,5.6 l -11.9,-2.2 c 0,0 -1.3,-3.1 -2.1,-4.7 -1.2,-2.4 -2.4,-5.5 -3.4,-9.2 -6.2,-24.8 -28.4,-80.9 -42,-120.2 -10.8,-24.6 -14.3,-68.2 6.3,-87.3 l 0,0 z m 140.9,-2 c 14.4,-0.8 27.7,11.2 31,22.7 3.2,12.2 -0.4,26 -13.7,33.1 -21.6,11.4 -45.6,-17.5 -28.7,-34 12.8,-12.5 32.3,-3.8 28.3,12 -2.5,10.3 -18,11.2 -20.7,0.9 -0.8,-3.4 -2.5,-6.8 -3.7,-4.9 -7.7,19 19.4,27.3 30.3,9.6 6.4,-14.2 -6.6,-32 -25.1,-28.2 -25.4,5.2 -27.8,37.6 -16.5,75.1 15.8,59.4 52.5,139 53,175.8 0,0.5 0.2,2 0.2,2 l -11.2,-3.1 c 0,0 -0.1,-0.6 -0.2,-1.2 -7.6,-51.3 -47.3,-135.8 -59.4,-201 -5.3,-29.8 6,-51.6 32,-58 1.4,-0.5 2.9,-0.7 4.4,-0.8 l 0,0 z m -110.6,2.4 c -7.7,10.6 -12.5,26.5 -12.6,37.7 0.1,16.5 6.3,32.4 11.4,49.5 13.1,42.2 43.4,119.9 42.6,134.6 0.3,1.6 1.2,6.4 1.2,6.4 l -11.2,-3.1 c 0,0 -0.5,-0.7 -1.3,-2.7 -4,-14.5 -22.8,-76.5 -43.5,-130 -8,-21.5 -12,-38.3 -11.7,-52.7 1.3,-19.8 6.8,-28.2 15.3,-39.4 l 9.8,-0.3 z m 213.6,66.5 c -28.9,2.2 -25.5,37.4 -7.5,43 6.4,1.7 10.2,0.1 11.2,-1.4 1.1,-1.6 -0.2,-4 -4.4,-4.5 -12.2,-3.8 -16.8,-18 -6,-24.2 5.9,-3.2 15.5,-1.4 27.2,7 20.9,14.9 46.2,15.4 42.6,0 -0.9,-3.7 -2.5,-4.2 -17.6,-6 -12.3,-1.5 -17.9,-5.2 -23.3,-8 -8.4,-4.5 -15.9,-6.2 -22.2,-5.9 l 0,0 z M 2382.7,683 c 76,71.6 66.9,186.2 4.1,244.5 -1.4,-4.6 -4.4,-15.9 -4.7,-15.5 47.1,-50.8 68.3,-133 -2.7,-215.7 0.5,0.3 1.5,-6.1 3.3,-13.3 z m 468.2,-6.4 c -0.7,0 -1.3,0.1 -1.9,0.3 -19.3,5.6 -22.9,24.8 -10.2,32.5 7.8,4.7 13.6,1.6 4,-4 -8.3,-4.9 -4.5,-18.1 5.5,-18.1 4.3,0 7.3,1.8 18.5,9.8 9.2,6.5 17.8,6.9 19.6,-2.2 1.1,-5.4 -0.8,-7.8 -6.5,-6.3 -2.5,0.7 -4.1,-0.8 -7.6,-3.1 -7.9,-5.3 -16.4,-9.1 -21.4,-8.9 z m -475.6,22.8 c 68.7,77 48.5,158.8 4,207.4 -13.1,-36.6 -44.1,-59 -44.1,-59 11.1,-25.8 17.5,-52.6 -4.7,-85.9 19.8,-18.5 36,-38.6 44.8,-62.5 l 0,0 z m 438,20.8 c -3.2,0 -2.1,3 5.5,8.1 18,11.8 19.5,13.9 2.3,13.9 -4.4,-0.2 -11.1,3 -15,4.4 -22.3,7.9 -23.4,7.3 -34.2,5 -3.6,-0.8 -7.3,-2.2 -8.8,-0.8 -2.4,2.3 -5.1,3.8 -2,7 2.3,2.4 6.4,4.1 11.5,6.9 26.3,14.5 28.8,18 59.4,18.3 3.5,0 5.3,-1.8 7.3,-1.9 5,-0.1 7.6,1 12.8,5.6 9.4,8.3 9.7,2.1 4,-8.9 -3,-5.8 -5.5,-7.1 -4.2,-11.6 3.1,-10.1 -1.6,-12.1 -7.5,-3 -4.4,7.1 -4.9,6.9 -9.3,-2 -5.9,-11.1 -3.3,-16.4 5.4,-9.2 6.6,5.4 8.2,1.3 10.7,-3.2 3.2,-5.8 2.6,-11 -3.3,-10.4 -3.4,0.3 -6.6,-1.2 -9.4,-4.1 -5.3,-5.6 -15.5,-12.6 -25.2,-14.1 l 0,0 z m 7.9,30.2 c 0.7,0 1.2,0.3 1.5,1 0.1,3.7 -2.3,11.3 -4.3,15.3 -0.6,1.8 -1.8,2 -3.4,2.4 -5.4,1.1 -5.8,-0.6 -4.9,-3.9 1.9,-5.2 3.4,-12.5 10.3,-14.7 0.3,-0.1 0.6,-0.1 0.8,-0.1 l 0,0 z m -13.6,2.8 c 2.2,-0.2 2.3,0.7 1.4,2.7 -1.5,3.4 -4.2,6.6 -6.2,9.2 -4.3,2.9 -11.4,-5.5 -8.4,-7.8 4.3,-1.8 7.5,-3.6 12,-4 0.5,0 0.9,-0.1 1.2,-0.1 l 0,0 z m -482.3,14.1 c 1.2,0 2.3,0.2 3.6,0.7 16.7,21.7 16.2,55.2 3.8,73.9 -0.9,1.4 -1.9,1.7 -3.5,1.2 -5.5,-3.1 -12.4,-4.2 -17.6,-6 l -1.1,-64.4 c 5.3,-1.2 9.8,-5.3 14.8,-5.4 z m 429.5,-2.4 c -1.2,0.1 -1.7,0.9 -0.1,2.5 24.1,16.8 57.1,36.1 87.1,27.9 2.8,-0.6 5,-2.2 4.4,-5 -0.4,-1.8 -3.5,-3.3 -6.8,-2.3 -6.9,1.9 -20.1,2.4 -25.6,1.6 -20.8,-3 -39.4,-16 -55.4,-23.5 -1.2,-0.8 -2.6,-1.2 -3.6,-1.2 z m -6.6,16.6 c -1.1,0 -1,1 -0.3,3 3.5,9.9 37.6,32.5 64.2,39.7 22.9,6.2 55.6,-0.9 53.5,-11.7 -1.1,-5.6 -5.3,-6.9 -19.8,-4.8 -31.9,6.8 -63,-5.8 -86.6,-19.9 -6.4,-3.8 -9.7,-6.3 -11,-6.3 l 0,0 z m -209.6,17.3 c 14,-0.4 27.9,0.5 42.9,2.7 29.3,4.5 63.3,12.9 92.1,25.7 49,17.4 110.4,30.4 162.2,27.6 12.7,0.1 35.5,-1.4 40,-2.9 11.5,-2.8 14.8,-0.4 17.8,13.9 0.5,3.1 1.5,4 5.6,6.7 6.2,4.1 5.3,8.2 4.7,17.4 -0.5,7.7 4.3,12 23.6,46.2 22,39 43.6,84.3 43.6,84.3 -186.9,3.2 -365.3,-0.6 -556.5,8.7 16.5,-41.1 62.1,-115.4 90.4,-175 -7.4,-18 1.3,-21.3 -2.5,-25.5 -6.1,-10 -2.1,-24.2 10.4,-27.6 8.9,-1.2 17.3,-2 25.7,-2.2 z"
               id="path3995" /><path
               style="fill:#e2cf00"
               d="m 2416.9,1030.3 c 0,0 59.1,-124.9 84.2,-162.4 36.3,-47.7 205.1,16.8 288.7,32.2 34,5.9 112.5,1.5 112.5,1.5 l 67.7,117.1 -553.1,11.6 z m -129.7,-138.4 -9.4,-385.4 19.4,11.6 11.2,387.1 -81.5,80.8 -0.9,-23.2 61.2,-70.9 z m 49.4,-44.9 c 19,-40.1 -3.9,-88.2 -3.9,-88.2 11.5,2.6 42.3,-58.5 45.2,-56.8 49.9,59 59.9,148.1 1.2,204.5 -15.6,-38.2 -42.3,-59.5 -42.5,-59.5 z m 31.6,-273.3 c 36.4,-38.6 65.3,-68.6 94,-111.6 2.3,-3.5 -160.2,-202.6 -157.8,-206.2 24,-27.5 56.6,-48 81.6,-81.2 0,0 133.4,168.3 136.3,166.8 12.3,-53.6 21.1,-102.2 17.6,-157.9 -10.6,-142.7 -73.1,-229 -73.6,-227.3 -18.3,131.6 -217.6,333.9 -257.8,320.5 l -1.8,-91.7 c 2.5,4.5 127.1,-83.4 158.3,-197.2 2.2,-8.2 99.5,-41.2 98.8,-42.4 -4.3,-10.6 -48.2,-70.3 -48.2,-70.3 0,0 17.1,-8.4 19.1,-8.4 56.7,68 100.2,158.1 115.9,244.4 18.9,92.9 33.2,267.9 -150.3,462.6 l -32.1,-0.1 z m 556.1,-251 c -30.8,-90.3 -31.7,-184.2 -19.4,-250.1 18.4,-119.3 92.1,-205.7 151.2,-271.7 l 26.1,-0.4 c 0,0 -30.7,32.9 -41.9,44.9 -19.1,22.7 -46.6,69.9 -46.6,69.9 l 159.6,201.1 88.6,-20.8 c 0,0 -1.1,91.2 1.7,91.2 -68.1,58.4 -116.8,111 -151,195 -21.7,8.5 -93.6,41 -93.6,41 -34.6,-7.8 98.5,-224.8 72.4,-228 -10.9,-8.7 -132.4,-166.7 -134.8,-166.4 -51.8,168.5 4.7,343.6 103.2,464.8 -10.8,7.3 -20.6,13 -19.7,11.3 -42.2,-56.5 -79.6,-124.2 -95.8,-181.8 l 0,0 z m -286.4,-79 c 6.3,9.4 30.3,-205.1 -45.6,-375.2 6.8,-5.4 66.8,-18 66.8,-18 l 17.1,51 -40.7,18.1 8,23.9 c 31.6,-16 100.2,-40.1 141.4,-111.3 0,0 206.2,-5.4 210.6,-5.1 4.3,0.3 -41.3,45.5 -83.6,136.2 -19.4,41.4 -34.4,94.8 -36.6,157.2 -0.4,12.3 -48.2,-57.1 -48.2,-57.1 10.6,-59.5 40.5,-118.5 70.4,-177.5 0,0 -47.5,-1.9 -80.6,-0.3 -50.5,57.2 -82.3,87.5 -159.5,115.7 29.9,90.3 204,130.8 165.3,123.2 -7.9,-1.7 -16.4,83.7 -6.3,179.7 3,76.8 46.6,204.2 48,203.1 0,0 -27.4,6.7 -29.7,2.3 4.6,-1.2 -40.8,11.2 -40.8,11.2 l -17.2,-47.5 43.8,-21.1 -7.6,-26.8 c -0.2,0 -97,31.2 -143.1,116.9 l -213.1,4 c 80.6,-90.6 112.6,-179.5 128.4,-296.4 17.2,3 52.8,-6.2 52.8,-6.2 l 0,0 z m 510.6,-779.3 c 26.4,-22.9 79.2,-82.2 79.2,-82.2 l 1.2,29.9 -59.9,64.6 7.5,392 -21,-19.4 -7,-384.9 z m -25.7,144 c -10.9,5.4 -32.4,31.6 -42.3,60.7 -71.8,-61.9 -44.8,-178.6 -6.5,-203.4 11.7,25.2 44.8,58.2 44,57.5 -6.9,26.7 -12.2,53.7 4.8,85.2 z m -630.8,-252.1 545.5,-8.7 c -30,61.8 -57.7,111.8 -89.7,172.7 -16.8,21.1 -390.9,-60.2 -392.5,-51.4 L 2492,-643.7 Z"
               id="path3997" /><path
               style="fill:#d40000"
               d="m 3292.1,1121.3 -0.3,-18 17.9,-0.3 41.6,-65.7 -46.1,-101.7 -17.3,0.3 -0.4,-20.1 64.3,-1.1 0.4,20.1 -22.7,0.4 35.2,79.3 21.9,-32.4 -1.4,-47.9 -15.8,0.3 -0.4,-20.1 58.7,-1 0.4,20.1 -21,0.4 4,167.4 17.8,-0.3 0.3,18 -55.7,1 -0.3,-18 15.3,-0.3 -2.9,-78.7 -49.8,79.6 18.1,-0.3 0.3,18 -62.1,1 z m -206.2,-113.2 c -37,-69 -84,-131.3 -137.6,-184.9 51.4,-58.2 94.1,-118.2 130.3,-183.6 39.6,63.8 83,123.9 143,181.7 -57.5,58.7 -100.4,122.3 -135.7,186.8 z m -860.7,-52.5 -12.7,-514.6 63.1,59.1 10.7,395.2 -61.1,60.3 z m 1071.6,-162 c 22.2,-24.3 42.2,-51.2 58.6,-80.2 21.9,31.2 45,63 64,78.8 -20.8,24.5 -40.3,52.8 -59.1,82 -17.4,-26.6 -36.1,-53.3 -63.5,-80.6 z M 2508,850.9 c -12.8,2.2 -5.7,-9.8 -3.6,-21.2 1.2,-6.3 -5,-12.1 -5,-14 0,-11.2 8.3,-16 46.2,-16.3 89.5,4.6 136.3,32.4 187.8,44.8 49.3,11.9 98,10.8 152.2,8.6 4,2.2 19.2,39.4 16.6,43.2 -122.3,26.3 -280.3,-60.9 -394.2,-45.1 l 0,0 z m 216.3,-270.4 c -13.1,-9.1 -25.2,-10.7 -37.3,-12.5 20.4,-37.4 45.2,-71.5 87.4,-93.4 l 20.7,48.6 c -24.8,13.4 -49.1,29.1 -70.8,57.3 z M 2463.7,457.9 c 0,0 -17.8,30.3 -34.9,45.2 C 2376.1,435 2258.4,290 2258.4,290 l -48.4,25.6 c 0,0 -0.7,-28.5 0.4,-30.5 130.8,-70.3 219,-200.5 256.8,-321.5 0,0 21.6,21.3 19,30.5 -34,95.6 -93.3,191.8 -181.8,264.8 l 159.3,199 z m 162.1,-143 166.6,-2.7 8.4,57.8 c -63.4,22.5 -115.3,67.1 -163.6,118.5 l -79,0 c 24.9,-57.2 59.8,-115.4 67.6,-173.6 l 0,0 z M 3238.3,60.1 c 5.7,16.2 0.6,33.9 2.6,33.2 -197.8,102.2 -251,319.8 -251,319.8 0,0 -19.5,-29.7 -18.7,-34.3 99.2,-231.4 168.2,-239.4 181.1,-264.6 l -160.7,-200.6 34.7,-49 172.4,216.3 c 16.6,-8 26,-14.6 39.6,-20.8 l 0,0 z m -93.1,298.7 c 32.8,-61.5 67.1,-97.4 101.4,-122.4 l -0.3,80.3 -101.1,42.1 z M 2208,136.4 l -0.5,-77.9 102,-46 c -27.3,62.4 -65.3,96.2 -101.5,123.9 z m 456.7,-78.1 -7,-54.7 c 61.9,-28.3 116.4,-65.7 160,-116.3 47.8,-3.1 80.5,-0.5 80.2,-1.1 0.1,-0.1 -44.3,67.5 -72.6,173.3 l -160.6,-1.2 z m 506.8,-584.9 55.8,-58.4 10.8,512.1 -58,-53.3 -8.6,-400.4 z m -491.8,425.9 -18.9,-50.5 c 28.2,-11.1 49.2,-34.6 68.8,-57.9 13.8,11.9 31.3,15.9 37.4,18.1 8.4,1.8 -56,81.9 -87.3,90.3 l 0,0 z m -445.5,-342.9 c 59.8,-60.4 98.2,-123.7 135.3,-186.7 34.7,67.9 84.3,127 137.3,184 -52.6,59.2 -92.2,122.3 -130.2,185.8 -39.6,-65.6 -81.1,-126.9 -142.4,-183.1 z m -138.4,104.7 c -18,-27.7 -36.2,-54.3 -62.1,-80.9 24.3,-27 44.9,-53.6 58.6,-79.7 20,28.1 39.1,57.4 63.4,79.6 -22.9,26.1 -41.2,53.7 -59.9,81 z m 470.7,-144.5 c 0,0 -7.2,-4 -6.5,-9.8 2.2,-7.5 -8,-24.3 -8,-24.3 120.3,-38.8 298.3,61.3 402.4,37.8 -0.7,7.3 0.6,16 -2.2,22.9 3.6,14.6 5.9,15 -8.2,24.2 -73.1,22.1 -151.3,-20.9 -223.4,-40.8 -58.9,-17.4 -106.4,-11.8 -154.1,-10 l 0,0 z m -540.9,-54.7 -0.4,-21.9 20.5,-0.4 -2.9,-164.4 -20.5,0.4 -0.3,-19 56.9,-1 0.3,19 -14.8,0.3 2.8,79 50.3,-80 -20.1,0.4 -0.1,-19 64.4,-1.1 0.3,19 -18.4,0.3 -40,65.8 42.9,98.7 18.4,-0.3 0.4,21.9 -64.4,1.1 -0.4,-20.5 24.2,-0.8 -35.6,-76.8 -22.5,32.2 0.8,45 16.8,-0.3 0.4,21.5 -59,0.9 z"
               id="path3993" /><path
               style="fill:#100f08"
               d="m 2485.6,-650.8 22.8,41.2 -3.8,2.7 c 6.2,9.9 11.5,21.1 17.8,30.9 l 4.4,-0.6 c 7.5,13.8 10.5,18.9 20.3,35.2 l -4.3,0.1 c 2.3,7.3 8.1,12 8.3,17.3 0.2,6.5 -1.4,13.2 2.7,17.6 4.9,5.2 5.4,6.6 4.5,9.7 -2.5,8.2 5.1,17.1 12.6,16.2 52.8,-8 106.7,-3 160.9,12.4 39,11.5 73.6,24.6 106.3,33.7 10.3,2.9 31.2,7.4 49,8.3 49.6,2.8 77.2,-7.8 68.5,-28.3 -0.7,-1.6 -2.2,-2.8 -2.3,-3.7 -0.3,-1.6 -0.1,-3.3 2.7,-5.6 8,-8.4 3.3,-14.4 -1.8,-23.5 0,0 61.6,-114.8 92.4,-171.9 l -561,8.3 z m 550.9,0.5 -45,81 c -24.9,-4.1 -30.4,16.9 -30.7,19.9 -32.4,-7.7 -26.7,34 -10.5,36.5 1.2,6 -26.3,14.1 -41,0.1 22.4,2.6 29.7,-27.1 2.4,-33.1 35.4,-27.3 -32.6,-66.1 -32.5,-10.9 -31.8,-5 -26.9,36.8 -6.8,39.7 -10.1,11.5 -40.3,12.4 -56.5,-11.2 27.1,13.5 41,-22.8 12.9,-32.4 33.9,-30.8 -34,-57.5 -31.6,-8.7 -25.7,-14.6 -42.5,24.1 -8.5,29.4 -1.8,6.9 -46.3,7.8 -57.9,-9.9 31.7,6.6 32.4,-31.8 4.5,-34.4 27.3,-35.9 -43.9,-52.6 -31.1,-4.5 -27.6,-10.3 -37.3,24 -10.5,34.5 1.6,5.4 -43,10.8 -59,-8.5 34.2,-5.8 21.6,-38.8 -0.6,-35.8 0,0 0.3,-1 1.5,-4.2 9.9,-33.6 -46.6,-35.4 -38.1,-0.1 1.3,3.2 2.8,7.6 2.8,7.6 -15.6,-2.9 -25,3.6 -23.6,18.2 4.2,19.3 14.4,17.7 27.5,13.6 5.6,5.6 -31.2,25.5 -54.8,8.8 28.4,-8.7 13.3,-41.9 -10.4,-36.9 -1.2,-10.7 -13,-25.4 -28,-17.8 l -16.6,-31.2 542.1,-9.7 z m 54.5,444.4 -33.5,1.1 c -23.1,24.4 -190.8,184.5 -157.9,421.1 14.1,101.2 43.9,188.5 121.5,290.8 l 20,-12.2 3.1,2 207.8,-124.4 -0.5,-36.7 -241.8,106.5 c -4.9,-5.1 -7.9,-10.7 -12,-17 l 96.9,-43.2 c 0,0 2.2,-6 2.9,-8.7 30.7,-81.8 94.8,-141.7 150.8,-188.1 -1.7,-79.9 -5,-247.3 -5,-247.3 l -149.4,-143.6 c -18.5,17.5 -34.9,35.5 -51.3,55 l 172.4,218.8 -14.8,10 -170.6,-217.7 c 19.4,-24.1 40.4,-45.2 61.4,-66.4 z m 152.3,141.6 c 0,0 -7.5,-380.8 -11.9,-564.7 l 0,0 -85.9,91.3 7.2,386 90.6,87.4 z m -16.8,-528.3 -60.7,64.8 7.6,392.4 -16.2,-15.4 -6.7,-381.8 75.8,-82.2 0.2,22.2 z m -601.5,1.1 c 1.9,3.2 1.2,7.8 -1.7,11.5 -12.4,15.9 27.8,42.4 56.3,37.2 21.7,-4 40,-17.4 31.8,-27.2 -6.7,-8 -2.5,-16.2 5.3,-16.3 8,-0.1 14.6,6.2 7.8,15.1 -15.2,19.8 8.9,42.2 45.1,42.1 25.6,-0.1 34,-6.6 32.3,-24.8 -0.8,-8.5 0.8,-10.9 6.8,-12.3 9.4,-2.2 14.4,8.5 6.7,17 -16.7,18.2 3.1,44.2 35.2,45.3 11.8,0.4 14.1,-0.3 27.1,-7.9 10.1,-6 13.6,-14.8 8.5,-21.5 -6.6,-8.6 1.9,-19.2 12,-15.1 7.2,2.9 10.9,8.4 3.1,17.9 -10.2,12.5 -5.1,22.5 15.1,29 15.8,5 26.6,4.2 33.8,-2.6 2.2,-2.1 7.3,-6.6 7.2,-5.2 -4.8,8.6 -9,16.6 -9,16.6 -32.6,15.2 -58.7,-11.7 -57.9,-12.8 -33.5,20.1 -63.5,16.5 -89.5,-15.8 -6.5,3.8 -53.6,13.2 -88.3,-23.6 -34.1,17.8 -66.1,11.2 -94.9,-7.6 -20.6,20.2 -42.7,23.7 -65.8,14.6 l -7,-13.6 c 1.7,-0.7 9.4,13.6 45.2,6.2 12,-2.5 32.5,-23.1 20.6,-32.8 -5.5,-7.4 -5.7,-10.8 -1.1,-15.5 4.6,-4.5 12.6,-2.3 15.3,2.1 l 0,0 z m -87.8,19.5 c 2.1,3.9 2.5,10.3 0.2,6.5 -1.2,-2 -7.5,-11.1 -7.2,-11.3 2.9,-0.3 5.7,2.6 7,4.8 z m 689.6,-9 9.3,506.3 -53.5,-51.3 -9.5,-396.6 53.7,-58.4 z m -609,35.3 16.8,10.1 -29.7,0.3 12.9,-10.4 z m 93.3,7 14.2,13.3 -29.4,-5.6 15.2,-7.7 z m 260.8,2.5 -6,12.9 c -3.7,-4 -4.9,-12.5 6,-12.9 z m 108.8,208.6 c 10.1,-23.9 23.7,-54.3 46.4,-64.3 -17.6,-33.5 -16,-67.4 -4.3,-86.1 -17.6,-15.8 -35.6,-34.7 -47.1,-62.2 -53.6,49 -60.6,148.2 5,212.6 z m -5.2,-203.5 3.9,9.2 c -47.6,60.3 -31.2,138.2 4.8,179.2 l -4.9,10.6 c -43.8,-44.6 -64.3,-140.2 -3.8,-199 z m -290,38.8 c 56.6,15.5 102.2,40.5 166.9,16.4 l 0.5,12.7 c -41,27.3 -124,0.7 -180.2,-18.9 -90.2,-31.5 -160,-28.4 -209.8,-23.7 -4.4,-0.8 -8.1,-12.2 -1.1,-12.4 93.3,-2.7 78.1,-14 223.7,25.9 z m 12.4,-22.6 18.8,19.3 c -14,-4.1 -27.6,-8.7 -40.2,-14.5 l 21.4,-4.8 z m 282.4,-0.2 3.7,4.9 c 1.6,2.1 -10.2,3.5 -8.2,0.9 l 4.5,-5.8 z m -317.2,41.6 c 67.7,24.1 142.2,47.9 190.3,24.5 0,0 0.5,9.6 -5,12.4 0,0 -5.1,4.2 -22.2,6.9 -78.5,7.8 -130.1,-23.8 -193.9,-41.9 -24.2,-6.9 -63,-15 -102.8,-16 -23.6,-0.7 -59.6,3.4 -59.6,3.4 -7.9,-0.5 -7.8,-5.2 -8,-9.7 68.3,-10.4 131.3,-4.7 201.2,20.4 z m 324.7,-30 c 0.9,-0.1 1.8,0 2.6,0.1 l 7,8.7 -7.9,13.1 c 0,0 -7.3,-6.5 -11.1,-12.9 -2,-4.2 3.3,-8.6 9.4,-9 z m -198.1,6 21.6,15.7 c -16,1.1 -34,2 -52,-4.8 l 30.4,-10.9 z m 180.5,5 c 1.7,-0.1 3.5,1.7 5.6,5.2 4.1,6.7 3.6,8 -4.1,10.6 -10,3.4 -10.8,2.7 -7.7,-6.4 2.1,-6.3 4.1,-9.3 6.2,-9.4 z m 32.4,3.6 14.6,11.8 c -7.6,20.8 -12.3,47.2 4.3,84.6 -1.8,0.1 -11.9,10.5 -15.2,12.3 -9.1,-3.7 -30.5,-78 -3.7,-108.7 z m -16.1,16.1 -3.3,22.9 c -0.3,1.9 -16.1,-10.5 -14.8,-16.9 2.8,-7.6 12.3,-6.2 18.1,-6 z m -25.7,8.5 c 1.9,0 4.9,4.5 8.7,10.4 2.9,4.6 2.4,6.4 -3.8,12.2 -9.1,9.5 -11,6.5 -9.2,-9.5 0.9,-7.9 2.2,-13.1 4.3,-13.1 z m 19.6,20.3 c 1.3,0 2.4,0.3 3.2,0.9 l 1.5,22.3 c 0.1,2 -17.4,-0.5 -19.8,-8.9 -3.2,-5.4 8.3,-14.3 15.1,-14.3 z m -22.8,19.3 c 1.2,-0.2 5.2,2.3 9,4.5 6.5,3.7 6.7,5.4 1.3,12.6 -6.4,8.5 -9.6,7.2 -10.9,-7.3 -0.5,-5.4 -1,-9.6 0.6,-9.8 z m 25.8,8 c 0.6,0 1.1,0.1 1.5,0.5 3.1,2.6 8.3,24.8 6.3,27.2 -2.8,3.4 -17.8,-0.8 -21.2,-6 -3.2,-4.9 8,-21.6 13.4,-21.7 z m -17.8,26.7 c 1.7,-0.1 4.8,1 9.5,3.1 2.8,1.3 7.6,3.8 8.6,5.9 1.9,3.8 -1,9.5 -4.9,14.3 -2.5,3.2 -5,0.9 -10.2,-9.4 -4.1,-8.4 -5.8,-13.7 -3,-13.9 z m 30.3,9.4 c 0.3,0 0.7,0.1 0.9,0.2 5.1,2.7 4.4,11.1 -1.5,17.4 -7.1,7.6 -13.5,2.1 -8.6,-7.4 3.1,-6.1 6.8,-10.1 9.2,-10.2 z m -415.6,215.2 c -4.4,0.3 -11.2,4.4 -14.1,8.3 -3.7,4.9 -7,4.4 -11.2,4.1 -5,0 -12.6,1.3 -22.8,6.1 -5.8,2.8 -8.4,3.4 -17,4 -5.6,0.4 -11.1,1.2 -12.4,1.9 -1.2,0.7 -5.2,2.1 -8.8,3.3 -7.4,2.3 -4.7,4.4 -0.3,13.9 22.8,55.5 39.5,120.2 46.1,173.1 7.5,60.7 6.8,134.4 -0.7,190.9 -20.8,0.5 -34,-0.3 -55.9,0.4 -12.8,122 -51.8,219.4 -131.4,307.8 l 219.6,-3.3 c 24,-67.5 137.9,-120.7 141.7,-117 l 6.5,24.4 c 0,0 -82.4,13.3 -136.1,119 5.6,-3.5 26.4,-1.5 40.3,12.4 26.7,-35.1 71.1,-58.5 71.4,-58 l 1.4,-4.2 c 0,0 8.2,-2.9 15.4,-4.4 2.3,-0.5 7,-1.5 10.2,-2.6 4.8,-1.8 7.2,-3.6 14.8,-3.1 15.7,1.2 31.3,-3.6 31,-3.7 -48.9,-127.7 -61.9,-243.5 -46.1,-378.7 17.2,-0.2 54.8,-0.2 54.8,-0.2 3.1,-37.9 7.2,-75.9 18.2,-111.9 14.1,-46.2 31.4,-89.2 59.7,-128.7 15.9,-24.8 29.9,-42.5 46.5,-65.8 l -214.9,4.3 c -27.6,48.3 -81.7,89.2 -125.4,106.6 -14.9,5.9 -17,5.1 -19.6,-1.9 -4.7,-12.5 -4.4,-12 7.2,-15.5 3.9,-1.2 16.3,-8 35.7,-17.5 41.1,-21.8 69,-60.9 85.3,-87.2 6.5,-10.4 2.1,-8 -9.4,-7.9 -10.5,-0.6 -15.3,-3.8 -24.8,-12.4 -3.5,-3.2 -5,-5.4 -6.6,-5.2 -12.2,17.9 -32.4,41.5 -48.3,48.7 l 0,0 z M 2730,-207 c 9.8,10.2 21.4,16 36.5,17.7 -23.4,38.3 -52.4,68.4 -85.9,86.9 l -18.1,-48.1 c 41.9,-20.3 52.8,-40.2 67.5,-56.5 z m 350.6,9.2 C 2857,16.3 2875.1,281 3038,493.4 l -16.5,10.3 C 2868.5,306 2836.2,10.1 3061,-198.4 l 19.6,0.6 z m -142.8,28.1 55.7,-1.1 -37.1,49.8 -50.9,0.7 32.3,-49.4 z m -8.8,0.6 -30.1,49.4 -83.6,2.6 c -48.9,62.5 -102.1,93.6 -156.5,115.1 l -11.6,-52.5 c 0,0 86.2,-22.4 140.7,-112.7 l 141.1,-1.9 z m -84.8,5.5 -19,21.8 20.5,20.1 18,-21.1 -19.5,-20.8 z m 43.8,-1.2 -19.3,20.7 15.7,20.3 20,-20.3 -16.4,-20.7 z m -96.7,5.4 -2.8,32.1 25.4,7.8 3.2,-27.5 -25.8,-12.4 z m 153.6,-1.5 -17.8,29 27.6,0 18.8,-28.9 -28.6,-0.1 z m -288.3,12.4 18.8,49.2 -15.6,7.8 -16.8,-51.5 13.6,-5.5 z m -21,8.3 19.3,50.9 -15.3,5.4 -17.9,-53.1 13.9,-3.2 z m 25.7,202.1 c 3.3,71.3 5.1,114.2 -5.7,177.1 -0.6,3.3 -13.4,0.6 -13.4,0.6 1.6,0.5 6,-71 4.7,-115.8 -2.4,-85.4 -18.3,-169.6 -53.3,-253.6 6.3,-4 22,-6.3 22,-6.3 22.2,63.8 42.2,132.5 45.7,198 l 0,0 z m -226.7,-193.8 c 75.1,96.1 129.9,227.2 123.4,357.7 -5.7,151.7 -61.6,240 -160.7,346.8 l -26,1.1 c 117.4,-116.6 168.5,-215.6 170.4,-345 2.2,-148.8 -45,-246.9 -123.4,-351 l 16.3,-9.6 z m -232.3,138 0.9,35.5 248.1,-111.6 -37,-52.5 -212,128.6 z m 583.8,-126.5 -27.2,1.9 1.4,27.4 28.4,-1.2 -2.6,-28.1 z m 242.5,-9.5 165.8,209.6 -39.6,30.5 -158,-196.9 31.8,-43.2 z m -126.7,16.7 48.5,-0.1 -18.2,31.4 -46.9,0.5 16.6,-31.8 z m -8.9,0.9 c -21.6,41.9 -51.5,89.7 -67.4,166.4 l -159.6,3 c -0.6,-17.4 -3.2,-34.8 -6.1,-52.2 68.3,-26.4 121,-65 159.3,-115.4 l 73.8,-1.8 z m 29.5,1.7 -20.6,12.4 13,14.4 22.8,-9.2 -15.2,-17.6 z m -189.7,18.6 -6.4,27.2 26,9.5 4.2,-32.2 -23.8,-4.5 z m 149.2,17.6 46.5,-0.5 -18.9,39.5 -46.1,0.1 18.5,-39.1 z m 110.7,-7 156.8,196 -14.2,11.6 -153.2,-191.6 10.6,-16 z m -93,9.9 -20.7,17.8 16.1,17.9 19.1,-15.8 c 0.4,-0.3 -14.5,-19.9 -14.5,-19.9 z m -203.4,5 -6,26.4 27,6.7 4.3,-28.3 -25.3,-4.8 z m -36.9,18.2 -5,26 25.5,6.4 4.9,-25.1 -25.4,-7.3 z m -209.3,1.1 c 1.3,-0.3 -3.7,30.9 -11.7,36.7 -3.8,2.7 -5.9,2.2 -9.3,-1.4 -2.4,-2.5 -13.2,-19.5 -13.2,-19.5 l 8.9,-4.7 c 11.2,17.3 11.1,8.8 14.9,-6.1 l 10.4,-5 z m -41.7,18.6 c 3.6,-0.1 8,4.3 13,12.8 7.3,12.3 7.1,13.1 -4.5,16.9 -20.8,5.9 -28.6,7.4 -22.4,-6.5 6.7,-15 9.3,-23.1 13.9,-23.2 z m 62.2,-3.6 14.7,24.2 c -54.8,147.1 -145.5,253.5 -271.7,319.1 l -0.7,-24.3 c 148.6,-88 208.4,-190 257.7,-319 l 0,0 z m 390.2,3.7 45.2,0 -11.5,34.7 -48,0.5 14.3,-35.2 z m -465.9,6.7 c -35.2,88.2 -84.1,165.5 -183.3,231.8 l -0.8,-23.3 c 111.5,-69.9 158,-198.1 158,-198.1 l 26.1,-10.4 z M 2965.6,-32 c 26.7,0.3 55.4,28.9 52.9,53 -1.7,17 1.8,29.5 6.2,22.5 9.9,-15.5 40.1,-5.8 40.2,12.6 0,9.8 -6.5,11.5 -10.4,2.7 -5.8,-13 -21.4,-13 -23.4,0.7 -1.9,12.9 9.1,22.1 38.4,32.1 34.2,7.4 55.2,37.5 43.4,55.3 -4.1,4.7 -6.6,5.9 -7.5,3.5 -0.2,-0.7 -1.1,-4.3 -2,-8 -4.2,-18.3 -13.1,-25.9 -23.7,-19.4 -5.3,3.3 -4.6,7.4 -1.3,12.9 4.3,7.3 1.7,10.2 -5.8,6.6 -11.9,-5.7 -16,-19.7 -4.7,-26.3 13.5,-5.7 8.9,-6.8 -8.6,-12.3 -37.2,-12 -53.4,-34.8 -56.2,-78.9 0.4,-20.1 -2.5,-27.2 -12,-29.8 -8.7,-2.4 -18.3,8.8 -12,14.5 3.4,3.1 6.2,5.9 4.5,7.7 -5.6,5.7 -20.2,-3.1 -20.2,-12.8 0,-6.3 2.4,-7.7 11.7,-15.3 2.6,-2.1 0.3,-6 -3.6,-6 -14.4,4.7 -13.7,-14.5 -5.9,-15.3 l 0,0 z m -83.6,6.6 -22.3,13.4 12,16.2 24.8,-12.2 -14.5,-17.4 z m -438.9,20.5 c 2.6,0 4.8,2 4.8,4.6 0,2.6 -2,4.8 -4.6,4.8 -2.6,0 -4.7,-2 -4.8,-4.6 -0.1,-2.6 2,-4.8 4.6,-4.8 l 0,0 z m 46.3,1.2 c 49.5,103.1 62.9,221.8 31.8,341.2 L 2389.6,172.4 C 2438,116 2470,51.8 2489.4,-3.7 l 0,0 z M 2315.5,7 l -113.9,50.3 0.9,86.1 c 63.3,-45 89.7,-90.3 113,-136.4 z m 110.3,-2.7 c 11.3,-0.6 6.3,30.1 -8.2,40.8 -5.3,4.2 -9,3.8 -10.9,-4.5 -1,-4.3 -5.7,-13.3 -11.5,-20.5 -6.8,-8.4 -6.7,-8.6 3,-9.4 10.7,0.1 19.3,-5.2 27.6,-6.4 z m -10.9,13.2 c -8.3,0 -10.8,4 -5.7,9.2 4.3,4.4 7.6,3.4 10.3,-3.2 1.6,-3.9 0,-6 -4.6,-6 l 0,0 z m -205.1,115.3 -1,-73.1 97.4,-43.1 c -18.9,43.1 -54.6,86.1 -96.4,116.2 z m 873.1,43.6 -12.8,13.4 -129.6,-163 7.6,-21 134.8,170.6 z M 2385.5,21.6 c 4.3,0 14.1,14.5 17,25.1 2.1,7.8 0,9.5 -14.8,12 -6.1,1.8 -22.8,0.5 -21.5,-4 2.3,-6.5 17.8,-33.1 19.3,-33.1 z m 459.1,-6.4 46.3,-0.3 -9.9,38.1 -48.4,0.1 12,-37.9 z m 20.5,1.9 -21.3,15.3 17.3,16.5 22.6,-14.5 -18.6,-17.3 z m 72.8,15.1 131.1,164.1 c -37.4,49.3 -74.6,105.9 -98.3,180.2 -47.5,-106 -66.1,-209.6 -32.8,-344.3 z m -520.4,23.3 c 2.6,0 4.8,2 4.8,4.6 0,2.6 -2,4.8 -4.6,4.8 -2.6,0 -4.7,-2 -4.8,-4.6 -0.1,-2.6 2,-4.7 4.6,-4.8 z m -14.7,6.6 c 8,0.4 0.9,26 -11,35.6 -9.4,7.5 -13.5,4.2 -15.9,-9.2 -0.9,-4.8 -6.1,-13 -10.7,-19.4 -5.1,-7.2 -3.1,-8.4 9.7,-5.7 8.9,1.6 19.8,-0.7 27.9,-1.3 l 0,0 z m 428.6,-1.3 48.5,-0.6 -6.4,57.7 -42.1,-57.1 z m -472.4,11 c 7.8,7 17.9,31.8 12.9,33.7 -5.7,2.2 -31.8,-0.4 -34.8,-3.3 -2,-2 -2.1,-2 2.1,-7.8 2.3,-3.2 6.6,-9.5 9.7,-14.1 2.8,-3.4 5.8,-12.4 10.1,-8.5 l 0,0 z m 27,0.4 c -7.4,0.4 -7.9,1.4 -4.2,9.3 3,6.4 5,7 9.8,2.6 6.8,-6.1 3.8,-12.4 -5.6,-11.9 z m 851.2,-10.1 2.3,28.4 c -184.7,95.7 -250.7,315.2 -251.7,315.2 l -14,-24.9 c 81.8,-212.2 194.4,-275.3 263.4,-318.7 z m -877.7,49.1 c 11.1,-0.4 14.3,-1.2 14.3,2.9 0.3,11.1 -9.7,26.9 -22.3,33.1 -8.4,4.1 -8.6,4.2 -9.8,-5.8 -0.9,-7.7 -3.6,-17.6 -7.7,-25.4 -1.3,-2.9 -6.2,-9.5 -0.2,-7.7 6.3,1.8 18.8,3.2 25.7,2.9 l 0,0 z m 24.9,-3 c 2.6,0 4.7,2 4.8,4.6 0,2.6 -2,4.7 -4.6,4.8 -2.6,0.1 -4.7,-2 -4.8,-4.6 -0.1,-2.6 2,-4.7 4.6,-4.8 z m -59.3,7.5 c 2,-0.1 4,4 6.4,10 5.2,13.1 6.9,20.3 5.4,23.4 -2.2,4.8 -32.8,2.3 -38.1,-3 -1,0.9 22,-27.6 26.3,-30.4 z m 22.1,2.9 c -4.4,0.4 -2,3 1.4,10.6 2.3,5.3 5.4,6.1 8.8,2.3 4.6,-5 5.1,-9 2.2,-11.1 -4.4,-1.6 -7.6,-1.8 -12.4,-1.8 z m 892.5,13 0.3,9.5 c -7.3,-2 -11.8,-5 -20.2,-7.6 -5.1,-1.6 -8.1,-2.8 -3.7,-8.2 6.9,-8.5 14.3,-13.9 22.8,-19.2 l 0.2,10.8 c -13.5,6.3 -12.1,11.8 0.6,14.7 z m -538.9,-0.1 51.5,-0.9 0.6,34 40.3,-0.7 -2.4,38.8 -37.2,0.7 0.6,34 -51.5,0.9 -0.6,-34 -36.8,0.6 2.3,-38.8 33.8,-0.6 -0.6,-34 z m 116.3,-2 c -23.8,129.7 2.5,266.4 44.7,377.4 l -20.3,2.6 c -32.9,-88.8 -60.1,-215.6 -37.6,-379.7 0,0 9.1,-0.3 13.2,-0.3 z m 382.2,-4.2 c 2.6,0 4.7,2 4.8,4.6 0,2.6 -2,4.7 -4.6,4.8 -2.6,0 -4.7,-2 -4.8,-4.6 0,-2.6 2,-4.8 4.6,-4.8 z m -905.6,26.8 c 1.7,-0.1 7,2.1 11.7,3.3 7,1.8 12.6,2.6 18.9,2.6 12.8,0 14.5,-0.1 9.2,10.5 -3.8,7.7 -12.6,17.8 -18.8,21 -8.8,4.9 -12.2,4.3 -11.8,-4.4 0,-5.9 -2.8,-16.1 -6.3,-23.4 -2.7,-5.7 -5.8,-9.5 -2.9,-9.6 z m 54.2,3.2 c 2.6,0 4.8,2 4.8,4.6 0,2.6 -2,4.8 -4.6,4.8 -2.6,0 -4.7,-2 -4.8,-4.6 -0.1,-2.6 2,-4.7 4.6,-4.8 z m 866.4,-15.9 c 3.6,-0.1 9.9,2 15.6,4.6 15.2,7 14.8,8.7 -5.3,23.6 -14.6,11.5 -18.1,12.8 -18.9,-4.9 -0.9,-14.9 0.6,-23 8.6,-23.3 z m -928.2,20.7 c 6,0 13.1,31 7.8,33.8 -8.3,4.5 -34.3,-3.5 -34.3,-10.6 0,-2.3 23.9,-23.2 26.5,-23.2 z m 910.2,-17.4 c 3.6,-0.2 4.1,2.6 3.9,12.5 -0.1,5.3 1,13.8 1.4,17.8 0.9,8.3 0.2,8.9 -6.4,5.3 -4.2,-2.3 -12.8,-6 -22.1,-6.7 -7.6,-0.5 -8.2,-3.6 -5.9,-8.6 6.6,-11.2 18.5,-19.2 29.1,-20.3 l 0,0 z m -888,20.4 c -5.2,0.1 -3.9,2.8 -0.5,10.5 2.4,5.5 6.4,5.9 10.4,1.2 5.6,-6.7 4.4,-10.2 -3.9,-11.3 -1.8,-0.2 -4.8,-0.4 -6,-0.4 l 0,0 z m 881.3,-8.2 c -2.2,0.2 -5.1,2 -6.5,3 -4.8,3.2 -6.8,5.4 0.4,7.7 6.4,2.1 9.7,2.9 9.1,-2.5 -0.3,-3.3 -0.2,-8.1 -3,-8.2 l 0,0 z m -483.2,12.6 0.6,33.9 41,-0.7 -0.6,-33.9 -41,0.7 z m 446.7,-5 c 2.6,0 4.7,2 4.8,4.6 0,2.6 -2,4.7 -4.6,4.8 -2.6,0 -4.7,-2 -4.8,-4.6 0,-2.6 2.1,-4.7 4.6,-4.8 z m -767.2,18.9 132.3,163.7 -8.2,21.8 -136.4,-172.9 12.3,-12.6 z m 855.2,-15.9 0.7,21.7 c -14.4,10.9 -106,79.8 -152,193.8 l -24.9,11.1 c 33.6,-98 107.8,-182.7 176.2,-226.6 z M 2257.5,192 c 8.5,2.4 16.6,8.1 24.6,9 9.2,1 12.3,0.3 9.9,5.1 -5.4,10.7 -15.6,21.9 -26.6,25.7 -7.8,2.7 -11.6,1.8 -10.4,-3.1 2.2,-9.2 2.4,-16.8 2,-25.1 1.1,-4.5 -2.9,-10.8 0.5,-11.6 l 0,0 z m -9.8,2.1 c 5.4,4.5 4.9,33.5 -1,39.9 -3.1,3.3 -12.2,0.5 -26,-7 -9,-4.9 -10.7,-7.9 -6.3,-11.1 7.4,-4.7 29.2,-22.8 33.3,-21.8 z m 923.9,-15.6 c 2.8,-0.1 6.3,0.3 10.4,1.2 16.2,3.3 19.8,7 6.3,18.1 -5,4.1 -10.3,9.2 -11.8,11.2 -7.2,9.2 -12.5,2.7 -14.4,-13.7 -1.4,-11.6 0.3,-18.2 9.5,-16.8 l 0,0 z m -20.2,1.9 c 2.6,0 4.3,1.3 4.3,4.5 0,4.2 3.3,22.1 5.1,27 3.1,8.4 1,10.3 -6.1,6.8 -5.1,-2.7 -18.6,-4.5 -25.9,-3.8 -8.3,0.8 -8.1,-1.4 -5.8,-8.4 4.2,-12.4 20.6,-26 28.4,-26.1 l 0,0 z M 2265.6,202 c -3.1,0 -3.2,4.3 -0.9,14 0.7,3.1 3.4,2.8 8.4,-0.8 5.9,-4.3 5.6,-6.9 -1.2,-10.8 -2.8,-1.6 -4.9,-2.4 -6.3,-2.4 z m 36.6,0.4 c 2.6,0 4.7,2 4.8,4.6 0.1,2.6 -2,4.7 -4.6,4.8 -2.6,0 -4.7,-2 -4.8,-4.6 0,-2.6 2,-4.7 4.6,-4.8 z m 834.4,3.5 c 2.3,2.2 10.6,1.9 12,0.6 2.2,-2.1 1,-11.5 -0.9,-12.5 -4.7,-1.6 -14,8.5 -11.1,11.9 z m -775.9,31.6 c 3.1,13.4 21.9,12.3 19.5,-1.7 -1.4,-8.1 -1.7,-8 2.4,-7.9 19.5,0.6 16.7,31.4 -5.8,29.4 -4.7,0.6 -5.3,2.6 -1.3,4.1 4,1.6 19.1,5.2 21.4,5.1 24.4,-0.5 60.3,36.4 60,69.7 -0.2,21.8 7.5,37.3 15.1,39 6,1.3 14.6,-4.3 13.8,-11 -1.2,-9.2 6.3,-6.4 10.8,0.1 6.7,9 -1.5,22.3 -17.2,21.6 -6.6,1.4 5,5.4 13.6,7.8 7.8,0.3 1.4,10 0,11.7 -4.3,5.2 -18.8,1.5 -30.2,-7.4 -14,-10.9 -20.3,-25.8 -22.4,-55.2 -1.4,-18.9 -2.9,-22.7 -8.2,-14.8 -9.6,17.6 -33.4,9.5 -36.7,-8.9 -1.8,-9.7 6.6,-16.9 9.5,-8.1 7.7,18.2 25.6,13.5 22.3,-4.7 -2.1,-12 -14.3,-18.4 -38.2,-24.7 -28.7,-7.5 -37.4,-17.2 -43.3,-40.5 -2.6,-10.3 -2.4,-15.8 3,-21.3 2.7,-2.7 6.1,-5.5 6.1,-5.5 0,0 4.1,16 5.8,23.2 l 0,0 z m 746.8,-28 c 2.6,0 4.7,2 4.8,4.6 0,2.6 -2,4.7 -4.6,4.8 -2.6,0 -4.7,-2 -4.8,-4.6 0,-2.6 2,-4.8 4.6,-4.8 l 0,0 z m -896.3,20.3 c 8.6,2.9 15.9,7.4 24.8,10.2 5.7,1.8 4.2,6.4 -1.5,13 -6.4,7.9 -12.8,11.8 -21.9,16.3 l -0.1,-13.1 c 11,-4.1 17.9,-13.4 -0.8,-16 l -0.5,-10.4 z m 918.7,-8.9 c 3.2,0 7.8,0 13.2,1 13.6,2.6 15.2,3.7 7.2,13.4 -3,3.6 -7.4,9 -9.8,12 -7.8,11.3 -12.2,7.6 -16.2,-6.8 -4.9,-15 -6.1,-20.7 5.6,-19.6 z m -876,20.8 c 2.6,0 4.7,2 4.8,4.6 0,2.6 -2,4.7 -4.6,4.8 -2.6,0 -4.7,-2 -4.8,-4.6 -0.1,-2.6 2,-4.8 4.6,-4.8 z m 862.6,-5 c 1.4,4.7 3.4,10.8 5,15 7.6,16.1 2.9,9.9 -10.3,8.7 -8.9,-0.8 -22.9,0.9 -26.5,-1.5 -1.6,-1.9 -0.2,-7.2 2.5,-13.1 3.9,-8.3 11,-15.5 16.4,-18.8 13.6,-6.6 10.5,1.6 12.9,9.7 z m -791.9,8.2 151.2,192.7 -11.3,16.7 -155.5,-198.1 15.6,-11.3 z m 925.7,-15.6 c -75.8,56.8 -104.1,124.7 -109.9,133.6 l 111.8,-45.4 -1.9,-88.2 z m -146.4,8.9 c -4.2,1.2 -10.1,9.1 -7.4,12.2 1.6,1.6 7.8,1.7 10.7,0.5 4.5,-1.7 1.2,-12.8 -3.3,-12.7 z m -643.7,222.7 -30.8,40.2 -167.7,-209.2 40.8,-30.6 157.7,199.6 z m 782.2,-220 2.4,72.9 -95.6,41.8 c 31.3,-55 62.3,-89.3 93.2,-114.7 z m -658.3,17.8 39.5,49.5 -47.1,-0.2 7.6,-49.3 z m 487.7,-4.5 c 2.6,0 4.7,2 4.8,4.6 0,2.6 -2,4.7 -4.6,4.8 -2.6,0.1 -4.7,-2 -4.8,-4.6 -0.1,-2.6 2,-4.8 4.6,-4.8 z m 28.5,11.4 c 17.6,-0.1 23.5,0.8 18.6,9.5 -6.7,8.6 -10.6,16.7 -17.9,24.6 -4.2,4.5 -9.8,-4.5 -14.5,-18.9 -3.8,-11.6 -2.1,-14.6 4.9,-14.8 6.7,-0.1 7.9,-0.4 8.9,-0.4 l 0,0 z m -20.1,16.2 c 1.5,4.6 5,12.1 7.8,16.7 2.8,4.6 5.9,9.7 5.7,10.6 -0.4,2.2 -2.5,2.4 -7.1,0.7 -10.1,-4.4 -33.7,0.9 -34.3,-1.4 -3.6,-4.9 1.4,-18.7 11.2,-28.3 4.8,-4.7 9.1,-7.8 11.7,-7.9 2.4,0 3,3.5 5,9.6 l 0,0 z m -824.1,10.9 170.6,213.7 -11.3,14.3 -172.6,-217.8 c 0,0 -26.4,13.5 -34.2,18 l 3,112 -4.6,-0.1 10.7,567.5 91.4,-94.5 -8,-385.1 c 20.1,18.2 37.3,37.8 60.3,55.6 l 38.7,-1 c 99.2,-104.6 153,-193.5 162.4,-351.3 6.3,-105.5 -31.1,-237.4 -126.2,-364.2 l -22.4,14.2 46,66.7 -94.2,43.7 c -36.4,80.4 -79.9,154.7 -161.1,198.3 l 1.4,103.2 -1.4,2.2 1.7,32.4 49.8,-27.8 z m 815.8,-7 c -4.4,0.4 -11.2,10.1 -8,13.3 3.8,1.7 9.5,1.5 11.9,-1.8 1.6,-3.1 1.1,-9.7 -3.9,-11.5 z m -497.3,31.1 49,-0.6 -12.1,42.3 -47.7,-0.1 10.8,-41.6 z m 465.4,-8.4 c 2.6,0 4.7,2 4.8,4.6 0.1,2.6 -2,4.7 -4.6,4.8 -2.6,0 -4.7,-2 -4.8,-4.6 0,-2.6 2,-4.8 4.6,-4.8 z m -249.5,5.7 7.3,54.5 c -53.1,20.4 -110.1,54.4 -159.4,115.8 -8.6,-0.4 -77.3,2 -77.3,2 1.7,0.2 61.6,-117.8 67.8,-168.6 l 161.6,-3.7 z m -194,8.5 -22.2,15.8 17.9,18.4 23,-16.2 -18.7,-18 z m 467.6,-8 c 4.8,-0.1 11.2,0.4 16.3,1.2 8.3,1.5 9.5,1.6 6.9,8.5 -3.6,9.1 -11.7,25.6 -13.8,27 -7.5,4.8 -25,-28.6 -19.3,-34.5 1.5,-1.3 4.7,-2.1 9.9,-2.2 l 0,0 z m -21.3,10.7 c 2.2,-0.2 5.1,3.9 6.1,7.6 1.1,4.4 9,15.4 13.9,20.6 6.2,6.6 5.9,7.5 -2.8,8.4 -10.3,1 -20.4,3.2 -26.2,5.4 -9,3.4 -10.2,2.7 -9.2,-7.8 1.4,-15.9 11.7,-33.5 18.2,-34.2 l 0,0 z m -7.4,33 c 1.2,3.1 15.1,-2.8 15.8,-6.5 -0.2,-1.7 -5.8,-11.1 -9.1,-11.5 -5.6,0.9 -7.7,13.7 -6.7,18 l 0,0 z m -472.7,6.2 46.3,-0.4 -14.5,38.4 -45.8,0.7 14,-38.7 z m 20.8,4.7 -21.9,14.4 17.6,16.4 21,-15 -16.7,-15.8 z m 471,-1.4 c 3.9,-0.1 8.1,0.2 9,1.6 2.5,4 -7.1,26.8 -7.1,26.8 l -16.2,6.8 c -3.6,-7.2 -9.8,-14.6 -11.4,-22.4 -0.6,-3.4 1.1,-4.7 4.8,-6.9 5.6,-3.1 14.3,-5.7 20.9,-5.9 l 0,0 z m -43.7,2.7 c 2.6,0 4.7,2 4.8,4.6 0.1,2.6 -2,4.7 -4.6,4.8 -2.6,0 -4.7,-2 -4.8,-4.6 -0.1,-2.7 2,-4.8 4.6,-4.8 z m -211.2,4.3 c 0,0 11,56.4 11.4,50.1 -76.7,30.4 -121.1,74.2 -141.8,116.4 l -144.9,2.5 31.5,-50.8 85.8,-1.9 c 40.6,-51 91,-92 158,-116.3 l 0,0 z m -18.3,13.7 -6.8,23 21.9,13.4 7.7,-24.7 -22.8,-11.7 z m 237.4,-3.8 c 1.8,-0.2 3.7,2.9 7.5,9.4 2.8,4.8 6.6,11.9 6.6,11.9 l -6.4,2.5 c -5.5,-17.8 -10.2,-11 -10.5,4.7 l -8.8,3.7 c 0,0 0.7,-15.2 5.6,-24.2 2.8,-5.1 4.4,-7.8 6,-8 l 0,0 z m -472,24 44.9,-0.2 -18.1,39.2 -45.7,-0.4 18.9,-38.6 z m 195.9,-0.3 -3.1,28.9 24.3,4.7 2.8,-27.5 -24,-6.1 z m -176.8,3.4 -21.9,14.7 14.9,18.9 21.1,-14.7 -14.1,-18.9 z m 142.5,22.8 -4.1,26.7 22.8,4.8 4.7,-26.8 -23.4,-4.7 z m -492.9,10.3 57.8,55.3 10.1,392.5 -55.5,57.6 -12.4,-505.4 z m 309.1,8.9 c -0.2,0.3 45.3,0.5 45.3,0.5 l -17.6,33.2 -15.6,-0.4 20.2,-14.3 -13.4,-16.5 -20.8,14.1 12,16.8 -30.7,-0.1 20.6,-33.3 z m 293,4.5 16.3,50.7 -18.5,3.5 -14.8,-47.7 c 5.7,-3 11.4,-4.5 17,-6.5 z m -145.5,5.8 0.9,30.6 24.8,1.7 0.5,-28.7 -26.2,-3.6 z m 123.1,2.7 15,48.1 -11.7,3.6 -17.7,-45.6 c 4.5,-2.9 9.3,-4.9 14.4,-6.1 l 0,0 z m -21.3,10.4 19,47.1 c -24.9,10.6 -50.4,32.8 -69.6,54.8 -14.7,-10.4 -23.2,-11.4 -32.2,-13.6 23.8,-46.4 52.4,-71 82.8,-88.3 l 0,0 z m -273.4,16.7 47.6,0.6 -32.2,50 -53.9,0.9 38.5,-51.5 z m 141.8,-0.7 -2.6,29 25.8,14.6 3.3,-29.8 -26.5,-13.8 z m -30.6,4.6 -17.8,19.5 19.6,21.6 17.2,-23.2 -19,-17.9 z m -40.5,1.7 -21.2,20.1 17.5,22 19.3,-22.8 -15.6,-19.3 z m -274,23.3 8.9,383.5 -77.7,78.1 -1,-20.6 61.7,-66.8 c -2.2,-129.7 -4.9,-259.5 -7.6,-389.2 l 15.7,15 z m 210.2,-16.1 -21.3,30.2 25.9,-0.4 18.3,-29.2 -22.9,-0.6 z m -131.4,188 c -8.1,31.1 -47.2,65.5 -47.9,64.9 20.2,27.8 20.2,68 3.2,88.1 0.1,-0.4 32.1,25.2 36.7,38.7 2.6,5.4 3.7,11.9 7,17.3 0.9,1.4 3.6,4.9 3.6,4.9 75.6,-79.6 37.3,-170.4 -2.6,-213.9 l 0,0 z m 1.3,8 c 76.4,91.4 28.6,177.2 2.9,201.3 l -5.1,-8.1 c 54.4,-65.5 29.5,-144.4 -3.6,-181.4 l 5.8,-11.8 z m -7.8,18.2 c 0.5,1.5 3.5,5.8 1.3,5.6 l -3.8,-0.7 2.5,-4.9 z m -0.3,10.4 c 1.6,0 3,0.5 3.7,1.6 1.6,2.5 -5.8,24 -10.6,19.1 -1.5,-2.8 -3.2,-5.2 -4.6,-8.1 -1.6,-3.5 -0.6,-5.1 2.9,-8.7 2.4,-2.5 5.9,-3.9 8.6,-3.9 l 0,0 z m 10.8,5.6 c 3.8,0.2 9.4,12 10,20.5 0.2,0.9 -12.8,-1.8 -16.3,-5.7 0.4,-3.5 3.5,-12.4 6.3,-14.8 l 0,0 z m -29.1,10.2 c 23.3,44.9 22.5,80.2 3.3,113.1 l -15.8,-13 c 10,-24.9 14.7,-51.4 -3.5,-84.6 l 16,-15.5 z m 15.4,11 c 1.6,-0.2 6.4,0.5 10.7,1.7 15.1,4.5 15.9,14.4 1.5,21.9 -6,3.1 -7.9,1.8 -11.6,-13.2 -1.8,-7.4 -3.2,-10.1 -0.6,-10.4 l 0,0 z m 29.4,16.9 c 2.9,-0.1 4.3,5.4 4.9,14.9 0.5,9 -1.4,9.7 -8.8,3.4 -7.9,-6.8 -9.3,-8.4 -2.3,-14.2 2.1,-1.8 4.9,-4.1 6.2,-4.1 z m -20.2,15.2 c 1.4,-0.1 5.6,2.4 9.8,5.5 10.4,7.7 8.2,13.1 -3.4,17.1 -8.1,2.8 -7.7,3.1 -7.7,-10.9 -0.1,-7 -0.6,-11.5 1.3,-11.7 z m 136.5,10.3 c -12.5,3.4 -17.6,14.7 -13.2,24.7 2,4.6 4.9,4.5 1.5,7.4 -3.7,4.4 -5.5,14.5 -1.3,18.1 4.9,2.7 6.1,-2.1 1.1,7.4 l -91.6,175.6 568.4,-11.1 -70.5,-126.6 c 0.2,-0.2 5.1,-21.2 -5.9,-23.5 -3.5,-0.7 -5.6,-4 -6.4,-7.1 0.7,-8.9 -3.4,-12.6 -6.9,-17.2 -53.9,8.6 -100.9,5.6 -139.8,-2.4 -56.1,-11.6 -96.4,-32.6 -122.5,-39 -35.9,-8.8 -79.2,-12.1 -112.9,-6.3 l 0,0 z m 30.7,0.7 c 44,-1 93.6,11.6 128.4,25.9 36.1,14.2 74.2,24.5 112.6,29.5 31.7,3.4 63.2,0.9 93.4,-2.1 3.3,-0.6 6.7,-0.2 9.2,2.4 6.4,6.9 2.2,11.3 -13.5,13 -25.1,2.5 -56.4,2.2 -84.2,-1.5 -44,-4.3 -90.7,-16.7 -131.1,-32.6 -50.5,-17.9 -96.6,-23.4 -132.9,-17.2 -19.9,3.4 -22.9,3.9 -22.9,-1.4 0,-10.5 8.6,-15.4 41,-16 l 0,0 z m -143.8,32.9 c -1.9,4.5 -15.8,-9.8 -15.7,-13.9 0.3,-1.8 11.2,-9.2 15.6,-12.3 2.1,-1.7 2,-0.8 2,1.1 0.1,5.5 -0.1,19.6 -1.9,25.1 l 0,0 z m -21.3,-10.3 c 6.3,0.7 17,17.6 7.9,20.4 -8.1,2.5 -15.4,4.1 -16.5,-1.3 3.9,-13.4 5.4,-18.7 7.8,-19.1 0.3,0 0.6,0 0.8,0 l 0,0 z m 368.6,51.8 c 40.5,6.3 93.5,9.5 128.1,6.2 19.8,-2.3 24,-1.8 24,6.5 0,5.2 0.6,5 -25,5.5 -21.3,1.8 -40.5,-0.2 -61.1,-0.9 -42.7,-1.4 -81.5,-8 -117.6,-19.8 -39.9,-9.6 -74.7,-28.8 -113.6,-32.2 -35.7,-2.9 -67.6,4 -74.3,7.9 -2.2,0 -3.5,-3.3 -3.4,-6.4 0.1,-3 1.2,-5.4 3.6,-7.4 101.8,-27.6 157.5,26.7 239.3,40.6 l 0,0 z m -354.8,-27.9 c 3.4,0 2.4,5 -3,15.8 -4.6,9.2 -6.4,9.1 -9.3,-0.1 -3,-9.9 -2.8,-11 2.9,-12.6 3.3,-0.8 6.1,-2.6 9.4,-3.1 l 0,0 z m -23.8,5.5 c 4,0 10,18 7.1,21.4 -2.2,2.7 -10.6,1.1 -13.1,-2.1 -3.9,-5 0.8,-19.3 6,-19.3 z m 178.7,1.7 c 15.8,-0.4 31.7,1 46.2,3.2 -8.3,3.2 -16.6,6.2 -25.2,11.4 -6,-5 -12.9,-9.9 -21,-14.6 z m 21,21.6 c 55.4,-32.2 79.9,10.5 88.1,17.3 48.8,-11.7 58.4,-6.5 86.3,22.5 48.6,-24.8 72.7,-4.9 93.4,7.7 23.6,-22.9 54,-24 70.1,-13 3.1,4.9 7.3,11.1 7.7,13 0.3,1.5 -2,-0.2 -7.6,-4.1 -29.2,-20.1 -76.5,6.4 -63.2,33.3 3.6,7.3 3.1,10.4 -2,13.4 -7.2,5.1 -16.3,-3 -11.4,-11.4 8.2,-14.1 1.6,-25.7 -19.2,-36.1 -29.4,-14.7 -76.7,3.2 -66.5,25.5 6.4,7.1 0.7,12.2 -7.6,12.1 -9.4,-0.1 -12.6,-6.3 -6.8,-13.1 7.3,-8.7 5.2,-17.3 -3.7,-27 -26.8,-36.8 -79.4,-21.1 -71.9,11.4 3.2,8.1 -5.5,11.5 -14.6,8 -5.8,-2.2 -5.1,-11.1 1.2,-14.4 7.3,-0.9 8.1,-11.4 7.1,-18.2 -1.4,-9.8 -16.1,-19.3 -30.6,-24.1 -10.5,-3.5 -20.1,-4.2 -27.7,-3.3 -16,1.8 -24.8,12.8 -21.9,29.1 1.7,9.6 -0.8,19.7 -12.2,14.6 -6.3,-2.8 -4.8,-9.8 1.4,-16.4 21.9,-22.1 -23.4,-47.8 -50.1,-29.1 -4.5,3.9 -7.9,4.6 -7.9,4.6 16.2,-42.7 70,-4.1 69.6,-2.3 l 0,0 z m 73.6,-7 34,12.1 c -7.8,1.7 -13.2,4 -18.7,6.3 l -15.3,-18.4 z m -88,15.3 c -31.3,-5.4 -32.4,29.5 -12,34.9 -27.3,38.9 46.2,52.6 31.9,5.4 37.2,6 29.8,-36.1 2.2,-35.2 6.2,-15.9 57.3,-4.8 55.4,6.9 -34.4,4.3 -20.1,35.4 -5.2,35.2 -35.4,34.7 37.2,64.9 34.4,13.5 29,5.6 31.8,-32.9 3.9,-34.9 9.9,-14.5 46.5,-6.1 56.8,10.1 -28.6,4.3 -26.4,29.5 -3.9,33.2 -27.8,36.7 42.5,48.9 34.4,6.9 25.3,8.2 38.4,-25.5 5.7,-34.5 33,-20.4 69.7,8.5 65.8,9.2 -38.1,-1.6 -29.8,36.4 -2.3,33.8 -16.8,39.9 52.6,40.8 34.3,0.1 31.2,0 27.8,-36.1 -2.1,-38 18.6,-14.1 39.8,-15.6 53.7,-3 -28.3,8 -15.9,40.8 12.5,31.2 3.1,27.6 25.5,21.4 26,20.5 l 20.8,37.2 -545.4,10.5 45,-86.7 c 27.5,0.9 26.1,-25.5 24.9,-26.2 18.5,12.7 37.6,-20.1 10.7,-28.9 21.6,-23.5 54.4,-2.9 52.5,-1.2 l 0,0 z m -177.6,0.7 c -1.1,1.2 -1.4,1.9 -3.3,0.2 -4.9,-5.4 8,-6.1 3.3,-0.2 z m 113,12.4 c 2.4,1.9 0.9,7.3 -1,9.2 -4.8,5.4 -6.5,5 -2.3,-4.2 1.2,-2.8 2.3,-5 3.3,-5 l 0,0 z m 239,-1.8 28.5,6.4 -13.3,7.8 c -5.1,-5.3 -10,-9.9 -15.2,-14.2 z m 88.8,9.9 30.9,1.4 c -4,2.8 -8,5.5 -12.9,10.6 -3.9,-4 -11.4,-8 -18,-12 z m 103.3,29.6 c 1.8,3.5 8.8,15.9 8.2,16.2 -9.9,1.9 -12.9,-12.9 -8.2,-16.2 z"
               id="path3991" /></g></g></g></g></g><g
     transform="translate(-259.96392,-369.77722)"
     id="printing-marks"><g
       id="CropMarks" /></g></svg>