<?xml version="1.0" encoding="UTF-8" standalone="no"?>
<svg
   xmlns:dc="http://purl.org/dc/elements/1.1/"
   xmlns:cc="http://creativecommons.org/ns#"
   xmlns:rdf="http://www.w3.org/1999/02/22-rdf-syntax-ns#"
   xmlns:svg="http://www.w3.org/2000/svg"
   xmlns="http://www.w3.org/2000/svg"
   height="312.79669"
   width="224.1967"
   xml:space="preserve"
   enable-background="new 74 -106.5 744.1 1052.4"
   viewBox="74 -106.5 224.19671 312.79668"
   y="0px"
   x="0px"
   id="svg4423"
   version="1.1"><defs
     id="defs16" /><g
     transform="translate(-259.94912,-369.84369)"
     id="layer1"><g
       transform="translate(-735.69963,-136.72448)"
       id="g3889"><g
         transform="translate(-1694.3529,22.06652)"
         id="g13731"><path
           style="fill:#ffffff;stroke:#000000;stroke-width:0.99669999"
           d="m 2775.1,378.5 202,0 c 5.9,0 10.6,4.8 10.6,10.6 l 0,290.6 c 0,5.9 -4.8,10.6 -10.6,10.6 l -202,0 c -5.9,0 -10.6,-4.8 -10.6,-10.6 l 0,-290.6 c 0,-5.9 4.7,-10.6 10.6,-10.6 z"
           id="rect6969" /></g><g
         transform="matrix(0.15183834,0,0,0.15183834,863.0338,565.95873)"
         id="g3002"><path
           style="fill:#e2cf00"
           d="m 1898.9,629.9 351.8,7.5 c 31.2,42.8 93.7,130 93.7,130 l -568.4,7.5 122.9,-145 z m -147.2,29.7 c 15.2,-30.5 18.1,-59.8 15.2,-102.2 -2.3,-32.5 18.2,-57.8 39.3,-48.1 16.3,7.5 8.8,38.2 -8.1,31.7 -6.5,-2.5 -12.1,-0.2 -11.3,14.4 1.5,36 11.1,76.5 2.9,111 -5.7,33.6 -52.1,18.1 -38,-6.8 l 0,0 z m -142.4,-46.9 c -17.9,-26.7 14.2,-51.7 34.3,-39.4 9.5,4.4 8.2,14.1 -3.8,8.9 -16.8,-7.2 -34.8,18.2 -20.2,28.4 6.7,4.7 9.3,4.1 4.2,-1.8 -13.6,-15.7 21.2,-22.7 20.2,-12.3 -2.4,12.6 -2.7,17.9 -3.8,20.4 -7.3,11 -20.9,5.3 -30.9,-4.2 z m 49.9,-112.3 c -19.3,-24 2.8,-42.9 2.5,-42.2 5.7,-6.2 -46.1,-102.2 -39.5,-102.8 65.5,-6.9 131.6,-1.7 197.2,0.3 0,0 -35,62.5 -48.9,93.5 -5.6,12.5 7.5,27.1 2.1,36.4 -16.9,18.3 -6.4,38.7 -16.9,39.6 -29.5,-3.8 -58.7,-8.6 -91.5,-2.1 -2.4,-0.1 -2.6,-13.8 -5,-22.7 z m 283.4,-667.3 c 33.1,167.5 -15.7,345 -127.6,462.1 -15.8,-15.1 -27.9,-43.7 -43.6,-62.4 -43.7,-13.1 -75.2,2.3 -105.8,17.4 -27.2,-15.6 -57.9,-24.8 -87.8,-24.4 l -1,-25.9 c 30.3,-0.6 62.2,2.1 89.2,18.7 l 42.2,-17 -131.6,-135.6 1.8,-23.2 159.5,160 20.5,0.7 c -45.1,-119.2 -5.6,-308.7 184.2,-370.4 z m 222.4,210.1 23.1,109.4 c 0,0 -121.9,130.6 -197.3,192.5 L 1934,340 c 0,0 77.6,-137.2 63.4,-126.7 L 2165,43.2 Z m 458.4,150 c -54.1,60.3 -118.8,98.6 -190.7,140.8 -28.7,-31.9 -63.6,-67 -83.7,-98.4 62.7,-33.3 122.4,-59.1 183.8,-117.4 -3.4,3.8 -78.3,29 -78.1,26.1 -2.7,12.4 -1.1,20.1 -13.3,23.4 -14.4,-20 -28.4,-36.3 -51.2,-45.3 -9.5,0.9 -22.2,-5.4 -22.2,-5.4 6.4,-1.3 3.6,-78.2 0,-79.1 0,0 1.9,-2.3 18.5,-1.9 29.8,-2 49,-37.8 67.5,-50.1 57.7,-4.7 108.9,0.9 165.7,-0.6 -0.3,68.4 3.7,139.4 3.7,207.9 l 0,0 z M 2256.8,19.8 c -1.5,-2.9 -16,-116.3 -2.2,-187.5 2.5,-16.7 29,-22.3 34.1,-34.8 8.4,-27 -4.2,-60.4 2.4,-90.7 6.8,-30.8 21.4,-48.2 34.2,-71.1 13.9,-24.8 33.8,-55.8 55.8,-74.3 6.5,-6.3 29.1,14 45.9,49 49,30.7 111.9,-8.9 111.9,-8.9 0,0 24.4,19.8 79.6,30.6 l -0.9,21.3 c -0.3,6.2 -62.1,-6.6 -75.3,-19 0,0 -46.1,15.3 -46.1,18.1 0,11.9 121.7,124.1 121.7,124.1 l 0.7,27.7 c -18.2,-25.3 -160.9,-146.7 -160.9,-146.7 31.5,184.9 -44.1,300 -200.9,362.2 l 0,0 z m -204.2,-36.2 -2.7,-108.8 104,1.2 4.3,109.9 -105.6,-2.3 z m -475.7,-117.5 c 2.8,-3.9 -4,-202.8 -3.6,-202.8 66.2,-65.5 130.9,-102.1 195.8,-141.9 29.3,28.9 54.3,53.3 75.9,88.3 l -89.5,54.9 c 3.4,13.4 -5.4,18.2 52.3,70.2 1,-3.6 20,-14.2 23.3,1.7 -7.8,33.5 3.5,61.9 5,79.9 -7.9,10.5 -25.5,-0.8 -25.5,-0.8 -11.4,-11.8 -56.1,46.6 -68.8,53.1 -55.8,-2.1 -168,1.7 -164.9,-2.6 l 0,0 z m 626.3,-354.7 c 0.7,-0.7 56.6,0.4 55.8,2.4 -10.2,27.2 -35.4,75.4 -58.6,131 -26.6,47.4 -63.6,75.3 -95.1,106.4 -25.2,24.8 -47.7,64 -64.9,53.8 -10.5,-33.6 -12.9,-63.5 -24.5,-100.8 -5.3,-22.1 26.9,-36.5 187.3,-192.8 z m 244.5,-186.5 c 20.5,8.7 78,4.1 87.1,0.2 11.7,7.9 4.4,18.4 2.9,24.3 12,15.1 18.6,20.5 4.9,44.9 -3.1,0 41.9,100.9 43.1,101 0,0 -47.6,-22.5 -64.4,-37.7 l -32.8,43.4 -38.1,-49 c -0.1,4.4 -73.5,52.9 -74.3,50.5 -2.3,-2.3 67,-76.5 53.2,-120.1 -3.3,-10.5 4.3,-21.2 9.4,-30.4 3.6,-6.4 -1.2,-18.7 9,-27.1 z m -38.1,-9.1 c 3.1,-3.5 -17.8,-94.8 4.9,-131.6 9.6,-13.4 26.9,-14.1 34.2,-3.1 5.5,15.2 -11,36.5 -14.3,46.8 -10.7,28.9 5.2,67 -2.6,94.3 -23.3,59.6 -64.5,-5.8 -22.2,-6.4 z m 155.2,-40.5 c -12.3,0.5 -3.7,-36 -1.7,-46.5 -0.1,-2.1 22.5,-7.3 30.6,7.1 13.1,21.5 -2.7,48.6 -28.9,39.4 z m -146.5,-184.2 -115.7,140.1 c -117,-13.4 -234.4,-21.9 -354,-3.7 l -96.2,-133.6 565.9,-2.8 z"
           id="path3876" /><path
           style="fill:#131f67"
           d="m 2628.2,-919.2 -1070.4,3.3 11.8,1699.3 1068,-6.3 -9.4,-1696.3 z m -246.2,10.4 c 11.7,0 23.5,0 35.2,0.1 l -128.2,157 -3.2,1.1 c 8.5,24.9 20.7,56 32.4,79.5 18.5,38.1 65.1,108.2 36.1,164.2 -2.8,4.8 -5.5,7.1 -9.1,7.1 -4.9,0 -4.8,-2.9 -1.9,-8.5 6.5,-12.4 10.9,-41.7 8.3,-57.3 -1.7,-9.9 -7.2,-25.2 -17.7,-48.3 -48.7,-89.5 -63.9,-137.3 -61.2,-137.3 -0.6,-0.4 -1.7,-1 -3.5,-1.4 l -4.8,-1.6 c 16.9,56.6 44.3,104.2 66,148.3 17.8,41 19.7,56.8 10.4,86.7 -3.6,11.5 -10.1,18.9 -16.5,18.9 -4.8,0 -4.5,-1 -1.3,-6.8 17.1,-30.5 13.1,-63.8 -8.1,-102.5 -30.8,-64 -49.3,-104.4 -60.3,-145.4 -0.3,0 -5.6,-1.8 -7.5,-2.3 9.1,42.7 34.7,92 58.4,142.4 19.6,38.8 25.3,67.1 18.2,89.4 -2.3,9.7 -9.7,24.1 -19.1,24.5 -3.7,0 -4.2,-1.9 -0.8,-6.9 14.6,-24.9 17.1,-47.8 -8.9,-100 -23.9,-48 -48,-101.7 -56.2,-148.6 -0.5,-3.8 -10.9,-8.4 -8.7,-2 12.9,55.4 38.5,112.1 65.7,167.5 15.3,34.3 16.9,56.3 5.4,75.5 -6.4,10.7 -8.1,13.2 -12.9,13.3 -5.7,0.1 -5.6,0.3 -2.4,-6.2 13.9,-28.9 11.6,-54.3 -7,-96.1 -25.5,-57.2 -46.9,-104.6 -56.1,-155 -1.6,-0.5 -10.3,-3.8 -9,-1.3 12.7,48 29,92.5 50,137.6 7.3,15.6 19.2,46 23,61.3 7.3,29 -9.1,68.8 -30.5,70.8 -8,0.7 -7,-3.2 1.9,-11.5 15.3,-14.2 18.3,-36.9 13.1,-63.2 -3.9,-20.2 -10.6,-42 -19.9,-64 -18.7,-44.6 -39,-91.3 -45.5,-132.5 0.2,-3.7 -8.4,-3.7 -5.9,0.2 4.6,29 15.7,62 27.8,92.6 13.2,33.5 32.9,71.1 39.4,112.2 5.3,33.7 -15.8,65.4 -41.4,67.3 -30.8,2.3 -36.9,-28.1 -29.5,-42.3 12.1,-21.3 47.2,-9.1 36.8,12.6 -6,12.5 -24.3,9.2 -23.6,-4.5 -0.2,-1.2 1.8,-5 1.4,-5.2 -0.6,-0.4 -3.3,2.1 -4.2,3.6 -6.2,11.1 12.5,26 25.5,17.1 43.6,-23.5 14.2,-95.4 -4.8,-139.2 -18.4,-40.9 -31.9,-77.8 -37.8,-115.6 -1.6,-1.1 -8.8,-2.9 -7.8,-1.6 5.3,20.2 7.7,37.2 13,54.2 8.2,26.6 23,56.4 35.1,86.2 10.9,29.4 21.9,54.3 16.9,84.9 -0.5,2.8 -1.6,6.2 -3.6,8.3 -2,2 -3.6,1.7 -4.2,-6.1 -0.2,-1.1 -1.6,-2.5 -1.8,-3.8 1.1,-11.5 0.3,-22.9 -2.7,-33.7 -2.5,-9.1 -7.4,-18.3 -17.7,-35.9 -4,-6.6 -14.6,-26.6 -10.9,-12.7 2.1,7.8 9.4,25.2 16.9,37.8 4.7,7.8 9.6,29.2 8.2,33.3 -1.5,4 -5.1,4.3 -6.8,2.9 -1.5,-1.3 -1.5,-7 -1.9,-10.5 -1.6,-14.5 -16.5,-39.8 -26.8,-49.8 -7.4,-8.3 17.5,35.1 19.3,46.7 0.8,4.9 2.3,8.9 0.6,11.3 -1.1,1.6 -3.3,1.6 -5.5,1 -2.1,-0.5 -2,-2 -4.3,-9.4 -3.8,-12.7 -8.5,-19.2 -18.3,-30.7 -3.4,-3.9 -5.6,1 -0.3,7.4 7.4,11.7 13,19.1 14.8,34.1 -4.8,6.8 -7.2,5.5 -17.2,-11.7 -6.6,-11.4 -10.6,-14.3 -12.3,-14.2 -4.4,0.2 -0.2,5.6 12.1,25 6.4,10.4 6.5,16.8 -0.7,16.8 -2.5,0 -16.3,-15.2 -19.7,-21.7 -2.9,-5.4 -6.4,-9.6 -6.4,-3 0,2.6 8.5,16.6 14.4,23.3 9.2,10.7 11.9,12.8 13.1,17.5 0.6,2.3 1.7,6.2 2.5,8.8 2.4,7.7 1.2,9.9 -3.6,5.8 -2.2,-5.7 -3.9,-6.3 -9.9,-10.7 -5,-3.7 -12,-13.3 -16.5,-20 -1.7,-2.5 -3.2,-5.8 -5,-8.4 -4.5,-8.3 -10.4,-9.1 -6.1,-0.6 2,3.9 5.3,10.3 8.8,15.1 5.8,8.2 4.6,12.5 -2.3,12.5 -2.9,0 -11.2,-10.8 -16.3,-19.2 -3.4,-5.5 -8.6,-9.4 -8,-3.9 0.2,1.4 4.2,11 10.3,18.6 6.6,8.2 7.5,12.6 1.1,12.5 -4.4,0 -8.2,-4.2 -13.8,-12.7 -5.3,-8.1 -8.6,-10.9 -10.1,-10 -1.9,1.2 7.6,17.2 15.4,25.9 7.4,8.3 2,13 -6.5,5.6 -4.6,-4 -13.8,-15.9 -16.4,-21.5 -4.6,-10.1 -7.6,-7.3 -4.6,0.7 3.3,8.8 8.4,18.5 14.7,24.8 3.3,3.3 10,5.9 13.3,8.7 9.3,8 15.2,15.4 14.4,16.7 -26.5,1.5 -48.2,-26.7 -54.2,-43.7 -4.2,-11.2 -9,-12.9 -4.5,3 12.9,39.3 53.1,59.8 81,42.1 16.8,-10.6 2,-38.3 -11.8,-29.4 -3.7,2.4 -3.9,9.3 0.8,5.6 8.9,-6.9 17.9,10.1 8.2,15.2 -13.7,7.1 -28.9,-6.8 -19.6,-23.6 9.2,-17.3 46.1,-7.4 38.9,20.5 -4.4,12.5 -23.5,28.2 -39.9,28.5 -30.5,0.6 -51.6,-22.7 -63.3,-45.8 -1.5,-3 -4.2,-8.8 -6.4,-13.5 -1.9,-4.1 -3.5,-7.2 -3.6,-7.1 3.4,27.9 30.2,62.5 54.2,68.2 39.9,9.3 50.8,-14.3 76.8,-38.8 0,0 19.1,2.5 19.7,2.1 1.8,-1.1 37.1,-2.6 38.1,-1.7 -142.7,257.8 -131.8,563.9 -9.1,796.3 8.1,17 9.5,13.8 -3.9,10.3 -13.9,-3.6 -26.5,1.9 -37.8,-0.7 -23.3,-4.7 -28.3,11.1 -46.2,19.6 -22.4,8.4 -17.3,23.9 -22.6,38.9 -1.7,2.3 -2.9,4.2 -2,3.9 1.5,-0.5 6.2,-4.9 6.6,-8.8 0.9,-9.9 4.5,-17.7 8.5,-21.7 3.8,-3.8 6.5,-5.7 7.5,-4 0.7,1.3 0.2,5.7 -1.7,9.3 -5.4,10.2 1.8,44.4 2.2,20.1 0.4,-19.3 12.1,-40.8 28.5,-49.6 13.1,-6.4 17.2,-5.8 6.5,4.1 -12.2,12.9 -20.4,28 -20.9,46.7 -0.2,7.8 2.9,14.2 4,7.3 -0.5,-35.7 35.3,-75.4 73.6,-55.6 1.9,1.4 3.5,4 3,5.4 -37.1,-6.2 -69.4,14 -64.7,61.9 0,0 3.3,-9.4 5.2,-18.7 5.8,-29.3 39.1,-42.1 62.4,-34.1 4.4,1.8 7.8,8 7.2,8.8 -28.5,-8.9 -59.8,17.9 -61.7,47.1 -0.6,9.5 -0.4,17.6 4.5,0.5 18.4,-64.7 75.3,-35.4 68.3,-30.1 -44,-5.2 -59.9,24.3 -58.9,58.4 0.6,3.1 2.2,4.2 3.6,7.1 5.9,12.9 8.5,23.9 9,47.2 -0.4,6 4.5,44.3 -0.5,42.6 -16,-5.9 -28.1,-12.8 -55.8,-0.4 -2.5,0.1 -3.3,-1.2 -2.5,-3.4 1.1,-2.9 5.5,-8.6 13,-17.1 17,-18.1 7.2,-13.2 -6.7,-0.7 -9,8.1 -7.1,2.6 1.4,-25.1 3.4,-11.2 1.3,-12.6 -13.5,-20.1 -15.3,-7.7 -25.8,-8.9 -12.9,-0.8 5.1,3.1 10.5,6.3 16.3,8.6 6.8,3.7 6,5.2 1,21.4 -9.7,31.4 -13.1,42.8 -12.6,63.9 1.2,51.3 50.3,46.2 78.2,34.7 l 1.2,33.8 105.5,147.4 c 0,0 -367.7,-0.4 -564.5,2.8 11.2,-26.9 130.2,-140.8 137.3,-161.1 0.7,0.1 -13.2,-41.6 -20.5,-59.8 -34.4,-85.7 -79.6,-121.8 -53.4,-178.1 5.6,-11.2 6.6,-14.9 10.9,-14.9 5.8,0 7.7,3.9 1.1,14.8 -28.1,47 31.9,128 52.1,179.7 3.2,8.3 16.8,47.1 19.2,60.1 0.2,4 9.7,5.4 7.1,0.7 -7.5,-26.4 -16.9,-55.3 -21.2,-65.7 -16,-38.2 -32.9,-64.2 -48.5,-101.5 -8.7,-23.6 -13.4,-50.8 0.2,-75.3 4.9,-8.9 6.3,-13.8 9.6,-14.3 2.8,0 4.4,1 4.6,3.3 0.2,2.5 -1.3,6.6 -5,12.8 -23.6,40.1 18.4,104.9 39.2,151.1 13.6,30.1 25.6,61.8 29.9,90.3 0.1,2 2.7,7.2 7.9,3.6 -9,-53.4 -35.5,-105.1 -58.6,-154.9 -19.8,-38.9 -27.2,-72.9 -0.8,-104.9 2.3,-2.2 7.2,-1.8 7.6,1.4 0.2,2.2 -1.5,6.5 -5.7,15 -23.3,48.6 12.8,88 29.7,134.4 16.5,38.7 31.9,71.3 38.1,112.5 4.7,1.8 7,4 7.5,-1.9 -12.1,-58.3 -38.1,-110.7 -60.7,-161.2 -10.4,-21.9 -14.1,-32.5 -14.8,-47.2 -1,-20.2 9.2,-45.8 18.4,-52.5 2.4,-1.7 3.9,-2.1 6,-0.9 3,1.6 2.4,2.7 -3.5,13.8 -11.2,21.1 -12.2,44.9 -1.8,70 18,38.6 33.1,70.3 43.8,98.6 11.7,31 18.3,58 21,82.3 0,0 8,3.5 6.8,-1.8 -5,-34 -16.3,-69.3 -28.4,-99.2 -11.5,-28.2 -25.9,-55.3 -37.6,-83.3 -14.2,-33.5 -2.4,-70.2 26.6,-88.5 l 13.4,0.3 c -0.8,-0.3 -30.5,11.4 -32,53.7 -1.5,40.3 17.7,65 31.5,99.2 16.9,41.2 32,77.2 35.6,121.2 1.3,1.5 8.6,1.9 8.5,1.2 -3.6,-29.6 -12.3,-57.7 -24.6,-92.3 -13.2,-36.7 -26.2,-53 -38.4,-91.6 -8.3,-26.1 -7.1,-61.4 11.3,-77.6 27.5,-27.7 65.9,-8 56.3,23.8 -7.4,22.3 -38.1,17.9 -37.9,-3 0,-13.5 16.6,-17.2 22.2,-7 1.3,2 2.1,10.7 2.7,11 0.6,0.3 2.3,-6.8 2.3,-8.4 0.1,-11.1 -15.1,-20.4 -26.3,-14.8 -15.4,7.7 -25.4,25.5 -24.4,49.2 1.1,25.3 5.7,41.6 26.4,81.2 24.2,46.2 32.2,96.2 37.3,129.8 2.2,-0.9 4.9,0.3 5.8,0 -3.5,-45.9 -18.7,-93.1 -37.5,-132.3 -22.9,-47.5 -29.3,-76.6 -21.6,-97.8 1.1,-3.1 2.2,-5.5 3.6,-5.7 2.6,-0.4 3.3,3.7 5.7,12.2 0.7,2.6 -0.2,6.7 -0.7,9.9 -2,19.5 11.7,60 24.4,78 3.7,5.1 8.5,5 4.4,-4.2 -13.1,-23.5 -21.1,-44.9 -22.2,-73.5 -0.3,-8.4 9.5,-4.6 9.7,-0.4 0.7,13.7 2.1,29.8 8.6,41.2 13.3,22.7 20.7,23.7 7.1,-1.7 -3,-5.9 -11.7,-30.7 -8.2,-39.3 1.9,-1.7 4.3,-2.1 5.5,-0.3 3.8,14 9.2,27.9 18.6,38.8 4.9,5.6 5.8,3.1 3.2,-3.9 -4.3,-8.1 -17.9,-35.3 -11.7,-41.4 2,-1.7 0.8,-0.8 6.3,8.2 7.6,12.4 11.8,17.3 15.5,20.9 4.9,4.8 6.1,1.6 1,-6.9 -10.2,-16.9 -16,-31 -12.4,-34.6 3.5,-3.5 4.4,-1.9 12.4,11.8 3.6,6.1 8.8,15 10.5,17.1 1.8,2.1 3.4,2.6 3.4,0.9 -1.9,-16.5 -16.1,-35.2 -21.8,-38.5 -0.8,-1.5 -0.5,-14.5 -0.5,-14.5 21.3,10.9 22.2,23.3 36.3,42.3 1.5,1.4 3.5,-0.3 2.9,-2.9 -0.5,-3.6 -8.9,-19.4 -14.1,-26.3 -4.1,-5.5 -4.3,-8.6 -0.8,-10.2 5.6,-2.5 13.5,5.8 21.9,20.8 3.9,6.9 9.1,10.9 9.1,7.3 0,-2 -7.2,-19.9 -12.3,-25 -8.3,-8.6 -4.2,-14.6 5.4,-6.7 4.4,3.6 10.3,6.3 16.4,19.5 3.6,7.7 6.6,8.7 6.7,2.5 0,-6.9 -11.6,-23.7 -19.4,-28.3 -6,-3.6 -9.5,-7.6 -7.8,-10.3 5.3,-7.8 26.7,12 34.1,30.4 2.2,5.4 5.9,8.2 6.9,5.8 1.6,-1.2 -2.7,-14.5 -7.2,-20.6 -7.4,-14 -24.8,-27.6 -35.1,-26 -2,0.3 -7.5,-11.2 -7.5,-11.2 26.3,-4.2 51.8,27.1 56.4,38.8 8.6,22.3 13,19.6 5.5,0.1 -14.7,-38.1 -60.5,-59.5 -85.9,-41.1 -14.5,10.5 -5.8,35.6 9.1,31.4 5.9,-2.2 11.6,-8.2 1.2,-6.2 -11.6,1.2 -15.3,-16.4 -3.5,-19.9 19,-5.7 23.3,24.5 8,31.2 -15.9,6.8 -31.7,-3.3 -30.3,-20.7 2.8,-32.9 43.4,-42.4 83.4,-15.8 11.3,7.5 25.1,31.8 29.9,47.3 1.6,5.1 6.9,6.9 7.5,6.2 1.5,-1.5 -11.1,-28.6 -15.3,-35.5 -17.4,-39.7 -80.5,-41.7 -80.5,-39.6 0,0 -24.7,15.5 -46.6,40.9 l -56.3,-5.2 c 143.5,-229.4 154.8,-566.7 7.6,-805.5 1.9,1.2 28.3,8 37.4,0.9 6.7,-3.2 8.6,-4.3 16.1,-1.7 8.4,3 17.2,0.3 26.3,-7.9 6.9,-6.2 7,-8.2 11.4,-7.6 13.1,1.7 21.7,-5.9 24.4,-24.7 1.1,-7.4 1.8,-15 0.7,-13.9 -0.6,0.7 -2.1,7 -3.1,11 -2.6,11 -5.1,15.1 -9.4,18.7 -7.1,5.9 -11.2,2.6 -8.3,-6.4 2.8,-5.8 5.1,-20.7 1.3,-27.5 -0.7,-1.2 -0.8,3.4 -1.8,7.1 -7.8,29.4 -15.9,44.3 -30,47.8 -6.6,1.6 -9.7,0.6 -7.5,-3.2 24.8,-26.3 23.2,-55.5 21.3,-53 -5.3,16.9 -15.1,42 -31.2,52.3 -13.9,8.9 -34.2,9.8 -45.6,2.3 -6.4,-4.3 3.3,-5.5 17.8,-5.7 24.5,-0.3 47.4,-32.9 43.6,-60.4 -0.9,-5.1 -2.3,0.4 -4.3,8.7 -9,29.7 -24.5,50.6 -60,44.4 -2.8,-0.5 -4.6,-2.3 -6.1,-3.3 -5.8,-4 -3.6,-6.7 7.8,-5.2 25.6,3.3 47.9,-20.6 47.8,-49.5 -0.1,-13.9 -2.1,-13.7 -4.3,-3.4 -3.1,14.6 -14.5,59.2 -55.9,44.6 -7.5,-4 -11.5,-9.2 -8.9,-9.9 24.2,4.9 46.3,-0.4 54.9,-32 3.7,-13.6 2.8,-27 -1,-38.1 -1.2,-7.6 -3.8,-13.4 -4.6,-21.1 -2.3,-20.6 -5.6,-43.4 -4.6,-66 2,-2 2.3,-1.5 9.3,3.1 13.7,9 24,6.9 37.9,1.6 17.9,-6.4 16.2,-5.3 -2.4,15.8 -3.9,4.4 -7.8,9.7 -8.3,10.6 -4.8,8.9 4.2,2.4 10.8,-6 9.3,-11.6 11.2,-14.3 13.1,-14.3 0.6,12.6 -3.9,27.8 -6.3,38.1 -3.1,11.4 -3,14 4.3,17 3.2,1.3 9.3,3.8 12.7,5.4 15.3,7.3 13.9,1.4 1.7,-5.5 -16.5,-9.3 -16.6,-8.8 -11.9,-24.2 5.5,-18 8.2,-33.6 11.2,-51.5 7.4,-44.1 -26,-68.4 -70.4,-53 -2.5,1.3 -5.5,-23.2 -5.1,-29.7 0.4,-2.3 -6.7,-1.8 -12.5,-8.9 1.8,-1.6 -65.5,-85.4 -96.8,-136.3 175.7,0 352.1,-3 528.2,-3 l 0,0 z m -109.2,157.6 c 0.4,0.3 0.7,0.5 0.7,0.5 -0.3,-0.3 -0.6,-0.5 -0.7,-0.5 z m 152.2,-153.6 188.3,0 2.7,405.6 -16.7,0.4 c 0,0 -31.4,-53.8 -39.7,-79.3 -2.1,-6.4 -5.7,-15.1 -7.1,-18.5 -3.2,-7.8 -5.4,-8.7 -1.2,-13.5 8.5,-9.5 6.8,-28.8 -1.4,-38.1 -2.6,-3 -3.9,-2 -3.8,-9.3 0.1,-6.3 0.7,-10.3 -1,-13.6 -2.8,-5.4 -4.7,-5.8 -0.7,-11.8 4.2,-6.3 9.7,-16.4 12.1,-24.4 3.8,-12.9 1.1,-15.3 9.6,-12.3 21.2,6.7 38.9,-8.3 38.4,-29.6 -0.5,-17.9 -17.3,-33.9 -36.8,-29 -4.5,1.1 -5.4,0.7 -12.3,-3.6 -2,-1.2 -5,-3.9 -7.6,-4.8 -3.2,-1.2 -5.9,-1.1 -7.2,-3.4 -2.6,-4.5 -10.8,-11.6 -20.8,-11.2 -6.1,0.3 -14,-1.9 -16.1,-3 -3.5,-1.8 -13.2,-0.3 -25.6,-2.2 -5.5,-0.8 -10,1.3 -12.6,1.3 -7.6,0.1 -4.5,-0.8 -6,-6.6 -9.6,-30.1 -37.5,-26.5 -50.3,-3.9 -4.7,8.9 -8.1,22.1 -9.9,35.7 l -75.3,-1.1 101,-123.8 z m -582.4,0.9 c 28.1,35.6 55,75.5 83.3,111.9 34.9,44 36,49.1 26.7,93.4 -5.2,25 -7.5,30.8 -18.1,28.9 -10,-1.8 -18.4,6 -19.8,15.9 -2.5,18.5 15.4,30 33.4,20.7 9.5,-4.9 9.8,-5.4 6.7,10.8 -4.5,23.2 -13.6,43.1 -19.5,42.5 -15.1,-32 -51.9,-9.2 -39.7,24 -3.8,5.8 1.2,13.2 3.1,19.2 0,0 0.1,0.7 -20.9,7.6 -103.2,30.4 -231,109.8 -300.7,184.3 l -4.8,-557.7 270.3,-1.5 z m 592,76.1 c 4.3,-0.1 8.5,1.3 11.9,4.3 9,8 6.9,19.3 -5.6,40.5 -13.1,29.5 -9.5,52.7 -6.5,83.7 -0.1,18 -6.2,35.1 -15.9,42.5 -15.8,12 -35.2,-4.1 -27,-20.3 4.2,-8.1 13.1,-3.4 15.2,-11 0.7,-4.6 0.7,-11.8 1.2,-15.2 -1.9,-13.6 -5.8,-55 -5.8,-69.4 0.2,-12.4 4.2,-27.9 9.9,-39.6 5.5,-9.6 14.3,-15.3 22.6,-15.5 z m 24.8,48.1 c -3.6,3 -9.5,3 -10.2,-0.7 0,-3.9 3.1,-16.2 5.2,-17.6 12.8,-2.9 8.7,15.1 5,18.3 l 0,0 z m 19.3,-19.2 c 10.7,-0.4 17.7,26.8 8.4,42.7 -1.8,0.3 -14.7,0.2 -14.8,0.5 -0.2,-2.8 0.6,-8.5 1.6,-13.9 0.8,-4.6 1.3,-8.2 -0.1,-13.2 -3.4,-12.5 -5.7,-14.9 4.9,-16.1 l 0,0 z m 20.3,0.3 c 0.4,0 0.8,0 1.3,0 10.8,0.1 17,20.9 13.6,43.7 -0.5,3.3 -0.8,6.7 -2,7.5 -4.5,-1.2 -17.1,3.2 -17.3,3.2 -1.2,-1.2 -0.7,-7.7 0.9,-13.5 3,-10.8 3.8,-18 0.3,-29.2 -2.5,-9.7 -2.6,-11.5 3.2,-11.7 l 0,0 z m 27,6 c 11.9,2 12.7,34.8 7.8,45.5 -1.2,1.6 -5.7,1.2 -7.3,1.8 -10.1,2.9 -7.9,4.4 -6.7,-11.7 0.8,-11 1,-19.6 -0.7,-28.7 -0.8,-4 -1.1,-6.8 1.8,-7 1.7,-0.3 3.5,-0.2 5.1,0.1 z m -59.4,12.9 c 4.7,6.5 0.9,21.4 -2.7,27 -4.1,6.1 -5.8,6.6 -3.5,9.3 1,1.1 2.9,6.9 1.7,9.4 -2.3,4.5 3.6,5.3 8.8,8.1 8.6,4.5 12.7,12.7 19.1,27.8 2.2,5.2 6.8,3.6 4.6,-2.1 -1.9,-4.8 -2.6,-11.9 -4,-16.7 -1.4,-4.9 0.1,-7.3 5.8,-5.9 8.5,2.1 7.3,0.1 10.4,-1 6.8,-3.8 11.4,1.6 7.3,4.5 -2.4,1.7 -7.4,2.7 -12.9,4.2 -4.7,1.3 -3.6,5.8 1.1,5.8 4.4,0 17,-3.5 25.2,-6 23.5,-7.1 24.3,-10.9 22.1,2.5 -2.9,17.7 -12.6,30.9 -28.5,35.4 -13.9,3.9 -45.9,3.2 -60.2,-1.4 -13.6,-6.1 -14.5,-10.4 -18.6,-22.3 -5.6,-16.3 -8.9,-43.9 -2.5,-60 5.7,-13.6 5.1,-12.1 10.6,-11.5 4.8,1.7 11.4,-0.2 12.8,-3.2 0.7,-1.4 2.6,-4 3.4,-3.9 z m 90,9.8 c 1.3,7.3 1.5,14.7 -1.1,20.3 -1.5,2.6 -9.7,2.5 -12.9,2.5 -1.9,0.4 -1.7,-24.5 0.3,-27.3 4.9,-7.1 11.1,-1.3 13.7,4.5 z m -238.5,-4.4 23.3,0.3 0,5.7 -27.5,-0.2 4.2,-5.8 z m 81.5,1 0,7.3 -35.1,0.1 0,46 39.2,0.1 0.2,9.6 -52.5,-0.2 0.2,-62.9 48,0 0,0 z m 178.2,-1.5 c 35.9,7.9 19.9,47.6 6.4,50 -16.8,3 -31,1.1 -26.4,-13.7 4.7,-10 1.4,-22.5 2.8,-31.6 3.3,-2.9 11.7,-5.9 17.2,-4.7 z m -271,14 34.6,0.3 0,7.6 -39.5,-0.1 4.9,-7.8 z m 76.8,7 c 5.5,0 10,4.5 10,10 0,5.5 -4.5,10 -10,10 -5.5,0 -10,-4.5 -10,-10 0,-5.5 4.5,-10 10,-10 z m 97.6,4 c 6.4,0.7 7,10.5 4.4,13.4 -3.4,3.3 -9.7,1.9 -11.6,-3.2 -1.7,-4.6 2.2,-10.4 7.2,-10.2 l 0,0 z m -184.1,4.2 44.3,0.1 0,6.2 -44.7,0.4 -1.2,-4 1.6,-2.7 z m 249.1,2.7 c 6.1,-0.1 9.9,5 6.1,9.4 -5.8,6.4 -17.6,-3.4 -6.1,-9.4 z m -471.5,13.4 c -9.9,8.4 -2,16.6 11.2,8.7 28.3,-17 70,-3.5 97.2,10.6 5.3,2.7 6.1,-3.6 0.8,-8 -25.1,-22.1 -78.6,-34.8 -109.2,-11.3 z m 428.8,-11.6 c 6.9,0 6.8,8.6 2.4,11.7 -4.4,1.9 -5.2,1.4 -8.2,0.2 -4,-1.5 -1,-11.9 5.8,-11.9 z m 24.5,0.1 c 8.2,0.4 7.3,16.9 -5.1,10.9 -4.5,-4.7 -1.6,-10.9 5.1,-10.9 z m -228.7,8.5 43,0.4 0,7 -40.2,-0.4 -2.8,-7 z m -277.9,16.5 c 11.8,9.3 8.1,9.9 -11.4,3 -12.7,-2.8 -25.4,-1 -33.4,2.1 -9.4,3.7 -11.6,2.7 -7.5,-3.7 11,-12.2 41.2,-9.7 52.3,-1.4 z m 56.5,15.4 c -1.2,2.9 -5.2,-2.3 -10.7,-1.3 -7.8,1.4 -5.5,1.8 2.7,11.2 8.2,9.3 10.9,11.6 10.4,15.2 -0.7,5.3 0.8,8.2 6,7.6 2.5,-0.3 5.6,2.7 9.4,6.2 13.5,12.2 20.3,18.3 24.6,20.2 17.8,7.7 9.8,-1 -1.6,-8.8 -19,-13.1 -25.6,-21.8 -12.1,-17.2 14.3,5 37.1,2.1 48.3,-4.6 5.5,-3.3 9,-8.4 16.8,-5.9 10.9,3.5 15.1,-2.9 12.1,-6.6 -5,-3.2 -16.3,-7 -27.1,-14.2 -23,-11.7 -47.2,-11.3 -63.4,-1.9 -9.5,5.5 -12.8,1.6 -3.5,-3.8 37.4,-20.2 67,-0.9 90.9,13.6 4.1,2.5 7.1,2.3 7.1,0.5 -0.6,-5.8 -11.3,-9.4 -15.6,-12.1 -33.2,-20.4 -68.2,-26.9 -94.3,1.9 l 0,0 z m 227,-17.8 37.4,0 0,7.4 -34.6,-0.2 -2.8,-7.2 z m -304.1,9.4 c 10.4,0 32.9,9.2 32.5,16.9 -0.4,2.9 -6.1,0.3 -11,-2.7 -9.5,-5.8 -24,-7.3 -37.7,-4.8 -10.5,2 -13.8,3.7 -15.3,2.4 -3.6,-8.1 21.9,-11.8 31.5,-11.8 l 0,0 z m 404.1,5.5 0.1,13.2 c -20.3,1.5 -24.5,24 -11.4,36.6 10.7,10.3 28.3,6.2 37.2,-8.4 1.5,-2.6 1.7,-4.2 2.7,-2.9 0.6,0.8 1.1,3.3 1.6,5.7 1.4,6.9 -0.6,8.7 -5.2,14.7 -7.4,9.6 -8.4,21.7 -3.8,30.7 1.3,2.5 4,6 3.5,7.7 2.6,-0.1 -23,71.7 -60.5,107.8 -6.3,4.2 -10.8,-0.7 -7.6,-7.5 30.5,-69.7 -27.9,-134.5 -50.5,-196.8 l 93.9,-0.8 0,0 z m -271.1,12 5.3,0.5 c -4.3,32.1 -35.5,26.9 -36.7,0.8 l 4.5,-0.2 c 6.1,24.4 26.9,14.4 26.9,-1.1 z m -176.1,0.7 c 0,0 2.2,3.6 2.3,5.6 0,7.5 -0.1,18.3 -0.3,21.6 -1.8,30.9 -41,36.6 -38,10.2 2.3,-11.2 16.5,-12.5 20,-2.3 5.1,12.8 6,-3.1 6.1,-8 4.1,-7.9 7.1,-17.4 9.9,-27.1 l 0,0 z m 189,2.2 c 1.6,0 4.5,1.4 6.8,3.9 2.6,2.8 1.6,4.2 -4.4,7.3 -6.5,3.4 -9.5,3.1 -7.1,-3.7 1.4,-4.3 2.6,-7.6 4.7,-7.5 z m 293.3,1.6 c 0.9,0 3.2,1.2 2.6,4.6 -0.9,5.6 -5.7,8.8 -7,7.5 0.8,-3 1.8,-10.9 4.4,-12.1 z m -340.1,10.8 c -0.8,2.3 -2.1,1.3 -5.5,-1.6 -3.8,-3.2 -3.6,-5.3 0.3,-7.6 5.5,-3.3 5.9,7.1 5.2,9.2 z m -118.8,-8.3 c 6.5,20.7 19.9,18 25.8,1 l 5.7,-0.1 c -1.3,26.6 -35,26.1 -35.3,0.4 l 3.8,-1.3 z m -11.8,2.5 c 2,-0.3 0.6,6.6 0.6,6.6 0,0 -5.5,-2.9 -2.3,-5.9 0.4,-0.3 1.4,-0.6 1.7,-0.7 l 0,0 z m 49.5,1.8 c 0.7,0 2,0.5 3.4,1.4 3.3,2.2 2.7,3.4 -1,6.6 -5.8,4.8 -8.4,2.1 -5.3,-4.3 1.2,-2.5 2.1,-3.7 2.9,-3.7 z m 430.4,4.5 c 2.4,-0.2 5.9,1 13.1,2.9 19.9,5.3 46.6,5.1 69.3,-1.2 7.2,-2 12.5,10.6 8.6,19.8 -1.7,4 -1.4,4.5 3.8,10 7.4,7.7 8.6,20.1 3,31.4 -4.1,8.2 -3.8,7.5 1,21.5 2.2,6.4 5.1,13 5.6,14.8 6.1,20.7 21.3,45.1 30.5,65.6 9.2,14.4 -16.5,0.2 -16.5,0.2 0,0 6.9,9.3 16.1,16.2 8.9,6.8 26.5,2.2 34.5,10.4 1.9,2.6 -1.8,57.5 -3.7,59 -79.3,-3.7 -211.5,-0.8 -211.5,-0.8 l 24.8,38.6 c 39,15.6 76.3,11.7 111.9,-10.8 -0.9,3.2 43.4,24.9 79.7,27.2 l 0.2,26 c -27,-3 -54.3,-3.6 -79.3,-19.4 0,0 -23,9.6 -46.1,16.8 l 129.2,133.6 0.1,22.3 c 0,0 -55.2,-51.5 -111.9,-109.5 l 1.2,285.3 111.8,2.2 c -3.5,74.3 -2.1,121.5 -1.3,206.5 -52.8,54.2 -125.5,108.4 -192.7,141 -31.7,-30.6 -57.9,-63.7 -80.8,-99.1 -0.5,-0.7 2.3,-2.2 1.8,-2.9 -0.7,-1.1 -4.7,-1.5 -5.4,-2.6 -14,-20.8 -46.4,-78.5 -41.3,-79.8 9.9,0.7 56,-5 65.1,-32.6 0.1,-1.7 -1,-6.7 0.3,-12.4 3.2,-15 4.9,-37.7 -0.6,-52.1 -9.9,-26 19.9,-17.7 20.9,-15.9 l 0,-98.3 c -38.7,31 -77.8,61.6 -129.6,74.4 -32.2,-162.3 18.9,-364.1 164.4,-501 l -8,-0.7 c -149.6,154.8 -188.8,324.9 -163.3,504.2 0,0 0.9,5.6 1.1,7.5 0.3,4.5 -0.7,6.2 -4.7,9.4 -3.8,2.5 -7.2,5.2 -6.9,8.2 0.6,5.8 -4.9,5.9 -12.1,5.9 -3.3,-2.9 -7.8,0.8 -10.5,2.1 -3.8,0.6 -5.6,-14.8 -10.4,-3.5 -1.8,7.1 -5.3,7.6 -13.3,4.1 -5,-1.5 -5.1,1 -0.3,6.8 6.7,7.2 12.3,17.9 11.2,21.1 -2.4,7.2 -1.4,14.5 8.8,18.6 -0.6,0 -6.2,22 9.7,21.4 5,0.1 17.8,2.6 17.8,2.6 0.8,4.2 -0.5,6.6 -2.5,8.4 l -11,-5.5 -2.9,13.1 -14.7,-1 35.7,44 4.2,-34.3 41.7,5.3 c 6.7,17.4 48.8,113.9 129.3,185.8 0,0 -44,19.2 -56.3,25.2 l -7.7,-27.4 -6.9,9.9 -12.3,-3.2 -1.4,11.3 -11,3.5 19.1,14.4 -49.2,14.9 c -140.4,-226.5 -204,-541.1 -29.1,-873.8 l 44.2,0.6 -8.6,14.8 12.6,-2 3.6,10.7 9.2,-4.4 9.3,11.6 10.6,-31.1 c 0,0 31.3,0.7 35.2,0.3 3.1,-0.3 66.2,-53.3 64.8,-55.3 -1,-1.5 -68.7,48.1 -71,46.2 0,0 -6.8,1.6 -1.5,-4.7 9.5,-11.4 16.2,-20 25.9,-36.4 16,-21.7 23.1,-48.2 26.9,-66.1 0.1,-1.3 0.4,-4.1 -0.7,-6.3 -6.1,-12.1 -4.7,-19.9 6.2,-34.2 3.8,-5 4.1,-6.2 3,-9.3 -2.5,-6.9 -0.1,-12.8 4.9,-17.5 2,-1.5 3.2,-2.4 5.1,-2.5 z m -372.3,48.2 c 27.7,11.4 5.5,36.6 -15.1,14.6 -10.8,-11.5 -19.3,-10.8 -25.2,-2.4 -2.6,3.8 1.2,10.5 4.6,8.3 3.2,-2 6.4,-4.3 11.1,0 35.1,32.3 60.3,-12.9 30,-24.2 -3.7,-1.6 -9,2.2 -5.4,3.7 z m -114.2,-1.1 c 0.3,0 0.6,0.1 1,0.4 1.3,0.8 1.4,12.2 0.1,17 -4.4,24.3 -21.7,80.8 -57.3,53.2 -14.1,-11 -1.3,-38.6 15.6,-29.2 13.2,7.3 4.3,24.8 -10,14.8 -6.9,-4.9 -4.7,5.2 1.1,8 9.9,5.2 27.9,-3.7 36.3,-19.6 3.4,-6.3 6.5,-17.5 10.1,-33.6 1.8,-8.1 1.9,-11 3.1,-11 l 0,0 z m 3,42.1 c 2.9,17.6 -10.5,48.4 -29.5,52.9 -14.6,3.5 -32.6,-6 -31.3,-14.8 0.4,-2.6 1.4,0.8 14.6,3 18.4,3 30.2,-6.9 40.8,-29.8 3.4,-7.3 4.8,-11.2 5.4,-11.3 z m 45.9,8.4 c 0,2 -1,7.2 -1.8,10.7 -2,8.2 -3.2,11.4 5.8,7.3 6,-2.7 14.7,-5.5 23.7,-0.5 9.9,5.5 19.4,4.5 31.2,-0.5 10.2,-3.4 15.1,-3.4 20.8,-0.2 10.4,6 6.8,2.2 5.5,-12.9 -0.9,-10.6 -3.8,-9.2 -7.5,-5.2 -2.4,2.6 -7.4,3.2 -12.9,0.3 -6.6,-3.5 -15.7,-1.9 -18.8,0.7 -3.1,2.5 -7.5,2.8 -13.5,-1.2 -4,-2.7 -6.2,-1.3 -11.1,0.9 -8,3.6 -11.1,1.7 -15.5,-1.7 -4,-2.9 -5.9,-2 -5.9,2.3 l 0,0 z m -40,12.6 c 1.1,0 1.2,4 0.4,12.2 -3.4,30.1 -27,46.9 -54.8,32.3 -12.2,-6.9 -10.5,-11.8 1.5,-7.5 19.1,6.9 38.4,-2.8 47.8,-27.5 2.6,-6.3 4.2,-9.5 5.1,-9.5 l 0,0 z m 67.9,21.5 c 13.7,5.7 29,3.9 32.9,-1.2 4.3,-5.7 -2.3,-4.7 -5.8,-3.9 -12,2.9 -20.3,1.8 -25.2,-0.3 -14.3,-5.5 -13.4,0.5 -1.9,5.4 z m -143.4,16.9 c 17.8,21.8 20.2,26.1 35.5,50.8 112.2,190.4 148.1,431 74.3,649.5 -20.2,60.3 -48.8,121.7 -80.8,171.1 l -38.4,0.4 13.2,-15 -17.9,1.3 -1.1,-9.9 -13.6,4.4 -6.5,-15 -12.3,34.3 -71.2,0.2 c 166.7,-162 199.6,-358.4 168.5,-516 0,0 13.9,-8.7 15.9,-13.8 0.5,-1.2 1.5,-6.5 2.5,-7.3 6.2,-4.1 10.3,-8 13.4,-7.2 1.8,0.4 2.7,1.3 3.9,3.1 5.9,8.6 7.1,10 10.3,1.3 2.3,-6.2 1.3,-8.5 8.9,-7.3 4.4,2.4 10.3,2.3 9.8,1.4 -0.4,-0.7 -6.7,-8 -9.7,-12.2 -7,-9.9 -9.1,-11.7 -8.4,-16 1,-6.6 -4.3,-13.7 -7.6,-15.5 0.9,-17.8 -5.9,-19.6 -25.3,-23.6 -0.1,-3.1 0.4,-5.6 1.8,-8.3 l 11.4,9.1 4.1,-16.8 15.4,0.8 -44.8,-43.3 c 0.2,12.2 0.8,24.6 -0.3,36.3 -21,-1.1 -41.7,-7.9 -42,-6.6 -30.8,-72.5 -77.7,-133.9 -127.3,-181.7 l 49.5,-23.8 14,26.8 3.4,-15.2 12.3,2.2 2.1,-9.7 13.6,-1.9 -15,-14.2 38.4,-12.7 z m 294.8,31.3 c 1.9,2.4 3.4,2.5 5.9,4.7 l -5.1,3.6 c 0.3,-3.4 0,-5.1 -0.8,-8.3 z m -329.3,8.9 c -4.2,0 -7.6,3.4 -7.6,7.6 0,4.2 3.4,7.6 7.6,7.6 4.2,0 7.6,-3.4 7.6,-7.6 0,-4.2 -3.4,-7.6 -7.6,-7.6 z m 41.3,1.2 c -4.2,0 -7.6,3.4 -7.6,7.6 0,4.2 3.4,7.6 7.6,7.6 4.2,0 7.6,-3.4 7.6,-7.6 0,-4.2 -3.4,-7.6 -7.6,-7.6 z m -133.1,5.6 c 24.5,20.4 47,46.9 74.4,88.4 l -0.6,5.6 8.3,3.1 c 0,0 45.5,59.8 43.1,86.4 -15.6,3.3 -27.7,-2.5 -55.6,23.6 l -17.9,-3.9 -18.9,4.6 c 0,0 0.2,5.9 4.9,7.9 2,0.9 5.4,-7.4 7.6,-7.2 9.2,1.1 18.4,1.2 16.7,4.1 -1.9,0.8 -6.9,60.3 2.7,72.9 5.3,12.9 1.5,12.8 -3.3,15.2 -5.2,3.4 -21.6,-3.8 -21.6,-3.8 l 3.8,94.4 c 43.2,-49.3 134.6,-82.2 128.1,-78.7 45.8,242.1 -63.1,403.7 -177.2,522.1 l 59.8,0.3 c 0,0 -51.5,82.7 -55.4,105.5 2.9,7.6 11,23.3 -2.7,34.4 -4.6,5.1 -5.1,28.1 -5.1,28.1 -31.4,1.1 -58.7,-9.8 -94.9,2.9 -3.7,1.3 -4.6,-19.7 -4.8,-23.5 -11.1,-10.4 -12.9,-31.6 -3.3,-42.6 3.6,-4.1 2.1,-1.9 -0.9,-15.6 -4.8,-21.9 -20.7,-51.9 -32.8,-71.2 -4,-6.3 -7.9,-13.7 -8.9,-16 -8.7,-10.3 -31.4,-5.5 -34.2,-8.2 -2.5,-2.1 -4.1,-58.1 -1.6,-59.4 89.6,7.1 229.8,-1 229.8,-1 l -37.6,-52.6 c -46.3,-18.1 -110,12.8 -107,14.4 0.2,0.2 -50.9,-27.8 -86.3,-23.9 l 1.2,-27.5 c 31.5,-0.1 60.5,5.7 85.8,20.7 l 43,-16 -131.7,-138.3 1.5,-22.8 c 0,0 33.7,36.1 70.3,74.6 31.4,33.1 43.2,38.6 43.2,38.6 l 0.1,-287.1 -113.4,-0.3 -3,-58.7 -2.9,-5.1 -1.3,-42.1 3.2,-4.3 -1.1,-18 -1.1,-2.6 -1.4,-43 2.4,-3.6 0.4,-27.1 c 54.7,-53.4 196.2,-143.7 196.2,-143.7 z m 96.9,8.2 13.2,57.9 8.9,-11 13.6,4.3 0.9,-13.3 12.4,-4.3 -49,-33.6 z m 450.8,9.6 c -4.2,0 -7.6,3.4 -7.6,7.6 0,4.2 3.4,7.6 7.6,7.6 4.2,0 7.6,-3.4 7.6,-7.6 0,-4.2 -3.4,-7.6 -7.6,-7.6 z m -35.7,4.8 c -4.2,0 -7.6,3.4 -7.6,7.6 0,4.2 3.4,7.6 7.6,7.6 4.2,0 7.6,-3.4 7.6,-7.6 0,-4.2 -3.4,-7.6 -7.6,-7.6 z m -437.1,6.7 c -4.2,0 -7.6,3.4 -7.6,7.6 0,4.2 3.4,7.6 7.6,7.6 4.2,0 7.6,-3.4 7.6,-7.6 0,-4.2 -3.4,-7.6 -7.6,-7.6 z m 464.5,4.6 -53.1,49.9 14.9,-0.6 2.7,14.6 13.3,-6.1 10.8,9.9 11.4,-67.7 z m 22.6,16.8 c -4.2,0 -7.6,3.4 -7.6,7.6 0,4.2 3.4,7.6 7.6,7.6 4.2,0 7.6,-3.4 7.6,-7.6 0,-4.2 -3.4,-7.6 -7.6,-7.6 z m -422,9.8 c -4.2,0 -7.6,3.4 -7.6,7.6 0,4.2 3.4,7.6 7.6,7.6 4.2,0 7.6,-3.4 7.6,-7.6 0,-4.2 -3.4,-7.6 -7.6,-7.6 z m 33,6.4 c -4.2,0 -7.6,3.4 -7.6,7.6 0,4.2 3.4,7.6 7.6,7.6 4.2,0 7.6,-3.4 7.6,-7.6 0,-4.2 -3.4,-7.6 -7.6,-7.6 z m -30,11.3 c 1.5,20.4 3.8,44.6 4.4,65 l 10.1,-9.9 11.6,4.7 4.1,-12.5 12.7,-0.6 -42.9,-46.7 z m 326.8,17 c -4.2,0 -7.6,3.4 -7.6,7.6 0,4.2 3.4,7.6 7.6,7.6 4.2,0 7.6,-3.4 7.6,-7.6 0,-4.2 -3.4,-7.6 -7.6,-7.6 z m -348.6,1.4 c -4.2,0 -7.6,3.4 -7.6,7.6 0,4.2 3.4,7.6 7.6,7.6 4.2,0 7.6,-3.4 7.6,-7.6 0,-4.2 -3.4,-7.6 -7.6,-7.6 z m 378.8,1.8 c -4.2,0 -7.6,3.4 -7.6,7.6 0,4.2 4,7.6 7.6,7.6 3.6,0 7.6,-3.4 7.6,-7.6 0,-4.2 -3.4,-7.6 -7.6,-7.6 z m -4.5,16.5 -44,45.2 14.4,1.3 4.5,12.8 9.2,-7.8 11.2,8.2 4.7,-59.7 z m 24.1,9.7 c -4.2,0 -7.6,3.4 -7.6,7.6 0,4.2 3.4,7.6 7.6,7.6 4.2,0 7.6,-3.4 7.6,-7.6 0,-4.2 -3.4,-7.6 -7.6,-7.6 z m -346.8,14.1 c -4.2,0 -7.6,3.4 -7.6,7.6 0,4.2 3.4,7.6 7.6,7.6 4.2,0 7.6,-4 7.6,-7.6 0,-3.6 -3.4,-7.6 -7.6,-7.6 z m -186.9,4.6 -14.3,11 3.5,-0.5 c 0,0 8.7,10.1 8.7,10.8 0,0.7 5.3,-0.2 5.3,-0.2 l -3.2,-21.1 z m 222.9,6.7 c -4.2,0 -7.6,3.4 -7.6,7.6 0,4.2 3.4,7.6 7.6,7.6 4.2,0 7.6,-3.4 7.6,-7.6 0,-4.2 -3.3,-7.6 -7.6,-7.6 z m -54.6,10.9 c -4.2,0 -7.6,3.4 -7.6,7.6 0,4.2 3.4,7.6 7.6,7.6 4.2,0 7.6,-3.4 7.6,-7.6 0,-4.2 -3.4,-7.6 -7.6,-7.6 z m 315,15.3 c -4.2,0 -7.6,3.4 -7.6,7.6 0,4.2 3.4,7.6 7.6,7.6 4.2,0 7.6,-3.4 7.6,-7.6 0,-4.2 -3.4,-7.6 -7.6,-7.6 z m -30.1,11.2 c -4.2,0 -7.6,3.4 -7.6,7.6 0,4.2 3.4,7.6 7.6,7.6 4.2,0 7.6,-3.4 7.6,-7.6 0.1,-4.2 -3.4,-7.6 -7.6,-7.6 z m 307.2,1.9 15.8,17.2 0,251.9 -15.5,0.3 -0.3,-269.4 z m -616.8,1.8 c 12.9,0 27.3,1.9 31.9,9.7 7.1,8.8 -8,5.4 -20.8,7.3 -11.8,1.4 -4.9,3.8 11.7,4.8 22.9,1.4 31.9,2 35.4,7.2 1.9,4.9 0.5,8.2 0.9,13.5 l -26,-1.2 c -13.5,0 -21.4,-0.2 -25.4,0.8 -3.2,0.8 -2.3,3.4 -1.2,4.5 0.6,0.6 10.9,0.7 23,1 32.6,0.9 39.8,2 42.1,12.4 1.7,9.6 -6.1,8.1 -39.6,4.5 -14.9,-1.2 -22.9,2.3 -25.1,3.3 -3.7,1.8 10.6,3.6 15.3,2.8 2.9,-0.5 24.4,1.9 32.3,3.3 6.7,1 0.8,0.8 -2.6,4.9 -2.2,3.4 -1.5,7.2 -5,9.1 -4.3,2.3 -12.7,2.2 -27.9,2.2 -17.4,0 -25.4,4.2 -1.6,5.3 15.4,0.7 16.3,0.4 17.6,4.8 3.5,11 -3.9,12.9 -19.6,15.4 -7.5,1.3 -18.6,0.6 -27,0 -33.2,-2.4 -44.7,-10.3 -49.2,-24.9 -16.7,-54.6 3.9,-87.9 52.3,-90.6 2.7,0 5.6,-0.1 8.5,-0.1 z m 335.6,2.4 -37.5,54.5 14.4,-5.6 6.9,14.8 11.6,-8.3 11.6,7.1 -7,-62.5 z m -280.5,6.7 c 1.9,2.4 1.1,4.2 -2.1,5.9 -2.7,1.5 -7.3,0.4 -10.4,-0.9 -4,-1.7 -4.4,-8.9 -1.1,-9.7 4.7,-1 10.6,1.2 13.6,4.7 z m -271.5,-2.8 -20.5,19.6 0.6,0.8 27,-10.6 -7.1,-9.8 z m 575.4,8.4 c -4.2,0 -7.6,3.4 -7.6,7.6 0,4.2 3.4,7.6 7.6,7.6 4.2,0 7.6,-3.4 7.6,-7.6 0,-4.2 -3.4,-7.6 -7.6,-7.6 z m 279.1,6.5 c 0,0 19.1,18.9 26.9,26.8 l -7.1,0 0.2,14.9 22.6,0.3 12.4,12.2 -34.5,-0.2 0,15.2 42.7,0 -0.2,-6.5 16.9,15.3 2,168.9 -81.4,-0.3 c -0.3,-83.2 -0.1,-163.4 -0.5,-246.6 z m -558.5,18.4 c -1.2,3.7 -3.8,3.7 -8.3,1.8 -6.6,-2.7 -5.7,-10 -0.7,-10.8 9.5,-1 11.3,3.3 9,9 z m 25.6,3.1 c -4.2,0 -7.6,3.4 -7.6,7.6 0,4.2 3.4,7.6 7.6,7.6 4.2,0 7.6,-3.4 7.6,-7.6 0,-4.1 -3.4,-7.6 -7.6,-7.6 z m -26.8,5.9 c 3,0.2 5.9,1.7 7.6,3.4 4.2,4.2 2.7,8.1 -2,10.6 -5.2,2.7 -8.9,-1 -10.4,-7.2 -1,-4.2 1.4,-6.7 4.8,-6.8 l 0,0 z m 239.3,20 c -4.2,0 -7.7,3.4 -7.7,7.7 0,4.2 3.4,7.7 7.7,7.7 4.2,0 7.7,-3.4 7.7,-7.7 0,-4.3 -3.4,-7.7 -7.7,-7.7 z m -251.9,9.3 c 6.6,0.2 8.6,6.9 5.1,10.5 -4.9,4.9 -12.6,2.8 -13.7,-1.9 -0.3,-5.2 3.9,-8.6 8.6,-8.6 z m 224.6,3.1 c -4.2,0 -7.6,3.4 -7.6,7.6 0,4.2 3.4,7.6 7.6,7.6 4.2,0 7.6,-3.4 7.6,-7.6 0,-4.2 -3.4,-7.6 -7.6,-7.6 z m 27.1,5 -34.1,57.3 13.8,-5.5 8.4,11 8.6,-7.5 13,6.4 -9.7,-61.7 z m -267.8,9.6 c 6.1,0 7.8,4.8 3.4,9.2 -3,3 -6.4,3.1 -9.9,0.3 -5.3,-4.2 -1.2,-9.5 6.5,-9.5 z m 291.7,0.7 c -4.2,0 -7.6,3.4 -7.6,7.6 0,4.2 3.4,7.6 7.6,7.6 4.2,0 7.6,-3.4 7.6,-7.6 0,-4.2 -3.4,-7.6 -7.6,-7.6 z m -248.4,6 c -4.2,0 -7.3,3.4 -7.3,7.6 0,4.2 3.4,7.6 7.6,7.6 4.2,0 7.6,-3.4 7.6,-7.6 0,-4.2 -3.7,-7.6 -7.9,-7.6 z m 565.3,1.7 0,16.2 43,0 0,-16.2 -43,0 z m -564.8,14.4 -16.5,60.2 13.8,-7.8 8.6,8.8 8,-9.8 14.4,3.8 -28.3,-55.2 z m 29.3,6.5 c -4.2,0 -7.6,3.4 -7.6,7.6 0,4.2 3.4,7.6 7.6,7.6 4.2,0 7.6,-3.4 7.6,-7.6 0,-4.2 -3.4,-7.6 -7.6,-7.6 z m -53.7,3.1 c -4.2,0 -7.6,3.4 -7.6,7.6 0,4.2 3.4,7.6 7.6,7.6 4.2,0 7.6,-3.4 7.6,-7.6 0.1,-4.2 -3.4,-7.6 -7.6,-7.6 z m 589.2,4.7 0,14.5 43,0 0,-14.4 -43,-0.1 z m -353.9,19 c -4.2,0 -7.6,3.4 -7.6,7.6 0,4.2 3.4,7.6 7.6,7.6 4.2,0 7.6,-3.4 7.6,-7.6 0.1,-4.2 -3.4,-7.6 -7.6,-7.6 z m 353.9,8.1 0,15.7 43,0 0,-15.7 -43,0 z m -886.6,1.9 15.1,0.3 0.3,272.9 -14.8,-15.6 -0.6,-257.6 z m -6.3,0.6 -0.8,249.4 -28.7,-30.1 7.6,-0.1 0,-17 -24.8,-0.2 -10.5,-10.3 35.4,0 0,-16.7 -42,-0.2 0,10.1 -20.6,-22 0.3,-162.9 84.1,0 z m 540.2,7.6 -23,59.3 14.4,-8.2 7.5,7.3 7.7,-7 13.1,6.4 -19.7,-57.8 z m -603.9,2.8 -0.2,16 42.4,0 0,-16 -42.2,0 z m 629.9,3.3 c -4.2,0 -7.6,3.4 -7.6,7.6 0,4.2 3.4,7.6 7.6,7.6 4.2,0 7.6,-3.4 7.6,-7.6 0,-4.2 -3.4,-7.6 -7.6,-7.6 z m -51.9,0.8 c -4.2,0 -7.6,3.4 -7.6,7.6 0,4.2 3.4,7.6 7.6,7.6 4.2,0 7.6,-3.4 7.6,-7.6 0,-4.2 -3.4,-7.6 -7.6,-7.6 z m -179.5,2.9 c -4.2,0 -7.6,3.4 -7.6,7.6 0,4.2 3.4,7.6 7.6,7.6 4.2,0 7.6,-3.4 7.6,-7.6 0,-4.2 -3.4,-7.6 -7.6,-7.6 z m 558.1,6.1 0,16.8 43,0 0,-16.8 -43,0 z m -559,9.5 -6.4,9.8 -14.6,-5 19.9,60.2 25,-62.8 -14.3,8.2 -9.6,-10.4 z m -397.6,4.4 0,15.9 42.2,0 0,-15.9 -42.2,0 z m 956.6,14.2 0,16.6 43,0 0,-16.6 -43,0 0,0 z m -956.6,13.9 0,16 42.2,0 0,-16 -42.2,0 z m 603.3,3 c -4.2,0 -7.7,3.4 -7.7,7.7 0,4.3 3.4,7.7 7.7,7.7 4.2,0 7.7,-3.4 7.7,-7.7 0,-4.3 -3.5,-7.7 -7.7,-7.7 z m -229.6,8 c -4.2,0 -7.7,3.4 -7.7,7.7 0,4.3 3.4,7.7 7.7,7.7 4.2,0 7.7,-3.4 7.7,-7.7 0,-4.3 -3.4,-7.7 -7.7,-7.7 z m 49,1.4 c -4.2,0 -7.7,3.4 -7.7,7.7 0,4.3 3.4,7.7 7.7,7.7 4.2,0 7.7,-3.4 7.7,-7.7 0,-4.3 -3.5,-7.7 -7.7,-7.7 z m 533.9,1.1 0,15 43,0 0,-15 -43,0 0,0 z m -353.4,7 -9.1,9.6 -13.1,-3.7 29.7,55.4 15,-59.6 -13.1,8.3 -9.4,-10 z m -603.2,5.6 0,18.1 42.2,0 0,-18.1 -42.2,0 z m 397.9,8.3 c -4.2,0 -7.7,3.4 -7.7,7.7 0,4.3 3.4,7.7 7.7,7.7 4.2,0 7.7,-3.4 7.7,-7.7 0,-4.3 -3.5,-7.7 -7.7,-7.7 z m -0.5,15.7 c -3.3,2.3 -4.7,6.4 -8.1,8.5 l -13.9,-5.9 8.4,75.4 38.7,-71.3 -17.7,3 -7.4,-9.7 z m -397.4,2.5 0,18.8 42.2,0 0,-18.8 -42.2,0 z m 633.2,8.7 c -4.2,0 -7.7,3.4 -7.7,7.7 0,4.3 3.4,7.7 7.7,7.7 4.2,0 7.7,-3.4 7.7,-7.7 0,-4.3 -3.5,-7.7 -7.7,-7.7 z M 2184.7,1 c -4.2,0 -7.7,3.4 -7.7,7.7 0,4.3 3.4,7.7 7.7,7.7 4.2,0 7.7,-3.4 7.7,-7.7 0,-4.3 -3.5,-7.7 -7.7,-7.7 z m -583.7,17.7 0,18.9 42.2,0 0,-18.9 -42.2,0 z m 611.3,4.3 c -4.2,0 -7.7,3.4 -7.7,7.7 0,4.3 3.4,7.7 7.7,7.7 4.2,0 7.7,-3.4 7.7,-7.7 0,-4.3 -3.5,-7.7 -7.7,-7.7 z m 108.1,0.6 c 41,1.3 47,14.5 47.2,60 0.2,36.3 -10.6,50.5 -37.1,57.6 -9.6,2.6 -45.7,0.2 -55.9,-3.1 -0.2,-3.1 -5.3,-10.3 -6.4,-15.9 2.6,-0.7 10.8,0.4 26.4,1.9 12.6,1.2 15.9,-0.8 11.9,-3.3 -23.8,-5.6 -40,-4.1 -62.8,-8.5 -0.3,-6.8 -5.8,-14.8 -5.8,-14.8 1.2,-0.5 35.2,3.2 53.2,2.6 7.9,-0.3 3.1,-4 0,-4.7 -20.9,-3 -34.5,-2.5 -56.6,-5.3 0.6,-5.7 -2.3,-10.8 -5.8,-15.1 0,0 11.2,-0.1 34.3,0.3 12.1,0.2 22.7,0.7 28,0.5 8.9,0 8.1,-4.2 0.4,-4.7 -9.4,-1 -46.5,-1.3 -46.5,-1.3 2.8,-1.3 6.4,-17.9 4.9,-18.1 0,0 9.6,0.2 15.7,0 29.7,-1.1 34.8,-0.6 35.4,-1.8 3.9,-3.6 -6.6,-5 -17.6,-4.9 -4.7,0 -11.6,1 -11.6,-1.5 0,-2.4 -0.1,-7.2 -2.5,-12.2 18,-7.2 34.8,-8.3 51.2,-7.7 l 0,0 z m -353.5,9.3 c -4.2,0 -7.7,3.4 -7.7,7.7 0,4.3 3.4,7.7 7.7,7.7 4.2,0 7.7,-3.4 7.7,-7.7 0,-4.3 -3.5,-7.7 -7.7,-7.7 z m 292.4,1.6 c 5.1,0 6.6,9.1 1.9,10.5 -7.3,2.2 -11.3,0.5 -11,-3.8 0.2,-2.5 5.9,-6.7 9.1,-6.7 z m -242.4,7.9 c -4.2,0 -7.7,3.4 -7.7,7.7 0,4.3 3.4,7.7 7.7,7.7 4.2,0 7.7,-3.4 7.7,-7.7 0,-4.3 -3.5,-7.7 -7.7,-7.7 z m 218,8.6 c 17.3,-0.2 8.4,23.4 -5,14.9 -6.6,-4.2 -1.9,-14.9 5,-14.9 z m -274,18.8 c -0.4,0 -0.5,0.3 -0.5,1.2 l 4,71.6 41.7,-66.9 -16.6,6.2 -7.1,-10.8 -8.9,7 c -3.7,2.9 -10.7,-8.1 -12.6,-8.3 z m 257.9,7.4 c 7.8,1.1 13,8.9 7.6,12.6 -12.2,5.3 -18.7,-12.1 -7.6,-12.6 z m -18.6,15.7 c -4.2,0 -7.7,3.4 -7.7,7.7 0,4.2 3.4,7.7 7.7,7.7 4.2,0 7.7,-3.4 7.7,-7.7 -0.1,-4.3 -3.5,-7.7 -7.7,-7.7 z m 29.4,6.5 c 6.6,-0.1 9.7,9.5 3.2,12.5 -1.4,0.6 -5.5,1.1 -7.4,-0.3 -7.7,-5.6 -3.7,-11.6 4.2,-12.2 z m -286.7,11.8 c -4.2,0 -7.7,3.4 -7.7,7.7 0,4.2 3.4,7.7 7.7,7.7 4.2,0 7.7,-3.4 7.7,-7.7 0,-4.3 -3.4,-7.7 -7.7,-7.7 z m 584.9,9.6 -28.4,9.5 0,13.4 c 12.4,-3.9 19.5,-14 28.4,-22.9 l 0,0 z m -265.9,6.5 c 4.9,2.1 6.3,8.7 2,11 -3.3,1.8 -12.4,1.5 -14.6,-1.4 -5.7,-9.3 6.6,-11.9 12.6,-9.6 l 0,0 z m -267.5,2.6 c -4.2,0 -7.7,3.4 -7.7,7.7 0,4.3 3.4,7.7 7.7,7.7 4.2,0 7.7,-3.4 7.7,-7.7 0,-4.3 -3.5,-7.7 -7.7,-7.7 z m -31.4,13.2 c -3.7,0 -6.8,3 -6.8,6.8 0,3.7 3,6.8 6.8,6.8 3.7,0 6.8,-3 6.8,-6.8 -0.1,-3.7 -3.1,-6.8 -6.8,-6.8 z m 318.3,11.4 c -4.2,0 -7.7,3.4 -7.7,7.7 0,4.2 3.4,7.7 7.7,7.7 4.2,0 7.7,-3.4 7.7,-7.7 -0.1,-4.3 -3.5,-7.7 -7.7,-7.7 z m -343,0.4 -0.4,67.7 45.1,-55.4 -15.7,3.4 -6.7,-13.7 -9.7,6.3 -12.6,-8.3 z m 286.5,15.6 c -4.2,0 -7.7,3.4 -7.7,7.7 0,4.3 3.4,7.7 7.7,7.7 4.2,0 7.7,-3.4 7.7,-7.7 0,-4.3 -3.5,-7.7 -7.7,-7.7 z m 225.8,0.3 -7.4,12.6 21,-11.7 -13.6,-0.9 z m -195.3,9 c -4.2,0 -7.7,3.4 -7.7,7.7 0,4.2 3.4,7.7 7.7,7.7 4.2,0 7.7,-3.4 7.7,-7.7 0,-4.3 -3.4,-7.7 -7.7,-7.7 z m 25.8,8.2 -9.2,13.1 -12.1,-3.9 -3.6,12.4 -14.5,-0.5 47,40.9 -7.6,-62 z m -366.6,5.3 c -4.2,0 -7.7,3.4 -7.7,7.7 0,4.2 3.4,7.7 7.7,7.7 4.2,0 7.7,-3.4 7.7,-7.7 0,-4.3 -3.4,-7.7 -7.7,-7.7 z m 705.3,10.9 3.8,561 -267.4,0.6 -110.1,-150.3 c -2.3,-24.5 -0.9,-49.6 9.4,-82.5 10.8,7.5 34.3,3.4 33.5,-25.5 -0.5,-18.9 -29.7,-28.6 -44.2,-14.4 0.8,-18.3 8.2,-45.8 18.9,-53.9 7.4,6.7 9,16.6 25.6,13.8 11.8,-2 21.1,-15.2 16,-30.5 -1.3,-3.9 -2,-8.6 -2,-11.8 0,-3.2 0.3,-8.8 -0.3,-12 -0.8,-4.2 -1.1,-8.7 -1.1,-8.7 142.4,-44.7 244.2,-116.2 317.9,-185.8 z m -651.7,9.7 c -4.2,0 -7.7,3.4 -7.7,7.7 0,4.2 3.4,7.7 7.7,7.7 4.2,0 7.7,-3.4 7.7,-7.7 0,-4.3 -3.4,-7.7 -7.7,-7.7 z m -36.1,7.5 c -4.2,0 -7.7,3.4 -7.7,7.7 0,4.2 3.4,7.7 7.7,7.7 4.2,0 7.7,-3.4 7.7,-7.7 0,-4.3 -3.4,-7.7 -7.7,-7.7 z m 378.9,3.6 c -4.2,0 -7.7,3.4 -7.7,7.7 0,4.2 3.4,7.7 7.7,7.7 4.2,0 7.7,-3.4 7.7,-7.7 0,-4.2 -3.5,-7.7 -7.7,-7.7 z m -406.3,8.2 -11.9,71.3 52.1,-53.3 -14.2,-0.3 -2.8,-12.2 -13.3,4.3 -9.9,-9.8 z m 354.4,15.2 c -4.2,0 -7.7,3.4 -7.7,7.7 0,4.2 3.4,7.7 7.7,7.7 4.2,0 7.7,-3.4 7.7,-7.7 -0.1,-4.2 -3.5,-7.7 -7.7,-7.7 z m 33.8,8.3 c -4.2,0 -7.7,3.4 -7.7,7.7 0,4.3 3.4,7.7 7.7,7.7 4.2,0 7.7,-3.4 7.7,-7.7 0,-4.3 -3.5,-7.7 -7.7,-7.7 z m -420.7,9.3 c -4.2,0 -7.7,3.4 -7.7,7.7 0,4.2 3.4,7.7 7.7,7.7 4.2,0 7.7,-3.4 7.7,-7.7 0,-4.2 -3.5,-7.7 -7.7,-7.7 z m 451.1,5.8 -12.5,9.5 -11.5,-7 -2.7,15.1 -9.8,5.1 41,28.8 -4.5,-51.5 z m 30.4,20.4 c -4.2,0 -7.7,3.4 -7.7,7.7 0,4.2 3.4,7.7 7.7,7.7 4.2,0 7.7,-3.4 7.7,-7.7 -0.1,-4.3 -3.5,-7.7 -7.7,-7.7 z m -433,2.6 c -4.2,0 -7.7,3.4 -7.7,7.7 0,4.2 3.4,7.7 7.7,7.7 4.2,0 7.7,-3.4 7.7,-7.7 0,-4.3 -3.5,-7.7 -7.7,-7.7 z m -34,10 c -4.2,0 -7.7,3.4 -7.7,7.7 0,4.2 3.4,7.7 7.7,7.7 4.2,0 7.7,-3.4 7.7,-7.7 0,-4.3 -3.5,-7.7 -7.7,-7.7 z m 447.3,20.2 c -4.2,0 -7.7,3.4 -7.7,7.7 0,4.2 3.4,7.7 7.7,7.7 4.2,0 7.7,-3.4 7.7,-7.7 0,-4.3 -3.4,-7.7 -7.7,-7.7 z m -32,6.9 c -4.2,0 -7.7,3.4 -7.7,7.7 0,4.2 3.4,7.7 7.7,7.7 4.2,0 7.7,-3.4 7.7,-7.7 -0.1,-4.3 -3.5,-7.7 -7.7,-7.7 z m -296.5,10.9 c 0,0 0.1,0 0.1,0.1 0.9,0.9 3.5,7.9 1.2,11.4 -1.2,-0.6 -6.7,-5.7 -5.3,-7.4 0.7,-0.9 3.3,-4.1 4,-4.1 l 0,0 z m -173.7,12 c 0,0 7.4,0.4 9,1.1 0,1.9 -1.8,6 -3.8,10.7 -10,23.1 -11.5,49.1 -1.4,74.1 15.9,33.9 60.9,114.2 57.6,121.5 l -99.4,0.4 0.4,-15.1 c 27.9,-1.1 32.3,-18.2 25.3,-32.3 -4.8,-9.8 -18.4,-15.4 -30.7,-10.2 -17.9,7.4 -19,16.2 -25.3,29.9 l -2.8,-3.6 c 5.4,-7.1 7.2,-14 6.7,-21.8 -0.4,-7.7 -0.7,-5.5 2,-9.7 15.6,-16.7 5.4,-38.5 5.4,-38.5 -1.8,-13.5 46.6,-98.7 57,-106.5 l 0,0 z m -227.2,2.2 c 28.3,22.5 52.7,98.2 51.3,99.4 -1.3,-1.1 -22.8,24.3 0.3,48 0,0 -1.4,14.2 3,21.5 -10.2,21.2 -12,22.8 -12.9,40.2 -0.2,-0.1 -1.8,-0.2 -11.3,-0.3 -46.8,-0.2 -49,59.3 -2.2,62.6 6.4,0.4 8.6,-1 12.5,2.8 3.9,4.9 7.4,9.7 14.1,7.2 1.6,0 4.2,1.5 6.8,4 4.5,6.1 11,10.4 20.3,8.8 3.3,0.3 6.7,1.3 10.3,2.6 4.1,3.2 11.2,5.7 16.8,3.3 1.7,-0.7 4.8,-1 7.4,0.2 6.8,3.1 13.7,1.2 16.2,-0.8 6.3,-3.3 7.7,2 7.4,6.8 -3.2,11 3.8,21.4 14.5,25.4 22.5,6.9 33.8,-6.9 38.7,-34.3 1.2,-6 2.3,-13.2 2.3,-13.2 l 75.3,2 -108.1,125.3 -184,2.3 -1,-413.9 c 8.1,-0.6 14.2,0.1 22.3,0.1 z m 676.9,22.3 c 13.7,5.3 14.8,15 1.2,10.8 -22.2,-6.8 -46.1,6.7 -51.1,26.1 -0.9,3.6 -1.9,6.3 -2.5,7 -3.1,3.8 -3,0.3 -2,-10.4 1.8,-20.9 16.6,-36 35.8,-36.7 6.3,0 13.1,1.3 18.6,3.2 l 0,0 z m -6.8,14.8 c 5.7,0 11.8,1.7 16.4,5.6 5.2,5.7 3.6,9.4 -0.3,9.2 -18.6,-7.8 -42.3,1.6 -51.5,25.1 -5.7,14.4 -6.7,6.7 -4.2,-4.5 4.5,-20.1 19.9,-35 39.6,-35.4 l 0,0 z m -129.4,5.6 c -8.1,0 -15.8,1.6 -19.8,5.3 -7.5,7 -1.3,7.2 12.3,2.5 6.6,-2.3 19.2,-1.2 27.3,1.6 6.8,2.3 9.2,3.3 8.8,1.2 -0.4,-6.4 -15.1,-10.7 -28.6,-10.6 z m 151.6,23.5 c 3.4,7.8 1.2,21.6 -10.7,23 -14.1,1.6 -21.4,-22 4.4,-17.9 -3.3,-9.5 -14.9,-6.8 -20.6,-4.4 -11.6,5.1 -19.5,16.5 -26.7,37.5 -2.1,6.2 -3.7,9.5 -4.5,8.8 -1.3,-1 -2,-10.7 1.1,-22.3 5.6,-21 19.3,-33.7 33.7,-34.1 9.5,-1.4 20.4,2.6 23.3,9.4 l 0,0 z m -201.7,-9.1 c -1.3,0.3 0.9,4.7 4.4,11.5 1.9,3.8 3.2,8.7 3.2,9.7 0,3.7 2.8,4.6 7,2.3 4.8,-2.8 5.6,-4.8 12.5,-1.8 6.5,3.4 12.8,5.5 18.7,2.1 3.2,-1.9 5.3,-1.8 11.5,-0.2 7.4,1.9 8.4,2.2 13.9,-0.1 7,-2.9 15.4,-0.9 17.2,1.1 1.7,1.9 0.7,-0.7 4.5,-9.6 1.8,-4.1 4.3,-9.1 3.6,-10.5 -0.9,-1.9 -7.4,0.2 -14.3,2 -3.8,1 -7.4,0.7 -14.6,-1.3 -15.3,-4.3 -24.9,-3.1 -34.5,1.5 -5.3,2.5 -18.7,-1 -32.3,-6.5 -0.3,-0.2 -0.6,-0.2 -0.8,-0.2 l 0,0 z m 30.1,40.9 c -6.9,-0.1 -13.1,4.2 -16,10.2 -3.3,8.3 2.3,23.2 10.9,24.5 7.7,1.1 7.4,-3.5 3.5,-4.8 -5.8,-1.9 -12.7,-10.3 -8.3,-17.5 3.1,-5 12.3,-5 18.7,1.2 12.9,12.4 27.7,13.2 30.5,2.5 0.8,-4.3 -2.4,-10 -7.5,-8.5 -3.9,1.2 -12.9,1.6 -20.5,-3.6 -3.8,-2.7 -7.7,-3.9 -11.3,-4 z m 136.4,39.4 c 33,-2 18.8,43.1 -0.2,31.5 -6.8,-4.1 -3.8,-19.3 14.3,-19 -17.7,-13.8 -29.8,3 -25.5,21.9 -4,6.2 -5.1,17.9 -7.7,24.5 -4,7.6 -7.2,-12.3 -3.1,-31.5 3.9,-18.5 10.6,-26.7 22.2,-27.4 l 0,0 z m -186.5,1.6 c -6.8,0.1 0.2,7.4 1.3,8.3 20.5,16.1 30.6,26.1 14.1,20.8 -26.9,-6.4 -33.8,1.2 -54.2,10.2 -3.8,1.8 -4.8,0.7 -9.3,-0.7 -18,-5.3 -16.7,6 2.1,16.1 28.3,15.4 51.8,18.8 73.8,7.3 14.2,-7.4 14.9,-2.6 1.7,5.6 -22.5,13.1 -46.3,11.1 -82.7,-11.5 -11.8,-7.3 -13.4,-2.4 -1.4,5.3 27.5,16.6 64.5,31.7 94.8,7.2 5.9,-5.3 7.1,-8 11.7,-5.8 12.1,6 8.1,-4.5 -0.1,-14.4 -2.9,-3.5 -5.1,-6.3 -4.9,-8.7 0.7,-8.6 -4.1,-8.6 -8.4,-8.3 -5.2,0.3 -4.6,-1.5 -11,-8.5 -9.4,-10.2 -20.7,-21.1 -27.5,-22.9 z m -274.6,45.7 c -11.4,0.9 -14,1.4 -11.3,24.8 0.5,4.4 2.5,17.6 3,22.5 6.8,61.3 1.3,88.4 -15.8,95.9 -6.1,2.7 -12.2,1.7 -16.7,-0.1 -10.8,-4.3 -15.3,-17.4 -7.4,-33.1 2.1,-4.2 4.7,-10.7 5.7,-14.5 1,-3.8 3.3,-12 5.1,-18.3 4.3,-15.4 6.6,-38.7 4.1,-61.1 -1.7,-15.2 -1.3,-16.4 2.4,-26.7 8.3,-15.1 13.7,-22.8 31.1,-23 19.7,2.1 25.2,31.7 -0.2,33.6 l 0,0 z m 419.8,-1.4 -5.3,0.3 c -6.4,-21.4 -19.9,-14.5 -22.1,0.5 l -4.5,0 c 0.7,-28.6 36.5,-20.9 31.9,-0.8 l 0,0 z m -501.8,-16 c 36.5,3.6 43.1,12.7 46,56.7 0.3,21.3 -1.1,34.2 -4.4,39 -5.5,2.6 -10.7,-2.3 -18.5,2.7 -4.3,2.6 -3.5,2.9 -5.3,0 -1.7,-2.7 0.3,-13.9 3.1,-22.9 2.7,-8.6 -1.9,-13.5 -14,-24.5 -3.3,-3 -6.1,-7.1 -9.1,-13 -6.3,-16.9 -9.5,-9.4 -4.2,5.1 2.6,6.3 3.2,9.4 -4.7,6.7 -4.6,-1.6 -8.7,0.3 -12.2,2.2 -10,2.5 -18.6,-2.9 -10,-6.2 5.3,-2 14.8,-4.9 17.7,-4.9 2.1,0 3.2,-0.5 3.2,-1.5 0,-4.2 -19.3,-3.8 -34,1.3 -18.1,8.3 -19.1,6.8 -17.5,-6.1 4.3,-32.8 34.9,-36.8 63.9,-34.6 z m 356.6,2.9 c 9.3,-0.4 17.9,10.3 16.2,19.3 l -4.4,-0.3 c -2.1,-17.1 -18.2,-17.8 -22.5,1.3 l -6.4,0.2 c 4,-14.7 10.8,-20.2 17.1,-20.5 l 0,0 z m 108.5,0.3 c 3.7,2.2 1.1,8.1 -2.8,9.3 -1.5,0.4 -6.2,-2.9 -5,-4.9 2,-2.4 5.2,-3.6 7.8,-4.4 z m 41.8,2.9 c 2.6,0 5.9,1.3 6.3,4.8 0.1,5 -3.7,4 -5,3.6 -2.5,-2.4 -3.5,-8.2 -1.3,-8.4 l 0,0 z m -127.9,4.1 c 6.8,0.8 9.3,9.4 1.6,9.9 -3.5,0.7 -3.6,-7.9 -1.6,-9.9 z m -41.6,0.9 c 0.8,0 -0.4,7.1 -2.2,8.1 -3.4,2.1 -7.7,-0.2 -7.5,-2.3 0.4,-5.1 6.6,-5.8 9.7,-5.8 z m 119.3,17.1 c 13,4.9 29.9,9.7 45.9,4.2 5.8,-2.2 10.5,-4.8 10.4,-2.3 0,2.6 -4.6,6.5 -12.9,8.8 -17.1,4.8 -29.6,2.9 -41.3,-5.9 -3.4,-2.5 -4.5,-4.8 -2.1,-4.8 l 0,0 z m -5.4,7.4 c 21.1,12.3 40.2,13.5 57.4,4.6 6.9,-2.4 7.2,-0.2 7.2,4.3 -31,27.1 -69.6,-1.1 -64.6,-8.9 l 0,0 z m -518.4,18.8 c -5.2,10.6 -8.1,36.6 -16.6,44.3 -58.4,-3.4 -20.8,-80.4 16.6,-44.3 z M 2013,570 c -3.3,1.7 -0.4,10 4.8,12.3 44.6,19.2 67.5,21.5 92.9,12.7 10.5,-3.7 16.3,-12.3 16.8,-16.4 0.6,-5 -6.2,-5.5 -18.1,-0.2 -36.2,14.2 -58.9,3.1 -88.1,-7.9 -2.7,-1.1 -5.4,-1.4 -8.3,-0.5 l 0,0 z m -170.9,0.6 -0.2,65.1 -42.5,-0.8 0.5,-9.6 31.8,0.9 -0.5,-46.5 -36.9,-0.3 -0.1,-8.6 47.9,-0.2 0,0 z m 9.9,0.2 42.4,0.1 2.1,6.6 -44.5,0 0,-6.7 0,0 z m -171.1,20.6 c -2.8,2.5 -7.7,3.1 -9.7,1 -4.5,-4.5 0,-12.9 7.2,-12.8 7.2,0.1 7.8,7 2.5,11.8 l 0,0 z m 19.5,-10.5 c 6.4,0 8.5,6 3.7,10.8 -3.3,3 -5,3.2 -8,1 -3.7,-3.3 -1.8,-11.6 4.3,-11.8 z m -41.8,1.6 c 1.7,-0.1 3.2,0.1 4.3,1.8 3.9,8 -8.9,13.5 -11.6,7.6 -2,-4.9 3,-9.3 7.3,-9.4 l 0,0 z m 239.8,0.8 2.5,8.4 -48.9,0.2 0,-8.4 46.4,-0.2 z m -175,2.5 c 7.3,0.9 6.2,8.2 2.8,11.5 -5.8,5.4 -11.4,3.6 -10,-3.6 1,-4.6 3.9,-7.9 7.2,-7.9 l 0,0 z m -39.3,23.9 c -2.6,9.2 2.9,27.7 1.3,29.6 -3.6,4.2 -9.3,2.1 -11.8,0.6 -8.8,-5.7 -9.4,-38.9 -0.8,-40.9 5.5,2.8 9.2,-2.2 11.7,-2.9 2.4,-0.6 0.8,3.9 -0.4,13.6 l 0,0 z m 129.2,-13.6 c 4.8,0 8.7,3.9 8.7,8.7 0,4.8 -3.9,8.7 -8.7,8.7 -4.8,0 -8.7,-3.9 -8.7,-8.7 0,-4.8 3.9,-8.7 8.7,-8.7 z m 38.7,1.1 50,0 c 3,4.2 2.7,7 1.8,9.9 l -51.8,0.1 0,-10 0,0 z m -146.8,1.2 c 2.3,0 3.4,4.9 1.9,10.4 -2.8,10.1 -2.6,23.8 -0.7,29.7 1.3,4.1 2.5,6.9 1.8,8.1 -2.6,4.1 -10.5,1.3 -13.9,-4.1 -8.2,-15.2 -6.9,-43.6 2.9,-41.4 3.6,1.8 5.7,-1.1 8,-2.7 l 0,0 z m -44.1,3.8 c -2.4,3.9 -0.7,25.5 -0.9,27.3 -0.3,2.3 -6.5,1.1 -9.9,-0.5 -8.5,-4 -6.2,-14.1 -4.5,-22.3 1.9,-6.4 5.9,-6.9 11,-7.5 2.6,-0.2 6.3,0 4.3,3 l 0,0 z m 68,1.2 c 2.7,-0.1 3.1,1.9 2.5,9.9 -0.5,6.3 -0.7,11.6 0.3,17.5 2.2,12.6 2.4,16 -0.7,18.4 -3.7,2.9 -8.8,2 -12.7,-1.4 -8,-6.4 -8.6,-37.6 -2.3,-40.3 5.8,1.6 9.5,-3.1 12.9,-4.1 l 0,0 z m 172.7,9.4 -7.2,9.9 -42.6,0 0,-9.8 49.8,-0.1 0,0 z m -152,13.2 c 6.7,0.1 5.6,11.8 2,19.2 -3,4.5 -5.3,4.9 -9.8,0.7 -5.2,-4.7 0.9,-19.9 7.8,-19.9 l 0,0 z m 139.5,3.3 -6,5.5 -31.3,0 0,-5.5 37.3,0 0,0 z"
           id="path3874" /><path
           style="fill:#d40000"
           d="m 2660.1,873.4 0,-19.5 19.9,0 42.2,-64.7 -45.4,-100.6 -16.7,0 0,-21.3 64.3,0 0,21.3 -20.7,0 31.8,78.5 23.1,-30.4 0,-48.1 -17,0 0,-21.3 57.5,0 0,21.3 -20,0 0,165.3 20,0 0,19.5 -57.5,0 0,-19.5 16.3,0 0,-76.4 -53.8,76.4 20.3,0 0,19.5 -64.3,0 z M 2379.2,721.9 c -47.2,-17 -66.5,-75.9 -39.7,-134.1 35.9,-77.9 89.4,-127.9 125.1,-201.4 -0.4,0 70,103.4 98.1,141.8 60.3,87.1 57.3,158.7 -1.1,187 -42,20.3 -85,-3 -89.9,-46.9 -0.8,-6.8 -1.2,-7.8 -4.4,-7.8 -3.5,0 -4.2,2.4 -5,12.6 -3.5,39 -45.9,62.2 -83.1,48.8 l 0,0 z m 290.6,-151.7 c 18.3,-43.1 39.6,-66.1 61.9,-111.8 18,35.3 51.3,73.4 62.5,109.1 8.4,27.6 1.9,50 -16.1,56.7 -20.9,7.8 -36.6,-1 -40.8,-20.6 -1.7,-7.9 -5.6,-7.1 -5.9,-1.2 -0.7,19.2 -22.9,27.7 -40.6,22.6 -10.2,-2.8 -28.4,-23.6 -21,-54.8 z M 1680.1,394.6 1628.3,354 c 61.6,-1.3 123.2,0.1 184.8,1.1 l -61.5,43.8 c -12.6,-13.8 -20,-32.3 -37.9,-41.2 -13.3,5.5 -22.4,24.5 -33.6,36.9 l 0,0 z m 454.5,-14.2 c -1,-0.2 -1.9,-0.3 -2.5,-0.6 -1.4,-0.9 -2.3,-2.9 -3.4,-9.4 -15.4,-71.7 -91,-66.6 -90.5,-64.5 -0.6,-2.8 94,-88.2 149.5,-155.1 16.8,51.2 67.7,168.1 65.6,167.7 0,0 -14.7,0.1 -52.9,-0.8 -34.8,15.7 -58.9,31 -57.8,53.1 -0.2,7.8 -2.1,11 -4.7,10.4 -0.3,-0.3 -1.8,-0.6 -3.3,-0.8 l 0,0 z m 169.7,-230.9 c 49.2,-0.8 58.4,-24.8 64.1,-27.7 32.3,-5.3 52.3,15.7 66.4,38.2 18.1,10.9 15.8,0.8 19.6,-16.1 l 45,-13.2 0,14.3 c -13.9,7.5 -34.5,26.7 -34.5,26.7 l -13.7,-0.8 -7.9,10.5 c -31.3,16.9 -61.9,37.1 -94.9,50.1 -0.1,0 -39.6,-51 -44.1,-82 l 0,0 z m -612.7,4.5 -0.5,-283.6 c 20.3,-1.4 57.8,-1.2 57.8,-1.2 15.7,-27.6 37,-40.6 59,-56.7 3.1,35 4.3,68.3 3.6,103.3 -58.3,71.1 -90.6,158.7 -54.7,289.5 l -21.6,-2.4 -43.6,-48.9 z m 322,15.9 c 16.6,-59.2 29.5,-119.2 34.8,-181.1 l 110.9,-1.6 2.2,38 -147.9,144.7 z m 377.8,-129.1 -2.1,-106.1 c 81,-96.7 85.8,-181.1 55.7,-287.7 26.7,6.2 40.5,27 66,55.7 l 0,276.7 c -17.7,2.6 -61.6,5.2 -61.6,5.2 -1.2,12.9 -38.3,43.9 -58,56.2 z m -342.8,-167.2 -4.9,-46.8 144.2,-137.7 c -11.9,59.7 -26.3,120.9 -30.5,184.4 l -108.8,0.1 z m -239.2,-146.2 c -10.3,6.7 -48.2,-32.7 -54.4,-59.2 9.5,-12.8 93,-53.7 93,-53.7 0,0 48.8,62.6 46.8,88.7 -21.7,5.8 -40.5,7.4 -56.9,25.1 -9.5,0.9 -12.8,-9.7 -28.5,-0.9 l 0,0 z m -65.8,-52.9 c 11.6,1.9 4.2,17.5 2.4,29 l -61.3,18.2 c 21,-18 35.9,-33.3 58.9,-47.2 z m 199.7,-138.4 c 12.6,-0.4 25.8,4.8 35.5,0.9 3.6,-1.4 10.9,-3.6 18.9,-2.1 18.3,5.7 24.8,-14.5 36.5,-14.6 15.1,0 23.5,-10.5 23.6,-31.7 0,-9.2 0.8,-10.2 2.5,-11.1 5.2,-2.7 10.7,1.1 11.4,6.1 10.8,39 38.2,74.1 81.4,71.3 -34.4,35.1 -139,142.8 -139,142.8 -18.9,-57.4 -44,-110.9 -70.8,-161.6 z m 445.1,-33.7 63,-45.7 37.7,45.9 32.6,-43.7 c 19.2,13.7 62.8,44.3 62.8,44.3 0,0 -130.7,2 -196.1,-0.8 l 0,0 z m -657.1,-23.3 c 13.3,9.4 -126.3,-160 -142.4,-219.8 -12.1,-35.3 -3,-78.4 23.3,-96.9 44.5,-31.3 96.7,-18.8 106.6,33.9 2.8,14.9 7.5,13.2 9.1,0 5.9,-67.1 88.4,-72 120.1,-25.2 21.7,32 21.9,83 -9.6,134 -7.6,16.2 -107.8,169.3 -107.1,174 z m -266.5,-64.6 c -18.7,-36.5 -46.5,-73.2 -61.2,-107.3 -11,-27.8 -1.7,-56.7 18.9,-62 20.3,-5.3 35,3.1 38.9,22.1 1.3,6.4 3.9,6.9 5.1,1 7.6,-35.9 58.2,-28.1 61.7,9.5 2.2,23.9 -4,39.7 -33.6,85 -7.1,14.7 -26.4,36 -29.8,51.7 z m 9.9,-230.3 21.1,0 -30.9,-75.9 -23.7,32.1 0.1,43.9 16.6,0 0,22.6 -58.5,0 0,-22.6 19.3,0 0,-163.3 -19.3,0 0,-19.8 59.4,0 0,20.4 -16.4,0 -0.4,79.6 51.9,-80.3 -18.3,0 0,-19.8 63.2,0 0,19.8 -16.7,0 -42.7,65.6 41.8,97.7 18.6,0 0.1,22.6 -65,0 -0.2,-22.6 z"
           id="path3872" /><path
           d="m 2424.2,-912.2 -579.4,3.7 112.6,150.4 c 119.6,-24.4 223.7,-8.5 331.8,10.3 l 135,-164.4 z m -14.8,7.6 -38.6,47.9 c -10.7,-9.6 -34.5,-6.2 -31.1,14.9 -29.6,-15.4 -35.8,26.8 -10.7,25.1 -3.1,8.3 -28.5,10.5 -35.6,-4.6 -26,14.6 -34,0.4 -40.8,-8.8 33.1,22.4 49.1,-23.7 12.8,-26.3 14.3,-28.9 -36.7,-42 -33.7,-4.4 -33.6,-7.6 -25.9,39.7 -1.2,30 -16,24.1 -42.4,7.9 -47.7,3.2 -13.5,10.1 -39.1,10.5 -46.3,-5.8 37.4,7.5 33.3,-41.8 0.1,-30.4 17.7,-37.8 -41.2,-32.8 -26.9,-1.8 -33.5,-1.3 -26.1,40.1 3.3,33 -26.2,24.7 -45.8,1.7 -49.9,1.2 -15.5,17.1 -42.7,7.7 -46.4,-2.4 26.7,10.5 35.4,-34.3 1.8,-31.6 8.6,-28.9 -39.8,-32.4 -29.1,0.4 -26.7,-6 -28.1,36.7 1.8,30 1.9,11.7 -21.7,22.9 -36.1,11.6 -10.6,5.8 -22.2,14.8 -36,1.5 21,-3.4 24.5,-38.9 -9.5,-31.3 1.6,-21.8 -10.9,-23 -26.4,-17.5 l -24.8,-33.6 551,-0.3 z m -399.7,53.6 c -1.8,4.1 -5,6.8 -4.2,9.9 0.6,2.5 3.2,6.1 6.9,10.8 29,37.8 87.8,36.5 105.4,-2.4 3.6,-7.2 2.9,-8.9 -1.5,-15 -5.2,-7.4 0.7,-15.4 7.1,-14.7 9.6,1 11.2,9.3 6.6,15.3 -10,12.6 17.5,41.1 44.9,45.6 35.2,5.7 68.5,-19 63.9,-41.2 -0.3,-1.3 -0.9,-2.5 -1.2,-3.8 -3.7,-18.6 25.7,-9.7 15.1,2.2 -4,4.3 -6.1,5.5 -5.6,10.3 8.5,39.3 56.3,43.4 79,31.3 -29.3,47.9 -75.8,11 -84,-22.5 -41.2,59.5 -90.7,47.1 -118.3,-5.2 3.3,3.3 -54.3,93.7 -119.7,1 -27.7,74.6 -78.1,24.2 -74.7,21.1 23.2,12.9 65.3,8.2 69.3,-31.7 0.6,-4.9 -3.2,-5.2 -5.3,-9.1 -10.9,-19.8 24.4,-19.9 16.3,-1.9 l 0,0 z m -109,4.9 c 5.2,0.5 6.1,2.7 5.3,8 l -5.3,-8 z m 449.6,14 -7.6,9.5 c -1.8,-4.6 -1.8,-8.9 7.6,-9.5 z m 82.6,3.2 c -18,0.8 -31.9,25.7 -31,58.9 0.4,16.1 3.3,56.5 4.4,62.5 1.5,8.4 -0.1,19.8 -3.1,21 -7.8,3.2 -10.7,5.2 -12.8,8.9 -5.5,9.7 -0.9,20.6 10.6,25.5 8.2,3.5 18.7,-1.3 25.8,-11.9 3.9,-5.9 4.8,-8.5 8.3,-23.2 1.6,-6.8 1.5,-18 -0.4,-28.3 -4.2,-23.5 -1.1,-52.7 7,-66.4 14.5,-24.6 14.2,-40.7 -0.8,-45.8 -2.7,-0.9 -5.4,-1.3 -8,-1.2 z m -0.9,3.7 c 21,0.1 20.4,21 8.8,27.4 -4.5,2 -10,2.5 -15.5,-1.1 -6.2,-3.6 -5.3,0.5 1.1,5.2 7.5,5.5 10.7,5.1 6.7,17.9 -3.8,11.9 -5.7,37.7 -3.7,52.4 5.6,40.1 0.9,60.1 -16,67 -8.3,3.4 -17.3,-1.4 -19.6,-8.1 -3.6,-10.5 2.8,-19.4 18.7,-16.9 0,0 1.1,-3.3 -3,-38.1 -5.7,-48.4 -3.5,-82.2 5.4,-94 4.7,-6.3 10.8,-11.7 17.1,-11.7 l 0,0 z m 142.3,49.9 c -4.9,0 -10.2,1.4 -15.6,4.4 0,0 -0.6,21.8 -1.2,25.1 -3.6,18.4 -2.5,20.6 6.1,23.2 20.8,6.3 37.9,-7.5 37.2,-29.1 -0.5,-12.2 -11.8,-23.7 -26.5,-23.6 z m 2.8,3 c 11.4,-0.3 21.7,13 20.6,25.5 -0.6,15 -14.9,23.2 -27.8,20.6 -3.8,-0.6 -7.7,-1.3 -9,-4.2 -2.6,-4 1.6,-5.4 10.2,-5.4 9.5,0 11.2,-1.3 14.4,-6.6 6.2,-10.5 -1.7,-23.8 -11.9,-21.3 -3.5,0.9 -4,2.4 0.1,3.6 12.5,5.6 7.8,13.4 3.5,16.6 -5.1,3.8 -13.6,-1.4 -15.1,-4.5 l 0.9,-20.3 c 0,-0.1 4.1,-3.9 14.1,-4 l 0,0 z m -128.3,94.1 c 0,0 -4.7,2.3 -7,4.4 -5,4.6 -6.1,11.7 -3.6,18.6 1.1,3.1 0.9,3.6 -2.9,8.6 -10.9,14.2 -12.3,21.3 -6.7,34.1 2.5,5.8 2.6,5.8 0.2,13.5 -10.3,33 -30.5,70.3 -52.2,96.2 -3.3,4 -4.7,8.1 -4.7,8.1 0,0 5.1,-0.3 7.9,-1.7 22.4,-11.1 46,-32.7 67.9,-46.8 -34.7,28.2 -71.7,53.4 -71.7,53.4 l 47.3,2.5 c -11.9,12.2 -219.1,187.7 -164,502.6 64.7,-16.1 94.8,-42.8 129.3,-73.6 0.3,25.4 0.9,93.7 1.1,93.7 0.7,-1.1 -29.9,-11.5 -22.7,13.7 4.3,13.8 6.5,48.8 -1.2,68.5 -0.3,0.8 3.3,2.2 2.9,2.9 -0.4,0.9 -4.9,0.9 -4.9,0.9 -11.7,21.9 -42,26.7 -56.9,26 -5.5,-0.5 -3.3,7 -2.6,9.7 2.8,11.3 15.8,35.4 40,74.2 l 6.4,0.8 -3.7,3.4 c 2.9,5.2 10.5,15 10.5,15 l 0.3,3.3 c 0,0 13.3,18.5 20.5,27.2 0.5,0.6 1.6,-0.8 2.1,-0.2 4,4.8 8.7,10.1 12.8,14.9 0.3,0.4 -0.6,1.7 -0.3,2.1 7.6,8.3 22.5,25 22.5,25 l 3,-0.7 11.7,13.2 c 97.3,-44.3 199.1,-142.2 198,-142 l 0.8,-210.7 -115.3,-0.3 -0.5,-279.2 115.1,113.8 -0.8,-32.7 c -26.1,-24.8 -131.1,-130.7 -131.1,-130.7 15.3,-2.1 30.1,-7.1 44.4,-14.9 25,13.8 51.8,22 82.5,18 l -0.1,-31 c -34.8,-0.1 -56.4,-11.6 -72,-25.5 l -21.5,-0.7 c -39.7,30.2 -67.8,16.2 -98,10.3 l -20.9,-30.1 213.8,-1.1 -1.5,-73 -32.5,0.7 -21.1,-15.6 24.6,10.4 c 0,0 -0.4,-4 -5.3,-11.7 -13.2,-21.5 -29.9,-53.2 -39.9,-80.9 -4.9,-14 -4.8,-13.5 -0.8,-21.7 5.6,-11.3 4.4,-25 -3,-32.7 -5.2,-5.4 -5.1,-6.6 -3.3,-10.6 6.9,-16 -9.8,-21.9 -9.9,-20.9 -35.8,13.9 -83.9,-0.3 -83,-0.7 l 0,0 z m 83.3,5.8 c 7.2,-0.1 7.9,3.1 7.9,8.4 -0.6,9.8 -13.3,13.3 -19.1,14.7 -27.5,6.3 -75.4,2.6 -78.5,-10.3 -2.3,-9.4 3.6,-14.6 23.1,-10 31.4,6.8 50.8,-0.5 66.6,-2.8 z m -88.7,27.2 c 2.9,0 6.3,2.9 7.3,7.6 0.8,4 -3.4,16 -6.9,18.7 -8.7,6.8 -16.6,-3.8 -10.8,-15.3 3.3,-6.6 6.7,-11 10.4,-11 l 0,0 z m 93.7,1.3 c 1.3,0 3.6,0.3 5.2,1.4 6.9,4.9 7.6,21.8 1.1,24.3 -6.6,2.5 -12.7,-4.4 -12.7,-15.2 0.1,-6.6 2.5,-10.6 6.4,-10.5 z m -21.9,3.5 c 1.4,-0.1 2.9,0.2 4.4,0.9 5.8,2.7 8.6,20.4 2.8,26.1 -4.4,4.4 -14,4.2 -16.8,-5 -3.2,-10.8 2,-21.6 9.6,-22 z m -48.7,0.5 c 8.4,0.1 10.4,18.8 2.1,26.6 -6.9,6.5 -17.5,0.1 -14.2,-12.7 1.7,-6.4 5.4,-13.4 12.1,-13.9 l 0,0 z m 24,3 c 12.4,2.1 11.3,32.4 -4.9,29.3 -9.2,-6.4 -9,-28.8 4.9,-29.3 z m -54.1,32.4 17.5,1.6 c 0,0 -22.6,48.9 -43.3,67.6 -7.7,7.8 -12.2,8.2 -6.3,-0.2 13,-15.9 32.1,-69 32.1,-69 z m 104.7,0.3 c 10.2,27.2 20.7,54.8 34.6,82.6 -21.2,-20.4 -39.9,-51.8 -57.2,-81.2 l 22.6,-1.4 z m -82.1,2.7 11.6,0.1 c 3.8,17.6 10.5,28.8 18.3,38.5 6.8,-11.4 11.1,-24 15.2,-37.4 l 9.2,-0.1 c 3.5,2.1 -10.8,55.2 -24.8,61.7 -14.9,-12.2 -27.4,-44.8 -29.5,-62.8 l 0,0 z m -4.9,12.5 c -1,1.3 18,46.8 34,61.3 15.1,-14.6 24.7,-33.9 31.2,-56.9 l 49.7,69.7 -48.4,-33.1 c -9.7,16.1 -19.9,31.4 -32.3,44.1 -13.3,-14.4 -24.8,-31.4 -36.8,-47.6 -18.7,13.8 -31.8,28.6 -56,41.5 0,0.6 47.4,-51.1 58.6,-79 z m -4.6,49.6 33.8,41.3 -89.9,-1.3 56.1,-40 z m 73.1,0.6 56.8,39.1 -84.6,0.9 27.8,-40 z m -452.1,19.2 c 0,0 0.5,2.5 1,4 10.1,41.1 37.9,75.2 79.7,71.2 l -137.4,137.3 c 0,0 -22.7,-77 -68.7,-155.9 0,0 8.4,1.7 14.9,3 6.1,0.9 10.8,0.6 15.4,-0.6 3.5,-0.5 6.2,-2.8 9.3,-3.5 5.3,-1.1 11.9,0.8 15.5,2 9.4,1.8 15.9,-3.5 27.7,-13.9 3.1,-2.8 4.4,-2.1 8.3,-2.1 14.8,0 24.3,-12.7 22.6,-32.4 l -0.8,-8.8 -1.9,9.8 c -3.5,18.6 -6,26.6 -24.4,27.3 -4.4,0.2 -6.1,3.2 -13.2,9.2 -9.8,8.5 -16.8,9.2 -23.8,5.9 -7.1,-3.4 -7.8,-1.4 -14.5,1.8 -7.7,3.7 -18.9,3.2 -29,0.3 -14.1,-4 -12.4,-2.7 -12.4,-2.7 81.7,145.3 110.3,284.7 108.5,408.5 -2.6,176.4 -64.3,318.8 -118.4,404.7 0,0 9.3,-0.9 17.6,-2.2 4,-1.1 7.1,0 11,1.3 3.7,1.3 6.5,1.2 10.1,0.8 2.8,-0.3 9.7,0.1 14.1,0.7 10,1.4 10.7,0.1 21.7,-10.5 31.1,-30.2 29,-29 51.5,-28.3 33.8,1.1 60.8,23.4 72,59.5 1.4,4.6 3.3,11 3.5,11 l -2.2,-9.6 c -9.9,-48.4 -51.3,-66.1 -85.8,-65.5 l 145.9,-146.3 c -0.7,0.1 33.8,111.3 63.9,160.8 0,0.3 -9.1,-4 -25.9,-1.8 -9.1,1.2 -19.3,0 -25.1,-1 -7.4,-0.2 -11.9,2 -21.1,9.6 -3.8,3.3 -7.3,6.8 -14.7,10 -17.7,7.5 -24.8,15.2 -24.9,34.7 0,3.5 -0.6,8.1 -0.5,9.8 0,0.5 0,1.3 0.1,1.3 0.3,0 0.7,-0.7 1.1,-1.2 0.9,-1.3 2.7,-4.8 4.1,-13 2.5,-14.5 5.5,-19.6 19.3,-26.1 4.1,-1.9 12.8,-7.2 16.7,-10.3 12.7,-10.1 16.9,-12.4 27.2,-10 5.9,1.4 10.8,2.1 18.7,1.1 9.4,-1.1 9.9,-1.6 19.9,1 6.8,1.8 15.2,3.4 15.2,3.4 -141.2,-283.5 -136.5,-546.7 3,-813.7 0,0 -41.3,0.5 -43.1,1.6 -0.7,0.4 -5.7,0 -11.2,-1 -11.2,-2 -8.8,-0.7 -35.3,26 -32.8,33 -85.3,6.7 -101.1,-48.7 -0.8,-2.9 -1.5,-4.6 -2.8,-6.7 -0.3,-0.7 -1.3,-1.8 -1.3,-1.8 l 0,0 z m 133.7,32.5 c 6.1,0.6 10.6,2.2 9.8,7.9 l -194.7,190.7 -3,-12.3 187.9,-186.3 z m 41,1.2 c -2.4,4.7 -8.9,10.7 -11.8,15.1 l 10.6,13.2 -5.9,10.6 -16.3,-13.7 -31,30.6 25.8,29 -24.5,24.7 -8.2,-9.2 12.9,-13.5 -19.8,-18.9 -35.4,34.4 28.8,29.3 -21.2,20.3 -8.4,-8 11.1,-12.3 -18.8,-19.4 -33,33.6 26.1,29 -20.2,20 -8.9,-9.1 9.7,-10.1 -18.7,-19.5 -33.6,33.1 27.3,29.6 -20,17.9 -7.1,-7.5 9.7,-10.4 -18.3,-19.6 -20.8,18.9 -3.5,-13 206.2,-204.6 17.2,-0.5 z m 11.9,3 -8.7,17.4 -6.7,-7.4 8.8,-9 6.6,-1 z m -486.3,1.1 c -5.3,1.3 -128.1,69.7 -198,144.8 l -0.2,28 -2.6,3.3 1.3,43.3 1.8,2.3 0.6,17.7 -2.8,4.7 0,48.5 3.7,0.6 0.6,59.3 114.8,0.3 -0.1,283.4 c 0,0 -67.4,-74.1 -116,-117.8 l 0.2,33.1 128.4,132.7 c -8.8,1.2 -20.3,3.4 -37.7,12.9 -41.7,-26 -89.8,-18.1 -89.8,-18.1 l 0.2,33.8 c 30.6,-3 58.3,1.2 90.5,22.9 26.5,-18 58.4,-28.9 106.1,-14.6 10.5,16.6 21,33.7 31.4,44.8 l -227.4,1.7 0.3,68.3 c 10.1,0.2 35.3,0 35.3,0 12.8,25.1 37.9,59.3 48.4,102.3 -14.3,17.2 -13.2,31.1 0.8,48.4 -0.1,7.8 -2.5,16.5 6.3,25.2 28.9,-14.1 61.6,-7.9 85.9,-0.6 8.2,2.4 11.4,-6.9 11.1,-18.7 -0.7,-6.8 -0.7,-9.7 4.5,-14.2 12.4,-10.7 4.7,-32.8 2.8,-33.2 -0.7,-19.3 61.2,-116.1 61.2,-114.3 l -12.3,4.5 -52.9,0.2 c 139.2,-134.2 197.4,-287.4 185.3,-460.3 -2.7,-43.6 -9.5,-63.5 -9.5,-63.5 -49,21.8 -89.3,37.6 -128.5,79.6 l -2.6,-90.1 c 2.2,4.3 16.7,8.2 23.2,2.8 4.5,-2.9 4.9,-6 0.8,-17 -6,-15.9 -7.4,-49.9 -2.9,-61.5 0.5,-1.4 1,-4.9 1.3,-8.5 0.5,-4.7 -0.5,-5 -1,-4.9 1.1,-0.3 5.9,0.7 6.5,0.2 16.7,-14.7 34.7,-23.9 56.7,-24.9 l 0.6,-10.8 c -16.3,-41.2 -30.2,-57.4 -44.9,-80.4 0,0 -4.2,-1.4 -6.8,-0.8 l 3.4,-3.6 c -20.7,-32.9 -50.3,-62.9 -77.4,-91.3 -0.4,-0.5 -0.5,-0.5 -0.6,-0.5 l 0,0 z m -0.9,5.6 14.7,13.6 c -70.2,33.8 -139.5,83.2 -207.8,150.3 l 0.9,-24.7 c 77.2,-72.5 135.4,-107.3 192.2,-139.2 z m 451.1,24.7 8.8,8.8 -12.3,14.2 8,8.1 -4.4,10.8 -20.4,-21.2 20.3,-20.7 z m -438.5,1.1 c 4.6,0 8.4,3.7 8.4,8.4 0,4.6 -3.7,8.4 -8.4,8.4 -4.6,0 -8.4,-3.7 -8.4,-8.4 0,-4.7 3.7,-8.4 8.4,-8.4 z m 601,11.6 c 143.2,159.4 69.7,391 -121.5,446.6 l -2.1,-13.1 c 192.8,-65 238.1,-282.2 112.9,-418.8 l 10.7,-14.7 z m -576.2,1 9.1,10.6 c -81.6,39 -161.3,97.4 -238.2,181.7 l -0.8,-21.3 c 72.3,-76 149.6,-131 229.9,-171 z m -52.7,3.3 c 4.6,0 8.4,3.7 8.4,8.4 0,4.6 -3.7,8.4 -8.4,8.4 -4.7,0 -8.4,-3.7 -8.4,-8.4 0,-4.7 3.8,-8.4 8.4,-8.4 z m -25.5,15.7 c 4.6,0 8.4,3.7 8.4,8.4 0,4.6 -3.7,8.4 -8.4,8.4 -4.6,0 -8.4,-3.7 -8.4,-8.4 0,-4.6 3.8,-8.4 8.4,-8.4 z m 84.9,5.5 c 4.6,0 8.4,3.7 8.4,8.4 0,4.6 -3.8,8.4 -8.4,8.4 -4.6,0 -8.4,-3.7 -8.4,-8.4 0,-4.6 3.8,-8.4 8.4,-8.4 z m 363.7,5.8 8.4,8.8 -13.3,13.3 18.9,19.8 18.2,-17.5 -9.1,26.1 -160.3,160.3 -3.3,-16.8 12.6,-12.7 -19.3,-19.3 -3.4,-12.9 19,-17.8 8,8.2 -11.1,12.8 17.9,17.6 32.5,-29.9 -26.8,-29.5 22.2,-21.4 7.7,7.5 -10.6,10.9 18.7,20.2 33.4,-32 -27.4,-29 22,-21.7 8.3,8 -11.1,13.3 19,18.3 32.7,-32.3 -26.9,-28.3 23.1,-24 z m -473.6,5.6 c 4.6,0 8.4,3.7 8.4,8.4 0,4.6 -3.7,8.4 -8.4,8.4 -4.6,0 -8.4,-3.7 -8.4,-8.4 0,-4.6 3.8,-8.4 8.4,-8.4 z m 132.1,1.6 6.4,10.6 c -97.2,49.1 -164.4,98.3 -263.8,211.3 l 0,-14.2 c 76.7,-94.3 156.5,-155.1 257.4,-207.7 z m -48.8,1.3 c 4.6,0 8.4,3.7 8.4,8.4 0,4.7 -3.7,8.4 -8.4,8.4 -4.6,0 -8.4,-3.7 -8.4,-8.4 0,-4.7 3.7,-8.4 8.4,-8.4 z m 751.9,3.2 c 17.1,15.3 53.1,30.5 76.3,28.8 l 0.6,18.3 c -40.5,3.8 -75.8,-22.1 -75.8,-22.1 -31.2,19 -62.9,21.4 -96,13.2 l -12.7,-27.3 c 49.1,22.9 95.1,1.2 107.6,-10.9 z m -193.7,5 c 1.8,3.3 7.8,7.2 7.8,7.2 37.8,-9.8 49.5,29.1 31.9,51.3 l 5,16.3 c 6.7,1.2 12.6,3.6 17.4,6.9 9.2,6.4 14.2,17.4 13.1,29 1.3,12.5 -17.5,24.2 -18.5,23.3 l -0.3,17.9 c 5.3,4.4 11.6,8.7 15.7,14.9 9,15.1 5.4,30.4 -8.5,40 -8.3,5.6 -17.3,6.3 -17.6,5.8 l -8.7,20.4 c 7.7,4.3 9.8,11.7 11,17 2.6,11.4 -5.4,26.3 -15.5,31.8 -12.7,6.9 -30,0.8 -30,0.8 l -12.2,12.2 c 3.2,10.7 4.1,17.1 2.4,23.4 -4.2,15.6 -20.5,21.7 -33.6,20.5 -10.3,-0.9 -18,-8.4 -18,-8.4 l -13.7,5.3 c 0.4,0 0.2,17.4 -6.7,22.7 -2.2,2.3 -9.9,7.3 -9.9,7.3 l -1.8,-12 c 5.4,-3.9 8.8,-13.4 7.7,-20.3 l 29.6,-14.5 c 0,1.1 8.1,8.9 13.7,10.1 11.4,2.3 23.3,-6.6 23.3,-17 0,-6.1 -3.5,-10.2 -4.5,-15.2 l 25.2,-26 c 10.4,3.6 17.7,4.2 22.4,1.5 8.8,-5.1 11.2,-15.5 9.5,-21.8 -2,-7.4 -8.6,-12.3 -9.1,-13 l 14,-35.5 c 6.5,0 10.6,-1.1 15.7,-4.4 10.4,-6.8 9.1,-20.1 4.6,-26.4 -5.4,-7.7 -13.2,-9.1 -13.8,-8.9 l 1,-36.8 c 0,0.3 14.2,-6.8 15.7,-15 2.2,-12.1 -2.9,-19.8 -17.7,-23.2 -8.2,-1.9 -7.8,-0.3 -7.8,-0.3 l -11.8,-33.3 c 18.6,-11.4 12.7,-29.4 3.3,-35.5 -10,-6.4 -24,-0.5 -24,-0.5 0,0 -6.4,-6.4 -11.3,-11.5 l 5,-6.1 z m -498.3,6.7 c 12.2,16.5 33,49.4 44.5,78.9 0.5,1.3 0.3,7.8 0.3,7.8 -33,2.9 -44.4,15.8 -56.1,24.9 -9.1,-4.7 -12.9,-10.1 -29.4,0.2 -0.1,0.5 -42,-25.4 -50,-60.4 29.9,-18.5 58.5,-36 90.7,-51.4 z m -167.7,0.3 c 4.6,0 8.4,3.7 8.4,8.4 0,4.7 -3.7,8.4 -8.4,8.4 -4.6,0 -8.4,-3.7 -8.4,-8.4 0,-4.7 3.8,-8.4 8.4,-8.4 z m 79.4,1.6 c 4.6,0 8.4,3.7 8.4,8.4 0,4.7 -3.7,8.4 -8.4,8.4 -4.6,0 -8.4,-3.7 -8.4,-8.4 0,-4.7 3.8,-8.4 8.4,-8.4 z m 573.1,10.3 c 14.4,19 36.2,54.9 41.4,86.8 7.3,44.8 2.4,91.7 -18.1,124.5 -37.2,70.1 -101.8,85.1 -101.8,87.5 l -0.7,-14.4 c 0.6,3.2 49.4,-17.3 82.5,-63.7 20.5,-31.4 32.1,-76.3 28.2,-111.3 -2.5,-50.5 -38.3,-97 -38.6,-97.2 l 7.1,-12.2 z m -678.6,6.8 c 4.6,0 8.4,3.7 8.4,8.4 0,4.6 -3.7,8.4 -8.4,8.4 -4.6,0 -8.4,-3.7 -8.4,-8.4 0,-4.6 3.7,-8.4 8.4,-8.4 z m 79.3,0.2 c 4.6,0 8.4,3.7 8.4,8.4 0,4.6 -3.7,8.4 -8.4,8.4 -4.6,0 -8.4,-3.7 -8.4,-8.4 0,-4.7 3.7,-8.4 8.4,-8.4 z m 715,14.1 c 18.6,2 41.3,35.7 62,54.9 l 0.2,274.7 -61.8,1.3 c -8,19.3 -26.7,38.4 -56.4,57.3 l 0,-102.9 c 101.4,-108.7 73.8,-227.6 56,-285.3 l 0,0 z m -817.1,3.1 c 4.6,0 8.4,3.7 8.4,8.4 0,4.6 -3.7,8.4 -8.4,8.4 -4.6,0 -8.4,-3.7 -8.4,-8.4 0,-4.6 3.8,-8.4 8.4,-8.4 z m 76.4,1.5 c 4.6,0 8.4,3.7 8.4,8.4 0,4.6 -3.7,8.4 -8.4,8.4 -4.6,0 -8.4,-3.7 -8.4,-8.4 0,-4.6 3.7,-8.4 8.4,-8.4 z m 784.3,0.7 126.3,127.3 -0.4,18.7 -142.3,-144.6 16.4,-1.4 z m -738,11.9 3.3,16 c -4.1,-6.4 -4.2,-8.8 -11.3,-9.9 l 8,-6.1 z m -68.4,4.7 c 4.6,0 8.4,3.7 8.4,8.4 0,4.7 -3.7,8.4 -8.4,8.4 -4.6,0 -8.4,-3.7 -8.4,-8.4 0,-4.7 3.8,-8.4 8.4,-8.4 z m -75.7,2.3 c 4.6,0 8.4,3.7 8.4,8.4 0,4.6 -3.7,8.4 -8.4,8.4 -4.6,0 -8.4,-3.7 -8.4,-8.4 0.1,-4.6 3.8,-8.4 8.4,-8.4 z m 710.7,0 24.9,17.7 -8.1,31.8 -25.5,-22.9 8.7,-26.6 z m -576.3,2.6 4.4,2.6 -5.2,21.8 -57.4,20.7 c 18.5,-15.7 37.5,-32.9 58.2,-45.1 l 0,0 z m 9.4,10.2 c 4.1,16.1 12.9,40 23.8,60.2 -7.4,3.8 -33.9,18.8 -33.8,25.8 3.7,12.6 31.7,24.2 31.7,24.2 -10.6,17.2 -20.7,37.5 -28.9,60.8 -4.8,-8.1 -5.3,-40.2 5,-53.6 -10.2,-4 -24.1,-13.2 -34.6,-22.6 6.8,-24.1 35.9,-38.5 37.1,-38.7 -0.5,1.2 -8.6,-50.4 -0.3,-56.1 l 0,0 z m -93.2,4 c 4.6,0 8.4,3.7 8.4,8.4 0,4.6 -3.7,8.4 -8.4,8.4 -4.6,0 -8.4,-3.7 -8.4,-8.4 0.1,-4.6 3.8,-8.4 8.4,-8.4 z m 639.4,0.7 c 37.3,69.4 15.1,129.7 -44.3,172.9 l 1.4,-16.4 c 41,-29.8 67.6,-88.3 37.6,-144.2 l 5.3,-12.3 z m -710.1,2 c 4.6,0 8.4,3.7 8.4,8.4 0,4.6 -3.7,8.4 -8.4,8.4 -4.6,0 -8.4,-3.7 -8.4,-8.4 0,-4.6 3.8,-8.4 8.4,-8.4 z m 596.1,0.4 c -27.3,101.9 -26.7,148.6 -29.8,176.3 l -106.2,0.9 -4.1,-36.8 140.1,-140.4 z m -424.1,2.9 c 0,0 23,21.4 43.7,40 l -2.5,4.9 -20.1,2.7 c -15.4,-30.3 -21.1,-47.6 -21.1,-47.6 z m -19.1,11.1 0.2,0 1.3,15.2 c -6.9,-0.3 -81.6,30.9 -138.9,80.7 8.5,-15.1 23,-29.5 36.9,-41.8 29.6,-29 100.5,-54.1 100.5,-54.1 z m -106.1,3.5 c 4.6,0 8.4,3.7 8.4,8.4 0,4.7 -3.7,8.4 -8.4,8.4 -4.6,0 -8.4,-3.7 -8.4,-8.4 0,-4.7 3.8,-8.4 8.4,-8.4 z m 47,9.5 4.3,4.4 -19.8,10.3 15.5,-14.7 z m 138.1,4.5 c 0.3,0 0.6,0 0.8,0 3.1,0.4 4.3,1.8 6.1,3.3 -3.9,-0.8 -7.7,-1.3 -11.3,-1.1 1,-1 2.5,-2.1 4.4,-2.2 z m -75.8,3.2 1.8,11.3 c -43,24.4 -94.1,47.5 -168.4,117.8 l 0,-23.4 c 46.7,-43.2 101.1,-79.5 166.6,-105.7 z m 57.8,1 c 2.7,0.7 5.1,0.7 7.5,0.1 0,0 -1.6,3.1 -3.4,3.2 -2,0.1 -4.1,-3.3 -4.1,-3.3 z m 18.2,0.7 c 5.4,-0.3 9.1,4.6 8,11 -4.1,21.6 -4,43.4 0.5,58.7 3.5,11.9 4.3,16.1 1.5,18.1 -25.3,17.5 -39.2,-61.3 -18.1,-83.6 2.8,-2.8 5.6,-4.1 8.1,-4.2 z m -206.8,2.7 c 4.6,0 8.4,3.7 8.4,8.4 0,4.6 -3.7,8.4 -8.4,8.4 -4.6,0 -8.4,-3.7 -8.4,-8.4 0,-4.6 3.8,-8.4 8.4,-8.4 z m 727.7,2 15.8,26.4 -21.9,24.6 -13.3,-28.5 19.4,-22.5 z m -542,14.3 -0.8,9.1 c -11.3,3.4 -21.2,8.3 -29.7,15.5 -1.6,1.4 26.2,14 29.1,11.1 l -0.1,9.7 c -0.4,3.2 -46,-11.3 -49.1,-22.1 5.3,-7.2 34.2,-23.9 50.6,-23.3 z m -207.7,4.9 c 4.6,0 8.4,3.7 8.4,8.4 0,4.6 -3.7,8.4 -8.4,8.4 -4.6,0 -8.4,-3.7 -8.4,-8.4 0,-4.7 3.8,-8.4 8.4,-8.4 z m 124.5,9.6 c -3.2,6.2 -8,14.3 -9,23.3 -31.3,19 -63.4,36.7 -102.5,80.3 l -21.1,-0.1 -0.5,-5.5 c 42.8,-40.8 89.1,-76 133.1,-98 z m 80.7,2.6 0.2,11.5 c -7.3,0.1 -11.3,-2.3 -16.7,-5 4.6,-2.9 8.1,-5.8 16.5,-6.5 l 0,0 z m 235.6,1.2 5.9,6.2 -3.7,3.4 -2.2,-9.6 z m -317.3,23.9 11.6,7.2 c -29.9,15.6 -61.3,38.6 -88.5,68.7 l -23,0 c 29.1,-31.5 60.3,-59.7 99.9,-75.9 z m 618.5,8.3 2.3,31.2 -29.1,16 0.6,-32.9 26.2,-14.3 z m -553.9,0.1 20,2.2 2.1,8.5 c -16.8,10.7 -31.4,23.2 -45.4,36.3 5.4,-16.8 13.8,-33.5 23.3,-47 l 0,0 z m -48,3.3 8.6,4 -3.4,14.7 c -24.5,10.9 -44.1,25.6 -65,45.5 l -23.6,0 c 20.6,-22.2 55,-50 83.4,-64.2 l 0,0 z m 74.5,13.8 c 0.1,0 0.1,0 0,0 l 3.2,96.2 c -86.5,101.3 -81.8,199.2 -56.6,288.1 l -16.5,-0.8 c -19.2,-23.8 -44.7,-48.1 -44.7,-48.1 l -0.1,-279.6 59.7,0.2 c 14.1,-32.6 52.8,-55.7 55,-56 l 0,0 z m -70.4,13.5 0.7,12.8 c -12.3,7.3 -22.8,15.4 -31.8,24 l -22.4,0 c 15.5,-14.4 30.9,-28.9 53.5,-36.8 z m 203.4,6.3 3.3,15.1 c -200.8,72.6 -237.1,283.8 -118.6,428.8 l -8.1,9 C 1680.6,143 1740.4,-95.8 1940.1,-163.8 Z m -201.8,15.1 c 0,0 1.1,11.6 1.4,15.4 l -22.5,0 c 5.1,-5.9 9.6,-12 21.1,-15.4 z m 565.1,4.9 -12.9,30.2 -34.5,0.5 15.7,-30.2 31.7,-0.5 z m -218.6,20.6 31.5,0 0,30.1 -31.5,0 0,-30.1 z m -136.2,3 0.5,13.2 c -14,7.1 -10.5,18.4 -14,18.3 -8.6,2.2 -31.3,14.2 -31.3,14.2 -8,-7.3 -18.9,-5.5 -23.9,-1.9 -7,4.6 -8.5,15.2 -6.5,24.2 l -24,28.1 c -11.6,-5 -22.9,-4.7 -28.6,3.1 -6.4,8.7 -4,19.6 6.6,31.7 l -13.1,33.6 c -1.5,-2 -23.4,4.4 -23.7,17.4 -0.3,13.8 18.1,22.8 18.1,23.8 l -0.9,37.1 c -0.8,-1.8 -18.8,5.6 -16.4,23.3 2.2,16.4 24.5,14.4 25,15.7 l 12.1,35.5 c -0.8,-1.1 -16.4,14.2 -6.8,28.6 8,12 31.1,4.2 30.9,3.5 l 6.4,9 -7.1,7.7 c 0,0 -3.1,-3.7 -4.8,-3.3 -13.5,2.6 -28.5,-0.5 -35.7,-11.3 -9.8,-15.1 1.1,-38.8 4.6,-38.6 l -8.3,-20.4 c -15.1,-0.3 -28,-13.8 -28.7,-25.2 -1.4,-23.7 18.1,-33.7 18.1,-33.5 l 0.6,-22.1 c -1.2,1.3 -19.2,-11.5 -18.8,-26.2 0.3,-10.7 9.4,-23.4 20.5,-28.5 3.2,-1.5 8.3,-3.9 8.3,-3.9 l 7.5,-18.1 c 0,0 -10.7,-15.4 -7.9,-30.9 5.1,-23.5 35.8,-21.9 40.6,-19.6 l 14.2,-17.8 c -7,-16.3 5.1,-35.1 20.9,-38.2 7,-1.1 26.7,3.5 26.7,3.5 l 18.2,-9.4 c -0.2,-10.1 10.7,-16.6 20.7,-22.6 z m 103.6,32.9 27,0 0,30.1 -27,0 0,-30.1 z m 71.9,0 30.4,0 0,30.1 -30.4,0 0,-30.1 z m -173.3,7.5 -0.3,11.5 c -174.1,84.4 -102.9,259.2 -78.1,279.5 l -5.6,12.3 C 1836.3,205 1757.5,3.3 1950.8,-79.8 Z m 134,30.5 32.7,0 0.3,30.9 -32.7,0 -0.3,-30.9 z m -141.5,15 -10.4,28.2 -32,2.7 11.8,-28.1 30.6,-2.8 z m 653.2,20.6 21.9,0.1 c -40.9,47.8 -85,80.4 -128.6,98.3 0,0 -0.2,-4.3 1.2,-7.6 1.1,-2.7 -0.7,-9.4 -0.7,-9.4 48.5,-23.9 81.7,-51.6 106.2,-81.4 z m -112.1,0.4 c -5.6,6.8 -12.1,12.7 -20,17.1 l -3.2,-17.4 c 6.7,-0.1 23.2,0.3 23.2,0.3 l 0,0 z m 38.5,-0.4 c 2.2,5.6 -57.4,37.8 -57.6,35 l 0.2,-10.7 32.2,-23.9 25.2,-0.4 z m 12.9,0 0.1,0 16.8,0.1 c -15.2,23.9 -95.3,67.3 -92,61.2 l 3.2,-17.5 c 25.9,-11.3 49.3,-26.8 71.9,-43.8 l 0,0 z m 28.3,0 22.1,0.1 C 2553,28.6 2519.3,44 2487,62.1 c -1.9,-0.3 -1.1,-1 -7.1,-0.8 l -11.1,-8.6 c 2,1.9 74.2,-40.5 95.3,-66.4 z m -617.9,1.5 -0.8,12.8 c -46.5,40 -65.1,91 -40.9,150.3 l -5.8,12.7 c -25.9,-63.3 -18.2,-124.8 47.5,-175.8 z m 211.7,2 2.5,34.4 -144.3,140.4 c 22,-78.5 28,-125.8 33.9,-174.7 l 107.9,-0.1 z m 462,8.1 0.1,19.1 c -56.9,62.7 -114.2,90.7 -163.8,102.1 l -1.1,-7.3 22.9,-14.1 C 2551.9,65.4 2584.3,33 2619.9,-2.1 l 0,0 z m -172.6,0.5 c 1,13.8 -11.3,39.9 -25.3,54.6 l -24.1,-0.1 -2.7,-10.4 c 20,-10.8 38.4,-25.4 52.1,-44.1 z m 7.2,4.1 c 8.8,14.2 -4.4,51 -5,49.6 -1.1,2.5 75.6,18.7 -3.2,56.7 1.7,11.1 9.1,34.9 3.4,49.6 -1.8,-5.6 -15.5,-43.8 -26.1,-53.6 24.6,-7 42.3,-22 40.4,-27 -4,-7.1 -15,-15.7 -33.5,-22.1 15.9,-21.8 20.5,-38.3 24,-53.2 l 0,0 z m -562.9,7 2.5,29 -28,16.8 -2.2,-31.8 27.7,-14 z m 487.1,26.9 c 2.2,0 4.2,0.6 5.3,1.7 13.8,5.6 14.8,73.1 2.3,79.9 -9.1,5.7 -15.5,-3.5 -15.2,-5.1 6,-31 2.3,-50.2 -0.3,-71.9 0.2,-3.2 4.2,-4.6 7.9,-4.6 z m 241.2,1 0,24 c -81.3,84.3 -168.9,150.7 -258.4,188 l -8.2,-13.8 C 2462,185.4 2552.8,113.7 2619.9,37.4 Z m -14.3,2.2 c -37.7,52.4 -83.5,86.7 -146.4,102.2 l -1.2,-14.9 c 78.3,-17.7 149.6,-87.3 147.6,-87.3 z m -1025,8.5 c 49.1,50.1 99.3,99.8 149.3,151.3 l -19.8,1 -130.1,-134.8 0.6,-17.5 z m 584,2.5 1.8,12.4 -14.4,15.7 22.6,24.3 1.2,5.7 -19.4,20.3 -8.8,-8.7 10.7,-12 -18.2,-19.1 -33.7,32.4 27.8,30.2 -21,19.9 -8.3,-8.5 10.7,-12.4 -18.6,-19.7 -34.4,34.2 26,28.7 -17.3,19.2 -8.2,-8.7 8.9,-10.2 -18.8,-19.4 -33,31.8 27.2,30.1 -22.1,22 -8.6,-8.3 12.4,-13.5 -20.4,-19.4 -16.3,15.4 c 0,0 6.2,-15.3 7.1,-17.9 1.3,-3.8 6.7,-6.8 41.1,-40.7 41,-40.9 83,-79.2 124,-123.8 l 0,0 z m 235.2,8.3 c 12,0.2 32.4,3.1 42.3,8.3 18.4,9.7 12.6,17.3 0.7,23 -14.3,6.8 -26,10.1 -42.1,10.6 l 0.5,-7.9 c 9.4,-2.3 19.1,-4.5 27.3,-9.1 5.7,-3.1 7.2,-5.7 7.2,-5.7 0,0 -5.5,-5.6 -14.4,-8.8 -6.5,-2.3 -15.7,-2.3 -20.7,-3.2 l -0.8,-7.2 z m -536.5,10.4 15.1,22.6 -17.9,30 -17.2,-25.8 20,-26.8 z m 304.5,2.4 c 0.5,4.3 5.9,20.8 3.1,17.6 l -10,-11.3 6.9,-6.3 z m 232.9,2.3 c 8.3,0.7 17.1,1 23.2,3.9 -7.1,5.5 -15.1,6.7 -23.1,8.1 l -0.1,-12 z m 209.4,11.3 c 5,0 9.1,4.1 9.1,9.1 0,5 -4.1,9.1 -9.1,9.1 -5,0 -9.1,-4.1 -9.1,-9.1 0,-5 4.1,-9.1 9.1,-9.1 z m -470.9,15.8 7.8,7.5 -10.1,11.7 18.3,19.2 22.6,-21.2 3,13.4 -211.7,208.3 -11.8,-0.8 13.5,-15.9 -15.3,-15.7 6.3,-11.3 18.1,16.1 33.1,-31.7 -26.8,-28.2 22.9,-23.5 8.7,7.5 -13.2,14.3 19.2,19.6 34.6,-34.1 -27.1,-29.5 21.6,-20.6 7.9,7.5 -10.1,10.7 19.8,20.6 29.2,-30.4 -26.6,-29.3 23.6,-23 7.3,7.3 -10.9,12.1 19.8,20.5 31.8,-32.7 -26.2,-28.4 20.7,-20 z m 449.8,5.4 c 5,0 9.1,4.1 9.1,9.1 0,5 -4.1,9.1 -9.1,9.1 -5,0 -9.1,-4.1 -9.1,-9.1 -0.1,-5 4,-9.1 9.1,-9.1 z m -172.1,0.4 c 14.4,16.9 23,35.7 24.8,55.9 -11.5,-17.4 -26.1,-32.9 -45.3,-46.3 l 3.3,-8.5 17.2,-1.1 z m 203,1.4 0,20.4 c -64.1,72.7 -142,127.4 -221.9,165.5 l -13.6,-16.5 c 94.5,-42.2 162.9,-94.6 235.5,-169.4 z m -94.3,14.2 -26,20.2 0,-8.8 26,-11.4 0,0 z m -134,1.5 c 22.1,10.8 40.7,29.1 51.8,56.1 -30.2,19 -63.4,34.3 -95,49.6 -15.2,-24.4 -30.5,-47.3 -42.4,-78.8 48.7,-0.4 62.1,-27 62.5,-27.2 11.6,4.5 14,5.1 23.1,0.3 z m 175.1,4 c 4.5,0.1 9.1,3.6 9.3,8.8 0,5 -4.1,9.1 -9.1,9.1 -5,0 -9.1,-4.1 -9.1,-9.1 0.9,-6.3 4.9,-8.9 8.9,-8.8 z m -67.5,6 0.1,8.8 c -12.4,10.9 -36.6,28.6 -36.6,28.6 l -10,-0.5 3.3,-25 c 15.1,-3.1 29.7,-7.5 43.2,-11.9 l 0,0 z m -636.7,1 23.9,19.6 -7.3,30.4 -23.5,-17.8 6.9,-32.2 z m 320.6,5.8 2.2,8.8 -196.2,193.9 -11.2,-1.8 205.2,-200.9 z m 361.9,7.5 c 5,0 9.1,4.1 9.1,9.1 0,5 -4.1,9.1 -9.1,9.1 -5,0 -9.1,-4.1 -9.1,-9.1 0,-5 4,-9.1 9.1,-9.1 z m 72.4,-0.1 c 1.1,0 2.3,-0.1 2.3,0.9 l 0,16.8 c -1,0.3 -2,0.5 -3.1,0.5 -5,0 -8.4,-4.1 -8.4,-9.1 0,-5 4.2,-9.1 9.2,-9.1 z m -22.1,20.4 c 5,0 9.1,4.1 9.1,9.1 0,5 -4.1,9.1 -9.1,9.1 -5,0 -9.1,-4.1 -9.1,-9.1 0,-5 4,-9.1 9.1,-9.1 z m -76.7,0.1 c 5,0 9.1,4.1 9.1,9.1 0,5 -4.1,9.1 -9.1,9.1 -5,0 -9.1,-4.1 -9.1,-9.1 0,-5 4,-9.1 9.1,-9.1 z m -66,2.8 9.4,0.3 -17.4,10.4 c 3.2,-4.1 6.1,-7.1 8,-10.7 z m 167.3,4.2 0.1,18.8 c -44.9,44.8 -101.5,91.4 -188.2,136.2 l -11,-11.2 c 70.6,-33.6 136.9,-80.8 199.1,-143.8 l 0,0 z M 2492.5,186 c 5,0 9.1,4.1 9.1,9.1 0,5 -4.1,9.1 -9.1,9.1 -5,0 -9.1,-4.1 -9.1,-9.1 -0.1,-5 4,-9.1 9.1,-9.1 z m 81.1,0.7 c 5,0 9.1,4.1 9.1,9.1 0,5 -4.1,9.1 -9.1,9.1 -5,0 -9.1,-4.1 -9.1,-9.1 0,-5.1 4,-9.1 9.1,-9.1 z m -908.8,36.6 c 31,-18 55.8,-20.1 91.3,-14.7 l 10.6,20.9 c -34.5,-6.1 -70.9,-5.6 -102,18.4 -32.2,-20.4 -56.7,-26.3 -83.2,-22.9 l -0.5,-22 c 34.5,-4.8 65.5,7 83.8,20.3 l 0,0 z m 802.5,-19.9 c 5,0 9.1,4.1 9.1,9.1 0,5 -4.1,9.1 -9.1,9.1 -5,0 -9.1,-4.1 -9.1,-9.1 0,-5 4.1,-9.1 9.1,-9.1 z m 83.4,3.8 c 5,0 9.1,4.1 9.1,9.1 0,5 -4.1,9.1 -9.1,9.1 -5,0 -9.1,-4.1 -9.1,-9.1 0,-5.1 4.1,-9.1 9.1,-9.1 z m -110.8,13.6 c 5,0 9.1,4.1 9.1,9.1 0,5 -4.1,9.1 -9.1,9.1 -5,0 -9.1,-4.1 -9.1,-9.1 0,-5 4,-9.1 9.1,-9.1 z m 85,5.3 c 5,0 9.1,4.1 9.1,9.1 0,5 -4.1,9.1 -9.1,9.1 -5,0 -9.1,-4.1 -9.1,-9.1 0,-5 4.1,-9.1 9.1,-9.1 z m -113.2,10.8 c 5.1,0 9.3,4.1 9.3,9.3 0,5.2 -4.1,9.3 -9.3,9.3 -5.2,0 -9.3,-4.1 -9.3,-9.3 0,-5.2 4.2,-9.3 9.3,-9.3 z m 88.9,7.7 c 5,0 9.1,4.1 9.1,9.1 0,5 -4.1,9.1 -9.1,9.1 -5,0 -9.1,-4.1 -9.1,-9.1 -0.1,-5.1 4,-9.1 9.1,-9.1 z m -115.9,6.3 c 5,0 9.1,4.1 9.1,9.1 0,5 -4.1,9.1 -9.1,9.1 -5,0 -9.1,-4.1 -9.1,-9.1 0,-5 4.1,-9.1 9.1,-9.1 z m -403.4,8.2 22.7,20.8 -23.5,23.6 -8.6,-8.3 13.1,-13.7 -8.8,-11.9 5.1,-10.5 z m 494.1,2 c 5,0 9.1,4.1 9.1,9.1 0,5 -4.1,9.1 -9.1,9.1 -5,0 -9.1,-4.1 -9.1,-9.1 0,-5 4,-9.1 9.1,-9.1 z m -26.3,15.5 c 5,0 9.1,4.1 9.1,9.1 0,5 -4.1,9.1 -9.1,9.1 -5,0 -9.1,-4.1 -9.1,-9.1 0,-5 4.1,-9.1 9.1,-9.1 z m -28.5,15.5 c 5,0 9.1,4.1 9.1,9.1 0,5 -4.1,9.1 -9.1,9.1 -5,0 -9.1,-4.1 -9.1,-9.1 -0.1,-5 4,-9.1 9.1,-9.1 z m -469.3,25.8 7.4,6 -11.6,14 -8.9,-0.1 13.1,-19.9 z m -143.4,37.8 c -25.9,12.8 -38.2,20.9 -56.2,36.6 l -25.8,-35.8 82,-0.8 z m -175.9,0.2 68.9,1 -22.9,32.4 c -15.2,-15.9 -30.5,-26.8 -46,-33.4 z m 82,3.5 c 7.5,2.4 27,30.2 36.2,45.4 19.6,-15.6 38.8,-33 59.7,-42.3 -24.9,26.3 -46.7,53.4 -62.3,79.7 -4.4,-11.8 -16.7,-45.8 -32.2,-60.5 -24.5,22.9 -34.2,50.4 -34.2,50.4 -13.2,-22.4 -29,-44.9 -47.4,-65.9 -3,-4.1 22.3,11.7 47.4,36.1 7.2,-17.8 26.1,-42.2 32.8,-42.9 l 0,0 z m -82.7,17.5 c 11.8,9.4 44,50.7 47.7,75.5 l -15.4,1 c -8.2,-25.5 -22,-51 -32.3,-76.5 l 0,0 z m 171.3,4.3 c -11.6,23.9 -26.1,48.3 -36.5,74.7 l -15.2,-0.7 c 16.6,-36.4 22.7,-43.1 51.7,-74 z m -87.3,10.6 c 0.1,0 0.3,0 0.4,0.1 14.5,19.7 21.3,38.9 25.6,62.3 l -11.2,-0.4 c 0,0 -7.8,-23.4 -13.2,-31.7 -3.5,-5.1 -6.2,-4.4 -8.7,-0.2 -5.5,9.9 -7.6,19.8 -10.7,30.6 l -12.9,-0.9 c -2.3,-17.8 26.2,-59.4 30.7,-59.8 l 0,0 z m -2.1,68 c 5.2,0.1 10.7,5.7 10.7,15.7 0.4,4.7 -3.2,15 -7.2,15.6 -7.3,3.9 -15.9,-8.2 -13.8,-18.2 1.9,-8.6 5.7,-13.1 10.3,-13.1 z m -25.3,1.9 c 10.3,0.9 12.6,24.1 8.4,28.8 -4.8,4.8 -17.5,1.4 -18.7,-6.9 -4.2,-10.5 3.4,-21.8 10.3,-21.9 z m 51,-0.1 c 11.3,1.6 8.4,27 2.6,30.8 -9.1,4.8 -16,-3.2 -12.9,-15.2 2.4,-9.7 6.1,-15.4 10.3,-15.6 l 0,0 z m 26,4.2 c 12.9,1.4 5.4,23.9 -0.2,28.4 -8.2,6.4 -16.1,-3.2 -12.2,-14.5 3.1,-8.9 8.2,-14 12.4,-13.9 l 0,0 z m -104.1,0.7 c 9.4,1.5 14.8,22.7 9.2,28.8 -2.9,3.5 -11.4,-1.6 -15.3,-7.4 -4.6,-7 -0.2,-21.5 6.1,-21.4 l 0,0 z m 99.9,46.2 c 1.1,11.1 -7.3,11.1 -31.5,5.7 -12.2,-2.7 -33.9,-1 -45,1 -18.6,3.4 -21.3,2.1 -21.3,-5.5 0,-8.8 10.5,-13.8 34.7,-14.6 17.3,-0.5 60.4,-0.7 63.1,13.4 z m 37.6,-6.5 c -28.8,2.7 -36.5,38.9 -33.3,52.2 2.5,22.3 1.5,45.7 -2.8,61.1 -3.1,11 -5.8,22.8 -10.8,32.8 -7.6,15.1 -5.6,26.3 5.6,32.3 9.2,4.9 20.6,3.3 27.8,-4.4 12.9,-13.9 14.4,-43.2 6.5,-109.9 -2.8,-23.5 -1.3,-28.2 10.1,-26.9 24,-0.3 23,-37.2 -3.1,-37.2 l 0,0 z m -3.4,30.3 c -6.5,-2.5 -10.8,3.4 -10,18 0.2,6.5 1.4,13.8 2.2,19.6 9.3,64 5.8,106.9 -13.8,109 -17.1,2.7 -28.7,-9.8 -20.3,-22.9 4.7,-7.4 8.8,-8.4 18,-4.5 12.6,7.8 9.5,-3.6 -1.9,-12 -7.3,-5.2 -7.9,-5.2 -3.9,-21.3 5.3,-21.8 7.1,-37.3 5.1,-64.9 -2.7,-19.5 3.8,-45.3 28.6,-46.9 25,-0.8 17.4,34.9 -4,25.9 l 0,0 z m -177.1,84.3 c 8.2,3.9 16.1,3.3 23.9,0.1 3,-13.6 3.2,-24.9 12.4,-43.4 -15.3,-15.3 -40.9,-9.3 -48.1,6.7 -7.4,16 -0.6,30.6 11.8,36.6 z m 24.4,-47.2 c 9.2,2 7.9,11.7 -0.8,8.5 -20.7,-9.8 -37.6,19.6 -20.9,30.7 8.5,4.8 12.3,2 3.8,-4.5 -3.5,-4 -2.6,-5.6 -0.5,-9.6 4.3,-8.1 20.1,-6.8 19,-0.9 -3.6,18.6 -6,24 -11.6,24 -32.1,1.6 -38.2,-58.7 11,-48.2 z m 273.6,33.5 c 0,0 -95.9,108.5 -142.2,164 l 579.2,-2.7 -110.2,-152.1 c -94.5,21.9 -205.6,15.6 -326.8,-9.2 z m -2.8,34.6 c 14.5,0.2 30.9,10.7 45.2,45.7 0.8,0.3 63.7,-95.6 118.2,3.7 8.9,-22.3 60.2,-80.4 119.5,-5.8 21.1,-49.9 69.7,-33 74.2,-15.6 -1,-3.7 -46.3,-14.5 -65.9,18.6 -3.6,7 -3.8,13.7 0.3,17.6 9.8,9.3 -0.9,22.6 -12,15 -4.3,-2.9 -4.9,-9.1 -1.6,-13.6 9.8,-7.3 -10.3,-30.2 -26.9,-38.4 -22.8,-11.3 -54.5,-6.3 -69.8,9.9 -8.2,8.7 -13.2,16.5 -14.4,22.8 -0.6,2.9 -0.2,4.4 1.5,6.4 6.6,8 2.3,18.9 -6.7,17.6 -11.7,-1.7 -10.2,-12.7 -2.3,-18.7 2.4,-1.2 1.5,-2.6 0.8,-4.6 -21.4,-60.3 -101.3,-48.8 -109.9,-7.1 -0.3,1.5 -1,3.1 -0.7,4.7 0.9,4 3.2,7.4 2.3,10.5 -3.7,12.8 -19.7,9.1 -20.4,-1.5 -0.3,-4.8 4.9,-6.3 7.4,-10.7 1.5,-2.8 2.2,-6.2 0.8,-9.2 -21.6,-45.3 -58.8,-35.8 -77.2,-25.6 -0.5,0.1 16.4,-21.9 37.6,-21.7 l 0,0 z m -24,26.3 c 7.9,-0.3 15.1,3.6 21.8,11.4 22.7,-12 38.8,8.8 36.1,10.8 -32.1,-20.8 -42.5,27.7 -10.9,25.9 -13.9,28.8 35.8,41.1 30.2,4.3 30.6,10.7 35.7,-31.4 4.7,-30.8 10,-17.4 36.1,-12.6 47.1,-1.7 13,-15.8 44.7,-0.7 47.9,12.8 -35.7,-18.3 -39.3,37.6 -4.7,25.7 -10.2,35.5 44.7,30.5 29.5,-0.2 34.2,11.2 29.5,-39.9 -4.1,-29.5 -2,-2.6 26.6,-32.2 47.4,-4.4 2.8,-4.9 35.3,-20.9 53.1,4.3 -38.5,-13 -31.2,38.8 -3.6,28.5 -7.4,34.3 42.4,28.8 29.7,-0.5 38.6,9.8 21.5,-49 -5.6,-27.3 4.4,-23.6 36.8,-13.8 36.5,-10.2 0,0 17.2,-18.6 36.5,-5 -30.1,2.5 -19.9,43.2 8.6,31.6 -0.3,13.8 11.2,22.9 26.7,18.2 l 24.3,34 -555.3,3.5 44.4,-52.9 c 14.8,12.3 30.2,6.5 32.1,-12.8 32.3,19.8 40.7,-27.2 10.4,-29.3 6,-4.1 11.7,-6.2 17.2,-6.4 l 0,0 z m -31.1,15.3 c 1.9,1.4 -0.7,7.9 -4.9,6 l 4.9,-6 z m 433,13.6 c 1.7,2.4 2.8,3.9 4.5,6.3 0.7,2.1 -8.7,-1.1 -4.5,-6.3 z"
           id="path3870" /></g></g></g><g
     transform="translate(-259.94912,-369.84369)"
     id="printing-marks"><g
       id="CropMarks" /></g></svg>