<?xml version="1.0" encoding="UTF-8" standalone="no"?>
<svg
   xmlns:dc="http://purl.org/dc/elements/1.1/"
   xmlns:cc="http://creativecommons.org/ns#"
   xmlns:rdf="http://www.w3.org/1999/02/22-rdf-syntax-ns#"
   xmlns:svg="http://www.w3.org/2000/svg"
   xmlns="http://www.w3.org/2000/svg"
   height="312.79669"
   width="224.19823"
   xml:space="preserve"
   enable-background="new 74 -106.5 744.1 1052.4"
   viewBox="74 -106.5 224.19823 312.79668"
   y="0px"
   x="0px"
   id="svg4423"
   version="1.1"><defs
     id="defs16" /><g
     transform="translate(-259.99295,-369.82556)"
     id="layer1"><g
       transform="translate(-512.47117,-760.44497)"
       id="g4741"><g
         transform="translate(-1317.836,540.76888)"
         id="g3355"><path
           style="fill:#ffffff;stroke:#000000;stroke-width:0.99669999"
           d="m 2175.4,483.5 202,0 c 5.9,0 10.6,4.8 10.6,10.6 l 0,290.6 c 0,5.9 -4.8,10.6 -10.6,10.6 l -202,0 c -5.9,0 -10.6,-4.8 -10.6,-10.6 l 0,-290.6 c -0.1,-5.9 4.7,-10.6 10.6,-10.6 z"
           id="rect6371" /></g><g
         transform="matrix(0.15135237,-0.00168536,0.00168536,0.15135237,833.2867,1245.6542)"
         id="g3405"><path
           style="fill:#d40000"
           d="m 873.3,413.9 c 4.1,-52.3 1.7,-108.6 4.6,-151.2 -1.6,-3 4.3,-11.2 4.6,-11.2 -3.4,-6.4 -4.4,-22.6 0.2,-37 35.7,-130.2 99,-231.2 164,-325.3 50.2,157.2 -114.3,265.3 -150.2,401.8 -12,47.3 -10.6,80.4 -15.5,123.2 l -7.7,-0.3 z m -271.5,-1.1 -191,-302.2 42.4,-20.1 196.1,321.8 -47.5,0.5 z m 257.4,-553.1 c 1.6,8.6 8.3,13.3 15.6,9.5 7.1,-3.8 7.9,-4 3.4,2.7 -9.8,14.9 9.6,29.6 22.3,16.9 4.5,-4.5 5.4,-12 1.3,-15.8 -4.5,-4.3 -5.5,-6.5 1.2,-3.2 16.9,7.1 26.6,-17.4 10.2,-25.9 -4.2,-2.2 -12.5,-0.4 -15.7,2.8 -3.8,3.9 -4.3,2.5 -3.3,-0.5 0.6,-1.8 1.1,-4.7 2.5,-8.2 1.1,-2.7 2,-6.4 2,-6.4 l -17.4,0 c 0,0 1.4,4 2.7,7.4 1.3,3.2 1.8,5.5 2.4,6.8 2.3,4.7 -0.5,3 -5.2,-0.6 -6.6,-5 -14.9,-3.7 -19.7,2.7 -1.5,3.9 -3,7.8 -2.3,11.8 z m 27.8,-243.8 37.4,-0.7 39.8,113.8 c -33.5,54.2 -43,115.6 -5.5,178.4 l -118.4,-1.1 c 28.8,-93.7 34.2,-193.4 46.7,-290.4 z m 37.4,147.8 c 5.1,-4.4 5.8,-12.5 1.3,-18 -5.7,-6.9 -4.3,-7.2 3.3,-2.7 11,6.5 21.8,-7.2 15.4,-19.6 -4.1,-7.8 -17.5,-9.7 -22.8,-2.8 -4.4,5.7 -3.8,0.4 -0.4,-7.2 1.2,-2.8 3,-8.1 3,-8.1 l -18.1,0.2 c 0,0 2.3,5.1 3.5,8.5 3.2,8.8 3.3,11.5 -1.7,5.9 -10.9,-9.4 -24,-2.8 -24.2,10.5 0,10.2 9.2,16.9 17.4,12.2 5,-2.9 7.2,-3.5 1.6,3.1 -3.9,6.3 -2.6,14.5 2.4,18.3 6.9,4.3 14.3,4.1 19.3,-0.3 z m -250.5,32.6 c 1.5,-1.1 2,-0.3 1.1,1.1 -0.8,1.2 -2.7,3 -4.4,4.8 -8.5,9.3 2.2,21.4 15.9,19.7 9.3,-1.2 14.9,-15.7 8.1,-21.5 -2.2,-1.5 -3.9,-1.8 -5.6,-3.9 -0.1,-0.8 0.3,-1.4 1.1,-1 1.2,0.5 3.6,2.5 4.9,2.9 8.6,2.4 15.1,-1.1 17.4,-7.1 1.5,-7 0.2,-14.6 -5.5,-18.6 -5.3,-3.6 -13.2,-2.7 -17.9,3.4 -4.8,6.2 -5.4,0.2 -1.4,-8.3 1.5,-3.2 2.5,-7.8 2.5,-7.8 l -16.6,0.7 c 0,0 0.8,3.6 2.3,7.7 3.6,9.4 6.2,12.2 1.5,7.3 -20.2,-12.2 -27.1,4 -27.5,10.5 -0.9,12 16.7,19.1 24.1,10.1 l 0,0 z m 83.4,-182.9 30,0.4 c -24,120.1 -71.5,220.4 -150.3,288.9 l -146.9,-2.1 -70.2,-50.3 27.7,-35.2 c 186.3,21.4 266.7,-70.2 309.7,-201.7 z M 619,-109.1 c 8.8,-3.8 12.6,-13.7 6.9,-20.4 -5.2,-6.1 -5.7,-8 2.3,-3.2 10.7,6.4 21.3,-6 16.2,-18.4 -3.2,-7.7 -13.6,-10.2 -21.1,-5.1 -6.6,4.8 -6.5,2.6 -3,-5.1 1.7,-3.8 3.1,-9.9 3.1,-9.9 l -18.4,0.1 c 0,0 1.3,4.4 2.6,7.4 3,6.9 4.1,10.1 2.6,10.1 -0.7,0 -2.9,-2.1 -4.3,-3.4 -3.6,-3.4 -13.6,-4.2 -17.4,-0.6 -11.1,10.4 -5.1,28.8 8.9,25.6 9.1,-2.1 11.2,-5.5 3.6,2.9 -9.3,10.4 4.9,25.6 18,20 z m -116,-5 c 7.6,-3.5 10.3,-12.2 6.1,-18 -4.2,-5.8 -6.3,-9.4 1.3,-4.2 10.1,5.2 19,-1.5 19,-13 0,-12.1 -13.5,-17.9 -23.6,-10.7 -1.7,1.2 -3.8,2.3 -4.2,2.3 -1.2,0 1.1,-6.5 3.5,-10.8 1.1,-1.8 3,-5.6 3,-5.6 l -18.4,-0.9 c 0,0 1,5 2.4,8.9 2.8,7.9 3.5,10.5 -1.6,6 -13.7,-13.1 -28.6,3.2 -23,17.5 3,8 12.4,8.1 18.1,4.2 5.1,-3.9 2.5,1.3 -1.1,5.4 -9.5,11.2 4.3,25.4 18.5,18.9 z m 843.7,-292.3 0.7,22.3 -240,195.5 -9.8,-15.4 249.1,-202.4 z m -884.9,31.8 c 34.5,-24 73.1,-67.3 110.9,-89.7 26.8,63.4 -38.3,124.6 -110.9,89.7 z m 628.5,-9 c -33.1,-118.6 129.5,-108.9 108.7,-84.1 l -108.7,84.1 z m -772.1,-85.8 237.5,-189.3 10.5,16.3 -250.6,200.6 2.6,-27.6 z m 647,-186.4 c 0.6,2 7.7,9.7 7.7,10.4 -2,-1.5 -14,-8.4 -20,-1.9 -2.1,2.4 -4.8,8.1 -4.6,14.1 2.4,10.7 14.5,14.6 23.2,7.4 2.5,-2.1 4.7,-4.6 5.2,-3.7 0.4,0.8 -1,4.4 -2.1,7.3 -1.3,3 -6.1,9.2 -2.7,9.2 l 16.7,0.2 c 0,0 -0.6,-3.9 -2.5,-8.3 -3.6,-8.1 -3.4,-12.5 1,-6.6 8.7,11.5 25.8,2.2 24.2,-11.5 -1.2,-9.8 -11.1,-15.6 -18.4,-11 -0.8,0.5 -3.2,2.8 -3.5,2.8 -0.9,0 1.6,-3.7 3.3,-6.8 5.5,-10.3 -2.4,-19.9 -14.8,-19 -4,0.3 -8.4,2.7 -8.4,3.1 -4.8,3.7 -5.6,10.1 -4.3,14.3 z m 204.3,-94.1 c 23.3,21.9 46.7,38.1 70.1,52.2 l -22.6,34.8 c -150.5,-15.6 -260.7,42.7 -308.2,203.7 l -24.9,4.5 c 10.5,-100.6 45.3,-200.1 146.2,-296.6 l 139.4,1.4 z m -144.6,22.5 c 0,4.8 8.7,10.6 6.7,11.8 -0.9,0.5 -6.1,-4.1 -8.5,-4.4 -17.4,-2 -21.3,25 -4.1,28.2 3.4,0.6 10.4,-1.4 12.5,-3.1 2.8,-2.2 4.7,-4.1 5.3,-3.9 1.1,0.4 -1.4,5.2 -3.3,8.7 -1.8,3.3 -4.3,9.8 -4.3,9.8 6.9,1.3 13.5,1.7 19.8,0.3 0,0 -1.7,-5.7 -3.5,-10 -2.2,-5.5 -2.7,-9 -1.1,-8.6 0.7,0.2 1.4,1.9 2.8,3.1 8.5,7.4 21.1,4.4 24.5,-7 3.2,-10.8 -9.6,-22 -18.6,-16.1 -3.2,2.1 -3.2,0.5 0,-4.2 2.9,-4.3 2.3,-10.9 -0.3,-14.8 -9.4,-10 -28.2,-3 -27.9,10.2 z m 141.6,33.6 c -0.4,-2.4 0.2,-1.7 2.7,0.9 7.8,8.3 21.5,7.2 25.1,-3.7 3.6,-10.9 -6.9,-23.5 -16.2,-19.3 -4.8,2.2 -4.9,1.4 -2.1,-2.2 7.2,-9.1 -0.5,-21.4 -12.6,-21.4 -11.1,0 -17.8,10.6 -12.5,19.9 2.2,3.8 1.4,4.6 -2.4,2.6 -11.3,-5.6 -22.1,12.2 -13.9,23 4.8,6.3 16.1,7.1 22.7,1 3.5,-3.3 3.4,-1.7 0.9,5.1 -2.2,5.9 -4.7,10.7 -4.7,10.7 l 19.7,0.4 c -0.2,0.2 -5.3,-9.9 -6.7,-17 z m -423.6,236.9 c 0,0 -28.3,-81.5 -37.8,-120.6 22.2,-51.5 52.3,-101.4 3.4,-176.5 l 120.9,1 c -38.3,84.3 -41.5,298 -50.2,298.4 l -36.3,-2.3 z m 11.7,-95 c 0,0 -5.9,-8.3 -6.2,-14.9 -0.7,-4.3 0.4,-4.5 2.6,-0.1 10.6,12 25.3,0.7 25.5,-9.8 1.3,-9.6 -9.8,-18 -17.1,-13.3 -5.1,3.3 -6.5,2.3 -1.9,-3.9 6.5,-8.8 -0.3,-20.4 -11.8,-20.4 -14.8,0 -20.7,13.8 -10.2,23.8 7.8,7.4 0.5,3 -5.7,0.3 -12.1,-5.2 -20.2,7.1 -14.9,19.6 3.7,8.7 14.7,11 21.2,4.1 3.6,-3.8 6.9,-6 4.9,-0.2 -1.1,4.7 -6.6,14.5 -6.6,14.5 l 20.2,0.3 z m 20.2,-129.9 c 0,0 -7.1,-9.1 -8.2,-15.8 -0.4,-2.5 1.4,-1.8 5.4,1.7 12.9,11.3 31,-8.5 19,-20.9 -4.1,-4.2 -8.3,-5.5 -13.2,-3 -6.1,3.1 -5.6,1.6 -2.5,-1.7 4.5,-4.8 4.3,-13.5 -0.5,-17.9 -13.1,-11.9 -34.2,5.4 -22.1,18.1 5.3,5.5 2.8,4.8 -3.1,1.2 -11.1,-6.8 -23.6,11.3 -15.3,22.1 9.8,8.5 17.3,4.5 24.2,-0.7 1.5,-0.8 2.8,-1.1 2.8,-0.5 0,1.2 -7,17.3 -7,17.3 l 20.5,0.1 z m -158,-52.4 c -7.4,-0.6 -11.9,-69.6 -2.6,-91.3 20.2,-91.8 79.7,-158.2 116.8,-214.2 59.5,-83.3 53.8,-222.9 56.2,-217.3 l 8.3,1.1 c 0,0 -7.3,81.7 -4.1,118.7 3.4,32.5 2.6,34.5 0.2,37.7 -0.6,3 0.2,11.9 -0.5,14.9 -27.4,120 -91,242.9 -156.3,335.6 l -18,14.8 z m 604.7,-203.4 -194.4,-314.1 47.6,-3.7 c 17.3,28.1 186.2,296.6 186.2,296.6 l -39.4,21.2 z"
           id="path3391-4" /><path
           style="fill:#e2cf00"
           d="m 391.7,416.1 c 23.4,-82.2 -35.4,-274.7 -73.2,-300.2 44.7,-1.4 98.4,0 96.8,-4.2 0,0 186.6,300.9 185.1,302.4 -1.6,1.5 -208.7,2 -208.7,2 l 0,0 z m 775.1,-459.4 c -46,-7.1 -27.4,-45.1 2.3,-48.7 -3.9,0.6 3.4,-19 27.3,-26.6 5.5,-9.8 10,-26.5 15,-34.3 -14.4,4.5 -31.9,16.4 -96.8,6.1 6,-30.7 68.2,-35.3 90.6,-30.3 12.9,3.2 25.5,22.6 29.4,23 40,-6.2 90.4,30.5 74.6,67 -2.4,5.2 -8.4,-6.3 -21.8,-11.3 -43.3,-16.2 -46,-39.8 -55.9,-50.4 -3.6,-0.7 -23.2,37.1 -23.2,37.1 l 5.7,25.9 c 10.4,-0.8 56.4,28.3 -1.4,47 -16.5,54.8 -46.1,15.7 -45.8,-4.5 l 0,0 z m 111.8,-244 c -2.4,-2.5 2.2,-19.6 8.1,-29.3 3.2,-5.3 10.5,-8.8 14.8,-8 7.6,1.4 6.3,12.5 -4.2,44.8 -0.4,4.7 -10.7,5.1 -18.7,-7.5 z M 364.4,-524.6 c -12.6,-0.2 -0.9,-34.4 7,-45.2 2.6,-3.4 12.6,4 13.1,9 0.8,8.8 -13.3,39.8 -20.1,36.2 z M 358,-758.3 c 15.4,3.9 39.5,19.7 51.1,28.3 14.3,11 10.2,32.1 21.7,34.1 7.9,-3.8 22.6,-38.3 22.6,-38.3 0,0 3.8,-17.8 -6.3,-23.4 -25.2,-13.9 -24.6,-28.7 -23,-30 7.7,-19.4 22.7,-15.8 30.8,-16.8 0.3,-10.7 0.2,-33.2 22.3,-30.6 19.3,2 20.9,29.7 12.8,29.8 -0.2,-0.5 36.6,-4.9 36,19.3 -0.3,13.1 -22.3,29.7 -29,23.5 0,0 3.3,26.2 -29.6,34.8 -7.8,7.7 -14.4,40.9 -14.4,38 20,-17.7 51.1,-21.5 100,-14.6 -31,55.9 -114.6,28.7 -121,17.7 -42.2,-13.1 -81.6,-30.1 -74,-71.8 z m 363,-130.8 c 44.6,4.6 93.6,-8.9 130.7,-1.1 4.2,0.6 8.7,6.9 11.3,8.4 19.1,10.7 39.2,7.7 70.2,-3.7 7.7,-2.8 149.2,-0.1 149.2,-0.1 31.7,48 88.1,138.3 89.3,135.2 0,0 -78.5,-1.8 -114.7,0 -25.4,1.2 -10.5,4.9 -28.2,5.4 -124.8,91.5 -150.5,292.1 -150.5,292.1 0,0 39.4,-9.9 49.6,1.1 50.2,-141.7 143.3,-205.7 271.9,-191.5 59.4,6.5 129.8,65.8 129.8,65.8 l -128.5,102.2 c -98.1,-50.9 -142,95.3 -112.1,96 l 258.8,-206.8 c 0,0 4.2,17.2 3.8,17.7 -18.5,23.8 -327,268.5 -327,268.5 l -13.3,-15 c 0,0 -8.5,7.4 -13,12.3 -0.5,8.1 2.3,15 8.4,21.5 -61.1,47.9 -64.1,137.1 -20,186.2 0,0 -19.8,1.2 -21.9,1.5 -25.2,4 -49.8,-120.3 0.7,-177.5 -24.6,-49.6 -39.4,-116.9 -42.5,-120.1 0.6,7.9 -39.8,4.8 -39.8,4.8 -4.2,100.2 -15.8,198.4 -40.9,292.9 l 185.5,6.1 -80.6,136.4 c 0,0 -88.6,-3.2 -126.8,-6.3 -39.6,-23.6 -62.8,-6.3 -100.3,1.9 -53.3,1 -131.6,-2.4 -131.6,-1.7 -26,-53.1 -54.1,-92.2 -92.5,-137.9 -4.8,-8.3 157.6,-1.4 157.6,-1.4 0,0 82.6,-122 97.8,-156.5 11.9,-27 38.9,-125.3 38.9,-125.3 1.1,5.2 -14.5,-25.8 -51.6,-25.5 -33,203.9 -276.4,270 -421,136.9 l -1.1,-23.8 324.7,-257.4 14.1,16.7 c -3,-2.5 -199.3,157.2 -196.1,156.2 57.3,30.8 124.3,7.1 117.6,-92 46,-32.5 86.9,-70.5 127.1,-109.3 0.9,-1.5 43.3,98.1 42,117.2 25.1,-8.1 39.7,9.7 39.3,6.6 -8.4,-57.4 44.3,-274.3 45.5,-299.3 -27.9,-2.6 -64.9,-1.9 -122.8,-4.9 45.6,90.7 28.7,151.6 -37,206.4 l -13.4,-17.3 c 5.5,3.1 95.9,-73.4 25.1,-190 -3.3,0.2 -38,-3.6 -38,-3.6 0,0 72.5,-112.1 76.3,-128 z m 349.9,-368.8 c 0,0 203.2,-2.6 203.2,3.3 -7.7,109 16.6,208.9 77,301.6 0,0 -89.9,-4.2 -88.3,-3 l -191.9,-301.9 z"
           id="path3395-8" /><path
           style="fill:#131f67"
           d="M 1366.4,-1261.7 310.5,-1274.8 298.2,420 l 1054.6,11.7 13.6,-1693.4 z m -96.6,5.6 c -0.1,-0.1 -15.6,179.1 76.7,297.6 -57.1,-9.3 -89.9,-0.9 -123.5,22.2 l 4.5,4.7 c 46.2,-27.7 84.9,-19.8 124.7,-15 l -3.7,230.8 c -0.4,11.2 -46.6,5.7 -75.6,-16.6 -13.8,-8.3 -31.5,-25.8 -39.4,-38.8 -2.4,-4 -4.9,-7.9 -5.6,-8.7 -2.6,-3.1 -19,-34.4 -48.9,-93.5 -15.2,-30.1 -35.3,-71.1 -51.7,-102.9 -10.6,-20.6 -30.3,-59.5 -31.6,-62.6 -2.9,-6.5 -24.3,-49.4 -32.7,-65.1 -22.1,-41.3 -57.6,-113.3 -70.3,-139.2 -2.8,-6.7 -7.1,-9.8 0.7,-9.5 1.7,0.1 3.5,0.2 4.5,0.4 1.4,0.7 3.1,-2.3 3.1,-2.3 l 268.8,-1.5 z m -951,960 -0.5,-18.2 309.7,-249.7 9.7,12.7 -318.9,255.2 z m 301.4,-440 c -1.2,0.4 -2.6,0.9 -4.1,1.3 -7.5,-35.2 -2.5,-82.1 7.2,-117.3 14.1,-48.9 39.8,-87.9 68.4,-127.1 65.3,-89.5 94.6,-157.1 94.8,-278.3 l 9.2,1.1 c -0.6,19.1 -3.3,33.5 -4.3,59 -1.5,27.3 -1.2,48 1.4,74.7 1.3,13.1 2,21.6 -0.2,23.3 -1.1,0.8 -2.1,5.4 -1.1,7 -0.2,3.6 -0.8,10.9 -0.8,10.9 -15.6,71.9 -96.7,256 -170.5,345.4 l 0,0 z m 36.5,164.4 -16,-20.1 c 0,0 -12.4,-10.2 -1,-21.5 32.9,-32.6 33.5,-74.5 2.5,-112.5 -2.1,-4.8 10.1,-28.8 10.1,-28.8 l 24.7,0.7 c 38,47.3 47.6,130.3 -20.3,182.2 z m 24.8,-186 c 0.8,-3.2 -36.6,-2.4 -36.6,-2.4 23.6,-34.4 43.8,-69.8 63.6,-105.3 30.7,-53.7 73.6,-148 87.4,-216.5 8.9,80.4 21.7,199.8 90.4,205.2 22.5,1.8 48.8,-13.4 53,-10.8 l 142.8,0.5 c 28.6,59.7 59.7,98.3 96.4,139.3 26.6,15.6 59.1,28 90.6,36.2 17.9,4.7 19.6,1.7 54.9,7.1 9.3,1.4 23.6,-2.3 23.4,-2.4 -28.5,22 -61,15.3 -96.8,5.4 -2,-0.6 -4.1,-1.2 -6.2,-2 l -27.6,40.5 c -60.2,-15 -253.9,-7 -307.3,203 0,0 5.2,2.7 4,1.3 42.6,-182.3 214.2,-216.8 295.7,-197.7 l -7.1,10.6 c -135.3,-18.1 -246.5,65.4 -274.1,185.3 l 2.6,2.4 c 52.9,-181 267.3,-245.8 398.4,-118.4 l 24.5,-16.9 -1,23.3 -328.8,269.3 -12.9,-13.6 c 0,0 -2.3,1.7 -4.9,3.8 -8.5,6.9 -11.8,8.6 -9.5,12.5 2.3,3.9 11.4,12.8 11.7,13.8 -54.5,43.4 -72.6,128.1 -21.9,188.2 5.7,6.4 4.6,8 3.6,0.9 -45.5,-50.6 -38.7,-139.2 19.2,-180.6 l 11.4,15.3 c -25.9,55.2 -40.3,141.6 26,149.9 23.1,64.1 -5.1,139.4 -36.3,189.7 -33.1,58 -72.9,106.1 -98.1,169.5 -12.2,26.4 -32,104.9 -31.7,165.1 l -7.1,-0.2 c 0.3,-24.5 2.2,-53.6 2.6,-72.2 2,-90.7 1.8,-85.3 3.9,-87.6 0.7,-0.8 2.6,-1.5 2.8,-2.2 0.3,-1 -1.5,-2.9 -2.1,-5.1 -0.7,-2.3 -1.8,-6.3 -1.7,-9.6 0.2,-3.4 3.4,-8.2 2.8,-9.3 -13.7,-50.2 -13.9,-140.2 -59.6,-182 -22.4,-19.7 -52.5,-20.8 -91.6,-5.3 -85.9,-0.8 -73.2,3.8 -142.6,-1 -28.1,-52.9 -62.4,-104.4 -99.6,-142.8 -17.4,-19.8 -41.7,-30.9 -64.6,-45.3 9.4,-17.4 20,-30.1 31.6,-38.3 2.4,-3.4 4.1,-7 7.2,-9.8 C 696,-172 749.2,-398 738.5,-392.4 l -2.1,1.8 c -66.6,232.8 -294.1,221.7 -407.4,119.5 0,0 -16.3,13.9 -16.2,-1.5 0.1,-14 5.3,-18 5.3,-18 l 324.1,-258.3 c 5.8,3.8 12,16.3 14.7,15 6,-3.1 14.7,-9.3 14.5,-13.1 -0.2,-2.9 -11.5,-21.2 -11.5,-21.2 86.8,-88 48.5,-128.2 21.6,-189.5 l 0,0 z m 127.3,-498.5 c 1.5,0 3,0.8 4.1,2.5 1.9,3.1 -6.1,21.1 -10.9,24.2 -4.6,3 -4.9,-0.5 -1.4,-18 1,-5.1 4.8,-8.7 8.2,-8.7 z m 471.2,5.5 74.4,0.8 -2.6,285.7 c -54.7,-78.7 -81.9,-169 -71.8,-286.5 z m -451.2,-4.3 c 1.9,-0.1 3.5,0.5 4,1.8 1.9,4.8 -9.3,25.5 -23,42.6 -7.1,8.9 -10.7,11.4 -12.8,9.3 -1.8,-4.1 -1.7,-8.8 4.8,-16.2 5.4,-6.1 14.6,-20.3 18.4,-28.3 1.7,-4.7 3.4,-8.9 8.6,-9.2 z m 76.3,1.9 c 2.2,0 4.4,0 5,1.1 12.7,26.6 36.9,50.8 61.8,63.8 3.6,2.1 1.8,7.3 3,11 -28.1,-4.5 -64.5,-44.7 -74.1,-73.9 0.1,-2.2 2.2,-2.1 4.3,-2 z m 44,0.4 c 5.5,5.7 14.3,12.7 16.2,19.2 1.2,4 2,8.6 1.1,10.7 -4.9,3 -28.9,-25.4 -27.9,-28.7 3.1,-1.9 7,-2.3 10.6,-1.2 z m -105.2,-1.5 c 2.4,0.1 6,0 6.5,1.8 2.9,12.3 -25.7,59.8 -46.3,73.2 -7.3,4.7 -7.8,3.5 -7.1,-4.6 0.5,-5.4 1,-5 8.5,-12 10.8,-10.1 22.6,-25.6 29.1,-39.5 8.5,-17.8 6.5,-18.9 9.3,-18.9 z m 19,0.4 c 2.7,0 5.1,1 5.8,2.2 0.9,1.6 -0.4,4.2 -1.3,7.4 -9.5,26 -32.9,63.4 -60.1,84.5 -10.6,8 -12.4,7.9 -13,-0.5 -0.4,-4.9 1.9,-6.2 6.8,-9.6 23.1,-15.6 43.9,-42.9 52.9,-70.9 1.8,-5.5 1.2,-10.4 4.2,-12 1.4,-0.9 3.1,-1.2 4.7,-1.1 z m 141.5,46.9 c 1.1,1.9 8.8,14.3 2.4,9.6 -2.6,-2.2 -7.3,-7.7 -14.8,-16.4 -17.8,-20.7 -18.3,-19.4 -17.9,-24.5 0.3,-6.6 -4.4,-17.6 5.8,-14.6 9.9,11.8 16.1,31 24.5,45.9 z m -81.5,-45.9 c 2,0 4.5,0.4 6.5,0.8 11.6,22.4 40.3,42.3 40.2,42.2 0,0 0.6,9.7 -0.5,11.4 -0.6,3 -45.6,-32 -50.4,-52.7 0.5,-1.2 2.2,-1.7 4.2,-1.7 z m -32.3,0.1 c 10.4,19.7 31.9,64.4 83.4,82.9 3.7,0.9 7.5,11.5 4.7,14.3 -28.2,-8.5 -79.3,-36.8 -96.1,-97 1.7,-1.6 6.2,-1.3 8,-0.2 z m -13.9,3.6 c -1.8,0 23.5,75.8 97.8,99.1 6.4,2.1 10.2,4.9 9.7,8.7 -0.6,4.8 -0.4,5.4 -7.6,1.7 -20.2,-10.8 -49.1,-16.1 -73.5,-4.1 -3.8,1.9 -7.7,7.1 -4.7,10.4 1.7,1.7 6,0.5 11.5,-1.6 28.3,-10.6 71.3,-3.7 78.8,13.6 5.3,12.3 6.1,21.3 3.1,22.8 -2.3,1.1 -6,-3 -12.7,-9 -21.2,-19 -46.8,-24.6 -67.4,-6.7 -4.5,3.9 -8.8,3.1 -10.4,4.7 -1.5,1.5 0.2,5.1 1.4,8.5 1.3,3.6 1.3,4.6 0,7.6 -1.8,4.1 -2,9.4 -1.8,13.4 0.4,9.6 6.7,18 24.8,30.9 14.2,10.1 25.3,15.7 8,1.5 -29.7,-24.6 -35.1,-34.6 -15.7,-26 19.3,8 46.3,0.5 65.6,-13.8 6.5,0 10.4,-1.1 13.8,1.4 13.8,33.5 25,78.1 43.4,121.4 -22.9,25.3 -102.1,86.8 -158.2,84 -48.4,-2.5 -64.6,-81.8 -74.8,-125.7 -3.4,-18.6 -7.3,-37.5 -6.5,-63.6 0,0 0.9,-0.7 2.1,-0.4 8.1,1.6 22,2.8 29.1,1.3 12.9,-2.9 15.5,-5.1 16.3,-3.2 0.9,2.2 -4.6,7.2 -14,13.5 -4.1,2.7 -16,8.3 -14.8,9.2 2.8,1.9 17.3,-5.5 19.7,-7.6 3.8,-3.1 6.4,-3.3 8.1,-1.5 2.1,2.1 2.5,-0.1 -4.6,17 -7.9,18.9 -7.1,20.6 7.6,32.5 5.1,4.1 9.8,8.2 11,10 1.4,2.3 2.3,5.1 3,6 2.5,3.4 1,-2 -0.4,-10.7 -1.7,-6.4 -7.9,-12.8 -12.3,-16 -8.1,-5.8 -6.8,-11.3 0.2,-30.5 20.5,-56.6 15.7,-82.1 -6,-94.7 -9.8,-5.7 -37.5,-4.5 -46.3,2.7 -4.3,3.5 -3.7,-3.5 -3,-4 53.2,-35.4 65.9,-69.7 79.7,-102.8 l 0,0 z m 101.1,29 c 14.7,15 33.1,35.3 44.1,49.7 6.1,7.7 9.2,15.5 14,23.6 0.9,1.5 1.8,3.1 1.1,3.8 -0.3,0.3 -2.4,-1 -3.5,-1.9 -10.8,-8.4 -55.4,-60.2 -55.4,-60.2 -2,-8.5 -3.4,-11.4 -0.3,-15 z m 8.5,35 c 0,0 38.6,43.1 60.8,64.3 4.3,9.3 12.6,22.7 12.3,25 -0.1,1 -4.8,-2.7 -4.8,-2.7 -24.5,-23.1 -47.1,-48.9 -70.5,-73.5 0.2,0.1 -1.8,-10.1 -1.7,-14.2 0.5,-2 2.9,0.3 3.9,1.1 z m 83.5,110.3 c 5.2,8.6 8.9,16.3 11.4,21.4 4.1,8 2.7,8.2 -1,5.2 -27.7,-23.2 -50.8,-51.3 -76.9,-77.1 -3.4,-3.6 -10.1,-11.5 -10.1,-11.5 0.2,0.3 -8.4,-18.5 -2.8,-18.1 4.3,1.7 7.1,6.5 9.9,9.5 13.7,15 39.7,40.7 69.5,70.6 z m -243.2,-63.7 c 11.5,-0.2 22.9,2.9 28.5,10 5.1,6.5 7.1,16.7 4.2,19.6 -1.8,1.8 -8.2,-3.4 -8.2,-3.4 -27,-15.5 -36.4,-8.3 -51.2,-4 -2.1,0.6 -4.3,-5.1 -1.5,-10.7 5.5,-9.2 19.3,-11.3 28.2,-11.5 l 0,0 z m 170.7,16.3 c 28.7,29.4 57.9,62.1 89,87.5 4.4,3.8 7.4,6.2 9.3,8.3 4.1,8.3 13.4,28 13.4,28 -33.4,-23.9 -108.4,-106 -107.6,-105.4 0.9,0.4 -6.1,-14.9 -4.1,-18.4 z m -56.9,4.2 c 5.3,0 11.1,1.7 15.7,3.6 14.6,6 23.7,12.3 8.6,10 -21.1,-3.1 -28.3,-3.3 -36,-2.2 -14.4,2.1 -15.5,3.7 -16.7,1.4 -3.3,-5.9 12.5,-12.8 28.4,-12.8 z m -119.7,0.4 c 5.3,0 11,1.3 16.6,3.8 17.8,8 20.9,13.2 5.7,10.5 -7.9,-1.4 -22.4,-1.4 -32.8,1.2 -3.3,0.8 -7,2.7 -7.8,2.9 -3.7,1.1 -4.7,-1.6 -3.1,-6.2 2.8,-8 11.3,-12.3 21.4,-12.2 z m 129.2,24.3 3.7,0.3 c -4.9,26.1 -31,23.2 -37.8,0.7 l 3.7,0 c 13.6,21.6 24,9.1 30.4,-1 z m 14.6,1.5 c 12.1,0 11.2,7.2 -1.4,12 -9.7,3.6 -10.7,2.9 -7.1,-4.2 3.4,-7 3,-7.8 8.5,-7.8 z m -124.3,-0.5 c 0.9,23.6 -31.9,27.5 -33.7,1.8 l 3.1,-0.1 c 10.5,20.3 23.1,8.3 27.1,-1.7 l 3.5,0 z m 14.5,3.4 c 3.7,2.6 1.3,6 -6.8,10.9 -7.3,4.4 -9.1,-1 -3.1,-8.6 2.7,-2.4 6.8,-4.4 9.9,-2.3 z m 56.9,0.6 c 1.4,-0.4 4.8,6 1.9,7.5 -1.7,0.9 -4.3,-1.7 -4.5,-3.7 -0.2,-1.5 0.7,-3.2 2.6,-3.8 z m 98.3,2.6 c 21.6,24.4 43.4,48.8 107.3,102 0,0 8.9,16.3 10.8,22.7 -1.6,1.9 -2.4,1.7 -6.9,-0.6 -41.7,-32.9 -80.3,-72.8 -110.5,-109.9 -1.4,-5.2 -4.6,-10.2 -0.7,-14.2 z m -208.8,0.1 c 2.5,-0.1 5.9,5.5 4,8.9 -1.6,1.2 -4.1,-0.7 -5.1,-2.3 -1.1,-1.5 -1,-4.3 -0.3,-5.5 0.3,-0.8 0.8,-1.1 1.4,-1.1 z m 217.5,35.8 c -0.2,-0.8 100.7,103.7 113.8,101.8 6.1,3.7 20.9,33.2 20.9,33.2 0.4,0.9 0.3,2.7 -2.1,1.4 -17.1,-8.7 -88.6,-69.3 -124.9,-114.3 -2.7,-6.4 -5.8,-14.7 -7.7,-22.1 z m -121.4,13.8 c 17.7,8.8 9.8,26.3 -8.8,14.9 -14.7,-9.2 -26.4,-10.1 -26.4,-2.3 0,3.3 4,7.6 7.9,7.6 7.3,0.6 13.9,3.3 21.1,5 11.2,2.5 19.6,-0.4 22.5,-7.1 4.9,-11.5 -6.3,-24.2 -13.8,-23.6 -7.5,0.4 -5.6,4 -2.5,5.5 l 0,0 z m 140.5,29.8 c -1.2,-1.1 50.1,56.4 120.4,104.2 2.7,3.2 9.4,19.7 10.4,21.9 -0.3,1.5 -1.8,0 -1.8,0 -35.5,-21.1 -82.3,-62.6 -126.5,-109.7 0,0 -4.2,-10.4 -5.4,-17.1 1,-0.3 2,0.3 2.9,0.7 z M 919.5,-987 c -1.6,0.2 -3.8,2.6 -6.5,4.1 -5.5,2.9 -7.2,3.7 -20.6,-0.4 -7.2,-2.3 -8.4,-2.1 -12.8,1 -3.8,2.8 -5.9,3.2 -10.1,1.3 -7.6,-3.5 -11.1,-1.1 -18.2,1.3 -6.7,2.4 -9,-0.6 -15,-2.1 -0.8,0 -1.4,24.4 -0.6,25.2 0.3,0.3 6.3,-3.6 9.7,-5.3 5.9,-2.9 5,-2.5 13.6,-2 12.6,2.3 25.1,1.7 33.6,-1.5 10.6,-2.9 18.8,-2.2 26,3.8 4.4,3.7 10.2,3.1 6.9,-3.5 -1.2,-2.3 -3.7,-10.8 -3.4,-13.9 0.5,-4.7 -0.5,-7.7 -2.2,-7.8 -0.2,-0.2 -0.3,-0.2 -0.4,-0.2 z m 134.5,20.5 c 23.7,23.2 52.8,58.5 121.7,99.9 3.5,6.4 8.3,14.8 11.4,21.4 0.3,1.8 -0.2,3.4 -2,2.8 -42.6,-27.6 -66.2,-41.1 -125,-100.3 -3.6,-6 -7.4,-16.1 -10.4,-24.4 0.6,-2.3 3.3,0 4.3,0.6 z m -10.2,8.7 26,50.1 -89.3,-1.2 c 22.8,-13.3 44.7,-31.1 63.3,-48.9 z m -148.1,-0.6 c -14.7,5.7 -17,6.9 -31.5,3.1 -8.5,-2.2 -6.2,2.8 -1.9,4.9 10.9,5.3 26.9,1.8 32.8,-2.2 4,-2.4 6.7,-8.1 0.6,-5.8 z m -15.2,15.2 c -15.4,0 -29.9,5.2 -31.1,11.5 -0.2,1.2 1,2.6 3.4,1.2 10.5,-6.2 36.3,-7.9 55.8,-0.6 3.2,1.2 3.7,-0.8 0.5,-3.5 -7.2,-6.2 -18.1,-8.6 -28.6,-8.6 z m 194.7,23.5 c 28.6,27 56.3,51.9 118.1,88.3 4.4,9.8 10.7,21.6 11.9,22.6 -58,-29 -121,-85.5 -121,-85.5 0,0 -9.8,-17.9 -12,-25.6 -0.2,-2.6 2.2,-0.5 3,0.2 z m 19.5,41.8 c 0,0 52.7,45.6 113.1,76.9 2.4,2.4 8.4,16.9 10.4,18.5 2,1.6 -2.4,1.5 -6.8,-0.8 -31.6,-15 -99.2,-62.6 -99.2,-62.6 -6.4,-10.7 -15.7,-22 -17.5,-32 z m -639.3,181.1 c 5,-10.4 10.1,-21.9 13.4,-31.3 14.5,0.3 21.7,-5 26.9,-11.5 7.3,-0.1 13,0 23,-0.2 -0.2,-9.9 0.4,-23.9 0.4,-23.9 10.3,-10.3 17.3,-22.3 1.8,-40.9 0,0 -0.5,-8.6 -0.6,-23.3 -7.2,-1.2 -23.5,-0.7 -23.5,-0.7 -12.9,-18.6 -36.3,-14.2 -43.5,-0.5 0,0 -10.5,0.5 -17.7,0.4 -0.2,3.9 -1.6,21.2 -1.6,21.2 0,0 -30.9,20.5 0.6,45.5 l -0.7,20.7 c 5.9,0.5 10.2,0.2 17.9,1.8 0,0 -12.5,28.1 -20.6,41.4 -2.7,0.7 -2.1,-0.9 -5.3,-10.3 -3.9,-11.1 -12.7,-23.2 -20.3,-29.3 -10.2,-8.1 -24.4,-10.7 -34.1,-17.8 -9.4,-6.8 -16.1,-15.5 -19.1,-13.9 -1,3.3 -2.3,22.6 1.1,35 4.8,20.4 34,33.7 58.3,43.7 1.9,1.2 3.5,3.1 3.5,3.8 0,3.4 -3.2,2.3 -11.3,1.4 -12.1,-1.3 -17.2,1.9 -21.5,12.2 -1.3,2.5 -4.4,6.9 -6.9,9.8 -2.5,2.9 -5.1,5.7 -5.5,6.9 -0.4,1.2 -3,7.5 -5.5,12.7 -1.6,3.2 -4.2,6.6 -4.4,11.4 -0.7,14.6 -1.2,34.2 0.9,46.6 1.5,9.1 12.9,14.4 16.9,15.2 6.1,1.2 7.1,7.4 6.1,12.4 -4.9,24.8 -19.4,39.8 -23.9,31.6 -1.2,-2.2 -2.3,-12.3 -2.7,-12.2 -0.2,0.1 -2.5,8.6 -1.7,12.1 0.9,3.7 5.6,6.5 10.3,4.9 7,-2.5 12.6,-9.3 17.1,-25 1.8,-6.4 3.6,-10 6.6,-10.4 5.5,0.4 14,11.9 14,11.9 -28.9,23.6 -84.6,66.3 -84.6,66.3 l 6.7,-782.2 454,5.9 c 1.8,62 -6.3,114.1 -29.2,169.1 -27.1,59.2 -68.5,103 -100.4,157.4 -38.6,65.7 -51.4,134.2 -39.3,203.3 -39.2,50.2 -72.1,74.1 -103.2,97.3 0,0 -22.9,-24.6 -35.6,-38.4 0,0 5.4,-0.4 11.8,-0.6 29.4,-3 61.2,-6.8 73.9,-37.2 1.8,-3.4 1.1,-4.9 -1,-5.4 -23,2.9 -43,-0.5 -56,0.3 -31.9,1.9 -45.5,12.8 -45.5,12.8 l 0,0 z m 3.2,22.5 c 0,0 -36.7,-17.9 -39.4,-18.5 -16.1,-3.1 -54.6,-23.7 -61,-37.6 -0.8,-1.8 -2.7,-26.9 -3.3,-32 0.3,-1.6 0.9,-1.6 2.5,-0.4 4.1,2.9 20.1,13.6 26,16.5 24.4,12.2 33.8,20.8 39.6,38.8 1.5,4.5 3,9.2 3.9,10.2 1.9,2.1 2.8,2 5.2,0.1 10.7,-13.5 15.7,-24.7 20.7,-39.3 0.6,-1.6 2,-3.3 1.3,-5.6 -1.8,-6.5 -6.5,-14.9 -1.6,-21.1 -15.4,0.5 -29.9,-10.9 -27.9,-22.1 4.3,-20.8 13.1,-16.9 29.7,-19.8 -1.4,-48.2 43.6,-36 43.1,-2.4 49.5,4.7 25.6,50.3 -3.1,42.9 11.1,26.2 -23.3,35.5 -28,31.1 -2,8.4 -15.4,35.3 -18.3,43.3 37,-25.6 95.9,-13.4 104.5,-15 -22,44.5 -91.6,32.8 -93.9,30.9 z m 662.7,-156.8 c 9.2,7.3 87.7,57.6 102.3,58.9 0,0 6.9,7.9 12.6,15.1 5.3,6.7 7.3,7.8 7.9,9.1 0.6,1.3 -2,1.2 -2.5,1.2 -35.4,-15.9 -71.4,-32.5 -101.8,-58.5 -4.1,-3.6 -5,-5.2 -7,-7.9 -2.8,-3.7 -10.7,-16.5 -11.5,-17.9 z m 25.7,40.2 c 35.9,20.7 66.4,40.7 99.2,51.7 4.7,1.8 7.1,2 9.4,3.6 2.3,1.7 12.3,8 14.6,9.4 14.9,9 16.5,8.6 12.7,10 -4.1,1.6 -30.4,-6.4 -52.7,-14.9 -39.4,-15.1 -53.3,-23.5 -67.4,-36.6 -3,-3.3 -17.8,-21.4 -15.8,-23.2 z m -721.8,105.2 c 3,0 7.9,1.9 12.9,5.9 5.4,4.2 18.6,13.1 24.1,15.5 2.8,1.2 3.7,1.6 3.7,1.6 l 35.1,40.7 -92.3,73.4 c 0,0 -7.3,-7.7 -9.7,-10.3 -2.2,-2.4 -1.5,-4.4 1.3,-7.1 2.3,-2.2 2.5,-6.9 2.1,-9.2 -0.5,-3.5 -0.4,-7.3 4,-10.5 3.6,-2.6 4.2,-7.1 4,-8.4 -0.1,-1 2,-4.3 5,-6.5 6.5,-4.6 8.5,-10.3 6.4,-17 -0.9,-2.8 -1.4,-3.6 2.3,-6 6.6,-4.3 8.3,-8.4 8.8,-14.7 0.1,-1 -0.2,-2.1 -0.3,-2.9 -1.2,-6.8 4.7,-5 9.6,3.5 2.6,4.7 3.3,12.3 4.5,20.9 1.5,10.2 2.5,13 3.1,11.6 3.3,-8.2 -0.1,-39.1 -9.5,-43.4 -13.7,-6.3 -25,-18.9 -21.5,-23.8 1.2,-1.7 1.4,-1.1 9.8,2.9 4.9,2.3 9.4,4.2 10.1,4.2 9.7,0.4 3.9,-3.8 0.7,-4.3 -3.8,-0.6 -15.1,-7.6 -16.4,-10 -2.1,-4 -0.9,-6 2.2,-6.1 z m -23.5,5.1 c 8.9,0 10.6,2.4 10.6,10.1 0,4.5 1.7,8.1 8.7,17.2 2.9,3.7 4.8,6.6 4.6,8 -0.3,2.4 -1.2,-0.1 -11,-1.4 -3.5,-0.5 -5.3,-0.5 -6.5,1.3 -3.4,5 -10.6,-0.3 -14.9,-7.8 -10.4,-17.8 -6.5,-27.4 8.5,-27.4 z m 170.3,12.5 96,120.2 -11.1,8.4 -96.4,-118.5 11.5,-10.1 z m -16.4,7.2 10.2,17.7 c 0,0 -30.4,25.4 -38.4,32.6 -64.6,51.2 -210.5,167.3 -210.5,167.3 l -1.7,-23.7 240.4,-193.9 z m -175.6,1.2 c 1.9,0.1 4,2.5 7.1,7.2 2.6,4.1 8.3,12.3 14.3,18 11.7,11.1 12.9,10.1 3.3,11 -3.8,0.4 -5.1,-0.1 -7.5,5.7 -7.2,8.7 -27.7,-23.1 -22.6,-35.1 1.9,-4.6 3.5,-6.9 5.4,-6.8 z m 33.7,17.4 c 1.8,-0.1 4.1,0.6 6.8,2.3 5.1,2.2 5.5,3.4 4.6,8.3 -0.9,4.7 -4.5,5.9 -11.5,-0.4 -5.3,-5.1 -4.4,-10 0.1,-10.2 l 0,0 z m 155.3,4.6 11.3,14.9 -261.8,207 0.3,-24.1 c 6.3,0.8 174.3,-141.9 250.2,-197.8 l 0,0 z m -201.3,0.2 c 0.7,-0.1 1.8,2.3 4.6,6.6 5.8,8.9 11.1,14.8 17.2,19.4 5.8,4.4 6.4,6.9 2.4,6.9 -1.7,0 -4,1.8 -5.3,3.8 -2.5,4.2 -2.7,3.2 -6.5,0.9 -5.4,-3.2 -10.8,-8.1 -12.9,-14.4 -2,-5.9 -2.1,-15 -0.4,-21.5 0.4,-1 0.6,-1.6 0.9,-1.7 z m 40.8,17.2 c 6.6,-0.2 11.3,7.6 6.8,13.8 -2.5,2.3 -4.7,3.5 -9.5,0.6 -6.3,-3.8 -7.4,-9.6 -2.2,-12.8 1.8,-1.1 3.4,-1.6 4.9,-1.6 z m -42.7,16.2 c 1.4,0 3.9,2 8,6.3 3.2,3.3 8.8,6.2 11,7.5 5,2.9 5.2,3.8 2.5,6.1 -1.2,0.9 -5,1 -6.1,4 -3.1,8.7 -15.6,-1.6 -16.6,-14 -0.6,-6.4 -0.6,-9.9 1.2,-9.9 z m 31.7,1.4 c 8.3,0.4 12.1,10.1 5.4,14.8 -3.6,2.5 -12.6,-2.1 -13.5,-6.9 -0.6,-3 4.9,-8.1 8.1,-7.9 z m 193.4,9.3 c 4.8,0.1 8.6,4 8.6,8.8 -0.1,4.8 -4,8.6 -8.8,8.6 -4.8,-0.1 -8.6,-4 -8.6,-8.8 0,-4.8 4,-8.7 8.8,-8.6 z m -26,3.3 c 4.8,0.1 8.6,4 8.6,8.8 -0.1,4.8 -4,8.6 -8.8,8.6 -4.8,-0.1 -8.6,-4 -8.6,-8.8 0,-4.8 4,-8.6 8.8,-8.6 z m -174.2,9.7 c 0.5,0 1.1,0 1.7,0 8,0.5 8.3,8.1 3.5,12.1 -2.9,2.4 -5.4,3.2 -9.1,0.2 -6.5,-5.3 -4,-12 3.9,-12.3 z m 193.2,14.8 c 4.8,0.1 8.6,4 8.6,8.8 -0.1,4.8 -4,8.6 -8.8,8.6 -4.8,-0.1 -8.7,-4 -8.6,-8.8 0.1,-4.8 4,-8.6 8.8,-8.6 z m 762.7,9 0.2,22 -309.6,251.8 -10.2,-13.7 319.6,-260.1 z m -780.3,-6.8 -23.3,50.7 -6.7,-13.2 -17,-0.2 5.4,-15.1 -9.9,-12.3 51.5,-9.9 z m 480.4,217.2 40.7,-31.9 c -16.4,-87.9 53.4,-122 119,-95.8 l 41.4,-34.5 c -75.4,-64.8 -254.7,-23.4 -201.1,162.2 z M 502.5,-523.6 c 4.8,0.1 8.6,4 8.6,8.8 -0.1,4.8 -4,8.6 -8.8,8.6 -4.8,-0.1 -8.6,-4 -8.6,-8.8 0,-4.8 4,-8.7 8.8,-8.6 z m -26.4,1.8 c 4.8,0.1 8.4,3.7 8.3,8.5 -0.1,4.8 -3.7,9 -8.5,8.9 -4.8,-0.1 -8.6,-4 -8.6,-8.8 0,-4.8 4,-8.6 8.8,-8.6 z m 140.1,19.2 -40.4,31.6 c 9.4,84.1 -31.9,126.4 -119.4,96.6 l -42.8,33.2 C 527.5,-261 678.7,-361 616.2,-502.6 Z m -123.2,6.2 c 4.8,0.1 8.6,4 8.6,8.8 -0.1,4.8 -4,8.6 -8.8,8.6 -4.8,-0.1 -8.6,-4 -8.6,-8.8 0,-4.8 4,-8.6 8.8,-8.6 z m 841.9,11.6 c 4.8,0.1 8.7,4 8.6,8.8 -0.1,4.8 -4,8.6 -8.8,8.6 -4.8,-0.1 -8.6,-4 -8.6,-8.8 0.1,-4.8 4,-8.7 8.8,-8.6 z m -860,-7.5 -26.1,50.3 -6.2,-15.3 -17.2,0 5.7,-17.6 -10.6,-9.2 54.4,-8.2 z m 825.5,14.5 7.8,13.5 16.8,0.6 -6.5,12.7 12,12.6 -54.9,12.8 24.8,-52.2 z m -887,26.9 c 4.8,0.1 8.7,4 8.6,8.8 -0.1,4.8 -4,8.6 -8.8,8.6 -4.8,-0.1 -8.6,-4 -8.6,-8.8 0.1,-4.8 4,-8.6 8.8,-8.6 z m -25,0.7 c 4.8,0.1 8.7,4 8.6,8.8 -0.1,4.8 -4,8.6 -8.8,8.6 -4.8,-0.1 -8.6,-4 -8.6,-8.8 0.1,-4.8 4,-8.7 8.8,-8.6 z m 869.2,14.8 c 4.8,0.1 8.6,4 8.6,8.8 -0.1,4.8 -4,8.6 -8.8,8.6 -4.8,0 -8.6,-4 -8.6,-8.8 0.1,-4.8 4,-8.6 8.8,-8.6 z m 87.9,2.4 0.2,19.3 C 1264.8,-344 1095,-209.5 1095,-209.5 l -10.3,-13.6 c 0,0 172.8,-138 260.8,-209.9 l 0,0 z m -940,8.3 c 4.8,0.1 8.6,4 8.6,8.8 -0.1,4.8 -4,8.7 -8.8,8.6 -4.8,-0.1 -8.6,-4 -8.6,-8.8 0.1,-4.8 4,-8.6 8.8,-8.6 z m 869.7,11.8 c 4.8,0.1 8.6,4 8.6,8.8 -0.1,4.8 -4,8.7 -8.8,8.6 -4.8,-0.1 -8.6,-4 -8.6,-8.8 0,-4.8 4,-8.7 8.8,-8.6 z m -24.6,1.3 c 4.8,0.1 8.6,4 8.6,8.8 -0.1,4.8 -4,8.7 -8.8,8.6 -4.8,-0.1 -8.7,-4 -8.6,-8.8 0,-4.8 4,-8.7 8.8,-8.6 z m 97,4.1 -1,24.5 c -78.3,65.3 -238.4,194.9 -237.9,194.9 l -11.8,-16.7 c 0.1,0.1 175.6,-147.7 250.7,-202.7 l 0,0 z m -958.1,-14.2 -24.5,53.7 -10.2,-14.7 -15.1,-1.2 3.8,-14.6 -13.8,-9.6 59.8,-13.6 z m 829.6,30.5 15.3,-2.7 -2.8,15.6 10.6,11.4 -56.4,11.7 27.8,-50.2 5.5,14.2 z m 81.2,264 c 11.2,17.2 10.3,35.8 5.5,38.6 -5,-2.9 -9.3,-7.9 -14.5,-10.2 -26.1,-11.6 -46.9,-21.1 -50.5,-37.8 -13.9,-37.7 50.1,-4.9 59.5,9.4 z m -136.7,-101.5 89,-70.8 c 0,0 13.4,7.1 16,10.3 0.9,3.5 -1.6,4.5 -5.2,7.7 -1.7,2.1 -2.7,4.1 -2.9,8.7 -0.2,4.9 1.4,7.2 -0.6,9.3 -3.3,-0.2 -6,4.1 -5.9,7.6 0.1,2.7 -3.5,5.6 -5.5,7.6 -3.7,3.5 -4.8,4.3 -7.2,16.4 -0.2,1.2 -0.2,4.4 -1.9,6 -5.1,0.4 -8.9,12.8 -11.3,13.6 -3.7,-0.3 -9.6,-4.9 -11,-11.6 -0.9,-4.4 -0.5,-12.9 0.6,-18.3 1.3,-6.5 1.9,-12.4 1.5,-14 -0.9,-3.6 -3.3,-1.4 -3.4,3.7 0,2.1 -0.9,8.3 -2.3,14.1 -1.4,5.8 -5,13.6 -3.5,18.2 2.3,6.9 11.1,9.9 15,13.6 10.3,9.7 12.6,14.4 13.7,16.5 8.2,15.4 8.2,18 6,29.4 -1.3,6.6 -7.7,5.4 -11.6,2.7 0,0 -24.6,-18.3 -35.3,-27.4 -16.1,-13.8 -27.5,-27.8 -34.2,-43.3 l 0,0 z m 32.9,49.7 c 9.4,3.9 33.9,22.1 33.9,22.1 l -23,46.4 c 4,7.4 5.4,25.5 5.4,25.5 28.4,-1.9 43.2,46.1 -0.9,41.2 4.7,29.6 -43.2,52.3 -41.3,-0.7 -49.7,3.3 -32.4,-52.7 -1.9,-41.8 -0.7,-23.8 15.3,-26.7 26.5,-32.5 9.3,-10.3 15.2,-33.7 15.2,-33.7 l -2.2,-7.2 0,0 c -9.6,16.3 -49.7,20.6 -93.6,11.4 12.3,-28.1 48.4,-26.9 81.9,-30.7 l 0,0 z m -87.9,34.6 c -1.6,5.6 -1.6,5.5 5.2,4.9 3.4,-0.3 17.2,-0.1 26.9,0.4 17.7,1.6 45.6,2 59.7,-8.5 2.7,-2.6 4.2,-2.4 4.7,-0.9 1.1,6.9 -12.7,29.4 -12.7,29.4 l -22.6,12.1 c 0,0 -9.2,0.3 -20.5,-0.1 l -0.4,20.2 c -9,5.2 -24.5,27.6 -0.1,45.1 l -1.1,22 21.6,0.6 c 14.2,13.9 25.9,14 39.3,1.2 l 25,0.3 0.2,-23.7 c 12.4,-9.8 14.4,-26.5 1.9,-40.1 l 0,-24.1 -19.2,-0.1 c 0,0 -3.9,-3.1 -4,-5.6 0,-1.6 14.3,-28.5 17.1,-32.3 3.5,-5 2.6,-2.1 8,9.5 7.8,16.7 15.6,23.5 35.8,33.6 18,8.9 24.4,13.1 29.6,18.2 4.1,4 6.6,2.8 8.3,-3.1 3.6,-13.2 2.7,-26.4 -4.4,-38.6 -15.1,-25.7 -41.9,-27.2 -46.1,-33.2 -0.5,-1.4 4.9,-3 10.8,-5.5 10.2,-6 25.3,-24.5 27.2,-32 -0.3,-3.6 2.2,-14.9 4,-17.4 2.1,-4.4 2.3,-6.5 2.4,-18.5 -1.7,-6.9 0,-15.7 0.9,-18.8 1,-6.2 -2.2,-13.6 -6.8,-22.6 -1.7,-8.4 -1.3,-6.2 4.3,-25 0.9,-3 7.3,-29.2 -0.5,-31.1 0.1,0.2 0.8,1 1,1.5 1.3,2.6 1.9,14 0.7,17.2 -0.5,1.3 -1.4,4.5 -2.1,7.3 -4.9,21 -7.8,26.3 -12,21.6 -1,-1.1 -4.9,-2.7 -7.8,-4.7 -5.6,-3.8 -5.1,-5.7 -3.6,-12.7 0.4,-1.1 2.7,-10.7 2.5,-10.4 -1.3,3.3 -2.2,11.9 -6.1,13.8 -2.1,0.5 -4.9,-1.4 -10.2,-6.1 -2,-1.8 -6.4,-4.9 -6.4,-4.9 0,0 64.4,-53 88.3,-70.5 L 1338.3,418.8 887.6,414 C 882.5,364.7 898,299.7 923.3,234.8 938.9,194.6 961,165 985.9,129.2 c 47.8,-68.3 84.2,-137.8 71.4,-226.5 -1.6,-13.2 -3.4,-19.5 -2.7,-23 5.8,-10.7 28.9,-42.9 45.6,-56.3 24.6,-19.6 58.7,-48.9 61.4,-47.1 7.9,15.7 17.3,28.4 29.9,38.1 2.2,2.4 2.2,4.6 -2.9,5.6 -33.8,-1 -68.5,6 -80,35.6 l 0,0 z M 328.5,-379 c 4.8,0.1 8.6,4 8.6,8.8 -0.1,4.8 -4,8.6 -8.8,8.6 -4.8,-0.1 -8.6,-4 -8.6,-8.8 0.1,-4.8 4,-8.6 8.8,-8.6 z m 842.5,11.4 c 4.8,0.1 8.6,4 8.6,8.8 -0.1,4.8 -4,8.6 -8.8,8.6 -4.8,0 -8.6,-4 -8.6,-8.8 0,-4.8 4,-8.7 8.8,-8.6 z m 18.6,24 c 4.8,0.1 8.6,4 8.6,8.8 -0.1,4.8 -4,8.6 -8.8,8.6 -4.8,-0.1 -8.6,-4 -8.6,-8.8 0.1,-4.8 4,-8.6 8.8,-8.6 z m -28.1,3.4 c 4.8,0.1 8.6,4 8.6,8.8 -0.1,4.8 -4,8.6 -8.8,8.6 -4.8,-0.1 -8.6,-4 -8.6,-8.8 0,-4.8 4,-8.6 8.8,-8.6 z m -31.3,19.5 15.7,-0.6 c -2,5.6 -3.2,11.4 -4.3,17.3 l 12.7,9.5 -55.5,8.8 24.4,-48.8 7,13.8 z m -39.3,142.6 -91.9,-121.4 11.3,-9 92.6,120.1 -12,10.3 z m -10.1,-117.1 c 4.8,0.1 8.6,4 8.6,8.8 0,4.8 -4,8.6 -8.8,8.6 -4.8,-0.1 -8.6,-4 -8.6,-8.8 0,-4.8 4,-8.6 8.8,-8.6 z m 195.6,15.7 c 7.5,6 -0.2,14.1 -7.3,10.8 -6.2,-2.7 -5.7,-9.1 -0.7,-11.6 3,-1.4 5.4,-1 8,0.8 z m 10,5.7 c 7.7,0.2 16.1,18.7 14.5,24.1 -2.4,6.3 -4.5,6.5 -15.3,-2.9 -10.7,-9.3 -10.9,-9.6 -6.4,-14.5 2.4,-2.9 3.6,-6.6 7.2,-6.7 l 0,0 z m -184.4,1.3 c 4.8,0.1 8.6,4 8.6,8.8 -0.1,4.8 -4,8.7 -8.8,8.6 -4.8,-0.1 -8.6,-4 -8.6,-8.8 0.1,-4.8 4,-8.6 8.8,-8.6 z m -27,3.1 c 4.8,0.1 8.6,4 8.6,8.8 -0.1,4.8 -4,8.6 -8.8,8.6 -4.8,-0.1 -8.6,-4 -8.6,-8.8 0.1,-4.9 4,-8.7 8.8,-8.6 z m 190.8,8.3 c 8.6,1.4 10.7,7.9 6.7,12.6 -5.4,6.5 -17.4,0.4 -14.5,-7.3 1.4,-3.5 4.5,-5.3 7.8,-5.3 l 0,0 z m 15.2,9.9 c 3.4,-0.2 8.4,4.4 13.8,12.2 6.1,8.7 6.6,11.5 4.8,16.8 -2.7,7.7 -4.3,9.1 -9.8,1.5 -2.1,-2.8 -6.9,-9.5 -10.3,-13.2 -7.4,-7.9 -8.5,-5.9 -4,-11.8 2.1,-2.8 3.5,-5.3 5.5,-5.5 z m -20.2,8.9 c 7.7,4.1 8.3,9.2 3.7,12.9 -5.4,2.9 -14.8,-0.7 -16.6,-6 -2.5,-7.9 5.7,-11.7 12.9,-6.9 z m 12.9,11.6 c 4.4,-0.2 7.9,4.3 13.1,13 8.9,14.7 9.4,19.7 1.5,29.3 -5.6,6.9 -6.2,7.3 -11.5,-3.9 -4.3,-9.1 -12.7,-19.8 -20.5,-26.2 -3.2,-2.7 -4.4,-6.4 -2,-6.6 0.7,-0.1 3.6,-0.2 6.4,-0.2 4.2,-0.1 5.7,-0.7 8,-2.9 1.7,-1.6 3.3,-2.4 5,-2.5 z m -31.4,11.1 c 4.1,-0.2 9.3,2.1 13.1,6.7 4.4,4.7 3.8,8.9 -4.9,9.7 -3.9,1.5 -14.5,-5.6 -14.5,-10.3 0,-4 2.7,-6 6.3,-6.1 z m 20.3,17.2 c 0.2,0 0.4,0 0.6,0 3.6,0.2 5.5,3.8 9.5,12 6.1,12.7 4.3,19.5 -6.7,25 -7.4,3.7 -13,4.8 -13.9,0.4 -0.3,-1.3 -0.2,-4.9 -0.8,-8.4 -0.8,-4.7 -1.8,-9.6 -5.9,-15.9 -6.5,-10.1 -7.7,-13.6 -0.4,-10.6 3.8,1.6 8,1.5 12.5,-0.8 1.9,-1 3.6,-1.6 5.1,-1.7 l 0,0 z m -37.1,19.9 c -2.5,-0.1 -4.2,1.4 -3.5,5.6 2.3,1.2 5.9,0.1 8.6,1.2 3.7,1.4 5.9,7.4 9.8,6.5 0.5,-5.2 -9.4,-13.2 -14.9,-13.3 l 0,0 z M 472.4,-103 c -20.2,-9.9 -70.3,-32.8 -94.5,-33.4 -44.8,-13.1 -47.9,-7.4 -63.6,-11.6 83.7,-20.7 140.6,21.5 161.4,42 9.5,9.5 4.3,6.7 -3.3,3 z m 50.9,197.3 c 46.8,83.3 90.3,177.2 163.4,316.3 l -7.2,2.2 -284.6,-2.7 C 410.7,257.5 329.8,111 324.1,116.7 c 64.5,1.9 118.1,-9.9 129.7,-33.6 l -9.2,-2.7 c -37.9,32 -92.3,32.8 -129.6,22.4 1.7,-79.6 -1.8,-163.7 1.6,-243.3 44.4,-2.8 78.8,13.8 103,46.5 40.7,54.9 67.9,124.5 103.7,188.3 z m -128,-222.1 c 11.4,-0.7 73.4,25.6 101.1,45 7.7,8.1 18.8,22.1 18.8,23.5 0,3.7 -5.4,-0.9 -32.2,-16.6 -20.2,-11.7 -41.3,-21.1 -61.8,-30.1 -0.9,-0.4 -2.8,-1.2 -2.8,-1.2 0,0 -1.5,-1.8 -4.1,-3.8 -7.3,-5.7 -21.4,-15.9 -19,-16.8 l 0,0 z m 29.9,29.4 c -0.6,-0.1 61.5,23.2 110.8,63.3 6.5,5.3 14.4,25 14.4,25 -4.3,-8.4 -82.2,-56.2 -109.7,-67.2 0,-0.1 -15.5,-21.1 -15.5,-21.1 z m 21.7,30.3 c 3.4,-2 94.1,52.9 107.3,66.9 6,4.7 20,27.4 20,31.9 0,4 -4.4,0.5 -12.5,-7.1 -41.6,-39.7 -102,-70 -102.5,-69.3 l -12.3,-22.4 z m 16.6,31.5 c 42.7,18.6 96,62.8 122.9,89.1 6.7,6.8 11.5,16.6 12.3,21.1 0.5,2.8 -0.9,2.6 -1.5,4.1 -34.8,-40.8 -111.6,-87.8 -121.9,-91.5 0.1,2.5 -8.2,-15.8 -11.8,-22.8 z M 604.4,90.9 c 4.9,5.1 12.5,22.8 10.7,24.9 -0.9,1 -0.8,0.5 -2.8,-1 -11.1,-11.3 -68.4,-63.3 -116.4,-92.7 -4.5,-2.3 -19.4,-26.5 -16.2,-26.9 25.1,8.6 96.6,67 124.7,95.7 l 0,0 z M 500.6,32.4 c 0.8,0.1 2.3,1.2 4.9,2.6 44.1,25 107.8,87.4 119.9,102.4 2.7,4.6 7,13 6.6,18.2 -0.6,4 -2.2,0.6 -19.9,-17.3 C 583.6,109.7 550.7,82 515.8,58.7 509.1,54 510.4,53.4 505.6,44.8 c -4.9,-8.7 -6.9,-12.6 -5,-12.4 l 0,0 z m 284,4.1 c 31.7,1.3 43.8,25.4 62.9,69.9 15.5,43.8 21.7,83.8 22.1,115.6 0,2.1 -3.8,0.3 -5.6,-0.2 -8.5,-2.4 -19,-4.6 -31.3,-1.7 -9,2.2 -17.6,1.8 -8.3,-4.1 3,-1.9 11.2,-9.3 15.5,-11.9 8.8,-5.3 3.5,-5.3 -5.2,-1.2 -6.6,3.1 -11,7.2 -13.7,7.8 -1.7,0.4 -0.6,-5.1 1.1,-9 9.5,-22.6 12.4,-36 -1.3,-40.3 -3.7,-1.2 -8.7,-4.7 -11,-7 -1.9,-1.9 -3.4,-9.2 -4,-9.5 -0.6,-0.3 -1.1,6.7 -1.1,7.7 0,3.6 4.6,11.1 10.2,15.2 9.5,7 11.3,8.9 6,25 -7.5,22.6 -9.1,28.2 -10.5,33.4 -0.8,3 -2.3,8.2 -3.1,11.5 -3,12.8 -2.8,24.1 -2.4,34.8 2.9,24 28.5,36 63.3,23.1 3.3,-1.2 4.6,-0.1 4.6,-0.1 -27.9,27.7 -59,45.3 -77.7,101.8 -22.7,-47 -55.1,-84 -109.6,-99.3 l -0.7,-9.8 c 18.9,9.3 55.7,22.2 79.3,8.5 12.6,-8.4 8.9,-14 -6.4,-8.3 -18.2,6.8 -51,5.7 -67.2,-3.7 -3.3,-1.9 -6.7,-0.3 -7.7,0 -0.8,-5.5 -8.4,-26.3 -7.2,-34.1 -0.7,-1.1 5,-1.1 6.1,0.4 4.5,6.1 27.2,24.3 51.1,23.2 11.9,-0.6 21.7,-4.1 32.1,-14.8 0.9,-0.8 5.1,-1.3 5.7,-1.9 0.9,-1 0.3,-2.6 0.3,-3.1 -0.2,-0.8 -1.8,-3.1 -2.7,-5.7 -1.3,-2.2 -1.6,-4.6 -1.3,-6.4 0,-1.5 1,-2.3 1.8,-3.3 0.9,-2 0.7,-4.5 0.2,-5.9 -2.1,-1.5 -1.8,-4.1 -0.7,-5.3 3.3,-3.6 -27.4,-32.3 -33.5,-32.3 -2.2,0 -0.9,4.1 3.5,7.1 15.7,10.6 27,24.5 24.4,26.2 -2,1.4 -9.1,-1.7 -16.2,-3.5 -14.4,-3.5 -31.7,-5.9 -50.6,7.5 -7.1,5.7 -25.7,6.4 -25.7,6.4 -0.1,-10.1 -41.6,-123.6 -41.8,-118.7 15.8,-18 65.1,-60.4 114.4,-78.4 14.8,-4.8 31,-7.2 41.9,-5.6 l 0,0 z m -186.1,23.2 88.9,2.4 C 664.9,73.1 623.8,113 623.8,113 612.5,89.5 609.1,77.8 598.5,59.7 l 0,0 z m -77,10.9 c 6.6,0.1 76.6,58.4 86.5,72.1 1.2,1.6 8.3,9.3 15.7,16.9 18.1,18.5 25.5,29.2 25.5,36.7 0,3.6 -3.2,1.2 -8,-4.2 -36.1,-41 -59.7,-63.4 -104.5,-95 -5.1,-2.8 -20.8,-24.2 -15.4,-26.5 0,0 0.1,0 0.2,0 l 0,0 z m 241.4,13.3 c -2,-0.1 -1.7,1.8 -0.6,3.6 11.1,10 40.7,9.9 51,2 9.3,-7.2 -2.8,-3.5 -6.6,-1.9 -8.9,3.7 -18.4,3.2 -30.6,-0.2 -7.3,-2 -11.2,-3.4 -13.2,-3.5 l 0,0 z m 27.1,16.4 c -10.3,0 -21.2,3 -18.8,6.8 0.9,1.4 3.7,4 10.5,0.4 9.8,-4.7 29.8,1.8 30.4,2 2,0.6 -6.6,-5.8 -9.5,-7.1 -3.3,-1.5 -7.9,-2.1 -12.6,-2.1 z m -249.4,8 c 37.7,23.6 83.4,70.6 110.8,104.1 4.6,5.8 7.8,12.8 7.8,17 0,6 -1.2,2.6 -26.2,-23.2 -19.5,-20.4 -49.1,-48.3 -68.6,-63.3 -11.8,-8.8 -13.9,-9.9 -19.3,-20.2 -5.2,-9.8 -7,-14.6 -4.5,-14.4 l 0,0 z m 236.3,10.4 c -7.2,3.3 -16.6,2.5 -25.8,-0.8 -8.3,-3 -6.4,-0.5 -3.3,8.7 1.4,4.2 2.2,10 2.2,10.9 0,2 0,2.2 5.9,-1.1 5.2,-2.8 6.3,-3.8 17.2,-1.1 11.1,2.7 11.3,1.8 16.5,-0.9 4.6,-2.3 5.5,-3.7 8.6,-2.4 6.1,2.5 13,3.6 20.8,-0.4 6,-3.1 8,-0.9 10.7,0.5 3.7,1.9 5.2,0.7 3.8,-3 -0.6,-1.5 -1.6,-7.9 -1.6,-10 0,-3.8 -0.9,-7.3 -2.6,-6.5 -6,2.9 -10.9,6.1 -16.6,5.9 -10.3,-0.4 -19.4,-6.8 -35.8,0.2 l 0,0 z m -462.4,2.7 c 93.3,118.9 74.6,288.5 71.5,287.1 L 311.9,408 314.5,121.4 Z M 560.2,148 c 37.5,26.9 81.9,73.6 106.5,105.8 4.2,5.6 0.7,7.3 2.8,13.9 0.7,2.5 -3.4,-1.2 -15.2,-14.2 -14.8,-16.2 -39.1,-40.6 -55.1,-54.8 -17.6,-15.6 -22.6,-19.5 -26.4,-24.7 -3,-4.4 -14.9,-25.4 -12.6,-26 l 0,0 z m 212.5,13.2 c -0.4,0 -0.8,0 -1.2,0 -13.5,0.5 -20.4,15.5 -9,26.2 4.3,4.1 11.1,6.5 11.1,4.3 0,-0.5 -2.1,-2.7 -3.6,-3.9 -9.5,-7.5 -8.4,-19 2.5,-19 3.8,0 4,1.4 12.7,7.7 10.2,7.5 22.4,7.7 22.3,0.2 0,-5.5 -2,-11.1 -11.2,-10.3 -2.4,0.2 -5.6,0.4 -8.5,-0.3 -2.7,-0.7 -5,-2.4 -6.1,-2.9 -3.1,-1.2 -6.2,-1.9 -9,-2 z m -188.4,32.6 c 28.7,19.7 67.9,64 87.9,90.1 4.6,6.1 4.8,12.8 2.9,16.4 -0.5,0.7 -4,-1.5 -4,-1.5 -23.2,-27.9 -49.5,-53.3 -75.3,-79.1 0,0 -15.3,-25.2 -11.5,-25.9 z m 279.7,45.1 -6.3,3 c -9.3,-14.3 -18,-14.6 -25.4,1.9 l -4.6,-1.2 c -3.4,-3.9 12.9,-39.7 36.3,-3.7 l 0,0 z m -1.3,-12.1 c 2.6,0.1 7.1,1.6 8.2,4.2 1.2,2.5 -0.2,5.2 -3.8,5.1 -0.5,0 -3.9,-4.3 -5.6,-6.9 -1.3,-1.7 -0.7,-2.5 1.2,-2.4 z m -106.3,16.1 -7,0.2 c -13.1,-17.6 -23.2,-6 -29.2,1.2 l -7.5,-1.1 c 1.4,-19.1 35.4,-25.4 43.7,-0.3 l 0,0 z m 68.1,-14.2 c 1.1,0 2.1,0.2 3.1,0.6 -2.8,4.1 -3.3,7.6 -4,11.4 -2.7,1.1 -6.6,3.4 -9.5,0.4 -5.3,-4.9 3.1,-12.6 10.4,-12.4 l 0,0 z m -109.1,0.8 c 3.3,0.1 2.3,-0.2 0.9,1.6 -1.5,1.9 -3.5,5.2 -4.6,8.1 -0.5,2.1 -0.8,2.8 -2.8,2.8 -3.7,0.1 -11.2,-1.3 -11.1,-1.3 -2.8,-2.6 9,-11 17.6,-11.2 l 0,0 z m 42.2,2.9 c 2.2,-0.2 1.7,2.9 0.9,4.1 -1.4,1.6 -2,2.2 -2.7,0.1 -0.4,-1 -0.9,-1.8 -1.4,-2.4 -1.1,-1.4 -0.9,-1.5 0.4,-1.7 0.6,0 2,-0.1 2.8,-0.1 z m 114,15.2 c 8.1,-0.1 2.5,13.6 -8.8,16.8 -12.6,6.2 -26.9,4.5 -41.4,-4 -8.3,-4.8 -10.7,-9.9 -3.5,-7.8 27.2,7.8 33.9,6.5 50.5,-4 1,-0.7 2,-0.9 3.2,-1 z m -262.8,-5.9 c 26.9,23.3 47.1,49.7 68.6,74 4.3,5.4 6.3,10.6 5.4,14.1 -1.1,4.3 -9.9,-6.1 -9.9,-6.1 0.2,0.1 -52.5,-57.4 -52.5,-57.4 0,0 -13.3,-24.5 -11.6,-24.6 z m 81.2,8.9 c 1.9,0.1 5.6,1 11.7,2.6 26.1,8.2 34,8 49.1,1.3 9.6,-4.3 13.6,-3.6 9.4,3 -7.7,12.1 -34.4,13.1 -54.3,6.1 -5.3,-1.9 -9.9,-5.1 -15,-8.9 -2.7,-3 -3.4,-4.2 -0.9,-4.1 z m 120.6,9.4 c 1.6,-0.1 4.5,1.7 8,3.8 21.8,12.7 38,10.6 51.6,2.4 2.5,-2.2 3.8,-1.1 4.1,1 1.1,7.6 1.3,13 -2.2,16.6 -2,2.1 -5.5,3 -10.6,4.7 -21.3,6.9 -47.1,1.5 -51.8,-14.5 -1.6,-8.1 -2.6,-13.8 0.9,-14 l 0,0 z m -174.4,32.2 c 0.1,0 0.2,0 0.2,0 1.5,0.2 5,3.4 10.5,9.8 28.8,33.4 44.7,52.6 41.7,62.2 -0.3,0 -0.5,2.1 -1.7,1 -15.9,-14 -28.8,-29.3 -38.4,-45.3 -10.4,-17.5 -14.7,-27.5 -12.3,-27.7 z m 235,25.9 c -24.8,18.6 -55.2,63 -58.1,85.1 -0.6,4.2 -0.1,7.4 -1.7,8.9 -1.3,1.2 -4,1.3 -7.8,0.5 -2.3,-0.4 -1.7,-0.7 -2.2,-3.3 -2,-10.1 8,-35.4 28.3,-65.2 10.7,-15.6 34.8,-36.6 41.5,-36.6 4.4,1.9 -0.1,10.8 0,10.6 z M 689,305.9 c 1.7,0 4.4,0.9 8.2,2.6 22,9.7 30.2,13.3 44.4,25.1 26.4,22 55.5,74 46.7,78.7 -3.8,2.1 -6.5,0.7 -8,-4.1 -0.3,-0.9 -3,-8.1 -6.3,-14.3 -17.5,-33 -40.5,-55.9 -73.1,-72.2 -12,-6 -13.3,-5.4 -14.1,-10.3 -0.7,-3.9 0,-5.5 2.2,-5.5 l 0,0 z m 181.7,21 c 2.2,-0.2 2.7,3.9 1.9,12 -0.7,6.6 -1.1,6.5 -8.6,14.2 -11.9,9.4 -26.1,31.7 -32.9,54.5 0,0.8 -0.6,2.5 -1.8,3.5 -3.1,2.6 -6.9,1.3 -9.5,1.2 -1.9,-1 -1.3,-5.2 -0.9,-7.5 5.6,-20.7 19.2,-46.1 40.3,-68.2 6,-6.3 9.6,-9.6 11.5,-9.7 l 0,0 z m -177.3,-1.4 c 11.7,-0.1 52.9,31.4 69.5,58.8 10.8,17.9 13.7,25.2 11.1,27.8 -1.4,1.4 -7.3,1.5 -10.3,0.3 -2.8,-1.1 -3.8,-5.4 -9,-15.4 -13.5,-26 -33,-44.9 -54.4,-55 -4,-1.9 -6.1,-3.1 -7.4,-4.5 -1.4,-3.1 -3.1,-11.5 0.5,-12 l 0,0 z m 6,23.1 c 3.6,0.7 13.6,7.4 21.9,13.6 14.7,11.1 37,44.7 32.3,49.4 -1.5,1.5 -6.7,1.5 -9.4,0.4 -15.6,-28.5 -36.1,-42.2 -44.4,-50.2 -2.4,-4.2 -8.3,-14.4 -0.4,-13.2 z m -33.1,4.7 c 0.7,-0.2 3.4,2.6 8.4,8 14.8,15.8 24,33.3 21.8,42.1 -1.9,7.4 -4.1,3.3 -20.8,-29.5 -7,-13.9 -10.4,-20.4 -9.4,-20.6 z m 204.3,2.7 c 0.2,9 -0.5,11.2 -1.5,16 -0.7,3.3 -2.9,4.7 -4.9,7.3 -5.1,6.3 -11,17.1 -14,25.9 -2.5,7.1 -1.4,8.8 -10.1,7.8 -4.1,-0.6 -3.1,-1.7 -1.4,-6.4 5.6,-15.4 19.1,-40.3 31.9,-50.6 l 0,0 z m -169.9,15.1 c 0.2,-4.6 39.7,36 34.1,40.4 -5.2,0.8 -8.3,1 -10.4,-0.9 -4.2,-9.6 -22.9,-27.9 -22.9,-27.9 l -0.8,-11.6 z m 167.4,14.5 c 0.1,0 0.2,0 0.3,0 1.8,0.4 0.5,25.1 -1,27.1 -2.9,1.4 -8.2,1.5 -11.1,-0.1 -1.7,-1 -2.3,-2.7 -1.6,-4.6 1.7,-4.8 10.5,-21.8 13.4,-22.4 z m -150.9,25.5 c -1.3,1.9 -9,2.2 -11.9,0 -0.9,-0.7 -1.7,-13 -0.6,-15.2 3,-1.9 13.6,12.6 12.5,15.2 z"
           id="path3393-8" /><path
           d="m 219.4,-1371.8 c -31,0.3 -46.7,26 -47.1,52 l -0.7,68.2 -18.5,-0.2 -0.3,22.6 18.5,0.2 c 0,0 0.2,10.3 0.1,16.5 -0.6,30.6 10,49.3 31.1,54.7 20.2,3.9 30.8,-0.3 46.3,-8.1 5.6,2.4 9.4,7.2 15.4,7.9 6.6,0.7 20.4,0.6 20.4,0.6 l -0.1,-23.2 -6.9,-1.1 c -13.2,-0.4 -18.9,-5.1 -17.4,-13.3 2.9,-5.3 3.3,-9.3 3.7,-15.7 l 1.3,-115.3 c -0.1,-28.3 -23,-45.3 -45.8,-45.8 z m -1.3,22.5 c 14.8,-0.1 26.9,17.3 26.4,35 l -0.8,89.1 c 0.4,5.6 -0.5,11.1 -3,14.9 -1.9,-5.7 -32.1,-37.3 -47.5,-36.1 0,0 -0.6,1.6 -0.6,-37.6 0,-19.2 -4.7,-48 12.7,-60.7 4.4,-3.2 8.7,-4.6 12.8,-4.6 z m 801.5,86.1 4.9,6.6 -29.2,-0.2 c 4.7,4.1 110.6,223.1 246.2,476.4 22.4,44.4 66,60.8 116.7,63.3 l -132,-218 c 14.4,-7.6 43.1,-28.2 60.2,-24.1 1,5.3 6.1,3.2 6.3,-1.4 l 6.2,0.2 2.1,3.4 26.1,0.3 2.2,-3.1 22.5,3.5 c -59.4,-74.8 -89.8,-189.5 -78.3,-301 l -199.6,-1.8 -2.6,-3.5 -51.7,-0.6 z m -24.3,6.5 c -0.1,-0.1 -0.2,-0.1 -0.2,0 l 0.2,0 z m -231,142.6 c -23.5,73 -80.3,132.7 -114.3,193 -36.5,65.8 -45.5,123.4 -36.1,186.5 l 6.5,0.6 c 77.3,-103 137.7,-226.5 172,-348.1 0.7,-2.6 -0.4,-7.4 0.2,-10 -1.4,-3.2 -0.1,-6.7 0.8,-7.6 1.9,-2 1.3,-9.9 0,-23 -3.2,-38.9 -2.1,-69.4 1.5,-104.7 2.8,-27 2.7,-31.3 2.7,-31.3 l -13,-0.3 c 1.9,46.1 -4.8,102.8 -20.3,144.9 l 0,0 z m 315,-138.5 21.4,0.7 c 2.6,65.5 57.6,74.6 66.1,73.8 -14.6,44.1 8.2,92.9 64.2,100.5 -13.3,40.9 8.9,95.2 53.8,94.3 l 4.7,3.1 c -3,5.9 -3.7,18 -3.5,18.2 -10,0.6 -15.4,2 -21.9,3.2 -57,-88.3 -184.8,-293.8 -184.8,-293.8 z m 190.4,2.1 c -7.3,73.1 6.3,173.6 39.9,233.4 0,0 -1.1,4 -1.9,5 -3.3,4.9 -4.9,0.6 -6.8,-3.4 -7.2,-13.6 -21,-15.9 -27.1,-8.4 -13.6,18.1 0.8,25.4 12,35.8 -45.9,-3.3 -60.7,-54.1 -49.8,-79 -0.3,4.8 2.2,12 5.5,17.2 12.7,19.7 31.8,3.4 26.5,-12.1 -2.2,-6.4 -10.3,-17.2 -10.3,-17.2 0,0 11.2,-1.5 15.8,-4.2 4.3,-2.6 7.1,-7.3 6,-13.7 -0.8,-5.2 -1,-7.4 -3.7,-12.1 -3.3,-4.3 -9.4,-7.3 -14.3,-7 -9.5,0.5 -10.7,7 -17,11.4 -1.4,-11.8 -8.8,-20.8 -21.2,-18.7 -9.4,1.6 -16.2,11.5 -10.6,24 2.8,6.4 6.9,8.4 10.9,13.9 -66,-8.1 -57.9,-86.5 -50.6,-85 0,0 2,-0.3 1.4,2.6 -4,19.2 19.7,30.9 30.3,17.1 6.8,-11.2 -7.3,-29.3 -7.3,-29.3 0,0 9.6,-1.9 13.9,-4.4 17.4,-9.8 -0.7,-38.5 -16.8,-31.7 -5.7,2.5 -7.2,7.7 -12.7,10.4 -3.6,-4.1 -3.8,-8.6 -10.4,-12.4 -18,-10.3 -29.6,13.4 -19.7,24.1 4.1,4.3 11.3,8.3 9.9,8.8 -56.1,-7.7 -54.9,-66.5 -53.6,-66.1 l 161.7,1 z m -482.8,-4.9 7.7,0.1 c -2.7,34.8 -8.1,80.8 -5.3,114.8 3.4,32.5 3.5,37.1 1.2,40.3 -3.2,3.5 -1.6,5.3 -1,8.2 0.8,5.3 0.9,5.4 0.1,8.4 -7.1,27.2 -16.1,55.3 -27.5,83.8 -37.3,99.3 -97.4,207.2 -144.3,263.7 0,-0.2 -2.1,0.2 -2.1,0 -11.8,-79.7 16,-145.6 30.4,-172.7 29.2,-54.8 74.7,-101.4 102,-158.9 23.3,-48.8 40.7,-107.7 38.8,-187.7 l 0,0 z m 284.5,2.9 185.1,295 -34.6,16.5 -189.3,-310.8 38.8,-0.7 z m -567.6,24.3 c -66.8,0.2 -100.3,83.9 -44.8,124.9 10,7.4 13,11.6 10.2,14.4 -2.3,2.3 -5.4,1.2 -10.4,-3.8 -43.1,-43.2 -110.5,-20.6 -117.5,38.6 -11.5,98.1 110.4,125.2 142.8,32.1 9.3,-26.7 12.8,2.4 3.8,30.8 -7.5,26.2 -20.5,53 -35.5,75.3 -2.5,3.7 -6.2,8.3 -6.2,8.3 l 107.3,1.2 c 0,0 -3.4,-4.6 -8.1,-10.3 -19.2,-29.3 -29.4,-62 -32.5,-96.1 -0.7,-9.7 -0.3,-17 1.6,-18.2 3.3,-2.1 5.1,0.6 8.5,12.2 6.9,23.8 20.1,43.4 35.1,50.9 36.2,15.5 66,11.3 91.2,-21.6 54.6,-71.1 -32.4,-160.7 -95.9,-103.5 -5.8,5.2 -9.4,5.7 -10,1.4 -0.2,-2.1 1.4,-4.1 9.3,-11.4 54.5,-42.3 28.3,-116.2 -39.1,-124.4 -3.1,-0.6 -6.5,-0.8 -9.8,-0.8 z m -272,41.8 c 1.3,2.8 -3.7,5.4 -9.1,6.9 -15.2,4.1 -30,-5.6 -30.2,-27.3 -0.1,-6.6 -0.4,-13.7 1.9,-14.7 7,-3.1 33.4,26.8 37.4,35.1 z m 949.4,-7.7 c 4.9,0.1 8.8,4.1 8.7,8.9 -0.1,4.9 -4,8.8 -8.9,8.7 -4.9,-0.1 -8.8,-4.1 -8.7,-8.9 0,-4.8 4,-8.8 8.9,-8.7 z m -967.6,66.6 c -30.5,-0.3 -47,41.1 -18.2,66.1 5,4.4 7,8.3 6.6,9.3 -0.8,2.1 -1.6,0.3 -7.7,-4.1 -27.1,-19.5 -60.1,-2.7 -57.6,25 3.7,39.5 48,49.3 64.2,13 2.9,-6.4 4.2,-8.4 5.7,-8.4 1.4,0 1.5,2.7 0.8,6.9 -3.1,17.2 -11.6,35.1 -21.1,49.5 l 49.6,0.6 c -10,-15.5 -14.1,-30.7 -16.5,-49.7 -0.1,-5 0.6,-8.3 2.5,-8.3 1.3,0 2,1.8 4.1,10.3 7.6,31.3 55.8,30.2 64.2,-1.3 9.4,-35.3 -23.8,-60.8 -51.4,-38.8 -3.9,3.1 -8.3,5.4 -9.1,3.1 -0.2,-0.6 2.3,-5.2 6.7,-9 28.3,-27.1 10,-64 -22.8,-64.2 z m 1029,31.8 c 4.9,0.1 8.9,4.1 8.8,9 -0.1,4.9 -4.1,8.9 -9,8.8 -4.9,-0.1 -8.9,-4.1 -8.8,-9 0,-4.9 4,-8.9 9,-8.8 z m -449,12.4 c 3.1,12.8 -62.1,203.7 -152.9,324.6 l 39.1,1.2 1.2,4.3 c 53.9,81.5 18.8,152.6 -25.8,185.3 l 15.1,20.6 -13.9,11 -13.6,-16.6 C 529.8,-470.1 309,-286.4 309,-286.4 l 0.9,29.9 17.2,-13.2 c 109.7,108.6 345,105.4 409.2,-115.6 l 16.5,0.6 c -39.1,162 -191.7,223.9 -305.9,195.7 l -27.3,38.3 7.1,3.9 c -1.3,-2.1 -2.5,-2.8 -0.5,-4.7 l 23.1,-29.1 c 171.2,23.9 275.8,-72 310.8,-203.1 l 21.9,0.6 c -20,110.2 -72.8,206.8 -147.5,282.1 -53.3,-0.8 -146.9,-3.1 -146.9,-3.1 33.7,33.4 97.7,135 100.2,145.3 0,0 67,2.9 138.9,1.9 26.5,-11.6 61.8,-15.9 78.2,-7.4 28.8,14.9 55.4,69.3 66.6,156.2 2.9,22.4 5.7,31.9 6.5,36.4 0.1,0.8 2.1,1.4 2.4,1.3 1.1,-0.6 -1.8,3.9 -2,7.3 -0.2,3.4 -0.1,8.4 1.5,10.2 2,2.3 1.7,3.7 1.4,4.7 -0.2,0.6 -4.1,4.2 -4.1,4.2 -1.1,50.6 -1.4,96.5 -4.8,158.6 l 9.9,0.2 c 1,-100.1 32.3,-192.3 79.5,-255.5 28.8,-41.5 59.2,-86.3 76.2,-129 19.2,-48.1 22.3,-98.9 12.8,-141.8 l -6.8,0.3 c -40.6,-28.5 -56.6,-88.6 -5.7,-130.8 l -17.6,-23.4 c -50.8,38.4 -63.1,110 -11.6,170 l -20.4,-0.3 C 938.5,-159.8 950.6,-232.6 1010,-284 l -13,-16.9 14.4,-12.4 12.6,14.3 331.3,-270.6 0.1,-30 -25.4,20.1 c -145.7,-137.8 -365.2,-44.7 -399,118.9 l -20,0 c 43.9,-176 199.1,-224.1 310.7,-199.4 l 28.1,-41.5 c -20.2,-5.9 -39.9,-19.6 -58.4,-35.8 -7.8,-6.8 -12.7,-11 -18.4,-17.7 -52.4,-56.6 -87.5,-134.7 -89.1,-134.9 l -144.1,-2 c -21.3,10.2 -57.6,21.7 -77.3,5.4 -42.3,-34.9 -55.8,-104.5 -61.2,-149.3 -1.6,-13.9 -2.9,-38.2 -4.1,-46.2 -0.6,-1.4 -2.2,-1.5 -3.6,-1.3 l 0,0 z m 509.8,83 c 4.8,0.1 8.7,4 8.6,8.8 -0.1,4.8 -4,8.7 -8.8,8.6 -4.8,-0.1 -8.7,-4 -8.6,-8.8 0.1,-4.8 4,-8.7 8.8,-8.6 z m 18.7,10.5 c 7,9.3 13.2,18.8 16.6,28.9 -3.3,-0.1 -6.4,0.9 -10.1,-2.1 -0.7,-10.1 -4.8,-16.3 -10,-23.1 l 3.5,-3.7 z m -26.5,12.6 c 2.9,1.5 5.1,12.5 3,14.3 -3.5,0.7 -5.9,0.4 -7.1,-0.8 -1.7,-2.9 1.8,-13 4.1,-13.5 z m -574,89.2 133.7,1.6 c 23.1,18.1 45.8,16 79,2.1 l 148.7,1.7 8.2,15.4 -377.1,-4.2 c 2.2,-5.8 7.5,-16.6 7.5,-16.6 z m -11.3,23.7 384.9,4.3 9.5,15.8 -404.1,-4.5 9.7,-15.6 z m 36.9,23.1 43.2,0.5 -16.3,27 -44.6,-0.5 17.7,-27 z m 95.9,1.1 41.2,0.5 -18.6,26.9 -40.8,-0.5 18.2,-26.9 z m 133.3,1.5 -17.6,26.9 -41.9,-0.5 18.3,-26.7 41.2,0.3 z m 51.7,0.6 41.3,0.5 -15.7,27 -42.7,-0.5 17.1,-27 z m -554.5,-2 c -26.8,-0.6 -22.2,34.9 -19.7,33.9 -16.8,-4 -29.3,3.8 -31.5,18.1 -1.8,11.3 9.2,27.7 28.6,25.6 -2.6,2.9 -0.2,20.2 2.4,21.7 0,0 0.3,2.5 -10.2,23.8 -12.4,25.2 -14.9,26.4 -20.3,9.7 -5.7,-18 -14.8,-27.2 -38.5,-39 -6.3,-3.2 -15.3,-8.6 -19.9,-12.2 -10.6,-8.1 -10.7,-8 -10.4,8.3 0.4,21.2 6.7,30.5 29.2,43.3 11,6.2 32.1,15.1 35.9,15.1 2.7,0 12.6,4.6 27.2,12.6 2.9,1.6 12.6,7.1 25.2,8.4 13.3,1.1 43.5,-1.7 61,-11.6 9.8,-5.5 13.7,-10.6 21.1,-24.9 0,0 -24.7,1 -36,-2.1 -23.4,-1.6 -35.1,-0.4 -53,8.6 -15,7.6 -15.8,8.9 -9.5,-3.8 2.9,-5.8 5.6,-12.7 8.1,-19.5 2.7,-6.8 3.4,-7.4 9.9,-8 14.3,-1.3 22.5,-9.4 24,-23.7 0.4,-3.8 -0.1,-7.9 -0.1,-7.9 9.7,1.5 29.6,-3 29.2,-23.2 -0.4,-18.1 -13.2,-22.4 -29.1,-23.8 2.2,-9.2 -4.3,-28.9 -23.6,-29.4 z m 0.2,5.6 c 23.4,0.4 22.7,21.9 12.3,34 l -12.4,-10.4 -10.2,9.2 c -10.8,-7.1 -10.4,-33.1 10.3,-32.8 z m 641.6,7.4 11.3,17.2 -23.8,-0.3 12.5,-16.9 z m -438,19.6 44.2,0.5 -18,24.7 -41.7,-0.5 c -0.1,0.1 9.4,-15.7 15.5,-24.7 z m 139.1,1.6 -17,25.7 -38.6,-0.4 15.8,-25.2 39.8,-0.1 z m 51.7,0.6 39.9,0.4 -16.1,27.4 -39.4,-0.4 15.6,-27.4 z m 93.9,1 40.4,0.4 -16.7,27.4 -39.8,-0.4 16.1,-27.4 z m 91.6,1 41.6,0.5 -17.5,27.4 -40.1,-0.4 16,-27.5 z m -579.6,-1.3 19.6,20.2 -19.6,19.2 -19.7,-19.3 19.7,-20.1 z m 50.1,20 c -3.8,23.2 -26.1,21.7 -32.4,10.2 l 9.2,-10.3 -11,-11 c 11,-17.3 37,-6.4 34.2,11.1 z m -66.5,-11.8 -10.9,12 11.6,11.4 c -7.7,10.5 -36.8,9.3 -30.7,-16 3.9,-16.1 20.3,-18.9 30,-7.4 z m 680.1,4.6 12.1,17 -23,-0.1 10.9,-16.9 z m -479.1,15.4 493.7,7.1 13,16.3 c -172.4,1.1 -341.2,-6.6 -517.3,-8.7 l 10.6,-14.7 z m -173.7,8.5 c 19.4,12.2 4.7,37.3 -16.3,32.8 -15.6,-7 -18.6,-23.3 -4.4,-32.6 l 10.9,9.2 9.8,-9.4 z m 169.2,11.6 -13.5,-0.1 -13.3,15.2 c 49,52.8 46.7,98.1 0,137.1 l 18.4,21 c 52.3,-43.7 64.6,-113.3 8.4,-173.2 z m 50.9,2.6 c 27.3,43.8 50.5,126.3 -33.2,200.8 L 662,-565 c 72.9,-69.7 56.6,-129.1 25,-188.2 l 18.1,-0.4 z m 7.7,1.1 112.1,1.7 c -25,91.2 -42.5,144.9 -46.6,287.9 l -32.4,-0.2 c 3.6,-3.3 -15.8,-86.6 -39.2,-115.7 50.7,-83.7 24.4,-131.5 6.1,-173.7 z m -352.7,-3.8 c 1.9,0 5.9,2.6 13.6,7.3 6.9,4.3 15.9,9.7 20,12 15.3,8.8 22.9,17 27.1,29.5 3.2,9.3 1.1,9.5 -8.2,0.6 -6.9,-6.6 -14.3,-12.3 -32.9,-25.3 -6.5,-4.6 -8.6,-3.9 -4.9,1.7 2.7,4 8.6,8.5 20.5,16 8.6,5.4 20.5,16.1 19.5,17.7 -0.9,1.4 -2.4,1.3 -6.5,-0.6 -1.9,-0.9 -8.2,-3.5 -13.8,-5.9 -24.3,-10.2 -34.6,-22.5 -35.8,-42.7 -0.4,-7 -0.8,-10.3 1.4,-10.3 z m 511.7,6.2 c 0,0 3.3,4.5 3.7,6.4 0.9,4 -3.1,7.7 -15.6,13 -4.3,1.8 -7.8,2.8 -7.7,5.3 0.5,5.8 11.6,14.9 10.1,22.8 -2.6,6.1 -18.2,11.8 -22.2,19 0,4.9 10,12.6 8.4,19.3 -0.8,2 -4.1,4 -8.9,8.1 -9.9,8.4 -10.6,9.7 -7,16.4 8.2,15.5 8.5,14.4 -3,25.2 -11.7,10.9 -11.4,10.8 -6,20.5 5.8,10.4 5.6,10 -2.5,16.5 -7.9,6.4 -7.6,7.7 -3.5,15.9 4,7.9 4.9,8 -2,13.9 -8,7 -9.6,7.7 -4,16.6 5.7,9.3 6.1,8.9 -0.5,16.3 -6.3,7 -7,7.4 -3.7,12.2 4.2,6.1 4.9,7.7 0.4,14.4 -4.9,7.2 -4.8,6.7 -0.5,13.4 3.6,5.7 2.9,12 2.9,12 l -13.9,-0.2 c 0,0 0,-8 -1.6,-10.9 -3.9,-7.2 -3.7,-9.4 1,-15.6 4.9,-6.4 4.1,-7 -0.3,-13.5 -4.4,-6.6 -3.8,-6.5 2.2,-13.9 5.5,-6.8 5.8,-10 2.7,-13.9 -7.2,-9.3 -7.1,-13.2 0.3,-19.3 5.6,-4.6 6.2,-6.7 1.4,-14.7 -4.6,-7.9 -5.2,-8.6 3.5,-16.3 8.9,-7.9 8.8,-7.7 3,-16.8 -5.6,-8.8 -5.3,-9.4 4,-17.9 9.4,-8.6 9.6,-8.6 3.6,-19.6 -5.6,-10.3 -5.7,-10.1 5.6,-19.9 11.2,-9.1 15,-10.3 4.1,-23.7 -6.1,-10.6 -1.7,-11.6 8.6,-16.7 17.9,-10.7 9.8,-10.1 2.5,-26.3 -6.1,-10.9 -2.6,-10.9 8.4,-16.2 2.7,-1.1 5.7,-2.4 8.8,-4.1 7.3,-4 3.4,-7.7 3.4,-7.7 l 14.3,0 z m 23.3,0.5 53.5,1.3 c -62.9,78.5 -93.9,179.5 -105.8,286.3 l -20.2,-0.5 c -0.4,-83.6 27,-187.6 72.5,-287.1 z m 274.8,4.9 c 30.3,26.1 52.9,41.1 68.9,47.1 0,0 -22,35.6 -23.6,34.3 -123.9,-25.3 -272.4,45.5 -307.5,201.2 l -19.6,-0.1 c 7.9,-61.2 24.6,-112.1 54.9,-165.2 30,-51.5 57.5,-81.5 98.8,-119.2 l 128.1,1.9 z m -213.6,-3.7 26.4,0.8 c 0,0 4.9,6 7.1,8.2 11.2,13 12.2,10.5 -13,24.4 -15.9,8.8 -23,12.8 -24,16.6 -0.8,3.8 6.8,11.3 7.6,16.4 0,0.6 -21.7,14.7 -25.6,16.7 -5.5,2.6 -5.8,4.8 -0.5,14.3 6.1,10.8 5.6,10.5 -7.9,19.7 -13.2,9 -15.7,8 -10.3,17.2 7.6,12.7 3.9,15.5 -14.4,25.1 -4.6,2.4 -4.8,4.9 -1.7,13.5 4.3,12 5.5,10.8 -4,17.2 -11.2,7.5 -13.1,7.7 -10.7,12.4 7,13.7 9.8,17 0.2,21.3 -7.3,3.3 -7.5,5.2 -3.6,14.2 3.9,9.1 5,8.7 -2.2,13.7 -6.7,4.6 -10.6,3.5 -4.2,11.3 5.1,6.2 4.5,11 0.3,14.7 -3.6,1.5 -5.4,8.3 -4.3,8.5 l -9.3,0.1 c -7.1,-9.8 1.5,-15.3 2.8,-16.3 1.2,-2.2 -0.2,-3.8 -3.1,-9.2 -3.9,-7.3 -3.8,-8.2 2,-12.4 5.9,-4.2 6.1,-3.1 2.3,-12.7 -4.4,-11.1 -4.2,-12.4 3,-17.4 7.1,-5 7.2,-6.1 2.5,-15.8 -4.9,-10.3 -4.9,-10.3 7.6,-18.4 8.8,-5.7 9,-5.4 4.4,-16.2 -3.1,-7.5 -0.8,-10.1 11.2,-18.1 6.9,-4.6 7.4,-5.5 4.2,-11.1 -8.7,-15.4 -8.6,-15.9 6.8,-25.6 12.6,-7.9 12.5,-8.6 7.8,-19.5 -5.1,-11.7 -5.6,-10.8 11.7,-20.9 14.2,-8.3 14.9,-7.8 9.3,-18 -7.1,-12.7 -6.6,-10.7 21.7,-26.4 10.2,-6.8 19.4,-4.3 9.4,-16.3 -4.1,-5.8 -9.5,-12 -9.5,-12 z m -498.1,15.3 c 2,0 3.4,2.4 3.3,6.8 -0.4,6.3 -3.5,12.5 -6.4,18.6 -6.1,12.6 -12.1,22 -15.3,22 -7.4,0 -7.2,-1.6 2.9,-20.7 4.6,-8.7 9.3,-18.6 10,-20.5 1.7,-4.2 3.8,-6.2 5.5,-6.2 z m 90.3,29.7 c -0.2,26.9 -84.6,39.5 -88.8,25.9 14.8,-11.3 58.2,-5.8 67.5,-15.9 -11.1,-0.8 -26.1,0.9 -36.5,1 -12.9,0.1 -33.7,5.3 -33.9,7.6 -1.3,-7.1 22.3,-20.1 40.8,-20.7 17.4,-0.7 36.2,1.6 50.9,2.1 z m 6.8,41.1 c 0,0 -165.9,134.2 -247.9,199.1 l 0.2,29.3 262.4,-210 -14.7,-18.4 z m -0.6,6.7 10.4,12.9 -246.4,196.2 -0.6,-20.9 236.6,-188.2 z m 770.8,78.4 -8.9,9.3 c -236.5,-180.1 -459,86.8 -340.1,280.9 -1.1,2.5 -9.6,8.5 -9.6,8.5 -132.4,-225.2 128.7,-484.1 358.6,-298.7 z m -130.8,-40.3 c 13.5,0.3 38.3,9.8 48.7,22.6 12.1,14.9 8.4,21.4 -7,7.3 -16.6,-12.3 -30.4,-15.3 -7.3,-0.7 5.1,3.2 9.6,9.5 9.9,10.1 0.8,2.5 -3.4,-0.2 -22.8,-7.5 -11.5,-4.3 -26.1,-15.9 -29.8,-23.7 -2.8,-5.8 1.2,-8.2 8.3,-8.1 z m -50.2,-0.2 c 4.2,0 8,0.4 10.6,1.2 17,5.1 22.3,7.7 28.6,12.7 4.3,3.4 2.9,5.9 -2.1,3.6 -5.9,-2.6 -24.4,-8.3 -27.8,-8 -4.8,0.4 0,3.7 6.9,5.5 15.4,4 23,8.1 12,8.1 -5.7,0.8 -30.9,0.6 -37.7,-0.3 -11.4,-1.5 -28.4,-12.1 -24.4,-15.8 4.4,-3.9 21.3,-7 33.9,-7 z m -49.1,15.5 c 20.2,0.5 31.1,8.1 9,9.4 -38.1,5.6 -45.5,13.8 -3.2,4.4 9.8,-2.2 9.6,1.4 2.8,4.6 -5.6,2.6 -12.5,3.9 -18.3,6.6 -10.4,4.2 -34.2,4.9 -43.5,1.3 -13.7,-5.3 29.6,-26.8 53.2,-26.3 z m 162.7,5.3 c 10.2,0.4 31.8,15.4 41.4,29.4 6.2,9.2 3,15.6 -6.5,8.2 -1.9,-1.5 -15.5,-13.3 -16.3,-13.6 -1.3,-0.5 11.3,11.7 13.1,15.1 1.6,2.9 5.2,9.5 -1.7,9.6 -10.7,-1.4 -35.5,-29.8 -35.5,-43.7 0,-3.6 2.1,-5.1 5.5,-5 z m -126.9,6.5 c 4.3,-0.1 2.1,2.1 -6.1,7.7 -14.7,10.1 -7.1,8.1 10.1,-0.5 5.2,-2.6 11.5,-4.6 13.7,-5 2.2,-0.4 4.8,-1 5.8,-1.2 4.6,-1.4 1,4.3 -6.5,10.1 -15.8,12.4 -33.6,22.1 -45.9,25 -15.6,3.7 -18.9,4.1 -13.1,-5.5 9.3,-15.4 22.8,-27.6 35.6,-29.8 2.9,-0.5 5,-0.8 6.4,-0.8 z m 52.5,0.8 c 6.5,-0.1 14.5,1.4 27.1,4.2 8.9,2.9 6.5,3.4 -4.1,4.5 -20.1,2 -11.7,4.4 7.7,4.3 26.6,0.1 -13.4,9.4 -26.4,11.2 -10.1,0.3 -13.1,-0.1 -35,-4.4 -8.4,-1.7 -3.3,-7.8 12.7,-15.2 6.5,-3 11.5,-4.5 18,-4.6 z m 164.1,5.4 0.5,17.1 -324.7,265.4 -10.8,-12.2 335,-270.3 z m -109.6,13.5 c 12.8,0 31.3,9.1 29.2,14.4 -0.8,2 -2.2,1.9 -12,-0.8 -6.4,-1.8 -17.9,-3.7 -16.4,-2.3 0.5,0.5 9.5,4 12.9,4.9 11.3,2.8 24.8,9.4 21.8,11.3 -5.3,3.1 -10.1,0.6 -16.3,-0.2 -15.5,-2.3 -41,-10.5 -45.2,-14.4 -4.6,-4.5 12.2,-12.8 26,-12.9 z m -150,-0.6 c 2.3,0.1 3.2,2.3 0.9,5.2 -3.4,4.4 -5,8.1 -8.1,13.5 -10.9,16.5 -17.8,23 -28.2,29.3 -10.4,6.3 -11.9,5.2 -10.8,-8.2 1.3,-13.9 11.4,-28.4 25.6,-35.1 6.5,-0.8 10.2,-2.5 3.3,5.6 -12.3,14.3 -4,13 7.5,-3.4 3.7,-5.2 7.4,-7.1 9.8,-6.9 z m -41.8,1.4 c 7,0 9.3,2.5 0.3,6.6 -8.6,3.9 -25.6,15.5 -26,16.8 -0.7,2.2 5.6,-1.2 16.2,-6.8 14.2,-7.5 15.4,-7.3 8.5,1.4 -7.8,9.8 -26.4,22.1 -41,26.5 -20.4,5.3 -19.8,1.5 -8.3,-13.5 11,-16.3 20.3,-24 34.2,-28.3 6,-1.8 11.9,-2.7 16.1,-2.7 z m -344.7,-1.3 c 72.3,128 29.9,256.7 -56.3,321.6 -90.2,67.9 -229.3,62.2 -310.4,-21.3 l 11.5,-10.6 c -0.1,0.1 127.9,133.3 292.3,18.1 83.4,-58.5 119.1,-198.3 52,-296.9 l 10.9,-10.9 z m -330.2,-3.4 c -0.2,0 -0.4,0 -0.6,0.1 -2.5,1.6 -12.2,28.9 -14.2,40.3 -0.6,3.3 0.2,6.6 2.9,9.3 1.9,1.9 5,0.7 6,0.3 6.3,-2.8 9.8,-7 15.4,-20.7 3.7,-7.5 4.3,-16.4 3.7,-19.6 -0.3,-1.3 -2.3,-4.3 -4.8,-6 -2.8,-1.7 -6.7,-3.7 -8.4,-3.7 z m 1.4,5.7 c 2.9,0 8.7,4.9 9.4,8.3 0,6 -3.5,15.8 -6.1,14.3 -4.2,-5.3 -9.1,-2.1 -9.9,-4 -0.5,-5.9 3.4,-13.5 6,-18.6 0.2,0 0.4,0 0.6,0 z m 796.1,13.6 c 32.8,0.4 65.3,10.3 89,31.8 l -12.9,11.6 c -55.7,-40.6 -121.2,-29.7 -160.2,-3.1 -38.6,26.3 -73.2,85.1 -40.9,168.7 l -12.1,10.7 c -36.5,-67.4 -15.5,-155.8 50.9,-196.9 23.4,-14.5 53.3,-22.6 83.1,-22.9 1,0.1 2.1,0.1 3.1,0.1 z m -484.8,4.4 c 1,0 2.5,3.3 2.3,7.3 -0.2,4.8 -2.3,11 -5.6,12.3 -3.7,1.5 -5.9,-9.5 -5.9,-9.5 2.2,-3.5 5.3,-7.1 9.2,-10.1 z m 586.8,10.3 c 1.3,-0.1 2.6,0 3.7,0.2 3.7,0.5 3.7,3.8 0.2,6.9 -3.8,3.4 -5.7,3.5 -9.4,0.7 -3.3,-2.5 -3.5,-4.3 -0.6,-6.3 1.6,-1 3.9,-1.4 6.1,-1.5 z m -629.6,-6.2 10.7,13.5 -38,29.9 -4.5,0.3 -291.1,235.6 0.2,-21.2 322.7,-258.1 z m 602.4,39 -39.7,32 c -78.1,-41.7 -141.9,30.3 -120.4,96.6 l -34.3,29.1 c -58.8,-167.4 119.5,-222.5 194.4,-157.7 l 0,0 z m -205.4,-27.8 c 0.1,0 0.2,0 0.3,0 0.3,0.1 0.5,0.3 0.8,0.5 1.4,1.4 -1.6,23.4 -3.7,27.5 -0.8,1.5 -1.4,3.4 -1.4,4.3 0,1.8 -7.4,16.9 -13.2,26.9 -2.2,3.7 -4.5,8.7 -5.2,11 -4.8,21.8 -14.2,-13.5 -10.5,-33.9 1.7,-9.6 15.6,-29.3 19.5,-27.8 2,0.8 1.8,2.3 -1.8,9.9 -10.1,21.3 -12.7,32.3 -2.1,11.7 12.3,-23.6 15.4,-29.7 17.3,-30.1 z m -667.5,-6.9 c 1.5,0.1 2.6,0.9 3.2,2.6 0.4,1.5 0.9,4.5 0,5.9 -2.1,4.5 -6.3,7.5 -10.5,7.1 -1.9,-0.1 -3.9,-1.8 -4.1,-3.8 -0.2,-1.8 0.3,-4.9 2.6,-7.2 3.1,-3 6.4,-4.8 8.8,-4.6 l 0,0 z m 299.1,4.7 c 4.7,0.3 9.4,12.9 6.2,18.5 -2.6,4.7 -3.1,3.8 -7.4,-5.3 -2.3,-4.8 -4,-9.9 -4,-9.9 l 3.8,-3 c 0.3,-0.2 0.7,-0.3 1,-0.3 0.2,0 0.3,0 0.4,0 z m -7.9,5.2 c 0,0 4.8,8.9 5.9,16 0.7,4.3 0.6,3.5 -4.1,1.7 -3.7,-2.4 -4.5,-3.7 -6.8,-6.7 -1.5,-2.7 -3,-4.7 -3,-4.7 l 8,-6.3 z m 29.5,2.2 c 2.5,-0.1 5.1,2.5 7.5,8.6 8.9,23.1 7.7,48.8 -2.6,60.9 -1.7,2 -2.1,2.1 -4.2,0.8 -1.7,-1 -1.7,-12 -0.1,-15 0.5,-1 2.1,-7.5 2.3,-11.3 0.4,-8.8 -2,-10 -3.3,-1.8 -1.4,9.4 -3,16 -5.5,10.3 -1.3,-2.9 -1.9,-5.8 -2.8,-8.9 -5,-19.9 1.2,-43.4 8.7,-43.6 z m -39.9,5.4 c 0,0 8.7,11.4 12.2,15.5 1.3,2.2 1.2,2.8 -0.9,3.5 -3.5,1.3 -15,-6.6 -19.6,-9 -2.5,-2 -1.4,-3.5 -1.4,-3.5 3.3,-2.3 6.5,-4.6 9.7,-6.5 z m 346.6,4.3 c 4.7,0 4.7,1.6 -0.4,8.8 -28.4,39.9 -22.7,34 -4.7,12.2 10,-12.1 11.8,-13.3 12.8,-10.5 0.8,2.1 -11.2,25.7 -17.4,34.3 -3.2,4.4 -14,11.8 -19.5,14.4 -13.4,6.6 -11.9,3.9 -6.8,-12.7 6.6,-25.9 22.6,-46.5 36,-46.5 z m -363.2,9.8 c 74.5,191.4 -136.2,272.7 -229.9,183.5 l 11.1,-8.7 c 130.7,90.8 262.3,-50.9 204,-163.5 0.1,0.1 5.5,-4.3 14.8,-11.3 z m 17.7,4.9 c 12.6,1.4 31,24.7 31.8,37.6 1.9,9.2 -0.7,10.7 -5.1,4.2 -7.4,-14 -6.6,-5.2 -0.3,8.7 3.3,7 4,15.4 0.5,15.9 -4.8,-1 -15.2,-17.9 -18.3,-24.8 -7.5,-15.2 -8.1,-12.6 -12,-35.1 -0.8,-4.3 0.3,-6.5 3.4,-6.5 z m -38.2,5.8 c 57.1,112.6 -69.9,245.7 -196.7,157.3 l 38.6,-29.9 c 66.3,32.7 141.1,-6.1 120.8,-98.3 l 37.3,-29.1 z m 582.1,27.3 -106.3,86.6 c -20.9,-73 59.2,-113.6 106.3,-86.6 z m -195.6,-2.3 c 3.4,-0.7 6.1,21.4 6.4,52.3 0.3,30.2 1,33.2 -8.2,22 -3.9,-4.6 -8.7,-9 -10.8,-13.1 -6.1,-11.9 -4,-24.2 -2.1,-41.5 1.8,-16.1 7.5,-13.5 6.4,3.4 -0.7,10.9 -0.8,24.4 0.9,24.4 0.6,0 0.8,-1 0.4,-2.5 -0.8,-3.1 3.3,-38.1 4.9,-42.2 0.8,-1.8 1.5,-2.7 2.1,-2.8 z m -290.3,10.1 c 7.6,3.1 9.5,28.5 0.9,52.9 -3.7,10.5 -9.2,17.3 -17.3,21.5 -5.8,3 -7.2,2 -4.5,-3.3 4.9,-8.6 7.6,-17.5 9.6,-28.6 0.9,-10.9 -4.9,-2.2 -4.5,2.5 -4.7,20.2 -10.6,23.2 -9.6,1.9 0.7,-15.7 2.9,-22.4 10.4,-33.2 3.8,-5.4 7.9,-12.8 15,-13.7 z m 264,5.5 c 3.1,0.1 3.8,4.3 1,12.4 -2,5.6 -8.8,23.9 -8,23.9 0.5,0 7.8,-16.5 9.2,-19.1 2.4,-4.4 3.3,-5.2 5.4,-5 1.9,8.2 -0.3,18.3 -1.4,26.8 -4.5,22 -19.8,44.5 -25.5,37.7 -9.2,-11.1 -4.4,-55.7 8.2,-69.1 4.8,-5.2 8.7,-7.7 11.1,-7.6 z m -401,-1.1 c 10.4,78 -54.2,110.5 -109.4,86.4 1.2,-0.3 109.4,-86.4 109.4,-86.4 z m 262.5,4.3 11,14.8 20.5,1.3 -10.7,15.4 10.2,19.9 -22.9,0.2 -13.3,15 -11.3,-13.8 -20,-1.3 11.9,-18.5 -9.2,-17.9 21.6,-0.8 12.2,-14.3 z m -172.1,4.8 c 2.6,0.1 15,16.9 16.2,23 3.7,14.9 1.9,43 -3.4,42 -5.6,-20.3 -3.2,-30.7 -5.3,-28.4 -3.6,3.7 1.8,34.8 -0.2,42.4 -0.9,1.9 -4,-0.4 -7.4,-5.5 -9.2,-13.5 -7.3,-65.8 -0.1,-73.4 0.1,-0.1 0.2,-0.1 0.2,-0.1 z m 684.2,39.2 -255.3,206.8 14.4,18.9 241,-194.5 -0.1,-31.2 z M 983,-412.9 c 1.1,-0.2 3.6,1.6 8.3,6.8 8.2,11.3 16.8,26.7 19.8,38.6 1.2,4.6 3,10.7 4.2,13.6 1.7,4.3 1.9,5.5 0.8,6.8 -4.4,5.4 -22.6,-8.5 -28.4,-21.5 -8.1,-18.4 -8.1,-34.9 0,-18.7 3,5.9 6.6,14.4 6.6,11 0,-1 -3.5,-13.3 -6.3,-18.8 -1.6,-3.5 -7.8,-17.2 -5,-17.8 z m 362.7,9.2 0.3,17.3 -237.8,194.4 -9.1,-11.4 c 0,0.1 223.9,-182 246.6,-200.3 z m -368,6.6 c 1.1,0.1 1.7,1.7 1.3,5.2 -1.2,11.4 -4.3,36.4 -3.7,38.6 0.3,1.3 3.9,-16.5 4.7,-19.6 4.2,-16.5 9.9,23.1 6,40.8 -0.6,2.8 -1.8,7.3 -2.5,10 -0.6,2.8 -2.7,7.4 -3.5,8.7 -6.8,10.4 -22,-31.5 -19.1,-52.8 1.8,-13.4 12.8,-31.4 16.8,-30.9 z M 705,-391 c 3.1,-0.1 3.6,2.9 3.1,9.3 -2,21.8 -16.8,44.5 -32.7,50.4 -15.9,5.9 -17.3,4.7 -7.8,-6.6 7.2,-8.5 11.6,-17.5 10.4,-18.6 -0.7,-0.7 -2.3,2.9 -8.1,10.3 -7.3,9.2 -8.4,1.3 -1.7,-12.2 5.8,-11.7 11.2,-17.8 21.9,-24.9 7.5,-5 12.2,-7.6 14.9,-7.7 z m 143.2,8.2 C 844,-289 819.4,-187.2 773.3,-99.1 L 731,-99.4 c 52.5,-75.6 86.6,-169.5 97,-283.2 l 20.2,-0.2 z m 18.6,0.3 c 0,0 6.3,6.6 8.8,11.1 2.8,4.9 3.5,9.2 -1.7,12.8 -6,5 -8.5,3.1 1.1,15.8 5.1,6.7 3.4,7.7 -3.1,13.2 -6.7,5.7 -7,6 -1,13.8 6.5,8.4 7.6,9.7 -1,16 -7.8,5.7 -7.9,7.1 -2,16.5 5.4,8.7 7.1,8.7 -3.6,17.5 -9.2,7.6 -9.3,5.4 -0.8,19.6 3.2,5.2 2.9,5.6 -3,10.7 -14.6,12.7 -13.9,11.9 -11.9,15.3 15.6,23 8.5,22.2 -7.2,32.9 -3.2,2.6 -2.4,5.7 4.5,17.1 5.9,9.7 5,11.8 -9.1,21.3 -14.7,9.8 -15.1,11.2 -8,21.5 7.1,10.1 7.2,9.5 -4.5,19.7 -5.3,4.6 -9.7,8.9 -9.7,8.9 l -25.8,-0.3 c 0,0 5.5,-4.9 9.2,-7.6 21.3,-15.4 21.2,-13.8 12.4,-25.2 -7.8,-10.1 -7,-10.7 1.1,-16.4 5.8,-4 13.6,-8.2 19.5,-12.3 3.2,-2.2 0.9,-4.1 -4.3,-14 -5.7,-11.1 -6.1,-9.9 4.9,-18.7 12,-9.7 12.2,-9.3 5.9,-21.8 -6.3,-12.5 -6.5,-11.5 1.8,-18 12.3,-9.8 12.9,-9.3 6.6,-20.8 -5,-9.2 -5.1,-9 3.7,-17.5 8.8,-8.6 7.7,-8.1 2.6,-16.1 -5.1,-8.1 -4.9,-9.2 2.1,-15.3 7.5,-6.5 6.4,-6.1 0.4,-14.7 -6,-8.4 -5.9,-7.8 1.6,-14.1 3.9,-3.4 7.9,-6.8 7.7,-8.4 -0.5,-4.1 -4.4,-10 -8.1,-15.7 -1.4,-2.2 1.5,-2.8 6.1,-7.5 4.8,-4.8 4.5,-3.6 1.1,-10.1 -1.9,-3.5 -5.5,-9.5 -5.5,-9.5 l 9.2,0.3 z m -69.1,-0.5 7.3,0.3 c 0,0 1.2,1.7 2.9,3.4 4.7,4.9 4.8,7.7 0.1,10.2 -4.6,2.4 -2.9,5.9 0.9,11.5 4,6 3.9,5.3 -1.9,11 -6,4.8 -9.1,6.1 -2.6,15.4 3.7,4.3 3.2,8.7 -2.7,12.4 -4.5,2.9 -11.9,5.2 -4.2,16.5 3.7,8 4,7.5 -4,13.1 -10.7,7.4 -12.6,6.1 -7.9,17.1 5.3,12.2 5.8,12.4 -5.4,20.5 -13,9.3 -13.5,10.1 -8.2,21.5 5.3,11.5 5.5,8.6 -8.3,19.1 -10.1,7.7 -12.4,8.1 -9.5,14.6 5.4,12.1 7.7,15.4 -8.5,23.5 -18.8,9.4 -19.7,10.1 -10.9,24.4 7.2,11.7 5.6,10 -6.6,16.8 -17.5,9.8 -25.3,14.1 -25.8,17.2 -0.4,3.5 13.4,14.2 13.4,14.2 l -24.3,0.4 c 0,0 -10.1,-8.4 -14.1,-12.3 -10.9,-10.8 -11,-7.3 25.7,-24.7 20.3,-9.6 18.6,-7.4 15.3,-13.1 -9.5,-17 -9.9,-18.7 8.5,-27.7 15.9,-7.8 13.2,-8.4 9.5,-20.5 -3.2,-10.6 -2.7,-9.6 5.7,-15.7 20.4,-14.8 19.8,-13.2 16.7,-20.6 -3,-7.3 -5.4,-10.7 -3,-14.2 7.4,-10.4 22.9,-12.4 16.7,-24.9 -2.9,-8.1 -3.9,-9.9 5.1,-16.7 8.1,-6.6 8.1,-5.8 3.1,-14.7 -6.2,-8.2 -5.3,-9.5 4,-15.8 6.6,-5.9 6.5,-5.7 2.9,-11.6 -5,-8.1 -4.7,-8.3 2.6,-14.6 5.9,-5.1 7,-5.4 3.3,-11.1 -4.9,-7.6 -4,-9.2 2.5,-12.9 4,-2.2 4,-3.2 3.7,-7 0,-0.7 -2,-5 -2,-5 l 0,0 z m 91.1,1.4 33.8,0.5 c 10.1,62.9 28.7,88.8 39.4,108.8 -43.6,68.2 -34.5,125.4 -8.9,176.2 L 846,-97.7 c 28.5,-93.7 43.7,-188.1 42.8,-283.9 z m -232.3,-2.3 c 1.2,-0.1 2.1,1.9 4.2,5.5 6.7,11.6 1.7,28 -8.4,45 -7.6,12.8 -8.8,2.9 -5.2,-15.5 2.3,-11.6 -3.8,5.8 -6.8,19.8 -1.6,7.6 -5.3,13.7 -9.3,13.3 -3.7,-0.6 -2.5,-11.3 -2.3,-13.7 1,-16.9 7.5,-28.7 19.8,-45.3 4.7,-6.2 6.6,-9 8,-9.1 z m 345.2,36.8 c 1.6,-0.1 3.8,0.6 6.6,2.3 2.1,1.3 6,3.7 8.7,5.2 9.3,5.3 10.1,6.9 5.6,12 -5.6,6.4 -9.1,3.9 -18.5,-6.9 -6.5,-7.4 -6.6,-12.4 -2.4,-12.6 z m -3.3,14.1 c 1.5,0.1 4.6,1.7 7.6,5.2 6.1,7.1 5.3,13.1 -1.5,11.3 -2.7,-4.1 -4.1,-10.4 -6.7,-15 -0.7,-0.9 -0.3,-1.5 0.6,-1.5 z m 302.3,4.3 c -6,-0.1 -16.1,7.7 -18.1,15.8 -6.1,24.5 -6.1,23.4 -0.9,27.1 1.5,1.1 2.7,1.8 3.4,2.3 3,2.4 7.2,6.2 7.7,5.5 5,0.1 12.9,-31.3 12.7,-37.8 0.4,-6.8 0.6,-7.7 -1,-10.8 -0.8,-1.5 -2.2,-2.1 -3.8,-2.1 z m -306.9,-2.9 c 0.4,-0.1 0.9,0.1 1.5,0.6 3.9,4 5.4,11 7.3,16 0,1.1 -0.5,2.9 -1,3.9 -3.5,6.5 -8.7,0.1 -9.1,-11.1 -0.3,-6.3 0.1,-9.2 1.3,-9.4 l 0,0 z m 305.9,8.3 c 0.3,0 0.5,0 0.8,0 4,0.2 3.3,4.4 -2.3,10.4 -3,3.1 -9,4.6 -11,2.6 -2.9,-2.9 3.2,-10.6 9.8,-12.5 0.9,-0.3 1.9,-0.5 2.7,-0.5 z m -679.8,-4.2 c 0.2,0 0.4,0 0.7,0 2.1,0.2 3.9,1.1 5.2,2.7 2.6,3.3 1.5,8.5 0.1,12.7 -3.3,11.2 -24.6,32.7 -32.1,32.7 -4.5,-0.8 14.6,-24.5 15.2,-28.5 -1.4,-1.4 -13.2,11.9 -18.7,21.2 -2.5,4.2 -5.4,9.4 -6.9,10.3 -3.9,0.4 -8.5,2.9 -8.5,0.2 0.8,-11.9 24.4,-37.6 32.4,-44.8 4.9,-4.4 9.2,-6.5 12.6,-6.5 l 0,0 z m 56.2,1.8 c 18,0 -17.9,39.1 -40.9,44.5 -7.2,1.7 -20.4,2 -21.3,0.5 -0.9,-1.5 0.1,-2.7 3.1,-3.4 4.8,-1.2 28.4,-15.9 28.4,-17.6 0,-2.2 -9.7,1.3 -18.1,6.6 -5.4,3.4 -7.9,2.7 -5,-1.5 13.8,-19.3 31.9,-29.1 53.8,-29.1 l 0,0 z m 312.1,3.5 c 1,0.1 2,2.1 2.6,6.7 3.2,8.5 3.3,10.8 0.2,13.3 -5.3,4.2 -6.6,3 -6.5,-6.8 0.2,-8.1 2,-13.3 3.7,-13.2 l 0,0 z m -594,4.6 c 0,0 6.6,2.5 3.8,5.6 -1.9,2.2 -10,0.2 -10,-0.4 l 6.2,-5.2 z m 905.7,10.4 c 2.1,-0.1 2.2,1.9 1,6.9 -0.6,2.6 -3.4,16.4 -8,20.2 -0.6,0.4 -7.2,-3.7 -9,-5.5 -0.8,-0.9 -3.4,-2.8 -3.7,-4.1 -1.1,-4.2 0.2,-9.6 3.4,-12.3 1.3,-1 3.7,-1.6 5.1,-1.6 1.1,0 4.2,-1 6.9,-2.2 1.9,-0.9 3.3,-1.4 4.3,-1.4 z m -903.5,-0.6 c 4.3,0 9.6,0.5 14.1,2.1 13.3,4 37.5,15.2 41.2,18.8 5.4,5.3 -8.9,10.7 -26.1,10.7 -9.1,0 -10.8,-1.9 -23.3,-9.6 -1.6,-1.1 -8.9,-6 -6.7,-7.7 2.4,-2.4 9.3,0.8 18,5.3 2.8,1.5 9.8,1.1 9.8,-0.1 0,-1.5 -17.4,-8.2 -30.4,-12.5 -8.6,-2.8 -8.3,-5.6 -3.1,-6.7 1.6,-0.1 3.9,-0.3 6.5,-0.3 l 0,0 z m -17.3,5.8 c 0,0 3.6,3.2 8.2,6.8 5.1,3.9 10.9,8.6 15,14.9 5.9,7.3 15.1,25.5 14,28.8 -2.5,7.5 -27.5,-6 -47.8,-26.8 C 361.9,-285 358,-290 358,-290 l 7.9,-7 c 0,0 6.8,5.8 14.7,12.9 14.8,13.3 14.7,8.8 -0.1,-5.2 -4.2,-4 -8.1,-7.5 -8.1,-7.5 0.3,-2.5 2.7,-4.7 6.7,-5.2 z m 613.9,7.5 c 0,0 7.9,8.4 10.9,12.3 -49.4,47.2 -68.9,113.8 -22.4,185.5 L 958.8,-97 c -41.5,-84.1 -20.7,-146.7 34.2,-197.5 l 0,0 z m -413.6,-2.7 c 3,-0.1 0.2,3.4 -5.3,12.6 -10.3,17 -12.3,21.3 -28.7,25.4 -4.2,1 -10.2,0.1 -12.7,0.4 -7,0.8 -3.9,-0.1 7,-6.9 15,-9.5 2.3,-4.7 -11.6,2.3 -8,4 -16.4,3.7 -17.1,1.6 -0.4,-1.2 3.3,-4.2 5.7,-6.3 21.2,-18.6 27.7,-17.7 47.3,-24.3 8.5,-2.9 13.3,-4.7 15.4,-4.8 z m -88.1,16.2 c 7.6,0.1 14.7,1 21,2.5 4.2,1 11,1.9 5.2,7 -6.6,6 -24.2,14.2 -37.2,14.6 -1.8,0 -28.6,-2.1 -22.8,-7.8 1.1,-0.6 4.8,-0.4 7.9,-1 14.9,-2.6 10.9,-5.1 -7.4,-4.3 -22.9,1 -23.9,-1.4 -6.5,-5.9 12.7,-3.3 25.2,-5 36.6,-5.1 1,0 2.1,0 3.2,0 l 0,0 z m 122.1,3.1 c 10.2,0 18.1,1.9 18.1,5.8 0,6.3 -19.4,19.9 -32.1,22.5 -3,0.6 -7.2,1.5 -9.4,2 -4.4,0.9 -28.8,-0.2 -31.2,-1.1 -11.4,-4.3 -3.4,-5.8 17.6,-8 9.1,-1 13.5,-3.3 13.5,-5 0,-0.8 -6.7,-1.2 -16.8,0 -11.2,1.3 -9,-2 5,-9 9.2,-4.8 23.7,-7.2 35.3,-7.2 z m -188.4,6.6 c 1.4,0.1 4.8,1.3 10.5,3.7 12.1,3.7 28.8,7.9 40.1,20.5 9.2,9.1 11.4,12 9.4,15.1 -2.4,3.8 -31.1,0.6 -43.1,-4.7 -7.9,-3.5 -17.4,-10.9 -21.7,-17.3 -10.4,-15.5 -5.9,-19.4 7.4,-8.6 16,13.1 18.4,14.5 21.2,13.9 1.2,-0.2 -1.7,-2.9 -7,-7 -13.4,-10.2 -19.9,-15.7 -16.8,-15.6 l 0,0 z m 99.1,17.6 c 13.5,0.2 16.4,1.2 29.5,7.4 16.3,6 12.3,11.1 -16.9,18 -14.6,3.3 -29.3,0.7 -39.8,-6 -23.3,-14.7 -21.7,-17.6 4.4,-10.8 8.6,2.2 17.2,2.7 17.7,1.1 0.4,-1.2 -10,-4 -18.4,-6.9 -9.1,-3.1 -1.3,-2.8 17.1,-2.8 2.4,0 4.5,0 6.4,0 l 0,0 z m 674.6,69.9 c 0,0 -3,1.4 -4.3,2.1 -1.1,0.6 -9.2,1.5 -18.1,2 -17.5,1.1 -29.3,3.8 -40,7.9 -16.1,6.3 -27,26 -27,26 12,-0.7 79.7,12.3 98.7,-11.9 4,-5.1 -10.5,38.5 -17.8,40.4 -17.8,-2.3 -25.7,25.6 -23.9,24.4 -18.1,6.8 -32.1,10.7 -27.8,31.7 1.9,9.1 11,20.1 30.6,17.6 -5.7,36.2 38.5,46.1 43.9,2.4 0,0 8.7,-1.6 12,-1.9 20.3,-4.6 25.5,-34.1 -4.1,-43.8 -8.2,-2.5 -8.7,-4.1 -8.7,-4.1 1.6,-6.7 1.3,-13.7 -3.4,-21.5 6.7,-15.5 23.4,-45.5 23.4,-45.5 l -33.5,-25.8 z m 3,9.1 c 4,5.5 -17.4,14.3 -40.1,16 -5.1,0.4 -16.3,1.3 -16.6,1.8 -2.5,4.3 43.8,1.7 58.4,-6.3 5,-2.7 5.4,-0.3 3.2,4 -17,21.3 -57.3,15.6 -88.9,11.5 -1.8,-1.8 -0.2,-4 6.9,-9.7 13.1,-10.4 22.5,-13.8 43,-15.7 5.8,-0.2 31.6,-4.8 34.1,-1.6 z m 24.8,22.5 c -3,9.2 -18.5,37.3 -18.5,37.3 -1.9,1.8 -8.6,3.1 -8,-4.1 0.2,-7.7 14.9,-39.2 18.8,-39.7 4.6,-0.2 8,3.2 7.7,6.5 z m 9.7,2.3 c 4.1,32.5 28.6,40.5 52.1,51 6.2,2.9 11.4,8 17.6,11.4 11.8,-15.8 -1,-46.8 -21.4,-57.1 -15.2,-7.3 -29,-13.1 -37.6,-12.6 -5,0.2 -10.6,3.3 -10.7,7.3 l 0,0 z m 12.6,-1.8 c 2.6,0 6.4,0.8 20.2,4.6 20.8,5.8 35.3,21.3 38.9,41.6 0.1,0.8 1,16.5 -2.5,15.9 -5.4,-1.6 -8.3,-7.1 -16.9,-10.8 -10.8,-4.7 -26,-10.8 -35.2,-19.4 -7.5,-6.9 -11.5,-14.4 -12.4,-20.7 -0.9,-6.6 1.3,-7.2 6.8,-1.9 12.2,10 24.4,13.5 36.5,23.1 3.4,2.7 15.5,9.6 7.2,1.1 -5.6,-5.8 -22.1,-15.9 -30.8,-20.2 -12.2,-6.1 -18.8,-13.3 -11.8,-13.3 l 0,0 z M 310.7,-129.8 447.8,90 c -34.6,17.7 -51.6,25.5 -108.6,20.4 l 0.2,2.9 -24.2,-1.7 c 41.1,65.8 91.9,151.7 75.5,300.2 l 170,1.7 c 0,0 2.6,2.5 2.9,2.7 2.5,1.7 6.2,-2.9 6.2,-2.9 l 76.7,0.4 2,2.5 35.8,0.1 c 0,0 -160.1,-307.8 -240.6,-460.7 -32.9,-61.2 -67.7,-88.6 -133,-85.4 l 0,0 z m 880.1,17 c 9.2,-0.1 18.2,6.3 18.1,18.5 0,6.4 -5.5,15.2 -5.5,15.2 l -12.3,-12 -12,11.8 c -5.8,-4.9 -9.2,-14.2 -7.2,-19.4 3.7,-8.9 11.8,-14 18.9,-14.1 l 0,0 z m -144.4,2.8 c 11.3,46.2 23.4,109.8 -80.7,255.4 -61.6,86.1 -82.3,167.7 -85.8,267.6 l -6.1,0 c 3.5,-54.8 5,-154.2 5,-154.2 l 5.8,-5 c 0,0 -2.6,-4.3 -3.6,-9.2 -1.8,-8.4 -0.2,-5.6 5,-28 22,-108.3 160.4,-326.6 160.4,-326.6 l 0,0 z m -547.3,15 519.2,8.2 -7.1,13.5 -502.4,-9.2 -9.7,-12.5 z m 692,11.6 19.1,19 -19.1,20.9 -19.6,-21 19.6,-18.9 z m -15.9,7.9 -10.6,11.1 9,9.7 c -9.6,19.6 -34.4,3.9 -33.4,-10.8 1.2,-17.3 21.4,-24.2 35,-10 l 0,0 z m 33.1,22.6 8.5,-10.6 -9.4,-10.5 c 15.7,-15.1 30.2,-1.5 31.5,11.3 1.4,13.6 -20,28.8 -30.6,9.8 z m -614.8,-19.9 42.5,0.9 -16.1,29.4 -43.1,-0.7 16.7,-29.6 z m 94.8,1.3 39.1,0.4 -16.8,29.8 -39.6,-0.4 17.3,-29.8 z m 92.2,1 41.4,0.5 -17.1,29.8 -42.6,-0.5 18.3,-29.8 z m 92.8,1 42.4,0.5 -15.8,29.8 -44,-0.5 17.4,-29.8 z m 94.4,1.1 40.9,0.5 -16.9,29.8 -42.1,-0.5 18.1,-29.8 z m -451.3,-4.9 27.5,0.3 -11.4,19.6 -16.1,-19.9 z m 684.7,26.6 c 15.6,12.8 4.4,33.4 -12,33.6 -11.3,0.1 -27.4,-19.1 -9.6,-34.5 l 11.7,10.9 9.9,-10 z m -578,9.5 39.9,0.4 -15.3,26.8 -39.1,-0.4 14.5,-26.8 z m 88.8,1.2 43.8,0.5 L 740,-8.7 698.3,-9.2 711.9,-36 Z m 93.8,1 43.6,0.5 -14.5,26.8 -44,-0.5 14.9,-26.8 z m 93.5,1.1 43.2,0.5 -13.8,26.8 -45.7,-0.5 16.3,-26.8 z m -356.7,-3 27.6,0.3 -12,21.5 -15.6,-21.8 z m 20.4,31.6 404.7,8.1 -7,13 L 573,11.6 562.9,-5.3 Z m 14,23.6 379.2,5.2 -8.9,18.1 -131,-2.1 c -25.4,-19.4 -54.7,-10.9 -88.1,-0.4 0,0 -100.3,-0.1 -139.7,-1.6 L 576.9,18.3 Z m 531.6,52.3 c 20.7,27.2 35.4,64.8 41.2,94.5 5.7,30.3 -1,45.1 -8.5,18.5 -12.1,-66.4 -90.5,-76.9 -126.1,-26 -49.5,70.7 34.8,158.1 96.6,100.9 5.3,-4.9 8.2,-6 9.9,-4 2,2.4 0.6,4.6 -10.4,15.4 -42.9,42.3 -27.8,104.1 29.5,119 81.4,21.2 131.8,-78 61,-125.9 -7.4,-5.7 -8.1,-7.2 -5.4,-10.2 2.4,-2.7 4.5,-2.4 11.1,3.7 60.5,56 144.8,-15.3 107,-90.5 -29.2,-57.9 -112.2,-48.2 -132.7,15.5 -3.8,11.9 -4.1,12.6 -6.2,13.9 -8.5,0.2 -2.2,-27.8 -0.8,-35.2 10,-32.7 20.9,-63.3 41.5,-88.4 l -107.7,-1.2 z m -658.6,23.2 196.5,317.9 -44.2,-1 -186.6,-299 34.3,-17.9 z m 982.2,29.4 c 1.3,1 19.4,52.5 15.7,57.1 -1.2,3.7 -4.3,2.4 -5.5,-2.3 -11.1,-44.4 -66,-37.6 -66,8.2 0,28.4 29,40.9 54.5,23.6 3.8,-2.6 5.5,-2.6 5.5,-0.1 0,0.7 -3,4.6 -6.6,8.6 -20.6,22.4 -13.3,53.8 14.1,60.6 36.8,9 55.1,-32.3 27.7,-62.5 -4,-4.4 -7.2,-8.4 -7.2,-9 0,-2.3 3.1,-1.8 6.7,0.9 25.4,19.3 56.7,6.8 56.7,-22.6 0,-38.8 -48.1,-49.5 -61.8,-13.8 -3.4,8.9 -5,11.3 -6.7,9.6 -6.4,-3.5 18,-58.5 18.7,-58.5 l -45.8,0.2 z M 409.6,114 595.1,411.2 c -8.7,-0.3 -16.7,0.1 -25.4,-0.1 4.1,-55.1 -39.9,-81.4 -66,-83 16.3,-64.3 -30.3,-91.9 -61.6,-97.4 13.6,-83.6 -55.6,-96.3 -56.6,-95.4 0.4,-6.9 -0.8,-11.8 -1.7,-17.6 l 25.8,-3.7 0,0 z m -30.7,4.3 c -0.4,1.8 3.4,18.5 -4.1,15.3 l -0.4,-15.4 4.5,0.1 z m -39.7,0 c 2.6,11.1 8.3,13.4 15.9,20.9 0,0 -9.9,1.6 -12.2,0 -4.1,-2.9 -12.5,-21.1 -12.5,-21.1 l 8.8,0.2 z m 29.3,19.1 c 4.8,0.1 8.6,4 8.6,8.8 -0.1,4.8 -4,8.6 -8.8,8.6 -4.8,-0.1 -8.6,-4 -8.6,-8.8 0.1,-4.8 4,-8.7 8.8,-8.6 z m 17.1,6.8 c 24.9,-1.3 60.6,25.7 50.5,75.4 -1.6,-3.5 -3.5,-11.2 -7.5,-16.7 -16.9,-23.3 -37.4,8.1 -23.9,21.2 6.6,6.4 9.7,8.9 9,9.5 -15.3,-3.1 -27,10.4 -20.8,25.5 10.4,19.6 25.3,9.4 33.9,-2 0,0 5.1,17.5 10.3,19.8 8,3.5 19.1,-0.7 22.9,-10.3 5.8,-14.3 -7.8,-18.2 -10.7,-26.2 28.7,1.3 64.9,43.7 47.8,79.9 2.3,-8.3 -6.4,-27 -23.8,-22.4 -8.7,2.9 -11.8,15.5 -5,28.5 2.2,4.2 3.4,5.7 3.4,5.7 0,0 -7.5,0.9 -9.5,2.1 -22.6,13.6 5.9,51.6 22.9,28.2 1.7,-2.8 4.6,-6 4.6,-6 2.7,5.3 3.5,12.7 8.5,15.3 20.6,10.6 30,-11.2 21.5,-22.1 -4.8,-6.1 -10.3,-13.2 -10.3,-13.2 -0.8,-3.9 61.8,13.3 53.5,74.3 L 396.3,408.6 C 412.8,314.9 376.6,207 357.9,174 l 8.4,-10.8 c 2,4.1 5.4,14.3 11.4,16.4 19.3,6.4 25.3,-7 22.9,-20.9 -1.4,-7.3 -11.7,-13.4 -15,-14.5 l 0,0 z m 43.1,88.9 c 4.5,0.1 8.2,3.8 8.1,8.3 -0.1,4.5 -3.8,8.2 -8.3,8.1 -4.5,-0.1 -8.2,-3.8 -8.2,-8.3 0.1,-4.5 3.9,-8.1 8.4,-8.1 z m 988.9,87 c -11,-10.5 -23.2,-10.3 -34.3,-9.2 l -0.9,23.3 c 0,0 27.4,-1.1 23.6,13.1 -1,2.8 -2.4,12.1 -2.4,12.1 l -1.7,119.4 c 3.9,52.5 71.3,63.8 88.5,14.2 3.3,-8.5 2.9,-16.2 3,-25.5 l 0.7,-62.9 19.2,-0.2 -0.5,-22.4 -17.6,0.1 c 1.6,-31.4 -3.5,-61.8 -25.5,-69.2 -24.1,-7.6 -39.4,-1.6 -52.1,7.2 z m 56.7,54.4 c -11.2,1.9 -26.6,-19.3 -39.2,-34.6 6,-11.3 23.9,-9 30.5,-2 9.5,10.2 8.6,28.8 8.7,36.6 z M 490.2,331.7 c 4.6,0.1 8.3,3.8 8.2,8.4 -0.1,4.6 -3.8,8.3 -8.4,8.2 -4.6,-0.1 -8.3,-3.8 -8.2,-8.4 0,-4.6 3.8,-8.3 8.4,-8.2 z m 935.6,30.4 c 11.5,23.1 47.5,41.2 48.1,37.7 l -0.5,63.3 c 1.6,25.4 -7.5,37.6 -23.6,39.1 -28.2,0 -27.5,-35 -27.3,-54.5 l 0.3,-62.5 c 0.3,-7.5 -0.5,-16.9 3,-23.1 l 0,0 z"
           id="path3389-2" /></g></g></g><g
     transform="translate(-259.99295,-369.82556)"
     id="printing-marks"><g
       id="CropMarks" /></g></svg>