<?xml version="1.0" encoding="UTF-8" standalone="no"?>
<svg
   xmlns:dc="http://purl.org/dc/elements/1.1/"
   xmlns:cc="http://creativecommons.org/ns#"
   xmlns:rdf="http://www.w3.org/1999/02/22-rdf-syntax-ns#"
   xmlns:svg="http://www.w3.org/2000/svg"
   xmlns="http://www.w3.org/2000/svg"
   height="312.79669"
   width="224.19823"
   xml:space="preserve"
   enable-background="new 74 -106.5 744.1 1052.4"
   viewBox="74 -106.5 224.19823 312.79668"
   y="0px"
   x="0px"
   id="svg4423"
   version="1.1"><defs
     id="defs17" /><g
     transform="translate(-259.99041,-369.77722)"
     id="layer1"><g
       transform="translate(-512.47111,486.83327)"
       id="g3839"><g
         transform="translate(-6377.9386,2318.4423)"
         id="g3720"><path
           style="fill:#ffffff;stroke:#000000;stroke-width:0.99669999"
           d="m 7235.5,-2541.5 202,0 c 5.9,0 10.6,4.8 10.6,10.6 l 0,290.6 c 0,5.9 -4.8,10.6 -10.6,10.6 l -202,0 c -5.9,0 -10.6,-4.8 -10.6,-10.6 l 0,-290.6 c -0.1,-5.8 4.7,-10.6 10.6,-10.6 z"
           id="rect6349" /></g><g
         transform="matrix(0.1545569,0,0,0.1545569,111.19177,-36.949191)"
         id="g3870"><g
           transform="translate(4008,112)"
           id="g3887"><g
             id="g3134"><path
               style="fill:#e2cf00"
               d="m 1659.6,-1145 c 0,0 163.7,236.5 219.2,278.5 4.1,1.9 72.5,-11.2 72.5,-11.2 -35.1,-84 -57.6,-170.8 -34.9,-268.2 l -256.8,0.9 z m 91,374.1 c -112.8,31.8 -225.4,61.8 -347.7,9.9 l -133.6,129 c -1.1,3.3 173.1,78.4 175.8,70.2 l -42.9,136.8 98.9,21.8 45.4,-145.6 c 0,0 136.5,-13.1 199.8,-34.8 48.2,-16.5 98,-28.5 141,-64.4 -88.9,-53.4 -136.8,-123.5 -136.7,-122.9 l 0,0 z m -678.6,38.2 c -42.8,-26.2 -76.2,27.8 -44.9,54.7 -3.7,15.8 -4.9,39.2 10.3,49.5 14,8.9 40.1,-0.3 43.9,-0.2 0.3,0 0.7,28.4 -1.5,28.3 -4.1,-0.1 -19.3,-13.2 -28.8,-16 -31.9,-9.6 -76.7,-14.3 -75.9,-12.6 1.3,2.8 -7.9,9.3 27.6,31.6 13.2,8.3 54.9,-1 88.2,9.4 20.3,6.4 40.2,17 51.2,11.7 13.9,-5.8 30.1,-24.2 35.3,-39.1 1.5,-16.3 -83.4,19 -78.2,19.6 l -0.3,-32.9 c 34.2,3.8 65.1,-21 31.5,-63.5 25,-24.9 -10,-84.2 -58.4,-40.5 z m 142.5,150.4 c -84.1,84.8 -256,243.9 -256,243.9 l 1.8,118.8 168,150.3 c 13.3,-159.6 104,-308.5 190.3,-383 7.9,-22.7 -85.9,-122.1 -104.1,-130 l 0,0 z m 599.3,29.3 c -12.7,98.1 -24.2,231.9 -190.6,380.6 28.8,49.1 65.6,99.1 118.4,123 3.8,8.4 152.7,-154.1 244.3,-231 l -0.5,-104.1 -171.6,-168.5 z m -750.2,21.1 c -0.3,2.1 -6.5,27.9 -8.1,27.2 0.1,1.4 17,-6.3 19,-13.4 1.7,-6.2 5.6,-14.6 5.8,-15.8 -3.8,-26.5 -11,-7.6 -16.7,2 z m -62.3,68.6 c -6,14.6 -11.7,41.4 -9.6,58.9 29.8,14.9 37.9,-47.1 29.9,-53.1 -4.8,-2 -16.2,-6 -20.3,-5.8 z m 920.3,284.4 c -2.8,12.4 -2.2,16 3.3,18.5 9.6,4.2 14,-0.9 21.7,-21 4.6,-12 8.7,-30 5,-37.2 -18.2,-12.8 -27.9,30.4 -30,39.7 z m -450.7,-29 c -5.8,0 -11.5,0.5 -16.7,1.7 -49.2,11.3 -45.5,97.2 -53.8,131.5 -154.5,22 -195.4,32.5 -237.7,49.9 -65.8,27 -86.7,43.5 -104.1,57.2 10.9,-1.3 129.1,108.9 135.2,124.4 -7.5,-21.3 228.5,-73.2 354.2,-21.1 15.4,5.5 132.9,-114 129.2,-127.3 15.2,-26.7 -148,-56.7 -168.6,-73.3 -16.9,-90.9 114.1,-140.7 23.4,-138.1 -16.6,0.4 -40.2,-5.1 -61.1,-4.9 l 0,0 z m 411,102.1 c -2.9,3.4 -5.8,5.3 -9.6,9.3 l -8.6,11.4 6.3,10.2 16.1,-17.7 -4.2,-13.2 z M 1766.6,8.6 c 17,-7.6 77.1,-36.8 79.7,-30.1 L 1845,7.7 c -9.2,-3 -68.6,6.8 -34.3,68.1 -21.6,48.7 26.6,73.8 60.4,41.6 70.8,24.3 61.3,-46.5 46.7,-58 11.5,-17.9 -3,-56 -10.2,-56.1 0,0 61.8,13.9 55.7,2.9 -2.8,-5 -6.2,-13.7 -19.9,-22.8 -15.8,-10.6 -43.6,-6.7 -66.1,-11.4 -24.1,-5 -39.5,-13.6 -59.8,-14.8 -30.4,2.8 -58.8,29.6 -50.9,51.4 l 0,0 z M 1078.1,238.5 993,261.3 c 0,0 27.5,63.9 37.1,120.9 11.7,69.7 2.3,145.5 2.3,145.5 l 247.1,1.3 -201.4,-290.5 z"
               id="path3012" /><path
               style="fill:#d40000"
               d="m 2083.1,632.9 c -32.5,-11.3 -33.2,-31.8 -34.3,-57.9 -1.9,-39.6 -1.6,-81.2 4.1,-113.4 2.2,-9.8 3.3,-14.8 -6.4,-18.3 -5.4,-1.9 -10.8,-1.1 -16.2,-1.9 l 0,-24.4 c 10.3,-0.6 19.8,-0.5 28.4,4.6 3.9,2.4 8.2,5 8.2,5 12.7,-12.1 46.2,-13.8 62.1,1 10.5,10.6 14,19.5 14.6,43.5 0.5,17.7 0,18.9 0,18.9 l 18.4,-0.1 0,23.7 -18.4,0 c 0,0 0.4,11.8 0,37.4 -0.3,19.9 -0.7,32.9 -2.1,42.4 -6.1,33 -35.5,47 -58.4,39.5 l 0,0 z m 35.2,-40.8 c 6.4,-17 3.7,-82.9 3.7,-82.9 -27.4,-10.5 -39,-27 -50.2,-38.8 0,0 -4.6,73.1 0.9,112.4 5.1,32.7 34.6,37.6 45.6,9.3 l 0,0 z m 0.2,-110.7 c 1.5,0.2 3.2,0.3 3.4,-0.3 2.1,-5.9 -1.5,-30.7 -7.7,-35.6 -16.7,-13.4 -31.9,0 -31.4,0.6 7.9,10.7 17.1,22.4 29,31.7 2.2,1.8 4.1,3.2 6.7,3.6 l 0,0 z M 1300,528 C 1191.6,373.3 1091.2,226.1 957.8,63.9 c 0,0 0.1,-62.7 0.6,-124.9 l 409.6,587.5 -68,1.5 z m 379.5,-202.2 c 53.7,-58.3 94.4,-120.4 130.5,-183.9 41.2,73.1 88.8,132.6 141.4,181.8 -51.6,52.1 -98.4,111.8 -135.4,186.7 -30.1,-57.2 -69.2,-116.9 -136.5,-184.6 z m 356.4,-18.7 c 22.9,-24 42.6,-50.9 61.2,-79.3 20.6,29.2 33,51 60.7,81.8 -23.8,25.2 -43.7,50.4 -60,78 -19.6,-31.2 -40.1,-60.2 -61.9,-80.5 z m -516.5,-28.9 c -3.5,-29.4 -9.5,-64.6 -18.1,-94.8 l 74.8,-70.5 c -8,63 -20.4,111.3 -56.7,165.3 z M 1876.9,55.9 c 16.7,22.2 -11.5,34.6 -22.2,24.7 -21.6,-20.1 10.1,-40.8 22.2,-24.7 z m -741.7,-140 c -12.4,8 22.3,-193.9 117.6,-298.2 58,166 -44.3,259.1 -117.6,298.2 z m 470.2,-0.8 -63.3,-17.1 31.5,-88.5 c 0,0 59.4,13.9 54.4,32.3 -16.5,59.8 -22.6,73.3 -22.6,73.3 l 0,0 z m -293,-34 c 17.1,-28.2 30.2,-59.2 42.1,-91 l 90,-12.5 -52.2,101.2 -79.9,2.3 z m 381.5,-124.2 c -49,-97.5 8.7,-251.9 115.3,-294.4 -3.9,98.9 -34.6,199.1 -115.3,294.4 z m -329.3,-27.7 c 2.2,-34.6 -1.8,-70.9 -6.6,-103.1 l 222.8,29.7 7.8,93.4 -224,-20 z m 163.1,-148.4 c 7.5,-29.7 14.3,-54.4 28.8,-78.5 16.2,0.5 82,-10.3 73.6,2.5 -17.9,22.9 -26.4,60 -38.2,83.4 -12.2,-1.3 -67.9,8.3 -64.2,-7.4 l 0,0 z m -147.6,-17 c -22.5,-8 -53.3,-10.2 -65.3,-27.6 l 23.4,-74.3 69.4,21.3 -27.5,80.6 z m 194.8,-708.6 54.4,-0.5 c 0,0 261.4,334.4 359.3,464.6 -3.3,13.2 1.1,125.5 1.1,125.5 -138.7,-195.3 -414.8,-589.6 -414.8,-589.6 z m -501.2,466.6 c -14.6,-15.7 8.6,-29.6 18.3,-15.6 8.5,12.4 -10.6,23.9 -18.3,15.6 z m 293.2,-54.8 c 0.8,-77.5 55.8,-169.5 55.2,-167.1 -0.6,-0.2 7.8,75.8 18.4,99.7 -2.8,4.1 -71,72.2 -73.6,67.4 z m -234.1,-25.8 c -42.6,-81.5 -93.8,-143.2 -138.4,-186.4 55.5,-52.5 97.2,-117.4 139.9,-181.3 35.3,67.1 81.1,128.3 132.5,186.6 -51.5,50.6 -100.3,122.4 -134,181.1 z M 790.1,-924.1 c 25,-24.9 61.8,-81.5 61.5,-81.6 17.5,28.7 36,58.3 61.5,82 -0.3,-0.3 -39.5,41.9 -59.7,81.5 -18.1,-33 -42,-61.7 -63.3,-81.9 z m -3.6,-180.2 0,-24 18,0 c 0,0 -0.2,2 -0.1,-30.8 0.2,-45.8 2.5,-59.8 11.6,-71.5 24.7,-31.5 69.9,-21.8 81.8,17.5 0.9,3 2.9,10.6 3.1,20.6 0.5,26 0.6,69.3 -0.3,96.3 0.4,10.6 -3.3,24.4 -6.1,26.7 1.3,9.6 16.4,11.5 25.9,10.8 l 0,25.1 c 0,-0.1 -9.6,0.9 -21,0 -4.8,-0.4 -15.9,-9.5 -15.9,-9.5 0,0 -17.5,12.1 -33.3,11.7 -51.6,-1.1 -45.8,-65.4 -45.7,-72.8 l -18,-0.1 z m 41.3,6.3 c 0,0 0,9 0.6,15.1 1.8,19.9 14.8,30.3 27.8,26.7 6.5,-2 10.3,-5.9 10.3,-5.9 -11,-16.3 -24.2,-30.1 -38.7,-35.9 z m 47.9,-99.8 c -5.5,-30.1 -33.8,-34.7 -44.5,-9.2 -1.9,4.6 -3.5,40.9 -3.5,40.9 l 0.2,42.8 c 23,5.1 35.7,19.8 50,36.5 0,0 2.9,-77 -2.2,-111 z"
               id="path3082" /><path
               style="fill:#131f67"
               d="m 947.6,-1159 -2,1695.7 1055.1,0.2 -0.4,-1693.1 -1052.7,-2.8 z m 964.2,13.2 c -8.6,93.8 -10.1,167.4 38.6,264.7 -8.8,9.2 -75,11.8 -95.9,22.8 -0.4,2.6 5.4,7.2 5.4,7.2 21.8,-10.1 107,-19.4 107,-19.4 -35.7,-62.2 -65,-181.7 -42.9,-273.4 l 61.5,0.2 -0.5,451.7 c 0,0 4.8,87.2 6.7,136.3 -32.7,-42.3 -76.1,-101.4 -104.5,-145.2 -34.4,-48.4 -72.7,-105.1 -112,-158.3 -11.6,-16.8 -28.1,-38.5 -41.6,-58.1 -21.2,-30.3 -38.7,-53.7 -60.6,-86.3 -23.4,-33.7 -45.9,-64.3 -73.8,-103.5 -23.6,-33.3 -24.7,-37.3 -24.7,-37.3 l 337.3,-1.4 z m -403.7,1.8 c 39.8,69.2 111.2,92.7 129.1,97.4 l 10.4,15.2 c -84.1,-16.5 -129.1,-70.5 -150.3,-103.8 -1.6,-2.6 -1.5,-8.6 -1.5,-8.6 l 12.3,-0.2 z m -39.4,0 c -11,26.1 -26.4,41.2 -41.1,57 l 0.5,-16.8 c 0.5,1.1 21.9,-22.7 29.3,-40.2 l 11.3,0 z m 19.3,0 c 0,0 0.3,4.5 -1,8.1 -8.4,27.3 -60.9,79 -59.4,71.3 l -0.5,-13.3 c -0.2,0.6 39.4,-37.7 49.8,-66 l 11.1,0 z m -38.2,0 c -4.1,7.6 -19.3,30.6 -20.7,24.2 l 1.4,-24.2 19.3,0 z m 119.8,0 c 6.6,9.6 12.6,16.6 19.6,26.3 1.3,1.9 2.1,4.1 1.8,4.9 -1.1,2.7 -4.2,0.7 -12.9,-7 -14.2,-12.6 -23.9,-24.2 -23.9,-24.2 l 15.4,0 z m -53,0 12.9,0 c 26.7,44.3 74.5,67.9 91.1,73 4.4,4.9 9.2,13.8 11,15.7 -44.7,-12 -94.7,-49.8 -115,-88.7 l 0,0 z m 31.3,-0.2 c 14.2,20.5 36.5,34.9 49,44.7 6.7,5.3 15.6,16.1 14.8,18.2 -27.9,-8.8 -60.6,-39.8 -75.6,-62.7 l 11.8,-0.2 z m -54.7,12.7 7.8,12.4 c -18.8,31 -42.4,58.9 -73.8,80.9 l -0.2,-16.2 c 35.6,-25.7 51,-51.5 66.2,-77.1 z m 12.6,17.9 c 22.4,30.2 70.7,76.9 148.2,90.9 0,0 4.4,4 10.8,12.7 8.1,11.1 8.3,11.5 9.3,29.7 0.7,33.2 11.5,78.4 22.3,106.7 -1.3,7.1 -2.6,10.7 -15.9,28.6 -55.5,74.9 -173.6,145.7 -231.8,49 -19.4,-31 -21.3,-90.4 -22.5,-127.4 0,0 0.4,-2.6 0.5,-3.3 1.4,-6.7 3.3,-5.7 13.8,-2.8 10.7,4.6 21.7,0.9 33,-2.2 12.8,-5.2 13.9,-1.2 1.5,10.4 -4.3,4 -9.5,10.1 -9,9.8 0.6,-0.3 7.8,-3.2 10.9,-5.7 9.9,-7.5 12.2,-4.6 8.6,3.6 -15.5,35.1 -18.3,36.5 3.6,46.3 4.6,2 7.7,4.3 10.2,6.5 15,14.1 9.6,6.5 5.4,0 -6.4,-10.1 -0.6,-15.5 10.2,-9.2 7.3,4.2 16.8,7.6 22,6 10.1,-3.3 13.1,-14.3 10.1,-26.4 -2.4,-6.7 -16.1,-18.6 -13,-6.2 8.3,-0.4 15.4,11.3 8.2,19.3 -5.4,7.3 -15.1,3.4 -29.9,-6.4 -8.2,-6.2 -18.1,-3 -17.8,4.6 0.3,5.1 -6.9,3.9 -11.6,-2.6 -2.6,-3.6 -0.8,-14 4,-23.8 30.7,-61.8 4.8,-121.7 -48.4,-104.8 -5.9,1.9 -11.1,3.4 -11.1,3.4 l -0.3,-23.6 c 30.8,-21.1 63.2,-55.1 78.7,-83.1 l 0,0 z m 31,110.9 c -8,9.7 -5.2,18.3 12.4,9.6 14.3,-7.1 16.3,-7.9 32,-8.5 22.2,-0.8 42.1,6.3 66.8,21.4 16.3,10 18.7,10.8 14.3,4.5 -13.2,-25.2 -91.2,-63.6 -125.5,-27 z m -75.3,2.9 c 15.4,3.9 30.2,14.1 27.6,18.3 -0.9,1.5 -1.8,1.8 -3.8,0.8 -11.3,-5.6 -29.2,-14.7 -55.2,-3.6 -2.9,1.2 -4.5,-0.7 -4.4,-4.1 0,-6.7 11.3,-12 23.2,-12.5 4.2,0 8.8,0.2 12.6,1.1 z m 89.4,19.6 c -9.2,4.8 -12.3,7.3 -16.2,5.2 -9.3,-5.1 -7.3,-1.1 -1.6,9.2 4.1,7.2 4,8.7 3.4,13.2 -0.7,4.8 -0.6,5 4.1,10.2 8.8,11.5 17.5,22.6 30.6,31.4 4.1,2.7 9.6,5.8 10,5.8 1.3,0 0.8,-1 -1.5,-3.3 -16.8,-16.2 -30,-30.6 -12.9,-24.5 19.9,6.5 38.9,-1.6 54.4,-6.9 6.3,-2 13,-3.6 14.6,-3.6 14.3,0 17.7,-6 8.6,-15.1 -31.1,-34.9 -56.8,-43.1 -93.5,-21.6 l 0,0 z m 73.7,6.5 c 6.4,5.9 9.8,9.1 9.2,10.7 -0.7,1.7 -5.6,-1.1 -13.9,-5.6 -16.7,-8.9 -35.5,-11 -59.1,-4.2 -18.3,5.3 -12.9,-3.1 7.5,-11 16.2,-7.5 38.8,-5.2 56.3,10.1 z m -171.1,-12 c 14,-0.2 28.6,4.4 38.3,12.8 6.8,5.9 1.8,7.2 -9.2,2.7 -16.7,-6.9 -30.8,-8 -44.5,-1.6 -4.3,2 -9.3,4.4 -10.6,4.3 -2.3,-1.6 -3.3,-6.1 -1.3,-9.2 5.5,-5.5 16.5,-8.8 27.3,-9 z m 230.6,4.8 c 1,0 2.6,1.7 4.9,4.9 4.2,5.9 4.3,8.8 0.9,19.1 -4.2,12.6 -5.9,10.5 -7,-7 -0.7,-11.4 -0.7,-17.1 1.2,-17 z m 13.9,18.9 c 1.6,-0.2 3.5,2.6 6.4,8.4 2.1,4.1 1.6,5.3 -4.9,24.3 -2.7,8 -5.3,14.3 -5.3,14.3 -2,1.6 -1.7,1.4 -2.6,0.3 -4.6,-5.9 -4.3,-17.5 -0.3,-31.3 3,-10.3 4.7,-15.7 6.7,-16 l 0,0 z m -126.1,1.5 c 0.5,0 3.6,0.6 3.6,0.6 -0.3,28.2 21.4,22.5 24.3,2.5 0,0 5.4,-0.6 6.2,0.8 2.6,4.2 -3.4,16.2 -12.4,20.2 -6.5,2.9 -15.4,2.2 -20.7,-2.7 -1.5,-2.8 -6,-13.2 -5.1,-17.6 1.1,-2.5 2.6,-3.7 4.1,-3.8 l 0,0 z m -12.9,3.3 c 0.2,0 0.4,0 0.7,0 2.1,0.1 3.7,0.7 4.5,3.3 l 4.7,14.3 c -3.4,4.1 -16.5,-4.2 -16.4,-10.4 -0.1,-4.4 3.1,-7.1 6.5,-7.2 z m -88.5,-0.1 c 3.3,-0.3 4.5,0 4.8,3.1 1.1,9.3 -8.2,19.4 -20.2,19.9 -11.7,1.3 -18,-7.7 -17.6,-16.6 0,-6.7 5.8,-7.5 6.4,-2.2 1.9,15.3 14.9,16.2 20.9,7.7 2.3,-3.2 1.7,-11.3 5.7,-11.9 z m 143.2,3.2 c 0.9,0 2.2,0.3 4,0.9 12,3.8 12.4,5.7 2.1,9.4 -12.3,4.4 -13.1,5 -10.2,-3.6 1.6,-4.7 2.1,-6.7 4.1,-6.7 z m -127.5,1.3 c 8.9,0.6 9.7,8.1 1.8,10.6 -11.7,5.2 -15.6,4.8 -11.1,-2.8 2.4,-5.3 4.6,-7.7 9.3,-7.8 z m -55.8,2.7 c 1.1,0 2.3,0.4 3.6,1.4 1.3,4 3.6,7.2 5.4,11.3 -1.8,1.8 -6.2,1.8 -9,-0.4 -5.6,-4.4 -4.7,-12.2 0,-12.3 l 0,0 z m 280.4,8.7 c 3.5,0 7,5.5 8.1,9.6 -12.1,15.5 -10.2,44.6 -13,53.3 -2.4,7.1 -3.2,1 -10,-17.5 -2.7,-7.5 11,-44.5 14.1,-45.3 0.3,0 0.6,-0.1 0.8,-0.1 z m 12.4,16 c 2.7,1.5 6.4,5.1 7,10.6 0.4,3.2 -1.2,7.5 -2.3,11.8 -2.4,10.1 -5.7,29.1 -6.9,46.7 -0.5,7.5 -0.5,14.2 -0.8,14.9 -3.6,7.1 -11.3,-12.1 -10.7,-27.3 2.4,-12.3 3.7,-55 13.7,-56.7 z m 17.1,21.9 c 1.7,2.4 2.8,4.2 3.3,6.2 0.9,3.6 0.1,7.8 -1.9,16.9 -5.6,24 -4.7,49.9 -1.1,76.5 0.8,5.6 -3.1,2.8 -9,-6.8 -3.3,-5.3 -5.3,-12.7 -6.3,-21.3 -2,-18.9 1.9,-44.5 5.3,-64.7 1.3,-9 2.3,-16.9 9.7,-6.8 z m 9.2,14.6 9.7,11.7 c 0,0 -4.2,26.9 -4.1,41.3 -0.7,5.4 4.8,63.9 6.6,68.7 -6,-6.7 -8.8,-10.6 -15.3,-19 -0.7,0.1 -6.4,-57.7 -2.5,-79.8 2.4,-13.4 5.6,-22.9 5.6,-22.9 l 0,0 z m 15.2,23.3 c 1.6,-0.1 3.7,1.8 6.3,5.4 2.4,3.3 3.5,6 3.6,10.1 0.1,3 -1.4,5.3 -1.4,10.7 -0.3,31.8 4,61.9 9.4,90.9 1.9,10.4 -1.8,6.1 -8,-0.4 -5.6,-6 -5.7,-8.3 -8.7,-16.8 -0.6,-1.7 -6.6,-60.4 -6.5,-64.9 0.2,-18.2 0.7,-28.4 2.8,-32.8 0.7,-1.4 1.5,-2.1 2.5,-2.2 l 0,0 z m -35.3,64 c 0,0 -11.3,5.8 -14.3,3.8 -4.8,-13 -22,-47.9 -22.3,-54.1 0.3,-2 7.1,-11.2 7.1,-11.2 9.5,20.7 18.1,41.8 29.5,61.5 z m -212.9,-41.9 c -3.4,4 -7.5,2.3 -15.7,-1.3 -4.2,-1.3 -3.6,0.4 -10.5,4.1 -5.4,2.8 -7.3,2.9 -10.9,2.8 -4.7,0 -6.4,-1.7 -6.4,1.6 0,1.8 -0.3,10.1 -1.4,14.4 -1.5,5.8 -2.8,8.4 -2,9.4 2.4,2.2 4.4,0.9 9.5,-4 8.4,-8.1 14.1,-5.8 23.4,-2.8 10.6,3.4 12.8,4.7 22.6,1.3 13.8,-4.8 22.1,-4.8 27.6,-1.3 9.5,6 12.3,5.7 8.4,-10.8 -1.3,-5.3 -1.3,-13.5 -2.1,-15 -0.9,-1.6 -3.3,3 -5.8,4.7 -4.8,3.2 -7.3,3.2 -18.2,-0.4 -6.5,-2 -13.7,-8.9 -18.5,-2.7 l 0,0 z m 174.5,2.2 c 4.2,9.9 20.9,43 20.4,46.7 -3.3,2.9 -7.6,5.1 -10.2,2.4 -8.4,-15.2 -10.9,-23.5 -17.7,-40.6 -2,-4.1 4.1,-14.5 7.5,-8.5 l 0,0 z m 89.8,-1.3 c 1.2,-0.2 3.7,2.3 5.5,4.8 5.7,7.7 6.1,8.6 6.3,16.8 0.7,29.8 4.4,64.8 12.8,91.8 1.7,5.3 4.8,11.8 4.4,12.7 -2.8,4.1 -15.8,-6.9 -19.8,-23.6 -5.4,-21.2 -8.6,-43.3 -10.3,-57.7 -2.2,-25.3 -2.2,-43.4 1.1,-44.8 l 0,0 z m -100.3,16.5 c 4.8,9.3 10.9,25.3 15,34.9 1.9,4.2 -7.7,7.5 -9.8,6 -3.8,-2.8 -5.6,-10.8 -8.1,-15.6 -7.9,-17.4 -9.4,-17.7 -5,-23.2 2.7,-3.7 5.9,-8.3 7.9,-2.1 l 0,0 z m 119.2,10.6 c 0.7,0 1.6,0.7 2.8,2.2 5,5.9 8.4,10.5 9.8,14.9 1,3.2 0.2,5.6 0.5,11.4 0.9,15.2 4.9,35.8 16.2,78.2 1.1,4.1 2.6,9 2.4,10.3 -1.1,7.8 -12.5,-4.8 -15.8,-17.8 -3.8,-14.8 -10.9,-33.6 -12.9,-51.1 -4.5,-27.8 -6.8,-48.1 -3,-48.1 z m -129.2,11.2 c 9.5,22.1 10.2,22.1 4.3,23.8 -6.3,1.9 -6.7,1.2 -14.1,-13.8 -5.4,-11 -6.5,-12.4 -1.9,-16.3 6.8,-8.2 8.7,-0.4 11.7,6.3 z m -132.1,-5.3 c -1.1,0 -4.3,2.4 -7.4,3.7 -7.8,3.1 -21.7,3.3 -30.2,0.8 -15,-6 -10.8,1.8 2.5,6.6 10.3,3.5 30.7,0.8 33.9,-5.6 1.9,-2.1 2.6,-5.5 1.2,-5.5 z m 114.2,11.7 c 8.5,13.1 11,18.3 9.6,19.3 -1.4,1.4 -8.1,3.9 -10.8,2.5 -3.5,-1.7 -6.5,-9.8 -8,-16.1 1.1,-3.1 6.6,-8.6 9.2,-5.7 z m -212,5.5 c 3.8,0 13.6,13.2 11.6,15.6 -0.6,1.2 -4.2,0.1 -12.9,-2.3 -2.9,-1.1 -9.4,-1.9 -7.3,-6.1 1.1,-1.9 7.1,-7.2 8.6,-7.2 z m 203,18.1 c -0.8,2.3 -7.2,2.8 -9.9,2.6 -2.3,-4.8 -2.9,-7.2 -3.6,-10.4 0.9,-1.9 5.3,-6.9 7.4,-5.9 1.2,1.2 5.4,11.3 6.1,13.7 l 0,0 z m 176.1,-12.7 c 1.3,0 3.7,2.4 7.2,7.4 6.6,9.4 5.7,8.7 10.4,31.1 5.3,25.4 11.7,43.5 18.2,69.4 0.1,4.3 -1.7,3.2 -6.4,0.3 -7.8,-4.8 -10.4,-10 -12.8,-23.8 -4.2,-22.7 -13.1,-43.8 -16.5,-70.7 -2,-8.9 -2.1,-13.8 -0.1,-13.7 l 0,0 z m -196.9,9 c 4.6,-0.2 4,6.9 2.7,8.1 -3.4,2.9 -12.7,2.1 -14.3,2.2 -3.5,-5.5 8.6,-10.1 11.6,-10.3 z m 220.3,24.2 c 1.4,0.2 5,5.3 11.8,14.9 6.5,9.2 5.1,7.7 9,22.8 5.5,20.9 14.7,36 20.1,55.3 0,2.2 -2.7,1.9 -5.2,0.9 -5,-2.1 -9.4,-5.6 -13.6,-9 -2.9,-3.1 -2.9,-7 -11.3,-36.2 -3.1,-10.5 -3.9,-13.3 -7.7,-29.3 -3.2,-13.4 -4.6,-19.6 -3.1,-19.4 l 0,0 z m -709.9,62.5 c 22.3,41 14,59.1 -33.9,64.8 -3.5,-0.5 -0.2,21 -0.3,30.6 24,-13.7 53,-16.9 79.7,-25.5 -7.3,23.3 -20.1,49.7 -58.8,45.7 -40.5,-31.3 -88.1,-12.5 -120.4,-25.2 -17.6,-6.5 -24.3,-26.1 -24.5,-29.4 21.1,2.1 44.9,6.6 65.3,5.1 -22.3,-17.2 -15.8,-41 -12.6,-51.8 -26.1,-32.9 -4.3,-69.9 33.6,-61.3 3.9,0.9 11.7,4.7 11.7,4.7 36.6,-32.8 79,-2 60.2,42.3 l 0,0 z m 739.9,-19.9 c 1.5,-0.1 4.9,3.8 11.6,13.2 19.9,27.8 37.1,53.7 36.8,55.2 -0.9,4.8 -21.6,-3.6 -26.8,-10.5 -6,-7.8 -22.7,-48.1 -22.7,-54.5 0,-2.1 0.3,-3.3 1.1,-3.4 z M 1063.3,-592 c 10.3,1.5 13.2,2.4 13.1,6.4 0.9,3.4 -25.1,3.9 -28.6,1.3 -2.8,-2 0.8,-6.5 3.6,-7.6 4,-1.1 8,-0.7 11.9,-0.1 z m 716.3,3.6 c -145.2,68.6 -204.6,251 -131.3,390.7 l -10.1,7.3 c -71.9,-147.8 -18.4,-306.1 98.3,-386.1 4.7,-3.4 15.2,-6 20,-9.2 0,0 -47.6,10.9 -63.7,17.2 -3.3,-0.1 -12.9,3.3 -23.2,14.5 -9,8.4 -37.2,47.3 -36.3,48.6 l -75,3 0.1,2.8 73.6,-1.7 c -75.8,124.7 -57.1,243.4 -10.4,326.5 l 1.2,0.8 c 2.7,1.8 9.9,-3.4 24.7,-17.5 6.1,-5.8 13.8,-13 17.1,-16 9.2,-8.4 22.2,-22.9 31.2,-33.4 -50.9,-103.8 -0.7,-240.6 118.5,-302.2 0.2,-3.3 -1.3,-13.3 -1.3,-13.3 0,0 -4.5,-4 -7.2,-3.6 -132.8,58.5 -186,203.8 -132,335.9 l -8.9,9.7 c -67.8,-136.8 5,-307.8 132,-356.2 -0.1,-3.1 -2.8,-7 -6.2,-4.7 -137.1,63.6 -196.8,226.2 -129.7,364.7 l -8.5,7.5 c -76.4,-151.7 4.1,-321.7 130.3,-379.8 3.9,-0.9 -3.2,-5.5 -3.2,-5.5 l 0,0 z m -738.9,1.5 c 0,0 -1,8.1 1.9,10.8 1.3,5.8 -0.8,5.1 -5.7,4 -12.1,-2.9 -2.7,4 7.2,9.5 9.7,5.5 8.4,5.3 -0.1,10.7 -5.7,3.6 -5.1,5 -4.3,7.7 1.1,4.1 1.9,1.4 4.3,-0.8 5,-4.6 8.9,-5.7 13.3,-5.7 6.6,0 7.3,5.3 6.1,9.5 -2.6,8.7 -11.6,8.2 -18.9,6.1 -12,-3.5 -31.6,-24.3 -31.3,-36.6 -0.8,-11 14.2,-15.7 27.5,-15.2 z m 53.9,2.6 c 4.6,1.7 10.5,4 16.9,6.7 8.9,2.8 17.9,7.4 23.7,11.3 17.7,11.8 16.6,35.4 15.3,37.7 l -91.4,86.6 c 0,0 -5.2,-2.5 -10,-5 -15.4,-7.8 -19.1,-12 -10.5,-16.3 4.1,-2.1 5.5,-6.6 6.1,-11.1 0.8,-5.9 0.5,-4.9 4,-7.6 6.2,-4.7 6.5,-6.6 6.5,-14.5 0,-5.2 0.6,-7.6 2.4,-10.8 1.5,-2.6 3.1,-8 4.1,-14.2 0.2,-1 0.2,-3.6 0.4,-4.4 1.1,-4.8 2.6,-6.3 3.6,-7.4 1,-1.1 2.7,-4.8 3.8,-8.1 2.6,-7.2 2.1,-6.1 6.2,-5.3 6,1.2 5.1,4.7 4.5,10.2 -0.3,2.7 -2.1,4.6 -1.5,4 0.8,-0.8 4.5,-2.5 5.3,-2.7 1.9,-0.4 3.8,0.2 4.3,3.2 0.3,1.7 -0.5,4.7 -0.4,7.1 0.1,6.2 0.4,13.5 1.8,18.4 6.8,23.4 5.4,20.2 3.1,0.7 -0.6,-4.7 -1.2,-11.5 -0.5,-17.2 0.5,-4 1.6,-9 3.2,-11.7 4,-7 4.2,-8.4 -4.5,-11.8 -3.2,-1.3 -8.7,-3.5 -9.9,-5.8 -1.4,-2.7 -5.5,-6.4 -10.9,-7.7 -13.1,-3.1 -20.8,-15.8 -18.9,-17.7 1.2,-1.2 6.5,0.4 9.9,0.5 12,0.4 14.5,-0.2 19.8,-4.8 2.8,-2.4 4.1,-4.6 6.3,-4.7 2.5,0 5.6,1.8 7.3,2.4 l 0,0 z m 622.1,14.1 c -122.8,99.3 -144.3,260 -83,384 l -10.6,8.3 c -77,-145.4 -25.3,-302.3 69.3,-388.1 l 24.3,-4.2 z m -708.8,11.8 c 2.2,-0.2 4.5,3 13.2,12.2 5.8,6.2 11.9,11.6 15,13.4 7.2,3.5 5.6,2 -0.4,7.7 -6.1,7 -2.8,12.8 -10.1,9.3 -19.1,-9 -32.5,-35.4 -20.1,-41.8 0.9,-0.4 1.6,-0.7 2.4,-0.8 z m -9.5,27.8 c 0.5,0 1,0 1.5,0.2 2.4,0.6 5.2,5 8.3,8.1 8.5,8.5 12.4,12.3 19.2,15.3 6.7,3 6.9,3.7 2.2,8.9 -1.7,1.9 -2.7,4.2 -3.1,5.4 -0.4,1.2 -0.5,2.9 -1.9,3.2 -7.4,1.4 -32.2,-13.6 -33.1,-23.9 0.6,-9.7 3,-16.9 6.9,-17.2 z m 52.3,2.9 c 4.3,-0.1 6.8,3.7 6.8,9.9 0,4.3 -2.4,6 -7.3,7.9 -10.5,3.9 -17,-3.6 -9.6,-11.9 3,-3.5 7.2,-5.9 10.1,-5.9 z m -6.4,25.2 c 7.9,0 10.2,6.7 4.4,12.5 -5.5,5.4 -16.5,5.4 -16.4,-0.5 0,-4.7 7,-12 12,-12 z m -49.1,8 c 5.4,1.6 18.4,11 24.1,12.1 0.3,3.2 -3.5,4 1.9,10 2.5,2.7 2.7,4.5 0.5,5.7 -6.5,3.5 -29.2,-7.5 -30.7,-18.9 -0.7,-5.6 1.2,-8.7 4.2,-8.9 l 0,0 z m 29.6,13.5 c 7.8,0.3 16.6,0.6 15.7,4.3 -0.7,2.7 -3.5,9.8 -7,8.5 -1.7,-0.6 -3.4,-2.4 -4.6,-3.5 -4.2,-4 -5.3,-9.3 -4.1,-9.3 z m 294.8,32.3 c 22.7,20.6 105.2,235.3 -66.7,391.8 l -36.5,10.9 c 165.1,-129.6 137.6,-313.6 93.1,-393 0,-2.3 -0.6,-2.1 -4.8,1.7 -3.6,3.3 -4,4 -2.5,4.6 50.3,77.5 69.2,296.3 -129.2,401.8 -3.3,3.5 3.4,2.9 3.4,2.9 0.4,-2.8 89.3,-24.5 83,-25 82.9,-73.3 155.1,-248.1 65.2,-400.4 -2.1,-1.4 -5,4.7 -5,4.7 l 0,0 z m -28.6,24.3 -1.2,4.8 c 72,141.3 3.3,314.4 -130.5,378.4 2.2,1.6 4.6,2.7 7.1,3.9 151.8,-81.7 195.5,-254.7 129.3,-388.6 l -4.7,1.5 z m -12.1,10.1 -0.8,5.1 c 59.6,120.2 12.3,287.1 -129.9,354.8 -1.3,7.3 0,5.2 6.7,4.8 164.5,-88.2 180,-256 128.5,-365 l -4.5,0.3 z m -10.2,14.4 c -4.6,6.1 -13.2,9.3 -16,17.2 47.8,126.3 -14,247.9 -118.5,299.2 -0.1,6.4 -4.6,22.1 6.4,19.6 129.2,-58.5 185.4,-214.1 128.9,-336.5 0,-0.1 -0.7,0.5 -0.8,0.5 z m 649,244.2 c 4.8,0.3 9,1.8 13.4,2.4 16,2.1 26.5,13.8 19.3,20.9 -2.4,2.3 -5.6,1 -16.1,-4.1 -4.8,-2.3 -5.6,-4.5 -6.5,-9.8 -1.2,-6.3 -2.5,-7 -4.1,-2.1 -1.6,5 -3.4,8 -8.9,6.8 -15.3,-3.6 -9.5,-14.2 2.9,-14.1 l 0,0 z M 1746,-48.1 c -38.5,-21.9 -86.1,-61.3 -113.3,-106.1 -13.5,25.4 -29.4,71.6 -29.4,71.6 l -60.5,-16.9 -0.7,1.3 59.8,17.2 -5.8,19.9 c -0.6,2.2 -9.9,24.9 -9.9,24.9 l 93.4,43.6 c -5.8,9.1 -12.1,14.9 -20.1,23.4 -4.5,4.8 -4.7,10.9 -4.7,10.9 l 129.5,-123.5 c 0,0 16.7,24.8 22.9,30.4 5.8,5.3 7.6,6.5 0.8,8.1 -30.4,4.5 -54,27.5 -45.8,58.4 1.3,3.4 4,2.2 9.8,-1.5 20.2,-18.3 69.6,-35.2 71.2,-30.9 l 0.2,19.7 c -53.1,0.8 -47.7,39.8 -43.8,60.8 0,0.5 -15.4,13.9 -15.4,13.9 5.4,2.8 10.8,5.8 15.8,9.3 -4.7,26.1 17.5,63.8 61.2,44.5 3.8,3.9 7.3,7.8 11.5,12.6 4.5,-5.2 9.6,-17.3 9.6,-17.3 21.7,9.8 66.6,-12.1 43.6,-62.4 l 12.7,-12.1 -12.2,-7.7 c -0.3,-12.8 -2.3,-24.2 -9.9,-35.3 0,0 20.5,5.2 35.6,6.1 l 0,0 c 9.3,0.8 17.2,1.1 16.4,-4.6 -0.2,-1.7 -1.6,-9.8 -2.5,-12.5 -4.5,-13.2 -27.9,-22.8 -50.7,-24.1 -3.7,-0.2 -7.7,-0.1 -8.5,-1.1 -1.5,-1.8 1.2,-4.4 3.6,-3.9 12.5,2.2 24.4,-7 26.6,-18.7 0.4,-2.1 3,-5.8 6.6,-9.8 6.5,-7.1 7,-6.9 6.9,-17.2 -0.1,-7.1 1.2,-8.7 4.4,-13.5 4.2,-6.8 6.2,-15.7 4.1,-24.9 -0.7,-2.9 -3.4,-7 -1.1,-14.3 3.8,-11.8 -4.6,-22.6 -15.6,-28.7 -0.9,-0.3 -0.6,0.6 -1.3,1.5 -10,3.1 -22.1,-4 -22.1,-4 -2.5,-1.2 8.5,-65.2 31.3,-59.5 3.8,2.3 5.4,13.4 5.1,13.6 1.1,0 1.6,-6.5 0.1,-10.9 -1.5,-4.6 -5.1,-8.9 -11.9,-7.6 -5.3,1 -11.4,8 -14.1,11.5 -10.7,13.6 -10.8,22.2 -14.3,36.7 -1.7,6.8 -1.9,6.4 -11.3,-1 -6.8,-5.3 -10.1,-7 -7.7,-10.1 1.1,-1.4 5.5,-5.8 5.5,-5.8 l 82.6,-79.5 0,795.6 -466.9,0 3.3,-102.3 c 8.8,-71.9 -6.7,-222.9 -18.3,-237.1 9,-10.1 36.9,-34.5 35.4,-35.6 l -3.7,-2.2 -14.8,13.6 -36.4,-11 c -15.5,-10.7 -31.4,-20.7 -47.9,-24.9 -26.9,-6.9 -78.6,15.1 -78.7,15.3 -82.7,6.1 -148.9,39.7 -148,39.4 -3.6,-3.3 -8.4,-13.9 -8.5,-13.8 -42.6,-59.3 -84.5,-92.5 -141.8,-133.1 l 72.5,-40.1 -172,-179.3 -1.5,-145.8 248.9,-238 c 1.5,-4.1 79.4,55.1 108.4,103.2 5.6,-23.5 15.9,-44.9 24.6,-68 0.9,-2.1 49.5,18 63.9,18.8 2.2,0.1 3.9,-2.1 3.9,-2.1 l -64.2,-20.9 13.1,-37.6 c 0,0 4.6,-10.2 -0.6,-11.9 -29.3,-9.5 -56.7,-26.1 -84.7,-40.3 0,0 13.1,-14.5 13.3,-15.2 0.2,-0.6 5.5,-8.4 4.2,-11.1 -14.2,13.8 -130.4,121.5 -130.4,121.5 -3.3,-18.5 -8.5,-24.9 -19.8,-36.4 6.2,-0.3 15.8,-6.4 21.3,-10.4 17,-12.4 26.3,-34.5 24.1,-47.4 -16.3,5.2 -31.1,11.3 -51.6,15 -11.5,2.1 -22.4,7.3 -29,12.9 l -1,-20.6 c 0,0.2 27.5,4.8 40.3,-13.6 11,-15.9 6.5,-34.1 4,-43.4 0.3,-2.1 -0.3,-1.8 4.4,-6.2 3.5,-3.2 8.9,-7.4 8.9,-7.4 0.2,-1.2 -14.2,-6.5 -16.6,-11.4 3.8,-38.2 -26.7,-53 -52.6,-46.2 -4.8,1.5 -7.1,2.4 -12.9,-4 -0.9,-1 -7.8,-8.2 -7.8,-8.2 0,0 -3,7 -4.6,10.1 -5.1,10 -6.5,7 -17.4,7.5 -27.7,1.4 -40,23.7 -33.7,51.2 1.5,6.4 0.8,5.4 -3.4,13.6 -2.2,4.2 -5.7,9.5 -5.7,9.5 0,0 5.1,2.8 8.5,4.3 5.1,2.3 5.3,4.9 5.3,10 0.7,11.1 3.2,18.6 9.6,28.2 -21.7,0.5 -38.3,-1.5 -58,-8 3,30.2 25.3,41.4 52.5,45.9 0,0 -2.9,2.7 -5.9,3.9 -6.4,1.8 -10.4,7.5 -10.3,12.5 -0.9,4.8 -4,9.6 -6.9,12.2 -4.2,3.7 -7.7,8.9 -6.1,18.9 -0.4,7.3 -2.2,9.4 -4.3,12.1 -4.3,5.6 -5.7,11.1 -4.7,18.4 0.5,3.4 1.5,10.7 0.8,18.2 -1.2,12.6 3.3,17.3 9,26.1 3.7,5.7 2.9,5.9 2.1,10 -2.1,10 -4.2,15.1 -6.4,22.7 -5,17 -5.2,29.8 -1.1,33.2 6.1,5 13,3.5 16.3,2.5 24.1,-7.4 19.9,-31.1 21.2,-47 0.7,-4.1 2.1,-6.1 3.4,-5.9 6.8,8 14,12.6 23.3,17.6 -32.1,32.7 -53.1,52.7 -93.7,88.3 l 1.1,-795.9 463,0 c 0,0 0.5,5.9 -0.6,34.7 -2,58.5 -4.5,119.8 -0.6,179.5 0.6,20.6 0.2,41 3.2,61.5 2.9,19.9 4.2,41.4 13.5,59.9 3.7,10 3.9,9.3 -10.4,22.4 -7,6.5 -12.9,13.3 -12.7,14.5 0.1,0.4 -0.3,1.9 0.8,1.1 0.7,-0.6 5.9,-5.7 6.4,-6.4 3.9,-4.5 10.3,1.3 32.3,7.5 4.3,1.2 10.4,5.3 15.1,8.7 32.9,27.7 79.2,19.1 113.9,4 9.8,-4.3 12.2,-4.7 28,-6.6 58.5,-6.9 121,-32.5 120.8,-32.4 l 7.6,12.5 c 0,0 2.9,-0.5 4.9,2.6 33.6,63.5 143.5,136.1 141.5,132.8 l -71.8,39.7 c 52.3,64.6 171.8,174.1 171.8,174.1 l -2.8,157.5 c -32.1,25.7 -60.3,55.1 -88.5,83.8 -8.1,8 -13.8,12.6 -10.8,12.8 7.3,-1.1 13.6,6.1 19.6,11.1 3.8,4.2 2.9,3.8 -1.5,9.6 -3.1,4 -4.2,5.2 -4.2,8.1 0.1,5.6 0.1,9.4 -5,13.7 -3.1,3.9 -4.9,6.4 -5.5,11.1 -0.6,4.6 -0.5,7.6 -3.7,11.7 -5.4,1.1 -5.9,9 -5,12.5 5.7,5.6 3.1,11.7 3.6,10.4 -10.8,11.7 -22.2,21.9 -14.9,5.5 3.3,-6.1 4.4,-11.2 4.4,-11.2 0,0 -5.2,5.4 -7.9,7.9 -4.2,3.9 -5.7,1.6 -5.8,-10.4 -0.5,-9.1 -4.4,-21.7 -5.9,-24.1 -0.8,-1.4 -1,1 -0.6,9.7 0.5,11.5 1.9,14.8 -2.2,26.3 -5.5,15.5 -9.3,17.7 -0.5,17.1 8.4,-0.5 15.5,-0.6 19.2,4.4 1.2,1.7 2.8,4.6 6.2,6.3 6.9,3.8 12.4,8 16.3,12.1 12.4,13.5 8.9,25.6 -15.2,17.4 -12.7,-4.3 -4.4,-9.7 9.2,-8.5 8.4,0.8 9.8,-2.3 2.5,-4.5 -13.5,-2.5 -15.6,-4 -24.5,6.5 -37.2,-3.7 -58.2,-24.5 -68.2,-41.5 -4.2,-7.1 -5.5,-8.5 -2.6,-12.5 1.2,-1.6 0.5,-1.1 -1.5,1.1 -2,2.2 -7.4,4 -9.2,5.6 -11.6,12.4 -24.3,25.8 -35.6,36 l 0,0 z m 162.1,-87.5 c 6.3,0.8 6.2,6.1 0.6,11.2 -5.3,4 -8.9,4.8 -11.9,1.8 -5.3,-5.3 1.5,-13 11.3,-13 z m 18.4,3.7 c 5.1,0 11.6,2.3 19.3,8.7 9.2,7.7 11.3,26.2 2.9,29.4 -3.5,1.3 -4.1,0 -11.7,-7.2 -5.1,-4.8 -10.6,-9.2 -16.1,-11.8 -11.1,-5.3 -12.5,-7.3 -5,-10.9 1.6,-0.8 3.6,-2.7 4.6,-4.2 2,-3 2.6,-4 6,-4 l 0,0 z m -12,24.7 c 1.5,0 3.4,0.9 6.5,2.6 18.7,10.2 27.9,26.3 21.5,35.3 -4.2,5.9 -10.9,3.7 -16.1,-4.7 -2.9,-4.7 -10.6,-10.8 -19.4,-15.2 -10,-5.1 -10.2,-5.8 -3,-9.3 3,-1.4 5.2,-3.4 6.7,-6 1.8,-3 1.9,-2.8 3.8,-2.7 z m 6,38.2 c 14.1,14.1 12.5,21.7 3.3,27.5 -6.3,3.9 -16.3,4.9 -19.6,1.7 -5.3,-4.7 -5.2,-10 0.7,-11.7 5.5,-1.2 3.4,-3.4 -1.7,-4.7 -18.3,-5.2 -29.6,-14.9 -9.7,-12.8 5.7,0.6 11.3,-3.8 14.3,-7.4 4.3,-5.3 10.2,4.9 12.7,7.4 l 0,0 z m -964.8,5.4 412.9,591.1 -333.8,-0.7 c 0,0 -1.3,-4.3 1.5,-39.8 4,-48.1 -2.2,-89.8 -13.5,-136.7 1.4,-0.2 -16,-57 -29.5,-84.7 -2.5,-5.8 -2.1,-6.4 5.9,-7.4 23.6,-3.8 49.1,-9.5 72.7,-19.5 11,-1 27.1,3.3 26.2,2 -0.4,-0.6 -14.3,-13.4 -14.3,-13.4 -38.5,15.4 -74.1,21 -107.6,24.9 44.4,75.6 60.3,178.6 47,271.1 l -64,-0.2 L 959,68 955.7,-63.6 Z m 73.8,87.6 c 5.8,-0.2 20.4,10 22.1,17.7 0.4,1.6 4.1,11.1 8.4,19.9 0.1,1.6 14.4,27.5 8.1,25.2 -12.5,-17 -34.9,-46 -40.5,-60.1 0.1,-1.8 0.3,-2.6 1.9,-2.7 l 0,0 z m 44.6,25.8 c 0.8,4.3 5.1,15.4 8.5,22.8 8.9,19.2 22.7,49.3 19.9,57.8 -1.9,5.8 0.1,5.5 -5,-1.7 -2.5,-3.5 -10.2,-14.2 -12,-16.7 -4.5,-6.1 -1.5,-0.5 -4.1,-10.4 -6.1,-27.9 -16.1,-42.6 -22.5,-58.8 -2.2,-7.6 12.3,4 15.2,7 l 0,0 z m 8,4.3 c 1.2,0.8 17.6,12.3 19.2,14 5.8,20.6 29,86.7 23,98.5 -2.1,-1.6 -10.9,-12.3 -12.2,-17.8 -2.7,-31.6 -12.7,-54.3 -23.5,-77.9 -3,-7 -5.3,-14.1 -6.5,-16.8 z m 30.8,23.2 c 5.2,2.5 10.5,8.3 13.6,13.5 2,3.5 3.1,7.6 5,16.3 5.9,27 17.2,54.3 12.2,83.1 -3.2,4.3 -10.1,-5.5 -11.1,-15.1 -3.3,-31.9 -6.1,-47.1 -17.3,-84.6 -2.2,-7.3 -3.9,-12.9 -2.4,-13.2 l 0,0 z m 26.2,24.7 c 1.1,0 3.4,2.1 7.2,5.7 7.4,6.9 8.4,9.5 8.4,20.9 0.2,16.8 5.8,36.1 6.7,53.1 0.5,9.8 2.3,35.2 0.8,36.7 -2.1,3 -11.6,-7.8 -10.9,-24.3 1.2,-19.8 0.2,-34.7 -8.2,-69 -3.9,-15.8 -5.9,-22.6 -4.2,-23 0.1,-0.1 0.2,-0.1 0.2,-0.1 l 0,0 z M 1901.5,1.9 c 29.5,18.9 19.1,53.9 12.8,58.2 40.7,51.5 -22.6,77.8 -42.7,59.3 -29.7,29.6 -80.8,4.8 -61.1,-43.9 0,0 -37.4,-71.4 36.3,-66.6 0,0 1.3,-28.8 -0.8,-30.2 -26.3,-1.8 -62.1,23.6 -72.2,30.6 -5.6,3.4 -6.8,1.8 -6.8,1.8 -1.4,-15 -1.4,-21.8 4.6,-30.2 10.6,-14.6 28.2,-19.5 51.2,-24.5 28.5,8.8 55.7,22.6 82.1,20.4 14.6,0.1 29.4,2.4 43.5,10 9.5,4.5 14.5,21.3 14.5,21.3 -14.9,7.9 -61.4,-6.2 -61.4,-6.2 l 0,0 z m -14.1,-105.8 c 0.1,-5.1 5.9,-10.8 11.6,-10.1 7.8,0.6 8.8,9.8 1.9,13.2 -2,1.6 -8.5,-0.8 -8.8,1 0.5,3.1 -2.7,1.8 -3.3,0.7 -1.1,-1.3 -1.4,-3.3 -1.4,-4.8 l 0,0 z m -4.7,20.2 c 2.9,-2 5.3,-2.2 8.1,-2.6 4.4,-0.5 10.1,0.1 11.4,4.8 1.2,4.6 -7.5,7.2 -14.6,7.4 -3.6,0.1 -7.8,0.8 -8.8,-1.8 -1,-2.4 2.5,-6.8 3.9,-7.8 l 0,0 z M 989.8,-409.2 c 5.7,-19.8 2.1,-30.9 11.6,-55.2 l 23.1,7.7 c 0,0 1,23.9 -3.7,37.2 -4.7,13.3 -20,23.9 -31,10.3 l 0,0 z m 172,535.1 c 2.7,0.3 9.4,9.9 12.4,18.6 2.8,8.1 1.9,18.3 3.9,27 4.5,29.8 4.3,59.7 3.1,68.7 -0.6,4.5 -3.5,2.7 -7.5,-1.6 -5.8,-6.2 -5,-6.4 -4.9,-23.7 0.1,-14.8 -3.2,-51.5 -4.8,-59 -2.8,-13.8 -4,-26.9 -3.3,-29.2 0.2,-0.6 0.6,-0.9 1.1,-0.8 l 0,0 z m 270.1,3.5 c 29.7,4.7 53.5,25 67.1,58.5 13.2,34 16.4,80.4 18.4,123 -0.1,10.2 -4.3,7.6 -15.4,1.3 -12,-5.9 -14.6,-4.2 -32.2,-0.2 -11,2.5 -10,-4.9 8.1,-17.3 6.1,-4 13.3,-9.4 10.9,-10.2 -1.2,-0.4 -6.7,1.1 -10.7,4.3 -17.7,14.3 -22.5,17.8 -17.4,3.9 1.3,-3.5 5.4,-13.3 7.1,-17.9 6.4,-17.5 -1,-24.9 -22.7,-36 -5.4,-2.8 -9,-7.4 -3.6,2.3 4.4,7.9 -4.7,14.3 -16.1,5 -7.9,-6.4 -23.8,-2.1 -28.9,5.9 -5,7.8 -2.3,22.3 7.5,27 8.6,3.7 11.9,1 3.5,-4.7 -10.7,-7.4 -8.6,-20 3.4,-20 3,0 8.2,3.3 21.5,10.6 9.5,5.1 16.3,3 16.3,-4.7 0,-5.1 2.9,-4.7 9.2,-1.6 8.4,4.2 7.5,7.9 3.1,19.6 -3,8.1 -4.5,17.4 -7.3,25.9 -7.1,28.6 -8,61 -0.2,71.1 20.9,26.9 43.1,24 62,6.3 l -0.8,29.4 c -19.4,15.5 -42,26.1 -76.9,83.7 -12.2,-15.3 -64.4,-77.8 -148.2,-91.9 l -18.9,-25.8 c 0.3,-1.6 -14.1,-95.9 -23.5,-128 0,0 10.4,-15.7 19.8,-27.3 37.8,-46.7 101.4,-99.7 164.9,-92.2 l 0,0 z m -109.3,26.8 c -3.2,1 -4.3,-5.4 -2.5,-6.6 3.9,-0.3 5.2,-0.2 9.1,0.1 3,0.1 2.9,3.5 -6.6,6.5 l 0,0 z m -141.3,-4.8 c 4.2,3 9.3,11 14.3,18.3 2.8,4 1.2,10.8 1.6,17.4 0.6,9.4 1.7,24.9 2.3,34.4 1.3,18.5 -0.4,34.1 -3.2,39.7 -2.8,6.7 -8.4,2.1 -9.8,-7.1 -0.3,-2.2 1.5,-24.9 1.5,-37.4 0,-21.6 -5.5,-48.1 -6.7,-65.3 l 0,0 z m 126.8,-0.1 c 1.5,-0.1 2.6,0 3.6,1.2 4.5,5.8 6.3,9.3 2.2,12.4 -5.4,4.5 -10.4,3.4 -13.4,-5.2 -2,-6.2 2.6,-8.1 7.6,-8.4 l 0,0 z m -16.8,5.1 c 4.9,3.3 9.7,11.8 10.2,18 -0.3,1.7 -1.8,3.1 -5.1,5.8 -3.2,3 -4.3,2.8 -7.9,-2.9 -5.7,-8.9 -8.3,-14.7 -7.2,-17.7 2.9,-3 6.5,-4.2 10,-3.2 z m 198,1.1 c 8.1,0.7 16.1,4.4 24,6.3 l -12.1,11.7 c -3.5,-6.1 -7.6,-12.1 -11.9,-18 z m -216,6 c 4.5,5.8 12.2,21 11.8,26.6 -1.1,1.9 -2.9,3.6 -4.8,4.7 -1.5,0.4 -2.8,-2.2 -7.8,-11.1 -8.7,-15.4 -11.3,-19.8 -6.8,-21.7 2.4,-0.2 6,-0.1 7.6,1.5 z m -17.7,3.6 c 4.9,4.3 16.5,27.3 16.8,33.8 -0.1,1.8 -0.7,3.4 -1.8,4.6 -7.3,7.9 -5.5,6.6 -16.4,-15.8 -9.2,-18.5 -11.6,-20.3 -5.6,-22.4 1.6,-0.4 4.9,-1 7,-0.2 z m -17.5,6 c 3.2,0 4.1,5.3 10.3,17.5 10.4,23 14.4,26.2 12,28.7 -2.9,3.7 -4.6,6.3 -7.4,1.8 -6.3,-10.2 -12.5,-23.3 -18.4,-34.8 -4.7,-8.6 -5.1,-9.6 -2.1,-11.7 1.8,-1.1 4.4,-1.4 5.6,-1.5 z m 186.3,6.6 c -3.9,1.1 -19.7,6.1 -10,7 2,0.2 6.9,-1.1 10.4,-1.3 9.8,-0.7 30.1,1.2 29.3,-0.7 -1.9,-7 -24.4,-6.4 -29.7,-5 z m -199.9,2.1 c 0,0.4 2.5,4.9 5.1,9.3 14.8,28.7 23.1,39.1 20.4,43.6 -2.2,2.7 -5.5,6.2 -7.5,5.4 -3.2,-1.3 -7.4,-10.7 -18.1,-31.9 -11,-21.9 -12.1,-23.6 -6.5,-26.4 2.4,-1.1 5.2,-1.9 6.6,0 l 0,0 z m -14.8,10.2 c 6.8,11.1 5.9,9.6 5.8,45.7 0,22.4 -2.9,36.8 -6.7,42.3 -2,2.9 -5.4,1.2 -7.2,-4.5 -0.8,-2.6 1.5,-6.4 1.9,-10.5 2.7,-27 0.8,-54 0.9,-79.6 2.1,-0.2 4.2,4.7 5.3,6.6 l 0,0 z m 175.8,8.8 c 3.2,4.5 2.4,8.2 2.4,14.3 0,8.6 0.6,9.3 6.5,4.9 5.3,-3.9 5.7,-4.1 15.1,2.3 5.6,3.8 12.6,4.2 17.2,0 3.2,-2.9 4.3,-1.6 8.6,-0.5 4.7,2.6 6,3 16.1,-1.9 6.8,-3 7.1,-3.4 11.1,-1.3 7.1,6.3 8.1,4 7.2,-4.2 0,-2.9 0.8,-8.2 1.7,-11.7 3.5,-14.6 -2.2,-14.7 -9.8,-5.4 -2.9,3.6 -9.5,5.1 -15.6,2.3 -8.8,-4.1 -22.6,-2.5 -32.8,-0.8 -12.1,2 -17.6,-1.3 -22.5,-5.4 -2.7,-2.3 -9,-4.4 -9.7,-2.6 -0.7,1.7 0.7,4.6 4.5,10 l 0,0 z m -161.7,20.4 c 1.5,-0.3 3.8,4.1 7.2,13.6 4.4,12.2 -3.3,54.8 -7.9,61.7 -2.4,3.7 -4,5.9 -9,-0.9 -2,-3 -0.4,-3.9 1.5,-12.3 3,-12.7 5.5,-33.3 5.7,-42.9 0.1,-12.3 0.7,-18.8 2.5,-19.2 l 0,0 z m 15.3,41.3 c 1.1,0.1 2.4,2.5 4.1,7.4 2.5,6.7 1.3,19.5 -2,29.3 -1.9,5.7 -3.7,11.8 -6.8,16.9 -1.1,2.9 -6.7,1.9 -8.2,-4.5 -1,-4 2.4,-9 4,-15.4 1.6,-6.4 3.5,-14.6 4.4,-18.7 1.7,-10.2 2.9,-15.2 4.5,-15 z m 119,18.8 c -0.1,0 -0.3,0 -0.3,0 0,0 -0.1,0.1 -0.1,0.1 -0.3,0.3 11.6,13.2 14.8,16.8 1.7,1.4 15.9,18.8 7.1,14.8 -22.4,-9.3 -48.6,-4.7 -64.8,10.8 -2,2 -3.7,0 -9.8,-0.5 -12.5,-0.9 -17.1,4 -9.5,10.2 1.2,0.9 3.6,1.4 4.7,2.9 1,1.4 0.7,3.9 1.2,4.6 24.3,32.2 69.2,38.5 97.4,17.4 3.5,-2.6 5.5,-3.6 8.8,-2.6 6.6,2 7.1,-3.5 1.3,-11.2 -2.5,-3.3 -5.6,-7.2 -3.8,-8.3 3.6,-3.1 5.4,-8.1 -0.9,-10 -4.3,-1.3 -9.1,-6.1 -11.5,-12.7 -2.8,-7.8 -30.4,-31.7 -34.6,-32.3 l 0,0 z M 1248,295.4 c 5.3,-0.1 5.5,31 -0.3,40.5 -3,3.6 -9.8,-3.1 -8.8,-9.9 0.8,-5.2 6.4,-28.6 7.7,-29.8 0.5,-0.6 1,-0.8 1.4,-0.8 l 0,0 z m 107.5,19.4 c 4.4,0 10.5,1.9 15.3,6.3 2.6,2.4 7.2,12.5 5.3,16.5 -0.5,2 -6,1.9 -6.5,0.4 -3,-20.6 -19.7,-23.5 -25,-4.3 0,0 -3.4,2.9 -3.9,-2.7 1.2,-10.9 6.4,-16.1 14.8,-16.2 l 0,0 z m 134.2,1.8 c 5.3,-0.1 10.3,2.6 12.9,8.2 1.8,3.9 2,7.3 1.3,9 -0.5,1.3 -2.3,0.7 -2.3,0.7 -8.5,-23.2 -20,-12.5 -24.1,0.4 0,0 -4.4,1.3 -4.9,0 -0.5,-1.4 -0.2,-4 1.5,-7.6 3.3,-6.9 9.6,-10.6 15.6,-10.7 l 0,0 z m -113.2,1.4 c 3,-0.2 8.1,2.3 12,6.1 3.9,3.9 4.3,6.3 1.1,9.2 -1.9,1.8 -8.6,3.5 -9.9,0.4 l -5.7,-13.2 c -0.5,-1.2 1.2,-2.4 2.5,-2.5 z m -40.7,0.7 c 3.4,0 4.1,0.8 -1.2,13 -1.1,2.6 -14.6,-1.2 -12.1,-6.2 3.9,-4.1 9.9,-6.8 13.3,-6.8 z m 135.3,0.9 c 1.3,-0.1 2.4,0.1 2.9,0.8 -1.2,0.4 -6.3,13.3 -6.3,13.3 -4.8,-0.6 -10.6,0.1 -11.6,-3.8 -1,-3.7 1,-6 7.8,-8.6 1.9,-0.7 4.9,-1.6 7.2,-1.7 z m 39.5,3.4 c 5.1,1.9 6.3,6.2 5.7,8.4 -0.5,1.7 -2.9,1.7 -4.6,0.4 -1.6,-1.9 -4,-5.1 -3.8,-7.3 0.4,-2.1 1.1,-2.2 2.7,-1.5 z m -254.8,11.9 c 1.6,3 4.4,19.7 1.1,19.3 -3.2,-0.8 -4.7,-5.9 -5.3,-10.4 -0.1,-1 2.8,-8.8 4.2,-8.9 l 0,0 z m 56.3,8.9 c 1.5,-0.2 5.2,1.1 10.8,4.3 18.3,8.9 37.1,10.1 57.1,5.7 11.5,-3 14.5,-4.7 16.1,-2.8 2.8,3.4 -1.6,6.7 -17.9,12.2 -17.8,6 -36.3,5 -60.7,-12.2 -6.5,-4.6 -7.3,-6.9 -5.4,-7.2 l 0,0 z m 203.5,4.7 c 3,5.6 -7.3,11 -12.5,12.5 -11.1,3.2 -27.8,1.7 -37.3,-4 -0.8,-0.5 -1.6,-1 -2.3,-1.5 -7.7,-5.7 -4.5,-9.8 4.1,-5.4 9.2,4.8 28,5.6 37.9,0.8 5,-2.5 8.5,-5.5 10.1,-2.4 z M 1287.9,359 c -1,0.2 0.7,2.8 4.3,6.7 25.1,28.2 84.9,43.4 118.6,14.4 10.5,-9.9 8.9,-14.3 -7.7,-6.4 -18.4,6 -44.5,6.8 -67.1,3.5 -11.1,-1.5 -29.2,-5.8 -38.4,-12.5 -5.8,-4.3 -8.8,-5.9 -9.7,-5.7 l 0,0 z m 173,0.8 c 1.5,0.1 4.2,0.7 10,3.7 8.5,4.4 27.8,2.9 34.1,0.6 13.3,-4.9 16,1.3 3.4,8.3 -14.1,8.5 -33.5,5.2 -44.8,-5.8 -3.5,-3.1 -5.4,-7.1 -3.9,-7.4 0.3,0 0.9,0.6 1.2,0.6 l 0,0 z m -166.4,49.8 c 49.4,4.5 124,53.5 153,112.4 l -16.7,0 c -29.2,-46.3 -74.1,-83.6 -127.5,-97.6 -2,-1.6 -9.9,-12.7 -8.8,-14.8 l 0,0 z m 219.3,10.8 -2.3,16.3 c -8.3,6.8 -38.6,31.9 -61.1,71.3 -4.7,-0.2 -7,-5.9 -6.2,-9.7 18,-35.6 39.6,-55.2 69.6,-77.9 l 0,0 z m -199.6,12.7 c 11.3,-0.8 85.1,38.8 109.9,88.9 l -13.6,0 c -27.9,-36.4 -59,-60.1 -86.5,-69.6 -6.8,-7.1 -14.1,-19 -9.8,-19.3 z m 197.3,11.4 -0.1,22 c -17.6,17.2 -30.5,34.5 -40.6,55.6 l -13.7,0 c 0,0 -3,-6 -2,-9.8 15.6,-28.1 30.5,-48.5 56.4,-67.8 z m -112,77.5 -13.3,0 c -11.2,-15.8 -27.8,-31 -43.1,-40.1 -6.3,-7.7 -13.3,-17.3 -10.4,-18.9 0.2,-5.7 58.9,34 66.8,59 l 0,0 z m 112.3,-44.7 -0.3,12.7 c -9,11.5 -16.5,21.1 -23.7,32 l -11.3,0 c 10.4,-22.2 36.2,-50.7 35.3,-44.7 l 0,0 z m -152.1,24.6 c 4.1,1.1 19,15.3 18.5,20.1 l -6.7,-0.2 c -3.8,-4.8 -8.2,-9.7 -10.9,-14.6 -1.7,-3.1 -2.7,-5.9 -0.9,-5.3 z m 149.5,3.9 c 0.1,0 0.1,0 0,0 0.1,0 0,16.2 0,16.2 l -11.3,0 c -1.3,-0.2 5.4,-12.2 11.3,-16.2 l 0,0 z"
               id="path3084" /><path
               d="m 1745.2,-1147.9 c -55.6,0 -111.8,0.3 -174.3,1 l 422.1,598.9 0.3,-133.1 -135.5,-174.8 c 30.8,-9.5 68.5,-16.1 98.1,-18.7 -38.1,-84.4 -57.1,-163.7 -40.3,-272.3 -59.9,-0.7 -114.9,-1 -170.4,-1 z m 163.4,3.8 c -3.3,38.4 -7.6,81.1 -0.7,128.6 -22,-8 -27.1,5.7 -30.8,7.1 -4.1,-9.2 -19.4,-25.2 -36.8,-6.4 -9,9.7 -4.6,28.1 16.3,36.3 -24,1.8 -36.4,-18.6 -40.6,-39.8 -13,-8.3 -26.6,-16.5 -27.9,-45.5 l 6.6,1.1 c -2.2,20.3 18.9,30.6 31.2,20.9 8,-6.1 8.8,-15.5 5.7,-30.2 6.4,-1.3 21.4,-7.6 17.4,-26.9 -5.5,-26.6 -32.8,-23.5 -45.3,-6 -10.4,-12.8 -29.4,-15.2 -37,4.7 -4.3,11.1 5.4,23.6 16.4,26 -24.4,4.7 -36.8,-29 -38.1,-51.8 l -10.1,-18 c 66.2,-0.2 95.1,-0.1 173.7,-0.1 z m -330.9,0.6 49,0 357.8,463.1 0.8,115.3 -407.6,-578.4 z m 124,0.1 7.8,0.1 c 6.1,40.8 29.6,70.3 69.7,84.6 2.1,33.3 18.1,78.5 79.1,93.8 -1.8,37.6 22.4,73.5 48.2,90.8 0,0 -7,1.7 -12.4,2.2 -34.8,-27.6 -43.3,-68.2 -46.8,-84.9 -1.2,-2.4 -4.5,-3 -7.1,-3.6 -29.8,-10.5 -54.8,-34.9 -65,-64.8 l -6.4,-29.3 c 0,-3.8 -0.7,-2 -9.6,-5.3 -23,-8.4 -44.2,-33.3 -53.7,-62.9 -5.2,-15.5 -3.8,-20.7 -3.8,-20.7 l 0,0 z m -31.5,0.1 27.5,0 c 0,0 0.2,4.8 0.6,8 3.7,29.2 29.9,65.8 56.7,78 3.8,1.7 9,4.1 10.3,5.3 7.5,47.9 29.2,76.7 75,96.4 0.7,0.8 2.8,1.2 3.4,2.2 6.2,29.6 19.9,63.9 45.8,82.8 l -11.2,1.2 -208.1,-273.9 z m 134.1,50.2 c 6.2,0 11.3,5 11.3,11.3 0,6.3 -5,11.2 -11.3,11.2 -6.2,0 -11.3,-5 -11.3,-11.2 0,-6.2 5.1,-11.3 11.3,-11.3 z m -379.1,61.4 c 0.6,1.6 -153.6,132.1 -138.6,377.7 l -4.5,5 1.2,1.8 c -5.1,5.8 -10,10.4 -15.6,16.1 32,20.4 87.8,42.6 87.9,42.1 l -10.7,24.7 66.7,21.5 -8.9,23.5 c 0,0 -46.4,-15.4 -65.6,-21.8 -9.5,21 -15.2,43.2 -22.1,65.1 -0.7,1.8 -2.2,0.9 -4.5,-2.5 -34.6,-59 -105.7,-101.7 -103.3,-97.4 L 955,-336.8 953.3,-188.9 1127.8,-9 c 0,0 -50.5,24.9 -74.4,41.2 18.6,15.2 39.6,26.8 58.1,41.2 38.2,27 64,66.6 88.8,93.4 116.8,-57.9 234.5,-54.7 336.1,-19.5 -11.8,12.5 -25,23.2 -37.3,36.7 29.5,77.5 20.1,231.4 18.6,235.6 61.5,-62.8 153,-197.5 140.7,-387.1 l 25.9,-25.9 c -0.5,-1.3 -64.7,-35.7 -91.5,-43.2 l 7.4,-23.6 -64.1,-20 7.2,-18.7 63.9,18.5 c 12.1,-29.7 24.9,-71.3 24.9,-71.3 25.5,38.2 53.6,72.9 111.5,108.2 l 250.7,-239.9 -1.6,-154.2 -170.7,-170.7 71.1,-37 c -6.8,-5.5 -16.7,-10.7 -23.8,-16.3 -0.5,-0.4 1.4,-1.6 0.9,-2 -1.8,-1.4 -3.1,-2.5 -4.9,-3.8 -0.4,-0.3 -1.7,1.6 -2.1,1.3 -24.1,-16.9 -48.2,-33.5 -67.2,-53.8 -0.5,-0.5 0.2,-2.6 -0.3,-3.1 -9.9,-10.5 -19.7,-20.3 -29.7,-30.7 -4.7,-4.7 -12.3,-15.8 -12.3,-15.8 l -0.4,-3.7 -10.8,-13.6 c -34.7,20.5 -182.7,71.9 -326,15 l 27.2,-27.2 c -7.2,-17.5 -11.9,-37 -13.8,-53 -7.5,-64.3 -4.7,-179.7 -4.7,-179.7 z m 451.5,36.3 c 6.6,0 11.9,5.3 11.9,11.9 0,6.6 -5.3,11.9 -11.9,11.9 -6.6,0 -11.8,-5.3 -11.8,-11.9 0,-6.6 5.3,-11.9 11.8,-11.9 z m 37.2,14.1 c 6,29.5 19.3,72.4 32.6,101.3 l -15.8,1.7 c -12.8,-8.3 -26.4,-20.5 -27.8,-37.8 -34.7,0.3 -44.9,-54.2 -32.2,-47.7 -1.6,18.6 11.7,25.9 24.8,24.1 11.3,-1.6 21,-17.1 7.6,-34.3 5.9,-2.3 8.8,-4 10.8,-7.3 l 0,0 z m -492.2,87.3 c 2.3,37.7 9.7,65.3 16.6,93.8 l -68.6,64.7 c 5.3,-59.1 22.7,-111.9 52,-158.5 z m 329.1,124.3 8.7,12.5 c -99.2,58.2 -268.4,62.4 -371.6,13.3 l 13.7,-13 c 90.7,40.9 238.3,43.9 349.2,-12.8 z m -644.1,19.4 c -10,-0.1 -21.5,3.7 -33.8,13 -45.5,-20.7 -75.3,27.7 -47.2,59.8 -4.2,23.1 -7.3,27.4 10.1,50.8 -18.5,2.3 -41.8,-2.5 -61.6,-5.5 3.3,34.2 52.3,42.2 72.7,38.4 22,-4.8 42.8,6.1 43.7,6.4 12.9,3.6 21,9.8 33.8,12.8 21.1,5 51.9,-19.7 56.3,-43.1 0.4,-3.1 1.4,-6 -0.3,-6.5 -14.4,3.7 -30.2,8.9 -44.2,11.9 -13.7,3.4 -24.1,6.7 -34.5,14.9 l -0.9,-28.3 c 71.3,3.4 40.3,-64.4 36.2,-67.3 13.3,-26.6 -2.7,-56.9 -30.3,-57.3 l 0,0 z m 647.8,2.2 15.5,37.3 -41.2,14 -10.5,-36.5 36.2,-14.8 z m -650.8,1.1 c 24.2,0.2 45.9,25.7 22.6,54.3 45.1,39.8 -12.7,82.4 -40.2,52.8 -36.6,33.6 -75.6,-1.5 -55.1,-38 -39.1,-35 9.1,-81.9 42,-51.7 8.2,-12.4 19.7,-17.5 30.7,-17.4 z m 281.3,13.6 c 5.8,0 10.5,4.7 10.5,10.5 0,5.8 -4.7,10.5 -10.5,10.5 -5.8,0 -10.5,-4.7 -10.5,-10.5 0,-5.8 4.7,-10.5 10.5,-10.5 z m -268.4,0.8 c -0.6,0 -1.3,0.3 -2.1,1 -1.2,0.1 -3.7,4.5 -10.1,11.9 -11.1,12.9 -12.3,13 -12.3,13 -11.9,-3.9 -19.8,-1.8 -27.6,3.2 0,0 -8.9,-1.7 -21.2,-12 -5.6,-4.7 -8.6,-5.7 -9.6,-3.2 -1,2.7 1.5,5.3 12.3,12.6 14.9,10.1 14,9.3 14,9.3 -0.9,8.9 0.5,16.1 3.9,22.9 0,0 -2.6,6.3 -13.2,20.1 -3,3.9 -5.4,8.2 -5.4,9.4 0,5.4 4.7,1.8 15.5,-11.9 4.2,-5.3 10,-13 10,-13 12.7,4.4 17.1,1.7 25.1,-1.1 0,0 2.7,2 9.6,7.5 12.7,10.1 15.4,11.2 16.9,9.9 2.1,-1.7 1.8,-2.3 -3,-5.8 -14.3,-10.3 -19.2,-16.3 -19.2,-16.3 2.9,-11.3 -0.3,-20.7 -3.4,-26.5 0,0 0.2,-1.4 8.3,-10.4 5.9,-6.6 14,-17 13.5,-18.5 0.1,-0.8 -0.6,-2.1 -2,-2.1 l 0,0 z m 292.1,2.3 37.1,11.5 -8.2,38.6 -39.6,-12.8 10.7,-37.3 z m 268.4,9.5 10.3,37.6 -38.6,10.3 -6.3,-39.9 34.6,-8 z m 27.1,0.6 c 5.8,0 10.5,4.7 10.5,10.5 0,5.8 -4.7,10.5 -10.5,10.5 -5.8,0 -10.5,-4.7 -10.5,-10.5 0,-5.8 4.7,-10.5 10.5,-10.5 z m 87.7,1.3 32.4,28.9 -36,18.2 -17.3,-37.6 20.9,-9.5 z m -305.9,8.4 37.7,4.4 -1.5,40.5 -43.3,-5.8 7.1,-39.1 z m -130.7,0.4 41.9,18.4 -15.1,42.2 -42.9,-18.4 16.1,-42.2 z m 108.1,3.3 c 15.5,2.4 11.3,20.7 0,21 -5.8,0 -10.5,-4.7 -10.5,-10.5 0,-5.8 4.7,-10.5 10.5,-10.5 z m 135.6,0 5.2,40.5 -39.1,2.4 -0.8,-41.2 34.7,-1.7 z m 26.9,4.7 c 5.8,0 10.5,4.7 10.5,10.5 0,5.8 -4.7,10.5 -10.5,10.5 -5.8,0 -10.5,-4.7 -10.5,-10.5 0,-5.8 4.7,-10.5 10.5,-10.5 z m -544.7,3.8 c 6,0 10.8,4.8 10.8,10.8 0,6 -4.9,10.8 -10.8,10.8 -6,0 -10.8,-4.9 -10.8,-10.8 0,-6 4.8,-10.8 10.8,-10.8 z m 463.3,-0.4 c 5.8,0 10.5,4.7 10.5,10.5 0,5.8 -4.7,10.5 -10.5,10.5 -5.8,0 -10.5,-4.7 -10.5,-10.5 0,-5.8 4.7,-10.5 10.5,-10.5 z m 184.3,2.6 15.2,41.7 -42.7,13.8 -12.1,-42.8 39.6,-12.7 z m 30,1.1 c 5.8,0 10.5,4.7 10.5,10.5 0,5.8 -4.7,10.5 -10.5,10.5 -5.8,0 -10.5,-4.7 -10.5,-10.5 0,-5.8 4.7,-10.5 10.5,-10.5 z m 73.9,11.8 27.6,19.5 -13.7,7.6 c -3.6,-8.5 -9.9,-18.7 -13.9,-27.1 z m -394.9,3.8 40.8,8.8 -6.2,42.7 -44.5,-8.9 9.9,-42.6 z m -121.3,2.3 21.7,10.2 -14.3,35.6 -35,-18.7 27.6,-27.1 z m 96.9,2.3 c 5.8,0 10.5,4.7 10.5,10.5 0,5.8 -4.7,10.5 -10.5,10.5 -5.8,0 -10.5,-4.7 -10.5,-10.5 0,-5.8 4.7,-10.5 10.5,-10.5 z m 235.5,2.4 7.3,42.7 -46,6.5 -2.8,-43.6 41.5,-5.6 z m 172.2,0.8 c 5.8,0 10.5,4.7 10.5,10.5 0,5.8 -4.7,10.5 -10.5,10.5 -5.8,0 -10.5,-4.7 -10.5,-10.5 0,-5.8 4.7,-10.5 10.5,-10.5 z m -32.6,0.3 15.2,37.7 -45,18.8 -13.3,-37.7 43.1,-18.8 z m -114.8,2.7 c 5.8,0 10.5,4.7 10.5,10.5 0,5.8 -4.7,10.5 -10.5,10.5 -5.8,0 -10.5,-4.7 -10.5,-10.5 0,-5.8 4.7,-10.5 10.5,-10.5 z m -151.9,4.3 43.1,0.8 -0.5,43.2 -47.2,-1.3 4.6,-42.7 z m 344.4,3 16.9,11.8 c -174.3,112.1 -419.2,126 -610.3,15.7 0,0 7.8,-7.8 12.3,-12.3 172.2,103 423.7,88.5 581.1,-15.2 z m -367.8,4.9 c 5.8,0 10.5,4.7 10.5,10.5 0,5.8 -4.7,10.5 -10.5,10.5 -5.8,0 -10.5,-4.7 -10.5,-10.5 0,-5.8 4.7,-10.5 10.5,-10.5 z m 88.4,2.4 c 5.8,0 10.5,4.7 10.5,10.5 0,5.8 -4.7,10.5 -10.5,10.5 -5.8,0 -10.5,-4.7 -10.5,-10.5 0,-5.8 4.7,-10.5 10.5,-10.5 z m -205.1,5.7 45,13 -7.7,35.5 -49.3,-14.2 12,-34.3 z m -29.7,0.3 c 5.8,0 10.5,4.7 10.5,10.5 0,5.8 -4.7,10.5 -10.5,10.5 -5.8,0 -10.5,-4.7 -10.5,-10.5 0,-5.8 4.7,-10.5 10.5,-10.5 z m 349.3,7.5 10.8,39.8 -49.7,10.6 -6,-39.2 44.9,-11.2 z m 28.5,5.8 c 5.8,0 10.5,4.7 10.5,10.5 0,5.8 -4.7,10.5 -10.5,10.5 -5.8,0 -10.5,-4.7 -10.5,-10.5 0,-5.8 4.7,-10.5 10.5,-10.5 z m -649.5,6.2 -0.1,27.9 c -8.2,-6.8 -17.6,-14 -27.1,-21.3 9.7,0.5 18.8,-2.2 27.2,-6.6 l 0,0 z m -102.4,0.7 c 2.3,0 7.6,1.8 13.9,1.8 20.2,-0.1 58.1,6.3 69.2,15.4 3.7,3.1 9.3,5.8 12.3,10.7 0,2.3 -3.3,2.4 -8.2,-0.6 -9.4,-5.8 -25,-11 -45.8,-13.9 -3.8,-0.5 -4.2,-0.4 -4.3,1.4 0,2.2 3.5,3.5 14.5,5.3 14.2,2.3 17.3,3.7 20.4,4.6 8.4,2.3 3.1,5.4 -5.6,6.2 -35.5,3.3 -62.1,-11.9 -67.4,-29.4 -0.4,-1.1 0,-1.5 1,-1.5 l 0,0 z m 494.5,0.6 44.7,5.8 -2,37.4 -48.9,-5.6 6.2,-37.6 z m -379.8,3.3 c 7.8,6.1 2.4,24.7 -1.8,30.2 -2.8,3.1 -9.2,1.4 -9.2,-2.9 1,-3.9 -0.4,-22.3 0.4,-28.1 3.2,-1.8 7.8,-1.3 10.6,0.8 l 0,0 z m 517.5,1.6 2.3,38.5 -48.7,2.2 0.4,-37.8 46,-2.9 z m -164.4,2.6 c 5.8,0 10.5,4.7 10.5,10.5 0,5.8 -4.7,10.5 -10.5,10.5 -5.8,0 -10.5,-4.7 -10.5,-10.5 0,-5.8 4.7,-10.5 10.5,-10.5 z m -271.4,0.6 c 1.8,28.3 -41.6,47.5 -57.9,38.8 -7.2,-3.8 -4.2,-6.2 10.1,-9.1 18.5,-4.9 30.6,-9.6 30.6,-13.1 0,-2.1 -2.8,-1.9 -10.3,0.9 -11.6,3.9 -23.6,5.6 -34.7,10.5 -8.3,3.8 -11.5,5.1 -13.3,2.8 -3.9,-4.7 14.5,-16.7 33.5,-19.8 14.3,-2.4 28.7,-10 42,-11 l 0,0 z m 462.7,3.5 c 5.8,0 10.5,4.7 10.5,10.5 0,5.8 -4.7,10.5 -10.5,10.5 -5.8,0 -10.5,-4.7 -10.5,-10.5 0,-5.8 4.7,-10.5 10.5,-10.5 z m -97.7,7.7 c 5.8,0 10.5,4.7 10.5,10.5 0,5.8 -4.7,10.5 -10.5,10.5 -5.8,0 -10.5,-4.7 -10.5,-10.5 0,-5.8 4.7,-10.5 10.5,-10.5 z m 234,17.8 c 70.3,66.9 147.3,143.9 210.8,207.3 -0.1,33.2 -0.3,99.5 -0.3,99.5 l -242.6,230.6 c -43.9,-26.8 -81.1,-60.4 -115.4,-119.9 3.9,-3.3 7.3,-5.5 10.2,-9.1 l -12.7,7.6 c -44.8,-71.6 -63.7,-214.2 12.3,-328.5 l -76.8,2.8 12.5,-26.2 83.6,-4.6 33.8,-36.3 c 0,0 10.7,-2 19.6,-4 8.8,-2 26.8,-7.2 40,-11.4 13.3,-4.3 24.5,-7.8 25,-7.8 l 0,0 z m -567.2,18.6 c 0,0 72.2,39.2 112.3,117.8 -129.6,111.5 -178.5,241.3 -189.5,376.5 -70.5,-66 -106.2,-102.5 -169.9,-166.6 l 2.3,-95.6 244.8,-232.1 z m 272.6,12.4 c -18.7,39.9 -34.8,83.7 -49.2,130.6 l -20.1,-5.9 c 0,0 13,-5.4 18.8,-8.9 l -10.4,-16.8 19.8,-8.1 -11.7,-14.2 20.1,-11.6 -10,-12.6 18.4,-9.2 -11.4,-13.1 19.3,-10.8 -10.1,-12.6 26.5,-6.8 z m 6.2,0.1 c 0,0 2.6,0.5 5.6,1.1 0.7,-0.3 -3.6,10.5 -3.2,10.8 7,1.4 7.4,1.1 9.5,1.7 l 5.3,-11.1 8.8,1.7 c -17.7,40 -36.7,83.7 -47.5,131.1 l -10.3,-2.2 c 0,0 3,-10 3,-11.3 -1.2,-0.3 -7,-2.7 -8.8,-3.4 -0.6,1.6 -4.3,13.1 -4.3,13.1 l -8.2,-0.2 c 13.4,-51.7 36.8,-109 50.1,-131.3 z m 33.6,1.5 18.3,15.2 -20.8,8.1 10.8,14.3 -22.1,8 12.7,14.9 -21.8,8.1 13,18 -22.7,7.7 14.3,15.8 -20.5,9.6 12.3,12.2 c 0,0 -12.8,4.2 -13.5,4.4 -2.1,0.5 -10.7,-1.6 -10.7,-1.6 13,-46.1 29,-92.9 50.7,-134.7 l 0,0 z m -446.3,7.7 c -5.1,3.3 -2.2,10.4 -8.5,16.6 -1,1.1 -1.1,3.6 -1.5,5.8 -0.3,1.7 -5.3,21.6 -5.3,21.6 0,0 1.3,-1.5 3.3,-7.9 1.7,-5.4 3.2,-15.7 4.1,-17.5 4.7,-1.4 5.4,-16.7 10.1,-14.6 2.7,1.2 2.2,3.7 0.7,9.6 -3.4,11.7 -4.7,16.6 1.1,8.7 8.7,-10.4 9.5,-19.8 -0.3,-21.8 -1,-0.3 -3.1,-0.4 -3.7,-0.5 z m 131.1,4.4 -226.7,212.9 -0.7,79.4 78.9,80 56,54.3 c 20.3,-121.6 67,-237.5 181.8,-337.9 -17.6,-28.4 -47.8,-64 -89.3,-88.7 l 0,0 z m 611.1,2.2 c -133.2,62.6 -163.8,191 -122.6,307.2 63.5,-81.6 113.3,-158.3 122.6,-307.2 z m -474.1,6.5 60.5,19.5 -22.8,77.7 -54.5,-16.5 -5.6,-13.8 22.4,-66.9 z m 467.4,2 c -5.8,103.9 -45,205.4 -113.1,285 -34.5,-85.1 -13.7,-221 113.1,-285 z m -325.8,0.6 -3.8,9.7 8.4,2.4 3.6,-9.8 -8.2,-2.3 z m -8.4,22.8 -3.4,9.8 8.6,2.9 3.2,-10 -8.4,-2.7 z m 356.9,1.8 c -18.6,144.1 -96.5,275.2 -178.7,342.1 26.2,42.5 57,69.9 88.3,92.7 l 231.7,-221.9 -0.9,-74 -140.4,-138.9 z m -612.3,38.2 c -1.4,5.3 -1.9,7.9 -1.9,7.9 0,0 2.7,-2.5 9.7,-6.3 45.5,-22.7 30.8,11.8 9.4,24.6 -4.8,2.6 -9.7,5.6 -9.7,5.6 0,0 4.6,1 9.5,1.9 27.6,5.7 21.7,21.9 -7.1,19.4 -4.3,-0.4 -9.3,-1.2 -9.3,-0.9 0,0.2 1.7,6.3 3.7,11.3 9.7,24.5 -8.4,26.4 -20.3,10.8 -1.7,-2.2 -5.4,-8.1 -5.4,-8.1 0,0 -1.2,4.5 -1.9,8.9 -10.3,38.3 -35.7,37.4 -26.2,-1.5 1.2,-4 2.6,-11.2 2.6,-11.2 0,0 -5.7,3.5 -11.9,6.2 -32.9,14.7 -38.2,-0.4 -8.4,-22.5 8.5,-6.3 11.4,-8.8 11.4,-8.8 -5.3,-0.4 -10.2,-1.2 -14.5,-2.3 -23.8,-6 -30.2,-20.2 8,-19.6 5.6,0.1 11.4,0.5 11.4,0.5 0,0 -1.9,-8.2 -3.9,-14.4 -9.2,-28.6 9.4,-32 25,-6.4 3.3,5.4 4.3,5.5 4.3,5.5 -0.5,0 1,-9.8 4.8,-18.8 19,-35.1 26.5,-3 20.7,18.2 l 0,0 z m 409.8,-28.4 c -15.9,28.1 -29.8,56.1 -36.4,85.2 l -61.9,-1.1 c 4.3,-25.8 15.2,-52.7 28.3,-81.2 25.2,-0.6 47.9,-1.7 70,-2.9 z m -163.5,12.4 -3.6,10.3 9,2.8 3.3,-10.1 -8.7,-3 z m -462.9,19.4 c -6.6,17.2 -8.9,36.4 -12.5,51.8 -1.6,8.9 0,12.6 5.4,14.6 7.6,2.8 18.6,-1 24.7,-9.8 3.5,-5 6,-15.2 6.5,-33.2 l 0.6,-16.1 c -9.4,-1.7 -15.9,-4.2 -24.7,-7.3 z m 454.6,2.3 -3,9.5 8.7,3.2 3.3,-9.6 -9,-3.1 z m 400.9,3.6 c 10.5,0.3 12.5,1.2 22,6.8 l 18.4,18.9 c -4.8,4.6 -7.8,11.1 -7.8,18.3 0,14 11.4,25.4 25.4,25.4 6.9,0 17.8,-7.3 17.8,-7.3 l 29.2,30.2 c -17,7.4 -33.7,-9.7 -39.9,-16.5 -1.5,-1.6 -1.8,-2.7 -1.8,-2.7 0,0 0.3,0.8 -0.3,4.2 -2.4,13.5 -15.7,53.2 -28.4,51 -14.3,-2.4 0.3,-59.1 0.4,-57.8 -9.8,10.4 -57.7,21.4 -54.3,9.8 6.7,-23 42.5,-31.9 47.2,-35.9 -19.2,-11.4 -43.4,-43.1 -27.9,-44.4 l 0,0 z m -853.2,0.7 c 6.1,0.4 10.2,1.2 14.3,2.9 1.9,0.5 2,2.1 2.2,3.6 0,6.8 1.7,26.8 -4.6,27 -7,-0.1 -13.6,1.4 -18.2,4.9 -3.7,2.8 -4.9,0.8 -3.9,-6.5 1,-7 4.5,-21.8 6,-27.8 0.3,-2.5 2.3,-4.2 4.2,-4.1 l 0,0 z m 189.2,0.3 c -14,0 -25.4,11.4 -25.4,25.4 0,14 11.4,25.4 25.4,25.4 14,0 25.4,-11.4 25.4,-25.4 0,-14.1 -11.4,-25.4 -25.4,-25.4 z m 0,8.8 c 9.1,0 16.5,7.4 16.5,16.5 0,9.1 -7.4,16.5 -16.5,16.5 -9.1,0 -16.5,-7.4 -16.5,-16.5 0,-9.1 7.4,-16.5 16.5,-16.5 z m 130.9,0.3 c 58.2,100.4 51.4,238.2 -17.1,338.4 l 73.7,-5.2 -9.7,18.9 -78.6,7.7 c -12,11 -22.9,23.6 -34.8,35.3 l -0.1,4.2 c -26.9,6.3 -53.9,13.5 -81.4,23.4 -14.5,-14.2 -41.8,-42.7 -41.6,-43.4 l 1.8,-9.2 c 186.9,-95.4 132.2,-286.6 119.1,-302.3 20,-24.2 44,-46.8 68.7,-67.8 z m 518.8,18.3 c 7.6,0 13.7,6.1 13.7,13.7 0,7.6 -6.1,13.7 -13.7,13.7 -7.6,0 -13.7,-6.1 -13.7,-13.7 -0.1,-7.6 6.1,-13.7 13.7,-13.7 z m 60.9,3.7 23,23.7 c -3,2.9 -7.1,4.8 -11.6,4.8 -9.1,0 -16.5,-7.4 -16.5,-16.5 0,-4.7 1.9,-9 5.1,-12 z m -788.9,2.9 c 7.6,0 13.7,6.1 13.7,13.7 0,7.6 -6.1,13.7 -13.7,13.7 -7.6,0 -13.7,-6.1 -13.7,-13.7 0,-7.6 6.1,-13.7 13.7,-13.7 z m -102,5.8 c 6.4,2.1 4.9,8.1 -3.4,13.4 -5.4,3.4 -10.3,4.2 -15,1.6 -8.9,-4.8 9.6,-18.2 18.4,-15 z m 106,33.5 -82.6,79.9 c 5.2,-13.3 5.4,-26.5 5.8,-39.8 24.9,2.6 35.3,-10 31.6,-36 16,1 32.7,-0.7 45.2,-4.1 z m 132.3,9.2 c 38.3,109.2 5,224.8 -114.7,291.7 4.9,-104.7 48.8,-204.7 114.7,-291.7 z m 109.1,9.5 c 65.7,17.2 140.6,25.2 218.2,25.3 0.6,29.6 2,60.8 8.1,91 -66.2,-17.3 -140.1,-25.4 -220.8,-23.9 3.3,-31.3 -2,-66.7 -5.5,-92.4 z m 487.4,16.2 -70,81.8 2.9,-44.7 c 23.6,3 32,-9.4 28.5,-34 12.9,1.6 25.8,-0.6 38.6,-3.1 z m -680.1,4.5 -5.5,32.7 c -14,0.4 -27.7,5.3 -27.5,36.5 l -41.8,-0.5 74.8,-68.7 z m 770.3,6 c 7.6,0 13.7,6.1 13.7,13.7 0,7.6 -6.1,13.7 -13.7,13.7 -7.6,0 -13.7,-6.1 -13.7,-13.7 0,-7.5 6.2,-13.7 13.7,-13.7 z m -833.8,4.2 c 7.6,0 13.7,6.1 13.7,13.7 0,7.6 -6.1,13.7 -13.7,13.7 -7.6,0 -13.7,-6.1 -13.7,-13.7 -0.1,-7.6 6.1,-13.7 13.7,-13.7 z m 803.2,14.1 -7.3,49.5 c -19.1,-1.7 -35,1.3 -30.1,34.8 -16.1,-1.6 -38.5,2.2 -53.6,3.5 l 91,-87.8 z m -68.3,8.9 c 7.6,0 13.7,6.1 13.7,13.7 0,7.6 -6.1,13.7 -13.7,13.7 -7.6,0 -13.7,-6.1 -13.7,-13.7 0,-7.6 6.1,-13.7 13.7,-13.7 z m -835.4,10.6 c 7.6,0 13.7,6.1 13.7,13.7 0,7.6 -6.1,13.7 -13.7,13.7 -7.6,0 -13.7,-6.1 -13.7,-13.7 0,-7.6 6.1,-13.7 13.7,-13.7 z m 45.4,16.3 c 17.5,3.9 9.4,44.7 5.5,55.8 -0.3,0.3 48.9,-25.7 51.8,-14.3 1.9,23.1 -40.7,39.1 -40.7,39.1 0,0 28.7,24.9 29.5,40.6 0.1,10.1 -12,8.3 -27.7,-4.6 -6.7,-6.6 -11.9,-11.5 -16.5,-16.1 5.4,-4.7 8.8,-11.5 8.8,-19.2 0,-14 -11.4,-25.4 -25.4,-25.4 -7.7,0 -14.7,3.5 -19.3,8.9 -3.6,-3.5 -7.8,-7.6 -13.3,-12.8 -9.1,-8.5 -15.4,-15.2 -14.5,-18.3 12,-8.4 35.7,14.2 37.8,16.3 -1.7,-4.3 11.4,-47.7 24,-50 l 0,0 z m -23.9,50.2 c 0.1,0.2 0.2,0.4 0.4,0.4 0,-0.1 -0.3,-0.3 -0.4,-0.4 z m 746.4,-18.4 c 8.3,-0.1 7.8,18.8 4.8,28.7 -2,7.5 -4,13.7 -4,13.7 0,0 7,-5.5 10.1,-6.9 22.7,-10.6 31.1,1.4 19.7,15.3 -5.5,7.2 -13,8.8 -19.1,14.8 8.7,0.4 18.6,2.3 26.1,6.7 5.8,3.5 10.4,7.7 10.4,10.3 0,5.9 -14.4,9 -27.9,7.5 -5.7,0.1 -16.5,-2.9 -16.5,-2.9 0,0 4.5,7.5 6.1,12 5,13.9 3.3,30.3 -4,30.2 -12.2,-3.2 -18.1,-16.8 -22.8,-26.5 -3.9,10.8 -7.7,22.4 -16.4,30.4 -8.6,8 -13,1.4 -12.6,-12.2 0.2,-5.4 4.1,-21.4 4.1,-21.4 -51.1,17.2 -47.3,-6.1 -7.4,-26.5 -24.5,-11.7 -39.5,-22.2 2.3,-24.6 -1.1,-1 -8.4,-23.4 -0.6,-28.6 7.2,-4.9 22.7,11.8 23.4,12.7 -0.3,-1.7 4.1,-14.7 11.4,-23.8 5.7,-6.3 9.9,-8.8 12.9,-8.9 l 0,0 z m -47,48.7 c 0.1,0 0.1,0.1 0.1,0 0,0 -0.1,0 -0.1,0 z m 223.5,-14.8 c -8.9,0.8 -14.4,8.7 -18.5,15.6 -0.8,1.4 -2.4,1.9 -2.9,3.7 -3.7,11.9 -6.9,26.1 -8.9,43.8 5.6,2.3 18.3,6.2 24,4.1 1.6,-0.7 1.1,-4.7 1.6,-6.1 8.9,-22.3 13.2,-39 13.2,-49.3 -0.1,-8.2 -2.9,-12.3 -8.5,-11.8 z m -913.6,-1 c 9.1,0 16.5,7.4 16.5,16.5 0,5.2 -2.4,9.9 -6.3,12.9 -10.6,-10.6 -16.1,-16.1 -23.2,-23.1 3.1,-3.8 7.7,-6.3 13,-6.3 z m 916.7,7.9 c 2.2,5.4 -4.9,11.3 -14.2,11.3 -5.5,0 -7.3,0.8 -4.9,-4 3,-5.9 14.8,-17.7 19.1,-7.3 l 0,0 z m -124.4,-3.9 c 7.6,0 13.7,6.1 13.7,13.7 0,7.6 -6.1,13.7 -13.7,13.7 -7.6,0 -13.7,-6.1 -13.7,-13.7 0,-7.5 6.1,-13.7 13.7,-13.7 z m -723.1,1 c 7.6,0 13.7,6.1 13.7,13.7 0,7.6 -6.1,13.7 -13.7,13.7 -7.6,0 -13.7,-6.1 -13.7,-13.7 0,-7.6 6.1,-13.7 13.7,-13.7 z m 648.5,5.6 c -14,0 -25.4,11.4 -25.4,25.4 0,14 11.4,25.4 25.4,25.4 14,0 25.4,-11.4 25.4,-25.4 0,-14 -11.4,-25.4 -25.4,-25.4 z m -339.1,3.4 c -6.7,29.2 -16.9,57.2 -29.9,84.8 -24.5,1.5 -50.9,2.6 -68.3,5.1 29,-50.9 29.7,-62.8 40.5,-89.8 l 57.7,-0.1 z m 42,4.1 c 6.9,0.8 14.4,1.8 21.2,3.2 -12.5,43.9 -29,89.1 -50.3,132.5 l -12.9,-2 -6.1,-7.6 20.5,-8.2 -16,-16.3 26.5,-8 -16.3,-16.1 26.2,-6.5 -14,-17 23.5,-9.2 -14.9,-19.2 25,-6.9 -12.4,-18.7 z m 297.1,1.4 c 9.1,0 16.5,7.4 16.5,16.5 0,9.1 -7.4,16.5 -16.5,16.5 -9.1,0 -16.5,-7.4 -16.5,-16.5 0,-9.2 7.4,-16.5 16.5,-16.5 z m -271.2,2.5 8.7,1.4 -2.7,9.3 9.9,2.1 3.2,-10.1 c 0,0 8,0.7 8.8,1.4 -10.4,42.4 -47.2,131.2 -47.7,130.7 l -9.5,-1.4 2.5,-9 -8.8,-1.3 0,-0.1 -4.3,9.7 -9.4,-0.8 c 23,-51.8 38.5,-91.7 49.3,-131.9 l 0,0 z m 463.2,3.3 c 7,0 6.6,3.6 1.5,16.8 -4.8,12.4 -6.5,17.3 -8.9,18.9 -5.5,3.9 -17.4,0.6 -16.4,-5.1 3.1,-18.5 4.2,-26.4 9,-28.9 5,-0.9 9.8,-1.6 14.8,-1.7 z m -428.1,1.6 22.8,4.4 -19,11.3 12.1,14.1 -23.4,10 14.2,14.7 -22.6,9.2 13.7,16.2 -23.4,9.9 15.9,13.8 -26.3,8.3 10,15.3 -9.9,5.5 -12.2,-1.9 c 20.2,-47.3 33.2,-86.3 48.1,-130.8 l 0,0 z m 55.9,11.3 44.6,12.1 8.9,15.9 -20.9,70.6 -59.4,-17.4 26.8,-81.2 z m -88.6,6.8 -4.3,11.6 9.8,2 3.8,-11.9 -9.3,-1.7 z m -8.6,26.6 -4.3,11.6 9.2,1.8 4.3,-11.7 -9.2,-1.7 z m -8.7,23.4 -4.3,11.5 9,1.8 4.3,-11.6 -9,-1.7 z m 418.7,21.2 c 0,0 -4.5,3.3 -5.7,4.8 1,2.6 3.9,6.7 3.4,9.4 -0.4,2 -2.6,3.6 -6,7.2 -8.4,9.8 -11.3,8.7 -6.5,-1.7 1.6,-3.3 2.3,-6.3 2.3,-6.3 -1.9,2.7 -3.4,5.9 -4.7,8.5 -2.8,5.3 -5.3,10.4 -5.3,10.4 5.3,1.8 8.9,5.8 12.3,8.4 0,0 1.8,-4.7 3,-9.2 1.7,-6.3 5,-8.9 9.1,-11.1 2.6,-1.4 5,-3.9 5,-3.9 -4.5,-4.7 -5,-11.2 -6.9,-16.5 l 0,0 z m -428,2.9 -4.6,12.3 8.9,2.2 5,-12.5 -9.3,-2 z m -504.2,30.9 c -0.8,48.9 0.8,81.1 -0.9,133.8 l 132.4,171.6 -20.7,6.9 c 0,0 -0.2,2.4 -1.3,2.7 -28.3,7.8 -74.2,15.5 -74.2,15.5 34.1,77.9 56.3,175.4 41,272.7 l 342.7,-0.9 -419,-602.3 z m 724.8,82.8 -11.8,11.8 C 1491,-73.2 1251,-72.9 1075.8,41.3 L 1061.5,31 C 1252.7,-91.5 1487.9,-90.8 1677.1,9.3 Z M 958.7,-56.4 1362.1,523 1314.7,523.7 959.1,58.5 958.7,-56.4 Z m 865.6,10.5 c 0,0 -11.6,3 -21.4,6.2 -28,9 -41.1,25.2 -38.6,47.7 0.8,6.6 2.5,6.6 13.9,-0.7 26.7,-16.9 28.4,-17.6 61.7,-27.4 2.6,-0.8 6.3,-0.2 6.3,-0.2 L 1844.8,6 c -55.5,-0.2 -52.5,43.9 -36.5,66.8 -5.6,10.6 -17.8,47.6 22.4,61.7 20.1,4 41.3,-12.3 40.7,-13.2 37,17.5 80,-11.9 46.5,-62.7 12.6,-22.2 3.7,-38.7 -8.3,-52.8 0,0 2,0.2 19.6,3.4 26.6,4.9 36.8,4 36.8,4 0,-23.9 -19.8,-34.6 -61.1,-37.9 -29.4,4.1 -80.6,-21.4 -80.6,-21.2 l 0,0 z m -446.5,2.8 c 2,0 4,0 6,0 l -1.9,40.9 -45,2.1 -2.9,-40.7 c 15.4,-1.2 29.8,-2.3 43.8,-2.3 l 0,0 z m 54,1 48.3,5.9 -7.3,38.2 -44.5,-4.8 3.5,-39.3 z m 390.8,0.4 c 5,-0.1 3.9,5 -1.9,6.2 -8.7,1.7 -31,14.7 -31,18 0,2.2 1.1,1.9 9.3,-2.5 4.1,-2.2 12.6,-5.9 18.9,-8.3 6.3,-2.4 13.5,-5.3 16,-6.4 7.5,-3.4 11.2,-1 8.5,5.3 -1.8,4.2 -2.5,4.6 -19.8,10.1 -15.7,5 -18.6,6.3 -28.6,12.7 -3.7,2.4 -10.3,6.2 -14.7,8.4 -10.3,5.3 -12.4,5.4 -12.3,-1.8 -0.6,-21.2 22.9,-37.1 54.6,-41.6 0.4,-0.1 0.7,-0.1 1,-0.1 l 0,0 z m -417.1,5 c 6,0 10.9,4.9 10.9,10.9 0,6 -4.9,10.9 -10.9,10.9 -6,0 -10.9,-4.9 -10.9,-10.9 0,-6 4.9,-10.9 10.9,-10.9 z m -119.5,2.9 3.6,37.1 -44.3,11.4 -10.1,-38.3 c 16.9,-4.2 33.8,-7.1 50.8,-10.2 l 0,0 z m 570.4,2.8 c 12.1,1.8 11.2,29.6 5,34.5 -9.6,6.9 -15.4,-7.5 -11.2,-26.6 1.2,-5.8 3.4,-7.8 6.2,-7.9 z m -545.3,1.5 c 6,0 10.9,4.9 10.9,10.9 0,6 -4.9,10.9 -10.9,10.9 -6,0 -10.9,-4.9 -10.9,-10.9 0,-6 4.9,-10.9 10.9,-10.9 z m 216.3,3.2 50.1,13.7 -12.3,38.7 -47,-13.2 9.2,-39.2 z m -27.2,0.7 c 6,0 10.9,4.9 10.9,10.9 0,6 -4.9,10.9 -10.9,10.9 -6,0 -10.9,-4.9 -10.9,-10.9 -0.1,-6 4.8,-10.9 10.9,-10.9 z m 409.5,3.3 c 21.6,0.2 50,11 50.1,27.7 -0.4,4.7 -45.2,-1.6 -65.8,-9.9 -7.3,-3 -16.3,-11.9 -16.3,-15.7 0,-2.2 4.4,-2.1 6.2,0.1 2.9,3.5 13.2,7.2 36.9,13.2 18.2,4.6 20,4.8 20,2 0,-2.5 -10.7,-6 -22.4,-7.9 -5.9,-1 -11.3,-2.7 -20.3,-3.5 -4.2,0 -5.2,-2.6 -1.7,-4.4 3.7,-1.2 8.3,-1.7 13.3,-1.6 l 0,0 z m -38.1,8.6 c 5.4,2.6 7.4,7.6 10.4,10.3 -3.7,1.8 -5.4,3.6 -11.4,4 0.1,-4 -1,-8.7 1,-14.3 l 0,0 z m -655.6,3 c 6,0 10.9,4.9 10.9,10.9 0,6 -4.9,10.9 -10.9,10.9 -6,0 -10.9,-4.9 -10.9,-10.9 0,-6 4.9,-10.9 10.9,-10.9 z m -29.4,3.1 11.8,37.9 -42.3,18.4 -15,-37.5 c 14.6,-7.7 30.6,-13.3 45.5,-18.8 z m 195.6,6.2 c 0,0 33.7,0 45.3,0.2 l -2.7,42.7 -42.1,0.3 -0.5,-43.2 z m -45,2.3 2.3,42.7 -40.5,5.4 -8,-42.9 46.2,-5.2 z m 256.1,0.4 c 6,0 10.9,4.9 10.9,10.9 0,6 -4.9,10.9 -10.9,10.9 -6,0 -10.9,-4.9 -10.9,-10.9 -0.1,-6 4.8,-10.9 10.9,-10.9 z m 293,1 c 24.7,0.1 48.2,28.5 23.8,58.2 40,30.7 -3.5,82.4 -38.8,52.3 -50.5,49.6 -78.7,-17.8 -57.8,-35.6 -30.9,-50.7 7.1,-82.8 46.2,-60.4 7.1,-10.3 16.9,-14.5 26.6,-14.5 z m -412.8,1.2 44.4,9.9 -8.9,42.2 -43.4,-8.8 7.9,-43.3 z m 147.1,1 40.6,20.2 -31.5,30.3 -23.4,-11.7 14.3,-38.8 z m -260.5,4.8 c 6,0 10.9,4.9 10.9,10.9 0,6 -4.9,10.9 -10.9,10.9 -6,0 -10.9,-4.9 -10.9,-10.9 0,-6 4.9,-10.9 10.9,-10.9 z m 87.8,1.4 c 6,0 10.9,4.9 10.9,10.9 0,6 -4.9,10.9 -10.9,10.9 -16.1,-2.4 -11.8,-21.4 0,-21.8 z m -202.4,6.2 9.9,42.2 -41.1,13.9 -14.7,-41.1 45.9,-15 z m 28.3,3 c 6,0 10.9,4.9 10.9,10.9 0,6 -4.9,10.9 -10.9,10.9 -6,0 -10.9,-4.9 -10.9,-10.9 0,-6 4.9,-10.9 10.9,-10.9 z M 1883,39.3 c -3.1,3.8 -7.2,8.4 -7.2,8.4 -10.2,-4.2 -20.2,-2.5 -26.8,2 0,0 -7.1,-5.6 -13.5,-10.8 -11.2,-9 -14.9,-11.1 -14.9,-7.3 0,0.8 3.8,4.6 8.4,8.6 12.6,10.8 15.2,14.7 15.2,14.7 -3,9.8 -3,17.4 2.8,25.7 0,0 0.2,1.1 -4.2,5.7 -8,8.5 -16.3,21.5 -14.4,23.5 2.4,2.4 9.1,-3.3 17.5,-14.7 6,-8.1 7.8,-8.3 7.8,-8.3 10.2,2.8 15.9,5.3 26.1,-3.2 0,0 3.9,1.2 11.6,7.5 12,9.9 16.3,12 17.6,8.7 1.1,-2.7 -0.5,-4.6 -10.7,-12.3 -6.6,-5 -14,-10.9 -14,-10.9 2.2,-3.6 3.7,-16.2 -3.7,-24.8 0,0 0.3,0.6 11.2,-13.6 7.3,-9.4 8.5,-10.6 6.1,-12.7 -3.1,-4.3 -13.8,12.5 -14.9,13.8 l 0,0 z m -317.4,-12.1 40.1,16.8 -14.3,42 -38.7,-15.8 12.9,-43 z M 1124.5,30 c 6,0 10.9,4.9 10.9,10.9 0,6 -4.9,10.9 -10.9,10.9 -6,0 -10.9,-4.9 -10.9,-10.9 -0.1,-6 4.8,-10.9 10.9,-10.9 z m 410.1,1.2 c 6,0 10.9,4.9 10.9,10.9 0,6 -4.9,10.9 -10.9,10.9 -6,0 -10.9,-4.9 -10.9,-10.9 0,-6 4.9,-10.9 10.9,-10.9 z m -438.1,3 13.1,32.5 -29.8,-22.2 16.7,-10.3 z m 329,8.3 39.9,4.7 -6.3,38.1 -34.4,-3.1 0.8,-39.7 z m -43.6,0.1 -0.4,39.1 -37.9,1.6 -3.2,-39.1 41.5,-1.6 z m -195.2,7.2 c 6,0 10.9,4.9 10.9,10.9 0,6 -4.9,10.9 -10.9,10.9 -6,0 -10.9,-4.9 -10.9,-10.9 0,-6 4.9,-10.9 10.9,-10.9 z m -30.2,0.7 15.4,39.3 -23.9,11.6 -32.1,-30.4 40.6,-20.5 z m 142.8,0.5 6.2,37.4 -39.6,9.8 -9.6,-38.1 43,-9.1 z m 565.4,0.4 c 8.6,0 15.6,7 15.6,15.6 0,8.6 -7,15.6 -15.6,15.6 -8.6,0 -15.6,-7 -15.6,-15.6 0,-8.6 7,-15.6 15.6,-15.6 z m -462.9,1.2 c 6,0 10.9,4.9 10.9,10.9 0,6 -4.9,10.9 -10.9,10.9 -6,0 -10.9,-4.9 -10.9,-10.9 0,-6 4.9,-10.9 10.9,-10.9 z m 107.8,4 42.2,13.7 -14.2,33.8 -36.4,-9.9 8.4,-37.6 z m -187,1.4 c 6,0 10.9,4.9 10.9,10.9 0,6 -4.9,10.9 -10.9,10.9 -6,0 -10.9,-4.9 -10.9,-10.9 0,-6 4.9,-10.9 10.9,-10.9 z m 160.4,4.1 c 6,0 10.9,4.9 10.9,10.9 0,6 -4.9,10.9 -10.9,10.9 -6,0 -10.9,-4.9 -10.9,-10.9 0,-6 4.9,-10.9 10.9,-10.9 z m -267.9,12.8 14.5,33.4 -39.7,17.2 -17.3,-34.1 42.5,-16.5 z m 28.2,2 c 6,0 10.9,4.9 10.9,10.9 0,6 -4.9,10.9 -10.9,10.9 -6,0 -10.9,-4.9 -10.9,-10.9 -0.1,-6 4.8,-10.9 10.9,-10.9 z M 1389.5,87 c 65.2,-0.1 124,13.5 171.2,33 l -14.1,13.2 c -153.1,-52.6 -253.3,-28.9 -356,16.1 l -10.4,-12.8 C 1252.8,101 1324.3,87.1 1389.5,87 Z m 173.2,0.4 c 6,0 10.9,4.9 10.9,10.9 0,6 -4.9,10.9 -10.9,10.9 -6,0 -10.9,-4.9 -10.9,-10.9 0,-6 4.9,-10.9 10.9,-10.9 z m -399.1,24 c 8.8,0.5 9.6,16.9 5.5,12.2 l -9.8,-11.3 c 1.7,-0.7 3.1,-1 4.3,-0.9 z m 409.4,6.8 c -0.3,12.4 -12.1,95.8 -51.8,153.1 -2.4,-29 -9.4,-63.6 -17.2,-86.7 0,-0.1 42.7,-39.6 69,-66.4 z m -508.4,126.3 206.8,278.9 -21.7,-0.2 c -4.5,-20.5 -11.1,-41.4 -24,-57.1 -10.5,-12.7 -19.8,-22.3 -38.6,-30.8 -11.3,-5.1 -12.8,-4 -13.5,-12.7 -3.4,-48.8 -42.9,-79.5 -73.2,-91.1 -2.9,-29.5 -16.2,-58.5 -49.6,-82.9 l 13.8,-4.1 z m -20.1,6.6 c 18.9,13 39.6,24.3 50.8,75.5 0.8,10.7 1.5,9.6 9.9,12.7 33,9.7 61.6,49.3 64.2,83.9 0,10.4 3.4,11.4 16.2,16.8 15.8,6.6 32.2,20.7 41.5,34.5 13.8,19.9 18.7,50 17.5,48.5 l -11.4,0.1 c -8.1,-51 -40.2,-71.4 -74.2,-80.9 2.6,-72 -53.4,-94.5 -72.9,-97.9 1.1,-51.9 -32.4,-73.3 -54.1,-90.7 4.1,-1.6 12.5,-2.5 12.5,-2.5 l 0,0 z m -33.5,7.2 c 16.9,5.5 29.7,29.1 28.4,39.9 22.3,2.8 45.8,24.4 40.6,46.8 -1.7,1 -4.3,1.1 -6.8,-1.4 6,-43.6 -59.1,-22 -33.1,9.5 l -11.6,7.6 c -9.4,-43.6 -20.9,-68.3 -33.4,-99.8 4.6,-1.2 15.9,-2.6 15.9,-2.6 l 0,0 z m 53.9,91.4 c 5.8,0 10.4,4.7 10.4,10.5 0,5.8 -4.7,10.5 -10.4,10.5 -5.7,0 -10.5,-4.7 -10.5,-10.5 0,-5.8 4.7,-10.5 10.5,-10.5 z m 55.9,47 c 24.8,7 32.9,32.2 32.1,41.3 l -5.4,-0.1 c -8.7,-39.8 -54.2,-18.2 -35.2,13.6 -24.3,9 -22.4,31.4 -15.2,40.2 9.9,12.2 35,11.8 42.7,-7 23.6,30.5 56.2,-3.7 27.4,-32.2 23.5,8.7 27.3,40.2 23.8,50 10.9,3.7 23.5,21.1 21.8,21 l -176.3,0 c 0,0 8.5,-71.1 -0.5,-124.8 11.7,2.8 19.6,5.7 33.1,-10.2 21.8,18.1 37.5,4.4 36.4,-11.2 -1.7,-10.9 -7.3,-16.4 -16.7,-22.1 19,-4.6 33.5,28.5 32,41.5 l 0,0 z m 19.6,50.1 c 6,0 10.8,4.8 10.8,10.8 0,6 -4.8,10.8 -10.8,10.8 -6,0 -10.8,-4.8 -10.8,-10.8 0,-6 4.9,-10.8 10.8,-10.8 z"
               id="path3090" /></g></g></g></g></g><g
     transform="translate(-259.99041,-369.77722)"
     id="printing-marks"><g
       id="CropMarks" /></g></svg>