<?xml version="1.0" encoding="UTF-8" standalone="no"?>
<svg
   xmlns:dc="http://purl.org/dc/elements/1.1/"
   xmlns:cc="http://creativecommons.org/ns#"
   xmlns:rdf="http://www.w3.org/1999/02/22-rdf-syntax-ns#"
   xmlns:svg="http://www.w3.org/2000/svg"
   xmlns="http://www.w3.org/2000/svg"
   height="312.79669"
   width="224.1967"
   xml:space="preserve"
   enable-background="new 74 -106.5 744.1 1052.4"
   viewBox="74 -106.5 224.19671 312.79668"
   y="0px"
   x="0px"
   id="svg4423"
   version="1.1"><defs
     id="defs19" /><g
     transform="translate(-259.96718,-369.84043)"
     id="layer1" /><g
     transform="translate(-259.96718,-369.84043)"
     id="printing-marks"><g
       transform="translate(-512.47117,-136.72448)"
       id="g4709"><g
         transform="translate(-1694.0633,23.063255)"
         id="g9416"><path
           style="fill:#ffffff;stroke:#000000;stroke-width:0.99669999"
           d="m 2551.6,377.5 202,0 c 5.9,0 10.6,4.8 10.6,10.6 l 0,290.6 c 0,5.9 -4.8,10.6 -10.6,10.6 l -202,0 c -5.9,0 -10.6,-4.8 -10.6,-10.6 l 0,-290.6 c 0,-5.9 4.7,-10.6 10.6,-10.6 z"
           id="rect6369" /></g><g
         transform="matrix(0.1541039,0,0,0.1541039,-84.139157,794.49327)"
         id="g3774"><g
           transform="translate(4412.1723,-1166.3739)"
           id="g3840"><g
             transform="matrix(0.99999247,0.00387963,-0.00387963,0.99999247,1.3098009,-8.4490155)"
             id="g3851"><g
               transform="translate(-307.16245,-19.011518)"
               id="g3894"><path
                 style="fill:#131f67"
                 d="m 3181.1,-1215.2 -1059,4.6 13,1700.2 1062.8,-6.3 c -10.5,-566.9 -13.5,-1132.7 -16.8,-1698.5 z m -124.9,14.8 111.7,0.1 2.5,654.2 c 0,0 -7,-0.2 -6.3,-4.8 0.8,-6.1 -0.1,-17.6 -4.5,-22.4 -1.8,-2 -4.8,-5.2 -6,-7.5 -3,-5.8 -7.8,-11.9 -11.7,-13.5 -1.9,-0.8 -4.2,-1.2 -4.4,-2.6 -0.3,-1.2 -0.9,-5.3 -1.8,-9.1 -2.1,-9.4 -3.9,-9.1 2,-18.4 20.6,-32.5 28.4,-62.3 25.7,-91.8 -0.9,-9.2 -3.2,-21.2 -4.3,-22.8 -19.9,20.1 -34.3,45 -47.9,63.3 -3.1,-26.1 -2.8,-45.9 -3.3,-66.8 10.7,-3.1 17.1,-8.8 21.7,-23.4 0,0 11.5,8.9 18.5,7.6 l -4.7,-16.9 c 30.6,-9.5 34.6,-49.5 -1.6,-57.8 l 3.2,-21.1 c 0,0 -10.9,3.7 -15.7,6.1 -2.4,1 -3,0.2 -4.7,-3.2 -17,-26.2 -43.2,-20.5 -54.6,5.4 l -14.1,-5.9 c 1.6,7.2 3.4,14.4 2.1,21.6 -29.6,13.3 -22.1,49.4 1.6,54.1 l -2,16.9 17.8,-5.8 c 2.6,7.9 1.3,12.5 15.6,21.4 -0.2,35.4 -0.7,57.5 0.5,88.9 -18.6,-18.9 -36.6,-32.1 -68,-41.6 0,0 -0.3,7.6 1.6,19.2 0.6,3.8 0.5,3.3 -1.3,3.3 -4.1,-0.1 -22.6,-29.6 -22.6,-29.6 0,0 -2.1,0 -4,1.9 -2.2,2.2 2.8,6.2 9.9,16.6 8.3,12.2 7.5,11.7 1,17.2 -36.6,31.3 -89.2,150.2 -80.3,161.7 -23.2,1.5 -113.6,46.2 -129.7,137.8 -1,4.1 -2.9,9.5 -2.9,9.5 L 2769,-365 c 15.5,-75 50.6,-227.6 50.6,-227.6 0,0 25,-7.2 39.7,-8.8 l -0.2,-5.9 -34.5,8.2 1.6,-13.1 32.5,-6.5 -0.1,-3.1 -34.5,4.8 5.5,-21.8 c 0,0 -77.3,11.7 -105.1,10.9 2.1,84.6 -4.3,154.9 -0.4,246 l -37.9,-22.8 c -3.6,-63.4 -5.2,-223.7 -5.2,-223.7 l -104.5,-16 3.6,25.2 c -86.7,-34 -173.7,-65.2 -237.9,-132.1 39.3,-30.4 104.9,-60.6 104.9,-60.6 l -2.2,-4.8 c -161.3,83.9 -221,142 -302,214.1 l -4.5,-593.5 441,-1.9 -1,108.3 c 0,0 -0.6,2.8 -1.4,3.8 -5.3,26.2 10.4,72.7 7.3,95.4 1.5,7 1,20 1,20 -26.2,36.2 -40,70.5 -51.6,112.4 -4.5,1.8 -11.2,5.6 -15.9,6.8 l -1.3,5.7 c 10.3,-5.7 39.6,-15.1 39.6,-15.1 130.7,63.1 226.6,47.2 329,-0.5 -16.1,57.5 19.7,130.4 78.3,145.5 6.7,1.7 18.2,3.2 24.7,1.4 6.5,-1.9 -14.9,-50.6 -24.4,-52.4 -28.3,-12.1 -40.1,-40.9 -37.2,-73.9 l -4.7,-7.9 c -9.5,40.1 13.9,80.8 45.8,90.6 l 8.6,18.7 c -57.8,-17.1 -82.6,-71 -63.6,-124.6 0.2,-33.4 -21.5,-48 -31.4,-62.3 -50.3,-19 -59.8,-65.4 -51.1,-103 23.4,9.8 -15.9,-32.9 -15.9,-32.9 -17.1,37.3 -24.1,84.5 15.5,132.1 -25.3,33.8 -58.1,60.7 -94.7,83.6 -53.6,28.2 -93.9,9.5 -120,-52.4 -15.7,-37.2 -21.4,-74.3 -21.5,-113.1 0,-24.1 0.3,-24.8 9.3,-20.8 8.5,3.8 26.9,4.3 37.8,-1.4 14.9,-7.8 14.2,-3.1 -2,13.7 -4.4,4.6 -9.1,8.7 -9.1,9.6 0,4.9 7,0.8 16.8,-9.1 3.6,-3.6 6.3,-7.1 7.4,-7 1.3,0.1 1.2,4.7 -0.3,9.7 -0.6,1.9 -2.4,10 -4,18 -1.6,8 -3.9,17.3 -5,20.8 -4.4,13.8 -3.1,20.2 10.1,26.6 7,3.3 19,14.8 18.9,14.8 0,0 -2.9,-12.6 -1.9,-16.6 1.3,-4.9 7,-1.5 12.9,1.3 13,6.2 20.6,6.3 27.6,0.5 9.6,-8.1 6.8,-26.1 -5.2,-30.8 -8.7,-3.4 -10.3,-0.2 -1.5,5.8 13.1,9.1 -1.6,23.2 -12.7,14.5 -8.7,-6.8 -23.8,-7.5 -25.5,-1.8 -1.6,5.4 -3.2,4.4 -9.2,0.9 -9.4,-5.4 -9.5,-6.4 -1.7,-36.6 14.6,-57.1 13.1,-78.1 -6.7,-95.3 -14.6,-12.8 -38.7,-18.6 -63.5,-4.3 l -0.1,-19.4 c 36.6,-14.8 63.1,-39.1 84.4,-79.7 l 4.2,0 c 21.6,46.2 56.3,79.3 121.4,103.5 25.5,25 -32.5,-71.9 -13.9,-32.2 -34.6,-13.2 -65.4,-39 -82.5,-71.3 l 9.4,0 c 10,14.3 30.2,40.3 66,58.2 3.3,2.7 6.4,-0.1 6.4,-0.1 0,0 -30.2,-46.9 -35.1,-58.1 l 299.7,-3.3 c -9.2,73 -22.3,152.4 30.9,294.4 -24.8,-12.9 -123.8,15.2 -106.3,20.5 8.7,-10.1 71.8,-25.3 118.6,-14.5 -3.6,-3.5 -71.6,-159.7 -32.9,-299.1 l 0,0 z m 33.2,298.9 c 0.1,0.1 0.2,0.1 0.2,0 -0.1,0 -0.1,0 -0.2,0 z m -230.5,282.6 0.3,11.4 2.4,-0.6 -1.4,-11.1 -1.3,0.3 z m -272.8,-579.4 13.2,-0.1 c -2.9,6 -7.1,10.4 -13.5,14.1 l 0.3,-14 z m 22.6,-0.1 14.2,-0.1 c -11,17.6 -22.6,28.3 -36.8,36.6 l 0.2,-13.8 c 8.2,-7 15.9,-14.5 22.4,-22.7 z m 23.4,0 13.1,-0.1 c -17.6,27.3 -35.7,45.7 -59,57.3 l 0,-11.1 c 14.3,-11.2 34.6,-27.8 45.9,-46.1 z m 20,-0.1 10.6,0 c -18,34.7 -43.3,58.7 -76.4,72.1 l 0,-8.3 c 36.2,-19.6 52,-41.3 65.8,-63.8 z m 28.8,-0.1 12.7,0 c 17.5,34.5 53.8,67.1 93.6,81.3 l 6.1,14 c -52.4,-18.7 -87.1,-46 -112.4,-95.3 z m 36.8,-0.2 9.1,0 c 9.6,13.2 21.2,24 34.7,32.9 l 8.3,15.9 c -18.4,-12.2 -38.7,-27 -52.1,-48.8 z m 16.5,0 10.1,0.5 13.5,22.3 c -8.9,-5 -15.7,-15.2 -23.6,-22.8 z m -11.3,89.8 c -13.9,0 -26.5,3.9 -35.6,11.4 -9.6,7.9 -2.5,16.5 11.4,10 23.6,-11.1 50.8,-6.2 80.3,9.7 24.8,13.4 16.1,-0.6 -7.1,-15.6 -15.9,-10.4 -33.2,-15.5 -49,-15.5 z m -111.5,18.2 c 19.9,0.1 42.8,8.8 43.4,20.5 -13.2,-11 -39.8,-16.3 -65.2,-4.8 -2,-0.4 -2.3,-7.3 -1.1,-9.9 5.4,-4.1 13.8,-5.9 22.9,-5.8 z m 120.6,7 c -12.6,0 -24.1,3.4 -29.4,10.5 -2.7,3.4 -3.4,3.7 -6.4,3.2 -5.9,-1 -5.5,2.4 1.2,11.7 3.3,4.5 2.7,9.6 -1.6,15.7 -5,7 -4,7.3 10.9,14.3 11.4,5.5 20.5,13.3 30.8,19.7 7.4,4.1 8.8,0.5 2,-5 -2.3,-1.9 -9.3,-6.8 -15.5,-10.8 -10.5,-6.8 -18.3,-13.7 -9.9,-10.6 3.8,1.2 4.8,1.7 9,2.4 10.8,2.3 21.5,3.6 30.6,1.7 6.5,-1.3 15,-5.7 22,-11.7 1.8,-0.8 3.5,0 7.9,0.2 16.6,0.6 12.9,-4.3 -10.9,-17.1 -23.6,-12.7 -42,-15 -57.1,-7.9 -6.4,3 -10,3.8 -9.1,1.9 1,-2 2.7,-4.3 5.6,-5.9 24.3,-14.6 43.9,-2.7 65.3,8.2 9.2,5.4 11.7,6.9 12.8,5.1 1.4,-2.3 -10.3,-10.5 -26,-18.3 -9.2,-4.8 -21.1,-7.3 -32.2,-7.3 z m -77.7,17.2 c 4.1,1.6 2.3,6.3 -1.5,4.8 -22.5,-10 -27,-14.9 -53.8,-5.5 -8.8,3.1 -12.3,0.4 -1.5,-4.3 23.7,-9.9 40.8,-3.3 56.8,5 l 0,0 z m -15.4,11.9 c -6,30.9 -36.8,21.5 -33.4,0.3 l 5.7,0 c 0.5,18.7 19.2,18.5 22.3,0.1 l 5.4,-0.4 z m 178.9,-0.6 8.3,17.7 c -17.9,44.7 6.9,104.7 60.4,118.9 0,0 8.7,13.2 7,14.9 -100.4,-21.9 -93,-117.7 -75.7,-151.5 z m -95.1,1.5 2.8,0.1 c 8.8,21.5 21.3,9.1 23.7,0 l 6.4,0.1 c -1.8,22.4 -35.6,26.3 -32.9,-0.2 z m -77.4,0.9 c 4.1,-0.5 5.5,5.6 4.3,6.7 -0.3,0.3 -7.7,7.6 -8.6,3.3 -1.3,-6.1 2.6,-9.7 4.3,-10 z m -46.8,0.8 c 0.3,0 0.7,0 1.1,0.1 2.5,1.9 3.5,7.7 2.2,10.6 -1.5,1.6 -7.5,-0.5 -8.7,-2.8 -1.9,-3.4 0.2,-7.9 5.4,-7.9 z m 162.9,1.5 c 2,0.1 7.4,2.4 6.9,5 -0.1,0.7 -7.7,6.3 -9.4,5.4 -3.3,-1.7 1.2,-9.8 1.9,-10.3 0.1,-0.1 0.3,-0.1 0.6,-0.1 z m -44.4,1.1 c 0.1,0 0.1,0 0.1,0 0.6,0.4 5.4,3.4 1.3,9 -0.3,0.4 -5.8,-1.5 -5.9,-2.2 -0.4,-3.2 3.7,-6.6 4.5,-6.8 z m 121.8,38.7 c -1.1,25.7 5.7,50.5 33.7,66.4 l -6.1,-11 c -7.2,-5.7 -22.3,-22 -20.5,-41.4 l -7.1,-14 z m -251.3,46.8 3.2,16.9 c -15.3,25.7 -26.9,50.9 -36.5,80.3 l -14.5,5.4 c 11.4,-37.2 22,-66.6 47.8,-102.6 z m 6.2,26.2 4.2,14.5 c -7.5,14 -15.5,29.8 -20.3,48.1 l -16.1,6 c 7.2,-24.3 17.7,-47.9 32.2,-68.6 z m 51.1,5.8 c -0.2,0 -0.5,0 -0.7,0.1 -0.2,2.9 -0.1,10.8 0.6,23.8 0.1,2.5 2.5,1.4 9.4,-2.1 5.9,-3.1 5.3,-3.5 11.1,-1.6 16,5.4 23.3,3 29.5,1.4 9.5,-2.5 13.4,-1.5 19,1.8 3.1,1.8 7.2,3.1 8,3.4 4.4,1.6 2.7,-0.3 -0.3,-12.2 -3.4,-13.3 -2,-14.8 -7.3,-11.3 -1.2,0.8 -4.6,2.7 -6.4,2.9 -4.7,0.6 -12.4,-5.1 -17.1,-3.3 -11.2,4.4 -11.1,3.3 -21.5,0.8 -5.2,-1.3 -10.2,1.9 -14.7,2.8 -2.7,0.3 -6,-6.5 -9.6,-6.5 z m 191,6.2 c 19,17.3 38.6,23.2 59.7,29.7 -2.5,8.7 -7.6,18.4 -9.9,29.7 -109.9,58.6 -220.5,57.2 -325.1,4.8 l 54.1,-20.9 c 29.8,51.1 67.8,64.7 110.3,47.7 47.6,-22.3 82.8,-53.3 110.9,-91 z m -235.2,11.2 4.7,12.5 -6.9,19 -13.3,5.4 c 2.6,-12.9 7.5,-23.5 15.5,-36.9 z m 99.6,14.1 c -3.3,0.2 -8.3,2.4 -19.6,2.5 -6.1,0.1 -11,-0.5 -13.3,0 -4.9,1 0.8,3.2 11.9,6.3 11.1,3.1 24.6,-1.7 26.3,-6.5 0.3,-1.1 -1.2,-2.5 -5.3,-2.3 z m -91.7,6.6 2.9,6.4 -5,1.8 2.1,-8.2 z m 292.7,2.4 8.3,18.7 c -14.1,30.9 -23.2,115.4 71.9,141.3 l 4.2,12.1 c -64.7,1.5 -129.8,-80.5 -84.4,-172.1 z m -217.7,7.3 c -9.3,-0.1 -19,2.3 -25.3,7.3 -5.6,4.5 1.3,7.3 8.6,3.7 9.5,-4.7 25.4,-4.4 34.8,1.5 7.2,4.8 10.9,4 6.1,-3.4 -3.6,-5.9 -13.6,-9.1 -24.2,-9.1 z m 415.2,19.4 c 24.8,-0.5 27.6,35.1 22.7,38.1 1.4,-0.5 5.6,-1.7 11.7,-1.6 18.2,0.4 27.7,10.4 28.8,25.1 1.1,14.8 -10.1,23 -26.4,22.3 -6.1,-0.3 -10.2,-0.9 -10,0.2 3.1,11.8 -0.5,29.6 -16.1,34.1 -1.8,0.5 -4.3,3 -4.4,3.9 -1.1,18.7 4.5,82.9 4.5,82.9 0,0 29.1,-49.3 35.7,-56.8 12.8,-17.6 15.2,-16.1 15.3,13.2 -2,40.6 -8.4,49.9 -32.2,84 -10.2,14.7 -34.4,7.1 -32.2,17 0.5,2.2 4.4,6.1 8.4,9.8 2.5,2.4 5.1,3.9 11,3.6 10.3,-0.4 14.3,-2.5 8.2,6.5 -4.9,7.1 -22,8.7 -23.9,12.4 -4.5,8.6 -1.4,6.7 -9.1,14.3 -5.9,6.5 -3.8,3.2 -1.1,8.5 4.2,6.8 2.5,20.5 -1.6,29.7 -3.4,7.5 -3,12.9 -3,12.9 0.1,0.6 9.5,-9.8 12.3,-21.9 2.3,-10 5.1,-15.1 5.1,-9.5 0,7.1 1.3,16.7 7.7,20.3 5.1,2.9 5.8,5.8 5,9.4 -0.9,3.7 3.1,6.9 7,10 0.9,0.9 4,2.1 3.7,4 -1,6.2 1.5,13.4 6,14.6 2,1 14.8,-0.2 16.8,-7.3 -0.2,-2.3 -0.1,-11.7 -5.1,-12.2 -3.6,-1.6 -3.2,-2.6 2.2,-5.9 8.1,-4.9 14,-8.4 18,-9.1 5.4,-0.8 10.5,-6.6 10.5,-6.6 l 2.5,387.2 c -48,49.5 -100.6,98.8 -170.1,147.3 -40.6,-33.6 -85,-67.5 -132,-92.9 l -16.3,-9.5 5.8,-7.5 -28.3,-37 31.6,-25.6 8.1,10.1 -14.9,14.6 22.6,24.8 50.4,-49.5 -33.4,-31.7 17.2,-32.5 11.1,5.4 -8.3,20.6 25.4,15.9 31.5,-63.1 -40.3,-18.2 10,-42.4 12.4,1.3 -4,30.5 31.4,6.1 12.5,-71.9 -46,-8 3.7,-41 12.8,0.1 -1.8,22.7 32.5,4.5 5.9,-62.6 -45.1,-7.3 5.6,-48.4 10.3,1.4 -1.9,29.8 33.1,5.5 c 3.6,-20.2 6.4,-45.6 11.7,-65.5 l -42.7,-15.7 14.9,-40.7 9.6,3.3 -8.3,22 31.5,13.3 26.3,-52.4 -37.2,-26.1 c 8.3,-13.8 16.5,-26.9 28.3,-38.1 l 7.3,6.3 c 0,0 -2.7,2.4 -6.7,8.1 -5,6.9 -6.5,10.4 -5.8,12.2 0.7,1.8 23.6,18.6 25.4,18.6 2,0 9.6,-7 13.5,-11.6 4.2,-5 6.4,-5.5 10.7,-2.4 0.9,0.6 2.1,1.8 3,2.9 1,1.2 1.5,2.3 1.6,3.1 0.1,0.8 -0.1,1.3 -0.3,1.6 0.4,-0.3 1.2,-1 2.9,-1.9 3.1,-1.7 -6.1,-9.7 -13.6,-13.9 -22.4,-12.5 -48.8,-36 -55,-65.5 -2.3,-13.3 32.1,2.6 55.9,26 3.6,3.6 17,16.4 17,16.4 -2.1,-34.2 -5,-68.9 -3.6,-103.5 l -5.2,-3.6 c -7.3,-5.1 -10.2,-13.4 -10.9,-21.8 -0.5,-5.8 4.5,-8.7 -6.8,-8.3 -23.5,0.3 -37.2,-21.8 -23,-40.8 5.1,-7.1 26.8,-10.7 26.7,-10.5 -5.6,-22.7 11.1,-34.9 23.3,-36.1 z m -7.5,263.4 c -0.5,0.4 -0.3,0.4 0,0 z m 30.3,-225.3 c -0.3,0.1 -0.7,0.2 -0.7,0.2 0.2,0 0.5,-0.1 0.7,-0.2 z m -783.3,77 c 65.9,55.1 108,92.1 241.9,133.3 l 3.4,19.8 c -77,-17.5 -161,-53.1 -261.1,-142.1 l 15.8,-11 z m -19.7,12.9 c 41.8,38.7 84.5,68.1 127.8,92.8 l 15.2,9.1 -7.8,8 25.5,36.5 -32.6,26.8 -7.8,-7.7 17,-16.8 -24.4,-23.8 -49.3,50.3 34,29.9 -19.5,30.3 -7.1,-3.2 10.4,-21.1 -31.6,-17.1 -35,64.9 44.9,20.2 -10,39.8 -10.5,-0.5 3.4,-31.1 -33.7,-5.8 -11.1,72.8 43.4,6.6 -0.9,41.9 -11.6,-0.1 0.7,-23.7 -34.3,-1.5 -2.8,61 42.2,5.3 -4,49.5 -10.4,-2.6 1,-32.2 -32.1,-3 -10.8,68.4 43.4,12.2 -15.1,42.7 -9.4,-5.1 6.1,-22 c -7.9,-3.4 -30.2,-12.6 -30.2,-12.6 l -28.1,53.2 36.8,24.9 -22.2,39.7 -8.7,-5.8 15.5,-23.2 -30.6,-19 -17.3,23.8 c -7.4,-6.4 -20.7,-15.2 -25.8,-21.2 -5.4,-4.9 -9.5,-5.6 -16.5,-4 -5.5,1.3 -10.8,2.3 -9.6,0.4 0.6,-1 11,-8 26.9,-18.2 4.4,-2.8 7.9,-5.3 7.9,-7.8 0,-1.9 2.4,-4.9 5.6,-6.8 3.5,-2.2 2.7,-4.2 2.2,-6.4 -3.1,-11.9 -1.3,-30.6 4.7,-43.1 4,-8.4 5.2,-9.9 2.6,-9.9 -7.7,1 -17.1,29.1 -18.9,37 -0.6,-0.6 -1.5,-8 -2,-10.9 -1,-5.1 -1.7,-8.3 -5.9,-9.3 -4.9,-1.2 -3.4,-3.5 -3.9,-7.2 -0.8,-6 -3.7,-9.8 -8.9,-11.9 -5,-2 -5.5,-2.9 -5.3,-7.8 0,-3.9 -4.1,-10.4 -7.1,-12.5 l -17.2,6.1 c -1.3,4.5 0.5,10.4 3.3,12.5 8.7,8.1 -4,8.3 -12.6,13.6 -2.3,1.5 -5.1,4.8 -7,3.7 -5.5,-1.8 -5,14.6 -10.4,12.6 l -0.2,-393.8 c 45.9,-47.9 179.7,-147.8 179.7,-147.8 z m 696.3,66.9 6.7,7.3 c -20.5,23.2 -35.3,47.1 -51.6,76.2 -13.9,24.9 -25.9,59.6 -32.1,97.5 -4.8,23.2 -5.5,46.8 -8.4,70.5 -3,25.5 -3.4,59.9 -8.2,86.9 -8.7,74 -29.3,113.4 -74.3,155.5 -19.8,18.5 -81.3,53.6 -83,53.2 l -14.6,-3.6 c 126.3,-65.3 157.7,-110 170.8,-263.4 1.9,-192.2 89.1,-267.1 94.7,-280.1 z m 12.5,12.9 6.8,6.5 -36.7,52.3 36.5,25.5 -14.3,33.8 -11,-4.1 7.8,-23 -30.7,-12.8 -24.5,67.1 43.7,13.6 -7,43.7 -8.8,-2.3 -0.1,-29.7 -32.4,-6.5 -9.1,74.9 47.7,6.4 -3.4,38.6 -11.3,-0.7 -0.5,-23 -33.1,-1.6 -7.3,64.9 47,7.8 -8.3,46.1 -10,-2.3 2.1,-30.4 -31.5,-4 -18,62.3 39.6,19.8 -19.3,40 -8.4,-5.8 10.7,-23.6 -30.8,-15.1 -29.5,51.6 32.4,31.6 -31.4,33.1 -7.1,-9 16.2,-17.6 -24.4,-23.9 -50.3,40.4 25.9,33.9 -3,4.3 -26.7,-10.6 -12.8,-16.8 -15.2,6.7 -12,-4.5 c 74.4,-39.4 122.8,-84.9 142.6,-153.4 10.9,-37.9 14,-79.1 17.4,-120.7 1.8,-21.6 3.6,-43.3 6.7,-64.7 3.5,-34.9 8.8,-64.1 22.8,-97.8 16.7,-41 37.5,-69.8 63,-101 l 0,0 z m -401.2,27.3 51.3,26.8 -0.7,17.9 -47.4,-23.5 -3.2,-21.2 z m 14.4,0.4 36.5,4.9 0.2,14.7 -36.7,-19.6 z m -164.6,1.1 21.3,9.5 18.1,20.8 13.5,-8.9 14.7,5.4 c -46.3,24 -87.4,52.7 -119.3,102.1 -35.5,55 -39.2,126.9 -43.5,196.2 -7.3,95.7 -23.4,162.9 -86.7,240.7 l -9.4,-5.9 34.1,-54.6 -38.8,-24.8 17.5,-32.3 8.9,3 -6.8,19.2 32.1,16.8 24.3,-68.8 -45.2,-13.9 7.4,-43 11.3,1 -2.9,30.8 32.3,5 9,-72.7 -43.5,-6.5 0.8,-38.4 10.7,1 0,23.3 34.3,1.7 2.4,-66.3 -42.6,-4.6 5.1,-46.8 11.9,1.2 -2.6,28.1 32.8,4.6 15.3,-60.6 -42.7,-19.1 22.8,-41 10.4,4.7 -10.5,22.7 29.6,14.3 30.8,-47.5 -33.1,-31.5 32.2,-34 8,7.8 -17.5,20.3 24.4,22.4 48,-40.6 -23.7,-35.3 4.8,-5.5 z m 306.6,1.1 -1.4,17 -51.2,29.4 -0.1,-16.6 52.7,-29.8 z m 275.5,-0.5 11.4,7 -8.2,9.8 -9.9,-6.2 6.7,-10.6 z m -297.1,3.6 -30.7,17.9 -0.1,-17.7 30.8,-0.2 z m 362.7,15.1 c 1.6,0 3.1,0.4 4.2,1.1 3.1,2 2.7,7 -0.8,9.4 -4.5,3.2 -17,3 -18.3,-0.2 -1.8,-4.7 7.9,-10.4 14.9,-10.3 z m -490.8,9 44.2,23.6 -0.1,16.8 -42.6,-23.2 -1.5,-17.2 z m 143.8,-0.1 -2.5,21.9 -45.3,24.3 -0.4,-19 48.2,-27.2 z m -220,1.3 18.1,4.5 c -66.9,30.1 -132.9,73.7 -158.4,149.5 -8,22.7 -13.3,47.9 -16.7,80.1 -1.5,34 -5.8,67.5 -7.3,95.9 -3,57.8 -21.8,136 -87.1,219.4 l -6.3,-4.9 c 40.1,-49.8 60.9,-94.9 73.6,-142.5 20.2,-75.7 9.7,-159.2 31.3,-235.4 13.2,-46.4 40.7,-87.9 82,-123.9 28.9,-22.6 70.8,-42.7 70.8,-42.7 z m 30.5,6.2 c 0.2,0 0.3,0 0.3,0.1 16.5,54.7 36.9,154.4 36.9,154.4 -43.1,-20.6 -114.7,-16.6 -114.7,-16.6 0,0 -40.5,-51.8 -48.3,-56.1 32.1,-43.5 119.6,-81.5 125.8,-81.8 z m 553.9,6.5 c 9.9,-0.4 9.3,14.7 -3.2,25 -6.4,5.3 -9.4,4.5 -14.1,0.4 -1.4,-1.9 -5.4,-3.2 -8.4,-2.8 -7,0 6.8,-14.6 19.1,-20.6 2.5,-1.4 4.7,-1.9 6.6,-2 z m -502.9,14.2 39.4,20 0.4,16.6 -36.5,-19.6 -3.3,-17 z m 133.4,1.7 -2.1,18.3 -40.9,21.5 0.2,-16.8 42.8,-23 z m 383.4,5.3 c 1.4,-0.1 2.4,0.4 3.4,1.5 5.6,6.2 -4.9,25.1 -16.9,30.8 -4.6,2.2 -7.5,1.8 -11.3,-1.5 -1.9,-1.6 -4.6,-3.7 -6.2,-3.5 -6.9,0.7 -3.1,-7 2.4,-7.5 1.5,-0.1 11.1,-7.4 18.4,-13.5 4.9,-4 7.9,-6 10.2,-6.3 z m -41.6,7.6 c 8.7,-0.2 11.9,7 1.6,10.2 -7.3,2.3 -11.4,0.7 -11.4,-4.2 1.5,-5.2 5.9,-5.8 9.8,-6 z m -469.7,11.6 35,17.4 0.2,17.9 -32.1,-16.6 -3.1,-18.7 z m 125,1.9 -2.4,17 -37.5,19.5 0,-14 39.9,-22.5 z m 394,5.6 c 2.4,0.1 3.1,2.8 3.1,7.5 0,7.8 -5.1,15 -12.9,18.6 -5.7,2.6 -9.7,2.4 -12.5,-0.6 -1.3,-1.4 -3.1,-2.5 -4,-2.5 -12.1,-0.4 -10.2,-3.6 1.4,-8.5 4.1,-1.7 12.1,-7.3 15.9,-10.1 4.3,-3.1 7.2,-4.5 9,-4.4 z m -44.5,5.7 c 6,0 11.2,4.2 7.9,6.9 -2.6,2.1 -12.2,3.2 -14.1,1.3 -3.6,-3.6 -0.4,-8.2 6.2,-8.2 z m -468.6,13.9 29.8,15.9 -0.1,17.1 -28.5,-16 -1.2,-17 z m 114.2,0.9 -0.6,17.5 -34.1,17 -0.3,-16.7 35,-17.8 z m 367.5,5.8 c 5.8,0.4 5.1,6 0.4,8.7 -3.5,2.4 -8,1.2 -9.9,-1.6 -4.1,-7.9 5.3,-7 9.5,-7.1 z m 11.6,17.9 c 1,1.9 0.5,5.4 -1.4,6.5 -2.5,1.1 -9.1,0 -10.1,-1.9 -0.8,-1.6 -0.7,-2.4 1,-4 2.6,-2.2 8.6,-3.8 10.5,-0.6 z m -488.9,2.2 25.5,13.8 -0.1,16.8 -23.4,-13.5 -2,-17.1 z m 105.7,0 -1.2,16.1 -29.5,14.8 0.3,-15.7 30.4,-15.2 z m -309.5,11.4 c 6.3,0 11.2,4.3 7.5,11.5 -2.3,4.5 -4.1,6.2 -14.2,13.4 -4.1,2.9 -7.7,5.6 -8,6 -0.3,0.3 -2.9,2.2 -4.6,3.4 -9.1,6.3 -6,-6.8 5.3,-26.2 3.3,-5.7 9.1,-8.1 14,-8.1 z m 307.3,13.2 -2.3,17.8 -26.4,13.6 -0.1,-17.1 28.8,-14.3 z m -99.4,2 21.4,10.5 0.4,17.3 -19.4,-10.1 -2.4,-17.7 z m 256.8,0.4 c 0.7,0 1.3,0.2 1.7,0.8 1.8,2.4 2.1,13 0.4,19 -3,7.1 -8.9,-10.7 -8.2,-15.2 1.3,-2.1 4.1,-4.5 6.1,-4.6 z m -449.3,4.9 c 8.6,-0.2 14.9,5.7 12,14.5 -3.3,8.5 -22.8,13.9 -31.6,19.7 -5.7,2.9 -7.2,-0.2 -5.4,-5.2 0.8,-2.3 1.4,-4.1 -3,-4.7 -10.7,-1.5 -4.2,-6.7 15.3,-19.9 4.3,-2.9 8.8,-4.3 12.7,-4.4 z m 428.7,3.9 c 3.1,0 6.9,1.7 10.8,6 6.7,7.3 11.7,22.6 8,26.6 -2.8,-0.3 -4.2,3.8 -4.3,5.5 -0.4,4.8 -9.3,-4 -17.7,-17.8 -6.8,-11.2 -3.5,-20.2 3.2,-20.3 z m -360,4 c 26.3,-0.3 76.7,5 146.5,48.3 8.9,5.5 17.8,11.6 27.9,16.5 26.5,14.1 48.3,23.7 82.4,29.9 l -0.9,17.6 c -0.3,5.6 9,37.7 4.9,55.9 -6.2,-0.1 6.1,5.3 6.1,5.3 l 8.1,16.3 c 0,0 -41.8,-0.2 -60.8,-3.9 -30.6,-4.9 -86.6,-30.6 -113.7,-50.9 -28.1,-20.5 -70.6,-37.4 -106.9,-43.9 l -0.6,-15.2 c 0,0 -3.8,-51.9 -6.7,-59 l -6.8,-16.4 c 1.5,0.9 8.5,-0.4 20.5,-0.5 z m 219.9,10.5 -2,17.4 -23.1,11 -0.1,-14.9 25.2,-13.5 z m 115.5,0.3 c 6.5,0 16.3,7.5 27.6,22.7 2.5,3.4 4.5,6.4 4.9,8.4 0.3,1.9 -0.8,3 -2.7,2.8 -4.4,-0.8 -6.1,-2.4 -7.3,3.1 -0.3,1.4 0.5,3.8 -1,3.4 -7.9,-2.3 -30.5,-24.9 -29.1,-32.2 1.1,-5.4 3.7,-8.1 7.6,-8.2 z m -206.5,2 16.9,8.9 0.8,17.2 -15.1,-6.4 -2.6,-19.7 z m -181.6,5.9 c 5.2,-0.2 8.4,1.8 10.1,5.9 4,9.7 -3,15.6 -23.9,20 -18.1,4.4 -17.8,4.7 -15.3,-2.1 1.7,-4.5 -3.9,-5 -7.1,-6.1 -5.3,-2 -1,-2.6 14.2,-10.3 9.6,-4.8 16.8,-7.2 22,-7.4 z m -60.4,4.9 c 0.5,0 1.1,0.4 2,1.6 26.5,31.9 19.9,78.5 -13.4,101.7 -3.8,2.5 -3.9,0.2 -3.5,-4.8 l 0.6,-9.5 c 0.2,-1.9 38.3,-25.5 9.8,-77.6 l 2.3,-7.4 c 0.8,-2.4 1.3,-4 2.2,-4 z m 431.4,8.2 c 10.4,0 39.8,26.4 27.3,27.4 -1.5,0.1 -1,2 -1,3.2 0,1.2 -0.1,3.5 -0.4,4.4 -0.9,2.3 -4.3,1.9 -9.6,-1.2 -13.3,-7.8 -16.4,-10.3 -21,-14.7 -9,-8.5 -6.4,-19.1 4.7,-19.1 z m -103,5 -0.1,14.3 -20.8,10.2 0.1,-12.9 20.8,-11.6 z m -264.1,11.3 c 14,-0.5 22,13.4 8,20.8 -5.6,3 -24,1 -32.6,0.3 -9.7,-0.8 -4,-3.7 -3.5,-4.6 1.3,-2.2 2.4,-2.5 -2.7,-5.5 -4,-4.2 -6.3,-5.2 3.7,-6.6 4.9,-0.7 16.7,-1.9 20.8,-3.2 2.1,-0.8 4.3,-1.1 6.3,-1.2 z m 427,1.7 c 1,-0.1 0.9,1.7 0.5,6.1 l -0.7,9.6 c -6.4,1 -38,40.6 -12,86.4 l -2.1,8.2 c -1,4 -1.3,4.6 -4.6,2.1 -19.4,-13.3 -25.9,-81.2 14,-109.5 2.6,-1.7 4.1,-2.8 4.9,-2.9 z m -75.3,8.3 c 3.7,0.1 8.3,1.1 13.5,3.4 12.2,5.5 20.3,10 22.2,12.9 1.2,1.8 -0.7,3.4 -3.1,4.1 -3,0.9 -3.3,2.1 -2.5,5.6 0,2 0.5,4.3 -2,4.4 -4.7,0.3 -15.2,-3 -25.9,-8.7 -17.9,-9.5 -15.6,-21.9 -2.2,-21.7 z m -91.2,0.6 0.1,17.4 -17.2,-7.8 17.1,-9.6 z m -287,16.1 c 1.8,0 4.2,0.4 7.4,0.8 3.9,0.6 9.9,1.2 12.9,1.1 19.5,-0.4 27.7,13.1 11.6,20.1 -4.4,1.9 -6.2,1.7 -18.3,-1.7 -5.8,-1.7 -12.8,-3.4 -15.7,-4.2 -5.8,-1.6 -7.8,-3.4 -4,-4.8 3.6,-1.2 3.9,-3.7 1.6,-7 -0.6,-3.2 0.5,-4.4 4.5,-4.3 z m 453.5,-1.8 c -2.7,27 -4.8,48 -8.8,74.4 -3,-1.2 -24.2,-50.8 8.8,-74.4 z m -82.1,13.2 c 6.4,0.1 17.1,2.5 27.5,6.5 9.1,3.3 10.3,4.2 4,6.9 -3.8,1.6 -3.3,3.1 -2.2,5.6 1.7,1.9 5,5.6 -0.1,4.8 -6.1,0.5 -22.2,-0.4 -27.2,-1.2 -14.7,-2.5 -18.8,-15.8 -6.7,-22 1,-0.4 2.6,-0.6 4.7,-0.6 z m -377.8,8.3 c 1.4,0 3.9,0.7 8.4,2.1 26.4,8.2 37.2,18.3 24.3,28.1 -3.7,2.9 -9.6,1.7 -20.6,-4.4 -11.3,-6.2 -16.9,-9.6 -19,-11.9 -2.1,-2.2 -1,-4.7 2.2,-4.5 4.4,0.3 3.7,-1.9 3.4,-5.6 -0.3,-2.6 -0.5,-3.8 1.3,-3.8 z m 71.2,2.2 20.3,4.5 -49.7,221.3 c -17.2,5 -27.2,7.2 -39.3,13.8 l 34.9,-6.2 -3,15.8 -31.7,6.1 -0.7,4.7 36.3,-6.7 c 0,0 -1.2,15.1 -2.5,20.9 34.7,-2.9 68.9,-12.7 103.9,-13.1 0,0 0.2,-174.5 0,-193.5 -0.2,-20.6 -0.1,-45.1 -0.1,-45.1 l 35.1,19.6 6.6,219.9 109.7,17.4 c -0.8,-3.7 -3.8,-20.7 -3.8,-20.7 81.4,23.6 163.9,58.8 237.1,131.7 -33.9,18.5 -65.9,36.8 -98.8,54.6 l -4.8,6.9 c 83.5,-39.4 210.3,-121.1 301.7,-211.2 l 4.3,581.6 -439.3,3.5 c 0,0 -0.1,-28 -0.2,-54.4 l 0.1,-48.6 c -1.9,-31.2 3.4,-65.5 -6.3,-91.7 l -2,-27.4 c 27,-31.6 41.4,-71.4 54.2,-112 0,0 13,-5.1 19.3,-7.4 l 2.2,-8 c -12.6,6.5 -41.4,17.4 -41.4,17.4 3.1,-2.4 -61.6,-29.4 -101.5,-35.6 -65.8,-10.3 -154.3,0.9 -224.8,36.2 -3.4,2.5 -4.9,2.4 -4.1,-0.8 16.2,-59.7 -18.6,-119.3 -79.2,-136.4 -12.9,-3.6 -23.4,-3.6 -23.4,-3.6 l 1.1,5.2 c 99,10.8 122.7,115.3 84.8,164 -9.9,16.1 -11.4,20.8 9.5,20.1 84.8,-1 114.6,93.6 76.2,146.1 0.1,-0.4 3.2,6.1 3.2,6.1 24,-31.9 30.2,-92.3 -12.7,-134.6 31.4,-35.3 91.8,-91.9 144.2,-88.8 19.1,1.1 38,24.1 50.6,42.5 26.7,38.9 33.7,93.4 35.7,124.5 0.5,8.1 1.6,14.1 1.6,18.3 0.1,12.4 -2.3,11 -10.3,8.9 -10.1,-2.6 -23.9,-2.6 -34.2,0.5 -16.4,5.1 -13.8,2.2 0.8,-16 8.6,-10.7 9.7,-14 6.2,-14.7 -1.1,-0.2 -4.7,3.5 -9.5,10.8 -14.3,22.3 -13.3,13.1 -3,-21.5 6.7,-22.5 6,-24.1 -12.5,-38 -6.1,-4.6 -13.7,-9.1 -14.3,-10.5 -3.5,-7.4 -4.9,1.9 -1.8,8 3.1,5.9 -3.4,8.7 -14.7,2.6 -26.8,-14.7 -44,15.3 -20.1,28.2 5.6,3 8.8,0.5 4.4,-3.5 -14.7,-13.5 -4.6,-25 15.3,-13 11.5,6.9 15.8,4.7 19.6,-4 2.1,-3.5 20,9.1 20,14.1 0,3.2 -2,13.6 -4,20.6 -5.6,19.7 -7.1,25.8 -9.6,38.5 -4.4,23.1 -4.2,34.9 0.6,45.1 10.8,22.7 37.9,33.3 61.3,24.1 3.4,-1.3 9.9,-2.5 9.9,-2.5 l 0.3,16.7 c -46.2,17.7 -79.4,72.5 -77.9,74.4 l -16.5,0.1 c -22.1,-43.4 -60.7,-76 -109.8,-93.9 0,0 -5.9,-9.8 -0.6,8.1 0.4,7.2 8,17.3 14.1,20.8 23.3,11.7 54.2,32.6 71.3,65.1 l -11.7,0.2 c -14.3,-21.7 -32.8,-36.3 -50.4,-49 -4.1,-0.9 3.2,39.4 20,51.7 l -301.5,6.4 c 20.3,-80.6 23.9,-170 -24.8,-286.9 40,2.3 75.4,-6.4 107.9,-20.7 l -3,-8.3 c -37,17.8 -77.6,21.5 -118.2,17.5 31.1,57 58.5,176.6 32.7,291.8 l -110.7,1 -4,-627.4 c 0,0 4.3,3.9 5.7,5.3 3.5,3.5 5.9,8.7 6.9,12.4 1.3,4.8 2.6,5.1 9.5,10.2 3.3,2.5 5.2,4.6 5.2,5.9 -0.2,1.4 -0.2,5.8 2,8.5 6.1,7.3 5,12 0.5,16.8 -21.1,22.2 -34.2,68.6 -23.3,117.5 25.1,-17 50.8,-61.4 51.7,-61.5 l 2.7,60.5 c -2.2,-0.5 -17.6,8.7 -17.7,20.6 -6.9,2.1 -15.5,-1.3 -22.5,-3.4 l 5.2,17.8 c -25.8,10.4 -27,45.7 2.9,55.7 0,0 -2.7,13.8 -5,21.3 l 19.4,-3 c 11.4,33.7 54.7,22.7 54.4,-0.8 0,0 13.2,4.9 18.2,7.1 l -5,-23 c 49.2,-24.8 12.2,-56.8 0.9,-56.3 0.1,-6.4 3.1,-8.5 5.7,-16 L 2246,44 c -3.7,-11.9 -17.1,-21.5 -17.6,-20.2 l -3.1,-86.6 c 15.1,13.1 30,26.5 50,36.8 18.5,9.6 20.3,7.4 17.5,-9.2 -1.3,-7.5 -1.2,-12.4 -1.2,-12.4 6.9,1.6 24.4,24.2 23.6,35.3 6.4,8.3 12.1,-14.1 -4.4,-33 43.5,-45.9 76.5,-121.9 83.5,-173.7 l 58,-23.4 0.6,-7.6 c 39.6,-26.6 60.1,-63.5 70.8,-105.2 l 0,0 z m 48.4,13.3 13.4,5.9 -15.2,7.6 1.8,-13.5 z m -128.8,4.2 c 2.6,1.2 6.5,3.7 11.9,7.6 11.4,8.3 18.1,14 18.3,19.1 0.1,2.5 -1.7,5.7 -4.6,7.3 -6.9,3.7 -13.4,0.7 -28.3,-14.4 -4.8,-4.9 -8,-7.5 -9.5,-9.7 -1.7,-2.5 -0.5,-4.9 2.4,-3.9 12,5.3 1.5,-9.8 9.8,-6 z m 409.6,1.5 c 2.5,0 4.4,0 5.7,0.3 3.2,0.6 4.2,2.5 2.2,4.2 -3.1,2.8 -2.2,5.6 0.9,7 2.1,1 1.3,3.2 -1.3,4.7 -1.5,0.9 -3.8,1.8 -7,2.8 -18.2,5.8 -31.7,4.1 -35.2,-4.4 -4.1,-9.8 3.6,-14.5 25.9,-14.6 3.3,0.1 6.3,0 8.8,0 z m -265.7,6.8 -0.1,13.1 -18.9,9.2 2,-13.3 17,-9 z m -161,4.8 c 1.7,0.1 4.4,2.6 8.4,7.5 18.4,22.3 20.8,26.6 14.9,32.6 -7.1,7.1 -17,0.3 -27.8,-19.3 -1.5,-2.6 -3.2,-6 -4.3,-7.2 -3.9,-4.6 -2.2,-6 2.8,-5.7 2.7,0.2 4,-0.8 4.1,-3.6 0,-3 0.7,-4.4 1.9,-4.3 z m 437.8,9.6 c 3.3,0 3.1,1.1 1.6,5 -1.1,3.4 -3,4.5 1.8,6.7 0.8,0.4 2.6,2.6 1,3.5 -3.8,2.6 -20.8,10.4 -27,12.5 -12,4 -19.4,-5.7 -12.4,-15.4 2.9,-4.1 23.1,-11.5 33.2,-12.2 0.8,-0.1 1.4,-0.1 1.8,-0.1 z m -447.2,14.7 c 12.2,18.1 13.8,26.5 5.8,31.8 -5,3.9 -15.9,-1.6 -18.4,-13.3 -1.9,-8.9 -2.8,-18.3 0.1,-25.7 4.3,-11.3 11.2,5.3 12.5,7.2 z m 170.4,-8.2 0.1,14.2 -23,11.7 2.1,-15.6 20.8,-10.3 z m 46.9,0.4 21.7,13.9 1.3,12.1 -22.4,-12.2 -0.6,-13.8 z m 241.7,13 c 0.6,0 0.9,0.3 0.9,0.9 0,1.7 -0.4,7.6 2.8,8.1 6.4,1 4.9,3 -0.6,7.8 -6,5.4 -11.5,11.7 -18.8,15.7 -18.7,7 -24.7,-12.8 -7,-23.2 6.1,-3.6 11.7,-6.1 15.8,-7.2 3.1,-0.9 5.6,-2.1 6.9,-2.1 z m -241,8.2 25.2,14.7 0.9,14.9 -25,-12.6 -1.1,-17 z m -48.4,1.6 0.1,12.9 -24.4,14.1 2,-14.5 22.3,-12.5 z m 101.4,10.1 c 6.9,3.2 96.1,27.6 125.5,19 0,0 25.4,36.3 44.1,49.2 -28.7,42.5 -126.5,84.5 -126.5,84.5 l -43.1,-152.7 z m 200.5,0.2 c 1.6,-0.1 2,1.5 2,4.6 -0.4,8.8 -14.7,41.3 -26.3,24.7 -3.2,-6.2 0,-12.6 10.1,-20.3 8,-6.1 12.1,-8.9 14.2,-9 z m -484.8,7 c 2.2,2.4 1.2,9.8 -3.5,9.3 -1.4,-0.1 -1.6,-7.6 -0.7,-11.7 1.3,-0.7 3.4,1.6 4.2,2.4 z m 183.3,3.4 -0.1,16.4 -29,15.9 3.1,-18.3 26,-14 z m 48.1,2.1 28.8,15.2 3.4,18.1 -32,-16.4 -0.2,-16.9 z m -48.1,22.5 0.1,16.6 -32.6,16.9 2.2,-16.4 30.3,-17.1 z m 48.7,1.3 32.3,18.2 4.3,17.2 -36,-18.4 -0.6,-17 z m -456.2,2.3 c 5.3,-0.1 7.2,5.5 3.2,9.1 -2.6,2.5 -10.1,2 -10.8,0 -3.3,-3.2 1.3,-9 7.6,-9.1 z m 9.9,17.5 c 0.8,-0.1 1.5,0 2.2,0.1 3.8,1 6.2,6.4 3.9,9.6 -4.3,5.8 -15.6,1.8 -14,-5.5 0.4,-1.9 4.5,-4 7.9,-4.2 z m 397.2,3.9 0.1,14.8 -35.5,18.9 2.2,-16.6 33.2,-17.1 z m 50.2,1.9 36.7,19.5 2.9,16.6 -39.5,-20.3 -0.1,-15.8 z m -464.8,2.3 c 1.8,-0.1 3.2,0.4 3.9,1.7 0.7,1.2 1.5,4.2 4.1,5.7 4.8,2.7 5.3,3.3 -3.8,7.3 -3.8,1.7 -11.2,6.8 -13.8,8.6 -8,5.4 -11.2,3.6 -11.8,-2.7 -0.8,-8.2 13.7,-20.2 21.4,-20.6 z m 27.6,12 c 1.8,-0.1 3.6,0.2 4.9,1.1 3.1,2 3.2,6 0.3,8.1 -6.7,4.3 -17.2,-1.5 -11.7,-6.7 1.6,-1.5 4.1,-2.4 6.5,-2.5 z m 387,6.5 0.3,19.2 -39.5,21.1 2.5,-19.5 36.7,-20.8 z m -406.6,3.8 c 2.6,-0.2 5.1,0.4 7.3,2 2.4,3 5.2,3.9 6.8,3.9 6.8,0.2 4.6,2.7 -2.5,6 -9.8,4.5 -16.7,10.2 -23.7,16.8 -7.3,6.9 -7.9,8.3 -10.3,5.5 -9.1,-10.2 8.4,-33.3 22.4,-34.2 z m 457.5,-1.5 41.6,22.6 3.6,19.2 -45.2,-24.9 0,-16.9 z m -430.2,15.2 c 1.7,0 3.3,0.4 4.5,1.4 3,2.4 1.3,7.1 -2.8,9.2 -3.5,1.8 -9.2,1.1 -10.8,-0.6 -4,-4 3.1,-9.9 9.1,-10 z m -20,9.7 c 2.5,-0.3 4.8,3 6.9,6.4 0.7,0.9 3.6,0.5 5.6,0.5 7.8,0 8.9,3.3 1.3,7.5 -2.2,1.2 -9.4,6.8 -14.2,10.9 -13,12.5 -20.1,9.6 -18.4,-3.1 1.5,-12.2 12.1,-21.5 18.8,-22.2 z m 450.3,-0.5 45.9,24.9 4.5,20.6 -50.4,-26.9 0,-18.6 z m -50.6,0.5 -0.1,19 -43,23 3.3,-19.3 39.8,-22.7 z m 51.4,24 51.4,30.9 2,20.2 -53.3,-30.4 -0.1,-20.7 z m -51.3,3.6 0.2,18.7 -47.6,24.4 2.3,-17.6 45.1,-25.5 z m -387.1,13.9 c 1.2,0 2.4,0.1 3.3,0.6 5.6,2.5 4.1,7 -4.2,11.6 -8.6,4.7 -11.5,3.9 -13.3,-1.3 -1.6,-4.5 7.7,-10.8 14.2,-10.9 l 0,0 z m 535.8,0.4 c 89.3,20.1 176.8,63.9 261.9,140.7 l -17.7,12.6 c 0,0 -74.6,-84.5 -240,-133.5 l -4.2,-19.8 z m -96.8,9.3 24.8,14.5 0.1,3.7 -24.8,-1.9 -0.1,-16.3 z m -421.6,1.8 c 1.9,0.1 3.5,1.2 12.4,5.4 35.6,25.5 49.9,40.9 58.8,69 5.4,16.8 5.2,16.1 -12.2,7 -16.4,-8.6 -38.8,-22.9 -53.3,-41.5 -2.2,43.8 3.1,98.2 3.1,98.2 22.2,10.8 15.2,39.3 15.1,39.2 57,-15.8 44.8,59.6 2.2,43.5 10.4,56.5 -54.4,52.1 -47.9,3.7 -51.5,-1.8 -42.6,-58 0.2,-50.4 -4.5,-17.3 1.6,-29.1 17.3,-36.6 l -2.7,-74 c 0,0 -41.8,60.4 -48.8,59.5 -4.1,-0.5 -10.3,-7.4 -0.1,-60.3 5.3,-27.5 34.4,-61.1 50.7,-62.3 2.8,-0.2 4,-0.5 5.2,-0.4 z m 41,0.4 7.6,5.1 -7,12.7 -7.9,-5.7 7.3,-12.1 z m 328.6,2.3 -0.2,11.1 -23.1,1.5 23.3,-12.6 z M 2333.7,16.8 c -3.5,0.1 5.9,2.3 11.8,7.5 54.5,8.2 88,74.6 63,122.9 -3,2.2 1.7,12.7 4.8,8.7 26.4,-37.7 6.3,-130.1 -71.2,-138.6 -4.7,-0.3 -7.3,-0.5 -8.4,-0.5 l 0,0 z m 20.7,25.2 c -4.3,12 -5.5,14.9 5.7,9.9 19.8,7.3 41.3,39.4 34.6,71.8 -2.2,3.8 1.6,-2.5 4.3,8.2 9.7,-23.7 -0.3,-74.7 -44.6,-89.9 z m 251.7,59.4 c 55.7,-0.4 110.9,11.6 154.8,36.6 -14.9,8.3 -62.4,20.1 -62.4,20.1 -26.8,-29.9 -40.6,-59.8 -88.9,-44.3 -50.6,13.3 -96,57.3 -121.5,86.4 -25.8,-15.2 -39.7,-18.9 -62.5,-20.1 -1.3,0 -3.3,5.8 -1.7,-3.6 6.5,-10.1 10.9,-21.5 15.2,-33 47.8,-27.3 107.7,-41.7 167,-42.1 l 0,0 z m 173.3,37.8 c -11,35.9 -25.1,71.3 -49.3,102.6 l -3.1,-15.6 c 22.7,-35.2 33.4,-67.1 38.2,-81.1 l 14.2,-5.9 z m -21.5,9.4 c 1.4,2.3 -21.9,58.6 -33.5,68.8 l -4.6,-14.5 c 9.4,-14.4 23.3,-49 22.9,-49.3 l 15.2,-5 z m -143.8,0.7 c -0.7,0.1 -1,0.7 -1,2.1 0,5.2 5.4,9.2 15.2,11.4 13.2,2.9 31.8,-1.7 31.8,-8 0,-3.6 -2.6,-3.9 -10.2,-0.3 -9.5,4.4 -17.9,3.6 -30.3,-2.9 -2.9,-1.5 -4.6,-2.4 -5.5,-2.3 z m 117.9,8.5 c -3.6,13.6 -9.1,23.7 -16,34.1 l -2.3,-7.1 c 4.8,-7.8 7.9,-16.7 12,-25.4 l 6.3,-1.6 z m -13.8,4.4 c -1.8,4.7 -3.7,10.2 -7.8,14.5 l -5.4,-11.2 13.2,-3.3 z m -83.8,10.8 c -9,0.2 -17.8,3.1 -18.6,7.9 -0.4,2.3 3.1,1.4 19.8,-0.7 8.8,-1.1 13,4.1 21.1,3.5 4.1,-0.5 0.3,-4.3 -1,-5.4 -4.5,-3.8 -13.4,-5.5 -21.3,-5.3 z m -38.2,10.5 c -0.9,0.2 0.1,2.5 3.5,8.3 1.8,3.2 2.3,9.6 2.7,13.6 -0.4,9.9 -0.4,9.6 4.5,3.9 3.1,-3.1 9.1,-2.4 18.6,0.1 6.1,1.6 7.6,2.2 11.9,-0.5 4.9,-3.1 6.1,-1.6 10.3,-0.7 4.1,0.8 7.8,-0.9 12.3,-2.1 5.5,-1.5 6.5,-1.2 11.3,0 7.3,3.4 6.2,3.1 6.8,-9.2 0.6,-12.2 -0.1,-13 -7.1,-8.9 -6.8,4 -11.5,5.8 -22,2.2 -11.4,-3.9 -13,-2.9 -21.1,-0.4 -9.8,3 -14.2,4 -22,-0.7 -5.2,-3.3 -8.7,-5.8 -9.7,-5.6 l 0,0 z m -159.4,19 4.4,7.1 c 39.5,14 66.4,46.1 50.8,100.5 l 3.8,6 c 19.5,-54.8 -3.2,-100 -59,-113.6 z m 12.3,23.1 5.4,11 c 29.7,14.2 28.1,53.7 26.5,52.2 l 4.7,10.3 c 7.3,-25.6 -6.4,-63.3 -36.6,-73.5 l 0,0 z m 124.2,58.5 c -1.2,0 -1.9,0.4 -2.2,1.2 -0.8,2 1.5,3.1 15.1,12.5 11.7,8 20.7,14 20,15.1 -0.5,0.8 -7.7,-1 -12.9,-2.5 -13.6,-4 -33.5,1 -44.7,8.9 -2.8,1.9 -7.6,-0.1 -11.7,-1.2 -1.6,-0.5 -5.3,-0.9 -7.1,-0.4 -8.5,2.3 -0.2,10.3 20.5,20.7 25.5,12.8 39.3,13.9 54.7,6 10.2,-5.3 13.9,-1.4 2.7,4.7 -19.6,10.7 -38.4,7.5 -69.4,-13.7 -14.4,-9.8 -20.1,-8.1 -7.7,1.2 21.7,16.8 63.5,37.3 89,12 1,-0.4 3.3,-0.2 4.4,-0.2 5.3,0 5.5,-1.7 0,-10.4 -3.4,-5.3 -10.1,-10.8 -1.9,-17.3 6.2,-4.9 5.8,-7.3 -1.8,-9.5 -2,-0.5 -1.8,0.8 -4.8,-1.6 -18.1,-14.6 -35.9,-25.6 -42.2,-25.5 z m 8,28.8 c 7.6,0.2 15.3,6 17.7,16.5 0.2,0.9 0.4,1.9 0.5,2.9 l -6.5,0.3 c -5.5,-21.4 -21.6,-14.3 -23.2,-1.7 l -5.8,-0.8 c 2.2,-11.9 9.7,-17.4 17.3,-17.2 l 0,0 z m 134.2,17.8 -4.3,0.7 c -2.9,-7.9 -15.7,-18.5 -21.7,0.8 l -5.4,-0.2 c 3.7,-26.1 27.4,-22.2 31.4,-1.3 l 0,0 z M 2682.4,320 c 1.8,2.5 -1.3,6.7 -3.1,8.7 -1.7,1.9 -5.5,0.3 -7.2,-1.5 -1.4,-1.8 -0.4,-5.4 1.9,-6.6 2.5,-1.3 6.6,-2.4 8.4,-0.6 l 0,0 z m -75.8,1 c 1.8,4 -3.2,7.1 -3.9,5.7 -1.1,-0.4 -2.5,-7 -1.8,-7.5 1.7,0 5,0.5 5.7,1.8 z m 114,-1.1 c 2.7,0.2 5.7,1.5 6.3,4.6 0,2 -2.3,4.3 -5,4.4 -1.2,0.1 -5.7,-3.3 -4.9,-8 0.9,-1.7 2,-1.1 3.6,-1 l 0,0 z m -158.5,1.9 c 1,1.5 -0.8,5.9 -1.2,6.4 -0.2,0.3 -6,0.1 -5.9,-0.4 0.1,-0.4 -0.6,-3.7 0.9,-6.1 1.6,-0.9 5.1,-1.5 6.2,0.1 l 0,0 z m 105.8,13.7 c 0.8,0 1.7,0.3 2.8,1 16.3,10.5 37.3,15.2 52.3,7.5 3.4,-1.7 5.6,-1.6 5.6,0 0,1.8 -3.7,5.5 -10.7,7.6 -15.5,4.7 -41.2,-1.3 -50.1,-10.8 -2.6,-2.7 -2.2,-5.3 0.1,-5.3 l 0,0 z m -142.7,11.7 c -1.6,0 -2.1,0.9 -1.7,2.8 1.1,6.3 44.7,31.1 62.9,34.4 15,2.7 26.6,1.4 35.7,-3.9 22.1,-13 16.4,-30.4 -5.3,-17.2 -14.6,8.9 -51.6,5 -73.6,-7.7 -9.9,-5.6 -15.4,-8.3 -18,-8.4 z m 196.1,8.4 c 5.5,-2.3 7.8,-3.1 9.1,-2.1 5.6,4.7 -3.5,12 -20.2,14.9 -13.4,2.2 -21.4,2.7 -36.7,-8.5 -11.8,-8.7 -6.3,-13 0.5,-9 18,10.4 31.4,10.7 47.3,4.7 z m -192.1,28 c 38.6,13.6 82.5,46.7 102.1,87 l -11.9,0 c -13.3,-23 -39.6,-52.2 -82.8,-72.6 -3.8,-3.1 -5.8,-8.7 -7.4,-14.4 l 0,0 z m 202.3,18.1 0,12.6 c -23.7,12.1 -43.6,30.6 -58.6,56.1 l -13.5,-0.1 c 15.4,-27.3 38.5,-53 72.1,-68.6 z m 0.1,19.3 0.1,15.5 c -15,8.9 -27.5,20.6 -36.3,33.9 l -15.9,0.1 c 12.6,-21.7 30.1,-38.9 52.1,-49.5 z m -176.3,12.6 c 11.5,6.5 30.5,24 37.5,37.5 l -6.1,0.3 c -6.3,-7.9 -16.3,-17 -24.4,-24.2 -5.2,-6 -7,-13.6 -7,-13.6 z m 176.4,9.2 c 0.2,0 0.2,0.1 0,0.4 l 0,12.3 c 0,0.3 -11.4,7.8 -16.2,14.8 l -12.9,0.1 c 8.8,-16.1 27.2,-27.6 29.1,-27.6 z m 0.1,20.5 0,7 -8.1,0.1 c 0.5,-0.9 5,-5.8 8.1,-7.1 l 0,0 z m -158.6,2.4 c 2.4,1.3 4.3,5.8 4.3,5.8 l -2.2,0.2 -2.1,-6 z"
                 id="path3054" /><path
                 style="fill:#e2cf00"
                 d="m 2243,194.3 c 26.8,0.6 83.3,-9.6 82.4,-8.6 0,0 176.5,290.7 169.3,287.8 -2.3,3.6 -224.6,4.4 -224.6,4.4 -4.8,0 46.7,-108.2 -27.1,-283.6 l 0,0 z m 78.7,-205.6 c 85.2,-71.1 174.7,-72 270.7,-82.1 l 1.3,-240.6 34.9,20.7 1.6,220.4 c 126.9,9 236.5,55.1 330.9,136 1.2,1.8 -135.7,75.7 -195.8,95.3 -46.8,-34.1 -170,-55.2 -251.5,-28.5 -22.4,7.3 -49.9,19 -76.6,27.7 18.9,-116.2 -71.8,-133 -103.7,-138.3 -4.1,-0.6 -8.9,-9.2 -11.8,-10.6 l 0,0 z m -109.5,38 c 1.4,-24.8 -0.3,-49.5 -2.3,-74.8 -0.5,-5.8 -49.7,75.5 -52.5,55.8 -7.1,-49.2 17.1,-111.9 55.5,-119.7 3.8,-5.2 80.1,41.6 76.7,82.3 -1.1,13.3 -68,-44.5 -68.3,-41 -1.5,6.8 2.3,97.6 4.4,97.4 19.3,10.7 15.1,24.6 17.3,36.1 51.5,-7.8 48.9,49.3 0.3,47.7 3.3,67.5 -59.5,37.2 -47.3,1.2 -63.1,-2.7 -32.3,-61.8 -0.8,-49 -2,-14.8 1.6,-30.3 17,-36 z m 71.3,-286.6 c -3.6,-1.4 -134.7,-7.6 -134.7,-7.6 l 5.6,-319 c 66.3,-153.8 318.3,-83 278.3,-50.1 -119.9,79.2 -137.6,222.9 -149.2,376.7 l 0,0 z m 241.1,-131.9 -4.1,-35.4 c -10.4,-22 268.2,105.4 271.4,108.1 l 8.2,37.8 c 1.7,16.5 -177.2,-66.7 -275.5,-110.5 l 0,0 z m 505.6,-64.6 c -3.5,143.2 -25.2,240.2 -108,357.5 -2.3,3.9 -25.8,13.7 -27.6,17 12,18.7 79.9,46.1 111.3,60.8 l 162.7,-97.7 c 1.9,0.1 -6.9,-340.1 -6.9,-340.1 l -131.5,2.5 z m 61.2,-155.6 c -21.9,-3.3 -73.1,-55.9 -62.6,-71.9 0.3,-12 63.6,33.7 70.2,46 -3.2,-3.7 -4.1,-112.1 -5.1,-107.8 -2.4,1.3 -19.3,-10.7 -15,-33.4 -48.3,10.9 -45.9,-52 -3.6,-49.6 -5.7,-57.1 64.2,-36.4 45.8,1.9 59.7,-11.2 49.7,55.9 4.5,45.1 3.9,25.4 -6.5,32.5 -21.2,37.6 1,10.7 5.3,81.8 5.3,81.8 0,0 43.9,-67.9 47.1,-62.1 8.7,20.6 -7,129.3 -65.4,112.4 l 0,0 z m -205.8,-248.9 c -19.7,68.8 35.3,147.1 86.9,146.7 10.4,-1.7 30.3,3.9 23.4,9.4 -81.2,66.3 -271.2,80.7 -271.2,77.9 2.3,81 -1,162.8 -2.6,243.7 l -34.9,-20.8 c -1.4,-73.8 -3.5,-149.4 -5.5,-223.2 -121.8,-15.4 -231.4,-54.3 -318.2,-137.4 57.3,-42.8 125.8,-69.6 191.6,-96.7 83,42.6 198.6,67.1 330.5,0.4 z m -61.4,-326.3 c -3.8,-1.7 13.1,-14.3 13.1,-14.3 0,0 141.5,1.3 211.7,0.1 -25.2,105 -6.7,199 26.7,289.1 -8.8,-2 -66.9,2.9 -81,9.3 -2.4,2.3 -168.7,-281.7 -170.5,-284.2 l 0,0 z"
                 id="path3052" /><path
                 style="fill:#d40000"
                 d="m 3242,551 c -2.3,-6.4 -2.3,-7.2 -3.1,-66 -0.7,-59.4 -0.5,-65.9 2.6,-78.2 6.1,-15.4 -11.9,-15.4 -23.3,-17.2 l -0.1,-24.3 c 13.3,-1.9 29.4,1.9 35.4,9.7 13.8,-9.6 22.8,-11.3 32.4,-10.9 32.2,0 46.5,19.9 45.8,58.3 -0.1,6.3 1,14.3 1,14.3 l 17.3,-0.1 0.1,24.6 -18.2,0.1 c 0,0 3.2,60.9 -0.8,82.5 -12.3,47.9 -71.9,51.3 -89.1,7.2 l 0,0 z m 65.6,-8.9 c 3.1,-7.3 2.6,-4.3 2.5,-60.2 l -0.2,-25.6 c -25.6,-5.8 -48.3,-36.4 -48.2,-36.4 0,0 -0.3,-2.9 -0.3,55.1 0,65.8 2.3,69.6 16.3,80.2 13.6,7.6 24.8,-1.1 29.9,-13.1 l 0,0 z m -36.2,-147.8 c 7.8,10.9 17.5,22 29.1,31 4.3,3.4 10.3,4.7 10.3,4.7 0,0 -0.3,-7.4 -0.4,-11.2 -0.3,-23 -16.9,-41 -39,-24.5 l 0,0 z m -772.1,78.8 -172.2,-288.1 25.6,-11.2 177.5,299.6 -30.9,-0.3 z m 446.8,-41.8 c -64.3,-9.9 -82.6,-90.5 -35.7,-166.7 22.2,-36.9 115.2,-174.3 109.7,-169.8 -2.9,-2.5 72.3,105.8 109.9,161.4 35.6,58.6 54.8,154.6 -32.1,172.6 -33.3,6.9 -68,-13 -69.7,-51.9 -0.2,-5.4 -2.5,-9.9 -5.7,-9.9 -2.7,0 -4.5,3.8 -4.5,7.6 -0.9,37.2 -34.1,62.7 -71.9,56.7 l 0,0 z m 300.7,-96.2 c -28.6,-9.4 -33.9,-43.7 -12.7,-83 17.3,-31.2 26.4,-39.3 42.4,-70.3 6.6,-12.8 7.3,-13.1 12.3,-4.4 12,19.7 25.2,41.2 36,57.9 28.2,43.5 33.2,74 15.3,92.4 -16.2,16.7 -50.8,7.2 -51.1,-14.1 0,-1 -0.5,-2.7 -1.1,-3.8 -1.3,-2.5 -3.9,-0.8 -3.9,2.5 -0.1,15.5 -20.8,28.2 -37.2,22.8 l 0,0 z M 2193.4,88.2 2218,62.7 l 24.9,25 -25.8,24.2 -23.7,-23.7 z m 548.2,-164.1 -3.6,-20.6 c 98.7,23.7 179.5,74.1 237.7,129 L 2962,42.7 c 4.3,-1.2 -140.4,-108.9 -220.4,-118.6 z m -286.3,-19.2 31.2,-4.6 -0.8,17.4 -29.7,6.9 -0.7,-19.7 z m 576.8,-15.9 -17.1,-13.7 12.2,-14.6 16.6,13 -11.7,15.3 z m -579.4,-137.7 c 42.2,-20.2 74.9,-101.1 70.8,-106.5 l 23.1,5.4 -52.4,221.5 -40.1,7.4 c -0.3,-42.3 -1.2,-85.5 -1.4,-127.8 l 0,0 z m 279,124.2 c -14.5,-46.5 -43.2,-151.8 -43.2,-151.8 1,3.4 91.9,28.9 124.2,19.4 13.9,18.9 29.2,35.4 45.2,50.6 -33.4,32.9 -75.1,60.5 -126.2,81.8 l 0,0 z m 379.6,-171.1 -16,-13.8 14.3,-17.6 17.6,13.3 -15.9,18.1 z m -208.8,-8.5 c -13.1,-23.3 -14.1,-49.8 9.9,-76 l -9.9,76 z m -496.7,-43.4 c -1,-2.4 5.3,-57.9 6.8,-60.3 2.7,-4.3 8,11.2 10.5,23.1 3.2,14.8 -13.5,46 -17.3,37.2 z m 365.1,-18.6 c 0,0 34.5,-162.9 49.5,-226.8 l 42.8,-11 -5.3,133.7 c -35.1,31.6 -64.1,106.8 -64.1,106.8 l -22.9,-2.7 z M 2206,-391 l -17,-15.8 14.3,-15.8 15,15.2 -12.3,16.4 z m 303.7,-64.6 -46.8,-54.3 c 28.7,-40.3 76.6,-63.7 127.3,-82.1 l 35,152.8 c -39,-11.6 -80.9,-24.2 -115.5,-16.4 l 0,0 z m -238.7,-135.5 11.9,-14.9 15.7,12.3 -11.8,16.5 -15.8,-13.9 z m 560.9,-48.1 30,-4.4 -2.2,20.6 -31.7,5.2 3.9,-21.4 z m -489,-113.8 18.4,-11.6 c 65.1,57.9 136.8,97.8 215,120.3 l 5.3,25.1 c -88.1,-26.7 -171.4,-67.5 -238.7,-133.8 l 0,0 z m 757.4,-26.1 -24.1,-23.6 21.5,-24.1 25.8,22.1 c -8.4,12.8 -23.2,25.6 -23.2,25.6 l 0,0 z m -805.9,-40.7 c -29.9,-45.8 -64.4,-94.5 -91.5,-134.6 -45,-66.7 -57.2,-112 -43.3,-153 22.8,-67.3 121.3,-64.1 128.7,4.1 1.5,13.9 8.1,12.7 9.9,-1.7 9.2,-76 124.8,-66.5 132,14.4 7.6,68.7 -39.7,122.2 -65.8,158.7 -23.2,37.2 -50.2,72.6 -70,112.1 z m -285,-107.7 c -19.6,-32.5 -73.2,-105.9 -22.2,-128.8 18.1,-8.1 41.3,6.2 41.3,21.5 0,6.9 3.8,7.3 4.7,0.1 3.6,-30.1 45.8,-32.5 59.4,-3.4 11.7,34.6 -9,66.3 -38.1,110.9 -6.7,10.2 -22,38.1 -22,38.1 l -23.1,-38.4 z m 957.5,33.7 -180.9,-305.8 26,-0.3 178,294.6 -23.1,11.5 z m -982,-263.8 -18.4,0.1 -0.1,-24.6 18.4,-0.1 c 0,0 0.1,-13.2 0.5,-36.6 0.9,-49.8 2.2,-57.6 16.8,-71.3 28.9,-27.2 77.6,-5.3 77.2,35.4 -0.6,57.5 0.2,112.3 -1.5,120.1 -3,13.7 -3.3,14.5 -2,17 2.5,5 24.5,7.1 24.5,5.7 l 0.1,24.2 c -16.8,1.4 -23.7,-0.2 -37.2,-9.5 -8.3,8 -33.8,16 -54.1,6.7 -15.4,-7 -27.2,-25.4 -24.2,-67.1 z m 62.3,42.7 c -9.2,-12.9 -24.5,-30.5 -39,-36.7 -0.8,14.8 0.5,27.3 5.9,34 8.5,10.7 22.1,13.1 33.1,2.7 l 0,0 z m 7,-142.1 c -6.8,-18.8 -24.2,-25.1 -36.8,-13.3 -7.9,7.4 -9.2,15.1 -9.2,56.9 0,25.8 0,36.6 0,36.6 24.7,7.8 47.9,35.9 47.7,35.6 l 0.3,-78 c 0.5,-12.6 -0.2,-25.3 -2,-37.8 z"
                 id="path3050" /><path
                 d="m 2784.3,-1204.8 -42.9,0.3 245.6,489.2 c 0,0 -6.6,1.1 -19.5,-2.2 -58.6,-15.1 -94.9,-76.8 -81.9,-137.5 1.3,-4.7 1.7,-8.8 1.7,-8.8 -150.6,68.9 -244.1,44.1 -331.4,0.9 l -37.1,14.4 c 2.4,-22.4 29.8,-106.8 71.2,-146.7 l -0.2,-42.5 -1.1,-20.1 -3.4,-36.4 c -61.5,58.4 -133.3,150.2 -141.8,280.3 0,0 -56.1,29.1 -104,61.2 2.7,-0.4 75.1,87.9 248.6,136.9 l -7.7,-28.2 c 25.8,7.1 62.4,12.7 98.9,17.2 l 5.7,221.9 41.5,24.3 0.5,-245.7 c 1.3,1 66,-2.5 100.8,-11 l -4.8,23.7 34.4,-6.9 0.1,17.3 -37.7,9.1 -52.9,229.9 31.3,6.8 c 9,-46.3 32,-83.8 65.4,-106.9 l -0.4,-8.8 c 21.4,-15.5 66.1,-28 66.4,-27.7 15,-74.5 50.3,-126.3 87.8,-175.5 l -18.1,-24.3 68.8,-25.5 -96.3,-162.3 c 36.7,-25.5 109.7,-16.4 109.7,-16.4 -31.6,-84.3 -59.4,-171.3 -29,-299.2 l -266.1,1.3 -2.1,-2.1 z m 87.3,5 c 0,21.4 -27.9,19.3 -31.4,0 l 31.4,0 z m 170.9,-1.3 c -16.5,97.9 -10.6,193.2 29,283.7 0,0 -5.7,0.4 -6.4,0.2 -0.5,-0.1 0.6,-4.9 0.4,-6.2 -0.8,-3.4 -6.4,-1.8 -11.2,1.4 -2.1,1.4 -4.4,3 -5.9,3.7 -4.9,2.4 -29.5,2.4 -29.5,2.4 8,-5.5 19.3,-20.9 12.7,-29.8 -1.5,-1.9 -2.4,-1.1 -3.8,1.5 -7,12.5 -10.4,14.4 -19.8,14.4 -14.7,-0.1 -25.2,-9.2 -24.1,-22.9 1.1,-13.3 20.7,-20.5 17.8,-7.5 -0.7,11.5 10.7,13.7 12.8,2.2 0.8,-4.3 0.2,-2.3 1.1,-7.3 22.8,-12.2 10.1,-36.9 -11.2,-31.6 -5,1.3 -5.6,1.8 -9.2,0 -6.6,-3.4 -12.1,-2.3 -14.5,2.5 -2.2,4.2 1.2,7.5 6.1,7.5 5.1,0 6.1,2.4 6.1,5.5 0,7.1 -12.2,10.5 -20.3,6.4 -21.4,-10.8 -13.6,-39.1 11.2,-39.1 7.5,0 10.7,0.5 11,-1.2 0.9,-4.6 -10.6,-12.4 -17.1,-11.2 -5.5,1.1 -8.8,2.5 -6,-4.8 1.8,-7.6 1.7,-11 0.2,-16.7 -4,-8.1 -3.9,-3.9 -6.3,2.6 -8.1,13.6 -20.4,16.6 -31,9.2 -9.9,-6.8 -9.6,-19.9 -0.3,-29.2 6.5,-6.5 13.5,-2.1 9.6,5.1 -1.6,3 -0.3,6.7 2.6,7.4 5.9,1.5 9.5,-2 9.5,-9.1 -0.1,-3.9 -1.2,-4.8 5.8,-8.8 18.2,-10.5 4.4,-38.9 -16.1,-29.7 -4.5,2 -5.6,4 -7.6,3.1 -8.6,-8.1 -21,2.2 -13.6,7.6 3.2,1.5 7,2.1 8,2.2 1.8,1 1.2,3.5 -1.4,6.7 -8.5,10.1 -27.9,5.2 -32.5,-9 -5.4,-16.4 11.4,-33.7 24.3,-24.2 3.8,2.8 7.1,3.1 7.1,-1.1 0,-6.5 -8.3,-14 -18.7,-13.2 -10.6,0.8 -9.5,2.2 -3.7,-7.5 4.2,-8.6 3.6,-16.9 -0.1,-22 -2.9,-3.9 -5.8,-4.7 -5.5,-0.6 2.4,12.7 -12.5,24.9 -24.7,19.6 -11.8,-5.2 -17.7,-18.4 -11.9,-29.8 5.3,-10.6 18.2,-11.7 16.1,-0.4 -1,7.2 4.5,10.9 9.7,6.7 1.9,-1.5 2.4,-2.9 2.5,-7.5 0.1,-5.2 -2,-6.7 1.3,-9.7 8.7,-1.2 9.2,-19.7 7.9,-20.5 -0.4,0.2 139.6,-1 139.6,-1 z m -156.1,1.2 c 5.5,0 10.1,1.8 10.2,7.4 0,5.5 -4.4,10 -10,10 -5.5,0 -10,-4.4 -10.1,-10 0,-5.5 4.4,-7.4 9.9,-7.4 z m -98.1,1.1 22.3,-0.1 176.9,292.3 -20.8,10.2 -178.4,-302.4 z m 36.6,10.1 c 10.7,6 20.5,11 33.9,12.3 -3.9,8 -7.4,16.6 -8,31.5 l -25.9,-43.8 z m 36,58.9 c 10.9,3.8 20.3,9.7 38.1,3.7 -9.5,8.5 -14.9,18.6 -18.8,29.2 l -19.3,-32.9 z m 91.6,35 c 5.1,0 9.3,4.1 9.3,9.2 0,5.1 -4.1,9.3 -9.2,9.3 -5.1,0 -9.3,-4.1 -9.3,-9.2 0,-5.1 4.1,-9.3 9.2,-9.3 z m -56.8,23.3 c 7.8,2.9 16.1,4.7 25.2,4.3 -4.5,6.2 -6,15.7 -6.2,26.4 l -19,-30.7 z m 27.1,46.1 c 7.3,3.5 15.9,8.6 31.1,6.9 -10,17.2 -7.8,21.9 -8.8,29.4 l -22.3,-36.3 z m 88.2,33.7 c 5.4,0 9.7,4.3 9.8,9.7 0,5.4 -4.3,9.7 -9.7,9.8 -5.4,0 -9.7,-4.3 -9.8,-9.7 0,-5.4 4.3,-9.8 9.7,-9.8 z m -54.5,22 c 6.7,3.7 19.8,5.8 19.9,4.8 -0.8,-0.6 -3.7,12.7 -4.2,21 l -15.7,-25.8 z m 30.8,49.8 c 9.5,5.5 19.9,5 26.1,5.6 -6.6,1.3 -12.7,3 -19.8,5.8 l -6.3,-11.4 z m 111.6,54.3 c -22.7,1.6 -28,19 -25.2,36.7 -17.4,-2.7 -36.7,13.8 -31.2,33.9 5.2,19.1 23,19.7 35.2,18.3 -0.9,4.6 -3.4,20.2 15.4,33.3 l 2.9,99 c 0,0 -8.3,-7.6 -13.8,-13 -23.7,-23.5 -59.4,-40.4 -57.1,-27.1 0.3,2 1.1,6.9 1.7,11 3.8,22.4 34.1,46.5 54.6,58.6 7.4,4.1 11.9,8.4 11.9,8.4 -38.2,41.2 -58.7,85.1 -63.7,128.6 -4.6,40.4 -8.3,76.8 -12,113.9 -14.9,186.1 -94.6,233.2 -98.4,242.4 l -1.4,24.8 -22.3,-1.6 -25.5,22.5 c 84.3,43.1 133.6,95.4 132.9,96.4 67,-44.3 124.8,-93.3 179.3,-144.1 l -2.7,-414.3 c 0,0 -4.5,1.7 -5.7,1.7 -4.2,0 -4.7,1.9 -6.1,9.8 -0.8,4.2 -3.3,8.2 -5.2,11 -3.7,5.3 -2.4,2.6 2.3,4.5 10.8,4.3 -3.1,24.1 -18.4,26.6 -11,1.8 -17.2,3.8 -19,6.4 -23.1,20.4 -46.3,23.7 -63.8,16.3 -8.6,-3.6 -18,-9 -21.2,-17.9 -7.3,-20.3 7.6,-49.7 16.3,-66.6 16,-31.1 42.6,-54.5 42.6,-54.5 l -4.4,-4.7 c 0,0 5.3,0.1 6.2,-0.3 23,-8.5 24.5,-8.6 28.7,-14.7 4.2,-6.1 14.9,-23.6 17,-29.4 11.7,-30.9 13.3,-32.9 13.2,-53.1 -0.1,-16.4 -1.2,-27.3 -4.4,-28.2 -18.1,14 -36.4,46.6 -47,65.9 -3.8,-28.4 -5.1,-78 -5.1,-78 3.8,-4.3 25.7,-2 20.7,-37.6 19.3,8.6 39.5,-4.7 38.5,-23.3 -1.4,-28.8 -23.6,-27.9 -41.7,-24.2 8.8,-17.6 -7.7,-38.5 -24.1,-37.4 z m -0.4,2.5 c 23.8,0.6 28.6,26.9 14.1,41.8 0,0 -9.5,-7.2 -14.5,-11.3 -4.7,3.8 -6.1,7 -11.3,10.8 -6.2,-4.5 -10,-12.6 -10.1,-20.4 0.3,-12.2 12.6,-21.2 21.8,-20.9 l 0,0 z m -542.5,2.9 c 96.3,53.3 216.8,56.7 326.9,1.5 l -1.3,9.1 -12.1,6.9 6.9,12.5 3.8,-1.8 0.1,8.3 c -90.7,49.5 -243,60.2 -362.6,-20.9 l 10.4,-4.9 c 0,0 2.3,1.6 4.6,3 4.4,2.7 11.5,7 16.3,9.1 l 7.2,-10.4 c 0,0 -11,-6.7 -10,-7.1 l 9.8,-5.3 0,0 z m 8.5,16.4 -5.5,12.5 13.8,7.3 5.2,-12.6 -13.5,-7.2 z m -52.3,1.6 c 148.3,92.3 286,64.1 368.6,25.8 l 1.1,9.9 c -106.6,45.8 -246.9,58.6 -380.9,-30.7 l 11.2,-5 z m 348.4,4.6 -13.1,5.3 5.3,12 13.5,-5.8 -5.7,-11.5 z m -366,3.7 c 120.6,77.1 249.6,91.8 388.4,34.4 l 5.4,14.8 c -135.2,54.9 -278.1,49.2 -409,-42.7 l 15.2,-6.5 z m 92.4,0.1 -5.3,13 14.9,5.6 4.3,-12.8 -13.9,-5.8 z m 252.9,4.4 -13,4.3 4.1,12.4 13.5,-4.6 -4.6,-12.1 z m -230.1,4.4 -3.2,13.1 15.2,4.2 2.6,-13.1 -14.6,-4.2 z m 550.8,19.4 c 2.1,22.2 -30.8,33.1 -43.2,12.4 l 10.8,-13.2 -9.8,-9 c 13.2,-21 40.2,-11 42.2,9.8 z m -684.5,-18.1 36,24.5 -25.9,40.6 -38.7,-25.8 28.6,-39.3 z m 621.8,-1.3 22.9,19.7 -20.8,24.5 -21.5,-21.5 19.4,-22.7 z m -14.2,6.8 -12.8,14.9 13.9,14.7 c -16.4,17.5 -40.9,6.8 -40.8,-14.5 0.2,-16.4 25.2,-32.4 39.7,-15.1 z m -265.6,-4.7 -13.7,4.1 3.2,12 14.1,-3.7 -3.6,-12.4 z m -184.6,4.4 -2.5,12.9 15.7,3.3 2.6,-12.9 -15.8,-3.3 z m 162.1,1.6 -14.6,3.2 2.5,12.8 14.6,-3.1 -2.5,-12.9 z m 303.8,1.9 -12,11.8 12,12.4 12,-12.5 -12,-11.7 z m -440.6,2 -1.8,13 16.5,2.2 1.2,-13.2 -15.9,-2 z m 110.9,1.4 -14.8,1.7 1.5,12.7 15.4,-2 -2.1,-12.4 z m -87.5,1.8 -0.1,13.3 14.4,1.1 0,-13.2 -14.3,-1.2 z m 63.7,1 -14.5,0.6 0.1,12.9 14.8,-1 -0.4,-12.5 0,0 z m -264.5,1.2 c -8.5,0 -15.4,7 -15.4,15.5 0,8.5 7,15.4 15.5,15.4 8.5,0 15.4,-7 15.4,-15.5 -0.1,-8.6 -7,-15.4 -15.5,-15.4 z m 240.2,-0.5 -14.2,0.2 0.1,13.1 14.7,0 -0.6,-13.3 0,0 z m 377.9,-1.4 6.3,6.2 -6.2,6.2 -6.4,-6.1 6.3,-6.3 z m -618.1,7.3 c 5.6,0 10.1,4.5 10.2,10.1 0,5.6 -4.5,10.2 -10.1,10.2 -5.6,0 -10.2,-4.5 -10.2,-10.1 -0.1,-5.6 4.5,-10.2 10.1,-10.2 z m -54.9,1 20.6,16.6 c -6.5,12.5 -27.1,39 -27.1,39 l -38.1,-30.3 19.8,-11.3 c -1.1,2.1 -1.7,4.4 -1.7,6.9 0,8.4 6.9,15.1 15.2,15.1 8.4,0 15.2,-6.8 15.1,-15.2 0,-8 -6.3,-14.6 -14.2,-15.1 l 10.4,-5.7 z m -11.5,10.8 c 5.6,0 10.2,4.5 10.2,10.1 0,5.6 -4.5,10.2 -10.1,10.2 -5.6,0 -10.2,-4.5 -10.2,-10.1 0,-5.6 4.5,-10.2 10.1,-10.2 z m 697.9,2.1 c 0,0 5.6,2.1 7,4.2 11.1,16.9 -0.3,37 -18.8,36.7 -21.6,-0.4 -27.3,-27.4 -12.6,-38.5 l 12.1,11.3 12.3,-13.7 z m -560.5,9 42.6,16.1 -15.9,46.2 -46.5,-18.9 19.8,-43.4 z m -174.7,5.5 c 174,155.5 420.4,165.8 599,61.4 l 10.9,-0.3 5.8,5.9 c -203.5,121.4 -457.1,96.1 -628.9,-58.4 l 13.2,-8.6 z m 477.5,7.5 13.9,45.6 -47,12.6 -10.7,-46.2 43.8,-12 z m -495.3,3.6 c 52.8,50.5 127.4,94.7 214.9,119.5 l 2.2,18.7 c -92.9,-27.5 -163.1,-64.4 -231.6,-128.7 l 14.5,-9.5 z m 203.8,-0.1 c -8.4,0 -15.2,6.9 -15.1,15.2 0,8.4 6.9,15.1 15.2,15.1 8.4,0 15.2,-6.8 15.1,-15.2 0,-8.4 -6.8,-15.1 -15.2,-15.1 z m -75.6,3.7 43.9,23 -21.7,43.8 -46.7,-24.8 24.5,-42 z m 75.4,1.3 c 5.6,0 10.2,4.5 10.2,10.1 0,5.6 -4.5,10.2 -10.1,10.2 -5.6,0 -10.2,-4.5 -10.2,-10.1 -0.1,-5.6 4.5,-10.2 10.1,-10.2 z m 72.6,5.9 42.1,6 -1.8,46.7 -49.2,-5.7 c 2,-16.5 8.9,-47 8.9,-47 z m 203.5,0.4 c -8.4,0 -15.2,6.9 -15.1,15.2 0,8.4 6.9,15.1 15.2,15.1 8.4,0 15.2,-6.8 15.1,-15.2 0,-8.4 -6.8,-15.1 -15.2,-15.1 z m -0.2,5 c 5.6,0 10.2,4.5 10.2,10.1 0,5.6 -4.5,10.2 -10.1,10.2 -5.6,0 -10.2,-4.5 -10.2,-10.1 0,-5.6 4.5,-10.2 10.1,-10.2 z m -342.5,2 c -8.4,0 -15.2,6.9 -15.1,15.2 0,8.4 6.9,15.1 15.2,15.1 8.4,0 15.2,-6.8 15.1,-15.2 0,-8.4 -6.8,-15.1 -15.2,-15.1 z m 269.3,-1 6.2,46.9 -46,2.5 -2.9,-46.8 42.7,-2.6 z m 329.7,2.9 6.5,0 c 0.8,40.4 4.1,87.1 8.9,121.6 0.7,5.1 1,6.7 0.5,7.6 -4.5,8 -9.8,-2 -11.9,-25 -0.6,-6.3 -1.3,-15.5 -2.1,-21.6 -2.3,-18.3 -1.9,-82.6 -1.9,-82.6 z m -777.4,3.7 c -69,43.4 -183.6,146.9 -183,149.3 l 2,396.1 9,0.4 7.4,-14.6 c -11.5,-2.8 -8.4,-24.5 13.6,-28.9 3.8,-0.8 15.2,-4.7 18,-6.8 16.7,-12.8 43.8,-20.5 62.9,-15.5 27.8,7 33.6,27.4 20.4,63 -10.4,28.1 -31.2,64 -50.8,74.3 -1.6,0.8 -5.1,2.6 -5.1,2.6 0,0 4.6,4.1 6.2,5.2 53.9,-31.4 80.8,-143.6 79,-213.3 1.9,-71.4 13.9,-143.1 42.6,-195.3 47.3,-86.3 110.2,-121.2 109.8,-121.5 0.2,0 -84.9,-51.3 -132,-95 z m 178.3,-0.6 c 5.6,0 10.2,4.5 10.2,10.1 0,5.6 -4.5,10.2 -10.1,10.2 -5.6,0 -10.2,-4.5 -10.2,-10.1 -0.1,-5.6 4.4,-10.2 10.1,-10.2 z m 420.1,0 16.6,43.5 -45.5,18.8 -16.6,-45.7 45.5,-16.6 z m -262.2,1.2 c -8.4,0 -15.2,6.9 -15.1,15.2 0,8.4 6.9,15.1 15.2,15.1 8.4,0 15.2,-6.8 15.1,-15.2 0,-8.3 -6.8,-15.1 -15.2,-15.1 z m 92.7,3.4 c -8.4,0 -15.2,6.9 -15.1,15.2 0,8.4 6.9,15.1 15.2,15.1 8.4,0 15.2,-6.8 15.1,-15.2 0,-8.3 -6.8,-15.1 -15.2,-15.1 z m -92.9,1.6 c 5.6,0 10.2,4.5 10.2,10.1 0,5.6 -4.5,10.2 -10.1,10.2 -5.6,0 -10.2,-4.5 -10.2,-10.1 -0.1,-5.6 4.5,-10.2 10.1,-10.2 z m 92.7,3.4 c 5.6,0 10.2,4.5 10.2,10.1 0,5.6 -4.5,10.2 -10.1,10.2 -5.6,0 -10.2,-4.5 -10.2,-10.1 -0.1,-5.6 4.5,-10.1 10.1,-10.2 z m 155.1,4.6 c -8.4,0 -15.2,6.9 -15.1,15.2 0,8.4 6.9,15.1 15.2,15.1 8.4,0 15.2,-6.8 15.1,-15.2 0,-8.3 -6.8,-15.1 -15.2,-15.1 z m -0.2,5 c 5.6,0 10.2,4.5 10.2,10.1 0,5.6 -4.5,10.2 -10.1,10.2 -5.6,0 -10.2,-4.5 -10.2,-10.1 -0.1,-5.6 4.5,-10.2 10.1,-10.2 z m -322,2.1 45.6,11.5 -10.4,47.8 -51.5,-13.5 16.3,-45.8 z m 576.4,-3.5 c 7.5,23.3 -6,53.3 -6.7,55.3 -8.2,23.5 -18.1,42.7 -21.7,43.9 -3.1,1.2 -4.4,0.4 -4.4,-2.5 0,-4.4 10.1,-34.5 18,-53.9 1.9,-4.7 6.4,-19.1 6.4,-21.5 0,-3.6 -3.5,2.3 -7.2,11.3 -7.3,18.1 -17.9,37.5 -20.1,55 -1.6,14.3 -4.3,12.3 -6.4,-4.7 -2.9,-23.6 2.3,-35.8 28.7,-68.9 6.2,-7.9 12.7,-16 13.4,-14 z m -334.7,13.4 13.4,46.7 -53.7,9.4 -8.6,-47.4 48.9,-8.7 z m -225.2,5.6 c -8.4,0 -15.2,6.9 -15.1,15.2 0,8.4 6.9,15.1 15.2,15.1 8.4,0 15.2,-6.8 15.1,-15.2 0,-8.3 -6.8,-15.1 -15.2,-15.1 z m 80.4,2.7 48.7,2.6 0.6,48.6 -52.9,-2.1 3.6,-49.1 z m -80.5,2.3 c 5.6,0 10.2,4.5 10.2,10.1 0,5.6 -4.5,10.2 -10.1,10.2 -5.6,0 -10.2,-4.5 -10.2,-10.1 -0.1,-5.6 4.4,-10.2 10.1,-10.2 z m 204.4,3.5 c -8.4,0 -15.2,6.9 -15.1,15.2 0,8.4 6.9,15.1 15.2,15.1 8.4,0 15.2,-6.8 15.1,-15.2 0.1,-8.3 -6.8,-15.1 -15.2,-15.1 z m -100.9,4.3 c -8.4,0 -15.2,6.9 -15.1,15.2 0,8.4 6.9,15.1 15.2,15.1 8.4,0 15.2,-6.8 15.1,-15.2 0,-8.3 -6.9,-15.1 -15.2,-15.1 z m 100.8,0.7 c 5.6,0 10.2,4.5 10.2,10.1 0,5.6 -4.5,10.2 -10.1,10.2 -5.6,0 -10.2,-4.5 -10.2,-10.1 -0.1,-5.6 4.4,-10.1 10.1,-10.2 z m -101,4.3 c 5.6,0 10.2,4.5 10.2,10.1 0,5.6 -4.5,10.2 -10.1,10.2 -5.6,0 -10.2,-4.5 -10.2,-10.1 -0.1,-5.6 4.5,-10.1 10.1,-10.2 z m 332.2,1.7 c 0.8,0 1.9,0.1 2.6,0.1 10.9,-0.2 47.7,26 57.1,42 7.9,14.1 3.8,19.7 -5.2,7.1 -12.4,-13.7 -35.4,-34.1 -38.3,-34.1 -3.1,0 1.2,4.4 15.8,18.6 14.5,14 29.8,32.3 29.8,35.6 0,2.2 -2.9,1.9 -7,-0.6 -9,-5.5 -16.9,-11.1 -20.9,-14.9 -2.4,-2.3 -7,-6.4 -10.3,-9.3 -13.5,-11.8 -29,-38.9 -24.7,-44.2 0.2,-0.3 0.6,-0.3 1.1,-0.3 z m -679.7,6.5 c 9.4,-0.3 20,5.6 20.5,16.5 0.3,7.7 0.9,8.3 7.8,8.4 6.7,0.1 25.9,2.3 25.9,2.3 l 0.2,21.6 c 0,0 -9.3,0 -20,-0.5 -18.2,-0.8 -18.2,-0.8 -20.4,7.2 -0.9,3.2 -2.2,4.8 -5.8,7.2 -16.3,10.8 -32.2,-8.6 -22.1,-27.1 3.5,-6.3 3.7,-8.5 1.2,-12.3 -5,-10.9 1.5,-22.7 12.7,-23.3 z m 4,11 c -2,0 -4.2,0.9 -6.2,2.9 -2.7,2.7 -2.7,10.3 0,14.8 2.6,4.2 2.5,5.4 -0.5,8.2 -5.3,5 -5.4,14.7 -0.2,18.4 4.7,3.3 9.7,-1.1 9.7,-7.9 0,-7.4 5.2,-7.3 5.2,-7.3 l 34.3,0.5 0.1,-5.6 -24.9,-1.1 c -3.5,0 -7.1,-0.3 -9.8,-2.1 -2.8,-1.9 -6.1,-5.3 -3,-9.5 4.3,-5.9 0.5,-11.3 -4.7,-11.3 l 0,0 z m -74.2,13.1 16.4,27.6 18.9,0.6 1.7,16.8 23.1,14.7 -23.5,13.9 -1.1,16.9 -17.9,2.3 -16.5,20.8 -16,-20.7 -17.5,0.2 -0.3,-17.3 -24.2,-15.4 26.3,-14.9 -0.4,-19.8 18.7,-1.3 c 0.1,-0.1 12.3,-24.4 12.3,-24.4 z m 574.1,10.3 0.8,16.7 -26.6,4.8 3.4,-17 22.4,-4.5 z m -170.4,17.5 35.8,1 -1.2,234.2 c 0,0 -7.1,0 -8.4,0 l -0.2,-9.1 -11.5,0.4 -11.7,-7 -2.8,-219.5 z m -403.5,7.5 -20.9,26.7 25.6,22.2 22.3,-26.1 -27,-22.8 z m 414.3,1.9 0,10.8 15,-0.1 0,-10.8 -15,0.1 z m -413.8,10.9 14.9,10.8 -11.2,14.9 -14.3,-12.3 10.6,-13.4 z m 574.3,3.9 0,128.2 c -49.1,38.8 -64.2,106.9 -64.2,106.9 l -20,-1.1 50,-226 34.2,-8 z m -267,3.9 c -44.2,21.3 -88.8,37.4 -132.6,87.9 17.1,15.3 35.1,30.8 51.2,56.8 36.6,-5.6 77.3,0.8 121.8,18.1 l -40.4,-162.8 z m 106.6,2.4 0,11.2 15,-0.1 0,-11.2 -15,0.1 z m -498.1,18 c 1.1,3.4 1.5,7.1 1.5,7.1 32.5,-2.9 24.3,34.9 3.6,36.3 -2.4,0.3 2,6.7 6.9,8.7 12.3,5.1 21.2,1.8 29.2,-9 6.2,-8.3 6.5,-9.5 6.5,-9.5 l 20.1,10.5 c 0,0 0.6,-0.3 -2.9,8.9 -6.4,16.8 3.1,37.3 10.3,22.3 3.8,-8 15.2,-12.6 23.1,-9.3 9.2,3.8 12.5,20.2 6.1,30.6 -1.9,3.1 -2,3.8 -0.8,6.7 1.8,4.4 3,15.6 1.1,19.2 -2.4,4.7 -5.3,5.8 -10.8,2 -7.6,-5.2 -11.8,-7.4 -25,-11 -23.1,-4.3 -27.7,-12.4 -37,-31.4 -27.4,8.3 -68.4,-8.7 -63.1,-49.4 2.4,-9 3.1,-26.2 -1.5,-29.7 -9,-6.9 0.8,-16.9 14.3,-18.5 10.9,-1.1 16.3,9.4 18.4,15.5 z m 387.4,-13.2 36.2,149 c -39.2,-14.2 -77.6,-25.2 -111.5,-16.8 -15.6,-24.8 -29,-36.9 -46.3,-53 33.5,-40.6 76.1,-63.4 121.6,-79.2 z m -403.1,8.8 c -2.3,0 -4.9,1 -7.6,3.4 0,0 2.4,2 3.7,4.7 2.1,4.4 2.1,4.4 -0.2,14.1 -10.7,38.9 15.2,64.5 51.8,53.1 9,-2.8 8.6,-2.5 11.3,8.1 4.3,17.4 16.7,26.3 41.1,29.5 1.5,0.2 4,0.7 6,1.9 10.8,6.8 6.3,-2.3 3.4,-5.8 -2.1,-2.8 -6,-5.5 -6,-5.5 0,0 3.3,-2.1 4.8,-3 6.9,-3.7 9.4,-18 3.7,-21.1 -5.2,-2.8 -14,1.5 -14,6.8 0,9.7 -12.3,10.8 -23,2.8 -13.8,-10.3 -1.7,-36.5 -1.6,-36.5 l -7.8,-3.4 c 1,0.9 -16.3,25.7 -37.7,17.2 -15,-6 -25.6,-23.2 -18.7,-28.2 5,-1.4 11.1,1.4 14.9,-1.6 7.6,-6 1.4,-16.5 -9.5,-16.1 -2.3,0.1 -7.5,1.1 -7.5,1.1 0.6,-4.9 1.8,-8.3 1.2,-13.1 -0.6,-4.6 -3.9,-8.3 -8.3,-8.4 l 0,0 z m 514,9.4 0,9.2 14.9,0 0,-9.2 -14.9,0 z m -0.1,18.9 0,9.5 15,-0.1 0,-9.5 -15,0.1 z m 0.1,20.4 0,9.7 15,-0.1 0,-9.7 -15,0.1 z m 0.1,19.1 0,10.2 15,-0.1 0,-10.2 -15,0.1 z m 0.1,19 0,9.6 15,-0.1 0,-9.6 -15,0.1 z m 0,19.5 0,9.7 15,-0.1 0,-9.7 -15,0.1 z m -488.6,11.4 12.7,21.3 15,0.6 0.7,14.7 25.6,19.4 -22.3,16.1 -1.6,15.8 -17.7,0.6 -14.2,24.2 -17.7,-21.2 -14.2,-2.2 -1.7,-19.3 -21.9,-16.3 20.5,-16.5 1.6,-17.2 16.7,1.4 18.5,-21.4 z m 831.8,6.9 c 1.4,0 2.9,0.4 4.5,1.2 5.3,2.7 7,3 20.8,3.6 16,0.7 21.7,2.2 29.6,7.4 4.8,3.2 5.1,3.2 10.2,-0.3 22.4,-15 48.1,-1.5 50.1,26.2 0.5,7.3 1.3,10.2 4.2,16.3 2,4.2 4,7.6 2.9,10.3 -3.6,8.3 -20.9,8.9 -30.4,-3.4 -1.7,-1.8 -3.4,-2.6 -5.8,-2.6 -4.7,1.8 -16.7,-7.6 -16.6,-8 -1.1,6.6 -1.6,11.8 -2.8,21.3 l -21,-0.2 c 0,0 -0.5,-3.8 -1.5,-17.2 -1.2,-15.4 -5,-19.9 -9.9,-11.6 -8.4,14.4 -31,8.2 -32.3,-8.9 -0.5,-5.8 -0.8,-6.5 -4,-9 -10.6,-8 -7.6,-25.2 2,-25.1 z m -343.1,2.2 0,8.6 15,-0.1 0,-8.6 -15,0.1 z m 345.5,7.8 c -4.2,0.3 -1.8,7.7 5.1,11.6 3.9,2.2 3.9,2.2 3.4,9 -0.9,12.3 11,18.3 16.3,8.2 0.9,-1.8 1.3,-4 0.9,-5.5 -2.2,-8.9 17.1,-6.6 21.8,2.7 1.1,2.1 2.3,7.8 2.9,13.5 0.6,5.4 0.7,11.7 0.7,11.7 l 6.2,0 c 0,0 -0.1,-3.7 0.3,-7.3 1.5,-15.3 8.2,-25 17.3,-25 3.9,0 4,0.7 1.3,5.7 -4.6,8.5 -0.1,14.7 10.7,14.7 6.8,0 6.8,0 9.4,4.9 2.8,5.3 4.9,7 7.5,6 1.8,-0.7 1.9,0.3 -0.6,-17.8 -3.7,-27.1 -19.5,-34.3 -41.2,-18.9 -6.1,4.4 -7.5,4.2 -13,-1 -8.2,-7.9 -13.4,-9.7 -29.4,-10.2 -7.6,-0.3 -15.1,-1 -16.7,-1.6 -1.1,-0.5 -2.1,-0.7 -2.9,-0.7 z m -516.3,9.8 c -3.6,0.1 -7.7,0.8 -11.3,1.2 4.1,20.9 6,41.8 7.9,62.8 18.3,-3.3 42.1,-0.4 73.4,14.1 19.3,8.9 42.8,24.1 67.4,41.3 26.7,18.6 58,29.5 84.6,35.2 32.4,6.9 58.4,6.2 57.7,4.7 -1.4,0.2 -11.9,-51.3 -10.6,-62.3 -44.8,-3.9 -88.1,-20.4 -121.2,-42.7 -43.9,-29.8 -94.5,-55.4 -147.9,-54.3 l 0,0 z m 170.9,1.1 0,8.7 15,-0.1 0,-8.7 -15,0.1 z m -493.3,3.6 -23.7,24.9 26,24.4 21.9,-25.1 -24.2,-24.2 z m -0.6,11.3 13.5,12.9 -10.8,13.8 -15.2,-13 12.5,-13.7 z m 335.4,0.7 c 3.2,0 6.3,2.2 16.8,8.1 8.8,6 15.8,9.8 13.3,0.3 2,-2.7 11.8,6.1 23.3,11.7 13.9,11 13.9,8.4 15.7,2.8 1.8,-4 4.4,-1.3 15.5,8.9 14.6,13.4 13.3,13.4 16.2,10.1 3.3,-6.3 4.4,-6.2 16.3,7.3 12.4,13.7 15,16.6 17.6,10.7 4,-3.1 6.1,-0.1 22.9,15.5 8.2,8.2 10.2,6.9 11.7,1.4 1.6,-5.7 2,-4.4 15.9,6.5 16.1,12.8 17.7,13.7 18.3,9.3 1,-7.1 6,-4.6 22.6,7.2 10,7.1 13.8,9.1 16,7.3 2.2,-3.9 -5.5,-11.2 10.7,-4.3 l 4.5,23.4 -5.6,-1.6 c -3.4,-1 -11,-3.5 -8.1,3.8 1.7,4.2 -2.4,3.7 -15,-3.7 -18,-10.6 -21.3,-13.1 -22.7,-10.9 -2.3,8 -2,8.5 -14.2,-0.9 -14.1,-10.6 -17,-13.6 -18.9,-9.9 -0.2,8.1 -4.2,6.5 -17.4,-4.8 -11.2,-9.7 -13.5,-14.7 -18.5,-7.3 -1.4,2.6 -2.7,1.9 -4.6,0.6 -6.5,-4.8 -19.5,-18.4 -23.2,-22.4 -2.9,-3.1 -4.5,-2.1 -6.9,0.5 -2.2,2.4 -2.4,1.7 -9.6,-4.9 -17.2,-15.7 -20.4,-19.6 -22.8,-17.4 -1.9,3.7 -0.1,8.7 -13.3,-1.6 -16.6,-11.8 -23.7,-17.1 -22.6,-9.3 -2.8,3.5 -0.8,4.2 -17.4,-4.9 -15.7,-8.6 -17.7,-11.2 -20,-8.2 -1.5,4.7 -6.8,3.1 -6.8,2.8 l -3.3,-23.8 5.7,0 c -0.1,-0.1 5.4,-2.3 7.9,-2.3 l 0,0 z m -126.1,2.5 c -1.2,3.7 -9.8,25 -9.7,79.1 1,1.3 21.4,-19.6 22.3,-39.1 0.9,-18.3 -12.5,-40.1 -12.6,-40 z m 284.6,0.4 0,9.9 15,-0.1 0,-9.9 -15,0.1 z m -283.5,8.9 c 19.2,30.2 -1.7,58.9 -7,60.9 0,-22.8 3.3,-44.2 7,-60.9 z m 501.6,23.5 c -31.3,19.9 -26,73.5 -10.6,87.1 1.1,0 10.8,-57.9 10.6,-87.1 z m -4.3,6.6 -8.2,69 c -11,-12.1 -13.1,-48.4 8.2,-69 z m 198.1,10.9 16.7,20.8 14.8,1 3.3,15 21.6,17.4 -21.5,14.7 -1.8,16.7 -16,1.7 -15.8,25 -15.6,-24.4 -14.9,-1.5 -0.5,-16.1 -23.4,-17.2 22.3,-13.5 0.4,-18.2 17.5,0 12.9,-21.4 z m -587.6,8.8 c -10.3,50.2 -35.4,84.6 -70.8,107.8 l 0.2,5.1 -59.8,24.2 c -12.9,61.2 -36.2,121 -85.4,177.1 l 13.9,27.9 -66.8,23.2 96.3,163.7 c 6.6,0 -46.3,25.2 -110.2,19 40.8,98.9 49.6,201.4 27.5,291.3 L 2579.7,478.8 2338.6,10 2334.7,2.4 c -3.3,-6.1 127.3,17.9 100.1,139.1 -0.4,2.8 0.6,3.2 2.2,2 25.3,-21.9 193.6,-83 328.6,-3.7 l 39.9,-16.7 c -18.8,66.7 -40.2,112.6 -76.6,153 l 6.6,94.8 c 64.3,-53.1 134,-150.4 142.9,-279.4 29,-14.3 54.2,-30.5 81.3,-45.7 l 3.6,1.1 17.5,-10.6 C 2924.3,-25 2809.3,-83.3 2735.7,-98.5 l 4.4,20.8 c -40.6,-10.7 -71,-13 -102.6,-16.3 l -5.7,-220.7 -41,-23.9 -0.3,243.4 c -30.6,0.5 -100.8,12.8 -100.8,12.8 l 3.1,-20.8 -32.2,6.7 -0.6,-20.3 36.3,-10.6 51.9,-223.8 -26.6,-6.8 z m 4.4,4.9 16.8,3.3 -51.4,219.5 c 0,0 -29.3,8.2 -31.1,7.1 -2.5,-41.1 -3.7,-124.9 -3.7,-124.9 51.5,-43.1 59.4,-73.6 69.4,-105 z m -358.3,17.5 c 7.9,-0.1 16.4,5.6 16.9,10.7 1.4,3.2 2.5,4.5 4.6,4.8 13.2,1.8 13.6,5.3 14,12.9 -1.8,14.6 7.9,2.3 10.6,-12.2 0.3,-1.5 0.1,-12.6 0.1,-12.6 l 16.1,-0.2 c 0,0 0.6,11.5 0.8,13.4 1.5,11.2 6.3,20.2 9.6,14.3 11.3,-20.4 37.3,-10.1 33.3,9.5 -1,4.6 -0.9,4.9 2.3,8.5 5.2,5.7 7.1,11.8 5.4,17.1 -1.6,5.2 -5.3,6 -13.1,2.9 -3.7,-1.5 -8.1,-2 -20,-2.3 -16.8,-0.4 -17.9,-0.7 -24.4,-7.1 l -4.1,-4 -7.1,4.2 c -11.8,7 -22.6,7.3 -35.2,0.9 -8.2,-4.2 -13,-14.2 -14.3,-29.8 -0.3,-8.3 -2.6,-14.3 -7.8,-16.3 -2.8,-2.6 0.3,-7.8 5,-12.6 2.1,-1.3 4.6,-2 7.3,-2.1 z m 940.3,-1.3 -22,27.7 26.4,23.5 24.4,-28.9 -28.8,-22.3 z m -513.2,6 30.8,17.4 4.8,217.5 -34.7,-0.8 -0.9,-234.1 0,0 z m -426.3,4.7 c -2.3,0.2 -0.9,4 0.9,9.7 1.6,5.1 2,8.3 1.5,11.8 -3.2,23.9 24.2,35.9 43.9,19.3 5.2,-6 6.1,-5.6 10.5,0.8 5.4,6.8 13.3,8.9 29.8,7.9 7.5,-0.5 12.6,3.5 15.8,0.8 2.4,-1.7 0,-6.3 -4.5,-8.9 -2.8,-1.6 -2.9,-1.9 -2.4,-7.5 1.3,-14.1 -10.3,-17.8 -18.5,-5.9 -6.8,9.9 -17.1,3.4 -20.5,-12.8 -2,-12.5 -3.6,-12.3 -5,-1.4 -1.6,13.3 -19,27.7 -25.9,21.2 -1.9,-1.9 -1.9,-1.4 0,-8.1 2.5,-8.5 0.5,-11.7 -8.9,-13.9 -1.5,-0.4 -3.3,-1.6 -3.9,-2.8 -4.9,-7.6 -4.7,-10.2 -12.8,-10.2 l 0,0 z m 941.7,1.4 14.1,12.1 -12.2,14.5 -15,-11.4 13.1,-15.2 z m -505.8,9.7 0,10 0,0.3 13.1,-0.1 0,-10.3 -13.1,0.1 z m 0.1,20.7 0,9.9 0,0.9 13.1,-0.1 0,-10.8 -13.1,0.1 z m 79.1,12.2 c 14.9,54.6 30,109.1 44.9,163.6 14,-5.6 94.7,-41.8 132.6,-87.9 -1.4,0.1 -34.8,-32.2 -46.5,-53.2 -38,6.4 -81.8,-1.4 -131,-22.5 z m -79,6.8 0,9.8 0,0.3 13.1,-0.1 0,-10.1 -13.1,0.1 z m 87.3,2.4 c 34.8,10.2 79.3,24.3 120.3,16.9 10.6,18.9 26,34.5 43.3,48.9 -30.9,33.9 -75.6,59.8 -121.9,79.8 L 2691.9,-273 Z m 329.8,2.6 c 1.7,0 3.5,0.7 5.2,2.2 5.5,4.9 9.8,6.5 21,8.3 18.1,2.9 31.9,14.1 35.9,29.2 1.7,6.3 2.6,6.7 11.6,4.4 34.1,-8.7 60.5,19.5 52.6,57.3 -2.8,13.2 -3.7,14.8 0.3,20 8.7,9.3 10.6,9.4 1.1,17.7 -8.6,7.8 -25.8,4.1 -29.5,-8.5 -3.5,-6.9 -3.5,-7.4 -9.2,-8.3 -22.3,-3.5 -21.5,-34.3 -0.5,-37.9 1.8,-0.3 3.1,0 3.9,-0.4 5.9,-2.7 -6.6,-16.8 -16.8,-14.6 -12.6,2.7 -18.9,10.8 -23.8,23.5 l -19.9,-11.3 c 4.9,-10.3 8.6,-23.6 4.2,-31.8 -3.5,-6.9 -8,-7.2 -9.3,-0.5 -3.1,15.6 -22.5,20.4 -35.3,7.7 -7.1,-7.1 -8,-14.7 -2.8,-25 3.4,-6.7 3.4,-7.1 2,-9.9 -5,-9.7 1.7,-22.1 9.3,-22.1 z m -417,14.3 0,10.5 13.2,-0.1 -0.1,-10.5 -13.1,0.1 0,0 z m 419.5,-0.7 c -4,0 -4,4 -0.2,8.8 3.3,3.4 4,4.9 -0.6,7.8 -5.7,5.4 -7,13.4 -3,19.5 6,9.2 19.8,4 18.1,-6.8 -1.1,-7.6 4.8,-11 14.3,-8.2 13.8,4.1 20.4,19.5 15.1,35 -1,2.9 -3,9.8 -3,9.8 l 4.1,2.5 c 0,0 4.8,-7.7 6.7,-10.1 15.6,-19.3 52.7,-9.7 48.6,14.4 -0.6,7.6 -0.6,8.6 -8.8,6.3 -5.5,-2.8 -10.7,3.1 -10.6,10.4 0.3,6.6 6,11.8 13.9,10.8 6.3,-1.2 7.9,-1 7.4,7.5 0.7,5.9 2.9,9.8 6.7,11.8 9.4,3.8 14.2,-1.5 6.7,-9.3 -4.5,-4.7 -4.3,-12 -1.5,-18.9 3.4,-8.2 1.5,-26.3 -3.7,-36.5 -7.6,-14.7 -28.6,-20.7 -46.2,-13.3 -8,4.3 -8.9,5.3 -9.7,-2.2 -4.5,-18.7 -18.6,-32.8 -36.2,-34 -6.7,-0.7 -13.8,-4.4 -18.1,-5.3 l 0,0 z m -419.5,20.7 0,9.7 13.2,-0.1 0,-9.7 -13.2,0.1 z m 0.1,19 0,10.7 13.1,-0.1 0,-10.7 -13.1,0.1 z m 0.1,21 0,10.7 c 0,0 7.2,-0.2 13.1,-0.1 l 0,-10.7 -13.1,0.1 z m 428.7,15.5 14.5,21.2 15.9,1 1.9,17.1 24.2,14.9 -20.9,13.2 -0.1,16.6 -19.9,1.8 -17.5,23.4 -15.1,-20.6 -15,0.1 -3.6,-18.4 -26.6,-13.4 27.2,-15.6 -0.8,-19.3 18.5,-0.2 17.3,-21.8 0,0 z m -428.6,4.2 0,11 13.1,-0.1 0,-11 -13.1,0.1 z m 0.1,20.1 0,10.9 13.1,-0.1 0,-10.9 -13.1,0.1 z m 420.5,6.5 -20.5,27.5 27.8,22.8 22,-27.8 -29.3,-22.5 z m -420.5,12.6 0,11.9 13.1,-0.1 0,-11.9 -13.1,0.1 z m 422.7,-0.2 14.4,11 -10.2,13 -14.3,-10.8 10.1,-13.2 z m -422.6,22.2 0,10 13.1,-0.1 0,-10 -13.1,0.1 z m -390.6,2.8 c -25.3,0.2 -49.1,41.3 -54.7,60.7 -6.7,24.9 -7.5,69.9 -1.1,71.1 22.6,-16.4 33.3,-44.1 50.2,-64.9 2.7,23.9 2.5,70.1 2.5,70.1 0,0 -10.1,5.3 -15.5,13.7 -3.9,7 -5.1,15.3 -1.7,23.1 -12.6,-4 -35.4,0.7 -36.7,24 0.9,32.8 36.7,28 36.9,27.6 -0.8,-0.2 -6.9,34.9 24.9,38.5 11.4,1.3 31.4,-7.1 25.3,-39 20.1,3.2 37.3,-7.9 37.5,-27.2 0.2,-13.2 -9.9,-24.6 -27.2,-24.6 -3.6,0 -11.2,1.7 -11.2,1.7 0.2,-1.9 6.8,-22.5 -16.5,-37.2 l -4,-94.9 c 0,0 8.1,8.7 11.7,12 15.5,14.2 25.6,21.3 43.5,30.6 17.4,9.1 15.3,6.8 12.2,-10.5 -8.3,-26.1 -25.5,-45.8 -61.9,-70.3 -4.8,-3.2 -9.5,-4.6 -14.2,-4.5 l 0,0 z m 2.5,2 5.6,134.2 -7.5,0 -7,-134.1 8.9,-0.1 z m 744.6,1.6 c 0.7,0 1.4,0 2.1,0.1 16.4,1.3 20.7,19.6 13.3,27.8 -2.9,3.2 -3.9,3.9 -2.4,5.9 7.1,8.9 3.2,23 -3.7,25.1 -22.1,7 -25.5,-5.1 -25.5,-19.3 l -34.1,-1.1 0.1,-19.9 37.6,0.6 c -2.8,-9.2 2.6,-18.8 12.6,-19.2 l 0,0 z m -760.4,3.1 c 0.1,0 0.3,0 0.4,0 3.5,0.3 -0.1,9.8 -9.9,24.2 -6.6,9.8 -15.8,27 -18.6,33.9 -6,15.2 -10,42.4 -5.9,37.4 3.6,-11.4 4,-16.1 7.1,-24.3 4.1,-10.7 23.4,-45.8 27.2,-49.3 3.3,-3 4.1,-1.2 4.1,8.7 -0.1,22.2 -10.5,45.6 -35.5,73 -4.2,4.6 -9.7,9.6 -10.1,9.6 -2.4,0 -2.4,-5 -2.4,-15.6 0,-41.9 15.4,-79.5 39.3,-95.7 1.9,-1.1 3.3,-1.8 4.3,-1.9 z m 25.4,1.9 c 11,3.2 30.8,20.8 39,29.8 9.5,10.1 22.2,38.3 20,42.6 -0.7,1.9 -2.3,1.6 -7.8,-1.5 -35.1,-19.6 -60.3,-43.8 -53.7,-51.7 1.8,-2.2 9.4,2.3 19.5,11.6 6.9,6.1 13.9,12.2 20.2,18.3 9.9,9.7 12.1,11.1 6.1,0.3 -5.4,-9.7 -20.5,-25.8 -38.8,-39.5 -7.5,-5.5 -9.2,-10 -4.5,-9.9 l 0,0 z m 737.2,2.8 c -0.5,0 -0.9,0.1 -1.2,0.2 -6.9,2.9 -4,11.8 -4.7,18.7 l -37.9,-1.2 -0.1,5.3 35.5,1.8 c 0.6,5.4 -2.1,16.9 2.5,18.9 10,4.1 15.3,-8.7 6.9,-16.4 -3,-2.7 -6.3,-3.8 2.1,-7.6 5.5,-4.7 6.3,-13.9 1.6,-18 -1.4,-1.2 -3.3,-1.8 -4.7,-1.7 l 0,0 z m -479.2,3.4 -1.9,14 -21.8,5.6 -0.6,-15 24.3,-4.6 z m 259.2,3.9 c 81.2,21.5 171.5,70.8 230.3,126.6 l -11.7,7.7 c -61.1,-56 -141.5,-98.3 -215.3,-119.2 l -3.3,-15.1 z m -139.8,2.7 c 133.6,-0.9 255.5,50.6 354.1,134 l -16,10.2 c -89.9,-73.7 -189.4,-122.8 -323,-128.1 -87.3,-3.5 -186.9,19.3 -284.9,73.7 l -7.4,-13.3 c 95.2,-52.3 188.8,-75.9 277.2,-76.5 l 0,0 z m -10.4,20.2 52.5,1.3 -3.1,48.8 -47.8,-1.4 -1.6,-48.7 z m -56.5,3.7 7.6,47 -45.7,8.7 -13.1,-47.1 51.2,-8.6 z m 166.3,5.6 52.2,13.7 -17,48 -45.9,-12.9 10.7,-48.8 z m -83.6,1 c -8.3,0 -15,6.8 -14.9,15.1 0,8.3 6.8,15 15.1,14.9 8.3,0 15,-6.8 14.9,-15.1 0,-8.3 -6.8,-14.9 -15.1,-14.9 z m 0,5.2 c 5.5,0 10,4.3 10,9.8 0,5.4 -4.4,9.9 -10,9.9 -5.5,0 -10,-4.4 -10,-9.8 0.1,-5.5 4.5,-9.9 10,-9.9 z m -103.6,0.5 c -8.3,0 -15,6.8 -14.9,15.1 0,8.3 6.8,15 15.1,14.9 8.3,0 15,-6.8 14.9,-15.1 -0.1,-8.3 -6.8,-15 -15.1,-14.9 z m 0,5.2 c 5.5,0 10,4.3 10,9.8 0,5.4 -4.4,9.9 -10,9.9 -5.5,0 -10,-4.4 -10,-9.8 0.1,-5.5 4.5,-9.9 10,-9.9 z m 206.7,5.2 c -8.3,0 -15,6.8 -14.9,15.1 0,8.3 6.8,15 15.1,14.9 8.3,0 15,-6.8 14.9,-15.1 -0.1,-8.3 -6.9,-14.9 -15.1,-14.9 z m -290.8,2.9 15.6,45.8 -44.2,18.1 -16.8,-45.3 45.4,-18.6 z m 290.8,2.3 c 5.5,0 10,4.3 10,9.8 0,5.4 -4.4,9.9 -10,9.9 -5.5,0 -10,-4.4 -10,-9.8 0,-5.5 4.5,-9.9 10,-9.9 z m 86.8,10.6 47.1,24.6 -24.1,44 -43.9,-22.6 20.9,-46 z m -393.3,5.5 c -8.3,0 -15,6.8 -14.9,15.1 0,8.3 6.8,15 15.1,14.9 8.3,0 15,-6.8 14.9,-15.1 0,-8.2 -6.8,-14.9 -15.1,-14.9 z m 177.5,0.8 2.4,46.3 -41.6,3.1 -7.7,-46 46.9,-3.4 z m 49.9,2.2 47.4,6.4 -11,44.7 -42.9,-6.7 6.5,-44.4 0,0 z m -227.3,2.2 c 5.5,0 10,4.3 10,9.8 0,5.4 -4.4,9.9 -10,9.9 -5.5,0 -10,-4.4 -10,-9.8 0,-5.5 4.4,-9.9 10,-9.9 z m 155.3,5.4 c -8.3,0 -15,6.8 -14.9,15.1 0,8.3 6.8,15 15.1,14.9 8.3,0 15,-6.8 14.9,-15.1 -0.1,-8.2 -6.8,-14.9 -15.1,-14.9 z m -75.7,2.2 12.5,45 -45.8,13.3 -14.2,-43.3 47.5,-15 z m 165.9,0.1 c -8.3,0 -15,6.8 -14.9,15.1 0,8.3 6.8,15 15.1,14.9 8.3,0 15,-6.8 14.9,-15.1 -0.1,-8.3 -6.8,-15 -15.1,-14.9 z m -90.2,2.9 c 5.5,0 10,4.3 10,9.8 0,5.4 -4.4,9.9 -10,9.9 -5.5,0 -10,-4.4 -10,-9.8 0,-5.5 4.5,-9.9 10,-9.9 z m 90.2,2.2 c 5.5,0 10,4.3 10,9.8 0,5.4 -4.4,9.9 -10,9.9 -5.5,0 -10,-4.4 -10,-9.8 0.1,-5.4 4.5,-9.8 10,-9.9 z m 160.5,-0.5 c -8.3,0 -15,6.8 -14.9,15.1 0,8.3 6.8,15 15.1,14.9 8.3,0 15,-6.8 14.9,-15.1 -0.1,-8.2 -6.8,-14.9 -15.1,-14.9 z m -81.2,4.7 45.9,15.5 -18.1,42.9 -43.9,-16.5 16.1,-41.9 z m 81.2,0.5 c 5.5,0 10,4.3 10,9.8 0,5.4 -4.4,9.9 -10,9.9 -5.5,0 -10,-4.4 -10,-9.8 0,-5.5 4.5,-9.9 10,-9.9 z M 2478,2.5 c -8.3,0 -15,6.8 -14.9,15.1 0,8.3 6.8,15 15.1,14.9 8.3,0 15,-6.8 14.9,-15.1 C 2493,9.2 2486.3,2.5 2478,2.5 Z m 0,5.2 c 5.5,0 10,4.3 10,9.8 0,5.4 -4.4,9.9 -10,9.9 -5.5,0 -10,-4.4 -10,-9.8 0,-5.5 4.5,-9.9 10,-9.9 z m 277.6,7.7 c -8.3,0 -15,6.8 -14.9,15.1 0,8.3 6.8,15 15.1,14.9 8.3,0 15,-6.8 14.9,-15.1 -0.1,-8.2 -6.8,-14.9 -15.1,-14.9 z m 0,5.2 c 5.5,0 10,4.3 10,9.8 0,5.4 -4.4,9.9 -10,9.9 -5.5,0 -10,-4.4 -10,-9.8 0,-5.5 4.5,-9.9 10,-9.9 z M 2219,27.9 c 12,0.5 21,11.2 21.6,22.4 0.4,8.5 -10.4,19.7 -10.4,19.7 l -12.7,-11.7 -12.1,11.2 c -2,0.7 -11.5,-15.3 -8.7,-23.6 3.8,-10.8 11.5,-18.4 22.3,-18 z m 681.1,-2.7 36.4,29.5 c 0,0 -15.9,9.7 -18.8,11.5 0.4,-1.3 0.5,-2.7 0.5,-4.1 0,-8.3 -6.8,-15 -15.1,-14.9 -8.3,0 -15,6.8 -14.9,15.1 0,7.1 5,13.1 11.7,14.6 -3.7,2.2 -8.7,4.9 -8.7,4.9 l -19.2,-16 28.1,-40.6 z m -57.1,79.6 -16,6.6 C 2728,46.9 2592.7,11.9 2438.4,77.8 L 2433,65 c 114.5,-48.1 259.2,-63.5 410,39.8 z m -9,-64.8 39,23.7 -24.5,38 L 2810.4,77.6 2834,40 Z m -11.5,73.5 -16.3,6.2 C 2685.3,42.7 2556.8,47.3 2442.1,94.2 l -1.8,-10.9 c 135,-59 270.8,-40.9 382.2,30.2 l 0,0 z m 80.7,-61.1 c 5.5,0 10,4.3 10,9.8 0,5.4 -4.4,9.9 -10,9.9 -5.5,0 -10,-4.4 -10,-9.8 0,-5.4 4.5,-9.8 10,-9.9 z m -701.6,20.5 -13.4,13.6 12.3,13.7 c 0,0 -3.9,3.3 -6.7,4.8 -16,8.8 -33.6,-4.9 -32.8,-19.8 1.1,-21.7 27.3,-32.1 40.6,-12.3 l 0,0 z m 638,-12.8 c -8.3,0 -15,6.8 -14.9,15.1 0,8.3 6.8,15 15.1,14.9 8.3,0 15,-6.8 14.9,-15.1 0,-8.2 -6.8,-14.9 -15.1,-14.9 z M 2255.8,63 c 11.9,0 21.2,9.2 22.4,19.7 0.9,8.4 -3.4,16.5 -12.8,22.2 -12.8,7.8 -27.7,-4.7 -27.4,-5.5 l 10.7,-10.7 -13,-13.2 c -0.3,-0.2 8.6,-12.6 20.1,-12.5 l 0,0 z m -37.3,2.7 22.2,21.9 -23.3,21.9 -21.7,-21.7 22.8,-22.1 z m 582.9,56.4 -12.4,5.7 -16.9,-10.1 -5,9.6 9.4,5.9 -9.8,3.7 c -112.9,-62.9 -240.2,-44 -324.6,-1.7 0,0 0.7,-6.5 0.8,-6.5 l 9.2,-4.7 -3.5,-11.6 -4.9,1.5 -0.4,-12.9 c 120.6,-55 257.7,-43.1 358.1,21.1 l 0,0 z m 38.3,-56.8 c 5.5,0 10,4.3 10,9.8 0,5.4 -4.4,9.9 -10,9.9 -5.5,0 -10,-4.4 -10,-9.8 0,-5.5 4.4,-9.9 10,-9.9 z m -621.6,10.3 -11.7,11.8 11.8,12.5 11.4,-12.1 -11.5,-12.2 z m 368.8,1.1 -15.4,0.7 0.9,12.6 15.1,-0.4 -0.6,-12.9 z m 10.5,0.1 0.3,12.6 14,-0.1 -0.1,-12.4 -14.2,-0.1 0,0 z m 24.9,0.1 -0.6,12.5 13.9,0.6 1,-12.5 -14.3,-0.6 z m -60,1.8 -15.8,1.8 1.8,12.6 15,-1.8 -1,-12.6 z m 85.9,-0.1 -1.1,12.9 14.3,1.6 1.9,-12.4 -15.1,-2.1 z m -430,1.7 6.9,7.3 -6.8,6.8 -7.3,-7.1 7.2,-7 z m 317.4,2.6 -15.2,2.5 1.7,13 14.9,-3 -1.4,-12.5 z m 138.4,-0.5 -2.5,12.1 14.2,3.4 2.3,-12.3 -14,-3.2 z m -163.3,5.9 -12.8,3.5 2.8,12.7 13.5,-3.4 -3.5,-12.8 z m 187.6,-0.2 -2.6,12.3 14.5,3.9 2.9,-11.8 -14.8,-4.4 z m -208.8,6.9 -13.4,4.8 3.5,11.7 13.6,-4.6 -3.7,-11.9 z m 233.8,0.4 -4.4,11.8 12.6,5 5.5,-10.7 -13.7,-6.1 z m -255.9,7.9 -12.7,5.3 5.3,11.6 12,-5.5 -4.6,-11.4 z m -262.1,1.4 12.9,12.8 15.2,-13.9 c 13.4,11.7 13.3,39.4 -10.3,44.1 -20.6,4.1 -39.6,-26.7 -17.8,-43 l 0,0 z m 541,0.4 -4.9,10.8 13.9,6 4.7,-10.4 -13.7,-6.4 z m -394.6,70.9 175.8,296.2 -27.6,-0.4 -170.2,-286.2 22,-9.6 z m -28.6,11.4 9.7,15 c -19,-15 -46.7,-2.2 -45.5,16.8 1,8.5 8.1,13.6 8.1,5.4 -0.9,-8.5 11.2,-16 19.9,-15.6 16.2,0.1 26.2,20.9 15,31.3 -7.3,6.8 -17.3,6.5 -13.9,-2.8 0.5,-3.2 0.2,-4.4 -1.3,-5.7 -4.7,-4.2 -13.2,1.3 -11.1,7.4 1.4,4 1.8,5 -3,8.3 -18.5,13.1 -5.5,38.7 16.9,26.9 4.6,-1.7 6.4,-1.9 8.5,-1.1 9.3,3.6 15.7,-4.6 6.8,-8.7 -5.2,-2.4 -5.3,-6.6 -0.4,-9.9 10.6,-7.1 27.1,3.9 27.1,18 0,10 -13.2,17.5 -25.8,14.6 -7.5,-1.7 -8.4,3.4 -1.5,8.7 13.4,10.2 33.4,1.6 39.3,-16.8 1.9,-5.8 1.6,-7 1.6,-7 l 17.9,29.4 c 0,0 -5.5,-2.6 -8.9,-3.6 -16.8,-5.1 -35.6,5.9 -35.6,20.8 0,7 4.2,9.7 6.5,4.2 5.4,-12.8 17.1,-17.8 29.2,-12.5 11.2,4.9 16.3,16.2 12,26.3 -4.5,10.6 -19.8,13.7 -18.1,3.8 0.8,-4.8 -2.1,-7.7 -7.2,-7.2 -1.9,0.2 -4.4,5.8 -3.7,8.5 0.6,2.5 0.2,3.1 -6.3,8.3 -15.5,12.2 -3.5,32 15.9,26.2 3.3,-1 4.5,-0.9 7.4,0.5 7,3.4 14.4,1.2 14.4,-4.2 0,-3.7 -1.7,-5.1 -6.1,-5.1 -6.7,0 -5.3,-7.5 2.1,-11.3 18.5,-9.3 37.4,13.9 26.3,32.2 -4.8,7.8 -7.9,8.7 -25.2,6.8 -2.8,-0.3 -4,1.6 -2.4,3.9 5.1,7.2 20.4,9.5 29.2,5.4 9.6,-4.4 15.3,-15.3 16,-27 l 19.7,34.1 c -15.3,-15.8 -41.5,-9.7 -45.6,13.1 0,5.8 5.3,8.8 7.1,4 7.8,-20.6 37.9,-14.4 37.9,7.8 0,3.6 -0.7,5.6 -3,8.7 -5.5,10.7 -19.6,13.3 -17,3.8 1.1,-3 -1.1,-6.2 -5,-7.1 -3.8,-0.9 -6.2,2.3 -6.1,8.1 0.1,4.4 0.1,5.7 0.1,5.7 -7,3 -11.5,8.8 -13,17.4 l -136.8,0.8 c 15.9,-94.9 11.7,-180.5 -19.7,-261.4 -2.7,-7 -6.6,-17.2 -6.6,-17.2 l 24.2,0.5 c 5.8,5 27.9,3 36.4,-4.9 l 13.6,-3.6 z m 23.3,37.1 14.2,25.3 c -5.9,-3.3 -11.8,-5.5 -20.9,-6.3 4.8,-7 5.1,-13.3 6.7,-19 z m -37,27.2 c 5.1,0 9.3,4.1 9.3,9.3 0,5.1 -4.1,9.3 -9.3,9.3 -5.1,0 -9.4,-4.1 -9.4,-9.3 0.1,-5.1 4.2,-9.3 9.4,-9.3 z m 97.7,75.4 13.7,24.2 c -6.6,-2.8 -12.2,-5.5 -22.6,-5.8 3.8,-4.4 7,-11.8 8.9,-18.4 z m -39.1,26.1 c 4.9,0 8.9,3.9 8.9,8.8 0,4.9 -3.9,8.8 -8.8,8.8 -4.9,0 -8.8,-3.9 -8.8,-8.8 -0.1,-4.8 3.8,-8.8 8.7,-8.8 z m 98.9,75.1 20.2,35.6 c -7.9,-4.5 -16.5,-10.2 -27.1,-9.1 5,-10.8 7.8,-16.8 6.9,-26.5 l 0,0 z m -26.6,44.6 -21.6,0.2 c 4.3,-18.9 21.7,-14.1 21.6,-0.2 z m 20.4,-9.1 c 7.3,0.3 13.7,2.8 17.6,9.2 l -27.1,0.2 c 0,-0.1 0.2,-9.4 9.5,-9.4 l 0,0 z"
                 id="path3048" /></g></g></g></g></g><g
       id="CropMarks" /></g></svg>