<?xml version="1.0" encoding="UTF-8" standalone="no"?>
<svg
   xmlns:dc="http://purl.org/dc/elements/1.1/"
   xmlns:cc="http://creativecommons.org/ns#"
   xmlns:rdf="http://www.w3.org/1999/02/22-rdf-syntax-ns#"
   xmlns:svg="http://www.w3.org/2000/svg"
   xmlns="http://www.w3.org/2000/svg"
   height="312.79669"
   width="224.1967"
   xml:space="preserve"
   enable-background="new 74 -106.5 744.1 1052.4"
   viewBox="74 -106.5 224.19671 312.79668"
   y="0px"
   x="0px"
   id="svg4423"
   version="1.1"></metadata><defs
     id="defs18" /><g
     transform="translate(-259.948,-369.82555)"
     id="layer1"><g
       transform="translate(-512.47115,-1384.075)"
       id="g3952"><g
         transform="translate(-1317.9825,1164.3989)"
         id="g4646"><path
           style="fill:#ffffff;stroke:#000000;stroke-width:0.99669999"
           d="m 2175.5,483.5 202,0 c 5.9,0 10.6,4.8 10.6,10.6 l 0,290.6 c 0,5.9 -4.8,10.6 -10.6,10.6 l -202,0 c -5.9,0 -10.6,-4.8 -10.6,-10.6 l 0,-290.6 c 0,-5.9 4.7,-10.6 10.6,-10.6 z"
           id="rect6369-0" /></g><g
         transform="matrix(0.15386615,0.00170829,-0.00170829,0.15386615,610.08566,1850.3974)"
         id="g4371"><g
           transform="translate(3352.9594,67.402835)"
           id="g4067"><g
             transform="translate(-509.04064,9.6924595)"
             id="g4378"><path
               style="fill:#e2cf00"
               d="m -635.4,431.9 147.8,-277 c 0,0.1 36.7,13.6 79.5,24.2 -39.8,107.3 2.5,247.7 2.5,247.7 0,0 -229.9,4.9 -229.8,5.1 z M -1055.1,-34 c -9.9,-116.9 -11.4,-230 6.8,-323.9 0.3,-1.5 -54.2,-32.2 -48.7,-35.9 8.5,-5.6 114.8,-62.5 114.8,-62.5 0,0 7.3,4 13.5,3.3 4.9,-0.5 9.4,-5 7.4,-9.7 -4.6,-11.1 -12.9,-38.8 -8.4,-66.8 2.6,-16.1 11.1,-33.9 20,-44.8 19.9,-24.4 66,-12.1 79.3,-12.7 8.5,-0.3 33.1,-90.3 -7.9,-106.5 -11.3,-4.5 -36.5,57.1 -18.4,70.6 2.7,2 -36.3,-20 -66.2,-33.1 -2.8,-1.2 -15,-10.4 -17.9,-22.7 -3.6,-15.3 45,-45.5 35.2,-62.7 -14.3,-25.1 -50.9,-62.5 -66.2,-51.9 -14.5,13.4 -49.1,40.8 -48.7,59.2 11.3,33 39,35 53.9,66.2 3.7,6.7 30.8,34.9 30.8,34.9 -9.9,15.5 6.7,42.2 7.4,38 l -127.5,-53.9 c 0,0 31.5,218.5 1.2,251.2 -3.2,3.5 27.1,-8.9 27.6,-7 9.4,11.6 112.6,75.6 142.2,98.7 51.3,-73.2 70,-105.4 136.4,-170.6 14.6,-12.3 47.2,-34.9 65.7,-61.9 14.9,-21.6 20.8,-45.9 17.9,-64.6 -3.8,-24.2 -6.1,-40.8 -21.3,-60 -35.1,-44.3 -90.6,-86.3 -89.7,-87.1 l 18.6,-15.5 c 0,0 68.5,55.4 97.7,96.4 19.7,27.6 11.3,59.6 28.1,65.1 4,1.3 31.4,-1.3 40.5,0.4 1.1,0.2 201.3,138.2 165.4,146.7 -49.7,11.7 -129.3,5.3 -129.3,5.3 -57.4,-54.8 -85,-72.7 -118.6,-54.9 0,0 -84.9,75.9 -133.7,135.2 -27.8,33.8 -50.9,75.9 -69.5,103 -7.2,10.5 -99.2,-76 -98.1,-65.5 14.6,95.1 23.6,209.7 14,287.5 -6.4,66.1 -15.5,137.2 -19.2,198.1 0,0 15.2,-4.6 26.9,-0.6 6.3,2.2 11,8 11.6,14.4 3.7,29 -33.7,22.6 -34.6,20.1 0,0 21.3,44.5 21.3,44.5 0,0 -31.7,56.1 -30.9,53.7 0.5,-1.5 -30,-49.2 -30,-49.2 0,0 22.3,-40.4 25,-48.8 1.7,-5 -32.6,17 -35.6,-14.3 -3,-31.5 37.4,-23.5 35.6,-19.6 -5.3,-64.6 -16.9,-131.4 -24.4,-185.8 l 0,0 z m 488,140.2 c 0.9,-0.7 -86.2,-33.8 -165.9,-29.7 -28.2,-10.6 -74.1,-21.5 -104.5,-0.8 -34.6,-22.9 -64.6,-48.2 -95,-73.2 8.4,-0.2 37.8,-203.9 57.7,-275 -10.2,-87.9 74.6,-88.8 82.8,-18.4 92.4,93.4 205.4,189.9 321.7,284.7 -17.9,38.1 -83.7,67.9 -96.8,112.4 l 0,0 z m 192.9,-624.8 C -479.5,-623.6 -699.6,-811 -699.6,-811 l 100.9,-100.7 c 53.7,15.4 108.9,28.1 171.2,28 0.2,0.2 68.5,30.1 104.4,-1.2 l 95,73.6 c 0,0 -36.8,205.8 -58.9,277.8 0.8,28.4 -9.6,63.1 -37.6,68.5 -23.9,4.7 -42.7,-29 -49.6,-53.6 z m 207.8,-248.2 c 10.1,-66.9 11.8,-115.5 18.5,-193.5 -46.8,14.3 -46.9,-49 -0.6,-32.9 l -21.9,-46.9 31.1,-53.4 29.6,50.1 -24.5,45 c 52.1,2 40.1,50.4 -4.9,39.3 9.3,74.5 28.7,149.7 28.6,223.5 17.4,118.2 -16.7,283.2 -10.7,287 l 51.1,34.3 -5.8,257.5 -80.5,-34.2 -23.7,16.3 c 7.8,15.1 17.7,29.5 21.2,45.9 0,0 55.7,44.8 48.2,59 3.6,2 -38.6,59.2 -51.2,57.9 -24,-2.4 -52.4,-33.1 -60.4,-55 -7,-22.1 49.1,-44.5 41.8,-60.6 -8.7,-19.3 -30.3,-28.4 -49.4,-33.9 -26.3,-7.6 -38.5,-28.2 -39.7,-28.2 0,0 -9.3,82.4 -19.2,75.9 -39.8,-26 -13.7,-110.3 -6.4,-108 0,0 17.3,3.8 37.7,5.5 71.8,6.7 66,-81.4 51.6,-123.9 -3.6,-10.1 1.9,-10.2 1.5,-10.4 -3.3,-1.1 11.6,-0.4 24.2,-4.3 34.7,-10.7 87.7,-46.7 87.7,-46.7 -56.4,-30.5 -106.3,-65.4 -151.1,-98.5 0,0 -40.4,70.8 -88.8,120.1 -35.2,35.9 -40.8,48.1 -99.9,94.4 -1.1,0.9 -44.5,53.9 -22.9,115 18.5,52.3 105.2,108.2 104.6,112 l -16.8,16.4 c 0.7,0.9 -122.7,-74.6 -120.8,-157.4 -0.2,-3.1 -55.7,-3.6 -55.7,-3.6 l -163.2,-147.8 137.1,-2.1 70.9,56.6 43.9,1.8 c 2.9,2.5 4.3,-11.6 42.7,-40.9 73.2,-55.9 163.2,-198.3 163.2,-198.3 0,0 97.5,66.9 97.6,66.9 -6.1,-102.1 -23.8,-211.7 -14.7,-299.9 l 0,0 z m -357.7,-478.8 c 0,0 -98.4,189.9 -152.6,279.4 l -78.4,-21.5 c 31.8,-87.2 -1.4,-252.3 -9.7,-256.3 l 240.7,-1.6 z"
               id="path4075" /><path
               style="fill:#131f67"
               d="m -1124,-1249.9 24.8,1699.6 1055.4,-12.4 -21.9,-1699 -1058.3,11.8 z m 747.2,1223.6 c 49.6,-47.1 98.6,-86 144.6,-114.4 17.8,-11 23.3,-12.7 30.4,-6.3 11.6,10.3 18.9,19.4 15.2,26.7 -0.8,1.7 -3.5,4.4 -3.5,4.4 l -27.8,-10.2 9.3,31.3 c -24.8,10.4 -24,37.3 0.1,51.3 l -16.1,38.2 38.2,-17.3 c 1.6,8.3 29.2,28 45.9,-0.5 l 34.9,16.5 -12.3,-42.4 c 11.3,-11 17.7,-28.4 -0.4,-44.2 l 7.9,-33.4 -31.2,10.5 c -8,-10.6 -12.5,-9.9 -14.4,-12.8 -0.6,-4 -0.8,-13.3 -6.1,-21.8 -4.4,-7.1 -9.4,-14.5 -14.1,-19.8 -2.5,-4.1 -0.5,-4.5 11.9,-11.4 5.8,-3.2 10.7,-6.5 10.7,-6.5 0,0 62,30.2 87.3,41.7 l 7.8,569.5 -338.3,2.8 C -436.1,312.5 -409.9,214.1 -400.2,172.7 -418,171.4 -509.8,142.8 -512.6,132.6 -477,74.9 -428.4,22 -376.8,-26.3 l 0,0 z m -656.4,173 c -44.3,-13.8 -44.1,39.4 -21.5,43.2 5.9,1 12,1.8 21.1,-1.2 2.3,0.4 -25.9,44.8 -25.9,44.8 0,0 23.4,41.5 34.6,59.1 l 34.1,-62 -23.2,-42.4 c 35.8,17.7 53.6,-36.4 16.2,-43.1 -9,-1.1 -19,3.5 -19,3.5 l 17.6,-184.8 c 15.9,10.6 45.1,31.8 45.1,31.8 7.7,101.6 3.8,186.4 62.3,333.7 l 1.7,102.9 -195.2,2.2 -6.7,-537.5 34.4,24.1 c 0.8,3 -5.4,1.1 -1.7,38.4 3.3,33.8 14.3,92.3 26.1,187.3 l 0,0 z m 685.7,-1389.5 c 1.6,2.2 1.5,5.6 2.9,10 8.2,26.2 36,57.5 58,65.6 7.7,2.8 10.7,7.2 6.3,11.7 -5.5,5.7 -28.8,-9.4 -46,-29 -15.7,-17.8 -26.2,-32.6 -28.6,-43.9 -1.4,-6.7 -2.2,-11 -1.2,-14.5 2.8,-3.9 6.4,-2.9 8.6,0.1 z m 27.3,-3.1 c 2.9,0 6.8,3.3 9.2,9.5 5.8,14.8 14.7,25.9 28.6,35.4 3.7,2.5 5.2,6.3 3.3,8.6 -0.7,0.8 -1.6,1.3 -2.6,1.5 -10.7,3.1 -39.4,-29.3 -41.9,-49.6 -0.4,-4.4 1.1,-5.4 3.4,-5.4 l 0,0 z m 35.2,0 c 5.7,-0.1 8.6,11.8 5.3,18.1 -2.1,2 -6.9,-1 -11.2,-8.8 -3.7,-6.7 -2.3,-9.2 5.9,-9.3 z m -19.2,0.4 c 1.3,-0.1 3.9,-0.8 5.3,1.1 2.3,12.3 11.7,21.1 19.2,28.2 1.3,2.3 1.9,7.2 -0.8,8.5 -6.5,2.9 -26.3,-19.1 -26.5,-31.9 -0.1,-3.9 1.1,-5.8 2.8,-5.9 z m -24.7,8.1 c 7.1,22.4 23.9,40.6 38.9,49.9 10.7,6.6 14.8,10.4 10,14 -1.2,0.9 -2.4,1.5 -2.7,1.5 -25,-9.2 -56,-44.9 -57.3,-70.4 5.2,-7 10.1,0.7 11.1,5 z m -85.1,98.6 c -13.1,0.2 -29.1,3.3 -42,9.4 -18,8.4 -22.5,13.9 -19.8,15.9 1.9,1.4 13.5,-3.8 19.4,-4.6 31.5,-8.2 53.1,-10.3 73.8,-1.6 16,6.8 16,3.6 5.2,-7.8 -7.9,-8.3 -21.7,-11.5 -36.6,-11.3 z m 111.4,16 c 10.4,-0.2 21.1,2.1 25,6.9 3.1,15.7 -4.8,8.6 -11.2,5.5 -9.2,-4.1 -19.7,-7.7 -29.5,-6 -6.3,1 -6.5,0.7 -2.9,-1.3 5.3,-3.3 12.9,-4.9 18.6,-5.1 l 0,0 z m -123.6,7.6 c -29.8,2.6 -40,17.8 -59.1,33.6 -7.8,6.1 -6,10.7 3.6,9.1 11.9,-2.1 16.7,-1.7 33,3.7 17.8,5.9 30.5,8.2 40.2,4.4 18.3,-7.3 16.8,-6.1 -9.3,19.7 -14,11.5 -8.3,10.8 5.9,0.9 10.5,-8.5 17.6,-14 19.8,-18.6 1,-2.3 1.1,-10.3 3,-10.3 6.7,-0.1 3.2,-8.4 -3,-11.9 -4,-2.8 -3.2,-5.8 1.9,-11.3 8,-8.6 5.2,-12.5 -3.5,-7.1 -1.5,0.9 -2.3,-1.7 -7.8,-4.9 -8.4,-5.2 -15.6,-7.5 -24.7,-7.3 l 0,0 z m 21.7,10.9 c 7.3,6 4.2,7.7 -11.5,7.7 -13.3,0 -24.6,1.5 -40.3,7 -17.9,6.1 -19,6.3 -8.5,-2.8 14.2,-12.5 43.5,-25.2 60.3,-11.9 z m 93.1,-6.3 c 7.2,-0.2 13.4,0.7 18.9,3.7 15.1,8.1 18.5,15.3 1.8,9.6 -10.5,-3.6 -24.7,-2.9 -34.5,-0.1 -10.1,2.9 -11.8,3.9 -10.5,-1.6 1.6,-6.6 12.2,-11.2 24.3,-11.6 z m -117.9,25.8 c 3.8,17.8 17.2,11.8 18.5,1 l 4.9,0 c -1.9,14.4 -21.3,26.6 -29.2,-0.9 1.6,-0.1 8.7,0.3 5.8,-0.1 l 0,0 z m 108,-0.9 3.7,-0.2 c 2.6,13.7 15.3,18 20.7,0.8 l 4.4,0 c -3.1,28.7 -33.5,15.1 -28.8,-0.6 z m -118.4,2.6 c 2.5,0.8 3.6,7.5 3.3,9.3 -0.8,3.7 -12.8,-0.1 -15.4,-3.6 2.5,-2.7 8.3,-7 12.1,-5.7 z m 162.7,1.3 0,5 c -5.5,1.4 -7.8,4.5 -12.9,3.5 0.3,-3.2 -0.3,-7.6 2.6,-11.3 3.7,-2 8.2,0.3 10.3,2.8 l 0,0 z m -120.4,7.1 c -2.5,2 -5.9,2.3 -5.9,2.3 -0.6,-4.8 -1.5,-10.2 4.5,-10.3 3.9,1.1 3.7,5.9 1.4,8 z m 68.8,-8.7 c 2.1,0.1 4.6,5.3 4.9,8.4 -0.6,5 -12.9,3.1 -12.9,-1.8 0,-2.2 5.1,-6.6 8,-6.6 z M -439,-893.1 c -9.5,-4.6 -82,-47.6 -101.3,-124.7 l -3.6,7.9 c 8,18.4 19.9,48.4 19.9,48.4 -0.5,-2.6 3.2,20.1 10.9,58.6 -3.9,0.1 -8.2,-1 -12.4,-2.1 -9.9,-35.2 -12.4,-62.9 -20.8,-97.4 l -3.4,9.7 c 0,0 10.7,61.9 17.8,86.1 -3.9,-0.3 -11.1,-1.8 -11.1,-1.8 -5.9,-26.1 -10.5,-43.6 -16.1,-69.8 l -4.8,6.4 c 7.3,21.5 10.2,40.7 14,61.3 -4.8,-0.7 -9.7,-1.1 -14.3,-3.6 0,0 -7.7,-37.6 -8.6,-38.1 -2.7,2.8 -3.8,6.4 -3.8,6.4 -0.3,-0.3 6.5,20.8 6.2,29.5 -4.6,-0.7 -12.7,-2.9 -18.3,-4.8 -2.9,2 -4.4,5.3 -6.7,8.3 2.9,11.9 168.3,36 158.3,26.2 0,1 73.2,31.1 113.5,4.4 0,0 71.3,51.7 99.2,72.3 0,2.4 9.7,13.4 19.8,20.3 l 28.2,21.3 c 8.2,6.2 11.4,1.6 12.5,-10.3 1.2,-13.3 9.9,-102.7 11.9,-121.8 7.7,-64.3 7.7,-63.6 -2,-60.5 -14.8,4.7 -28.3,-1 -28.5,-16.3 -0.1,-9.3 4.1,-17.1 14,-20.8 2.8,-1 6.5,-1.1 10.7,-1.1 1.9,0.3 5.5,0.5 5.9,0.6 4.7,-0.3 -18.8,-41.9 -18.8,-41.9 0,0 21.7,-39.6 32.1,-54.4 l 29.2,51.5 -22.9,46 c 45.6,-3.9 41.7,53.4 -3.1,34.7 0,0 -0.1,17 0,15.8 0.4,-4.9 0.3,-9 1.8,-10 43.4,15.9 51.5,-47.3 5,-43.8 7.5,-13.5 15.9,-27.4 23.7,-42.2 l -34.4,-61 -37.4,63.7 19.6,39.3 c -4.3,-1.1 -7.8,-0.4 -12.4,0.2 -28.1,6.1 -21.6,51.4 10.6,44.8 3.7,-0.8 9.2,-3.6 9.2,-3.6 l -18.8,185.7 c 0,0 -2,1.7 -10.5,-4.2 -9.7,-6.8 -30.1,-21.7 -31.4,-23.3 5.9,-118.6 -25.1,-243 -59.9,-320.8 -2.2,-6 -2.2,-123.6 -2.2,-123.6 l 192,-1.6 6.8,546.2 c -10.1,-6.2 -21.1,-14.5 -31.5,-21.7 -3.1,-2.5 -5.1,-5.4 -3.8,-10.2 -3.3,7.3 -1.2,10.4 -1.2,10.4 l 42.8,33.4 4.3,537.6 c 0,0 -68.8,-34.5 -111.2,-51.1 -19.1,-7.5 -19.9,-5.3 -19.9,-5.3 0.1,0 13.8,30 10,35.5 9.2,8.6 24.6,26.7 25.5,44.5 8.2,6.9 10.5,7.8 16.7,17.8 l 25.3,-9.5 -5.5,26.6 c 27.3,18.6 1.5,44.4 -3.5,42.1 0,0 12.2,25.5 15.1,37.1 -4.3,-0.2 -25.8,-11.6 -31.8,-14.3 -15.2,30.7 -41.7,5.4 -41.9,0.9 l -28.9,13.3 9.9,-33.2 c -18.8,-11.2 -31.7,-28.3 -1.6,-47.1 l -7.3,-25.7 25,9.5 c 0,0 4.6,-7.5 8,-13 -9.8,-40.4 -70.9,-32.1 -91,-68.3 0,0 -4.3,45.6 -9.1,62.1 -1.4,43.6 -32.4,-0.1 -33,-46.2 -0.1,-10.4 12.6,-45.5 17,-47.3 4.6,-0.7 48.5,19.9 77.6,-1.4 13.2,-14 35.8,-53.4 13,-114.4 -7.5,-14.1 13.8,-16.1 20.7,-11.4 0,0 63.5,-34.1 92.2,-50.5 -48.7,-26 -150,-95.6 -150,-99 -13.2,21.4 -28.4,39.5 -49.6,69.8 -34.6,41.6 -61.5,81.1 -105.6,114.6 -62,46.2 -76.2,92.2 -58.1,145.7 7.3,23.2 21.8,46.6 45.1,54.5 12,11.8 60,56.3 60,56.3 -78.7,73.4 -132.5,133.4 -170,199.5 32.4,16.6 110.5,40.3 110.5,40.3 -27.8,96.3 -13.8,172.5 6.1,248.8 0,0 -225.8,2.8 -343,0.4 -1,1 -13.7,0.5 -13.9,-0.3 -0.6,-8.6 20.7,-32.3 27.2,-29.1 3.2,-3.2 10.1,-4.9 8.8,-8.8 -16.2,-1.7 -40.4,26.5 -41.2,38 l -9.6,0.1 c -2,-1.7 17,-47.4 56,-51.4 -0.4,1.6 5.2,-3.6 0.9,-5.8 -45.4,5.9 -66.1,56.6 -64.7,57.3 l -7,0.1 c 14.9,-49.8 55,-65.9 78.3,-68.3 0.2,-0.1 7.5,-2.7 5.5,-7.1 -51.4,9.5 -76.9,32.1 -88.8,75.5 l -9.3,0.1 c 6.2,-43.9 50.9,-82.8 101.9,-82.1 1.6,-1 3.5,-2.2 2.6,-7.2 -56.5,7 -84.5,26.2 -107.2,75 -21.4,-53.7 -79.4,-78.7 -80.1,-78.9 0,0 -1.6,-15.1 1.7,-14.5 49.5,17.3 67.8,-25.7 65.5,-50.6 -1.3,-13.8 -0.6,-21.5 -5.5,-41.3 -4.3,-17.7 -7.5,-29.7 -7.3,-37.4 0.2,-7.6 2.6,-9.2 8.2,-11.8 10.5,-4.9 16.9,-22.3 14.6,-24.4 -5.3,12.7 -19.6,15 -26.1,23.6 -5.2,7 -2.8,18.1 7.1,56.6 6,23.5 -0.9,12.7 -14.4,5.5 l -9,-4.9 c 6.1,6.1 12.4,11.8 18.6,17.8 5.5,4.9 2.5,8.1 -5.4,5.2 -11.3,-5.5 -33,-2.9 -41.3,4.3 -3.2,2.3 -4.4,2.1 -5.2,0 -4.3,-59.9 1.6,-96.8 20.9,-142.1 12.5,-30.8 31.3,-53.9 56.8,-55.8 25.7,-2.4 62.7,6.2 96.5,28.6 39.7,26.3 78.5,66.6 83.2,116.4 0.2,0.6 3,-4.3 4.3,-6.9 1.7,-6 -5,-23.7 -15.5,-44.2 -2.1,-15.5 -7.7,-42.7 -12.1,-61.1 3.2,-1.5 10,-0.8 11.9,1.6 7.6,30.4 12.9,54.1 19.6,94.8 0.1,4 5.1,-6 5.1,-8.6 -1,-6.1 -18.9,-85.8 -18.5,-84 0.1,-2.7 16.2,0.7 14,3.2 0,0 12.9,66.9 13.8,64.8 l 4.1,-5.7 c 0,0 -12.2,-48.8 -10.8,-58.3 1,-1.5 10,1.4 12.9,2.9 3.6,4.8 6.1,22.2 7.8,34.1 4.2,3.1 4.9,-6 4.6,-8.5 -3,-4.7 -6.4,-22.4 -4,-23.3 1.9,-0.7 12.2,3.3 14.2,5 2.4,2.1 11.2,-10.5 8.9,-12.7 C -617,87.2 -678.7,77 -725,76.7 c -10.8,0.2 -15,-1.3 -31.6,-7.1 -42.2,-14.7 -76.8,0.8 -81.8,5.6 -51.7,-35 -109.5,-84.1 -155.5,-115.4 -2.2,-1.4 -7.3,-2.2 -7.8,-2.2 -6.6,55.4 -11,119.4 -16.6,170.6 -2.3,20.2 -2.6,21.8 -1.6,22.4 0.8,0.5 2.4,-0.3 3,-0.7 14.9,-5.7 28.5,-2.2 35.9,11.2 3.8,19.3 -13,32.3 -31,23.3 -6.7,-3.3 -7.6,-2.7 -4.5,3.8 5.4,11.6 20.8,42.1 20.8,42.1 0,0 -19.9,41.8 -30.1,53.2 -10.2,-16.1 -23.2,-32.4 -29,-50.1 7.7,-15.5 22.4,-35.6 27,-50.9 -0.7,-0.5 -4.7,0 -7.5,1.5 -25.9,12.6 -30.4,-10.6 -30.1,-18.9 0.5,-17 15.3,-20.8 36.8,-13.1 -24.9,-154 -30.9,-241.8 -24.8,-232.3 0,0 -28.3,-19.7 -42.3,-33.2 l -13.7,-1123.1 335.5,-3.2 c 35.2,91.3 27,201.7 7.2,259.3 36.4,6.2 73.2,14.4 114.9,37.7 -68.9,103.4 -177.5,215.5 -295.8,287.9 -6.7,3.1 -29,-10.5 -31.8,-24.1 -0.6,-3.2 1.1,-9.4 4.6,-9.4 8.8,2.7 17.3,6.5 25.9,9.9 0,0 -12.2,-29.7 -6.5,-34.3 3.7,-2.5 6.7,-4.6 9.1,-7.1 8.4,-11.1 7.6,-23.6 -1.6,-33.2 -3.7,-3.8 -8,-6.4 -10.1,-7.3 0,0 8.1,-23.4 12.2,-34.4 l -32.9,11.3 c -10.9,-14.7 -30.7,-26 -44.9,-3.8 -2.7,5.9 -2.1,5 -22.7,-3.8 -11.6,-5 -18.8,-7.5 -18.8,-7.5 4.5,12.9 10.3,25 15.4,39.9 -22.6,14.8 -17.1,39.2 2.1,46.2 l -9.7,33.2 c 0,0 21.4,-8.3 33.1,-11.5 0,0 10.3,10.2 13.5,19.9 5.4,16.7 17.3,28.7 24.9,35.5 -12.3,9.3 -18.5,12.4 -32.4,19.3 l 48.6,19 c -3.1,-10.2 -9.6,-17.7 -10.4,-30.6 -0.7,-11.1 -1.3,-11.3 -8.6,-18.7 -11.8,-10 -13.7,-23.5 -20.4,-34.4 -4.6,-2.7 -8.3,-8.2 -11.8,-14.5 -7.4,0.8 -23.9,9.2 -27.1,6.3 -3.9,-4.1 6.4,-25.3 5.2,-27.4 -8.5,-0.6 -32.5,-18.9 -4.4,-39.9 l -9.4,-33.5 c 0,0 21.7,9.2 32.1,14.3 6.8,-33.6 39.7,-17.9 45.2,-3.5 0,0 25.9,-8.8 24.3,-1.9 -0.7,6.2 -4.7,21.8 -4.7,21.8 23.6,20.4 18.8,30.6 0,44.4 -0.2,11 4.6,27.9 4.6,27.9 0,0 -13.3,-5.7 -22,-8.1 -3.4,3.5 -7.3,9.9 -6.6,13.1 6.2,26.1 38.5,33 86.5,59.1 1.4,-16.9 12.8,-40.1 13.9,-60.3 0.7,-14.8 1.2,-15 11.6,-10.4 27.6,19.4 19.8,73.8 10.1,96.2 -5.8,12.7 -6.7,12.4 -18.2,8.8 -15.9,-4.9 -44,-2.5 -59.4,2.9 -21.3,9 -30.8,56.8 -30.9,71.3 -0.2,13.8 1,27.4 8.4,44.3 3.1,10.8 -2.3,19.3 -12.1,16.5 -2.2,-0.6 -7.5,-2.6 -7.5,-2.6 l -91.7,48.7 17.5,10 c 0,0 -12.9,-7.5 -5,-11.7 l 78.6,-42.2 c 14.8,5.6 12.8,6.8 22.3,-3.3 5.7,-6 8.5,-6.1 16.1,-5.4 46.7,4 67.3,-3.1 75.1,-22.7 1.2,-2.9 0.7,-2.8 5.5,-5.3 8.8,-3.5 12.9,-9.8 13.2,-17.6 0.2,-5.1 2.4,-5.8 6.3,-9.4 7.2,-6.7 8.6,-15.1 3.9,-23.6 -2.2,-4 -3.9,-5.3 -3,-9.5 1.4,-7 -1.3,-14.3 -8.1,-22 -7.9,-8.8 -7.8,-7.3 6.7,-21.1 28.4,-27.6 53.5,-48.8 81.1,-73.8 18.9,-17.1 16.9,-15.9 24.4,-8.2 27.7,28.2 38.9,72.4 27,111.6 -0.6,1.8 -0.8,1.6 0.6,0 7.6,-8.9 7.4,-53 0.5,-72.5 -8.3,-24 -16.3,-36.4 -43.2,-59.7 -16.8,-14.9 -62.6,-57.8 -62.6,-57.8 65,-57.9 135.2,-129.8 174.3,-195.5 -20.7,-21.7 -115.6,-40.8 -115.6,-40.8 11.5,-24.6 33.6,-134.8 -7.7,-256.2 l 340.4,0.2 12.1,0.7 c 0,0 1.8,-0.7 2.8,-1 3.3,-0.9 4.9,1.4 4.2,5 -2.4,9.3 -15.8,31.3 -25.5,29.6 -4.3,-1.6 -3,6.6 -4.9,10.1 15.2,-2.1 32.7,-21.6 37,-40.7 2.4,-4 4,-4.7 6.4,-4 2.8,0.9 2.1,3.5 -0.8,12.8 -9.3,23.2 -28.3,44.8 -50.7,42.9 l -2.8,7.9 c 30.2,-0.8 53.3,-29.4 60,-50.7 4.7,-12.7 4.9,-14.4 9.7,-13.2 4,3.7 1.6,9 0.3,13.4 -14.7,48.7 -56.3,62.2 -77.1,60.3 -2.5,-0.3 -2.9,2.1 -2.1,6.1 44.7,2.5 79.8,-36.4 84.5,-69.5 2.3,-9.2 6.6,-12.4 9,-8.2 1.4,3.7 1,7.5 0.4,11 -11.6,52.2 -66.8,82.4 -100.9,74.4 -1.6,-1.4 -4.1,5.8 -0.3,8.3 68.5,-3.3 89.2,-38.9 104.5,-70.3 19,27.9 34.5,56.7 79.4,73.3 0,0 4.6,9.8 1.1,12 -1.8,1.2 -4.7,0.7 -8.8,0.1 -54.5,-8.2 -72,42.9 -48,118.7 6.6,20.7 3.7,17.6 -9.7,30.8 -6.4,6.3 -9.4,17.3 -7.6,17.6 2.3,-1.3 3,-4.9 8.6,-9.7 2.4,-2.1 7.5,-4.1 11.2,-6.7 10,-6 9.9,-9.9 6.1,-23.7 -2.8,-10.2 -10,-41.4 -10,-44.6 -0.1,-6 1.3,-5.4 8.9,-0.1 10.5,7.6 16.5,7 3.7,-2.8 -4.9,-3.8 -8.2,-6.8 -9.7,-8.9 -2,-2.9 -0.8,-4.8 3.3,-3.6 18.8,5.7 34.9,5.1 53,-6.2 2.6,50.1 -3.4,126.3 -44.8,181.2 -31.9,36.3 -93.9,9.6 -116.9,-1.6 l 0,0 z m 48.1,-115.8 c -1.3,0.1 -5.7,1.1 -8.5,2.7 -12.3,7.2 -9.1,32.3 4.5,35.5 5.4,1.3 10.4,2 19.5,-2.5 5.4,-2.7 13,-4.8 15.1,-3.9 4.5,1.8 5.9,-2.2 6.8,-6.6 2,-10 -14.4,-10.1 -27.3,0.4 -16.3,13.2 -29.1,-5.9 -13.8,-20.5 5.1,-3.4 4.9,-5.2 3.7,-5.1 z m -127.3,55.2 14,15.8 9.1,38 c -5.3,1 -11.7,-1.9 -11.7,-1.9 -4.4,-17.2 -8.8,-34.4 -11.4,-51.9 l 0,0 z m 188.4,7.5 c -0.1,0 -0.3,0.1 -0.5,0.1 -0.6,0.3 -3.1,1.5 -6.7,1.9 -2.1,0.3 -5.2,-1.2 -7.4,-1 -6,0.4 -11.7,2.3 -13.2,2.9 -1.9,0.8 -3.7,1.1 -5.3,0.2 -4.5,-2.6 -17.7,-1.7 -21.7,0.7 -4.7,2.1 -10,2.2 -13.9,0.2 -1.7,-0.8 -3.4,-3 -3.7,-2.7 -0.6,0.6 -3,11.4 -3.7,15.6 0,1.5 -1,3.9 -0.4,4.2 0.8,0.3 3.2,-2 6.3,-3.6 6.2,-3.3 13.3,-3.1 25.6,-0.2 15.3,3.6 21.2,2.4 30.1,-2.3 7.1,-3.7 11.4,-4.7 16.2,-3.4 1.2,0.3 4.3,1.9 4.7,1.5 0.8,-0.8 -1.5,-5.3 -3.5,-9.7 -1.4,-3.3 -1.9,-4.5 -2.9,-4.4 z m -164,19 c 13.5,12.5 12.5,11.4 21,17.6 l -0.3,12.2 c 0,0 -10.3,0.3 -15.4,-1.2 -1.6,-4.7 -8.8,-28.4 -5.3,-28.6 z m 110.1,7 c 0.9,0.6 2.2,1.3 4.1,1.8 21.4,7.7 -0.9,6 -2.9,13.6 0,0.7 1,0.8 2,0.4 7.3,-3 25.1,-5 33.2,-3.5 10.6,3.4 11.2,1 1,-4.2 -7.4,-2.8 1.5,-4.9 4.5,-7.5 6.2,-4.1 1.9,-5.7 -6.1,-1.8 -8,3.9 -22.2,4 -28.7,0.5 -2.9,-1.4 -5.7,-2.8 -7,-2.8 -2.8,-0.2 -1.4,2.6 -0.1,3.5 l 0,0 z m -83.6,14.6 12.6,9.6 -12.7,-1.1 0.1,-8.5 z m -279.4,247.7 c -2.5,0 -4.5,2.1 -4.5,4.6 0,2.5 2.1,4.5 4.6,4.5 2.5,0 4.5,-2.1 4.5,-4.6 0,-2.5 -2,-4.5 -4.6,-4.5 z m 16.7,4.4 -56.8,27.7 15.1,4.9 0.1,15.6 13.9,-4.6 6.1,14.5 21.6,-58.1 z m 2.7,12.8 c -2.5,0 -4.5,2.1 -4.5,4.6 0,2.5 2.1,4.5 4.6,4.5 2.5,0 4.5,-2.1 4.5,-4.6 0,-2.5 -2.1,-4.6 -4.6,-4.5 z m -72.1,28.5 c -2.5,0 -4.5,2.1 -4.5,4.6 0,2.5 2.1,4.5 4.6,4.5 2.5,0 4.5,-2.1 4.5,-4.6 0,-2.5 -2.1,-4.5 -4.6,-4.5 z m 17.6,8.3 -63.8,30.2 19.1,5.6 -4.8,19.6 15.4,-6.7 8.8,13 25.3,-61.7 z m 2.1,14 c -2.5,0 -4.5,2.1 -4.5,4.6 0,2.5 2.1,4.5 4.6,4.5 2.5,0 4.5,-2.1 4.5,-4.6 0,-2.5 -2.1,-4.5 -4.6,-4.5 z m -127.2,4.4 c 24.1,-0.3 51.2,8.6 60.7,29.1 2.6,10.3 -7.5,16.5 -29.2,10.8 -35.9,-9.4 -42.6,-10.4 -36.6,-4.4 0.8,0.8 2.4,2.7 7.8,4.5 13.5,4.4 39.7,9.5 46.7,8.7 9.6,-1.4 16.3,3 14,11.1 -2.6,9.1 -15.1,13 -33.9,10.6 -19.5,-2.5 -30.2,-4.6 -36.7,-6.5 -8.3,-2.4 -8.6,-2.2 -4.6,3.6 2.1,3 2.3,5.4 5.3,6 12.8,-0.9 26.5,1.4 38.3,2.4 21.2,1.7 24.6,7.6 9.1,17 -7.3,4.4 -29.4,3.5 -42,-0.9 -9,-3.1 -29.6,-7.5 -21.6,-1.3 1.9,1.5 1.3,5.2 4.6,6.3 10.9,1.4 41.6,3.2 46.4,7.5 3.1,2.8 -3.8,9.9 -18,13.8 -21.5,4.3 -53.8,3 -62.4,-2.7 -16.1,-31.9 -8.2,-84.6 16.2,-105.4 8.1,-6.6 21.4,-10.1 35.9,-10.2 z m 141.6,15.1 c -2.5,0 -4.5,2.1 -4.5,4.6 0,2.5 2.1,4.5 4.6,4.5 2.5,0 4.5,-2.1 4.5,-4.6 -0.1,-2.5 -2.1,-4.5 -4.6,-4.5 z m 19.1,4.7 -65.8,33.7 16.8,4.8 -3.8,19.3 15.4,-6.6 9.5,12.9 27.9,-64.1 z m 0.6,16.1 c -2.5,0 -4.5,2.1 -4.5,4.6 0,2.5 2.1,4.5 4.6,4.5 2.5,0 4.5,-2.1 4.5,-4.6 0,-2.5 -2,-4.5 -4.6,-4.5 z m 39,38.5 c -29,28.9 -61.9,51.9 -91.8,80 l 6.5,-0.3 16.3,-15 463.7,-6.6 -10.7,15.9 4.6,1.9 c 0,0 13.7,-20.7 12.7,-21.6 -101.9,1.4 -180.5,2.1 -292.3,4.1 -20.6,-19.9 -42.3,-38.6 -63.8,-57.5 l -45.2,-0.9 z m -140.8,19.8 c -2.5,0 -4.5,2.1 -4.5,4.6 0,2.5 2.1,4.5 4.6,4.5 2.5,0 4.5,-2.1 4.5,-4.6 0,-2.5 -2.1,-4.5 -4.6,-4.5 z m 605.5,-3.2 c 40.4,29.3 88.3,65.2 127.9,86.4 15.9,6.7 14.3,9 -1.6,16.8 -15.6,10 -41.7,22.9 -63.5,34.1 -9.4,3.7 -13.6,-0.9 -20.3,0.4 -4.8,1.3 -6.2,2.2 -9.1,6.1 -4.7,6.3 -3.4,6.1 -28.7,5.2 -25.6,-0.9 -36.1,-0.2 -41.6,2.7 -5.3,2.8 -14.2,12.1 -14.2,15.9 0,3.7 -2.8,8.4 -8,10.1 -6.1,1.6 -13.1,6.5 -12.8,14 -1.6,5.7 -5,8.2 -8.1,11.4 -7.2,7.4 -6.4,13.2 -4.2,20 1,3 2.5,2.3 1.8,11.4 -1.5,20.7 -2.9,19 19.4,34.1 l -112.1,99.8 c -2.6,2.1 -3.4,1.9 -5.8,0.3 -13.9,-10.1 -23.7,-26.9 -29.4,-43.8 -19.7,-52.5 3.2,-96 33.9,-122.8 10.7,-9.3 25,-20.4 29,-23.2 57.9,-50.6 107.9,-121.7 147.4,-178.9 z m -588.5,10.4 -64.4,31.3 20.9,3.3 -3.8,18.1 15,-5.9 8.2,15.1 24.1,-61.9 z m 4.1,14.2 c -2.5,0 -4.5,2.1 -4.5,4.6 0,2.5 2.1,4.5 4.6,4.5 2.5,0 4.5,-2.1 4.5,-4.6 0,-2.5 -2.1,-4.5 -4.6,-4.5 z m 593.3,13.5 -7.5,-17.3 c 0,0 -19.9,50.6 -24,67.7 17.2,-9.1 67.7,-35.5 67.7,-35.5 l -21.8,-3.8 2.2,-19.7 -16.6,8.6 z m -739.3,11.3 c -2.5,0 -4.5,2.1 -4.5,4.6 0,2.5 2.1,4.5 4.6,4.5 2.5,0 4.5,-2.1 4.5,-4.6 0,-2.5 -2.1,-4.5 -4.6,-4.5 z m 19.9,3.9 c 0,0 -47.9,23.1 -69.5,33.1 l 20.3,4 -3.3,19.8 18.2,-7.3 7.6,19.4 26.7,-69 z m 2.7,14.9 c -2.5,0 -4.5,2.1 -4.5,4.6 0,2.5 2.1,4.5 4.6,4.5 2.5,0 4.5,-2.1 4.5,-4.6 0,-2.5 -2.1,-4.5 -4.6,-4.5 z m 681.6,-4.3 c -2.5,0 -4.5,2.1 -4.5,4.6 0,2.5 2.1,4.5 4.6,4.5 2.5,0 4.5,-2.1 4.5,-4.6 -0.1,-2.5 -2.1,-4.5 -4.6,-4.5 z m 78.8,3.3 -22.2,64 61.6,-31.9 -16.9,-4.4 -0.1,-15.8 -13.8,4.2 -8.6,-16.1 z m -732.5,23.4 c -2.5,0 -4.5,2.1 -4.5,4.6 0,2.5 2.1,4.5 4.6,4.5 2.5,0 4.5,-2.1 4.5,-4.6 0,-2.5 -2.1,-4.5 -4.6,-4.5 z m 678,-6.3 c -2.5,0 -4.5,2.1 -4.5,4.6 0,2.5 2.1,4.5 4.6,4.5 2.5,0 4.5,-2.1 4.5,-4.6 0,-2.5 -2,-4.6 -4.6,-4.5 z m -658.9,11.9 -65.3,32.8 20.4,4.6 -2,20.5 16.5,-9.6 9.2,18.6 21.2,-66.9 z m 4.2,13.5 c -2.5,0 -4.3,2.1 -4.3,4.6 0,2.5 2.1,4.5 4.6,4.5 2.5,0 4.5,-2.1 4.5,-4.6 0,-2.5 -2.2,-4.5 -4.8,-4.5 z m 683.2,-3.5 c -2.5,0 -4.5,2.1 -4.5,4.6 0,2.5 2.1,4.5 4.6,4.5 2.5,0 4.5,-2.1 4.5,-4.6 -0.1,-2.5 -2.1,-4.5 -4.6,-4.5 z m -90.3,22 -6.3,-17.1 -23.6,63.2 65,-30.7 -20.8,-4.6 0.2,-16.4 -14.5,5.6 z m -66.6,-12.9 c -0.7,0 -1.4,0.2 -1.4,0.7 0,1.5 -16.5,18 -16.5,18 l -192.9,3.9 c 0.4,0 16.1,4.2 16.1,4.2 25.5,19.9 65.6,55.4 65.6,55.4 l 47.9,-2.4 c 26.2,-26.3 65.9,-46.6 83.3,-78.9 -0.5,-0.6 -1.3,-0.8 -2.1,-0.9 z m 181,11 c -2.5,0 -4.5,2.1 -4.5,4.6 0,2.5 2.1,4.5 4.6,4.5 2.5,0 4.5,-2.1 4.5,-4.6 -0.1,-2.5 -2.1,-4.5 -4.6,-4.5 z m -148.7,23.6 c -2.5,0 -4.5,2.1 -4.5,4.6 0,2.5 2.1,4.5 4.6,4.5 2.5,0 4.5,-2.1 4.5,-4.6 0,-2.5 -2.1,-4.5 -4.6,-4.5 z m 98,5.5 c 13.8,-0.2 27.1,0.1 30.6,2.7 21.6,17.8 12.4,102 -14.4,112.9 -29.5,7 -49.9,8.4 -75.8,-8.2 -7.3,-3.5 -21.9,-14 -19.2,-22.9 3.7,-10.9 14.3,-10.2 44.7,-1.2 11.1,3.3 17.2,2.6 20,0.4 2.6,-2 -0.9,-4.3 -6.5,-4.2 -2.3,0 -12.1,-2.3 -20.3,-4.7 -11.6,-3.4 -14.9,-4.4 -22.4,-4.8 -12.5,-0.6 -16.2,-1.1 -16.3,-8.7 -0.2,-14.3 19.7,-16.4 56.5,-8.4 4.4,1 12.4,2 14.3,1.9 1.4,0.5 -2.8,-4.7 -3.6,-7.9 -1.3,-1.1 -3.7,-1.6 -10,-1.8 -23.6,-2.1 -43.2,-3.4 -43.7,-6.5 -2.3,-15.1 28.2,-19.6 60,-7.8 8.2,3 8.3,1.7 8.2,-0.6 -0.2,-4.4 -13.8,-11.8 -33.9,-11.4 -19.5,0.4 -16.9,-9.5 -0.9,-17.1 5.6,-2.7 18.9,-1.5 32.7,-1.7 l 0,0 z m -75.2,17.1 c -2.5,0 -4.5,2.1 -4.5,4.6 0,2.5 2.1,4.5 4.6,4.5 2.5,0 4.5,-2.1 4.5,-4.6 0,-2.5 -2.1,-4.5 -4.6,-4.5 z m -70,32.3 -4.3,-16.9 -25.8,66.4 66.6,-34.9 -22.1,-3.9 1.8,-13.9 -16.2,3.2 z m -33.8,26.9 c -2.5,0 -4.5,2.1 -4.5,4.6 0,2.5 2.1,4.5 4.6,4.5 2.5,0 4.5,-2.1 4.5,-4.6 -0.1,-2.5 -2.1,-4.5 -4.6,-4.5 z m 67,18 -5.8,-16 -21.9,57.8 56.9,-26.2 -16.9,-4.4 2.2,-17.5 -14.5,6.3 z m -45.6,0.7 c -2.5,0 -4.5,2.1 -4.5,4.6 0,2.5 2.1,4.5 4.6,4.5 2.5,0 4.5,-2.1 4.5,-4.6 0,-2.5 -2,-4.6 -4.6,-4.5 z m 14.9,21.8 c -2.5,0 -4.5,2.1 -4.5,4.6 0,2.5 2.1,4.5 4.6,4.5 2.5,0 4.5,-2.1 4.5,-4.6 0,-2.5 -2.1,-4.5 -4.6,-4.5 z m -28.6,13.8 -18.7,54.7 53.5,-26.6 -15.8,-5 c 0,0 0.7,-12.3 -0.7,-11.7 -0.9,0.4 -11,3.3 -11,3.3 l -7.3,-14.7 z m 47.9,6 c -2.5,0 -4.5,2.1 -4.5,4.6 0,2.5 2.1,4.5 4.6,4.5 2.5,0 4.5,-2.1 4.5,-4.6 0,-2.5 -2,-4.5 -4.6,-4.5 z m -70.9,27 c -2.5,0 -4.5,2.1 -4.5,4.6 0,2.5 2.1,4.5 4.6,4.5 2.5,0 4.5,-2.1 4.5,-4.6 0,-2.5 -2.1,-4.5 -4.6,-4.5 z m 20.8,20.9 c -2.5,0 -4.5,2.1 -4.5,4.6 0,2.5 2.1,4.5 4.6,4.5 2.5,0 4.5,-2.1 4.5,-4.6 0,-2.5 -2.1,-4.6 -4.6,-4.5 z M -696.1,99.6 c -2.5,0.4 -8.9,-5.4 -10.2,-8.1 3.6,-1 7.4,-0.3 9.5,1.4 1.7,1.5 2.9,5.6 0.7,6.7 z m 19.4,-4.2 c -0.8,6.7 3.5,18.7 2.7,21.5 -2.1,1.1 -12.9,-10.3 -15.6,-13 -0.6,-3.8 -0.1,-8.6 0.1,-10.8 3.7,-0.7 10.2,-0.5 12.8,2.3 z m 19.3,3.1 c 2.4,14.7 9.2,38.4 8.3,46.4 -1,-0.8 -9.3,-8.8 -15.5,-17.3 -2.2,-5.1 -5.7,-23.1 -5.5,-31.7 4,-0.6 9.6,0 12.7,2.6 l 0,0 z m -129,-0.2 c -6.5,3.4 -14,5.9 -23.4,6 -7.5,0.1 -20.5,-3.7 -19.2,-2.8 3.5,6.1 12.4,2.8 12.6,6.8 -2.2,4 -8.1,3.7 -11.1,7.5 -0.6,1 0.9,1.8 5.1,1.4 12.6,-5.9 29.3,-6 44.5,-1.2 3.2,0.6 1.1,-2.4 0,-3.2 -2,-1.4 -5.3,-2.9 -8,-3.2 -13.3,-2.2 -7.5,-3.6 1.4,-7.7 6.5,-2.4 8.1,-8.3 -1.9,-3.6 l 0,0 z m 29,18.4 c -1.8,0.2 -6.2,2.5 -11,4.5 -8.1,3.4 -15.7,2.7 -26.8,-0.2 -9.6,-2.6 -13.1,-1.8 -22.5,3.1 -6.3,4.1 -13.2,5.3 -18.2,2.6 -6.5,-3.6 -6.5,-2.4 -3.2,6.7 0.8,2.3 -0.7,9.2 2.2,10.7 2.2,1.2 4.6,-2.9 6.2,-3.4 1.7,-0.6 12.1,4 17.9,-1.2 10.3,-3.9 13.5,2.2 20.7,1.5 11.6,-4.2 18.9,-8.6 29,-0.8 0.6,-3 2.7,-19.3 6.4,-23.1 0,-0.3 -0.3,-0.4 -0.7,-0.4 l 0,0 z m -20.8,47.1 c -8.4,0.2 -12.9,5.4 -23.7,4.5 -8.7,-0.5 -11.5,7.2 -7.8,12.7 2.6,3.9 6.1,4.6 17.8,-0.9 4.8,-2.3 11.5,-7.2 15.5,-6.9 11.5,1 14.5,12.1 5,21.7 -4.6,2.8 -4.7,5.8 -3.2,5.8 3.8,0.1 11.4,-4.5 13.1,-9.8 4.5,-14.6 -4.2,-27.5 -16.7,-27.1 l 0,0 z m 38.4,66.2 c -10.9,2.4 -26.5,15.1 -31.8,23.3 -4.9,8 -9.6,17 -6.1,21.3 2.9,3.6 7,7.1 7.3,9 0.3,1.7 -2,3.4 -4.2,5.9 -9.5,10.8 -7.2,11.4 6.2,4.3 6.8,-3.6 9.9,-5.1 14.4,-3.9 13,3.2 29.1,0.6 40.1,-3.5 4.9,-1.9 9.8,-4.4 10.2,-3.1 -19.8,22.3 -44.8,17 -53.8,15.8 -1.6,-0.4 -2.8,-0.3 -2.7,0.2 0,1.1 2.6,3.4 8.2,5.8 9.3,4 31.3,-0.6 45,-10.8 27.1,-18.2 42,-35.5 20.6,-28.1 -9.8,3.4 -13.6,2.9 -25.6,-2.4 -18.1,-7.9 -31.9,-10.2 -46.7,-4.8 -18.8,6.8 -4.5,-8.9 16.6,-22.7 4.5,-3 5,-6.3 2.3,-6.3 l 0,0 z m -101.3,47.7 -6.3,0.2 c -4.7,-15.1 -15.6,-15 -20.1,0.3 l -5.3,-0.3 c 5,-19 24.4,-23.1 31.7,-0.2 l 0,0 z m 112,0 -4.7,0.3 c -3,-9.2 -13.2,-17.1 -20.1,-2 l -3.3,-0.6 c 5.5,-24.2 28.9,-11.1 28.1,2.3 l 0,0 z m -31.7,-13.5 c 2.9,0 3.7,3.3 0.4,8.8 -2.3,3.9 -5.1,3.5 -8,0.7 -2.6,-2.5 -2.4,-3 0.3,-5.5 3,-2.7 5.6,-4 7.3,-4 z m 34.9,-0.3 c 1.3,-0.1 3.7,1 6.5,1.9 7.2,2.3 8.9,4.3 5.9,7.3 -2.9,2.9 -8.3,3.9 -10.9,2.2 -0.2,-3.6 -3.8,-6.4 -3.9,-10 0,-0.9 1.1,-1.3 2.4,-1.4 z m -112.5,1.4 c 5,-0.3 11.7,2.6 11.2,5.5 -0.5,3.1 -5.4,5.3 -9.4,5.6 -2.7,0.4 -2.6,-0.7 -3.3,-2.6 -0.7,-1.7 -1.5,-3.9 -2,-5.6 -1.2,-3.3 1,-2.8 3.5,-2.9 z m -34,1.5 c 0,0 -2.7,8.3 -3.9,11.2 -10.4,-0.4 -9.5,-5 -4.6,-8.4 2.6,-2.1 5.3,-2.2 8.5,-2.8 l 0,0 z m -7.9,19.8 c 1.9,0 4.2,1.6 7.5,2.6 9.3,2.9 24.6,2.4 36.5,-0.5 5.7,-1.4 8.4,-3.2 9.7,-2.3 2.3,1.6 0,7.3 -8.2,11 -10.7,4.1 -27.1,6.4 -39.6,0.2 -10.7,-5.3 -12,-11.1 -5.9,-11 l 0,0 z m -2.7,11.9 c 9.8,6.3 19.6,8.3 31.7,7 18.1,-0.9 21.3,-3.1 6.1,5.1 -14,7.6 -35.7,6.5 -40,-1.6 -2.4,-4.6 -0.9,-10.1 2.2,-10.5 z m 87.7,9.8 c -0.1,0 -0.1,0 -0.2,0 1.6,9.7 18,18.5 25.9,20.5 16.8,7.2 43.2,-0.4 63,-9.2 14.5,-6.4 19.6,-16 2.4,-10.4 -27.8,9 -62.9,10 -80.5,3.5 -5.7,-2.6 -9.6,-4.4 -10.6,-4.4 l 0,0 z m -91.5,37.6 c 35,7.5 77.9,60.9 78,84.5 l -11.3,0.1 c -17.8,-59.7 -62.6,-72.2 -67,-75.7 -2.1,-7.4 0.4,-9.1 0.3,-8.9 l 0,0 z m -0.4,15.1 c 41.7,17.7 56.9,50 63.3,69.5 l -12.1,0.1 c -9.3,-26.7 -25.8,-45.7 -51.1,-57.3 -1.8,-3.7 -0.1,-12.3 -0.1,-12.3 l 0,0 z m 0.2,18.4 c 21.3,6 40.4,33.8 45.9,51.3 l -10.6,0.1 c -7.7,-19.4 -18.6,-31.8 -35.6,-38.9 -0.7,-3.7 -0.6,-7.8 0.3,-12.5 l 0,0 z m -0.2,19.1 c 10,1.9 27.1,17.2 29.7,32.4 l -9.7,0.1 c -3.6,-10.2 -14.3,-19.5 -19.8,-23.2 0,-1.9 -0.2,-9.3 -0.2,-9.3 z m 1.3,16.2 c 1.1,-0.7 16.1,12.6 13.7,16.4 0,0 -9.3,0.1 -13.4,0.1 -0.3,-4.2 -0.6,-16.6 -0.3,-16.5 z"
               id="path4073" /><path
               style="fill:#d40000"
               d="m -523.8,-1243 c -24.8,49.3 -152.3,271.7 -153.5,279.4 l 33.4,14.3 158.3,-293 c 0.1,0 -33.4,-0.7 -38.2,-0.7 l 0,0 z m 383.5,180.3 -14.9,21.4 13.1,23.1 12.8,-23.2 -11,-21.3 z m -591.1,228.2 c 0,0 -46.1,46.8 -64,68.6 39.6,38.6 114.9,86.8 116.3,162.3 l 51.6,-0.4 168.6,147.5 c 0,0 151.2,-0.6 154,-1.3 3,-0.7 55.9,-78.2 55.9,-78.2 l 96.6,68.8 c 0,0 -5.4,-75.2 -9.6,-121.2 -1.5,-30.8 -2.8,-49.8 19.6,-63.7 -31.1,-14.4 -29.5,-41.6 -6.9,-61.8 -7.6,-10.3 -18.9,-12.1 -21,-48.9 -4.8,-5 -9.3,-8 -15.3,-12.2 l -6.1,5.6 c -19.7,18.1 -33,36.4 -35.1,48.3 -4,22.6 19.1,37.8 32.1,21.2 3.7,-4.7 7,-3.4 7.1,2.6 0.1,12.3 -15.3,19.4 -28.4,13.2 -3.1,-1.5 -5.8,-2.4 -6.1,-2.2 -0.5,0.5 13.4,33.3 17.1,40.5 6.2,12 9.5,24.1 10.1,36.9 0.7,13.6 0.4,15.3 -5.7,38.8 -5.7,22.2 -2.8,35.3 7.9,35.2 6,-0.1 5.9,5.7 -0.2,7.9 -12.9,4.7 -21,-4.8 -21.7,-25.1 -0.4,-12.4 -0.6,-12.7 -7,-9.6 -22,10.6 -46.2,-7.7 -36,-27.2 2.1,-4.1 4.7,-2.8 6.2,3 2.7,10.9 8.4,15.7 18.8,15.5 23.9,-0.4 33.5,-34.2 19.3,-68 -2.8,-6.8 -4.2,-6.4 -7.8,2.3 -5.5,13.6 -15,17.7 -23,9.9 -2.7,-2.6 -4,-6.9 -2.2,-7.1 0.4,-0.1 3,-0.2 5.8,-0.3 13.9,-0.6 18.5,-14.1 11.8,-34.4 -5.9,-17.8 -6.8,-21 -8.7,-30.6 -2.8,-14.9 -1.1,-26.3 6.1,-40.8 1.3,-2.6 9.3,-11.8 19.3,-22.1 10.2,-10.6 19,-18.7 19,-18.7 0,0 -5.3,-4.5 -12.4,-9.7 -15.1,-11.1 -17.7,-13 -17.7,-13 0,0 -68.9,195.9 -63,271.8 -7.9,100.2 -81.8,73.4 -88,4.1 l -357.3,-307.5 z m -2.8,29.3 c 24.3,-0.7 40.6,31.3 50.5,97.8 3.3,22 17.1,52.8 26.9,60 24.8,18.2 63.2,3.5 63,-24 -0.3,-34.3 -48.5,-38.8 -48.9,-4.6 -0.1,8.1 -4.2,8.5 -8.3,0.9 -3.6,-6.8 -0.6,-19.6 6.2,-26.2 4.4,-4.2 4,-5 -4.4,-9.5 -29.5,-15.8 -42.2,-39.8 -26.7,-50.2 6.8,-4.6 16.2,1 12,7.1 -6.6,9.5 -6.7,11 -1,18.8 6.5,8.8 14.1,13.2 32,18.3 15.1,4.3 17.6,5.1 24.6,8.2 20.4,9 30,29.4 23.1,49.2 -1.6,4.7 -3.2,9.3 -3.5,10.3 -0.7,2.2 0.5,2.2 14.8,0.1 22.7,-3.3 48.1,4.6 60.8,18.8 6.8,7.6 12.4,24.9 12.7,39.4 0.1,2.8 1,9.1 2.1,14 1.1,4.9 2.6,13.2 3.3,18.4 6.5,49.5 48.1,74.4 65.5,39.2 11,-22.1 -15.2,-43.8 -28.2,-23.4 -4.6,7.2 -9.4,4 -6.8,-4.5 5,-16.5 25.6,-19.6 39.7,-5.8 7.7,7.4 11.5,24.4 7.9,35.2 -1.9,5.7 -1.7,6 2.5,4.5 9.4,-3.4 25.7,-0.4 31.6,5.8 13.9,14.6 11.4,32.3 -5.5,38.2 -7.7,2.7 -16.4,0.1 -19.4,-8.9 -1.3,-6.4 3.1,-8.3 6.6,-2.8 6.5,10.3 20.4,1.8 16.9,-10.4 -3.9,-13.9 -15.8,-16.7 -37.7,-8.9 -34.8,12.4 -46,11.5 -62.9,-4.9 -12.1,-11.7 -16.7,-21.9 -20.1,-44.5 -3.8,-24.9 -4.2,-25.6 -10.3,-20.2 -29.3,25.5 -68.7,-12.1 -43.9,-37.3 7.6,-7.8 13.4,-1.1 6.6,7.6 -10,12.7 3.4,30.2 20,25.9 30.1,-7.8 23.5,-52 -9.3,-61.9 -10,-3 -37.4,-1.4 -58.4,3.4 -58.7,13.6 -85,-11.3 -98,-92.5 -1.5,-9.5 -3.3,-16.5 -9.1,-36.9 -6.9,-24.2 -29.6,-37.1 -41.7,-23.8 -9.7,10.6 -4.4,24.8 9.3,24.6 13.6,-0.1 9.5,9.3 -4.6,10.7 -24.6,2.5 -29.3,-38.5 -5.8,-50.5 5.5,-3 10.8,-4.6 15.9,-4.7 z m -321.1,18.7 8,29.1 30.5,8.3 -10,-27.6 -28.5,-9.8 z m 78.1,7.8 -7.9,26.5 23,-5.9 7.2,-27.6 -22.3,7 z m 250.7,40.4 c 4.8,-0.1 8.8,3.8 8.8,8.7 0.1,4.8 -3.8,8.8 -8.7,8.8 -4.8,0.1 -8.8,-3.8 -8.8,-8.7 0,-4.8 3.9,-8.7 8.7,-8.8 z m -293.1,19 -23.9,8.7 -4.4,21 25,-6.7 3.3,-23 z m 57.3,6 -19.6,-3.2 5.7,21.5 20.8,8.3 -6.9,-26.6 z m 850.7,-11.1 -12.5,9.9 c 37.1,31.5 -2.2,62.7 -3.5,60.7 26.8,17.3 22.3,45.1 19.2,70.5 -5.8,45.4 -7.8,88.2 -14.1,134.7 0,0 32.2,21.7 53.6,30 0.4,0 -2.9,-272.3 -2.9,-272.3 l -39.8,-33.5 z m -452.8,46 c 4.8,-0.1 8.8,3.8 8.8,8.7 0.1,4.8 -3.8,8.8 -8.7,8.8 -4.8,0.1 -8.8,-3.8 -8.8,-8.7 0,-4.7 3.8,-8.7 8.7,-8.8 z m -536.9,28.4 3.9,254.1 51.6,-94.6 -36.7,-41.3 30.9,-33.7 -49.7,-84.5 z m 512.7,33 c 4.8,-0.1 8.8,3.8 8.8,8.7 0.1,4.8 -3.8,8.8 -8.7,8.8 -4.8,0.1 -8.8,-3.8 -8.8,-8.7 0,-4.7 3.8,-8.7 8.7,-8.8 z m 119.7,24.7 c 4.8,-0.1 8.8,3.8 8.8,8.7 0.1,4.8 -3.8,8.8 -8.7,8.8 -4.8,0.1 -8.8,-3.8 -8.8,-8.7 0,-4.8 3.9,-8.7 8.7,-8.8 z m 345.2,279.3 39.1,39.2 -29.8,37.9 48.4,80.1 -3.5,-249.5 -54.2,92.3 z m -975.1,-72.6 4.9,273.3 41.7,29.7 10.4,-10 c -27,-28.2 -11.3,-49.5 8.7,-62 -35.6,-7.9 -25.3,-55 -23.4,-76.8 -1.3,-40.5 13,-86.8 8,-125.6 l -50.3,-28.6 z m 238.4,35.3 -58.3,83.2 c 0,0 -65.6,-48.6 -98.7,-70.4 3.9,35.6 7.6,81 12.4,119.2 11.3,55.8 -16.4,57.1 -16.6,62.4 44.4,32.9 7.8,64.6 1.2,63.1 23.6,12.5 22.1,51.3 22.1,51.3 l 11.2,6.2 c 0,0 3.6,-2.2 5.1,-3.1 11.8,-6.5 31,-29.5 35.2,-44.6 7.2,-25.6 -15.1,-46.5 -28.9,-27 -6.7,9.6 -12.3,3.3 -6.8,-7.7 5,-10.1 18.3,-15.2 27.3,-10.6 5.2,2.7 4,-4.5 -4.2,-24.5 -2.8,-6.7 -5,-14 -8.9,-28.9 -3.8,-14.4 -2.6,-31.8 3.5,-49.5 8.8,-25.6 5.4,-41.6 -9.2,-42.8 -7.8,-0.7 -8.7,-3.1 -2.4,-6.8 14.1,-8.2 28,3.1 27.6,22.5 -0.2,10.5 -0.1,10.7 5.4,8.4 27.9,-11.5 50.3,17.3 31,39.8 -5.9,6.9 -9.7,2.6 -5.9,-6.6 5.9,-14.2 0,-24.2 -14.2,-24.2 -20.6,0.1 -31.7,28.7 -23.3,60 2.6,9.8 3,9.9 9.8,3.3 6,-5.9 10.5,-7.8 15.3,-6.4 9.8,2.8 12.5,13.2 3.1,12 -16.1,-2 -20.2,14.9 -10.7,44.7 12.5,39.6 0.7,72.2 -34.8,95.6 -1.8,1.2 -4.6,3.5 -4.6,3.5 13.9,12.1 22.8,19 41.1,29.9 l 62.1,-263.4 c 0,0 -1.3,-14.9 -2.9,-21.9 -0.8,-70.5 64.9,-78 86.2,-14.2 2,6.1 12.7,21.7 12.7,21.7 L -432.6,24 c 0,0 63.3,-62.5 62.4,-64.1 -49.1,-48.4 -115.1,-82.3 -118.4,-160 -11.6,-0.2 -50.6,0.9 -50.6,0.9 l -168.2,-150.9 c -52.4,0.8 -98.8,-2.4 -153,-0.2 l 0,0 z m 93.3,4.7 c 9.1,-0.4 18.4,4.3 18.5,11.9 0.1,6.6 -4.3,8.1 -8,2.8 -5.2,-7.4 -11.1,-7.9 -17.1,-1.5 -16.5,17.8 9.6,33.5 39.4,23.8 18.2,-6 27.1,-7.6 33.8,-6.4 28.3,5.3 42.1,24.2 44.9,61.3 1.4,18.8 1.4,18.8 9.5,11.2 19.6,-18.4 48.4,-8.6 53.2,18.1 2,11.5 -10.2,26.1 -21.9,26.2 -4.6,0.1 -3.9,-4.8 1,-7.2 11.9,-5.8 12.2,-24.7 0.5,-31.9 -15.5,-9.6 -35.7,5.9 -35.2,27 0.6,25.5 19.7,37 57.3,34.4 5.5,-0.4 19.3,-1.2 30.6,-1.8 17.9,-1 37.2,-4.6 55.6,9 19.3,15 32.4,45.1 38.3,88.8 9.2,53.7 15.9,68.1 34,69.2 10.7,0.6 19.7,-8.6 19.6,-19.2 -0.1,-7.5 -10.1,-14 -17.5,-11.4 -9,3.1 -11,-6.7 -2.1,-10.5 12.3,-5.3 27.5,4.5 31.1,20 2.1,9 -8,26.5 -18.7,31 -27.9,11.6 -48,-11.3 -55.1,-62.9 -4.3,-23.7 -6.7,-39.7 -14.3,-59.8 -14,-37.2 -36.5,-52.3 -60.6,-40.9 -27.4,12.9 -21.5,54.1 7.7,53.4 16,1.1 19.3,-10.7 19.4,-23.3 0.3,-9.3 10.9,-0.7 11.9,5.7 0.9,7.7 -5.9,17.4 -12,22 -9.8,6.8 -6.3,6.3 3.9,8.9 27.3,4.7 48,40.6 31.8,53 -8.4,5.3 -17.5,-2.2 -11.7,-9.8 9.2,-12 -6.8,-30.6 -35.7,-36.6 -37.8,-7.8 -53.1,-35.7 -39.8,-64.7 4.4,-9.6 4.8,-9.4 -13.6,-8.1 -40.4,2.7 -54.9,-2.7 -68.7,-26 -4.2,-7 -6.1,-16.5 -7.2,-35.3 -1.9,-33.6 -5.2,-54.5 -9.5,-60.3 -21.3,-28.8 -64.9,-19.6 -59.1,12.4 3.1,16.8 20.6,22.1 32.3,9.6 8.9,-9.4 13.2,-0.8 4.5,9 -20.9,23.6 -57.9,-3.3 -47.4,-34.4 2.4,-7.1 2.8,-6.9 -10.8,-7.1 -30.2,-0.5 -44.8,-26.2 -25.6,-44.8 3.3,-3 8,-4.6 12.8,-4.8 z m 74,109.9 c 4.8,-0.1 8.8,3.8 8.8,8.7 0,4.9 -3.8,8.8 -8.7,8.8 -4.8,0.1 -8.8,-3.8 -8.8,-8.7 0,-4.7 3.9,-8.7 8.7,-8.8 z m 121.6,29.8 c 4.8,-0.1 8.8,3.8 8.8,8.7 0,4.9 -3.8,8.8 -8.7,8.8 -4.8,0.1 -8.8,-3.8 -8.8,-8.7 0,-4.8 3.8,-8.8 8.7,-8.8 z m -25.4,57.3 c 4.8,-0.1 8.8,3.8 8.8,8.7 0.1,4.8 -3.8,8.8 -8.7,8.8 -4.8,0.1 -8.8,-3.8 -8.8,-8.7 0,-4.7 3.8,-8.7 8.7,-8.8 z m 385.5,29.8 5.8,25.8 20.1,5.1 -3.4,-22.1 -22.5,-8.8 z m 70.4,8.2 -0.3,15.4 17.9,1.9 6,-26.5 -23.6,9.2 z m -299.6,26.5 c 4.8,-0.1 8.8,3.8 8.8,8.7 0.1,4.8 -3.8,8.8 -8.7,8.8 -4.8,0.1 -8.8,-3.8 -8.8,-8.7 0,-4.8 3.8,-8.8 8.7,-8.8 z m 256.9,32.8 -20.9,6.1 -9.8,29.3 26.8,-10 3.9,-25.4 z m 41.1,2.1 2.8,21.6 26,11.4 -9.1,-30.7 -19.7,-2.3 z m -379.3,188.4 -157.4,292.1 43.9,-1.1 148.5,-275.5 -35,-15.5 z m -504.3,75.9 -14,19.3 13.7,22 15.2,-22.4 -14.9,-18.9 z"
               id="path4071" /><path
               d="m -1218.1,-1337.9 c -19.8,0.3 -39.5,13.8 -44.8,39.8 -1.2,5.8 -1.6,15.8 -1.7,43.8 -0.2,41.5 -0.6,38.1 -0.6,38.1 l -17.8,-0.2 1.2,23.1 19,-0.1 c -0.1,0.1 -0.4,1.4 0.3,14.4 1.9,32.5 7.1,44 25.6,52.5 12.5,5.8 35.6,5.5 45.9,-2.8 6.3,-4.1 6.9,-4 14.4,0.5 16,9.7 29.1,4.2 29.1,4.2 l -0.7,-23.6 c -25.1,-0.1 -28.5,-6 -22.1,-22.4 0.4,-1.1 0.5,-3.3 0.7,-6.1 1.6,-26.3 -0.2,-115 -3.2,-125.5 -6.8,-23.7 -26.7,-36 -45.3,-35.7 l 0,0 z m -1.9,23.3 c 9,-0.1 18.3,6 22.6,17.3 4.6,12 4.5,10.9 6.6,85 1,36.5 -0.5,36.3 -0.5,36.3 -14.2,-18.4 -32.1,-31.9 -51.5,-38.1 0,0 0.4,1.7 -0.4,-34.2 -0.8,-37.1 -0.4,-45.1 5,-54.9 4.4,-7.7 11.2,-11.4 18.2,-11.4 l 0,0 z m 450.5,67.1 c 30.6,89.3 34.3,177.6 9.6,262.8 14.6,0.6 78.6,16.2 114,37.5 -6.3,16.8 -104.5,140.3 -171.5,196.2 19.4,18.8 40.8,37.6 63.2,58.3 34,31.5 46.1,53.3 48.7,94.7 -0.1,20 -7,44.7 -19.5,62.3 -9.5,13.3 -19.6,23.6 -39.9,37.4 -18.8,12.7 -46.1,40 -80.4,80.1 -13.1,15.3 -35.1,43.1 -53.3,69.6 -6.9,9.6 -27.2,39.7 -27.2,39.7 -69.4,-55.4 -143.5,-97.8 -145.4,-97.5 0,0 73.9,-40.4 89.4,-48.7 12.1,7.6 28.3,0.8 20.3,-16.1 -15.5,-38.4 -5.4,-78.2 12.7,-106.2 4.3,-6.7 15,-10.7 32.2,-12.1 7.5,-0.6 15.4,-0.4 23.3,-0.6 2.9,0 10.6,1 14.8,3.2 14.1,7.5 16.8,-2.4 25.2,-35.7 8.3,-33.1 -6.1,-74.8 -26.1,-74.7 -4.7,0 -7.3,1.8 -6.2,13.5 0.8,8.9 -1.3,13.5 -3.5,19.1 -4.9,12.3 -7.4,24.2 -8.8,40.2 2.9,0.6 -18.8,-21.2 -52.8,-29.5 -22,-2.4 -33.5,-29.6 -32.6,-29.7 0,0 3.2,-7.5 6.1,-10.4 7.6,3.5 15,7.7 23.9,10.2 0,0 -2.2,-11 -3,-13.9 -4.3,-15.3 -4.1,-17.6 1.8,-20.8 14.5,-8 15.9,-22.1 4.4,-34.8 -2.9,-3.2 -5.4,-5.3 -9.3,-6.9 l 6.9,-28.8 c 0,0 -6.6,1.5 -11.9,3.2 -15.3,4.8 -14.1,5 -20.7,-2.4 -14.4,-16 -36,-12.7 -39.1,6 -0.3,2.1 -1.3,5.4 -1.3,5.4 l -32.8,-15.5 c 1,7.6 9.8,33.5 9.8,33.5 -28.3,22.5 -4,41.9 3.9,43.9 0,0 -6.4,21.3 -8.6,30.2 l 32.1,-9.6 c 2.8,6.1 6.2,10.7 12.9,15 1.9,18.1 16.1,32.6 25.8,41.2 0,0 1.5,6.6 0.7,10.9 -2,10.6 8.9,27.1 10.8,28.1 -44.4,-17.6 -90.7,-38.8 -135.5,-59.6 l 8.9,546.8 c 0,0 10.5,9.2 31.2,23.7 9.9,7 9.9,7 8,15.2 -2.6,10.8 -1.8,19 8.1,89.6 5.3,37.4 11,76.1 16.1,110.8 2,12.7 2.4,20.8 2.4,20.8 -9.9,-4.4 -24.2,-4.7 -31.5,3.6 -12.6,14.7 -2.1,37.9 16.8,37.2 4.3,-0.3 7.2,-1.6 10.9,-4.2 2.5,-1.4 5.2,-0.2 5.2,-0.2 l -27.6,49.8 33.1,54.3 31.7,-58.8 -24.1,-46 c 0,0 2.3,-0.3 5.5,1.3 3.2,1.6 7.4,2.7 10.4,2.9 16.4,-0.1 19.7,-7.6 21.3,-21.1 -0.2,-17.3 -14.1,-25 -33,-18.3 -3,1.1 -6.3,1.4 -6.3,1.4 l 17.8,-190.9 10.8,7.7 3.5,-1.9 -9.4,-7.9 c 1.7,-30.6 -8.5,-41.3 -19.5,-48.6 36.2,-21.1 20,-53.7 -4.3,-63.5 0,0 15.6,-9.4 18.7,-19 2.6,-8.7 1.4,-22.3 -1.9,-46.5 -2.7,-37.4 -11.6,-114.5 -11.6,-114.5 32.1,23.6 65,48.9 96,72.8 l 60.6,-86.2 148.4,-0.6 c 0,0 113.9,101.1 171.2,152.7 l 49,-0.1 c 0,0 0.6,5.2 1.1,8.7 5.2,50.5 39.5,84.8 70.7,108.8 12.7,11.2 44.1,40.5 44.1,40.5 l -57,58.8 -356.5,-311.4 c 0,0 -1.7,-4.6 -2.5,-7.4 -8.5,-33.3 -30.8,-47 -50.9,-44.5 -21.1,2.7 -38.9,23.7 -37.6,59.1 0.2,5.5 2.3,15.1 2.3,15.1 L -937.7,0.3 c 0,0 -26,-19.4 -40,-28.7 l -3,1.8 38.1,28 2.8,-1.2 10.8,8.3 0.9,5.7 c 33.3,22.1 89.7,63.4 89.7,63.4 26.2,-19.9 54.1,-13.7 82,-6.6 0,0 20.3,6.5 31.1,6.4 54.7,0.6 103.3,10.7 154.3,28.5 l -181.7,330.5 353,-3.2 c -18.2,-68.6 -37.4,-138.2 -5.7,-255.8 -34.9,-6.6 -112.6,-36.8 -112.6,-36.8 0,0 -0.4,-1.8 2.8,-5.8 14.1,-20.6 49.6,-76.5 83.2,-108.9 4.1,-3 62.6,-61 63.1,-62.8 0.3,-1 1.7,-4.9 4,-6.5 5.4,-3.7 19.7,-17.5 19.7,-17.5 l -74.7,-63.3 c 0,0 -3.3,-0.3 -4.3,-0.9 -10.4,-5.7 -29.4,-37.7 -34.2,-59.2 -11.1,-49.5 8,-88.9 62.5,-129.8 53.3,-37.4 153.6,-181.3 153.9,-184.5 55.4,44.9 98.6,67.9 147.2,97.2 -29,17.1 -52.7,28.5 -73,39.8 -13.2,7.7 -15,9.3 -26.2,6.3 -12.7,0.2 -17,5.2 -13.6,16.1 19.5,30.1 12.1,100.9 -13.7,114.8 -22.4,12.1 -44.4,9.1 -62.6,2.6 -14,-4.3 -13.8,-4.4 -19.9,8.4 -13.4,29.4 -14,54 -1,81.8 10.6,22.4 26.2,32.4 27.7,2.1 0.9,-17.8 8.5,-38.7 8.1,-57.8 15.9,17.2 26.5,25 52.4,31.8 17.4,2.5 36,24 35.5,32.9 -4.7,4.9 -6.1,11 -6.9,10.6 -8.5,-2.7 -26.8,-10.2 -26.8,-10.2 l 8.1,27.4 c 0,0 -1.3,1.3 -5,3.2 -17.1,9 -15.7,32.7 2.4,42 3.7,1.9 4,2.8 2.5,7.9 -2.1,11.3 -7,18.9 -9.5,30.1 0,0 2.5,0.1 23,-9.7 l 8.1,-3.8 4.9,5.2 c 10.8,11.3 23.6,11.1 34.7,-0.6 l 5.1,-5.3 14.4,7.1 c 13.6,6.7 17.1,8.1 17.1,8.1 0,0 -8.1,-30.1 -9.6,-33.5 -0.8,-1.9 -2.4,-3.7 -3.6,-4.1 -1.9,-0.7 -1.6,-1.1 3.4,-5.3 12.9,-10.4 14,-24.6 2.8,-35.3 -4.3,-4.1 -4.8,-4.9 -4.8,-4.9 l 6.4,-28 -27.8,9.5 c -4.5,-9.3 -11.5,-13.5 -16,-15.3 -0.6,-12.6 -2.3,-25.6 -24.2,-45.1 7.2,-6.8 -1.6,-22.7 -8.9,-32.3 12.2,4 42.9,16.5 42.9,16.5 l 4.6,-0.2 14.6,6.8 1.7,2.6 c 0,0 46.1,21.1 67.2,31 -0.1,-1.1 -0.5,-23.8 -3.3,-272.9 -1.7,-148.6 -2.8,-270.8 -3.1,-271.5 -0.3,-0.8 -5.4,-4.6 -10.7,-8.5 -9.7,-7.2 -11.7,-8.6 -24.1,-16.6 -9.9,-6.4 -9.2,-6.4 -7.3,-14 2.2,-8.7 2.1,-20.6 -1.3,-43 -2.5,-16.5 -11.4,-74.4 -17.8,-121.2 -4.4,-32.8 -5.5,-40.1 -6.5,-45.4 -1.8,-13.3 -0.1,-19.1 -0.4,-19.3 46.2,19.4 49.1,-46.7 3.1,-37.3 8.6,-17.9 16,-26.2 23.3,-45.3 -9.9,-20.6 -31.5,-55.4 -31.5,-55.4 l -33.1,59.1 20.3,40.4 c -22.9,-3.9 -34.8,12.9 -30.4,27.7 4.7,13.1 17.4,16.7 28.5,11.2 8.5,-3.5 8.5,-4.3 1.6,60.1 -2,19.1 -11,108.2 -12.3,121.5 -0.8,8.9 -1.4,11.4 -5,9.5 -4.9,-2.1 -7.8,-5.1 -12.7,-8.3 l -2.7,2.6 c 4.4,3.5 9.7,8 15,12.9 -1,23.6 -0.3,37.3 19.4,48.5 -35.3,22.7 -14.1,56.8 6.8,61.5 -12.4,3.4 -24.5,19.5 -21.2,51.3 l 11.5,131.1 -97.3,-70.5 -55.7,81.7 -149.2,1.8 -170,-150 c 0,0 -36.9,-0.1 -52,-0.3 1.7,-0.8 -3.7,-46.9 -28.4,-76.8 -26.8,-31.2 -87.6,-82.5 -87.6,-82.5 l 62.6,-64.9 358.8,315.8 c 0,0 1.8,9 2.8,12.9 12.4,50.4 69.9,52.8 81.5,1.2 1.9,-8.3 4,-27.7 3.1,-30 -0.3,-0.7 1.4,-9.2 3.8,-18.8 18.3,-75.1 33.8,-139.9 51.8,-212 2.5,-9.9 5.1,-21 5.8,-24.6 2.9,-14.6 2.5,-14.5 17.9,-3.2 9.4,6.9 13.3,9.4 13.3,9.4 l 2.9,-3.1 c -10.6,-8 -28.7,-20.7 -28.7,-20.7 l 0.1,-5.5 c -58.1,-40.7 -70.1,-51.5 -104.6,-78.2 -26.2,23.6 -64.2,14.6 -88,6.6 -6.1,-2.3 -21.2,-6.1 -21.2,-6.1 -59.1,0.7 -111.1,-10.1 -160.3,-25.6 l 185.3,-338.6 -73,0.8 -2.5,2.9 -38,0.4 -0.2,-2.9 -248.3,2.8 z m 709.2,1099.1 c 0.1,0.2 0.1,0 0,0 l 0,0 z m -493.7,-1093.9 25.8,0.2 -149.8,274.5 -16.3,-6.2 c 0,0 1.5,-0.8 1.3,-12.3 -0.2,-12.3 -2.9,-17.6 -8.5,-24.8 -4.7,-6.3 -6.7,-6.6 6.9,-4.9 27.9,3.5 47.4,-27 36.1,-50.6 -4.4,-9.1 -3.8,-9.6 7.5,-10.9 31.1,-3.4 42.7,-43 20.5,-62.5 -4.6,-4.1 -2.6,-6.7 5.9,-5 27,5.5 47.5,-24.6 36.5,-47.8 -3.6,-6.5 -0.4,-7.6 4.5,-8.3 23,-5.4 30.6,-23.6 29.6,-41.4 l 0,0 z m -206.1,2.3 119.7,-1.3 c -15.8,24.8 12.8,39.1 16.4,37.3 -25.7,14.4 -18.3,34.2 -4.9,40.8 13.1,6.5 32.5,0.3 27,-28.3 l 6.4,-2.9 c 6.3,7 13,50.6 -34.6,45 -8.5,-1 -13,7 -5.8,11.3 38,42.7 -20.5,62.5 -23.2,55.3 l -0.3,-7.3 c 15.9,2.7 36,-18 18,-36 -10.3,-10.2 -39.6,-4.9 -34.2,26.5 -17.7,-25.7 -36.5,-17.7 -41.5,-4 -3.8,10.7 1.4,25.2 18.7,27.4 -19.2,16.4 -9.6,34.4 3.8,38.2 14.7,4.2 29.6,-1.9 25.3,-28.5 0.2,-2.5 5.3,-1.8 5.8,-1.9 15.6,37.7 -20.5,52 -40.2,44.4 -7.3,-2.7 -11,8.5 -3.2,14.1 11.8,8.5 8.5,33.4 7.1,33.7 -21.8,-8 -53.1,-13.8 -51.9,-13.3 19.7,-82.2 17.5,-165.7 -8.4,-250.5 l 0,0 z m 190.9,-2.1 10.8,-0.1 c 0.3,15.5 -6.2,34.6 -32.6,37.8 0.1,-4.2 -0.3,-8.1 -1.4,-12.5 9.9,-2.3 23.1,0.3 23.2,-25.2 z m 47.2,0.3 34.5,-0.2 -159.3,290.2 -26.1,-13.1 150.9,-276.9 z m -84.9,22.8 c 6.1,-0.1 11.1,4.8 11.2,10.9 0.1,6.1 -4.8,11.1 -10.9,11.2 -6.1,0.1 -11.1,-4.8 -11.2,-10.9 -0.1,-6.1 4.7,-11.1 10.9,-11.2 z m -338.7,8.9 c -25.3,67.7 -74.9,109.1 -110.5,177.4 -37.3,69.4 -19.2,128.6 34.6,139 28.4,5.5 61.2,-22.5 65.1,-52.5 0.9,-7.2 2.2,-9.2 5.5,-9.2 4.9,-0.1 4.5,12.4 1.6,29.4 -7,44.9 -22.1,72.4 -33.6,89.3 l 93.3,-1.8 c -19.2,-22.6 -34.1,-53.1 -37.6,-91 -2.5,-20.6 -0.9,-29.7 5.7,-26.2 2.2,1.1 2.8,3.2 3.8,13.8 3.8,36.9 42.8,56.7 73.9,40.1 42.9,-23.3 41.3,-66 31,-97.1 -30.8,-81.3 -97.3,-134.2 -132.8,-211.2 z m -284.7,28.7 c 11.3,9.4 22.5,20 30.3,29.4 -10.7,7.8 -21.9,8.4 -28.9,4.6 -7.8,-4.2 -11.3,-14.2 -12.3,-31 -0.5,-9.3 2.7,-9.8 10.9,-3 z m 14.4,89 c 0.3,-0.1 -16.5,35.3 -28.9,54.4 -8.8,16.7 -30.7,46 -24.5,69.1 7.1,24.1 33,29.9 46.5,11.2 6.3,-8.8 7.7,-7.8 7.6,2 0,18.6 -9.7,29.3 -16.8,38.5 l 47.1,-0.2 c -10.1,-11.9 -19.2,-21.8 -20.4,-38 0,-6.1 1.7,-10.6 6.1,-4 4.9,4.7 9.1,13.3 22.4,10.8 13.7,-2.6 25.5,-20.6 22.6,-37.9 -3.9,-20.1 -16.7,-39.7 -29.5,-56.5 -10.7,-14.2 -32.5,-48.7 -32.2,-49.4 z m 541.1,0 c 5.6,-0.1 10.3,4.5 10.3,10.1 0.1,5.6 -4.5,10.3 -10.1,10.4 -5.6,0.1 -10.3,-4.5 -10.3,-10.1 -0.1,-5.8 4.5,-10.4 10.1,-10.4 z m 534.9,2.2 28,47.6 -30.8,55.9 -26.8,-53 29.6,-50.5 z m -0.3,16.3 -19,32.2 17.9,32.5 19.6,-31.3 -18.5,-33.4 z m 0.5,13.7 10.2,19.2 -11.9,19.7 -10.3,-20.6 12,-18.3 z m -25.9,65.1 c 2.1,0 4.3,0.4 6.6,1.3 18.6,7.5 13,35.8 -6.8,34.2 -2.6,-0.2 -6.1,-1.5 -8.6,-3.2 -13.8,-11 -5.8,-32.1 8.8,-32.3 z m 45.3,0.1 c 16.2,0.1 26.2,22.5 9.3,33.3 -8.2,4.7 -20.5,2 -25.4,-6.1 -4.2,-6.9 -2.6,-18.6 6.7,-24.8 3.2,-1.7 6.4,-2.5 9.4,-2.4 z m -22.2,32.4 c 1.6,0.1 3.5,8 5.2,21.6 0.6,4.9 2.4,17.3 3.8,27.5 2.8,21.7 5.6,42 8.1,62.9 0.5,4.1 1.7,12.9 2.7,19.5 10.1,68 12.5,89.8 10.3,95.6 -5.7,20.4 -33.4,22.2 -45.1,10.6 -8.9,-8.8 -10.2,-18.6 -7.1,-44.2 1.8,-14.8 2.6,-22.2 7.8,-78.6 1.2,-13.2 3,-30.8 4,-39 2.1,-22.1 4.6,-42.8 7.3,-64.5 0.9,-8 1.9,-11.5 3,-11.4 z m -453.4,55.6 c 0,0 89.1,28.3 156.6,26.2 9.9,-0.1 11.5,-0.2 23.9,3.7 7.3,2.3 18.9,5.4 25.7,6.9 20.9,3.8 39.2,2.5 55.3,-4.3 2.5,-1.1 6.2,-4.2 10,-3.1 2.3,0.7 5.7,5.2 5.7,5.2 -59,16.4 -197.4,15 -283.9,-20.4 l 6.7,-14.2 z m 456.2,4.3 c -0.4,0.1 -0.7,0.6 -1.2,1.3 -1.4,2.3 -0.1,17.3 5.8,64.9 11.3,91 11.3,92.9 -1.1,102.6 -6.1,4.8 -7,6.7 -4,8.4 2.2,1.3 2,1.2 6.5,0 10.4,-3 14.7,-11.4 14.4,-28.3 -0.2,-12.9 -0.4,-14.5 -4.8,-46.2 -1.5,-11 -3.6,-26.5 -4.6,-34.5 -7.3,-56.8 -9,-68.6 -11,-68.2 z m -465,14.7 c 88.7,30.7 181.2,38.6 292.3,20.3 0,0 10.8,6.8 16.2,10.2 l -3.7,0.9 1.9,15.4 18.9,-3.2 c 0,0 10.3,8 18,12.9 -98.9,31.4 -259.3,28 -358.7,-14.9 -3.8,-2.1 -6,-3.8 -6,-3.8 2.1,-5.3 4.6,-8.4 7.2,-11.4 l 18.1,5 5,-16.5 -13.9,-4.9 4.7,-10 z m 23.4,19.4 -5.6,16.3 25.3,7.2 4.1,-16.6 -23.8,-6.9 z m 38.8,9.6 -3.1,18.5 25.4,4.4 3,-18 -25.3,-4.9 z m 42,8.2 -1.8,17.8 26.9,2.5 1.5,-18 -26.6,-2.3 z m 184.7,-1.7 -22.8,2.8 1.6,15.7 23.1,-3 -1.9,-15.5 z m -40.3,4.9 -22.7,1.8 1,16.4 22.8,-1.7 -1.1,-16.5 z m -102.2,1.5 0.2,17.5 23.3,0.6 0.1,-17.8 -23.6,-0.3 z m 64,1.5 -21.4,0.3 0.1,16.6 21.7,-0.1 -0.4,-16.8 z m -248.6,5.7 c 2.3,-0.1 7.7,5 9.9,10.7 4.4,11.3 2.6,23.9 -4.1,28.1 -9.1,5.8 -20,-3 -13.7,-11.1 1.1,-1.4 2.9,-2.9 4,-3.2 4.7,-1.5 5.7,-9 3,-21.8 -0.4,-1.8 0,-2.7 0.9,-2.7 z m 34.4,4 c 96,30.3 204.7,39.6 316.3,15.4 0,0 -50.6,217.1 -51.7,217.2 l -264.6,-232.6 z m -46.9,1.1 c 5,-0.1 6,8.5 1.6,13.1 -5.7,5.9 -16.9,1.3 -14.6,-6 0.5,-2.1 9.6,-7 13,-7.1 l 0,0 z m 27.5,4.8 c 1,-0.1 3,2 6.2,6.2 10.9,14.3 11.9,30.5 2.4,38 -11.2,8.8 -19.6,-4.5 -10.3,-16.4 2.4,-3.1 2.7,-8.7 1.1,-21 -0.5,-4.5 -0.4,-6.8 0.6,-6.8 z m 371.1,1.1 c 1.2,-0.1 3.4,0.9 7.8,3 6.9,3.3 9.3,8.2 6.1,12.2 -4.7,5.8 -18,-5.5 -15.6,-13.3 0.4,-1.3 0.7,-1.9 1.7,-1.9 z m -10.2,7.6 c 1.7,0.2 4.5,3.3 7.8,9.6 2.1,4.1 3.3,5.2 6.8,6.5 8.2,2.9 9.8,11.3 2.7,13.9 -7.8,2.8 -13.7,-2.7 -17.4,-16.4 -2.6,-9.1 -2.1,-13.8 0.1,-13.6 z m -342.2,9.9 c 1.2,-0.1 3.5,2.6 7.1,7.8 10.9,15.7 7.5,46 -5.9,53.2 -5.9,3.2 -10,2.6 -14.9,-2.1 -7,-6.9 -5.4,-12.4 4.9,-16.3 8.8,-3.3 11.5,-13.4 8.6,-31.6 -1.1,-7.3 -1.2,-10.9 0.2,-11 l 0,0 z m 51,4.4 c 65.9,53.2 125.6,110.3 202.4,176.9 17.4,-55.8 42.5,-171.4 42.6,-171.8 -3,2.4 -127.6,21.5 -245,-5.1 z m 244.9,5.1 c 0.1,-0.1 0.1,-0.1 0,-0.1 0,0 0,0.1 0,0.1 z m 40.4,-8.1 c 1.1,0 4.3,8.1 6.2,15.4 1.7,6.7 8.3,17.8 10.8,18.2 12.9,2 18.5,9.2 12.2,15.6 -4.6,4.7 -14.8,2.2 -19.7,-4.9 -9.3,-13.3 -15.9,-44.2 -9.5,-44.3 z m -729,15.5 c 7.8,0 15.3,4.8 17.3,14.9 2.3,11.7 -4.2,20.3 -9.9,19 -6.1,-2.2 -8.3,-11.9 -8.3,-11.9 0,0 -1.4,7.9 -3.8,11.9 -5.4,8.4 -17,-3.9 -15.1,-15.9 1.9,-11.7 11,-18 19.8,-18 l 0,0 z m 465.1,-2.1 c 71.3,9.9 132.5,12 217.3,1.8 l -38.2,155.8 -179.1,-157.6 z m -53.7,0.9 c 1.1,0.1 3.2,1.9 6.7,5.5 11.2,11.6 14.6,27.8 7.5,35.9 -4.3,4.9 -7.3,5.5 -11.9,2.4 -6,-4 -6.5,-10.1 -1.1,-13 5,-2.6 5.4,-8.3 1.3,-19.1 -3.2,-8 -4.1,-11.8 -2.5,-11.7 l 0,0 z m -464.2,9.1 26.1,10.5 9.6,21.9 -26,-6.4 -9.7,-26 z m 98.3,1.9 -7.5,22 -19.9,7.7 7.5,-23.7 19.9,-6 z m 678.3,-3 c 1,0 2.4,2.7 4.2,8.4 4.5,14.1 6.3,17.7 10.2,19.5 6.4,3 7,10.7 1,13.5 -3.8,1.8 -5.1,1.4 -7.8,-2.1 -4.3,-5.5 -7.8,-16.1 -8.6,-25.7 -0.7,-8.9 -0.3,-13.5 1,-13.6 z m -289.3,13.1 c 0.8,-0.1 1.9,1 3.5,3 10.2,11.9 11.5,30.3 2.6,35.9 -8.7,5.4 -21.1,-5.4 -13.5,-11.9 0.7,-0.6 2.2,-1.9 3.5,-2.9 2.1,-1.6 2.3,-2.6 2.4,-13 0,-7.7 0.2,-11 1.5,-11.1 z m 76.7,0.4 125.7,111.8 27.3,-112.2 c -49,4.9 -100.4,4.2 -153,0.4 z m -305.7,9.1 c 39.8,41.1 91.6,74.1 104.3,115.2 22.5,56.6 7.2,122.7 -43.7,161 -28.1,21.7 -55.6,44.6 -78.3,72.1 -37.4,40.7 -62.2,85.1 -87.1,117.3 -4.2,5.4 -15.3,22.5 -15.3,22.5 0,0 -5.5,6.4 -24.1,-8.9 -49.6,-43.1 -101.4,-74.2 -154.2,-103.7 l 22,-12.7 c 44,24.5 98.8,59.4 148.3,100.2 0,0 38.3,-57.3 50.5,-73.7 17.8,-23.6 30.2,-38.8 46.8,-57 42.2,-53.4 86.3,-71.3 104.4,-98.3 26.5,-39.5 27.2,-86 4.5,-125.5 -22.3,-37.6 -65.1,-63.1 -93.7,-94.2 l 15.6,-14.3 z m 373.3,-1.1 48.7,-0.5 c 0,0 -7.1,6 -12.5,9.8 -3.4,2.3 -7.4,2.1 -15,-1 -7.5,-3.1 -21.2,-8.3 -21.2,-8.3 z m 55.7,-0.6 11.3,0.2 c -8.4,10.7 -17,17.7 -28.3,27.3 -1.5,0.6 -2.3,0.9 -5.7,-0.2 -23.3,-7.4 -44.8,-17 -67.5,-26 l 20.2,-0.3 c 0,0 9.7,3 24.4,8.9 16.8,6.8 21.2,8.8 27.6,4.5 6.2,-4.1 11.3,-10.4 18,-14.4 z m 23,-0.2 -3.9,15 c -6.7,8.6 -20.3,18.5 -31.7,28.2 -2.7,1.4 -2.6,1.7 -14.4,-2.7 -43.4,-16.3 -64.5,-27 -64.5,-27 l -8.9,-7.7 c 0,0 11.3,3.1 18.8,5.9 5.1,1.9 13.8,5.1 19.3,7.1 5.5,2 17.7,7 25.9,10.1 18.8,7.2 17.8,7.4 35.5,-8.6 19.4,-17.5 23.9,-20.3 23.9,-20.3 z m -655.2,8.6 19.1,21.4 -24.9,21.4 -19.2,-22.2 25,-20.6 z m 716.1,-7.9 c 4.4,8.1 7.5,17.6 14.6,24.4 5.4,5 6.7,8.9 3.6,11.8 -8.2,5.2 -9.7,-3 -12.3,-8.3 -4.5,-9.4 -10.1,-22.1 -5.9,-27.9 z m -682.5,9.7 c 0.5,0 1,0 1.5,0 20.1,0.1 25.2,29.8 6.3,37.1 -6.8,2.6 -14.6,1.6 -18.8,-2.6 -4.1,-4 -4.7,-7.5 -2,-9.7 4.3,-3.2 14.7,-3.5 14.7,-3.5 0,0 -9.5,-3.1 -13.7,-5.4 -8.2,-4.5 -1.2,-15.2 12,-15.9 l 0,0 z m 414.4,-4.5 c 1.1,0.1 3.1,2.3 6,6.9 10.3,16.7 10.2,48.6 -0.3,56.8 -5.5,4.3 -12.3,3.7 -17,-1.3 -6.1,-6.7 -4.4,-13.5 4.6,-17.6 8.7,-3.9 10.3,-12.6 6.6,-33.8 -1.4,-7.4 -1.3,-11.1 0.1,-11 l 0,0 z m -488.3,5.9 c 6,-0.3 11.8,2 14.8,6.7 2.2,3.5 1.2,6.1 -2.8,7.9 -4.9,2 -14.1,3.8 -14.1,3.8 0,0 9,1.4 14.5,3.5 6.8,2.9 6.4,8.5 -3.5,13.3 -19.1,9.3 -37.5,-15.4 -21.8,-29.9 3.4,-3.3 8.2,-5.1 12.9,-5.3 z m 504.9,6.4 c 0.1,0 0.3,0 0.5,0 1.8,0.2 5,2.7 8.4,7 11.6,15 13.9,37.8 4.2,42.3 -10.2,4.8 -17.7,-4.8 -10.4,-13.3 5.2,-6 4.4,-14.8 -2.7,-32.1 -1.2,-2.4 -1,-3.7 0,-3.9 z m 247.1,-2 c 0.9,-0.1 2.6,3.5 5.3,10.9 6,16.1 11,22.9 17,22.8 7.5,-0.1 11.6,10.2 5.7,14.4 -11.6,8.3 -27.2,-11.6 -28.6,-36.7 -0.4,-7.5 -0.3,-11.3 0.6,-11.4 z m -61.9,8.8 -3.3,13.3 c 0,0 -7.9,7.9 -13.6,12.9 -9,8 -11.2,9.5 -18.4,7.2 -11.1,-3.7 -22,-7 -33.6,-10.4 l -26.8,-21.7 60.9,23 c 0,0 5.3,1.5 7.1,-0.4 7.9,-8.1 16.5,-14.3 27.7,-23.9 z m 57.4,11.7 c 0.8,-0.2 1.5,0.8 2.1,3.2 2.9,12.4 7,21.4 10.3,22.8 4.3,1.7 5.9,5.4 4.2,9.2 -5,10.9 -18.8,-8.1 -19,-26.2 -0.1,-5.2 1.1,-8.7 2.4,-9 z m -219,3.3 c 0.7,-0.1 1.9,1 3.8,2.9 8.5,8.3 11.3,31.4 4.6,38.3 -9.6,9.8 -20.2,-4.5 -10.9,-14.8 2.5,-2.7 2.5,-2.9 1.7,-14.8 -0.4,-8.2 -0.4,-11.5 0.8,-11.6 z m -508.3,8 -6.3,21.8 -20.9,5.6 4.7,-18 22.5,-9.4 z m 25.1,1.9 c 1.7,-0.1 3.6,0.5 5.6,1.9 8.6,6.1 9.4,16.7 5.5,24.5 -3.7,7.7 -11.5,9.9 -19.1,9.2 -9.8,-1 -17.3,-7.7 -16.9,-18.2 0.1,-5.2 2.3,-11.1 5.8,-13.6 2.5,-1.8 4.5,-1.1 6.7,2.5 2.1,3.5 5.6,11.4 5.6,11.4 0,0 0,-8.1 1.1,-12.4 1,-3.2 3.1,-5.1 5.7,-5.3 z m 16,1.8 15.2,5 6.2,20.6 -17.1,-6.4 -4.3,-19.2 z m 866,-5.8 c 0,0 4.4,1.8 25.3,18 5.2,4.1 14.1,11.8 14.1,11.8 l 2.5,269.1 c 0,0 -41.1,-21.6 -46.5,-26.8 -2.9,-3 -1.6,-11.5 -0.8,-26.8 4.4,-40.4 6,-71.3 10.7,-108.6 3.2,-41.6 11,-53.6 -17,-71 29.7,-19.1 21,-48.3 2,-60.3 l 9.7,-5.4 z m -244.3,3.7 -2.6,12.3 c -9.7,17 -18.5,16.2 -33.7,8.6 l -18.3,-15.2 c 11.8,2.3 18.1,6 29.6,9.5 5.7,1.5 7.8,0.5 11.7,-3.2 4.7,-4.2 8.1,-7.3 13.3,-12 z m -134.2,8 c 6.2,6.6 7.9,13.2 7.5,29.5 -1.1,11.6 -0.4,20.3 -9.9,26.9 -4.6,3.1 -12.7,3.2 -16.3,0.2 -8.7,-5.7 -4.1,-17.3 7.2,-18 7.1,-0.2 9.8,-23.5 5.6,-38 -0.7,-2.3 -0.5,-3.7 0.6,-3.9 1.2,0 3.3,1.2 5.3,3.3 z m 192.5,-3 c 1.4,0 3.9,3.5 5.4,9.3 2.2,8.4 5.2,13 9.9,15.3 6,3 8,8.8 4.2,12.2 -7.5,6.9 -15.3,-1.2 -18,-18.6 -0.1,-2 -3.8,-18 -1.5,-18.2 z m 162.2,1.1 c 16.8,0.1 26.5,11.8 26.6,26 -0.1,10.3 -5.6,20.8 -15.9,25.3 -24.7,7.6 -38.3,-8.9 -38.3,-25 0.1,-13 10.7,-26.4 27.6,-26.3 l 0,0 z m -339.9,13.1 c 14.3,14 15.3,44.3 1.4,44.5 -16.7,-5.3 -3.8,-15.3 -3.5,-17.8 1.2,-10.5 -1.3,-17.1 -3.8,-26.8 -1.2,-5.9 4.3,-1.6 5.9,0.1 z m 340.9,-5.2 c -3,-0.1 -2.7,2.9 2.8,7.6 10,8.4 5.3,24.2 -7.2,24.4 -5.8,0.1 -7.1,4 -2.1,6 19.5,7.6 32.4,-22.1 14.9,-34.2 -3.7,-2.6 -6.7,-3.7 -8.4,-3.8 z m -742.9,12.2 c 15.7,5.2 21.4,34.9 22.1,45.4 0.9,18.3 -7.3,48.3 -14.8,54.3 -19.5,15.7 -29.3,-38.9 -12.9,-74.3 1.4,-2.9 3.2,-6.8 2.5,-14 -0.8,-7 0.4,-11.3 3.1,-11.4 l 0,0 z m 516.6,-2.8 c 0,0 -1.9,9 -3.9,13.9 -2.4,5.7 -4.1,5.9 -9.8,1.1 -3.2,-2.7 -8.4,-8.2 -8.4,-8.2 4.9,0.7 9.3,3.2 13.5,1.1 4.3,-2.3 7.9,-6.4 8.6,-7.9 z m 59.4,-0.2 c 1.1,0 2.6,3.1 4.5,9.3 5.3,16.8 9.9,23.1 16.7,23 11.2,-0.1 13.8,13.3 3.2,16.9 -3.9,1.3 -5.2,1.3 -10.2,0.1 -7.5,-1.9 -18.1,-27.2 -16.8,-40.1 0.7,-6.2 1.4,-9.2 2.6,-9.2 z m -688,17.4 c 4.1,-0.1 5.7,1.9 8.2,6.8 2.8,5.6 10.1,12.8 16.2,15.9 14.8,7.1 30.3,12.5 44.9,19.6 18.9,9.2 36.1,38 24.6,41.1 -4.2,1 -9,1.1 -13.3,0.8 -1.4,-0.7 -4.2,-3.8 -6.1,-7 -8.7,-13.9 -24.9,-27.5 -49.8,-33.7 -17.5,-4.3 -33.4,-25.7 -36.8,-35.7 -0.9,-2.6 -1,-4.7 1.4,-5.4 4.9,-1.4 8.2,-2.3 10.7,-2.4 l 0,0 z m 530.5,-4.1 c 0.8,-0.1 1.9,0.8 3.7,2.7 10.5,11 12,31.4 2.8,37.2 -10,6.4 -19,-3.9 -11.2,-12.8 3.5,-3.9 3.5,-3.9 3.3,-15.5 -0.1,-8 0.1,-11.4 1.4,-11.6 z m 151.3,11.3 c 1.2,0 3.2,3.5 5.5,10.2 3.3,9.6 3.8,10.3 7.4,12.2 6.2,3.1 7.3,7.9 2.8,12.5 -8.4,8.6 -17.1,-5 -17.4,-27.1 0,-5.3 0.6,-7.9 1.7,-7.8 z m -135.7,3 c 0.8,0.1 2.9,1.7 4.6,3.7 12.9,14.9 10.7,50.3 -3.4,55.8 -4.7,1.8 -6.2,1.9 -9.1,0.7 -10.6,-4.5 -9.5,-15.6 3.5,-22.9 9.7,-5.4 2.4,-37.1 4.4,-37.3 z m -650.4,18.3 52.8,25.5 c 0,0 14.7,30.2 21.5,41.5 4.6,7.8 13.8,15.3 4.5,20.7 -15.7,10.9 -24.6,17.1 -24.4,23.7 0.2,5.4 6.9,10.8 16,21.3 13.1,15.1 12.9,11.6 1.5,34.9 -8.8,16.4 -16.1,53.3 -16.1,53.3 l -52.8,27.9 c 15.4,-37.9 33.6,-70.2 54.2,-93.4 -15.6,-11.3 -28.7,-23.1 -42.5,-38.9 9.9,-13.5 23,-24.5 35,-36.3 -25,-27.6 -40.8,-54.3 -49.7,-80.2 l 0,0 z m 664.3,-6.9 c 0.1,0 0.2,0 0.3,0 2.2,0.1 7.3,5.5 11.8,14.3 5.8,11.3 6.5,25.6 1.5,30.7 -8.7,8.8 -20.2,-2.3 -12.1,-11.7 5.7,-4.3 4,-14.7 -0.6,-25.5 -2.1,-5.1 -2.1,-7.5 -0.9,-7.8 z m -670.1,12.6 c 14,28.9 29.5,52.3 45.5,74.5 l -33.8,36.3 c 10.7,12.1 23.6,25.1 41.6,40.1 -21.7,24.7 -35.8,59.1 -49.8,91.6 l -3.5,-242.5 z m 786.3,-8.1 c 1.2,0.1 2.9,3.6 4.7,10.6 2.3,8.9 3.8,11.2 9,13.3 8.3,3.5 8.6,11.4 0.5,14.4 -3,1.1 -8.6,-1.8 -10.9,-5.7 -3.1,-5.5 -4.7,-13 -4.8,-19.9 -0.6,-8.5 0.1,-12.8 1.5,-12.7 z m 189.6,3.2 c 13,3.5 17.8,16.4 15.5,40.4 -3,32.1 -6.6,67.9 -9.5,97.4 -3.3,34 -5.3,51.7 -6.1,53.1 -2.6,4.3 -3.2,-11.7 -1.5,-29.5 2.6,-25.4 4,-47.7 6.1,-73.1 4.9,-56.5 3.3,-74.3 -6.9,-79.4 -7.9,-3.9 -11.3,-1.5 -5.4,3.9 11.2,8.4 10.9,12 0.6,151.2 -1.1,14.4 -1.4,24.6 -1.4,24.6 l -15.2,-9.2 c 0,0 -1.3,-11.9 -2.9,-29.9 -3.8,-33.8 -6.2,-70 -8.8,-102.4 -2.8,-34.6 3.5,-46.8 25,-47.9 3.4,-0.2 7.2,0 10.5,0.8 l 0,0 z m -277.1,23.3 c 1.7,4.6 9.6,38.7 -9.7,29.1 -5.1,-2.8 -5.5,-7.3 -1.8,-11.8 4.2,-5 5.1,-12 2.8,-22.1 -1.4,-6.1 -3,-11.2 -3,-11.2 3.8,1.3 11.2,14.8 11.7,16 z m -570.4,-4.4 c 16.3,2.9 34.2,12.2 45.8,23.9 7.2,7.5 6.9,13.6 -4.2,14.4 -10.7,1.7 -10.9,3.4 -16.1,-0.9 -2.3,-1.8 -6.8,-6.1 -12,-6.9 -16.2,-2.4 -24.8,-32.5 -13.5,-30.5 l 0,0 z m 654.9,1.6 c 1.7,2.7 2,8.1 3.4,12 2.5,10.8 10.1,18.7 16.7,17.7 4.5,-0.6 10.7,0.7 11.4,6.1 1.4,4.5 -1,8.9 -5.9,10.9 -5.5,2.3 -11.8,1 -16.6,-3.4 -10,-9.3 -16.4,-39.9 -9,-43.3 z m -78,1.3 c 5.8,2.2 13.5,20.7 14.4,35.5 0.1,10.6 -1.4,23.9 -10.5,29.1 -5.8,3.1 -11.8,1.6 -14.4,-3.4 -3.3,-6.2 -1,-12.6 5.6,-15.7 8.1,-3.8 10.5,-20.3 5.4,-36.3 -0.2,-2.7 -4.4,-10.2 -0.5,-9.2 l 0,0 z m -619.6,14.7 43.1,21.2 c -6.1,8.6 -10.9,16.5 -14.2,25.5 -13.9,-15.3 -21.2,-30.9 -28.9,-46.7 z m 635.9,0.3 c 0.7,0 3.2,2.3 5.4,4.4 10.8,10.2 15.6,29 9.2,35.9 -5.1,5.5 -14.1,5.3 -15.7,-0.5 -0.6,-2.8 2.4,-8.1 3.7,-10.7 1.9,-3.8 2.2,-14.6 -0.9,-22.5 -1.4,-3.5 -2.7,-6.6 -1.7,-6.6 z m -297.4,7.6 48.4,1.1 163.7,144.2 -15.2,-0.2 -150.4,-134 -46.3,0.6 -0.2,-11.7 z m -278.4,29.4 c -18.1,29.6 -22.8,66.6 -11.1,99.4 8.9,23.2 -9.9,24.8 -17.8,9.5 -6.1,-11.4 -9.7,-31.4 -8.1,-52.7 2.1,-34.5 17.7,-69.2 30.3,-73.5 12.9,-4.4 10.3,12.5 6.7,17.3 l 0,0 z m 664.8,63.2 c -4.7,23 -13.6,34.5 -26.5,39.5 -52.7,20.1 -76.9,-86.3 -28.1,-112.4 46.6,-16.1 60.8,42.5 54.6,72.9 z m -389,-65.4 45.6,0.4 c 42,37.4 87.1,72.2 132.1,117.7 l -21.5,0.2 c 0,0 -6.4,-5.9 -7.9,-7.3 -40.6,-35.5 -70.8,-64.5 -109.9,-97.4 l -40.7,-0.7 2.3,-12.9 z m 348.1,3.2 c -24.7,1.3 -26.3,34.7 -25.4,47.4 2,18.2 9.6,45.1 32.7,42.7 17,-1.9 24.6,-22.1 22.8,-46.2 -1.7,-22.8 -11.2,-44.1 -30.1,-43.9 z m -352.1,15 40,0.5 c 35.6,30.4 73.3,63.4 110.7,99.8 l -17.5,0.2 c 0,0 -4.6,-4.3 -6,-5.7 -30.3,-26.8 -61.1,-56.7 -90.5,-80.7 l -41.5,-1.2 4.8,-12.9 z m 352.9,-2.6 c 7,2.5 8.4,19.6 2.4,26.7 -4.1,4.9 -13.9,-4.2 -14.9,-15.7 -0.6,-7.1 6.2,-13.3 12.5,-11 z m -661.6,9.5 c -3.1,11.1 -5.1,23.5 -6.2,36.9 l -17,-21.1 23.2,-15.8 z m 674.6,13 c 4.1,0 7.4,3.2 7.5,7.3 0,4.1 -3.2,7.4 -7.3,7.5 -4.1,0.1 -7.4,-3.2 -7.5,-7.3 -0.1,-4.1 3.2,-7.4 7.3,-7.5 z m -336.3,7.5 80.6,74.1 -22.7,0.5 -66.1,-58.6 -41.5,-1.1 8,-14.2 41.7,-0.7 z m 310.3,-2.2 c 4.1,0 7.4,3.2 7.5,7.3 0,4.1 -3.2,7.4 -7.3,7.5 -4.1,0 -7.4,-3.2 -7.5,-7.3 -0.1,-4.1 3.2,-7.5 7.3,-7.5 z m 94.9,-0.9 c 45.4,34.5 109.4,80.1 175.7,117 0,-0.1 -10.8,8.7 -20.7,11.5 -51.6,-27.7 -113.1,-67 -151.3,-98.9 -35.1,53 -102.7,149.3 -163.1,194.2 -38.2,28 -57.2,62.1 -56.6,101.8 0.6,41 15.4,67.6 56.1,100.7 26.3,21.4 55,48.7 55,48.7 l -14.8,13.1 c -2.5,-0.3 -44.1,-35.3 -86.2,-76.7 -23.2,-22.7 -33.9,-73.1 -30.3,-100.4 4.9,-37.1 16.9,-63.8 51.7,-92.7 13.4,-10.6 26.9,-18.8 38.6,-30.8 107.8,-117.9 145.9,-187.5 145.9,-187.5 z m -72.7,19.9 c 4.2,8.4 6.6,19.5 -6.3,20.4 -7.7,0.5 -12.2,-12.2 -5.7,-23.6 4.9,-9 9.5,-1.4 12,3.2 z m -384.4,2 43.1,0.8 c 0,0 42.9,36.5 64.5,56.8 l 144.2,-1.6 c 79.3,-0.9 144.5,-1.3 144.9,-0.9 1,1 -10.1,16.2 -10.1,16.2 l -475.7,5.6 c 0.1,-0.1 29.1,-26.5 39.5,-33.9 18.5,-13.2 35.4,-25.5 49.6,-43 z m -291.3,21.1 c 3.2,11.5 6,23.1 11.5,33.7 l -32.8,17.9 c 5.8,-17.6 12.5,-34.5 21.3,-51.6 z m 918.2,85.3 c -6.4,17.9 -23.1,54.6 -43.6,82.5 -4.1,5.3 -6.8,9.5 -6.8,9.5 l 40.9,38.3 -34.7,37.7 c 20,20.3 37,51.6 46,76.5 -16,-6.1 -25,-9.8 -44.8,-20.5 -5.7,-13.9 -11.5,-28.6 -17.9,-41.2 -14.7,-28.9 -14.4,-26 -2.8,-34.7 17,-12.7 22.1,-15.7 17.5,-21.9 -3.2,-4.4 -23.7,-28.2 -24.9,-28.9 -1.9,-1.1 -1.1,-4.7 2.3,-10.4 11.5,-21.2 20.8,-44.4 26.6,-65.1 l 42.2,-21.8 z m 7.7,1.4 3.8,244.2 c -14.8,-29 -30.2,-58.6 -47.2,-77.1 -0.6,-1.3 36.2,-38.1 36.2,-38.1 -13.8,-12.5 -21.9,-20 -41.2,-37.4 18.3,-26.9 32.6,-62.1 48.4,-91.6 z m -1026.1,19.9 46.7,26.4 c -2.1,34.5 -4.7,79.7 -8.9,125.6 -3.6,35.8 -5,52.3 1.4,62.2 5.5,7.2 20,14.9 20,14.9 -24.3,10.2 -33.4,39.4 -5.8,60.9 0,0 -6.6,5.3 -9.5,8.5 l -38.4,-28 -5.5,-270.5 z m 726.3,4.3 c -11.4,13.1 -29.3,32.5 -43.2,41.9 -18.4,12.5 -44.2,36.3 -43,36.6 0,0 -27.3,0.2 -45.8,-0.4 l -64.4,-56.2 c 0,0 2.3,-0.9 -84.6,0.8 -112.2,2.2 -203.2,1.9 -203.2,1.9 l 12.6,-18 471.6,-6.6 z m 227.6,8.6 c -6.1,20.3 -15.6,39 -27.7,56.7 -3,-12.4 -4.7,-25.5 -10.8,-36 l 38.5,-20.7 z m -901.3,16.5 5.6,3.9 c 0,0 -2.8,42.2 -3.8,54.5 -1.7,22.8 -2.4,43.3 -4.2,66.6 -3.5,46.1 -2.7,52.9 6.4,59.9 7,5.1 11.7,2.7 5.5,-3.8 -4.1,-5.2 -4.1,-5.1 -5.4,-12.8 -0.9,-5.3 -0.9,-13.3 0.1,-34.9 5.5,-121.8 6.9,-126 7.1,-126 l 14,8.8 c -0.7,1.9 14.1,122.6 13,152.6 -1.2,35.1 -48.6,27.9 -51.1,1.9 -1,-6 6.9,-104.7 6.9,-104.7 l 5.9,-66 z m 385.7,2.8 18.6,0.3 115.7,104 39,0.4 -3.3,13.3 -37.7,0.3 -132.3,-118.3 z m 71,-0.8 18,-0.2 66.2,58.7 40.3,0.2 -7.6,11.5 -40.1,-0.7 -76.8,-69.5 z m -22.3,0.3 97.8,86.3 33,1.4 -5,12 -39.2,-0.7 -109.9,-98.5 23.3,-0.5 z m -93.4,1.4 20.1,-0.2 152.9,134.6 39.7,0.3 -0.5,12.3 -47.8,0.3 -164.4,-147.3 z m 509.6,-1.8 c 8,1.9 12,9.6 18,38.3 6.9,33.4 -6.7,87.9 -24.4,98.3 -9.1,7.4 -19.3,-0.2 -12.9,-9.8 20.9,-31.1 23.2,-81.7 10.3,-109.9 -4.1,-9 -0.1,-18.4 9,-16.9 z m -642.4,12.2 c 48.4,0 62,99.3 14.6,113.7 -30.9,4.9 -47.1,-22.9 -51.9,-48.1 -5.6,-31.3 7.8,-65.7 37.3,-65.6 z m -25.9,59.9 c 3.1,19.9 15.7,42.6 33.6,40.4 23.6,-2.8 26.2,-34.4 23.7,-50.2 -3,-19.1 -13.8,-36.4 -30.7,-37.1 -25.1,-1.2 -29,31.5 -26.6,46.9 z m 25.5,-39 c 6.7,-0.2 11.8,8.8 10.1,20 -1.1,7.3 -3.8,16.2 -12,10.2 -3.8,-3.4 -7.3,-13.5 -6.5,-21.1 0.5,-5 2.9,-8.9 8.4,-9.1 z m 667.4,15.6 23,26 -25.6,18.4 c 3.5,-13.9 4.6,-28.6 2.6,-44.4 z m -650.7,9.6 c 4.1,0 7.4,3.3 7.5,7.4 0,4.1 -3.2,7.4 -7.3,7.5 -4.1,0 -7.4,-3.2 -7.5,-7.3 0,-4.2 3.2,-7.6 7.3,-7.6 z m -26.4,4.8 c 4.1,0 7.4,3.2 7.5,7.3 0.1,4.1 -3.2,7.4 -7.3,7.5 -4.1,0 -7.5,-3.2 -7.5,-7.3 -0.1,-4.1 3.2,-7.4 7.3,-7.5 z m 15.1,9.4 c 3.7,1.1 6.1,4.5 8.2,7.4 5,7.3 5.8,16.6 2.3,20.5 -7,8.5 -18.2,-0.4 -17,-13.5 0.8,-9.5 3.3,-15.3 6.5,-14.4 l 0,0 z m 63.7,28.3 c 10.6,-0.1 13.8,12.4 4.7,18.6 -5.9,4 -7.1,17 -3.2,34.9 3.1,12.9 1.6,14.9 -6.3,3.4 -13.4,-21 -10.4,-56.7 4.8,-56.9 z m -24.7,7.1 c 9.3,-0.5 12.4,6.6 7,12.1 -3.1,3.6 -2.7,12.9 0.9,20.5 5.2,11 4,14.4 -5.5,3.8 -13.2,-13.6 -13.2,-35.9 -2.4,-36.4 z m 616.1,-1.4 c 10.7,13.9 20.3,32.2 29.1,52.9 l -46.1,-20.6 17,-32.3 z m -669.3,63.9 c -3.3,-3.7 -5,-15.9 -7.7,-21 -2.1,-6.2 -4,-9.8 -7.3,-9.6 -19.4,1.9 -18.7,-16.7 -7.7,-20.3 22.9,-7.5 31.9,48 22.7,50.9 z m 95.9,-19.7 c -3.2,9.7 -0.7,15.5 0.1,25.9 0.6,4.7 0.9,5.9 -3,2.4 -9.3,-7.9 -14.5,-35.2 -6.2,-40.4 11,-7 14.5,4.5 9.1,12.1 z m 459.1,-18.1 c 4.5,-0.3 9.6,3.2 12.2,9.6 3.7,9.2 3.7,31.9 2,44 -2.6,18.5 -6.9,35.5 -8.6,48.3 -6.4,7.8 -22.7,-19.3 -24.4,-40.8 -2.7,-17 2.8,-52.6 15.8,-60.2 1,-0.6 2,-0.9 3,-0.9 z m 61.9,2.2 c 4,-0.2 3.1,1.1 6.1,4.2 4.6,4.7 6.4,5.8 12.8,7.7 13.2,4 27.9,22.2 22.3,27.8 -4.4,3.5 -16.4,-2.9 -20.5,-4.3 -4.4,-1.5 -9.9,-3.3 -12.3,-4.1 -11.1,-3.6 -27.1,-23.7 -22.2,-27.9 2.7,-2.1 10.7,-3.2 13.8,-3.4 z m -32,3.7 c 8.1,0 10.4,2 15.2,10.7 7.1,12.9 20,21.9 38.7,27 23.9,7 44.5,20.6 43.8,46.1 -5.7,0.1 -11.3,0.6 -17,2.4 -6.8,-18.5 -23.3,-28.9 -37.4,-31.9 -32.6,-7 -63.2,-39.7 -54.7,-52.9 3.7,-1.9 7.7,-1.4 11.4,-1.4 l 0,0 z m -561,7.9 283.7,241.6 C -656.4,-6.2 -765.2,-4.1 -870.2,13.4 l 49.1,-218.5 z m 120,14.9 c -0.4,7.6 -10.9,9.4 -13,11.3 -5.2,4.6 -4.4,17.8 -1.9,33.2 1.8,9.2 -0.5,8.8 -5.4,1.7 -8.7,-12.7 -8.8,-34.9 -3.3,-48.1 7.2,-17.1 24.3,-8.8 23.6,1.9 l 0,0 z m -161.7,-10.2 c 10.8,1 13.9,15.6 14.5,25.3 0.1,13.4 -3.7,12.9 -5.9,0.1 -1.1,-5.7 -2.9,-7.9 -7.5,-9.2 -10.5,-3.1 -11.4,-16.1 -1.1,-16.2 z m 130.8,13.5 c -2.7,3.1 -2.6,17.3 0,26.8 1.4,5.3 -1.1,5.7 -4.7,1.6 -11.8,-13.5 -13.1,-36.6 -2.4,-41.2 8.7,-2.5 11.1,8.2 7.1,12.8 l 0,0 z m -121.3,28.7 c 0.4,13.6 -2.7,14.9 -6.9,1.9 -1.1,-3 -3,-6.1 -4.3,-7 -7.7,-5.1 -9.1,-9.2 -4.7,-13.7 10.7,-9 15.7,14.7 15.9,18.8 z m 40.9,-12.5 -36.2,162.9 c 93.7,-8.9 136.2,-11 236.6,7.4 l -200.4,-170.3 z m 113.7,1.5 c 5.7,1.4 7.8,8.8 1.2,16 -2.2,2.8 -4.2,7.2 -1.4,18.6 3.8,15.7 -2.4,10.7 -10,-4 -4.9,-9.5 -3,-33.8 10.2,-30.6 l 0,0 z m -179.4,2.4 c 10.2,-0.1 19.8,16.3 20.2,34.4 0.3,14.6 -1.8,13.6 -7.4,-0.3 -3.9,-9.2 -7,-12.5 -14,-14.8 -12.9,-4.4 -12,-19.1 1.2,-19.3 z m 68.9,4 178.2,152.2 c -72.4,-10.7 -143.3,-10.8 -212.1,-1.4 l 33.9,-150.8 z m 146.9,4.1 c 13.8,-0.2 19.5,16.9 2.6,23.1 -10.1,3.7 -5.5,24.1 -3.5,36.2 0.8,4.6 -0.7,4.9 -3.6,0.9 -10.9,-15.7 -17.3,-55.3 4.5,-60.2 z m -18.5,19.5 c -2.5,4 -2.7,8.2 -0.9,15.9 4.7,16.4 5.9,19.5 -3.6,11.2 -10,-10.3 -14.5,-30.9 -6.3,-37.1 9.3,-7 17.7,0.5 10.8,10 l 0,0 z m -348.7,-8.9 c 16.4,-0.3 28.4,10.2 27.9,25 -0.5,16.3 -10.6,26.7 -25.6,27.7 -16.7,1 -27.2,-12.2 -27.7,-26 -0.4,-12.2 7.2,-26.4 25.4,-26.7 z m -0.2,6.6 c -18.7,0.1 -25.5,24.9 -9.8,36.2 6.7,4.8 11.9,3.4 6.4,-1.8 -10.4,-9.7 -6.5,-25.9 7.1,-29 6.6,-1.6 4,-5.5 -3.7,-5.4 l 0,0 z m 228.2,1.6 -21.3,109.7 c 46.1,-7.7 101.9,-6.1 145.1,-2.5 l -123.8,-107.2 z m -75.9,5 c 11.2,-0.7 14.7,16.2 14.8,22.9 0.1,8.7 -0.9,13.2 -2.5,8.6 -3.9,-10.9 -7.7,-16.9 -11.7,-16.8 -2.2,-0.5 -4.1,-1.4 -5.9,-3.4 -4.1,-5.3 -0.3,-11 5.3,-11.3 z m 78.1,3.5 15,12.5 c -9.6,-4.1 -17.6,6.9 -17.6,6.9 l 2.6,-19.4 z m 153.3,19 c -4.3,5.5 -4.1,16.9 -0.6,30.2 1,3.7 -2.5,1 -6.1,-3.4 -6.8,-8.3 -10,-18.1 -8.9,-26.2 1.2,-20.4 27.1,-16.7 15.6,-0.6 z m -235.4,-7.2 c 9.6,1 13.5,21 13.3,27.1 -0.2,6.4 -1.6,10.7 -3,6.8 -2.6,-8.4 -7.8,-20.4 -12.3,-23.1 -7.6,-4.6 -5.5,-10 2,-10.8 l 0,0 z m 737.3,14.4 c 0.4,7.1 -2.4,14.4 -6.8,16.8 -4.4,2.4 -7.2,-0.8 -10,-8.9 -2,-6 -2.7,-8.3 -2.7,-8.3 0,0 -1.6,7.5 -2.1,9.1 -3.4,10.5 -14.7,10.7 -19.6,-0.9 -5.2,-13.5 8.8,-27.6 19.6,-27.2 12.1,0.3 20.8,8 21.6,19.4 l 0,0 z m -643.1,-8.1 c 3.4,0 16.6,5.7 16.6,5.7 l 13.2,11.4 c 0,0 -12.1,-5.1 -16.3,-6.5 -10.2,-3.5 -9.9,-3.5 -18,3.3 -8.3,7 -15.2,12.1 -15.2,12.1 l 2.4,-14.9 c -0.1,0 12.1,-11 17.3,-11.1 l 0,0 z m -85.3,37.5 c 2.1,15.7 -2.3,17 -6.7,2.1 -3.8,-12.8 -7.4,-17.4 -13.6,-17.3 -11.4,1.8 -15.4,-15.1 -5.2,-18.6 19.2,-5.7 24.6,27.6 25.5,33.8 l 0,0 z m 662.7,-41.8 17.9,8.1 4,18.4 -16.5,-3.9 -5.4,-22.6 z m -399.9,6.1 c 17.1,-5 19.5,16.4 6.4,19.7 -8,2 -7.8,14.5 -5.3,32.5 0.6,4.1 1.7,9.1 1.5,9.8 -1.2,3.3 -5.3,-1.7 -11,-13.2 -8.5,-21 -6.2,-44.5 8.4,-48.8 l 0,0 z m 490.9,-5.7 -4.7,21.4 -15.1,-0.9 -0.7,-13.1 20.5,-7.4 z m -508.4,19.6 c -8.1,12.1 -0.6,23 1.4,32.4 0.4,5.4 -6.7,0.2 -10.8,-7.7 -8.6,-16.5 -9.3,-29.8 -1.7,-35.9 10.5,-6.4 15.5,4.7 11.1,11.2 z m -154.9,-1.2 c 2.9,0 6.9,1.5 15.2,4.6 6.3,2.4 21,8.1 21,8.1 l 19.5,16.8 c 0,0 -17,-6.1 -28.8,-10.9 -26.7,-10.9 -22.9,-11.3 -43.7,4.9 -6,4.7 -12.3,10 -12.3,10 l 2.4,-13.7 c 0,0 7.8,-8 17.6,-15.2 4.3,-3.1 6.2,-4.6 9.1,-4.6 l 0,0 z m -246.8,9.2 c 13.6,-0.5 22.6,10.2 26,22.2 2,7 0.4,13.4 0.1,20.2 -8.6,71.9 -12,138.7 -19.8,205.3 -1,3.2 -2.2,2 -3.6,-3.7 -10.7,-60.2 -17.9,-126.3 -26.9,-186 -2.2,-22.3 -8.3,-51.4 19.9,-57.4 1.4,-0.4 2.9,-0.6 4.3,-0.6 l 0,0 z m -0.7,7.9 c -6,0.3 -13,4.5 -15.5,9.8 -5,10.9 -3.4,32.9 7.1,98.9 0.9,5.5 2.1,14.7 2.7,20.4 1.9,17.5 4.4,31.4 6.1,34 3.2,4.9 3.6,-0.4 1.1,-17.5 -1.3,-8.7 -3,-22.1 -3.9,-29.7 -4.7,-31.3 -5.9,-53.6 -9,-82.1 -1.5,-14 4,-24.5 14.6,-27.4 5.7,-1.6 6,-4.2 0.6,-5.9 -1.1,-0.4 -2.5,-0.5 -3.8,-0.5 l 0,0 z m 898.4,-9.1 c 19.8,-0.2 27.4,27.5 8.1,37.5 -7.2,3.7 -19.3,2.1 -22.3,-3.6 -1.5,-4.5 0.1,-7.1 3.7,-9.1 4.4,-2.4 10.8,-4.5 10.8,-4.5 0,0 -10.5,-1.9 -13.5,-6.9 -6.7,-10.5 5,-13.1 13.2,-13.4 l 0,0 z m -746.2,38.3 c -0.2,5.2 -2.9,3.1 -3.6,0 -2.2,-6.9 -6.8,-14.4 -10.5,-17.4 -4.6,-3.6 -5.7,-8.5 -2.7,-11.6 11.4,-10.3 16.7,25.7 16.8,29 z M -204.6,-90 c 5.1,-0.2 12,1.4 16.4,5.8 5.7,5.6 5.4,7.7 -4,11.2 -4.6,1.8 -7.7,3.1 -7.7,3.1 0,0 4.3,1.6 7.5,2.5 9.1,2.9 8.7,8.2 0.4,14.5 -11.2,8.6 -29.6,-2.4 -29.5,-17.3 0,-11.9 7.2,-19.4 16.9,-19.8 z m 41.9,-0.6 18.3,19.8 -20.9,22.2 -20.2,-21.7 22.8,-20.3 z m -615.9,8.7 c 0.3,0 0.5,0 0.8,0 5.6,0 14.6,3.7 36.7,12.3 12.1,4.8 26.1,10.2 26.1,10.2 l 20,17.3 c 0,0 -27.2,-8.2 -36.7,-12.9 -2.1,-1 -6.6,-2.9 -10,-4.1 -3.5,-1.3 -12.1,-4.5 -19.1,-7.3 -15.2,-5.9 -15.3,-5.9 -20.3,-1.6 -2.1,1.8 -7.4,6.1 -11.7,9.4 -4.3,3.3 -10.5,8.2 -13.9,10.8 -4,3.1 -8.9,7.7 -8.9,7.7 l 3,-16.9 c 0,0 2.8,-2.8 7.9,-6.8 4.1,-3.2 11.1,-8.7 15.5,-12.1 4.4,-3.6 6.7,-5.7 10.6,-6 l 0,0 z m 194.7,12.7 c 0.6,3.5 0.3,4.2 -3.7,8.4 -5,5.3 -5.6,13.8 -1.8,24.8 1.1,3 2.4,6.6 2.1,6.9 -5.3,5.5 -19.9,-28.4 -16.6,-38.6 3.9,-12.2 17.2,-12.5 20,-1.5 l 0,0 z m -311.1,4.9 c 3.7,-0.2 8.1,2.6 10.3,8.4 6,16.3 2.7,36.4 -3.5,17.8 -1.6,-3.9 -4.3,-8.2 -6.4,-10.3 -2.1,-2.2 -6.9,-4.8 -6.8,-8.4 0.4,-4.8 3.2,-7.3 6.4,-7.5 z m 121.3,-0.9 c 2.4,0 5.6,1.2 11.3,3.5 5.2,2.1 19.7,6.7 28,9.8 12.9,4.8 26.3,11.2 26.3,11.2 l -29,-1.3 c 0,0 -9.9,-3.2 -15.8,-5.5 -21.3,-8.5 -20.2,-8.5 -30.6,-0.3 -3.7,2.9 -8.4,7.6 -8.4,7.6 l -14.7,1 c 0,0 6.8,-7.5 16.8,-15 3.2,-2.5 7.7,-6 9.8,-7.8 2.4,-2.2 3.9,-3.2 6.3,-3.2 l 0,0 z m 226.9,3.2 c 8.1,-1.6 12.6,6 12.1,10.8 -0.5,5.3 -5.3,10.6 -12.8,12.1 -1.5,5.9 -5.9,19.4 -3,39.4 2.2,9.4 -1.7,9.6 -5.9,0.7 -6.7,-14.5 -16.8,-57.6 9.6,-63 z m -22.8,16.4 c -3.3,7.4 -4.5,13.3 -2.5,22.5 2.2,10.2 2.7,12.8 -3.2,6.4 -11.5,-14.9 -13.4,-38.9 -3,-41.7 10,-2.9 12.3,8 8.7,12.8 z M -908,-53.1 c 17.6,2.6 23.2,32.5 20.8,45.4 -4.5,15.6 -4.4,5.1 -6.1,-1.4 -4.5,-15.6 -9.6,-24 -15,-24.9 -14.4,-2.2 -12.6,-21 0.3,-19.1 l 0,0 z m 135,4.4 c 0.3,0 0.6,0 0.8,0.1 5.8,0.9 21.4,5.5 14.7,7.2 l -22.9,0.4 c -4.4,0.2 2.9,-7.3 7.4,-7.7 l 0,0 z m 616.9,-1.9 c 2.2,-0.2 5.3,2.3 8.9,5.9 8.2,8.2 4.8,21.3 -6.1,27.9 -17.2,10.3 -37.1,-8.6 -27.8,-26.2 5.1,-9.7 11.4,-8 16.9,5.5 1,1.6 0,-1.7 1.8,-5.9 1.6,-4.1 4,-7 6.3,-7.2 z m -29,1.3 -5,20.9 -20.9,10.3 7.4,-25.8 18.5,-5.4 z m 43.8,3 16.8,1.2 9.6,27 -24.3,-10 -2.1,-18.2 z m -396.3,19.8 c 12.2,0.4 13.6,11.9 6.6,17 -3.9,3.8 -5.2,9.3 -4.3,18 0.4,3.9 1.2,8.6 1.2,9.1 -0.1,1.9 -1.6,1.6 -3.8,-0.7 -13,-13.9 -11.6,-43.8 0.3,-43.4 l 0,0 z m -369.2,8.6 c 7.8,-0.1 16.8,21.9 12.6,30.5 -2.7,5 -5.3,3.8 -6.4,-2 -0.8,-4.2 -3.3,-9.9 -9.5,-10.9 -9.1,-2.8 -6.3,-17.5 3.3,-17.6 l 0,0 z m 391.7,9 c 5.9,3 6.6,9.8 1.3,13.6 -4.1,3 -5.2,5.5 -5.7,13.5 1.6,18.2 -8.8,6.7 -9.9,-9.8 -0.7,-8.9 4,-22.3 14.3,-17.3 l 0,0 z m -398,10 c 5.6,-0.1 12.3,9.8 10.9,15.7 -0.7,4.6 -3.2,3.8 -6.6,0.4 -1.3,-1 -4.3,-2 -5.7,-2.4 -8.3,-2.4 -7,-13.6 1.4,-13.7 l 0,0 z M -755.2,7 c 75,-1.2 153.2,9.9 218.4,35 l -5.2,9.7 -17.1,-5.7 -5.7,15.5 14.1,5.2 -6.4,14.3 C -634,56.8 -716.8,38.9 -853.8,60.8 c -6.9,-4.7 -19.3,-13.9 -19.3,-13.9 l 10.9,-2.5 -1.6,-15.2 -27.7,5.2 -8.2,-8.4 c 43.3,-11.6 93.2,-18.1 144.5,-19 l 0,0 z m 251.7,0.6 c 7.2,-0.1 11.7,7.9 6.5,11.5 -3.7,2.5 -11.9,3.2 -13.5,1.2 -3.4,-4.1 1.3,-12.6 7,-12.7 z m -262.1,12.3 -0.1,15.8 22.6,-1 0.3,-15 -22.8,0.2 z m 39.5,-0.1 0.3,15.5 22,0.5 0.9,-15.2 -23.2,-0.8 z m -57.5,1.7 -22.2,1.7 0.8,14.5 22,-1.2 -0.6,-15 z m 99.4,1.4 -0.4,15 22.4,2.2 1.5,-15.2 -23.5,-2 z m -140.7,2.2 -22.3,3.1 2.1,14.9 21.7,-2.6 -1.5,-15.4 z m 183.9,2.8 -2,15.6 20.9,2.9 2.5,-14.9 -21.4,-3.6 z m 365.8,0.5 c 10.2,14 20,25.9 26.8,41.5 8.8,20.1 14.9,46.5 15.1,68.2 0.1,13 -9,10.5 -11,-3 -8.4,-57 -77.2,-64.8 -103.6,-11.8 -6.8,15.2 -8,33.8 -4.1,54.6 13.9,73.4 107.4,143.4 137.3,220.3 53.3,-112.5 101.1,-130.4 124.9,-221.7 19.2,-70.2 -49.5,-121.5 -98.4,-75.6 -8.9,8.4 -17.1,24 -17.9,34.2 -1.9,16.4 -9.2,14.1 -10,0.5 -0.4,-14.2 5.4,-41.6 13.7,-66.1 4.4,-12.9 11.1,-28.8 20.2,-42.2 l -93,1.1 z m -324.3,7.8 -1.9,15.8 21.2,4.3 2.7,-14.7 -22,-5.4 z m -149.8,19.9 c 70.3,-0.9 134.6,10.5 188.8,30.5 0,0 -6.8,15.2 -9.3,16.8 -38.9,-15 -105.1,-28.7 -149.7,-29 -16.4,-0.4 -20,-0.8 -26,-2.8 -34.1,-10.8 -64.2,-15.3 -91.7,1.5 l -11.4,-7.9 c 34.1,-5.8 67.3,-8.7 99.3,-9.1 l 0,0 z m 769.9,50.3 c 0,0 4,5.3 6.5,8.2 11,13 18,36.4 10.8,36.5 -1.8,0 -2.7,-1.6 -5.3,-4.1 -9.9,-14.3 -29.4,-9.1 -36.8,1.7 -7.6,11 -8.3,28.8 -2.1,41.7 20,40.1 57.9,85.6 57.3,90.9 19.5,-44.9 35.8,-57.7 50.3,-90.6 5.1,-16.3 5.1,-25.7 0.8,-38.1 -5.8,-16.9 -33.3,-24.4 -42.8,-6.6 -3.1,5.4 -5.7,7 -7.9,4.9 -4.5,-4.4 2.9,-28.7 11.8,-38.8 1.6,-1.8 4.5,-6.2 4.5,-6.2 l -47.1,0.5 z m -1066,43.2 c 16.1,0 24,24.6 7.1,35.1 -4.5,2.6 -10.5,2.4 -15.4,0.2 -13.8,-6.4 -15.1,-26.9 0.9,-33.8 2.6,-1 5.1,-1.5 7.4,-1.5 l 0,0 z m 525.8,-5.1 c 5.8,3.5 27.2,12.6 27.2,12.6 l -146.4,271.7 -36.2,0.7 155.4,-285 z m -481.9,6 c 8.9,-1.1 15.4,6.5 17.8,12.9 3.2,8.7 -2.2,24.4 -18,23.6 -18.2,-0.8 -26.6,-33.2 0.2,-36.5 l 0,0 z m 513.9,8.4 c 4,2.2 18.6,4.4 19.9,7.2 0.6,1.4 -0.5,4.2 -0.8,7.7 -0.7,8.6 1.6,18.1 6.8,25.6 8.6,11.7 -0.6,6.4 -9.1,6.4 -19.3,-4.7 -43.4,21.7 -33.8,48.6 2.2,5.9 1.8,6.4 -8.5,9.7 -23.3,7.4 -33.2,32.3 -21.7,54.3 6,11.5 6.1,10.9 -4.1,11.9 -28.6,2.7 -44.9,28.2 -32.6,54 1.9,4 0.7,5.1 -5.5,6.3 -19.5,3.8 -28,20.2 -30.3,38.2 l -25.8,0.5 145.5,-270.4 z m 24.9,9.2 49.7,13 c -19.8,70.2 -21.8,151.6 4.1,245.4 l -114,1.4 c 15.7,-14.4 9.2,-34 -9.4,-38.1 17.8,-10.5 17.6,-38 -4,-41 -19,-2.7 -28.5,15.4 -19.9,33.3 l -8.1,2.3 c 0,0 -3.7,-4.5 -4.5,-6.9 -7.4,-20.7 7.3,-41.6 32.8,-41.8 15.7,-0.1 18.9,-4.6 10.1,-14.2 -15.7,-17.1 -11.1,-41.4 9.1,-51.2 9.3,-4.5 14.8,-1.7 14.8,-1.7 l 0.6,11.4 c 0,0 -3.8,0.4 -6.7,0.9 -22.3,3.8 -17.8,39.5 4.9,38.9 12.5,-0.3 21.4,-9.9 21.2,-23.5 0,-3.8 -0.1,-9.5 -0.1,-9.5 11.7,19.5 31.5,20.7 39.7,4.6 9.7,-19 -8.4,-30.6 -26.4,-28.4 0,0 3.8,-2.5 6.1,-3.8 19.1,-10.1 12.2,-38.2 -9.1,-38 -14.6,0.2 -22.9,13.8 -18,28.1 0.8,2.3 2.6,6 2.6,6 l -8.6,2.3 c 0,0 -2,-1.5 -2.9,-2.8 -15.1,-23.1 8.5,-48.9 38.6,-43.4 11,3.3 10.6,-4.3 4.3,-11.1 -6.6,-9.7 -11.7,-20.9 -6.9,-32.2 l 0,0 z m -560.3,16.4 26.5,45.6 -28.6,53.2 -29.5,-49.2 31.6,-49.6 z m -2.3,23.9 -17.8,25.1 18,28.4 16.5,-29.1 -16.7,-24.4 z m -0.7,9.3 11.9,15.6 -11.6,19.5 -11.8,-18 11.5,-17.1 z m 538.5,43.6 c 5.5,-0.1 10,4.3 10,9.8 0.1,5.5 -4.4,10 -9.8,10 -5.4,0 -10,-4.3 -10,-9.8 0,-5.5 4.3,-9.9 9.8,-10 z M 54,309.9 c -7.6,0.3 -15.8,2.6 -24.4,7.1 -9.2,4.9 -9.2,4.9 -12.8,2.5 -8.9,-5.7 -11.6,-7.1 -21.5,-6.9 -6.2,0.1 -10.4,0.5 -10.4,0.5 l 1.1,23.7 c 21.4,-0.9 27.3,6.3 23,19.2 -4.6,5.9 -2.6,89.7 -0.8,122 -0.2,15.9 7.1,30.9 16.9,40 15.4,13.3 42.4,12 57.9,0.6 10.4,-7.6 15.2,-20.3 17.3,-33.1 0.8,-26.3 -0.1,-52.6 -0.4,-79 l 16.9,0 -0.5,-23.8 -16.5,-0.8 c 0,0 0.2,0.7 -0.7,-17 0.8,-36.9 -18.4,-54.3 -43.6,-55.1 -0.5,0 -1,0 -1.5,0.1 l 0,0 z m -1.1,23.9 c 13.9,0.9 19.7,6.4 23,18.2 2.4,8.4 3.4,18.4 1.5,21.6 -3.1,5.2 -15.2,-3.6 -31.2,-22.7 -5.4,-6.4 -7.8,-9.7 -7.8,-9.7 3,-5.4 9.5,-7.7 14.5,-7.4 z M 28,366.1 c 14.6,12.3 16.8,24.9 51,36.5 0,0 1,-1.3 0.8,40.3 -0.1,45.9 -2.8,55.4 -16.6,59.3 -12,3.4 -23.3,-2 -28.5,-13.6 -5.2,-11.9 -6.8,-39.9 -7.2,-93.4 0,-19.3 0.5,-29.1 0.5,-29.1 z m -584.2,20.4 c 5.7,-0.1 10.3,4.5 10.4,10.1 0.1,5.7 -4.5,10.3 -10.2,10.4 -5.7,0.1 -10.3,-4.5 -10.4,-10.2 0,-5.7 4.5,-10.3 10.2,-10.3 z m -15.5,7.1 c -0.9,0.4 0.1,9.3 2.4,13 -14.8,1.1 -18.6,12.4 -19.9,22 l -13.3,0.1 c 1.9,-32.3 29.9,-33.4 30.8,-35.1 z"
               id="path4069" /></g></g></g></g></g><g
     transform="translate(-259.948,-369.82555)"
     id="printing-marks"><g
       id="CropMarks" /></g></svg>