<?xml version="1.0" encoding="UTF-8" standalone="no"?>
<!-- Generator: Adobe Illustrator 18.1.1, SVG Export Plug-In . SVG Version: 6.00 Build 0)  -->

<svg
   xmlns:dc="http://purl.org/dc/elements/1.1/"
   xmlns:cc="http://creativecommons.org/ns#"
   xmlns:rdf="http://www.w3.org/1999/02/22-rdf-syntax-ns#"
   xmlns:svg="http://www.w3.org/2000/svg"
   xmlns="http://www.w3.org/2000/svg"
   xmlns:sodipodi="http://sodipodi.sourceforge.net/DTD/sodipodi-0.dtd"
   xmlns:inkscape="http://www.inkscape.org/namespaces/inkscape"
   version="1.1"
   id="svg4423"
   x="0px"
   y="0px"
   viewBox="-1487 1044.2 224.1967 312.7967"
   enable-background="new -1487 1044.2 224.2 312.8"
   xml:space="preserve"
   inkscape:version="0.91 r13725"
   sodipodi:docname="spade.svg"
   width="224.1967"
   height="312.79669"><metadata
     id="metadata11"><rdf:RDF><cc:Work
         rdf:about=""><dc:format>image/svg+xml</dc:format><dc:type
           rdf:resource="http://purl.org/dc/dcmitype/StillImage" /><dc:title></dc:title></cc:Work></rdf:RDF></metadata><defs
     id="defs9" /><sodipodi:namedview
     pagecolor="#ffffff"
     bordercolor="#666666"
     borderopacity="1"
     objecttolerance="10"
     gridtolerance="10"
     guidetolerance="10"
     inkscape:pageopacity="0"
     inkscape:pageshadow="2"
     inkscape:window-width="640"
     inkscape:window-height="480"
     id="namedview7"
     showgrid="false"
     fit-margin-top="0"
     fit-margin-left="0"
     fit-margin-right="0"
     fit-margin-bottom="0"
     inkscape:zoom="0.75447573"
     inkscape:cx="38.098348"
     inkscape:cy="49.898405"
     inkscape:window-x="1360"
     inkscape:window-y="0"
     inkscape:window-maximized="0"
     inkscape:current-layer="svg4423" /><path
     id="rect3232-1"
     d="m -1475.9017,1044.6983 202,0 c 5.9,0 10.6,4.8 10.6,10.6 l 0,290.6 c 0,5.9 -4.8,10.6 -10.6,10.6 l -202,0 c -5.9,0 -10.6,-4.8 -10.6,-10.6 l 0,-290.6 c 0,-5.8 4.8,-10.6 10.6,-10.6 z"
     inkscape:connector-curvature="0"
     style="fill:#ffffff;stroke:#000000;stroke-width:0.99669999" /><path
     id="path3192"
     d="m -1378.2017,1223.3983 c 0,-4 -3.2,-4.2 -3.2,-1.2 -0.2,14.8 -12.8,22.2 -22,20.4 -14,-2.6 -18.6,-16.6 -18.4,-24.8 0.4,-25.4 26,-44.2 49,-76.6 17,29.4 44.8,52.4 46.4,75.2 2.2,30.2 -36,41.4 -41.4,6.2 -0.4,-2.4 -3.2,-3.6 -3,-0.2 0.8,9.6 -0.4,13.6 10.6,37.4 l -28.4,0 c 6.2,-11 10,-24.6 10.4,-36.4 l 0,0 0,0 z"
     inkscape:connector-curvature="0" /><path
     id="path3308"
     d="m -1469.0017,1114.5983 c 0,-0.9 -0.9,-0.5 -1,-0.2 -1.2,2 -2.9,2.4 -4.5,1.7 -1.7,-0.7 -2.6,-2.3 -2.5,-4.5 0.3,-3.4 3,-7.2 4.4,-9.3 1.3,-1.9 2.6,-4.2 4.1,-7.2 1.7,3.4 2.6,4.3 4.4,7.4 1.6,2.7 3.9,5.4 4.1,8.6 0,2.5 -1,4.8 -3.4,5.3 -1.3,0.2 -2.6,-0.4 -3.5,-2 -0.3,-0.4 -0.8,-0.2 -0.8,0.4 0.2,2.1 1,4 2.8,6.2 l -6.9,0 c 1.3,-1.6 2.7,-3.8 2.8,-6.4 z"
     inkscape:connector-curvature="0" /><path
     id="path3330"
     d="m -1280.6017,1287.1983 c 0,0.9 -0.9,0.5 -1,0.2 -1.2,-2 -2.9,-2.4 -4.5,-1.7 -1.7,0.7 -2.6,2.3 -2.5,4.5 0.3,3.4 3,7.2 4.4,9.3 1.3,1.9 2.6,4.2 4.1,7.2 1.7,-3.4 2.6,-4.3 4.4,-7.4 1.6,-2.7 3.9,-5.4 4.1,-8.6 0,-2.5 -1,-4.8 -3.4,-5.3 -1.3,-0.2 -2.6,0.4 -3.5,2 -0.3,0.4 -0.8,0.2 -0.8,-0.4 0.2,-2.1 1,-4 2.8,-6.2 l -6.9,0 c 1.2,1.6 2.7,3.7 2.8,6.4 l 0,0 z"
     inkscape:connector-curvature="0" /></svg>