<?xml version="1.0" encoding="UTF-8" standalone="no"?>
<!-- Generator: IcoMoon.io -->

<svg
   xmlns:dc="http://purl.org/dc/elements/1.1/"
   xmlns:cc="http://creativecommons.org/ns#"
   xmlns:rdf="http://www.w3.org/1999/02/22-rdf-syntax-ns#"
   xmlns:svg="http://www.w3.org/2000/svg"
   xmlns="http://www.w3.org/2000/svg"
   xmlns:sodipodi="http://sodipodi.sourceforge.net/DTD/sodipodi-0.dtd"
   xmlns:inkscape="http://www.inkscape.org/namespaces/inkscape"
   version="1.1"
   id="Layer_1"
   x="0px"
   y="0px"
   width="48px"
   height="48px"
   viewBox="0 0 48 48"
   enable-background="new 0 0 16 16"
   xml:space="preserve"
   fill="#000000"
   inkscape:version="0.91 r13725"
   sodipodi:docname="clubs.svg"><metadata
     id="metadata9"><rdf:RDF><cc:Work
         rdf:about=""><dc:format>image/svg+xml</dc:format><dc:type
           rdf:resource="http://purl.org/dc/dcmitype/StillImage" /><dc:title /></cc:Work></rdf:RDF></metadata><defs
     id="defs7" /><sodipodi:namedview
     pagecolor="#ffffff"
     bordercolor="#666666"
     borderopacity="1"
     objecttolerance="10"
     gridtolerance="10"
     guidetolerance="10"
     inkscape:pageopacity="0"
     inkscape:pageshadow="2"
     inkscape:window-width="1280"
     inkscape:window-height="972"
     id="namedview5"
     showgrid="false"
     inkscape:zoom="4.9166667"
     inkscape:cx="-12.508475"
     inkscape:cy="23.79661"
     inkscape:window-x="1352"
     inkscape:window-y="-8"
     inkscape:window-maximized="1"
     inkscape:current-layer="Layer_1" /><path
     d="m 18.274406,46.269 c 2.262,-4.524 3.9,-9.126 4.134,-14.04 0.234,-1.794 -0.858,-1.872 -1.014,-0.546 -3.198,12.168 -20.1239997,8.892 -19.4999997,-2.574 0.468,-9.282 9.6719997,-11.31 14.5079997,-8.268 1.872,1.092 1.794,0.468 0.78,-0.702 -7.176,-7.956 -2.808,-18.2519998 6.864,-18.4079998 10.452,0.624 13.182,11.6219998 6.708,18.0179998 -0.78,0.78 -2.574,3.276 0.078,1.56 6.474,-4.602 15.444,0.312 15.288,7.41 -0.312,13.026 -16.224,14.04 -19.656,3.12 -0.312,-1.248 -1.248,-1.794 -1.014,0.234 0.468,3.744 1.482,9.36 4.212,14.196 l -11.388,0 z"
     id="path3235"
     inkscape:connector-curvature="0" /></svg>