<?xml version="1.0" encoding="UTF-8" standalone="no"?>
<!-- Generator: IcoMoon.io -->

<svg
   xmlns:dc="http://purl.org/dc/elements/1.1/"
   xmlns:cc="http://creativecommons.org/ns#"
   xmlns:rdf="http://www.w3.org/1999/02/22-rdf-syntax-ns#"
   xmlns:svg="http://www.w3.org/2000/svg"
   xmlns="http://www.w3.org/2000/svg"
   xmlns:sodipodi="http://sodipodi.sourceforge.net/DTD/sodipodi-0.dtd"
   xmlns:inkscape="http://www.inkscape.org/namespaces/inkscape"
   version="1.1"
   id="Layer_1"
   x="0px"
   y="0px"
   width="48px"
   height="48px"
   viewBox="0 0 48 48"
   enable-background="new 0 0 16 16"
   xml:space="preserve"
   fill="#000000"
   inkscape:version="0.91 r13725"
   sodipodi:docname="hearts.svg"><metadata
     id="metadata9"><rdf:RDF><cc:Work
         rdf:about=""><dc:format>image/svg+xml</dc:format><dc:type
           rdf:resource="http://purl.org/dc/dcmitype/StillImage" /><dc:title /></cc:Work></rdf:RDF></metadata><defs
     id="defs7" /><sodipodi:namedview
     pagecolor="#ffffff"
     bordercolor="#666666"
     borderopacity="1"
     objecttolerance="10"
     gridtolerance="10"
     guidetolerance="10"
     inkscape:pageopacity="0"
     inkscape:pageshadow="2"
     inkscape:window-width="1280"
     inkscape:window-height="972"
     id="namedview5"
     showgrid="false"
     inkscape:zoom="4.9166667"
     inkscape:cx="-12.101695"
     inkscape:cy="23.79661"
     inkscape:window-x="1352"
     inkscape:window-y="-8"
     inkscape:window-maximized="1"
     inkscape:current-layer="Layer_1" /><path
     style="fill:#d40000"
     d="m 14.602339,1.561567 c 5.538,-0.39 8.502,4.368 9.048,8.1119992 0.312,0.6239998 0.546,0.3899998 0.624,0 0.234,-4.8359992 4.602,-8.73599922 8.58,-8.1899992 6.474,0.078 10.452,7.332 9.36,13.415999 -1.326,7.488 -5.382,12.012 -8.424,16.614 -3.432,4.836 -8.112,11.7 -9.594,15.054 0,0 -4.68,-7.176 -10.842,-15.6 -4.1340007,-5.616 -7.4100007,-11.778 -7.7220007,-17.004 -0.312,-6.083999 2.106,-11.465999 8.9700007,-12.401999 l 0,0 z"
     id="path8512"
     inkscape:connector-curvature="0" /></svg>