<?xml version="1.0" encoding="UTF-8" standalone="no"?>
<!-- Generator: IcoMoon.io -->

<svg
   xmlns:dc="http://purl.org/dc/elements/1.1/"
   xmlns:cc="http://creativecommons.org/ns#"
   xmlns:rdf="http://www.w3.org/1999/02/22-rdf-syntax-ns#"
   xmlns:svg="http://www.w3.org/2000/svg"
   xmlns="http://www.w3.org/2000/svg"
   xmlns:sodipodi="http://sodipodi.sourceforge.net/DTD/sodipodi-0.dtd"
   xmlns:inkscape="http://www.inkscape.org/namespaces/inkscape"
   version="1.1"
   id="Layer_1"
   x="0px"
   y="0px"
   width="48px"
   height="48px"
   viewBox="0 0 48 48"
   enable-background="new 0 0 16 16"
   xml:space="preserve"
   fill="#000000"
   inkscape:version="0.91 r13725"
   sodipodi:docname="spades.svg"><metadata
     id="metadata9"><rdf:RDF><cc:Work
         rdf:about=""><dc:format>image/svg+xml</dc:format><dc:type
           rdf:resource="http://purl.org/dc/dcmitype/StillImage" /><dc:title /></cc:Work></rdf:RDF></metadata><defs
     id="defs7" /><sodipodi:namedview
     pagecolor="#ffffff"
     bordercolor="#666666"
     borderopacity="1"
     objecttolerance="10"
     gridtolerance="10"
     guidetolerance="10"
     inkscape:pageopacity="0"
     inkscape:pageshadow="2"
     inkscape:window-width="1280"
     inkscape:window-height="972"
     id="namedview5"
     showgrid="false"
     inkscape:zoom="4.9166667"
     inkscape:cx="-12.101695"
     inkscape:cy="23.79661"
     inkscape:window-x="1352"
     inkscape:window-y="-8"
     inkscape:window-maximized="1"
     inkscape:current-layer="Layer_1" /><path
     inkscape:connector-curvature="0"
     id="path3192"
     d="m 22.384391,32.931 c 0,-1.56 -1.248,-1.638 -1.248,-0.468 -0.078,5.772 -4.992,8.658 -8.580001,7.956 -5.4599996,-1.014 -7.2539996,-6.474 -7.1759996,-9.672 0.156,-9.906 10.1400006,-17.238 19.1100006,-29.874 6.63,11.466 17.472,20.436 18.096,29.328 0.858,11.778 -14.04,16.146 -16.146,2.418 -0.156,-0.936 -1.248,-1.404 -1.17,-0.078 0.312,3.744 -0.156,5.304 4.134,14.586 l -11.076,0 c 2.418,-4.29 3.9,-9.594 4.056,-14.196 l 0,0 z" /></svg>